<svg width="24" height="24" viewBox="0 0 24 24" fill="none" xmlns="http://www.w3.org/2000/svg">
<g clip-path="url(#clip0_811_12400)">
<path d="M17.0016 21.6206H7.00158C5.58481 21.6215 4.21343 21.121 3.13027 20.2077C2.04711 19.2945 1.32205 18.0274 1.08349 16.6309C0.844924 15.2343 1.10824 13.7984 1.82682 12.5774C2.54539 11.3564 3.67286 10.429 5.00958 9.95957C4.9643 9.01323 5.1116 8.06754 5.44254 7.1798C5.77349 6.29206 6.28121 5.48074 6.93493 4.79499C7.58865 4.10924 8.37478 3.56332 9.24569 3.19033C10.1166 2.81733 11.0542 2.625 12.0016 2.625C12.949 2.625 13.8866 2.81733 14.7575 3.19033C15.6284 3.56332 16.4145 4.10924 17.0682 4.79499C17.722 5.48074 18.2297 6.29206 18.5606 7.1798C18.8916 8.06754 19.0389 9.01323 18.9936 9.95957C20.3303 10.429 21.4578 11.3564 22.1764 12.5774C22.8949 13.7984 23.1582 15.2343 22.9197 16.6309C22.6811 18.0274 21.9561 19.2945 20.8729 20.2077C19.7897 21.121 18.4184 21.6215 17.0016 21.6206ZM17.0016 9.62057C17.0018 8.95357 16.8686 8.29327 16.6098 7.67854C16.351 7.0638 15.9718 6.50707 15.4946 6.04111C15.0173 5.57515 14.4517 5.20939 13.8309 4.96536C13.2101 4.72133 12.5468 4.60396 11.88 4.62018C11.2132 4.63639 10.5564 4.78585 9.94828 5.05976C9.34012 5.33367 8.79291 5.72649 8.33887 6.21509C7.88483 6.7037 7.53314 7.2782 7.30451 7.90479C7.07588 8.53138 6.97492 9.19737 7.00758 9.86357L7.07758 11.3516L5.67358 11.8456C4.78409 12.1601 4.03433 12.7789 3.55668 13.5925C3.07903 14.4061 2.90419 15.3624 3.06304 16.2924C3.22189 17.2224 3.70421 18.0664 4.42485 18.6753C5.14549 19.2843 6.0581 19.6191 7.00158 19.6206H17.0016C17.7379 19.6203 18.4599 19.4168 19.088 19.0325C19.7161 18.6482 20.2259 18.098 20.5613 17.4424C20.8967 16.7869 21.0446 16.0515 20.9888 15.3173C20.933 14.5831 20.6755 13.8785 20.2449 13.2812C19.8143 12.684 19.2271 12.2171 18.5481 11.9322C17.8692 11.6473 17.1247 11.5553 16.3968 11.6664C15.6689 11.7774 14.9858 12.0873 14.4227 12.5618C13.8596 13.0363 13.4385 13.657 13.2056 14.3556L11.3076 13.7226C11.7064 12.528 12.4709 11.489 13.4927 10.7529C14.5146 10.0167 15.7422 9.62058 17.0016 9.62057Z" fill="#0F5FFF"/>
</g>
<defs>
<clipPath id="clip0_811_12400">
<rect width="24" height="24" fill="white"/>
</clipPath>
</defs>
</svg>
