<svg width="24" height="24" viewBox="0 0 24 24" fill="none" xmlns="http://www.w3.org/2000/svg">
<g clip-path="url(#clip0_814_12421)">
<path d="M3.15982 4.46898C4.31989 3.30871 5.87582 2.63007 7.51542 2.56923C9.15502 2.5084 10.757 3.06987 11.9998 4.14098C13.2416 3.07165 14.8414 2.51081 16.479 2.57074C18.1167 2.63067 19.6712 3.30695 20.8315 4.46419C21.9918 5.62142 22.6721 7.17421 22.7363 8.81167C22.8005 10.4491 22.2439 12.0504 21.1778 13.295L13.4128 21.085C13.0561 21.4419 12.5776 21.6507 12.0733 21.6696C11.5691 21.6885 11.0763 21.5161 10.6938 21.187L10.5838 21.086L2.81982 13.295C1.75431 12.0515 1.1974 10.4517 1.26044 8.81536C1.32347 7.17904 2.00181 5.6268 3.15982 4.46898ZM4.57382 5.88298C3.75606 6.70097 3.28468 7.80242 3.25749 8.95875C3.2303 10.1151 3.64941 11.2375 4.42782 12.093L4.57382 12.247L11.9988 19.672L17.3018 14.368L13.7668 10.833L12.7068 11.893C12.4283 12.1716 12.0976 12.3927 11.7336 12.5436C11.3696 12.6944 10.9795 12.7721 10.5855 12.7722C9.78981 12.7724 9.02661 12.4565 8.46382 11.894C7.90103 11.3315 7.58475 10.5684 7.58457 9.77269C7.58438 8.97697 7.9003 8.21377 8.46282 7.65098L10.5648 5.54798C9.72829 4.88036 8.68123 4.53267 7.61151 4.56731C6.54178 4.60195 5.51941 5.01664 4.72782 5.73698L4.57382 5.88298ZM13.0598 8.71098C13.2473 8.52351 13.5017 8.4182 13.7668 8.4182C14.032 8.4182 14.2863 8.52351 14.4738 8.71098L18.7158 12.953L19.4238 12.247C20.2553 11.4161 20.7286 10.2929 20.7427 9.11754C20.7567 7.94219 20.3102 6.808 19.4988 5.95754C18.6874 5.10707 17.5755 4.60785 16.4008 4.56663C15.226 4.52542 14.0818 4.94548 13.2128 5.73698L13.0598 5.88298L9.87782 9.06498C9.70449 9.2382 9.6008 9.46902 9.58642 9.71365C9.57204 9.95827 9.64798 10.1997 9.79982 10.392L9.87782 10.479C10.051 10.6523 10.2819 10.756 10.5265 10.7704C10.7711 10.7848 11.0125 10.7088 11.2048 10.557L11.2918 10.479L13.0598 8.71098Z" fill="#0F5FFF"/>
</g>
<defs>
<clipPath id="clip0_814_12421">
<rect width="24" height="24" fill="white"/>
</clipPath>
</defs>
</svg>
