<svg width="24" height="24" viewBox="0 0 24 24" fill="none" xmlns="http://www.w3.org/2000/svg">
<g clip-path="url(#clip0_811_12407)">
<path d="M0.997803 21.9995C0.997803 19.8778 1.84066 17.8429 3.34095 16.3427C4.84124 14.8424 6.87607 13.9995 8.9978 13.9995C11.1195 13.9995 13.1544 14.8424 14.6547 16.3427C16.1549 17.8429 16.9978 19.8778 16.9978 21.9995H14.9978C14.9978 20.4082 14.3657 18.8821 13.2404 17.7569C12.1152 16.6316 10.5891 15.9995 8.9978 15.9995C7.4065 15.9995 5.88038 16.6316 4.75516 17.7569C3.62994 18.8821 2.9978 20.4082 2.9978 21.9995H0.997803ZM8.9978 12.9995C5.6828 12.9995 2.9978 10.3145 2.9978 6.99951C2.9978 3.68451 5.6828 0.999508 8.9978 0.999508C12.3128 0.999508 14.9978 3.68451 14.9978 6.99951C14.9978 10.3145 12.3128 12.9995 8.9978 12.9995ZM8.9978 10.9995C11.2078 10.9995 12.9978 9.20951 12.9978 6.99951C12.9978 4.78951 11.2078 2.99951 8.9978 2.99951C6.7878 2.99951 4.9978 4.78951 4.9978 6.99951C4.9978 9.20951 6.7878 10.9995 8.9978 10.9995ZM21.5458 0.783508C22.504 2.71534 23.001 4.8431 22.9978 6.99951C22.9978 9.23251 22.4748 11.3435 21.5458 13.2155L19.9008 12.0195C20.626 10.4455 21.0003 8.73257 20.9978 6.99951C20.9978 5.20751 20.6048 3.50651 19.9008 1.97951L21.5458 0.783508ZM18.2438 3.18351C18.7432 4.39367 18.9994 5.69034 18.9978 6.99951C18.9994 8.30868 18.7432 9.60535 18.2438 10.8155L16.5668 9.59551C16.853 8.75994 16.9986 7.88272 16.9978 6.99951C16.9989 6.11636 16.8536 5.23913 16.5678 4.40351L18.2438 3.18351Z" fill="#0F5FFF"/>
</g>
<defs>
<clipPath id="clip0_811_12407">
<rect width="24" height="24" fill="white"/>
</clipPath>
</defs>
</svg>
