<svg width="24" height="24" viewBox="0 0 24 24" fill="none" xmlns="http://www.w3.org/2000/svg">
<g clip-path="url(#clip0_814_12414)">
<path d="M2.9978 20.0362V6.73615C2.99774 6.53088 3.06085 6.33056 3.17857 6.16239C3.29629 5.99422 3.46291 5.86636 3.6558 5.79615L13.3268 2.28015C13.4023 2.25266 13.4834 2.24378 13.5631 2.25428C13.6428 2.26478 13.7188 2.29435 13.7847 2.34047C13.8505 2.38659 13.9043 2.44791 13.9414 2.51923C13.9785 2.59055 13.9978 2.66976 13.9978 2.75015V7.70315L20.3138 9.80815C20.513 9.8745 20.6863 10.0019 20.809 10.1722C20.9318 10.3425 20.9979 10.5472 20.9978 10.7572V20.0362H22.9978V22.0362H0.997803V20.0362H2.9978ZM4.9978 20.0362H11.9978V4.89115L4.9978 7.43715V20.0362ZM18.9978 20.0362V11.4782L13.9978 9.81115V20.0362H18.9978Z" fill="#0F5FFF"/>
</g>
<defs>
<clipPath id="clip0_814_12414">
<rect width="24" height="24" fill="white"/>
</clipPath>
</defs>
</svg>
