<svg width="436" height="422" viewBox="0 0 436 422" fill="none" xmlns="http://www.w3.org/2000/svg">
<path d="M331.169 232.5C328.491 234.446 323.525 238.63 323.144 241.12C323.97 242.243 325.427 243.231 326.477 243.841H335.86C337.159 242.858 338.487 242.289 339.193 241.12C337.599 237.229 334.4 234.778 331.169 232.5V232.5ZM328.022 250.182L323.99 266.388H338.348L334.315 250.182H328.022ZM364.831 258.109C359.212 265.634 352.091 272.851 346.128 279.442C342.66 283.275 339.59 286.892 337.476 290.077C335.363 293.262 334.325 295.981 334.325 297.742C334.325 298.482 334.387 299.191 334.496 299.872C350.309 289.877 363.071 275.056 368.575 262.833C367.278 261.274 366.019 259.699 364.831 258.109V258.109ZM373.089 268.052C366.333 281.416 353.206 295.808 336.963 305.796C338.59 308.111 340.615 309.744 341.976 310.675C360.062 299.358 371.807 286.799 378.402 273.862C376.644 271.963 374.855 270.024 373.089 268.052V268.052ZM322.83 272.729L320.05 303.453L322.574 307.257C327.563 314.776 333.768 319.991 339.234 324.757V316.465C335.705 314.194 328.013 308.066 328.013 297.742C328.013 293.867 329.78 290.244 332.225 286.56C334.303 283.427 336.961 280.224 339.888 276.928L339.508 272.729H322.83ZM382.937 278.788C376.55 290.405 366.443 301.446 352.203 311.482H363.2C376.392 302.059 384.219 293.544 387.11 283.502C385.61 281.761 384.31 280.288 382.937 278.788V278.788ZM404.104 280.59C402.135 283.135 400.073 285.403 398.018 287.466C398.327 287.956 398.629 288.446 398.909 288.935H411.682C409.14 286.492 406.55 283.752 404.104 280.59V280.59ZM391.723 289.405C388.35 297.498 382.204 304.554 373.679 311.482H386.405C387.84 310.668 395.338 306.061 395.338 297.742C395.338 295.981 394.3 293.262 392.186 290.077C392.04 289.857 391.878 289.63 391.723 289.405H391.723ZM288.74 294.52C286.163 300.037 284.2 304.794 283.019 309.145C281.226 315.749 281.058 321.454 283.01 328.392H288.74V294.52ZM295.052 294.52V328.392H296.612C298.392 326.725 300.083 325.257 301.796 323.767C302.566 318.778 302.153 314.226 300.773 309.145C299.592 304.794 297.629 300.038 295.052 294.52V294.52ZM401.411 295.276C401.719 296.957 401.69 298.626 401.498 300.208H424.144C422.237 298.332 420.582 296.881 418.735 295.276H401.411ZM280.067 298.462C275.227 303.141 267.288 308.895 267 314.653C267 322.972 274.498 327.578 275.933 328.392H276.499C274.77 321.102 275.05 314.399 276.929 307.477C277.723 304.553 278.784 301.581 280.067 298.462V298.462ZM303.725 298.462C305.009 301.581 306.069 304.553 306.863 307.477C307.799 310.926 308.338 314.322 308.429 317.763C310.817 315.446 313.177 312.905 315.367 310.009C312.024 305.248 307.741 302 303.725 298.462V298.462ZM399.584 306.55C398.645 308.445 397.471 310.087 396.243 311.482H428.77C428.916 310.699 429 309.879 429 309.016C429.001 308.178 428.869 307.345 428.607 306.55H399.584ZM319.948 314.411C314.583 321.346 308.527 326.263 303.792 330.426C301.029 332.856 298.729 335.039 297.237 337.061C295.746 339.085 295.052 340.811 295.052 342.837C295.052 351.156 302.55 355.762 303.985 356.576H335.243C335.909 348.386 336.779 340.835 339.234 333.288C338.282 332.371 337.234 331.42 336.104 330.426C331.369 326.263 325.313 321.346 319.948 314.411V314.411ZM345.545 317.823V334.029H384.117V317.823H345.545ZM390.429 317.823V322.756H420.067C420.872 322.299 423.582 320.65 425.808 317.823H390.429ZM390.429 329.097V336.045C391.367 337.385 391.768 338.888 392.24 340.683C392.85 343.004 393.331 345.814 393.741 349.021C394.703 357.853 395.198 365.795 395.488 373.487H417.779V329.097H390.429ZM278.221 334.734V379.124H299.961V361.56C296.432 359.288 288.74 353.161 288.74 342.837C288.74 339.844 289.71 337.131 291.188 334.734H278.221ZM344.269 340.371C342.999 343.693 342.523 347.782 342.148 350.94H387.612C386.927 347.352 386.676 343.265 385.438 340.371H344.269ZM341.519 357.281C341.143 361.806 340.853 366.797 340.634 371.863C340.389 377.518 340.235 383.085 340.134 388.207L349.368 357.281H341.519ZM357.46 357.281L364.831 394.309L372.202 357.281H357.46ZM380.294 357.281L389.581 388.383C389.493 383.206 389.351 377.572 389.113 371.842C388.903 366.783 388.62 361.798 388.246 357.281H380.294ZM306.273 362.918V379.124H333.623V362.918H306.273ZM352.997 367.199L343.651 398.5H359.228L352.997 367.199ZM376.665 367.199L370.434 398.5H386.011L376.665 367.199ZM395.697 379.828C395.891 386.765 395.97 393.14 396.006 398.5H427.41C425.704 392.079 423.726 385.063 419.464 379.828H395.697ZM276.398 385.465C272.512 389.373 269.179 392.916 267.757 398.5H291.652C293.053 394.04 294.84 389.208 296.93 385.465H276.398ZM304.622 385.465C301.77 389.933 299.59 394.281 298.268 398.5H333.681C333.718 394.587 333.775 390.213 333.883 385.465H304.622Z" stroke="#0F5FFF"/>
<g filter="url(#filter0_d_910_696)">
<rect x="79" y="47" width="278" height="264" rx="16" fill="white" shape-rendering="crispEdges"/>
<rect x="107" y="71" width="52" height="52" rx="10.5" fill="#0F5FFF"/>
<g clip-path="url(#clip0_910_696)">
<path d="M130.059 84.6582C129.671 84.9387 128.952 85.5418 128.896 85.9007C129.016 86.0626 129.227 86.2051 129.379 86.2929H130.738C130.926 86.1512 131.118 86.0692 131.221 85.9007C130.99 85.3399 130.526 84.9866 130.059 84.6583V84.6582ZM129.603 87.2069L129.019 89.5429H131.098L130.514 87.2069H129.603ZM134.934 88.3495C134.12 89.4343 133.089 90.4745 132.225 91.4246C131.723 91.9771 131.278 92.4984 130.972 92.9575C130.666 93.4166 130.516 93.8085 130.516 94.0624C130.516 94.169 130.525 94.2712 130.54 94.3694C132.831 92.9287 134.679 90.7923 135.476 89.0305C135.288 88.8057 135.106 88.5788 134.934 88.3495ZM136.129 89.7828C135.151 91.709 133.25 93.7835 130.898 95.2232C131.133 95.557 131.427 95.7923 131.624 95.9265C134.243 94.2953 135.944 92.4849 136.899 90.6202C136.644 90.3465 136.385 90.0671 136.129 89.7828ZM128.851 90.4569L128.448 94.8855L128.814 95.4339C129.536 96.5176 130.435 97.2693 131.227 97.9564V96.7612C130.716 96.4338 129.602 95.5505 129.602 94.0624C129.602 93.5038 129.858 92.9816 130.212 92.4505C130.513 91.999 130.897 91.5373 131.321 91.0621L131.266 90.4569H128.851ZM137.556 91.3302C136.631 93.0048 135.167 94.5962 133.105 96.0429H134.697C136.608 94.6846 137.741 93.4573 138.16 92.0098C137.943 91.7588 137.755 91.5464 137.556 91.3302ZM140.621 91.5899C140.336 91.9569 140.037 92.2838 139.74 92.5812C139.785 92.6518 139.828 92.7224 139.869 92.7929H141.719C141.35 92.4407 140.975 92.0458 140.621 91.5899ZM138.828 92.8606C138.34 94.0272 137.45 95.0443 136.215 96.0429H138.058C138.266 95.9254 139.352 95.2615 139.352 94.0624C139.352 93.8085 139.201 93.4166 138.895 92.9575C138.874 92.9257 138.851 92.893 138.828 92.8606H138.828ZM123.914 93.5978C123.541 94.3932 123.257 95.0788 123.086 95.706C122.826 96.6579 122.801 97.4802 123.084 98.4804H123.914V93.5978ZM124.828 93.5978V98.4804H125.054C125.312 98.2401 125.557 98.0284 125.805 97.8136C125.916 97.0945 125.856 96.4384 125.657 95.706C125.486 95.0788 125.201 94.3932 124.828 93.5978ZM140.231 93.7069C140.276 93.9491 140.271 94.1898 140.244 94.4179H143.523C143.247 94.1473 143.007 93.9382 142.74 93.7069H140.231ZM122.658 94.1661C121.957 94.8406 120.807 95.67 120.766 96.4999C120.766 97.699 121.851 98.3629 122.059 98.4804H122.141C121.891 97.4295 121.931 96.4633 122.204 95.4656C122.319 95.044 122.472 94.6157 122.658 94.1661ZM126.084 94.1661C126.27 94.6157 126.424 95.044 126.539 95.4656C126.674 95.9628 126.752 96.4523 126.765 96.9482C127.111 96.6142 127.453 96.2479 127.77 95.8305C127.286 95.1442 126.666 94.6761 126.084 94.1661ZM139.967 95.3319C139.831 95.6051 139.66 95.8418 139.483 96.0429H144.193C144.214 95.93 144.227 95.8117 144.227 95.6874C144.227 95.5666 144.208 95.4466 144.17 95.3319H139.967ZM128.434 96.465C127.657 97.4646 126.78 98.1735 126.094 98.7735C125.694 99.1237 125.361 99.4383 125.145 99.7299C124.929 100.022 124.828 100.27 124.828 100.562C124.828 101.761 125.914 102.425 126.122 102.543H130.649C130.745 101.362 130.871 100.274 131.227 99.186C131.089 99.0538 130.937 98.9168 130.773 98.7735C130.088 98.1735 129.211 97.4646 128.434 96.465ZM132.141 96.9569V99.2929H137.727V96.9569H132.141ZM138.641 96.9569V97.6679H142.933C143.049 97.602 143.442 97.3643 143.764 96.9569H138.641ZM138.641 98.5819V99.5835C138.777 99.7765 138.835 99.9932 138.903 100.252C138.991 100.587 139.061 100.991 139.12 101.454C139.26 102.727 139.331 103.872 139.373 104.98H142.602V98.5819H138.641ZM122.391 99.3944V105.793H125.539V103.261C125.028 102.934 123.914 102.051 123.914 100.562C123.914 100.131 124.055 99.74 124.269 99.3944H122.391ZM131.956 100.207C131.772 100.686 131.703 101.275 131.649 101.73H138.233C138.133 101.213 138.097 100.624 137.918 100.207H131.956ZM131.557 102.644C131.503 103.297 131.461 104.016 131.429 104.746C131.394 105.561 131.371 106.364 131.357 107.102L132.694 102.644H131.557ZM133.866 102.644L134.934 107.982L136.001 102.644H133.866ZM137.173 102.644L138.518 107.128C138.505 106.381 138.485 105.569 138.45 104.743C138.42 104.014 138.379 103.296 138.325 102.644H137.173ZM126.453 103.457V105.793H130.414V103.457H126.453ZM133.22 104.074L131.866 108.586H134.122L133.22 104.074ZM136.647 104.074L135.745 108.586H138.001L136.647 104.074ZM139.404 105.894C139.432 106.894 139.443 107.813 139.448 108.586H143.996C143.749 107.66 143.463 106.649 142.846 105.894H139.404ZM122.127 106.707C121.564 107.27 121.081 107.781 120.875 108.586H124.336C124.539 107.943 124.797 107.246 125.1 106.707H122.127ZM126.214 106.707C125.801 107.351 125.485 107.978 125.294 108.586H130.422C130.428 108.022 130.436 107.391 130.452 106.707H126.214Z" fill="white"/>
</g>
<path d="M108.128 174H109.7V165.298H114.273V164.047H108.128V174ZM114.991 170.507C114.991 171.61 115.31 172.503 115.948 173.187C116.591 173.866 117.438 174.205 118.491 174.205C119.544 174.205 120.389 173.866 121.027 173.187C121.665 172.503 121.984 171.61 121.984 170.507V170.288C121.984 169.19 121.665 168.301 121.027 167.622C120.389 166.938 119.544 166.597 118.491 166.597C117.438 166.597 116.591 166.938 115.948 167.622C115.31 168.301 114.991 169.19 114.991 170.288V170.507ZM116.55 170.254C116.55 169.534 116.714 168.946 117.042 168.49C117.375 168.03 117.858 167.8 118.491 167.8C119.12 167.8 119.599 168.03 119.927 168.49C120.259 168.946 120.426 169.534 120.426 170.254V170.548C120.426 171.268 120.262 171.856 119.934 172.312C119.605 172.767 119.125 172.995 118.491 172.995C117.853 172.995 117.37 172.767 117.042 172.312C116.714 171.856 116.55 171.268 116.55 170.548V170.254ZM123.516 176.844H125.04V173.193C125.241 173.48 125.519 173.711 125.874 173.884C126.229 174.052 126.649 174.137 127.132 174.137C128.043 174.137 128.772 173.799 129.319 173.125C129.871 172.446 130.146 171.573 130.146 170.507V170.288C130.146 169.222 129.868 168.351 129.312 167.677C128.761 167.002 128.027 166.665 127.111 166.665C126.628 166.665 126.2 166.765 125.826 166.966C125.452 167.162 125.179 167.406 125.006 167.697H124.965L124.917 166.802H123.516V176.844ZM125.04 171.778V169.01C125.172 168.714 125.386 168.449 125.683 168.217C125.979 167.984 126.341 167.868 126.77 167.868C127.394 167.868 127.852 168.091 128.144 168.538C128.44 168.985 128.588 169.557 128.588 170.254V170.548C128.588 171.245 128.44 171.817 128.144 172.264C127.852 172.71 127.394 172.934 126.77 172.934C126.35 172.934 125.988 172.817 125.683 172.585C125.382 172.348 125.168 172.079 125.04 171.778ZM131.261 170.507C131.261 171.61 131.58 172.503 132.218 173.187C132.86 173.866 133.708 174.205 134.761 174.205C135.813 174.205 136.659 173.866 137.297 173.187C137.935 172.503 138.254 171.61 138.254 170.507V170.288C138.254 169.19 137.935 168.301 137.297 167.622C136.659 166.938 135.813 166.597 134.761 166.597C133.708 166.597 132.86 166.938 132.218 167.622C131.58 168.301 131.261 169.19 131.261 170.288V170.507ZM132.819 170.254C132.819 169.534 132.983 168.946 133.312 168.49C133.644 168.03 134.127 167.8 134.761 167.8C135.39 167.8 135.868 168.03 136.196 168.49C136.529 168.946 136.695 169.534 136.695 170.254V170.548C136.695 171.268 136.531 171.856 136.203 172.312C135.875 172.767 135.394 172.995 134.761 172.995C134.123 172.995 133.64 172.767 133.312 172.312C132.983 171.856 132.819 171.268 132.819 170.548V170.254ZM145.274 175.846H146.676V172.831H138.883V175.846H140.284V174H145.274V175.846ZM141.638 167.971H144.092V174H145.616V166.802H140.305L140.168 170.062C140.132 170.901 140.061 171.537 139.956 171.97C139.851 172.403 139.721 172.731 139.566 172.954H141.118C141.241 172.662 141.335 172.325 141.398 171.942C141.462 171.555 141.508 171.029 141.535 170.363L141.638 167.971Z" fill="#0F5FFF"/>
<path d="M108.388 198.314C108.388 201.609 109.157 204.111 110.696 205.819C112.235 207.519 114.25 208.368 116.742 208.368C119.159 208.368 121.009 207.726 122.293 206.442C123.577 205.159 124.271 203.53 124.375 201.557L124.389 201.104H121.316V201.5C121.24 202.86 120.83 203.936 120.084 204.729C119.348 205.522 118.253 205.918 116.799 205.918C115.213 205.918 113.943 205.291 112.99 204.035C112.036 202.78 111.56 200.962 111.56 198.583V196.813C111.56 194.293 112.032 192.443 112.976 191.263C113.929 190.073 115.189 189.479 116.756 189.479C118.286 189.479 119.428 189.87 120.183 190.654C120.938 191.428 121.316 192.49 121.316 193.84V194.279H124.389V193.911C124.389 191.872 123.714 190.215 122.364 188.94C121.023 187.657 119.154 187.015 116.756 187.015C114.321 187.015 112.315 187.86 110.738 189.549C109.171 191.239 108.388 193.745 108.388 197.068V198.314ZM126.357 203.851C126.357 205.286 126.815 206.381 127.73 207.136C128.646 207.882 129.803 208.255 131.2 208.255C132.399 208.255 133.385 208.028 134.159 207.575C134.933 207.113 135.481 206.589 135.802 206.003C135.84 206.372 135.906 206.74 136 207.108C136.104 207.467 136.222 207.764 136.354 208H139.243V207.773C139.063 207.377 138.926 206.91 138.832 206.372C138.738 205.833 138.69 205.262 138.69 204.658V198.215C138.69 196.554 138.2 195.331 137.218 194.548C136.245 193.764 134.862 193.373 133.069 193.373C131.266 193.373 129.831 193.783 128.764 194.604C127.707 195.426 127.178 196.422 127.178 197.592V197.833H130.081V197.649C130.081 197.045 130.308 196.544 130.761 196.148C131.223 195.742 131.955 195.539 132.956 195.539C133.956 195.539 134.664 195.78 135.08 196.261C135.504 196.733 135.717 197.375 135.717 198.187V199.221H132.517C130.704 199.221 129.222 199.627 128.07 200.438C126.928 201.25 126.357 202.388 126.357 203.851ZM129.331 203.653C129.331 202.869 129.633 202.26 130.237 201.826C130.85 201.382 131.771 201.161 132.998 201.161H135.717V202.973C135.717 203.757 135.344 204.474 134.598 205.125C133.852 205.767 133.003 206.088 132.049 206.088C131.134 206.088 130.449 205.876 129.996 205.451C129.552 205.017 129.331 204.417 129.331 203.653ZM142.372 193.755V208H145.346V201.897H151.321V208H154.295V193.755H151.321V199.589H145.346V193.755H142.372ZM167.167 208H170.735L163.896 199.617L161.913 201.543L167.167 208ZM159.478 199.589V201.897H163.641L170.112 193.755H166.756L162.14 199.589H159.478ZM160.95 193.755H157.977V208H160.95V193.755ZM170.947 196.063H175.422V208H178.396V196.063H182.87V193.755H170.947V196.063ZM184.145 200.339H192.003V197.748H184.145V200.339ZM194.963 208H198.05V189.861H207.07V208H210.143V187.383H194.963V208ZM213.272 201.09C213.272 203.271 213.876 205.031 215.084 206.372C216.302 207.712 218.025 208.382 220.253 208.382C221.707 208.382 222.92 208.094 223.892 207.519C224.874 206.933 225.587 206.249 226.03 205.465L223.935 204.106C223.566 204.653 223.071 205.116 222.448 205.494C221.834 205.871 221.093 206.06 220.225 206.06C218.903 206.06 217.912 205.602 217.251 204.687C216.59 203.771 216.26 202.591 216.26 201.146V200.523C216.26 199.117 216.571 197.956 217.194 197.04C217.817 196.124 218.743 195.667 219.97 195.667C221.055 195.667 221.867 196.016 222.405 196.714C222.943 197.403 223.212 198.225 223.212 199.178V199.433H215.084V201.5H226.172V200.41C226.172 198.22 225.629 196.497 224.543 195.242C223.458 193.986 221.919 193.358 219.927 193.358C217.935 193.358 216.326 194.029 215.099 195.369C213.881 196.71 213.272 198.465 213.272 200.637V201.09ZM227.503 196.063H231.978V208H234.951V196.063H239.426V193.755H227.503V196.063ZM240.856 201.09C240.856 203.271 241.46 205.031 242.668 206.372C243.886 207.712 245.609 208.382 247.837 208.382C249.291 208.382 250.504 208.094 251.476 207.519C252.458 206.933 253.171 206.249 253.614 205.465L251.519 204.106C251.15 204.653 250.655 205.116 250.032 205.494C249.418 205.871 248.677 206.06 247.809 206.06C246.487 206.06 245.496 205.602 244.835 204.687C244.174 203.771 243.844 202.591 243.844 201.146V200.523C243.844 199.117 244.155 197.956 244.778 197.04C245.401 196.124 246.326 195.667 247.554 195.667C248.639 195.667 249.451 196.016 249.989 196.714C250.527 197.403 250.796 198.225 250.796 199.178V199.433H242.668V201.5H253.756V200.41C253.756 198.22 253.213 196.497 252.127 195.242C251.042 193.986 249.503 193.358 247.511 193.358C245.519 193.358 243.91 194.029 242.683 195.369C241.465 196.71 240.856 198.465 240.856 200.637V201.09ZM256.503 214.004H259.477V206.357C259.901 206.943 260.472 207.41 261.19 207.759C261.907 208.109 262.757 208.283 263.739 208.283C265.542 208.283 266.977 207.618 268.043 206.287C269.12 204.956 269.658 203.219 269.658 201.076V200.623C269.658 198.48 269.12 196.752 268.043 195.44C266.967 194.118 265.523 193.458 263.71 193.458C262.729 193.458 261.855 193.665 261.091 194.081C260.326 194.486 259.769 194.987 259.42 195.582H259.349L259.278 193.755H256.503V214.004ZM259.477 203.625V198.102C259.75 197.498 260.185 196.965 260.779 196.502C261.374 196.039 262.096 195.808 262.946 195.808C264.211 195.808 265.136 196.252 265.721 197.139C266.316 198.017 266.613 199.155 266.613 200.552V201.132C266.613 202.539 266.316 203.695 265.721 204.602C265.136 205.498 264.215 205.947 262.96 205.947C262.101 205.947 261.369 205.715 260.765 205.253C260.17 204.781 259.741 204.238 259.477 203.625ZM274.798 200.849C274.798 199.461 275.124 198.333 275.775 197.465C276.436 196.587 277.413 196.148 278.706 196.148C279.98 196.148 280.943 196.587 281.595 197.465C282.256 198.333 282.586 199.461 282.586 200.849V201.288C282.586 202.704 282.256 203.851 281.595 204.729C280.943 205.597 279.976 206.032 278.692 206.032C277.408 206.032 276.436 205.597 275.775 204.729C275.124 203.851 274.798 202.709 274.798 201.302V200.849ZM279.428 193.797C278.192 193.797 277.13 194.071 276.242 194.619C275.355 195.166 274.685 195.912 274.231 196.856H274.076C274.227 194.949 274.708 193.476 275.52 192.438C276.341 191.39 277.875 190.715 280.122 190.413C282.029 190.158 283.327 189.738 284.016 189.153C284.715 188.558 285.102 187.704 285.177 186.59H282.586C282.539 186.854 282.378 187.085 282.104 187.284C281.84 187.472 280.948 187.68 279.428 187.907C276.521 188.341 274.515 189.474 273.41 191.305C272.306 193.137 271.753 195.709 271.753 199.022V200C271.753 202.992 272.372 205.14 273.608 206.442C274.854 207.736 276.549 208.382 278.692 208.382C280.778 208.382 282.454 207.731 283.719 206.428C284.993 205.125 285.63 203.417 285.63 201.302V200.835C285.63 198.777 285.073 197.092 283.959 195.78C282.846 194.458 281.335 193.797 279.428 193.797ZM287.372 213.876C287.636 213.98 287.92 214.056 288.222 214.103C288.533 214.15 288.897 214.174 289.312 214.174C290.492 214.174 291.469 213.806 292.243 213.069C293.017 212.333 293.678 211.229 294.226 209.756L300.116 193.755H297.341L294.141 202.931C294.018 203.289 293.909 203.615 293.815 203.908C293.73 204.191 293.654 204.469 293.588 204.743H293.503C293.437 204.469 293.362 204.191 293.277 203.908C293.192 203.615 293.083 203.294 292.951 202.945L289.652 193.755H286.692L292.13 207.986H292.158C291.686 209.477 291.209 210.487 290.728 211.016C290.256 211.545 289.694 211.804 289.043 211.795C288.769 211.795 288.486 211.771 288.193 211.724C287.901 211.686 287.632 211.63 287.386 211.554L287.372 213.876ZM301.929 214.004H304.902V206.357C305.327 206.943 305.898 207.41 306.616 207.759C307.333 208.109 308.183 208.283 309.165 208.283C310.968 208.283 312.403 207.618 313.469 206.287C314.545 204.956 315.083 203.219 315.083 201.076V200.623C315.083 198.48 314.545 196.752 313.469 195.44C312.393 194.118 310.949 193.458 309.136 193.458C308.154 193.458 307.281 193.665 306.517 194.081C305.752 194.486 305.195 194.987 304.846 195.582H304.775L304.704 193.755H301.929V214.004ZM304.902 203.625V198.102C305.176 197.498 305.61 196.965 306.205 196.502C306.8 196.039 307.522 195.808 308.372 195.808C309.637 195.808 310.562 196.252 311.147 197.139C311.742 198.017 312.039 199.155 312.039 200.552V201.132C312.039 202.539 311.742 203.695 311.147 204.602C310.562 205.498 309.641 205.947 308.386 205.947C307.527 205.947 306.795 205.715 306.191 205.253C305.596 204.781 305.167 204.238 304.902 203.625ZM317.93 193.755V208H320.903V196.063H327.375V193.755H317.93Z" fill="#14225B"/>
<rect x="107.5" y="239.5" width="221" height="47" rx="23.5" fill="#008DF4" fill-opacity="0.1"/>
<path d="M140.376 256.914V258.574H134.765V269H132.69V256.914H140.376ZM139.729 264.609V264.418C139.729 263.771 139.823 263.17 140.011 262.617C140.199 262.058 140.47 261.574 140.825 261.164C141.184 260.749 141.622 260.428 142.136 260.201C142.656 259.969 143.243 259.853 143.896 259.853C144.554 259.853 145.141 259.969 145.656 260.201C146.176 260.428 146.616 260.749 146.976 261.164C147.335 261.574 147.609 262.058 147.797 262.617C147.985 263.17 148.08 263.771 148.08 264.418V264.609C148.08 265.256 147.985 265.857 147.797 266.41C147.609 266.964 147.335 267.448 146.976 267.863C146.616 268.272 146.179 268.593 145.664 268.826C145.149 269.053 144.566 269.166 143.913 269.166C143.254 269.166 142.665 269.053 142.144 268.826C141.63 268.593 141.193 268.272 140.833 267.863C140.473 267.448 140.199 266.964 140.011 266.41C139.823 265.857 139.729 265.256 139.729 264.609ZM141.729 264.418V264.609C141.729 265.013 141.771 265.395 141.854 265.754C141.937 266.114 142.067 266.43 142.244 266.701C142.421 266.972 142.648 267.185 142.925 267.34C143.201 267.495 143.531 267.572 143.913 267.572C144.283 267.572 144.604 267.495 144.875 267.34C145.152 267.185 145.379 266.972 145.556 266.701C145.733 266.43 145.863 266.114 145.946 265.754C146.035 265.395 146.079 265.013 146.079 264.609V264.418C146.079 264.02 146.035 263.643 145.946 263.289C145.863 262.929 145.73 262.611 145.548 262.334C145.371 262.058 145.144 261.842 144.867 261.687C144.596 261.527 144.272 261.446 143.896 261.446C143.52 261.446 143.193 261.527 142.916 261.687C142.645 261.842 142.421 262.058 142.244 262.334C142.067 262.611 141.937 262.929 141.854 263.289C141.771 263.643 141.729 264.02 141.729 264.418ZM150.446 260.019H152.446L152.346 263.181C152.319 264.1 152.214 264.888 152.031 265.547C151.848 266.205 151.61 266.762 151.317 267.215C151.024 267.664 150.692 268.032 150.321 268.319C149.956 268.607 149.571 268.834 149.167 269H148.578V267.423L148.86 267.406C149.098 267.152 149.303 266.897 149.474 266.643C149.651 266.382 149.801 266.097 149.923 265.788C150.044 265.472 150.138 265.104 150.205 264.684C150.277 264.263 150.324 263.762 150.346 263.181L150.446 260.019ZM150.977 260.019H156.671V269H154.679V261.712H150.977V260.019ZM148.121 267.406H157.9V271.673H155.899V269H150.147V271.673H148.113L148.121 267.406ZM162.499 264.609V264.418C162.499 263.771 162.593 263.17 162.781 262.617C162.969 262.058 163.241 261.574 163.595 261.164C163.954 260.749 164.392 260.428 164.906 260.201C165.426 259.969 166.013 259.853 166.666 259.853C167.325 259.853 167.911 259.969 168.426 260.201C168.946 260.428 169.386 260.749 169.746 261.164C170.105 261.574 170.379 262.058 170.567 262.617C170.755 263.17 170.85 263.771 170.85 264.418V264.609C170.85 265.256 170.755 265.857 170.567 266.41C170.379 266.964 170.105 267.448 169.746 267.863C169.386 268.272 168.949 268.593 168.434 268.826C167.919 269.053 167.336 269.166 166.683 269.166C166.024 269.166 165.435 269.053 164.915 268.826C164.4 268.593 163.963 268.272 163.603 267.863C163.243 267.448 162.969 266.964 162.781 266.41C162.593 265.857 162.499 265.256 162.499 264.609ZM164.499 264.418V264.609C164.499 265.013 164.541 265.395 164.624 265.754C164.707 266.114 164.837 266.43 165.014 266.701C165.191 266.972 165.418 267.185 165.695 267.34C165.971 267.495 166.301 267.572 166.683 267.572C167.053 267.572 167.374 267.495 167.645 267.34C167.922 267.185 168.149 266.972 168.326 266.701C168.503 266.43 168.633 266.114 168.716 265.754C168.805 265.395 168.849 265.013 168.849 264.609V264.418C168.849 264.02 168.805 263.643 168.716 263.289C168.633 262.929 168.5 262.611 168.318 262.334C168.141 262.058 167.914 261.842 167.637 261.687C167.366 261.527 167.042 261.446 166.666 261.446C166.29 261.446 165.963 261.527 165.686 261.687C165.415 261.842 165.191 262.058 165.014 262.334C164.837 262.611 164.707 262.929 164.624 263.289C164.541 263.643 164.499 264.02 164.499 264.418ZM175.855 267.572C176.182 267.572 176.475 267.509 176.735 267.381C177.001 267.249 177.214 267.066 177.374 266.833C177.54 266.601 177.632 266.333 177.648 266.028H179.533C179.521 266.609 179.35 267.138 179.018 267.614C178.686 268.09 178.246 268.469 177.698 268.751C177.15 269.028 176.544 269.166 175.88 269.166C175.194 269.166 174.596 269.05 174.087 268.817C173.578 268.579 173.155 268.253 172.817 267.838C172.48 267.423 172.225 266.944 172.054 266.402C171.888 265.86 171.804 265.278 171.804 264.659V264.368C171.804 263.748 171.888 263.167 172.054 262.625C172.225 262.077 172.48 261.596 172.817 261.181C173.155 260.766 173.578 260.442 174.087 260.209C174.596 259.972 175.191 259.853 175.872 259.853C176.591 259.853 177.222 259.996 177.764 260.284C178.307 260.566 178.733 260.962 179.043 261.471C179.358 261.975 179.521 262.561 179.533 263.231H177.648C177.632 262.899 177.549 262.6 177.399 262.334C177.255 262.063 177.051 261.847 176.785 261.687C176.525 261.527 176.212 261.446 175.847 261.446C175.443 261.446 175.108 261.529 174.843 261.695C174.577 261.856 174.369 262.077 174.22 262.359C174.071 262.636 173.963 262.949 173.896 263.297C173.835 263.64 173.805 263.997 173.805 264.368V264.659C173.805 265.029 173.835 265.389 173.896 265.738C173.957 266.086 174.062 266.399 174.212 266.676C174.367 266.947 174.577 267.166 174.843 267.332C175.108 267.492 175.446 267.572 175.855 267.572ZM186.862 263.771V265.348H182.214V263.771H186.862ZM182.795 260.019V269H180.795V260.019H182.795ZM188.307 260.019V269H186.306V260.019H188.307ZM189.718 264.609V264.418C189.718 263.771 189.812 263.17 190 262.617C190.189 262.058 190.46 261.574 190.814 261.164C191.174 260.749 191.611 260.428 192.125 260.201C192.646 259.969 193.232 259.853 193.885 259.853C194.544 259.853 195.13 259.969 195.645 260.201C196.165 260.428 196.605 260.749 196.965 261.164C197.325 261.574 197.598 262.058 197.787 262.617C197.975 263.17 198.069 263.771 198.069 264.418V264.609C198.069 265.256 197.975 265.857 197.787 266.41C197.598 266.964 197.325 267.448 196.965 267.863C196.605 268.272 196.168 268.593 195.653 268.826C195.139 269.053 194.555 269.166 193.902 269.166C193.243 269.166 192.654 269.053 192.134 268.826C191.619 268.593 191.182 268.272 190.822 267.863C190.463 267.448 190.189 266.964 190 266.41C189.812 265.857 189.718 265.256 189.718 264.609ZM191.719 264.418V264.609C191.719 265.013 191.76 265.395 191.843 265.754C191.926 266.114 192.056 266.43 192.233 266.701C192.41 266.972 192.637 267.185 192.914 267.34C193.191 267.495 193.52 267.572 193.902 267.572C194.273 267.572 194.594 267.495 194.865 267.34C195.141 267.185 195.368 266.972 195.545 266.701C195.722 266.43 195.853 266.114 195.936 265.754C196.024 265.395 196.068 265.013 196.068 264.609V264.418C196.068 264.02 196.024 263.643 195.936 263.289C195.853 262.929 195.72 262.611 195.537 262.334C195.36 262.058 195.133 261.842 194.856 261.687C194.585 261.527 194.262 261.446 193.885 261.446C193.509 261.446 193.182 261.527 192.906 261.687C192.635 261.842 192.41 262.058 192.233 262.334C192.056 262.611 191.926 262.929 191.843 263.289C191.76 263.643 191.719 264.02 191.719 264.418ZM203.772 265.157H200.9L200.883 263.746H203.241C203.628 263.746 203.946 263.707 204.195 263.629C204.45 263.552 204.638 263.436 204.76 263.281C204.881 263.12 204.942 262.927 204.942 262.7C204.942 262.512 204.906 262.348 204.834 262.21C204.762 262.066 204.652 261.95 204.502 261.861C204.358 261.767 204.176 261.701 203.954 261.662C203.739 261.618 203.487 261.596 203.199 261.596H201.564V269H199.563V260.019H203.199C203.775 260.019 204.292 260.068 204.751 260.168C205.216 260.268 205.612 260.42 205.938 260.625C206.265 260.829 206.514 261.089 206.685 261.405C206.862 261.715 206.951 262.08 206.951 262.5C206.951 262.777 206.89 263.037 206.768 263.281C206.652 263.524 206.478 263.74 206.245 263.928C206.013 264.116 205.728 264.271 205.39 264.393C205.053 264.509 204.666 264.581 204.228 264.609L203.772 265.157ZM203.772 269H200.319L201.116 267.423H203.772C204.126 267.423 204.419 267.379 204.652 267.29C204.884 267.201 205.056 267.074 205.166 266.908C205.283 266.737 205.341 266.535 205.341 266.302C205.341 266.064 205.285 265.86 205.175 265.688C205.064 265.516 204.892 265.386 204.66 265.298C204.433 265.204 204.137 265.157 203.772 265.157H201.489L201.506 263.746H204.22L204.793 264.293C205.363 264.332 205.836 264.454 206.212 264.659C206.589 264.863 206.871 265.121 207.059 265.431C207.247 265.741 207.341 266.078 207.341 266.443C207.341 266.864 207.261 267.235 207.1 267.556C206.945 267.877 206.713 268.145 206.403 268.361C206.099 268.571 205.725 268.732 205.283 268.842C204.84 268.947 204.336 269 203.772 269ZM214.862 263.771V265.348H210.214V263.771H214.862ZM210.795 260.019V269H208.794V260.019H210.795ZM216.306 260.019V269H214.306V260.019H216.306ZM223.163 267.199V262.916C223.163 262.595 223.105 262.318 222.989 262.085C222.873 261.853 222.695 261.673 222.458 261.546C222.225 261.419 221.932 261.355 221.578 261.355C221.251 261.355 220.969 261.41 220.731 261.521C220.493 261.632 220.308 261.781 220.175 261.969C220.042 262.157 219.976 262.37 219.976 262.608H217.983C217.983 262.254 218.069 261.911 218.241 261.579C218.412 261.247 218.661 260.951 218.988 260.691C219.314 260.431 219.704 260.226 220.158 260.077C220.612 259.927 221.121 259.853 221.686 259.853C222.361 259.853 222.958 259.966 223.479 260.193C224.004 260.42 224.417 260.763 224.715 261.222C225.02 261.676 225.172 262.246 225.172 262.932V266.925C225.172 267.334 225.2 267.702 225.255 268.029C225.316 268.35 225.402 268.629 225.512 268.867V269H223.462C223.368 268.784 223.293 268.51 223.238 268.178C223.188 267.841 223.163 267.514 223.163 267.199ZM223.454 263.538L223.47 264.775H222.034C221.663 264.775 221.337 264.811 221.055 264.883C220.772 264.949 220.537 265.049 220.349 265.182C220.161 265.314 220.02 265.475 219.926 265.663C219.832 265.851 219.785 266.064 219.785 266.302C219.785 266.54 219.84 266.759 219.951 266.958C220.061 267.152 220.222 267.304 220.432 267.415C220.648 267.525 220.908 267.581 221.212 267.581C221.622 267.581 221.979 267.498 222.283 267.332C222.593 267.16 222.837 266.952 223.014 266.709C223.191 266.46 223.285 266.225 223.296 266.003L223.943 266.892C223.877 267.118 223.764 267.362 223.603 267.622C223.443 267.882 223.232 268.131 222.972 268.369C222.718 268.602 222.41 268.792 222.051 268.942C221.697 269.091 221.287 269.166 220.822 269.166C220.236 269.166 219.713 269.05 219.253 268.817C218.794 268.579 218.434 268.261 218.174 267.863C217.914 267.459 217.784 267.002 217.784 266.493C217.784 266.017 217.873 265.597 218.05 265.231C218.232 264.861 218.498 264.551 218.847 264.302C219.201 264.053 219.632 263.865 220.142 263.737C220.651 263.604 221.232 263.538 221.885 263.538H223.454ZM233.058 263.771V265.348H228.41V263.771H233.058ZM228.991 260.019V269H226.99V260.019H228.991ZM234.502 260.019V269H232.502V260.019H234.502ZM238.362 266.078L241.89 260.019H243.891V269H241.89V262.932L238.362 269H236.362V260.019H238.362V266.078ZM247.56 264.609H249.635L247.087 269H245.02L247.56 264.609ZM249.021 260.019H252.873V269H250.88V261.596H249.021C248.645 261.596 248.335 261.662 248.091 261.795C247.848 261.922 247.668 262.091 247.552 262.301C247.436 262.506 247.377 262.716 247.377 262.932C247.377 263.148 247.43 263.355 247.535 263.555C247.646 263.754 247.815 263.917 248.042 264.044C248.274 264.172 248.564 264.235 248.913 264.235H251.553V265.696H248.913C248.36 265.696 247.864 265.627 247.427 265.489C246.99 265.345 246.619 265.148 246.315 264.899C246.011 264.645 245.778 264.349 245.618 264.011C245.457 263.668 245.377 263.295 245.377 262.891C245.377 262.476 245.46 262.094 245.626 261.745C245.792 261.396 246.03 261.092 246.34 260.832C246.655 260.572 247.037 260.373 247.485 260.234C247.939 260.09 248.451 260.019 249.021 260.019ZM262.676 263.04V264.634H258.285V263.04H262.676ZM275.967 267.406V269H267.865V267.63L271.8 263.339C272.231 262.852 272.572 262.431 272.821 262.077C273.07 261.723 273.244 261.405 273.344 261.123C273.449 260.835 273.501 260.555 273.501 260.284C273.501 259.902 273.429 259.568 273.286 259.28C273.147 258.986 272.942 258.757 272.671 258.591C272.4 258.419 272.071 258.333 271.683 258.333C271.235 258.333 270.859 258.43 270.555 258.624C270.25 258.818 270.021 259.086 269.866 259.429C269.711 259.767 269.633 260.154 269.633 260.591H267.633C267.633 259.889 267.793 259.247 268.114 258.666C268.435 258.079 268.9 257.614 269.509 257.271C270.117 256.922 270.851 256.748 271.708 256.748C272.516 256.748 273.203 256.884 273.767 257.155C274.331 257.426 274.76 257.811 275.054 258.309C275.352 258.807 275.502 259.396 275.502 260.077C275.502 260.453 275.441 260.826 275.319 261.197C275.197 261.568 275.023 261.939 274.796 262.31C274.575 262.675 274.312 263.043 274.008 263.414C273.703 263.779 273.369 264.15 273.003 264.526L270.389 267.406H275.967ZM285.065 261.944V263.92C285.065 264.866 284.971 265.674 284.782 266.344C284.6 267.008 284.334 267.547 283.986 267.962C283.637 268.377 283.219 268.682 282.732 268.875C282.251 269.069 281.711 269.166 281.113 269.166C280.638 269.166 280.195 269.105 279.785 268.983C279.381 268.862 279.016 268.671 278.69 268.411C278.363 268.151 278.084 267.816 277.851 267.406C277.624 266.991 277.447 266.496 277.32 265.92C277.198 265.345 277.137 264.678 277.137 263.92V261.944C277.137 260.993 277.231 260.19 277.42 259.537C277.608 258.879 277.876 258.345 278.225 257.935C278.573 257.52 278.988 257.218 279.47 257.03C279.957 256.842 280.499 256.748 281.097 256.748C281.578 256.748 282.021 256.809 282.425 256.931C282.835 257.047 283.2 257.232 283.521 257.487C283.847 257.741 284.124 258.073 284.351 258.483C284.583 258.887 284.76 259.377 284.882 259.952C285.004 260.522 285.065 261.186 285.065 261.944ZM283.064 264.202V261.646C283.064 261.164 283.037 260.741 282.981 260.375C282.926 260.005 282.843 259.692 282.732 259.438C282.627 259.177 282.494 258.967 282.334 258.807C282.173 258.641 281.991 258.522 281.786 258.45C281.581 258.372 281.351 258.333 281.097 258.333C280.787 258.333 280.51 258.394 280.267 258.516C280.023 258.632 279.819 258.82 279.653 259.081C279.487 259.341 279.359 259.684 279.271 260.11C279.188 260.53 279.146 261.042 279.146 261.646V264.202C279.146 264.689 279.174 265.118 279.229 265.489C279.285 265.86 279.368 266.178 279.478 266.443C279.589 266.703 279.722 266.919 279.877 267.091C280.037 267.257 280.22 267.379 280.425 267.456C280.635 267.534 280.864 267.572 281.113 267.572C281.429 267.572 281.708 267.511 281.952 267.39C282.195 267.268 282.4 267.074 282.566 266.809C282.732 266.537 282.857 266.186 282.94 265.754C283.023 265.323 283.064 264.805 283.064 264.202ZM291.971 256.873V269H289.971V259.247L287.007 260.251V258.599L291.731 256.873H291.971ZM298.181 262.052H299.376C299.841 262.052 300.225 261.972 300.53 261.812C300.84 261.651 301.069 261.43 301.219 261.147C301.368 260.865 301.443 260.542 301.443 260.176C301.443 259.794 301.374 259.468 301.235 259.197C301.102 258.92 300.898 258.707 300.621 258.558C300.35 258.408 300.004 258.333 299.583 258.333C299.229 258.333 298.908 258.405 298.621 258.549C298.338 258.688 298.114 258.887 297.948 259.147C297.782 259.402 297.699 259.706 297.699 260.06H295.69C295.69 259.418 295.859 258.848 296.197 258.35C296.534 257.852 296.994 257.462 297.575 257.18C298.161 256.892 298.82 256.748 299.55 256.748C300.33 256.748 301.011 256.878 301.592 257.138C302.179 257.393 302.635 257.775 302.962 258.284C303.288 258.793 303.452 259.424 303.452 260.176C303.452 260.519 303.371 260.868 303.211 261.222C303.05 261.576 302.812 261.9 302.497 262.193C302.182 262.481 301.789 262.716 301.318 262.899C300.848 263.076 300.303 263.165 299.683 263.165H298.181V262.052ZM298.181 263.613V262.517H299.683C300.391 262.517 300.995 262.6 301.493 262.766C301.996 262.932 302.406 263.162 302.721 263.455C303.037 263.743 303.266 264.072 303.41 264.443C303.559 264.814 303.634 265.207 303.634 265.622C303.634 266.186 303.532 266.69 303.327 267.132C303.128 267.569 302.843 267.94 302.472 268.245C302.101 268.549 301.667 268.779 301.169 268.934C300.676 269.089 300.14 269.166 299.559 269.166C299.038 269.166 298.54 269.094 298.064 268.95C297.588 268.806 297.162 268.593 296.786 268.311C296.41 268.023 296.111 267.666 295.89 267.24C295.674 266.809 295.566 266.311 295.566 265.746H297.566C297.566 266.106 297.649 266.424 297.815 266.701C297.987 266.972 298.225 267.185 298.529 267.34C298.839 267.495 299.193 267.572 299.592 267.572C300.012 267.572 300.375 267.498 300.679 267.348C300.983 267.199 301.216 266.977 301.376 266.684C301.542 266.391 301.625 266.037 301.625 265.622C301.625 265.151 301.534 264.769 301.351 264.476C301.169 264.183 300.909 263.967 300.571 263.829C300.234 263.685 299.835 263.613 299.376 263.613H298.181Z" fill="#0F5FFF"/>
<rect x="107.5" y="239.5" width="221" height="47" rx="23.5" stroke="#0F5FFF"/>
</g>
<defs>
<filter id="filter0_d_910_696" x="0" y="0" width="436" height="422" filterUnits="userSpaceOnUse" color-interpolation-filters="sRGB">
<feFlood flood-opacity="0" result="BackgroundImageFix"/>
<feColorMatrix in="SourceAlpha" type="matrix" values="0 0 0 0 0 0 0 0 0 0 0 0 0 0 0 0 0 0 127 0" result="hardAlpha"/>
<feMorphology radius="21" operator="erode" in="SourceAlpha" result="effect1_dropShadow_910_696"/>
<feOffset dy="32"/>
<feGaussianBlur stdDeviation="50"/>
<feComposite in2="hardAlpha" operator="out"/>
<feColorMatrix type="matrix" values="0 0 0 0 0.0776389 0 0 0 0 0.13325 0 0 0 0 0.355694 0 0 0 0.24 0"/>
<feBlend mode="normal" in2="BackgroundImageFix" result="effect1_dropShadow_910_696"/>
<feBlend mode="normal" in="SourceGraphic" in2="effect1_dropShadow_910_696" result="shape"/>
</filter>
<clipPath id="clip0_910_696">
<rect width="26" height="26" fill="white" transform="translate(119.5 83.5)"/>
</clipPath>
</defs>
</svg>
