<svg width="10" height="12" viewBox="0 0 10 12" fill="none" xmlns="http://www.w3.org/2000/svg">
<path d="M8.20312 4.13372H9.26979C9.41124 4.13372 9.5469 4.18991 9.64692 4.28993C9.74694 4.38995 9.80313 4.52561 9.80313 4.66706V11.0671C9.80313 11.2085 9.74694 11.3442 9.64692 11.4442C9.5469 11.5442 9.41124 11.6004 9.26979 11.6004H0.736458C0.59501 11.6004 0.459354 11.5442 0.359335 11.4442C0.259315 11.3442 0.203125 11.2085 0.203125 11.0671V4.66706C0.203125 4.52561 0.259315 4.38995 0.359335 4.28993C0.459354 4.18991 0.59501 4.13372 0.736458 4.13372H1.80313V3.60039C1.80313 2.7517 2.14027 1.93777 2.74038 1.33765C3.3405 0.737532 4.15443 0.400391 5.00313 0.400391C5.85182 0.400391 6.66575 0.737532 7.26587 1.33765C7.86598 1.93777 8.20312 2.7517 8.20312 3.60039V4.13372ZM7.13646 4.13372V3.60039C7.13646 3.0346 6.9117 2.49197 6.51162 2.0919C6.11154 1.69182 5.56892 1.46706 5.00313 1.46706C4.43733 1.46706 3.89471 1.69182 3.49463 2.0919C3.09455 2.49197 2.86979 3.0346 2.86979 3.60039V4.13372H7.13646ZM4.46979 7.33372V8.40039H5.53646V7.33372H4.46979ZM2.33646 7.33372V8.40039H3.40313V7.33372H2.33646ZM6.60313 7.33372V8.40039H7.66979V7.33372H6.60313Z" fill="#0F5FFF"/>
</svg>
