<svg width="17" height="16" viewBox="0 0 17 16" fill="none" xmlns="http://www.w3.org/2000/svg">
<path d="M5.5 3C5.5 2.20435 5.81607 1.44129 6.37868 0.87868C6.94129 0.31607 7.70435 0 8.5 0C9.29565 0 10.0587 0.31607 10.6213 0.87868C11.1839 1.44129 11.5 2.20435 11.5 3V8C11.5 8.79565 11.1839 9.55871 10.6213 10.1213C10.0587 10.6839 9.29565 11 8.5 11C7.70435 11 6.94129 10.6839 6.37868 10.1213C5.81607 9.55871 5.5 8.79565 5.5 8V3Z" fill="#0F5FFF"/>
<path d="M4 6.5C4.13261 6.5 4.25979 6.55268 4.35355 6.64645C4.44732 6.74021 4.5 6.86739 4.5 7V8C4.5 9.06087 4.92143 10.0783 5.67157 10.8284C6.42172 11.5786 7.43913 12 8.5 12C9.56087 12 10.5783 11.5786 11.3284 10.8284C12.0786 10.0783 12.5 9.06087 12.5 8V7C12.5 6.86739 12.5527 6.74021 12.6464 6.64645C12.7402 6.55268 12.8674 6.5 13 6.5C13.1326 6.5 13.2598 6.55268 13.3536 6.64645C13.4473 6.74021 13.5 6.86739 13.5 7V8C13.5 9.23953 13.0396 10.4349 12.2081 11.3541C11.3766 12.2734 10.2333 12.851 9 12.975V15H12C12.1326 15 12.2598 15.0527 12.3536 15.1464C12.4473 15.2402 12.5 15.3674 12.5 15.5C12.5 15.6326 12.4473 15.7598 12.3536 15.8536C12.2598 15.9473 12.1326 16 12 16H5C4.86739 16 4.74021 15.9473 4.64645 15.8536C4.55268 15.7598 4.5 15.6326 4.5 15.5C4.5 15.3674 4.55268 15.2402 4.64645 15.1464C4.74021 15.0527 4.86739 15 5 15H8V12.975C6.76668 12.851 5.62337 12.2734 4.79188 11.3541C3.96038 10.4349 3.49998 9.23953 3.5 8V7C3.5 6.86739 3.55268 6.74021 3.64645 6.64645C3.74021 6.55268 3.86739 6.5 4 6.5Z" fill="#0F5FFF"/>
</svg>
