<svg width="53" height="52" viewBox="0 0 53 52" fill="none" xmlns="http://www.w3.org/2000/svg">
<rect x="0.5" width="52" height="52" rx="10.5" fill="#0F5FFF"/>
<path d="M22.7474 36.8327C22.1516 36.8327 21.6417 36.6207 21.2177 36.1968C20.7931 35.7721 20.5807 35.2618 20.5807 34.666H24.9141V30.2514C23.0363 29.9806 21.4835 29.1363 20.2557 27.7186C19.028 26.3016 18.4141 24.6452 18.4141 22.7493C18.4141 20.6368 19.15 18.8447 20.6219 17.3728C22.0931 15.9016 23.8849 15.166 25.9974 15.166C28.1099 15.166 29.9017 15.9016 31.3729 17.3728C32.8448 18.8447 33.5807 20.6368 33.5807 22.7493C33.5807 24.6452 32.9668 26.3016 31.7391 27.7186C30.5113 29.1363 28.9585 29.9806 27.0807 30.2514V34.666H31.4141C31.4141 35.2618 31.2021 35.7721 30.7781 36.1968C30.3535 36.6207 29.8432 36.8327 29.2474 36.8327H22.7474ZM25.9974 28.166C27.496 28.166 28.7736 27.6377 29.8302 26.5811C30.8861 25.5252 31.4141 24.248 31.4141 22.7493C31.4141 21.2507 30.8861 19.9735 29.8302 18.9176C28.7736 17.861 27.496 17.3327 25.9974 17.3327C24.4988 17.3327 23.2215 17.861 22.1656 18.9176C21.109 19.9735 20.5807 21.2507 20.5807 22.7493C20.5807 24.248 21.109 25.5252 22.1656 26.5811C23.2215 27.6377 24.4988 28.166 25.9974 28.166ZM25.9974 24.916C25.4016 24.916 24.8917 24.7037 24.4677 24.279C24.0431 23.8551 23.8307 23.3452 23.8307 22.7493C23.8307 22.1535 24.0431 21.6433 24.4677 21.2186C24.8917 20.7947 25.4016 20.5827 25.9974 20.5827C26.5932 20.5827 27.1035 20.7947 27.5281 21.2186C27.9521 21.6433 28.1641 22.1535 28.1641 22.7493C28.1641 23.3452 27.9521 23.8551 27.5281 24.279C27.1035 24.7037 26.5932 24.916 25.9974 24.916Z" fill="white"/>
</svg>
