<svg width="51" height="20" viewBox="0 0 51 20" fill="none" xmlns="http://www.w3.org/2000/svg">
<path fill-rule="evenodd" clip-rule="evenodd" d="M4.23377 0.0161133C4.41308 0.0161133 4.55844 0.161475 4.55844 0.340789V19.659C4.55844 19.8383 4.41308 19.9836 4.23377 19.9836C4.05445 19.9836 3.90909 19.8383 3.90909 19.659V0.340789C3.90909 0.161475 4.05445 0.0161133 4.23377 0.0161133ZM43.3571 0.827802C43.5365 0.827802 43.6818 0.973164 43.6818 1.15248V19.659C43.6818 19.8383 43.5365 19.9836 43.3571 19.9836C43.1778 19.9836 43.0325 19.8383 43.0325 19.659V1.15248C43.0325 0.973164 43.1778 0.827802 43.3571 0.827802ZM11.3766 3.10053C11.5559 3.10053 11.7013 3.24589 11.7013 3.4252V16.4122C11.7013 16.5915 11.5559 16.7369 11.3766 16.7369C11.1973 16.7369 11.0519 16.5915 11.0519 16.4122V3.4252C11.0519 3.24589 11.1973 3.10053 11.3766 3.10053ZM18.5195 3.91222C18.6988 3.91222 18.8442 4.05758 18.8442 4.23689V16.4122C18.8442 16.5915 18.6988 16.7369 18.5195 16.7369C18.3402 16.7369 18.1948 16.5915 18.1948 16.4122V4.23689C18.1948 4.05758 18.3402 3.91222 18.5195 3.91222ZM21.7662 3.91222C21.9455 3.91222 22.0909 4.05758 22.0909 4.23689V16.4122C22.0909 16.5915 21.9455 16.7369 21.7662 16.7369C21.5869 16.7369 21.4416 16.5915 21.4416 16.4122V4.23689C21.4416 4.05758 21.5869 3.91222 21.7662 3.91222ZM28.9091 3.91222C29.0884 3.91222 29.2338 4.05758 29.2338 4.23689V16.4122C29.2338 16.5915 29.0884 16.7369 28.9091 16.7369C28.7298 16.7369 28.5844 16.5915 28.5844 16.4122V4.23689C28.5844 4.05758 28.7298 3.91222 28.9091 3.91222ZM36.2143 3.91222C36.3936 3.91222 36.539 4.05758 36.539 4.23689V16.4122C36.539 16.5915 36.3936 16.7369 36.2143 16.7369C36.035 16.7369 35.8896 16.5915 35.8896 16.4122V4.23689C35.8896 4.05758 36.035 3.91222 36.2143 3.91222ZM39.9481 3.91222C40.1274 3.91222 40.2727 4.05758 40.2727 4.23689V16.4122C40.2727 16.5915 40.1274 16.7369 39.9481 16.7369C39.7687 16.7369 39.6234 16.5915 39.6234 16.4122V4.23689C39.6234 4.05758 39.7687 3.91222 39.9481 3.91222ZM0.824675 5.86027C1.00399 5.86027 1.14935 6.00563 1.14935 6.18494V14.4642C1.14935 14.6435 1.00399 14.7888 0.824675 14.7888C0.645362 14.7888 0.5 14.6435 0.5 14.4642V6.18494C0.5 6.00563 0.645362 5.86027 0.824675 5.86027ZM7.96753 5.86027C8.14685 5.86027 8.29221 6.00563 8.29221 6.18494V13.6525C8.29221 13.8318 8.14685 13.9772 7.96753 13.9772C7.78822 13.9772 7.64286 13.8318 7.64286 13.6525V6.18494C7.64286 6.00563 7.78822 5.86027 7.96753 5.86027ZM14.7857 5.86027C14.965 5.86027 15.1104 6.00563 15.1104 6.18494V14.4642C15.1104 14.6435 14.965 14.7888 14.7857 14.7888C14.6064 14.7888 14.461 14.6435 14.461 14.4642V6.18494C14.461 6.00563 14.6064 5.86027 14.7857 5.86027ZM25.1753 5.86027C25.3546 5.86027 25.5 6.00563 25.5 6.18494V13.6525C25.5 13.8318 25.3546 13.9772 25.1753 13.9772C24.996 13.9772 24.8506 13.8318 24.8506 13.6525V6.18494C24.8506 6.00563 24.996 5.86027 25.1753 5.86027ZM32.4805 5.86027C32.6598 5.86027 32.8052 6.00563 32.8052 6.18494V14.4642C32.8052 14.6435 32.6598 14.7888 32.4805 14.7888C32.3012 14.7888 32.1558 14.6435 32.1558 14.4642V6.18494C32.1558 6.00563 32.3012 5.86027 32.4805 5.86027ZM46.6039 5.86027C46.7832 5.86027 46.9286 6.00563 46.9286 6.18494V13.6525C46.9286 13.8318 46.7832 13.9772 46.6039 13.9772C46.4246 13.9772 46.2792 13.8318 46.2792 13.6525V6.18494C46.2792 6.00563 46.4246 5.86027 46.6039 5.86027ZM50.1753 5.86027C50.3546 5.86027 50.5 6.00563 50.5 6.18494V13.6525C50.5 13.8318 50.3546 13.9772 50.1753 13.9772C49.996 13.9772 49.8506 13.8318 49.8506 13.6525V6.18494C49.8506 6.00563 49.996 5.86027 50.1753 5.86027Z" fill="#0F5FFF"/>
</svg>
