<svg width="25" height="24" viewBox="0 0 25 24" fill="none" xmlns="http://www.w3.org/2000/svg">
<g clip-path="url(#clip0_968_5236)">
<path d="M20.332 22.0007H18.332V20.0007C18.332 19.2051 18.016 18.442 17.4534 17.8794C16.8907 17.3168 16.1277 17.0007 15.332 17.0007H9.33203C8.53638 17.0007 7.77332 17.3168 7.21071 17.8794C6.6481 18.442 6.33203 19.2051 6.33203 20.0007V22.0007H4.33203V20.0007C4.33203 18.6747 4.85882 17.4029 5.7965 16.4652C6.73418 15.5275 8.00595 15.0007 9.33203 15.0007H15.332C16.6581 15.0007 17.9299 15.5275 18.8676 16.4652C19.8052 17.4029 20.332 18.6747 20.332 20.0007V22.0007ZM12.332 13.0007C11.5441 13.0007 10.7639 12.8455 10.0359 12.544C9.30798 12.2425 8.64654 11.8005 8.08939 11.2434C7.53224 10.6862 7.09028 10.0248 6.78875 9.29683C6.48723 8.56888 6.33203 7.78866 6.33203 7.00073C6.33203 6.2128 6.48723 5.43259 6.78875 4.70463C7.09028 3.97668 7.53224 3.31524 8.08939 2.75809C8.64654 2.20094 9.30798 1.75898 10.0359 1.45746C10.7639 1.15593 11.5441 1.00073 12.332 1.00073C13.9233 1.00073 15.4495 1.63287 16.5747 2.75809C17.6999 3.88331 18.332 5.40943 18.332 7.00073C18.332 8.59203 17.6999 10.1182 16.5747 11.2434C15.4495 12.3686 13.9233 13.0007 12.332 13.0007ZM12.332 11.0007C13.3929 11.0007 14.4103 10.5793 15.1605 9.82916C15.9106 9.07901 16.332 8.0616 16.332 7.00073C16.332 5.93987 15.9106 4.92245 15.1605 4.17231C14.4103 3.42216 13.3929 3.00073 12.332 3.00073C11.2712 3.00073 10.2537 3.42216 9.5036 4.17231C8.75346 4.92245 8.33203 5.93987 8.33203 7.00073C8.33203 8.0616 8.75346 9.07901 9.5036 9.82916C10.2537 10.5793 11.2712 11.0007 12.332 11.0007Z" fill="#68729C"/>
</g>
<defs>
<clipPath id="clip0_968_5236">
<rect width="24" height="24" fill="white" transform="translate(0.333008 0.000976562)"/>
</clipPath>
</defs>
</svg>
