<svg width="25" height="24" viewBox="0 0 25 24" fill="none" xmlns="http://www.w3.org/2000/svg">
<g clip-path="url(#clip0_968_5223)">
<path d="M3.66406 20.0371V6.73713C3.664 6.53185 3.72711 6.33153 3.84483 6.16337C3.96255 5.9952 4.12917 5.86733 4.32206 5.79713L13.9931 2.28113C14.0686 2.25363 14.1497 2.24476 14.2294 2.25526C14.3091 2.26576 14.3851 2.29533 14.4509 2.34145C14.5168 2.38757 14.5705 2.44889 14.6076 2.5202C14.6447 2.59152 14.6641 2.67073 14.6641 2.75113V7.70413L20.9801 9.80913C21.1793 9.87548 21.3525 10.0028 21.4753 10.1732C21.5981 10.3435 21.6641 10.5482 21.6641 10.7581V20.0371H23.6641V22.0371H1.66406V20.0371H3.66406ZM5.66406 20.0371H12.6641V4.89213L5.66406 7.43813V20.0371ZM19.6641 20.0371V11.4791L14.6641 9.81213V20.0371H19.6641Z" fill="#68729C"/>
</g>
<defs>
<clipPath id="clip0_968_5223">
<rect width="24" height="24" fill="white" transform="translate(0.666504 0.000976562)"/>
</clipPath>
</defs>
</svg>
