<svg width="86" height="120" viewBox="0 0 86 120" fill="none" xmlns="http://www.w3.org/2000/svg">
<g opacity="0.1">
<g clip-path="url(#clip0_901_3456)">
<rect width="156" height="101" transform="matrix(-0.866025 -0.5 9.77409e-08 -1 151.94 179.001)" fill="#51E690"/>
</g>
</g>
<g opacity="0.2">
<g clip-path="url(#clip1_901_3456)">
<rect width="156" height="101" transform="matrix(-0.866025 -0.5 9.77409e-08 -1 143.782 193.81)" fill="#51E690"/>
</g>
</g>
<g clip-path="url(#clip2_901_3456)">
<rect width="156" height="101" transform="matrix(-0.866025 -0.5 9.77409e-08 -1 135.102 207.597)" fill="#51E690"/>
<g clip-path="url(#clip3_901_3456)">
<path d="M33.5947 59.006C26.4284 54.8685 20.5981 58.2346 20.5981 66.5096L20.5981 72.727C20.5981 74.2637 21.7639 76.1869 23.1975 77.0145L24.4971 77.7649C24.8418 77.9639 25.1724 77.9966 25.4161 77.8559C25.6598 77.7152 25.7968 77.4125 25.7968 77.0145L25.7968 69.2964C25.7968 68.8984 25.6598 68.4376 25.4161 68.0154C25.1724 67.5933 24.8418 67.2443 24.4971 67.0453L23.317 66.364C24.0396 60.9734 28.3675 58.9895 33.5947 62.0074C38.8219 65.0253 43.1497 72.0067 43.8723 78.2316L42.6923 77.5503C42.3476 77.3513 42.017 77.3185 41.7733 77.4592C41.5295 77.6 41.3926 77.9026 41.3926 78.3006L41.3926 87.5195C41.3926 89.1748 40.2268 89.8479 38.7933 89.0202L36.194 87.5195L36.194 86.0188L30.9954 83.0174L30.9954 87.5195L38.7933 92.0216C41.6603 93.6769 43.9919 92.3308 43.9919 89.0202C45.4254 89.8479 46.5912 89.2708 46.5912 87.7341L46.5912 81.5167C46.5912 73.2417 40.761 63.1435 33.5947 59.006Z" fill="white"/>
</g>
</g>
<defs>
<clipPath id="clip0_901_3456">
<rect width="79.6589" height="51.574" rx="3" transform="matrix(0.866025 0.5 -2.20305e-08 1 16.8389 0.000976562)" fill="white"/>
</clipPath>
<clipPath id="clip1_901_3456">
<rect width="79.6589" height="51.574" rx="3" transform="matrix(0.866025 0.5 -2.20305e-08 1 8.68066 14.8096)" fill="white"/>
</clipPath>
<clipPath id="clip2_901_3456">
<rect width="79.6589" height="51.574" rx="3" transform="matrix(0.866025 0.5 -2.20305e-08 1 0 28.5967)" fill="white"/>
</clipPath>
<clipPath id="clip3_901_3456">
<rect width="36.0171" height="36.0171" fill="white" transform="matrix(0.866025 0.5 -2.20305e-08 1 18 47.001)"/>
</clipPath>
</defs>
</svg>
