<svg width="86" height="120" viewBox="0 0 86 120" fill="none" xmlns="http://www.w3.org/2000/svg">
<g opacity="0.1">
<g clip-path="url(#clip0_901_3512)">
<rect width="156" height="101" transform="matrix(-0.866025 -0.5 9.77409e-08 -1 151.94 179.001)" fill="#FCAE64"/>
</g>
</g>
<g opacity="0.2">
<g clip-path="url(#clip1_901_3512)">
<rect width="156" height="101" transform="matrix(-0.866025 -0.5 9.77409e-08 -1 143.782 193.81)" fill="#FCAE64"/>
</g>
</g>
<g clip-path="url(#clip2_901_3512)">
<rect width="156" height="101" transform="matrix(-0.866025 -0.5 9.77409e-08 -1 135.102 207.597)" fill="#FCAE64"/>
<g clip-path="url(#clip3_901_3512)">
<path d="M23.8924 73.671C23.5263 72.7286 23.2417 71.7827 23.0454 70.856C23.4726 70.8517 23.8314 70.6764 24.0821 70.3494C24.3327 70.0223 24.4655 69.5564 24.4657 69.0031C24.4658 68.4497 24.3334 67.8305 24.0831 67.2141C23.8327 66.5976 23.4742 66.0078 23.0471 65.51C23.4386 64.1015 24.184 63.0393 25.2131 62.4235C25.615 62.9572 26.0814 63.3939 26.5606 63.6852C27.0398 63.9765 27.5132 64.1111 27.9283 64.0739C28.3435 64.0368 28.6842 63.8295 28.9128 63.475C29.1414 63.1204 29.249 62.6324 29.2236 62.065C30.6457 62.4616 32.138 63.3239 33.5598 64.5705C33.5347 65.1087 33.6424 65.7209 33.8712 66.3395C34.1 66.958 34.4409 67.5586 34.8561 68.0749C35.2714 68.5912 35.7448 69.0031 36.224 69.2649C36.7032 69.5268 37.1695 69.6284 37.5713 69.5585C38.0727 70.438 38.5178 71.366 38.8919 72.331C39.2669 73.2965 39.5475 74.2395 39.7389 75.146C39.3117 75.1502 38.9529 75.3255 38.7023 75.6525C38.4516 75.9796 38.3188 76.4455 38.3187 76.9989C38.3185 77.5522 38.4509 78.1714 38.7012 78.7879C38.9516 79.4043 39.3101 79.9941 39.7372 80.492C39.3457 81.9004 38.6003 82.9626 37.5713 83.5785C37.1693 83.0447 36.703 82.608 36.2237 82.3167C35.7445 82.0254 35.2711 81.8908 34.856 81.928C34.4408 81.9651 34.1001 82.1724 33.8715 82.5269C33.6429 82.8815 33.5353 83.3695 33.5607 83.937C32.1386 83.5403 30.6463 82.678 29.2245 81.4315C29.2497 80.8932 29.1419 80.281 28.9131 79.6625C28.6843 79.0439 28.3434 78.4433 27.9282 77.927C27.513 77.4107 27.0396 76.9988 26.5604 76.737C26.0812 76.4751 25.6149 76.3736 25.2131 76.4435C24.7012 75.5449 24.2575 74.6133 23.8924 73.671ZM28.7941 76.697C29.7169 77.8444 30.4108 79.2314 30.7426 80.592C31.1748 80.8885 31.6087 81.14 32.0408 81.3425C32.3729 80.365 33.0671 79.7794 33.9902 79.698C34.9127 79.6142 35.9999 80.0407 37.043 80.8955C37.2941 80.6325 37.5106 80.3225 37.6908 79.9715C36.9801 78.6446 36.5876 77.2307 36.5883 76.001C36.5883 74.741 36.9953 73.799 37.6908 73.3035C37.5094 72.7439 37.2919 72.1838 37.0412 71.6305C35.9988 71.2809 34.9124 70.4528 33.9902 69.305C33.0674 68.1575 32.3735 66.7705 32.0417 65.41C31.6095 65.1135 31.1757 64.862 30.7435 64.6595C30.4115 65.6369 29.7173 66.2225 28.7941 66.304C27.8716 66.3877 26.7845 65.9612 25.7413 65.1065C25.4907 65.37 25.2738 65.6794 25.0936 66.0305C25.8042 67.3573 26.1968 68.7712 26.196 70.001C26.196 71.261 25.789 72.203 25.0936 72.6985C25.275 73.258 25.4924 73.8181 25.7431 74.3715C26.7855 74.721 27.8719 75.5491 28.7941 76.697ZM31.3922 76.001C30.7031 75.6031 30.0423 74.9055 29.555 74.0616C29.0678 73.2177 28.7941 72.2966 28.7941 71.501C28.7941 70.7053 29.0678 70.1003 29.555 69.819C30.0423 69.5377 30.7031 69.6031 31.3922 70.001C32.0812 70.3988 32.742 71.0964 33.2293 71.9403C33.7165 72.7842 33.9902 73.7053 33.9902 74.501C33.9902 75.2966 33.7165 75.9016 33.2293 76.1829C32.742 76.4642 32.0812 76.3988 31.3922 76.001ZM31.3922 74.001C31.6218 74.1336 31.8421 74.1554 32.0045 74.0616C32.1669 73.9678 32.2582 73.7662 32.2582 73.501C32.2582 73.2357 32.1669 72.9287 32.0045 72.6474C31.8421 72.3661 31.6218 72.1336 31.3922 72.001C31.1625 71.8683 30.9422 71.8465 30.7798 71.9403C30.6174 72.0341 30.5261 72.2357 30.5261 72.501C30.5261 72.7662 30.6174 73.0732 30.7798 73.3545C30.9422 73.6358 31.1625 73.8683 31.3922 74.001Z" fill="white"/>
</g>
</g>
<defs>
<clipPath id="clip0_901_3512">
<rect width="79.6589" height="51.574" rx="3" transform="matrix(0.866025 0.5 -2.20305e-08 1 16.8389 0.000976562)" fill="white"/>
</clipPath>
<clipPath id="clip1_901_3512">
<rect width="79.6589" height="51.574" rx="3" transform="matrix(0.866025 0.5 -2.20305e-08 1 8.68066 14.8096)" fill="white"/>
</clipPath>
<clipPath id="clip2_901_3512">
<rect width="79.6589" height="51.574" rx="3" transform="matrix(0.866025 0.5 -2.20305e-08 1 0 28.5967)" fill="white"/>
</clipPath>
<clipPath id="clip3_901_3512">
<rect width="24" height="24" fill="white" transform="matrix(0.866025 0.5 -2.20305e-08 1 21 55.001)"/>
</clipPath>
</defs>
</svg>
