<svg width="24" height="24" viewBox="0 0 24 24" fill="none" xmlns="http://www.w3.org/2000/svg">
<g clip-path="url(#clip0_968_5246)">
<path d="M1.99707 12.0015C1.99707 11.1365 2.10707 10.2985 2.31307 9.49753C2.86554 9.52657 3.41527 9.40228 3.90151 9.13839C4.38775 8.87451 4.79155 8.48132 5.06828 8.00227C5.345 7.52323 5.48388 6.97699 5.46954 6.42395C5.45521 5.8709 5.28824 5.3326 4.98707 4.86853C6.19601 3.67909 7.68786 2.81702 9.32207 2.36353C9.57306 2.857 9.95571 3.27139 10.4277 3.56084C10.8996 3.85028 11.4424 4.00348 11.9961 4.00348C12.5497 4.00348 13.0925 3.85028 13.5645 3.56084C14.0364 3.27139 14.4191 2.857 14.6701 2.36353C16.3043 2.81702 17.7961 3.67909 19.0051 4.86853C18.7036 5.33268 18.5363 5.87119 18.5219 6.42449C18.5075 6.97779 18.6464 7.52429 18.9233 8.00354C19.2001 8.48279 19.6042 8.87609 20.0908 9.13994C20.5773 9.40379 21.1274 9.52789 21.6801 9.49853C21.8861 10.2985 21.9961 11.1365 21.9961 12.0015C21.9961 12.8665 21.8861 13.7045 21.6801 14.5055C21.1275 14.4763 20.5777 14.6004 20.0913 14.8642C19.6049 15.128 19.2009 15.5212 18.9241 16.0003C18.6472 16.4794 18.5083 17.0257 18.5226 17.5788C18.5368 18.132 18.7038 18.6704 19.0051 19.1345C17.7961 20.324 16.3043 21.186 14.6701 21.6395C14.4191 21.1461 14.0364 20.7317 13.5645 20.4422C13.0925 20.1528 12.5497 19.9996 11.9961 19.9996C11.4424 19.9996 10.8996 20.1528 10.4277 20.4422C9.95571 20.7317 9.57306 21.1461 9.32207 21.6395C7.68786 21.186 6.19601 20.324 4.98707 19.1345C5.28858 18.6704 5.4558 18.1319 5.47024 17.5786C5.48468 17.0253 5.34577 16.4788 5.06888 15.9995C4.792 15.5203 4.38792 15.127 3.90138 14.8631C3.41483 14.5993 2.86477 14.4752 2.31207 14.5045C2.10707 13.7055 1.99707 12.8675 1.99707 12.0015ZM6.80107 15.0015C7.43107 16.0925 7.61107 17.3475 7.36507 18.5255C7.77307 18.8155 8.20707 19.0665 8.66207 19.2755C9.57874 18.4544 10.7664 18.0007 11.9971 18.0015C13.2571 18.0015 14.4351 18.4725 15.3321 19.2755C15.7871 19.0665 16.2211 18.8155 16.6291 18.5255C16.3765 17.3215 16.5773 16.0666 17.1931 15.0015C17.8077 13.9359 18.7941 13.1347 19.9631 12.7515C20.0093 12.2526 20.0093 11.7505 19.9631 11.2515C18.7937 10.8686 17.8069 10.0673 17.1921 9.00153C16.5763 7.93646 16.3755 6.68156 16.6281 5.47753C16.2202 5.18745 15.7859 4.93634 15.3311 4.72753C14.4147 5.54846 13.2274 6.00213 11.9971 6.00153C10.7664 6.00238 9.57874 5.54869 8.66207 4.72753C8.2072 4.93635 7.77296 5.18745 7.36507 5.47753C7.61763 6.68156 7.41679 7.93646 6.80107 9.00153C6.18644 10.0672 5.20005 10.8684 4.03107 11.2515C3.98482 11.7505 3.98482 12.2526 4.03107 12.7515C5.20043 13.1345 6.1872 13.9357 6.80207 15.0015H6.80107ZM11.9971 15.0015C11.2014 15.0015 10.4384 14.6855 9.87575 14.1228C9.31314 13.5602 8.99707 12.7972 8.99707 12.0015C8.99707 11.2059 9.31314 10.4428 9.87575 9.8802C10.4384 9.3176 11.2014 9.00153 11.9971 9.00153C12.7927 9.00153 13.5558 9.3176 14.1184 9.8802C14.681 10.4428 14.9971 11.2059 14.9971 12.0015C14.9971 12.7972 14.681 13.5602 14.1184 14.1228C13.5558 14.6855 12.7927 15.0015 11.9971 15.0015ZM11.9971 13.0015C12.2623 13.0015 12.5166 12.8962 12.7042 12.7086C12.8917 12.5211 12.9971 12.2667 12.9971 12.0015C12.9971 11.7363 12.8917 11.482 12.7042 11.2944C12.5166 11.1069 12.2623 11.0015 11.9971 11.0015C11.7319 11.0015 11.4775 11.1069 11.29 11.2944C11.1024 11.482 10.9971 11.7363 10.9971 12.0015C10.9971 12.2667 11.1024 12.5211 11.29 12.7086C11.4775 12.8962 11.7319 13.0015 11.9971 13.0015Z" fill="#68729C"/>
</g>
<defs>
<clipPath id="clip0_968_5246">
<rect width="24" height="24" fill="white" transform="translate(0 0.000976562)"/>
</clipPath>
</defs>
</svg>
