<svg width="23" height="22" viewBox="0 0 23 22" fill="none" xmlns="http://www.w3.org/2000/svg">
<path d="M0.997559 21.9994C0.997559 19.8777 1.84041 17.8429 3.3407 16.3426C4.841 14.8423 6.87583 13.9994 8.99756 13.9994C11.1193 13.9994 13.1541 14.8423 14.6544 16.3426C16.1547 17.8429 16.9976 19.8777 16.9976 21.9994H14.9976C14.9976 20.4081 14.3654 18.882 13.2402 17.7568C12.115 16.6316 10.5889 15.9994 8.99756 15.9994C7.40626 15.9994 5.88014 16.6316 4.75492 17.7568C3.6297 18.882 2.99756 20.4081 2.99756 21.9994H0.997559ZM8.99756 12.9994C5.68256 12.9994 2.99756 10.3144 2.99756 6.99945C2.99756 3.68445 5.68256 0.999447 8.99756 0.999447C12.3126 0.999447 14.9976 3.68445 14.9976 6.99945C14.9976 10.3144 12.3126 12.9994 8.99756 12.9994ZM8.99756 10.9994C11.2076 10.9994 12.9976 9.20945 12.9976 6.99945C12.9976 4.78945 11.2076 2.99945 8.99756 2.99945C6.78756 2.99945 4.99756 4.78945 4.99756 6.99945C4.99756 9.20945 6.78756 10.9994 8.99756 10.9994ZM21.5456 0.783447C22.5038 2.71527 23.0008 4.84304 22.9976 6.99945C22.9976 9.23245 22.4746 11.3434 21.5456 13.2154L19.9006 12.0194C20.6258 10.4454 21.0001 8.73251 20.9976 6.99945C20.9976 5.20745 20.6046 3.50645 19.9006 1.97945L21.5456 0.783447ZM18.2436 3.18345C18.743 4.39361 18.9992 5.69028 18.9976 6.99945C18.9992 8.30861 18.743 9.60529 18.2436 10.8154L16.5666 9.59545C16.8527 8.75988 16.9984 7.88265 16.9976 6.99945C16.9987 6.1163 16.8534 5.23907 16.5676 4.40345L18.2436 3.18345Z" fill="#008DF4"/>
</svg>
