<svg width="24" height="20" viewBox="0 0 24 20" fill="none" xmlns="http://www.w3.org/2000/svg">
<path d="M17.0013 19.6206H7.00134C5.58457 19.6215 4.21319 19.121 3.13003 18.2077C2.04687 17.2945 1.32181 16.0274 1.08324 14.6309C0.84468 13.2343 1.108 11.7984 1.82657 10.5774C2.54515 9.3564 3.67262 8.42905 5.00934 7.95957C4.96406 7.01323 5.11135 6.06754 5.4423 5.1798C5.77325 4.29206 6.28096 3.48074 6.93469 2.79499C7.58841 2.10924 8.37454 1.56332 9.24544 1.19033C10.1164 0.817325 11.0539 0.625 12.0013 0.625C12.9488 0.625 13.8863 0.817325 14.7572 1.19033C15.6281 1.56332 16.4143 2.10924 17.068 2.79499C17.7217 3.48074 18.2294 4.29206 18.5604 5.1798C18.8913 6.06754 19.0386 7.01323 18.9933 7.95957C20.3301 8.42905 21.4575 9.3564 22.1761 10.5774C22.8947 11.7984 23.158 13.2343 22.9194 14.6309C22.6809 16.0274 21.9558 17.2945 20.8727 18.2077C19.7895 19.121 18.4181 19.6215 17.0013 19.6206ZM17.0013 7.62057C17.0016 6.95357 16.8684 6.29327 16.6096 5.67854C16.3508 5.0638 15.9716 4.50707 15.4943 4.04111C15.0171 3.57515 14.4514 3.20939 13.8307 2.96536C13.2099 2.72133 12.5466 2.60396 11.8798 2.62018C11.213 2.63639 10.5562 2.78585 9.94803 3.05976C9.33987 3.33367 8.79267 3.72649 8.33863 4.21509C7.88459 4.7037 7.5329 5.2782 7.30427 5.90479C7.07563 6.53138 6.97468 7.19737 7.00734 7.86357L7.07734 9.35157L5.67334 9.84557C4.78385 10.1601 4.03409 10.7789 3.55644 11.5925C3.07878 12.4061 2.90395 13.3624 3.0628 14.2924C3.22165 15.2224 3.70397 16.0664 4.42461 16.6753C5.14524 17.2843 6.05786 17.6191 7.00134 17.6206H17.0013C17.7377 17.6203 18.4597 17.4168 19.0878 17.0325C19.7159 16.6482 20.2257 16.098 20.5611 15.4424C20.8964 14.7869 21.0444 14.0515 20.9885 13.3173C20.9327 12.5831 20.6753 11.8785 20.2447 11.2812C19.814 10.684 19.2269 10.2171 18.5479 9.93219C17.8689 9.64725 17.1245 9.55526 16.3966 9.66636C15.6686 9.77745 14.9855 10.0873 14.4225 10.5618C13.8594 11.0363 13.4382 11.657 13.2053 12.3556L11.3073 11.7226C11.7062 10.528 12.4706 9.48904 13.4925 8.75287C14.5144 8.0167 15.7419 7.62058 17.0013 7.62057Z" fill="#008DF4"/>
</svg>
