<svg width="74" height="53" viewBox="0 0 74 53" fill="none" xmlns="http://www.w3.org/2000/svg">
<g clip-path="url(#clip0_691_53)">
<path d="M29.5137 36.2399L49.1895 25.7281L29.5137 15.1428V36.2399Z" fill="white"/>
<path opacity="0.12" d="M29.5137 15.1428L46.7656 27.0219L49.1895 25.7281L29.5137 15.1428Z" fill="#420000"/>
<path d="M72.7164 11.4901C72.7164 11.4901 72.0035 6.31505 69.8221 4.03627C67.0561 1.04446 63.9478 1.02976 62.5292 0.853334C52.3349 0.0961914 37.0505 0.0961914 37.0505 0.0961914H37.022C37.022 0.0961914 21.7376 0.0961914 11.5433 0.853334C10.1246 1.02976 7.01641 1.04446 4.25039 4.03627C2.06895 6.31505 1.35605 11.4901 1.35605 11.4901C1.35605 11.4901 0.628906 17.5619 0.628906 23.6411V29.3381C0.628906 35.4173 1.35605 41.4891 1.35605 41.4891C1.35605 41.4891 2.06895 46.6642 4.25039 48.9429C7.02354 51.9347 10.6593 51.8392 12.2775 52.1553C18.1019 52.7286 37.0362 52.9124 37.0362 52.9124C37.0362 52.9124 52.3349 52.8904 62.5292 52.1259C63.955 51.9495 67.0561 51.9347 69.8221 48.9429C72.0035 46.6642 72.7164 41.4891 72.7164 41.4891C72.7164 41.4891 73.4436 35.4099 73.4436 29.3381V23.6411C73.4436 17.5619 72.7164 11.4901 72.7164 11.4901ZM29.5152 36.2406V15.1435L49.191 25.7288L29.5152 36.2406Z" fill="#0F5FFF"/>
</g>
<defs>
<clipPath id="clip0_691_53">
<rect width="73" height="53" fill="white" transform="translate(0.5)"/>
</clipPath>
</defs>
</svg>
