<svg width="140" height="40" viewBox="0 0 140 40" fill="none" xmlns="http://www.w3.org/2000/svg">
<g clip-path="url(#clip0_1205_246)">
<path d="M29.9991 3.7509L23.75 10L29.9991 16.2491L36.2482 10L29.9991 3.7509Z" fill="#B9B9B9"/>
<path d="M33.128 13.1242V20.0038H20.0038V6.87205H26.8758L20.0038 0L0 20.0038L20.0038 40L40 20.0038L33.128 13.1242Z" fill="#003FA2"/>
<path d="M53.533 28.4934H55.5289C55.4986 29.703 54.8636 30.6707 53.3818 30.6707C51.7791 30.6707 50.94 29.5594 50.94 27.8735V27.7979C50.94 26.1272 51.832 24.978 53.4045 24.978C54.3949 24.978 55.1433 25.409 55.3323 26.49H56.1639C55.9598 24.9629 54.7275 24.3203 53.3818 24.3203C51.4238 24.3203 50.0781 25.8096 50.0781 27.8055V27.8811C50.0781 29.8769 51.2802 31.336 53.3818 31.336C55.1358 31.336 56.3454 30.2852 56.3454 28.3044V27.7979H53.5406V28.4934H53.533Z" fill="black"/>
<path d="M58.4015 27.1642V26.2645H57.6077V31.2617H58.4015V28.5174C58.4015 27.2851 59.0441 26.9676 60.042 26.9223V26.1738C59.1423 26.2041 58.7039 26.5972 58.4015 27.1642Z" fill="black"/>
<path d="M62.9375 26.1738C61.5237 26.1738 60.4805 27.2247 60.4805 28.7215V28.7971C60.4805 30.2562 61.5011 31.3373 62.9224 31.3373C64.3361 31.3373 65.3869 30.294 65.3869 28.7896V28.714C65.3945 27.2171 64.3512 26.1738 62.9375 26.1738ZM64.578 28.8047C64.578 29.9312 63.9505 30.6872 62.945 30.6872C61.9244 30.6872 61.3121 29.9538 61.3121 28.8047V28.7291C61.3121 27.58 61.9395 26.8391 62.945 26.8391C63.9354 26.8391 64.578 27.5875 64.578 28.7367V28.8047Z" fill="black"/>
<path d="M69.7873 29.2877C69.7873 30.1873 69.1296 30.656 68.4114 30.656C67.6176 30.656 67.2547 30.2629 67.2547 29.386V26.2637H66.4609V29.4238C66.4609 30.7997 67.2094 31.344 68.1997 31.344C69.0011 31.344 69.553 30.9358 69.7873 30.467V31.2608H70.5811V26.2637H69.7873V29.2877Z" fill="black"/>
<path d="M74.4736 26.1738C73.7402 26.1738 73.0598 26.6123 72.7801 27.1037V26.2645H71.9863V33.0005H72.7801V30.4377C73.075 30.9366 73.642 31.3449 74.4736 31.3449C75.8495 31.3449 76.7491 30.294 76.7491 28.7669V28.6913C76.7491 27.1264 75.7814 26.1738 74.4736 26.1738ZM75.9251 28.8047C75.9251 30.0294 75.3883 30.6872 74.398 30.6872C73.4227 30.6872 72.7574 30.0748 72.7574 28.8047V28.7291C72.7574 27.4515 73.4681 26.8391 74.3904 26.8391C75.2296 26.8391 75.9251 27.4666 75.9251 28.7291V28.8047Z" fill="black"/>
<path d="M82.7148 26.1738C81.3011 26.1738 80.2578 27.2247 80.2578 28.7215V28.7971C80.2578 30.2562 81.2784 31.3373 82.6997 31.3373C84.1134 31.3373 85.1643 30.294 85.1643 28.7896V28.714C85.1643 27.2171 84.1285 26.1738 82.7148 26.1738ZM84.3478 28.8047C84.3478 29.9312 83.7203 30.6872 82.7148 30.6872C81.6942 30.6872 81.0819 29.9538 81.0819 28.8047V28.7291C81.0819 27.58 81.7093 26.8391 82.7148 26.8391C83.7052 26.8391 84.3478 27.5875 84.3478 28.7367V28.8047Z" fill="black"/>
<path d="M86.3508 25.4482V26.2571H85.6326V26.9224H86.3508V31.2467H87.1446V26.9224H88.3693V26.2571H87.1446V25.3575C87.1446 24.8509 87.3487 24.4956 87.8703 24.4956C88.0896 24.4956 88.2937 24.5334 88.4373 24.6015V23.9362C88.2332 23.8681 88.1047 23.8379 87.8477 23.8379C86.8497 23.8455 86.3508 24.4276 86.3508 25.4482Z" fill="black"/>
<path d="M94.2129 30.6874C93.2452 30.6874 92.5799 30.0448 92.5799 28.8125V28.7369C92.5799 27.5651 93.2754 26.8394 94.1826 26.8394C94.8706 26.8394 95.4451 27.1342 95.5661 27.928H96.3523C96.2011 26.6579 95.2259 26.1816 94.1826 26.1816C92.8445 26.1816 91.7559 27.2098 91.7559 28.7445V28.8201C91.7559 30.3774 92.8067 31.3527 94.1977 31.3527C95.3922 31.3527 96.2692 30.5513 96.375 29.4702H95.6417C95.5737 30.2792 94.9235 30.6874 94.2129 30.6874Z" fill="black"/>
<path d="M99.5742 26.1738C98.1605 26.1738 97.1172 27.2247 97.1172 28.7215V28.7971C97.1172 30.2562 98.1378 31.3373 99.5591 31.3373C100.973 31.3373 102.024 30.294 102.024 28.7896V28.714C102.031 27.2171 100.988 26.1738 99.5742 26.1738ZM101.207 28.8047C101.207 29.9312 100.58 30.6872 99.5742 30.6872C98.5536 30.6872 97.9412 29.9538 97.9412 28.8047V28.7291C97.9412 27.58 98.5687 26.8391 99.5742 26.8391C100.565 26.8391 101.207 27.5875 101.207 28.7367V28.8047Z" fill="black"/>
<path d="M108.586 26.1738C107.981 26.1738 107.21 26.4687 106.877 27.1113C106.62 26.4309 106.068 26.1738 105.418 26.1738C104.692 26.1738 104.155 26.5594 103.929 27.0205V26.257H103.135V31.2542H103.929V28.1999C103.929 27.3003 104.594 26.8618 105.244 26.8618C105.932 26.8618 106.302 27.2247 106.302 28.1016V31.2542H107.096V28.1999C107.096 27.3003 107.761 26.8618 108.412 26.8618C109.1 26.8618 109.47 27.2247 109.47 28.1016V31.2542H110.264V28.1621C110.271 26.7106 109.478 26.1738 108.586 26.1738Z" fill="black"/>
<path d="M114.149 26.1738C113.416 26.1738 112.736 26.6123 112.456 27.1037V26.2645H111.662V33.0005H112.456V30.4377C112.751 30.9366 113.318 31.3449 114.149 31.3449C115.525 31.3449 116.425 30.294 116.425 28.7669V28.6913C116.425 27.1264 115.457 26.1738 114.149 26.1738ZM115.601 28.8047C115.601 30.0294 115.064 30.6872 114.074 30.6872C113.099 30.6872 112.433 30.0748 112.433 28.8047V28.7291C112.433 27.4515 113.144 26.8391 114.066 26.8391C114.905 26.8391 115.601 27.4666 115.601 28.7291V28.8047Z" fill="black"/>
<path d="M119.349 26.1738C118.381 26.1738 117.474 26.5821 117.368 27.7312H118.162C118.238 27.1264 118.623 26.8315 119.311 26.8315C120.075 26.8315 120.385 27.1566 120.385 27.958V28.3209H119.666C118.389 28.3209 117.164 28.7216 117.164 29.8707C117.164 30.8913 117.897 31.3449 118.827 31.3449C119.561 31.3449 120.014 31.0954 120.385 30.6267V31.2542H121.178V27.958C121.171 26.5594 120.301 26.1738 119.349 26.1738ZM120.385 29.5078C120.385 30.2714 119.742 30.7098 118.903 30.7098C118.207 30.7098 117.958 30.3923 117.958 29.8707C117.958 29.1449 118.691 28.8879 119.697 28.8879H120.385V29.5078Z" fill="black"/>
<path d="M124.959 26.1738C124.127 26.1738 123.583 26.5821 123.356 27.0508V26.257H122.562V31.2542H123.356V28.2226C123.356 27.3229 124.014 26.8542 124.747 26.8542C125.549 26.8542 125.919 27.2473 125.919 28.1243V31.2466H126.713V28.1772C126.721 26.7408 125.987 26.1738 124.959 26.1738Z" fill="black"/>
<path d="M128.483 24.1701C128.188 24.1701 127.961 24.3969 127.961 24.6917C127.961 24.9866 128.188 25.2134 128.483 25.2134C128.778 25.2134 129.004 24.9866 129.004 24.6917C129.004 24.3969 128.778 24.1701 128.483 24.1701Z" fill="black"/>
<path d="M128.891 26.2637H128.098V31.2608H128.891V26.2637Z" fill="black"/>
<path d="M132.308 26.1738C130.933 26.1738 129.965 27.2247 129.965 28.7367V28.8123C129.965 30.3394 130.97 31.3449 132.384 31.3449C133.518 31.3449 134.335 30.8232 134.516 29.8178H133.722C133.616 30.3999 133.178 30.6872 132.392 30.6872C131.363 30.6872 130.827 30.0672 130.789 28.9181H134.554V28.6611C134.554 26.8769 133.465 26.1738 132.308 26.1738ZM130.819 28.2755C130.963 27.3834 131.5 26.8315 132.308 26.8315C133.14 26.8315 133.662 27.2398 133.745 28.2755H130.819Z" fill="black"/>
<path d="M137.342 28.3435C136.427 28.1923 136.178 27.9882 136.178 27.5497C136.178 27.1188 136.548 26.8315 137.123 26.8315C137.766 26.8315 138.06 27.0735 138.174 27.6178H138.937C138.816 26.5367 138.023 26.1738 137.131 26.1738C136.337 26.1738 135.437 26.6577 135.437 27.58C135.437 28.4494 135.876 28.8198 137.176 29.0542C137.947 29.1978 138.34 29.3717 138.34 29.8934C138.34 30.4301 138.015 30.6872 137.252 30.6872C136.45 30.6872 136.14 30.3243 136.08 29.7195H135.309C135.354 30.7476 136.072 31.3449 137.267 31.3449C138.491 31.3449 139.104 30.7401 139.104 29.8253C139.096 28.7593 138.37 28.5552 137.342 28.3435Z" fill="black"/>
<path d="M69.3341 20.0045C72.2371 20.0045 74.7697 18.0238 74.7697 14.7503C74.7697 11.4768 72.2371 9.49609 69.3341 9.49609C66.431 9.49609 63.8984 11.4768 63.8984 14.7503C63.8984 18.0238 66.431 20.0045 69.3341 20.0045ZM69.3341 11.6734C70.8385 11.6734 72.154 12.8376 72.154 14.7503C72.154 16.663 70.8385 17.8272 69.3341 17.8272C67.8296 17.8272 66.5142 16.663 66.5142 14.7503C66.5142 12.8376 67.8221 11.6734 69.3341 11.6734Z" fill="black"/>
<path d="M94.0007 19.9067V11.7948H97.6219V9.68555H87.998V11.7948H91.5966V19.9067H94.0007Z" fill="black"/>
<path d="M86.2069 19.9067V9.68555H83.7725V16.2401L79.229 9.68555H76.5527V19.9067H78.9795V13.3597L83.5231 19.9067H86.2069Z" fill="black"/>
<path d="M59.7093 19.8991H62.1134V9.68555H59.4523L56.0881 15.6655L52.7314 9.68555H50.0703V19.8991H52.4744V13.8738L55.831 19.8991H56.3527L59.7093 13.8738V19.8991Z" fill="black"/>
</g>
<defs>
<clipPath id="clip0_1205_246">
<rect width="139.097" height="40" fill="white"/>
</clipPath>
</defs>
</svg>
