<svg width="187" height="40" viewBox="0 0 187 40" fill="none" xmlns="http://www.w3.org/2000/svg">
<g clip-path="url(#clip0_1205_331)">
<path d="M17.6255 26.7314C17.6255 29.5221 17.6255 32.2639 17.6255 35.0546C17.6255 36.7192 16.7931 37.5515 15.1285 37.5515C10.918 37.5515 6.70747 37.5515 2.49694 37.5515C0.734394 37.5515 0 36.8171 0 35.0546C0 29.4732 0 23.9407 0 18.3593C0 16.6947 0.783354 16.1072 2.39902 15.9114C4.25949 15.7155 5.48348 16.2051 6.26683 18.0166C6.80539 19.2896 7.68666 20.3667 8.42105 21.5907C8.71481 22.0803 8.91065 22.1292 9.20441 21.5907C10.1836 19.9261 11.1628 18.2614 12.1909 16.5968C12.4357 16.1562 12.7785 15.9603 13.317 15.9603C14.0024 16.0093 14.6879 15.9603 15.3733 16.0093C16.8421 16.1072 17.6255 16.8906 17.6255 18.3593C17.6255 21.15 17.6255 23.9407 17.6255 26.7314Z" fill="#25446D"/>
<path d="M112.853 28.0046C89.2053 28.0046 65.5578 28.0046 41.9103 28.0046C40.9311 28.0046 40.7353 27.8577 40.7842 27.0744C40.7842 26.4379 41.1269 26.291 41.7145 26.291C44.7989 26.34 47.9323 26.34 51.0168 26.34C94.7377 26.34 138.41 26.34 182.131 26.34C182.816 26.34 183.501 26.34 184.187 26.34C184.872 26.291 185.068 26.6827 185.068 27.2702C185.068 27.9067 184.774 28.1025 184.187 28.1025C180.27 28.1025 176.353 28.0536 172.486 28.0536C152.559 28.0046 132.73 28.0046 112.853 28.0046Z" fill="#25446D"/>
<path d="M129.938 11.7503C129.889 13.4639 129.497 15.0796 129.301 16.6952C129.057 18.4088 128.812 20.1224 128.518 21.836C128.371 22.7173 128.077 22.9131 127.245 22.7662C125.776 22.5214 124.895 21.2485 125.091 19.437C125.287 17.5765 125.58 15.765 125.874 13.9045C125.923 13.6108 125.972 13.317 125.972 13.0232C126.07 11.4076 125.336 10.8201 123.769 11.1628C122.3 11.5055 121.811 12.0441 121.615 13.5618C121.223 16.3525 120.831 19.0942 120.391 21.836C120.244 22.7173 119.999 22.8641 119.118 22.7662C117.894 22.6193 117.159 21.7381 117.013 20.2693C116.915 18.8984 117.208 17.6255 117.404 16.3035C117.6 15.0306 117.845 13.7576 117.796 12.4847C117.747 11.4565 117.355 11.0649 116.327 11.0649C114.662 11.0649 113.634 11.9461 113.39 13.5618C112.998 16.0587 112.606 18.5557 112.215 21.0037C111.97 22.4725 110.795 23.1089 109.424 22.5704C108.689 22.2766 108.298 21.7381 108.445 20.8078C108.689 19.1432 108.934 17.5275 109.179 15.8629C109.571 13.5128 109.913 11.1138 110.305 8.76376C110.403 8.17625 110.354 7.44185 111.039 7.24602C111.823 7.00122 112.655 7.1481 113.194 7.78457C113.732 8.47001 114.173 8.32313 114.809 7.93145C116.572 6.80538 118.922 6.9033 120.293 7.93145C120.685 8.22521 120.831 8.9596 121.37 8.86168C121.811 8.76376 122.153 8.32313 122.545 8.07833C123.622 7.44185 124.748 7.05018 125.972 7.1481C128.175 7.24602 129.497 8.47 129.742 10.6732C129.938 11.1138 129.938 11.4565 129.938 11.7503Z" fill="#25446D"/>
<path d="M82.4975 22.6691C81.7142 22.6691 80.9308 22.6691 80.1474 22.5223C77.4057 22.0327 75.7411 20.0253 76.1817 17.2346C76.7203 13.6116 77.1609 9.93965 77.9932 6.3656C78.6787 3.23218 80.735 1.42068 83.8194 0.735243C85.3861 0.392526 86.9528 0.245647 88.5195 0.0498087C89.6456 -0.0970701 90.38 0.882122 90.0373 2.00819C89.7925 2.88947 89.156 3.37906 88.2258 3.52594C87.1487 3.67282 86.0716 3.8197 84.9945 3.96658C83.1829 4.26033 82.0569 5.33745 81.7142 7.09999C81.6652 7.39375 81.6162 7.68751 81.5673 7.98126C81.3714 9.00942 81.3714 9.00942 82.3996 8.6667C84.2601 8.03023 86.0716 7.88335 87.932 8.6667C89.4498 9.35213 90.331 10.5272 90.429 12.1918C90.5758 14.4439 90.1352 16.6471 89.4008 18.8013C88.6664 21.0045 87.0508 22.2285 84.7007 22.5223C83.9173 22.6202 83.2319 22.6691 82.4975 22.6691ZM82.6444 18.8993C82.9871 18.8993 83.3298 18.9482 83.7215 18.8993C84.8476 18.8013 85.6799 18.1159 85.9247 17.0388C86.1695 16.0596 86.3653 15.0314 86.5122 14.0033C86.708 12.5835 85.8757 11.7512 84.4559 11.7512C83.4767 11.7512 82.5954 12.1428 81.6652 12.3387C80.9308 12.5345 80.637 12.9751 80.5391 13.6606C80.4412 14.395 80.2454 15.1294 80.1474 15.8638C79.7068 18.3117 80.2454 18.9482 82.6444 18.8993Z" fill="#25446D"/>
<path d="M53.9037 0.929819C55.0788 1.12566 56.4007 1.27254 57.4288 2.30069C58.2122 3.08404 58.7018 4.16115 58.8976 5.62994C59.3383 9.00815 58.1143 13.0718 53.3162 14.2958C52.337 14.5406 51.3578 14.4916 50.3787 14.4916C49.2526 14.4916 48.1265 14.5406 47.0004 14.4916C46.266 14.4427 45.9723 14.7364 45.8744 15.4708C45.6296 17.3313 45.2869 19.1428 44.9441 20.9543C44.6993 22.3741 44.1118 22.8148 42.643 22.7658C41.517 22.7168 40.9784 22.1293 41.1253 21.0033C41.419 18.849 41.7618 16.7438 42.1045 14.5896C42.692 10.7707 43.3285 7.00081 43.916 3.18196C44.1608 1.46837 44.7483 0.929819 46.5108 0.880859C47.0004 0.880859 47.1963 0.880859 48.2244 0.880859C48.9588 0.880859 48.9588 0.880859 49.938 0.880859C52.2881 0.880859 53.4142 0.880859 53.9037 0.929819ZM49.6443 10.8197C50.6235 10.8197 51.5047 10.7707 52.1412 10.7707C52.435 10.7707 52.7287 10.7217 53.0714 10.6238C53.561 10.428 53.9527 10.0853 54.2954 9.64463C54.8829 8.86128 55.1767 7.98 55.1277 7.04977C55.0788 5.72786 54.3444 4.79763 53.0225 4.74867C51.3579 4.65075 49.6932 4.69971 48.0286 4.69971C47.7348 4.69971 47.49 4.84659 47.4411 5.18931C47.1963 6.90289 46.9025 8.61648 46.6088 10.3301C46.5108 10.8197 46.7067 10.9665 47.1963 10.9176C48.0286 10.7707 48.8609 10.8197 49.6443 10.8197Z" fill="#25446D"/>
<path d="M98.7026 22.6689C97.8703 22.6689 97.0379 22.6199 96.2056 22.4241C93.9045 21.9345 92.4847 20.3678 92.4357 17.9687C92.3868 15.7656 92.7785 13.5624 93.4639 11.4082C94.1493 9.25393 95.716 7.98098 97.9192 7.54035C99.437 7.19763 100.955 7.19763 102.521 7.44243C105.116 7.88306 106.732 9.64561 106.683 12.2894C106.683 14.3947 106.34 16.5 105.655 18.5073C104.823 20.8084 103.158 22.1793 100.661 22.4241C99.9755 22.6199 99.3391 22.6199 98.7026 22.6689ZM98.8495 18.9479C100.759 19.0459 101.787 18.5073 102.326 16.5489C102.619 15.4228 102.766 14.2478 102.913 13.0728C103.011 12.0446 102.521 11.4082 101.493 11.1634C100.759 10.9675 99.9755 11.0654 99.2411 11.1144C98.0171 11.1634 97.2827 11.9467 96.94 13.0238C96.5484 14.3947 96.3525 15.7656 96.3036 17.1854C96.2546 18.2625 96.7931 18.85 97.8703 18.9479C98.213 18.9479 98.5067 18.899 98.8495 18.9479Z" fill="#25446D"/>
<path d="M66.0465 22.668C65.2142 22.668 64.3819 22.668 63.5496 22.4721C61.4933 22.0315 60.0245 20.6117 59.9266 18.5554C59.7797 15.9116 60.1224 13.2677 61.1995 10.8198C61.9829 8.95929 63.5496 7.88217 65.5569 7.58842C67.0747 7.34362 68.5924 7.29466 70.1591 7.63738C72.5092 8.12697 74.1248 9.93848 74.1248 12.3375C74.1248 14.5407 73.7332 16.7928 72.9498 18.8491C72.1175 21.0034 70.5508 22.3253 68.1518 22.619C67.4663 22.619 66.7809 22.668 66.0465 22.668ZM66.3403 18.947C68.2986 18.947 69.1799 18.4574 69.6206 16.9397C70.0122 15.6178 70.2081 14.2469 70.257 12.8271C70.306 11.8479 69.8164 11.3093 68.8372 11.1135C68.2007 10.9666 67.5153 11.0156 66.8788 11.0645C65.41 11.1625 64.5777 11.8969 64.235 13.3167C64.0392 14.198 63.9412 15.0303 63.7944 15.9116C63.4027 18.3106 63.8923 18.947 66.3403 18.947Z" fill="#25446D"/>
<path d="M32.0686 17.478C32.0686 19.1427 32.0686 20.8562 32.0686 22.5209C32.0686 23.598 31.677 24.0876 30.5998 24.0876C27.956 24.1365 25.3122 24.1365 22.6684 24.0876C21.6402 24.0876 21.1996 23.598 21.1506 22.5698C21.1506 19.1916 21.1506 15.7644 21.1506 12.3862C21.1506 11.7008 21.3465 11.0154 22.1788 10.8195C23.3049 10.5258 24.2351 10.6726 24.7247 11.407C25.2632 12.1904 25.7039 13.0227 26.1935 13.855C26.3404 14.0509 26.3404 14.3936 26.6341 14.3936C26.9279 14.3936 26.9768 14.0509 27.1237 13.855C27.5643 13.0717 28.005 12.2883 28.4946 11.505C28.9842 10.7216 29.8165 10.4768 30.9426 10.7706C31.7749 11.0154 32.0686 11.407 32.0686 12.4842C32.0686 14.1488 32.0686 15.8134 32.0686 17.478Z" fill="#25446D"/>
<path d="M146.732 10.6736C146.536 12.0934 146.242 13.856 145.998 15.6675C145.949 15.8633 145.949 16.0592 145.9 16.255C145.557 18.6051 146.83 19.1926 148.69 18.9478C149.669 18.8009 150.502 18.4092 151.334 17.8707C151.775 17.5769 151.922 17.1363 152.02 16.6467C152.362 14.3456 152.754 12.0934 153.097 9.79233C153.146 9.44961 153.195 9.10689 153.292 8.76417C153.586 7.6381 154.223 7.14851 155.349 7.24643C156.475 7.34435 157.062 7.93186 156.916 9.10689C156.622 11.3101 156.279 13.5133 155.985 15.6675C155.692 17.5279 155.447 19.3394 155.153 21.1999C155.055 21.7385 155.153 22.4729 154.468 22.6687C153.733 22.9135 152.901 22.8156 152.411 22.2281C151.677 21.3958 151.138 21.4937 150.257 21.9833C148.397 23.0114 146.389 23.0114 144.431 22.277C143.06 21.7874 142.326 20.7103 142.081 19.2905C141.738 17.479 142.179 15.6675 142.423 13.9049C142.668 12.1424 142.962 10.3798 143.207 8.6173C143.403 7.14851 144.382 6.70787 145.655 7.54018C146.34 8.02978 146.732 9.00897 146.732 10.6736Z" fill="#25446D"/>
<path d="M164.944 12.9253C165.923 12.8274 166.413 12.8274 166.56 12.7785C167.392 12.4847 167.882 11.7993 168.371 10.8201C168.812 9.93879 169.253 9.05752 169.791 8.22521C170.379 7.24601 171.309 7.00122 172.337 7.39289C173.414 7.78457 173.708 8.51896 173.218 9.49816C172.582 10.6732 171.896 11.8482 171.26 12.9743C170.966 13.5128 170.477 13.9045 169.987 14.2472C169.693 14.4431 169.595 14.6879 169.987 14.9327C170.77 15.4223 171.162 16.1567 171.309 17.0379C171.554 18.2619 171.798 19.437 171.994 20.6609C172.141 21.3464 171.945 21.9339 171.358 22.3256C170.623 22.8152 169.84 23.011 169.008 22.6683C168.616 22.5214 168.469 22.1787 168.371 21.787C168.224 21.0037 168.078 20.2203 167.882 19.437C167.784 18.8984 167.735 18.4088 167.588 17.8702C167.392 17.1848 166.951 16.6463 166.266 16.4504C165.287 16.2056 164.308 16.3035 163.328 16.3035C162.937 16.3035 162.888 16.6463 162.839 16.94C162.594 18.3109 162.398 19.7307 162.104 21.1016C161.811 22.5214 160.342 23.2558 159.02 22.5704C158.286 22.2277 158.237 21.5912 158.335 20.9057C158.53 19.339 158.824 17.7723 159.118 16.2056C159.51 13.9045 159.852 11.6524 160.195 9.35128C160.44 7.73561 161.419 7.00122 162.986 7.29497C163.769 7.44185 164.063 7.83353 164.063 8.56792C164.063 9.64503 163.769 10.7221 163.573 11.7993C163.475 12.3378 163.377 12.6316 163.524 12.7785C163.671 12.9743 163.965 12.9743 164.944 12.9253Z" fill="#25446D"/>
<path d="M14.0019 8.07775C14.0019 9.49758 14.0019 10.9174 14.0019 12.2883C14.0019 13.3164 13.7082 13.6591 12.6311 13.6591C10.4768 13.6591 8.32262 13.7081 6.11944 13.6591C4.84649 13.6591 4.60169 13.3164 4.55273 12.0924C4.55273 9.3507 4.55273 6.60896 4.55273 3.86723C4.55273 2.6922 4.84649 2.39844 6.02152 2.39844C8.17575 2.39844 10.281 2.39844 12.4352 2.39844C13.6103 2.39844 13.953 2.6922 13.953 3.96515C14.0019 5.28705 14.0019 6.70688 14.0019 8.07775Z" fill="#25446D"/>
<path d="M183.207 7.49177C184.039 7.49177 184.92 7.49177 185.752 7.49177C186.438 7.49177 186.732 7.88344 186.781 8.51992C186.927 10.7231 186.536 11.1637 184.333 11.1637C183.256 11.1637 182.178 11.1637 181.101 11.2127C179.926 11.2617 179.143 11.8981 178.898 13.0242C178.555 14.2972 178.36 15.6191 178.311 16.9899C178.262 18.165 178.849 18.8504 180.024 18.8994C181.248 18.9483 182.472 18.8994 183.745 18.8994C184.822 18.8994 185.361 19.2421 185.557 19.9275C185.801 20.9557 185.263 22.0817 184.382 22.4734C184.284 22.5224 184.137 22.5713 184.039 22.5713C181.787 22.6692 179.535 22.963 177.38 22.2286C175.618 21.6411 174.786 20.2213 174.639 18.5077C174.443 16.2066 174.786 13.8565 175.471 11.6533C176.205 9.40119 177.919 8.07928 180.269 7.63865C181.15 7.44281 182.178 7.49177 183.207 7.49177Z" fill="#25446D"/>
<path d="M29.2779 5.92366C29.2779 6.70701 29.2779 7.53933 29.2779 8.32268C29.2779 9.05708 28.9841 9.39979 28.2497 9.39979C26.9768 9.39979 25.7528 9.39979 24.4798 9.39979C23.5986 9.39979 23.3538 9.15499 23.3538 8.22476C23.3538 6.65805 23.3538 5.09135 23.3538 3.52464C23.3538 2.54545 23.5986 2.34961 24.5778 2.34961C25.8017 2.34961 26.9768 2.34961 28.2008 2.34961C28.8862 2.34961 29.2289 2.64337 29.2289 3.3288C29.2289 4.21007 29.2289 5.09135 29.2779 5.92366C29.2289 5.92366 29.2779 5.92366 29.2779 5.92366Z" fill="#25446D"/>
<path d="M71.1876 39.8042C71.1387 39.7552 71.1387 39.7062 71.1387 39.6083V32.3623C71.1387 32.2644 71.1387 32.2154 71.1876 32.1665C71.2366 32.1175 71.2856 32.1175 71.3835 32.1175H71.971C72.0689 32.1175 72.1179 32.1175 72.1668 32.1665C72.2158 32.2154 72.2158 32.2644 72.2158 32.3623V39.6083C72.2158 39.7062 72.2158 39.7552 72.1668 39.8042C72.1179 39.8531 72.0689 39.8531 71.971 39.8531H71.3835C71.2856 39.8531 71.2366 39.8531 71.1876 39.8042Z" fill="#25446E"/>
<path d="M78.2369 39.8042C78.188 39.7552 78.188 39.7062 78.188 39.6083V33.1457C78.188 33.0967 78.139 33.0967 78.139 33.0967H76.0827C75.9848 33.0967 75.9358 33.0967 75.8869 33.0477C75.8379 32.9988 75.8379 32.9498 75.8379 32.8519V32.3623C75.8379 32.2644 75.8379 32.2154 75.8869 32.1665C75.9358 32.1175 75.9848 32.0685 76.0827 32.0685H81.4193C81.5172 32.0685 81.5662 32.0685 81.6151 32.1175C81.6641 32.1665 81.6641 32.2154 81.6641 32.3133V32.8029C81.6641 32.9009 81.6151 32.9498 81.5662 32.9988C81.5172 33.0477 81.4682 33.0477 81.3703 33.0477H79.314C79.2651 33.0477 79.2651 33.0967 79.2651 33.0967V39.5594C79.2651 39.6573 79.2161 39.7062 79.1671 39.7552C79.1182 39.8042 79.0692 39.8042 78.9713 39.8042H78.3838C78.3348 39.8531 78.2859 39.8531 78.2369 39.8042Z" fill="#25446E"/>
<path d="M94.6398 39.7067C94.6398 39.7557 94.6398 39.8046 94.5909 39.8536C94.5419 39.9026 94.493 39.9025 94.444 39.9025H93.7586C93.6606 39.9025 93.5627 39.8536 93.4648 39.7557L91.8981 37.4546L91.8491 37.4056H90.9189C90.8699 37.4056 90.87 37.4546 90.87 37.4546V39.6088C90.87 39.7067 90.8699 39.7557 90.821 39.8046C90.772 39.8536 90.7231 39.8536 90.6252 39.8536H90.0866C89.9887 39.8536 89.9397 39.8536 89.8908 39.8046C89.8418 39.7557 89.8418 39.7067 89.8418 39.6088V34.3701C89.8418 34.2722 89.8418 34.2232 89.8908 34.1743C89.9397 34.1253 89.9887 34.1253 90.0866 34.1253H90.6252C90.7231 34.1253 90.772 34.1253 90.821 34.1743C90.8699 34.2232 90.87 34.2722 90.87 34.3701V36.4264C90.87 36.4754 90.9189 36.4754 90.9189 36.4754H91.8491C91.8491 36.4754 91.8981 36.4754 91.8981 36.4264L93.3669 34.2232C93.4648 34.1253 93.5627 34.0764 93.6606 34.0764H94.2482C94.2971 34.0764 94.3461 34.0764 94.395 34.1253C94.444 34.1743 94.444 34.2232 94.444 34.2722C94.444 34.3212 94.444 34.3701 94.395 34.4191L92.7794 36.8181C92.7794 36.8181 92.7794 36.8671 92.7794 36.916L94.6398 39.5598C94.6398 39.6088 94.6398 39.6578 94.6398 39.7067Z" fill="#25446E"/>
<path d="M98.2129 39.3152C97.7723 38.8745 97.5275 38.2381 97.4785 37.5037V37.0141V36.5245C97.5275 35.7901 97.7723 35.1536 98.2129 34.713C98.6535 34.2723 99.29 34.0275 100.122 34.0275C100.906 34.0275 101.542 34.2723 102.032 34.713C102.472 35.1536 102.717 35.7901 102.766 36.5245C102.766 36.6224 102.766 36.7693 102.766 37.0141C102.766 37.2589 102.766 37.4057 102.766 37.5037C102.717 38.287 102.521 38.8745 102.032 39.3152C101.591 39.7558 100.955 40.0006 100.122 40.0006C99.29 40.0006 98.7025 39.7558 98.2129 39.3152ZM101.248 38.6787C101.542 38.3849 101.689 37.9443 101.689 37.4057C101.689 37.3078 101.689 37.2099 101.689 36.9651C101.689 36.7693 101.689 36.6224 101.689 36.5245C101.689 35.9859 101.542 35.5453 101.248 35.2515C100.955 34.9578 100.612 34.8109 100.122 34.8109C99.6327 34.8109 99.29 34.9578 98.9963 35.2515C98.7025 35.5453 98.5556 35.9859 98.5556 36.5245V36.9651V37.4057C98.5556 37.9443 98.7025 38.3849 98.9963 38.6787C99.29 38.9724 99.6327 39.1193 100.122 39.1193C100.612 39.1193 100.955 38.9724 101.248 38.6787Z" fill="#25446E"/>
<path d="M112.266 34.1729C112.314 34.2219 112.314 34.2709 112.314 34.3198V39.6564C112.314 39.7543 112.314 39.8033 112.266 39.8523C112.217 39.9012 112.168 39.9012 112.119 39.9012H111.58C111.482 39.9012 111.433 39.9012 111.384 39.8523C111.335 39.8033 111.335 39.7543 111.335 39.6564V36.2292C111.335 36.1803 111.237 36.1313 111.188 36.1803L109.915 38.6283C109.866 38.7262 109.818 38.7751 109.769 38.8241C109.72 38.8731 109.671 38.8731 109.573 38.8731H109.279C109.181 38.8731 109.132 38.8731 109.083 38.8241C109.034 38.7751 108.985 38.7262 108.936 38.5793L107.663 36.1803C107.614 36.1313 107.516 36.1313 107.516 36.2292V39.5585C107.516 39.6564 107.516 39.7054 107.467 39.7543C107.419 39.8033 107.37 39.8033 107.272 39.8033H106.733C106.635 39.8033 106.586 39.8033 106.537 39.7543C106.488 39.7054 106.488 39.6564 106.488 39.5585V34.3198C106.488 34.2709 106.488 34.2219 106.537 34.1729C106.586 34.124 106.635 34.124 106.684 34.124H107.272C107.37 34.124 107.467 34.1729 107.565 34.3198L109.377 37.747C109.426 37.7959 109.475 37.7959 109.524 37.747L111.384 34.3198C111.433 34.2219 111.531 34.124 111.678 34.124H112.217C112.168 34.075 112.217 34.124 112.266 34.1729Z" fill="#25446E"/>
<path d="M116.377 39.8045C116.328 39.7555 116.328 39.7066 116.328 39.6087V34.37C116.328 34.2721 116.328 34.2231 116.377 34.1741C116.426 34.1252 116.475 34.1252 116.573 34.1252H120.979C121.077 34.1252 121.126 34.1252 121.175 34.1741C121.224 34.2231 121.224 34.2721 121.224 34.37V39.6087C121.224 39.7066 121.224 39.7555 121.175 39.8045C121.126 39.8535 121.077 39.8535 120.979 39.8535H120.441C120.343 39.8535 120.294 39.8535 120.245 39.8045C120.196 39.7555 120.196 39.7066 120.196 39.6087V35.0554C120.196 35.0065 120.147 35.0065 120.147 35.0065H117.454C117.405 35.0065 117.405 35.0554 117.405 35.0554V39.6087C117.405 39.7066 117.405 39.7555 117.356 39.8045C117.307 39.8535 117.258 39.8535 117.16 39.8535H116.622C116.475 39.8535 116.426 39.8535 116.377 39.8045Z" fill="#25446E"/>
<path d="M125.778 39.7559C125.484 39.6091 125.24 39.4132 125.044 39.1684C124.848 38.9236 124.75 38.6299 124.75 38.3361C124.75 37.8465 124.946 37.4548 125.338 37.1121C125.729 36.8184 126.268 36.5736 126.953 36.4756L128.618 36.2308V35.8881C128.618 35.1537 128.177 34.7621 127.296 34.7621C126.953 34.7621 126.708 34.811 126.513 34.9579C126.317 35.1048 126.17 35.2516 126.023 35.4475C126.023 35.4964 125.974 35.5454 125.925 35.5944C125.876 35.6433 125.827 35.6433 125.778 35.6433H125.289C125.24 35.6433 125.142 35.6433 125.093 35.5944C125.044 35.5454 125.044 35.4964 125.044 35.3985C125.044 35.2027 125.142 35.0068 125.289 34.811C125.435 34.6152 125.68 34.3704 126.023 34.2235C126.366 34.0766 126.757 33.9787 127.247 33.9787C128.079 33.9787 128.667 34.1745 129.058 34.5662C129.401 34.9579 129.597 35.4475 129.597 36.035V39.6091C129.597 39.707 129.597 39.7559 129.548 39.8049C129.499 39.8539 129.45 39.8539 129.352 39.8539H128.863C128.765 39.8539 128.716 39.8539 128.667 39.8049C128.618 39.7559 128.618 39.707 128.618 39.6091V39.1195C128.471 39.3643 128.226 39.5601 127.883 39.707C127.59 39.8539 127.198 39.9518 126.708 39.9518C126.415 40.0007 126.072 39.9028 125.778 39.7559ZM128.226 38.6788C128.52 38.3851 128.667 37.8955 128.667 37.308V37.0142L127.394 37.21C126.855 37.308 126.464 37.4059 126.219 37.6017C125.974 37.7975 125.827 37.9934 125.827 38.2382C125.827 38.5319 125.925 38.7767 126.17 38.9236C126.415 39.0705 126.708 39.1684 127.051 39.1684C127.492 39.1684 127.883 38.9726 128.226 38.6788Z" fill="#25446E"/>
<path d="M133.66 39.8045C133.611 39.7555 133.611 39.7066 133.611 39.6087V34.37C133.611 34.2721 133.611 34.2231 133.66 34.1741C133.709 34.1252 133.758 34.1252 133.856 34.1252H134.394C134.492 34.1252 134.541 34.1252 134.59 34.1741C134.639 34.2231 134.639 34.2721 134.639 34.37V36.4263C134.639 36.4752 134.688 36.4752 134.688 36.4752H137.577C137.626 36.4752 137.626 36.4263 137.626 36.4263V34.37C137.626 34.2721 137.626 34.2231 137.675 34.1741C137.724 34.1252 137.773 34.1252 137.871 34.1252H138.409C138.507 34.1252 138.556 34.1252 138.605 34.1741C138.654 34.2231 138.654 34.2721 138.654 34.37V39.6087C138.654 39.7066 138.654 39.7555 138.605 39.8045C138.556 39.8535 138.507 39.8535 138.409 39.8535H137.871C137.773 39.8535 137.724 39.8535 137.675 39.8045C137.626 39.7555 137.626 39.7066 137.626 39.6087V37.4544C137.626 37.4055 137.577 37.4055 137.577 37.4055H134.688C134.639 37.4055 134.639 37.4544 134.639 37.4544V39.6087C134.639 39.7066 134.639 39.7555 134.59 39.8045C134.541 39.8535 134.492 39.8535 134.394 39.8535H133.856C133.807 39.8535 133.709 39.8535 133.66 39.8045Z" fill="#25446E"/>
<path d="M147.711 34.1738C147.76 34.2228 147.76 34.2717 147.76 34.3207V39.6083C147.76 39.7062 147.76 39.7552 147.711 39.8042C147.662 39.8531 147.613 39.8531 147.515 39.8531H146.977C146.879 39.8531 146.83 39.8531 146.781 39.8042C146.732 39.7552 146.732 39.7062 146.732 39.6083V35.7895C146.732 35.7405 146.634 35.6916 146.585 35.7405L143.647 39.7062C143.549 39.8042 143.451 39.8531 143.354 39.8531H142.864C142.815 39.8531 142.717 39.8531 142.668 39.8042C142.619 39.7552 142.619 39.7062 142.619 39.6573V34.3696C142.619 34.2717 142.619 34.2228 142.668 34.1738C142.717 34.1249 142.766 34.1249 142.864 34.1249H143.402C143.5 34.1249 143.549 34.1249 143.598 34.1738C143.647 34.2228 143.647 34.2717 143.647 34.3696V38.1885C143.647 38.2375 143.745 38.2864 143.794 38.2375L146.732 34.3207C146.83 34.2228 146.928 34.1738 147.026 34.1738H147.515C147.613 34.0759 147.662 34.1249 147.711 34.1738Z" fill="#25446E"/>
<path d="M156.035 34.1729C156.084 34.2219 156.084 34.2709 156.084 34.3688V39.6075C156.084 39.7054 156.084 39.7543 156.035 39.8033C155.986 39.8523 155.937 39.8523 155.839 39.8523H155.301C155.203 39.8523 155.154 39.8523 155.105 39.8033C155.056 39.7543 155.056 39.7054 155.056 39.6075V37.8449C155.056 37.796 155.007 37.7959 155.007 37.7959H153.93C153.93 37.7959 153.881 37.796 153.881 37.8449L152.657 39.7054C152.608 39.7543 152.608 39.8033 152.559 39.8033C152.51 39.8523 152.461 39.8523 152.412 39.8523H151.874C151.825 39.8523 151.727 39.8523 151.727 39.8033C151.678 39.7543 151.678 39.7054 151.678 39.6564C151.678 39.5585 151.727 39.5095 151.776 39.4606L152.951 37.698C153 37.6491 152.951 37.6001 152.902 37.6001C152.559 37.4532 152.314 37.2574 152.118 37.0126C151.923 36.7188 151.825 36.3761 151.825 35.9355C151.825 35.299 152.02 34.8584 152.363 34.5646C152.706 34.2709 153.293 34.124 154.028 34.124H155.937C155.937 34.075 155.986 34.124 156.035 34.1729ZM155.056 35.0053C155.056 34.9563 155.007 34.9563 155.007 34.9563H153.93C153.489 34.9563 153.195 35.0542 153 35.2011C152.804 35.348 152.706 35.5928 152.706 35.9844C152.706 36.3272 152.804 36.572 153 36.7678C153.195 36.9636 153.489 37.0616 153.832 37.0616H155.007C155.056 37.0616 155.056 37.0126 155.056 37.0126V35.0053Z" fill="#25446E"/>
</g>
<defs>
<clipPath id="clip0_1205_331">
<rect width="186.781" height="40" fill="white"/>
</clipPath>
</defs>
</svg>
