<svg width="32" height="32" viewBox="0 0 32 32" fill="none" xmlns="http://www.w3.org/2000/svg">
<g clip-path="url(#clip0_1205_149)">
<path d="M12.0013 17.334V21.334H20.0013V17.334H29.3346V26.6673C29.3346 27.0209 29.1942 27.3601 28.9441 27.6101C28.6941 27.8602 28.3549 28.0006 28.0013 28.0006H4.0013C3.64768 28.0006 3.30854 27.8602 3.05849 27.6101C2.80844 27.3601 2.66797 27.0209 2.66797 26.6673V17.334H12.0013ZM14.668 14.6673H17.3346V18.6673H14.668V14.6673ZM9.33463 6.66732V2.66732C9.33463 2.3137 9.47511 1.97456 9.72516 1.72451C9.97521 1.47446 10.3143 1.33398 10.668 1.33398H21.3346C21.6883 1.33398 22.0274 1.47446 22.2774 1.72451C22.5275 1.97456 22.668 2.3137 22.668 2.66732V6.66732H28.0013C28.3549 6.66732 28.6941 6.80779 28.9441 7.05784C29.1942 7.30789 29.3346 7.64703 29.3346 8.00065V14.6673H20.0013V12.0007H12.0013V14.6673H2.66797V8.00065C2.66797 7.64703 2.80844 7.30789 3.05849 7.05784C3.30854 6.80779 3.64768 6.66732 4.0013 6.66732H9.33463ZM12.0013 4.00065V6.66732H20.0013V4.00065H12.0013Z" fill="#008DF4"/>
</g>
<defs>
<clipPath id="clip0_1205_149">
<rect width="32" height="32" fill="white"/>
</clipPath>
</defs>
</svg>
