<svg width="205" height="40" viewBox="0 0 205 40" fill="none" xmlns="http://www.w3.org/2000/svg">
<path d="M0 25.2288L8.4982 24.4727C8.84087 25.4694 9.3206 26.1912 9.97168 26.6381C10.5885 27.0849 11.4452 27.2911 12.5074 27.2911C13.6382 27.2911 14.5292 27.0505 15.1802 26.535C15.66 26.1569 15.8999 25.71 15.8999 25.1601C15.8999 24.5414 15.5572 24.0602 14.9061 23.7165C14.4264 23.4759 13.227 23.1665 11.2053 22.8228C8.22406 22.3073 6.16805 21.8261 5.00297 21.3792C3.8379 20.9324 2.87842 20.1762 2.09028 19.1451C1.30214 18.0796 0.89094 16.8766 0.89094 15.5361C0.89094 14.0581 1.30214 12.7864 2.15882 11.7208C3.01549 10.6553 4.18057 9.86478 5.68831 9.31484C7.19605 8.79926 9.18354 8.52429 11.7193 8.52429C14.3921 8.52429 16.3453 8.73052 17.6132 9.14298C18.8811 9.55544 19.9434 10.1741 20.8 11.0334C21.6567 11.8927 22.342 13.0613 22.9246 14.5049L14.769 15.3642C14.5634 14.6424 14.2208 14.0925 13.741 13.7488C13.09 13.3019 12.2676 13.0613 11.3424 13.0613C10.3829 13.0613 9.69754 13.2332 9.25207 13.5769C8.8066 13.9206 8.601 14.3331 8.601 14.8486C8.601 15.3986 8.87513 15.811 9.45767 16.086C10.0059 16.361 11.2396 16.636 13.1242 16.8422C15.9684 17.1515 18.0929 17.6327 19.4636 18.1827C20.8343 18.767 21.8966 19.5919 22.6504 20.6574C23.37 21.7229 23.747 22.8916 23.747 24.1977C23.747 25.5038 23.37 26.7412 22.5819 27.9786C21.7938 29.2159 20.5944 30.1783 18.9153 30.9001C17.2363 31.6219 14.9746 32 12.062 32C7.98419 32 5.07151 31.4157 3.35816 30.2471C1.64481 29.0784 0.479737 27.3942 0 25.2288Z" fill="#A41735"/>
<path d="M34.4043 15.7766C35.2268 14.8142 36.2548 14.2986 37.4884 14.2986C38.6534 14.2986 39.6472 14.7798 40.4696 15.7423C41.2577 16.7047 41.6689 18.1483 41.6689 20.1418C41.6689 22.2385 41.2577 23.7852 40.4696 24.7476C39.6814 25.71 38.6534 26.1912 37.4198 26.1912C36.1862 26.1912 35.1925 25.71 34.3701 24.7476C33.5477 23.7852 33.1707 22.2728 33.1707 20.2793C33.1707 18.2514 33.5819 16.7734 34.4043 15.7766ZM28.6818 29.2159C30.9091 31.0376 33.7875 31.9656 37.3856 31.9656C41.3948 31.9656 44.5474 30.8657 46.8432 28.6659C49.1049 26.4662 50.2699 23.6477 50.2699 20.1762C50.2699 17.1171 49.3447 14.5392 47.5286 12.4082C45.2327 9.79598 41.8745 8.48987 37.3856 8.48987C33.4791 8.48987 30.3608 9.58976 28.065 11.8239C25.7691 14.058 24.604 16.8765 24.604 20.2793C24.604 23.9914 25.9404 26.9474 28.6818 29.2159Z" fill="#A41735"/>
<path d="M61.8172 9.0397H65.895V15.3641H61.8172V31.4843H53.2162V15.3297H49.9951V9.0397H53.2162V8.04293C53.2162 7.1149 53.319 6.11812 53.5246 5.01824C53.7302 3.91835 54.1071 3.02469 54.6212 2.33726C55.1694 1.64983 55.9233 1.06552 56.8828 0.653058C57.8765 0.206229 59.2815 0 61.1661 0C62.6739 0 64.867 0.171857 67.7111 0.515572L66.7516 5.70567C65.7236 5.53381 64.9012 5.46507 64.2502 5.46507C63.462 5.46507 62.9138 5.60255 62.5711 5.84315C62.2284 6.11812 61.9885 6.53058 61.8515 7.08053C61.8515 7.38987 61.8172 8.04293 61.8172 9.0397Z" fill="#A41735"/>
<path d="M77.1692 15.3296V23.2694C77.1692 24.2318 77.272 24.8505 77.4434 25.1599C77.7175 25.6411 78.1972 25.8817 78.9169 25.8817C79.5337 25.8817 80.4246 25.7098 81.5554 25.3317L82.1722 31.2436C80.0477 31.6904 78.0944 31.931 76.244 31.931C74.1195 31.931 72.5432 31.6561 71.5495 31.1061C70.5557 30.5562 69.8019 29.7313 69.3221 28.597C68.8424 27.4971 68.6025 25.6754 68.6025 23.1663V15.3296H65.45V9.03963H68.6025V4.91505L77.2035 0.515503V9.03963V15.3296H77.1692Z" fill="#A41735"/>
<path d="M92.692 0.515503H84.1252V31.4498H92.692V0.515503Z" fill="#A7A9AB"/>
<path d="M104.891 9.03979H96.324V31.45H104.891V9.03979Z" fill="#A7A9AB"/>
<path d="M104.891 0.515503H96.324V6.39303H104.891V0.515503Z" fill="#A7A9AB"/>
<path d="M108.18 9.03986H116.164V12.6832C117.364 11.2053 118.563 10.1398 119.762 9.48669C120.996 8.83364 122.47 8.52429 124.217 8.52429C126.582 8.52429 128.432 9.24609 129.768 10.6553C131.105 12.0646 131.79 14.2643 131.79 17.2203V31.4844H123.223V19.1107C123.223 17.7015 122.949 16.7047 122.435 16.1204C121.921 15.5361 121.202 15.2267 120.242 15.2267C119.214 15.2267 118.358 15.6048 117.706 16.3954C117.055 17.1859 116.747 18.5951 116.747 20.6231V31.3813H108.146V9.03986H108.18Z" fill="#A7A9AB"/>
<path d="M142.516 18.3202C142.653 16.9797 142.996 15.9485 143.51 15.2611C144.332 14.1612 145.395 13.6113 146.765 13.6113C147.93 13.6113 148.89 13.9894 149.609 14.7112C150.329 15.433 150.775 16.636 150.946 18.3202H142.516ZM159.581 21.448C159.581 18.492 159.101 16.086 158.142 14.23C157.182 12.3739 155.778 10.9647 153.927 10.0023C152.077 9.03986 149.541 8.52429 146.354 8.52429C142.413 8.52429 139.329 9.62418 137.102 11.7896C134.875 13.955 133.744 16.8078 133.744 20.3137C133.744 22.7885 134.292 24.9195 135.423 26.7412C136.52 28.5629 137.924 29.9034 139.638 30.7283C141.317 31.5532 143.647 32 146.594 32C149.986 32 152.591 31.5188 154.407 30.522C156.223 29.5596 157.765 27.9442 159.067 25.6757L150.637 24.9195C150.123 25.6069 149.609 26.0537 149.164 26.3287C148.41 26.7412 147.622 26.9474 146.8 26.9474C145.463 26.9474 144.401 26.4662 143.579 25.5038C142.996 24.8164 142.619 23.8196 142.482 22.4447H159.581V21.448Z" fill="#A7A9AB"/>
<path d="M39.3724 3.5058C49.1385 4.57131 53.0792 5.39623 62.1942 7.87098C69.8014 9.93326 81.8976 9.03961 81.8976 9.03961V15.364C77.1688 16.017 66.8887 15.7764 58.322 12.6486C43.039 7.04606 36.0828 5.9118 27.9272 5.32749C16.8248 4.53694 3.63199 6.22114 3.63199 6.22114L3.49492 5.12126C3.46065 5.12126 22.5816 1.71848 39.3724 3.5058Z" fill="#A7A9AB"/>
<path d="M159.923 1.13434C162.048 1.13434 163.761 2.85291 163.761 4.98395C163.761 7.11498 162.048 8.83355 159.923 8.83355C157.799 8.83355 156.085 7.11498 156.085 4.98395C156.085 2.85291 157.799 1.13434 159.923 1.13434ZM159.923 7.97427C161.568 7.97427 162.905 6.63378 162.905 5.01832C162.905 3.36849 161.568 2.06237 159.923 2.06237C158.279 2.06237 156.976 3.40286 156.976 5.01832C156.942 6.63378 158.279 7.97427 159.923 7.97427ZM160.163 3.05914C161.02 3.05914 161.5 3.50597 161.5 4.12466C161.5 4.6746 161.088 4.94957 160.746 5.05269C160.986 5.12143 161.123 5.3964 161.157 5.46515L161.808 6.97749H160.78L160.266 5.74012C160.232 5.67138 160.129 5.43077 159.752 5.43077H159.444V6.97749H158.484V3.05914H160.163ZM159.409 4.6746H159.821C160.437 4.6746 160.506 4.36526 160.506 4.1934C160.506 3.78094 159.923 3.78094 159.821 3.78094H159.409V4.6746Z" fill="#A7A9AB"/>
</svg>
