<svg width="41" height="40" viewBox="0 0 41 40" fill="none" xmlns="http://www.w3.org/2000/svg">
<g clip-path="url(#clip0_1205_230)">
<path d="M6.99371 29.7673L13.5104 23.2507L18.2254 27.964L25.8437 20.3473L28.832 23.334V15.0007H20.4987L23.487 17.989L18.2254 23.2507L13.512 18.5357L5.26871 26.779C4.31859 24.6457 3.82905 22.336 3.83204 20.0007C3.83204 10.7957 11.2937 3.33398 20.4987 3.33398C29.7037 3.33398 37.1654 10.7957 37.1654 20.0007C37.1654 29.2057 29.7037 36.6673 20.4987 36.6673C17.862 36.669 15.2627 36.0444 12.9147 34.8447C10.5668 33.6451 8.53738 31.9049 6.99371 29.7673Z" fill="#0F5FFF"/>
</g>
<defs>
<clipPath id="clip0_1205_230">
<rect width="40" height="40" fill="white" transform="translate(0.5)"/>
</clipPath>
</defs>
</svg>
