<svg width="41" height="40" viewBox="0 0 41 40" fill="none" xmlns="http://www.w3.org/2000/svg">
<g clip-path="url(#clip0_1205_237)">
<path d="M16.0513 19.1673H19.668C21.6571 19.1673 23.5647 19.9575 24.9713 21.364C26.3778 22.7705 27.168 24.6782 27.168 26.6673H15.4996L15.5013 28.334H28.8346V26.6673C28.8294 24.8939 28.317 23.159 27.358 21.6673H32.168C33.7434 21.6669 35.2867 22.113 36.6189 22.9541C37.951 23.7951 39.0175 24.9965 39.6946 26.419C35.753 31.6206 29.3713 35.0007 22.168 35.0007C17.5663 35.0007 13.668 34.0173 10.5013 32.2923V16.7857C12.529 17.0761 14.4438 17.8978 16.0513 19.1673ZM8.83464 31.6673C8.83464 32.1093 8.65904 32.5333 8.34648 32.8458C8.03392 33.1584 7.61 33.334 7.16797 33.334H3.83464C3.39261 33.334 2.96868 33.1584 2.65612 32.8458C2.34356 32.5333 2.16797 32.1093 2.16797 31.6673V16.6673C2.16797 16.2253 2.34356 15.8014 2.65612 15.4888C2.96868 15.1762 3.39261 15.0007 3.83464 15.0007H7.16797C7.61 15.0007 8.03392 15.1762 8.34648 15.4888C8.65904 15.8014 8.83464 16.2253 8.83464 16.6673V31.6673ZM30.5013 8.33398C31.8274 8.33398 33.0992 8.86077 34.0368 9.79845C34.9745 10.7361 35.5013 12.0079 35.5013 13.334C35.5013 14.6601 34.9745 15.9318 34.0368 16.8695C33.0992 17.8072 31.8274 18.334 30.5013 18.334C29.1752 18.334 27.9035 17.8072 26.9658 16.8695C26.0281 15.9318 25.5013 14.6601 25.5013 13.334C25.5013 12.0079 26.0281 10.7361 26.9658 9.79845C27.9035 8.86077 29.1752 8.33398 30.5013 8.33398ZM18.8346 3.33398C20.1607 3.33398 21.4325 3.86077 22.3702 4.79845C23.3079 5.73613 23.8346 7.0079 23.8346 8.33398C23.8346 9.66007 23.3079 10.9318 22.3702 11.8695C21.4325 12.8072 20.1607 13.334 18.8346 13.334C17.5086 13.334 16.2368 12.8072 15.2991 11.8695C14.3614 10.9318 13.8346 9.66007 13.8346 8.33398C13.8346 7.0079 14.3614 5.73613 15.2991 4.79845C16.2368 3.86077 17.5086 3.33398 18.8346 3.33398Z" fill="#0F5FFF"/>
</g>
<defs>
<clipPath id="clip0_1205_237">
<rect width="40" height="40" fill="white" transform="translate(0.5)"/>
</clipPath>
</defs>
</svg>
