<svg width="97" height="40" viewBox="0 0 97 40" fill="none" xmlns="http://www.w3.org/2000/svg">
<g clip-path="url(#clip0_1205_363)">
<path d="M96.5928 14.4402C94.8219 14.4402 93.0511 14.4402 91.2802 14.4402C90.985 14.4402 90.9045 14.5186 90.9045 14.8064C90.9045 19.1753 90.9045 23.5442 90.9045 27.913C90.9045 28.3578 90.9045 28.3578 90.4752 28.3578C88.8653 28.3578 87.2554 28.3578 85.6455 28.3578C85.3235 28.3578 85.243 28.2531 85.243 27.9653C85.243 23.5703 85.243 19.2014 85.243 14.8064C85.243 14.5186 85.1894 14.414 84.8674 14.414C81.9427 14.414 79.0181 14.414 76.0934 14.414C75.7983 14.414 75.7178 14.4925 75.7178 14.7803C75.7446 15.5912 75.7446 16.4022 75.7178 17.1871C75.7178 17.4487 75.7983 17.501 76.0398 17.501C78.1595 17.501 80.2792 17.501 82.3721 17.501C82.694 17.501 82.8014 17.6056 82.7745 17.9196C82.7477 18.8614 82.7477 19.777 82.7745 20.7188C82.7745 21.0065 82.694 21.1112 82.3989 21.1112C80.306 21.085 78.1863 21.1112 76.0934 21.085C75.7715 21.085 75.7178 21.1635 75.7178 21.4774C75.7178 23.675 75.7178 25.8463 75.7178 28.0438C75.7178 28.3054 75.6373 28.3839 75.369 28.3839C73.7054 28.3839 72.0687 28.3839 70.4051 28.3839C70.1636 28.3839 70.0563 28.3054 70.0831 28.07C70.11 27.7822 70.0831 27.4944 70.0831 27.1805C70.0831 27.102 70.11 27.0236 70.0563 26.9712C69.9758 26.9189 69.8953 26.9974 69.8417 27.0497C69.0904 27.5729 68.2854 27.9653 67.4 28.227C65.9511 28.6455 64.4753 28.7502 62.9727 28.6455C62.0068 28.567 61.0945 28.4624 60.1554 28.2008C59.0285 27.8869 58.0089 27.3636 57.1503 26.5788C57.0429 26.4742 56.9624 26.3695 56.8015 26.5265C55.6477 27.6776 54.1988 28.2793 52.5621 28.4886C50.5228 28.7763 48.5105 28.6978 46.4981 28.227C44.2711 27.7037 42.9563 26.2649 42.2587 24.1982C42.0977 23.7534 42.0172 23.2825 41.9367 22.8378C41.883 22.55 42.0172 22.4716 42.2855 22.4454C42.6075 22.4192 42.9563 22.4192 43.2783 22.3931C44.4857 22.3146 45.72 22.2623 46.9274 22.1838C47.1689 22.1576 47.2494 22.2361 47.303 22.4716C47.464 23.3872 47.8128 24.2505 48.6983 24.7214C49.7447 25.2969 50.8448 25.3231 51.9181 24.8522C52.5621 24.5644 52.9377 24.0412 52.9377 23.3349C52.9109 22.5762 52.4279 22.0791 51.7303 21.7652C50.7912 21.3466 49.7716 21.1897 48.7788 20.9281C47.3299 20.5618 45.9346 20.1432 44.7004 19.3061C43.1978 18.312 42.4465 16.8993 42.6075 15.1203C42.7685 13.4199 43.6808 12.1903 45.1833 11.327C46.1761 10.7776 47.2494 10.5422 48.3495 10.4114C49.4496 10.2806 50.5228 10.2544 51.6229 10.3591C53.206 10.4899 54.7086 10.83 55.9697 11.8502C56.238 12.0595 56.4795 12.3211 56.6673 12.5827C56.7478 12.7135 56.8015 12.7135 56.9088 12.6089C58.5724 11.0654 60.6116 10.4375 62.8654 10.3329C64.3948 10.2544 65.8706 10.3852 67.3463 10.7776C68.2318 11.0392 69.0635 11.4317 69.8148 11.9549C69.8685 12.0072 69.949 12.0334 70.0563 12.1118C70.0563 11.6671 70.0563 11.2747 70.0563 10.8561C70.0563 10.6468 70.11 10.5684 70.3246 10.5945C70.3783 10.5945 70.4051 10.5945 70.4588 10.5945C79.0449 10.5945 87.6579 10.5945 96.244 10.5945C96.3514 10.5945 96.4318 10.5945 96.5392 10.5945C96.5928 11.9287 96.5928 13.1844 96.5928 14.4402ZM67.5341 19.4369C67.5341 19.0445 67.561 18.6521 67.5341 18.2858C67.5341 18.0504 67.4536 17.8149 67.4268 17.5795C67.1317 15.9313 66.1389 14.9111 64.5826 14.5971C62.6239 14.2047 60.7725 15.1465 60.2627 17.1871C59.9139 18.6259 59.9139 20.0909 60.1554 21.5298C60.3432 22.55 60.7725 23.4395 61.7117 24.015C62.4898 24.5121 63.3484 24.6168 64.2607 24.5383C65.6023 24.4075 66.5682 23.7796 67.078 22.55C67.5073 21.5559 67.5878 20.5095 67.5341 19.4369ZM49.6374 13.6815C49.4227 13.6815 49.0203 13.7077 48.6715 13.8908C48.1885 14.1262 47.8665 14.4663 47.8665 15.0157C47.8665 15.5651 48.1885 15.8529 48.6446 16.036C48.9129 16.1406 49.2081 16.2453 49.5032 16.3237C51.1131 16.7162 52.7499 17.0039 54.3061 17.5795C54.4939 17.658 54.5476 17.6056 54.5744 17.4225C54.6281 16.9778 54.7354 16.533 54.8696 16.1145C54.9501 15.879 54.9232 15.8005 54.6549 15.8267C54.0378 15.879 53.4475 15.9052 52.8304 15.9575C52.6425 15.9837 52.5352 15.9052 52.5084 15.722C52.4547 15.382 52.3206 15.068 52.1327 14.7541C51.5693 13.9169 50.7643 13.6815 49.6374 13.6815Z" fill="#9FB2BD"/>
<path d="M41.0787 0C41.0787 2.93002 41.0787 5.83388 41.0787 8.7639C41.0787 9.02551 40.9982 9.07783 40.7299 9.07783C39.12 9.07783 37.4833 9.07783 35.8734 9.07783C35.6319 9.07783 35.4977 8.99935 35.3636 8.84238C33.217 6.12165 30.4802 4.13342 27.1799 2.90386C24.5236 1.90975 21.7331 1.54349 18.8889 1.8051C15.1325 2.14519 11.7785 3.45324 8.85386 5.7554C5.20475 8.63309 2.92406 12.2956 2.14594 16.7953C1.15317 22.603 2.65574 27.7567 6.68049 32.1517C9.52465 35.2649 13.0933 37.2008 17.3327 37.9071C24.7382 39.1367 31.7949 36.2067 36.0612 30.242C36.1685 30.085 36.2758 30.0065 36.4637 30.0065C37.9126 30.0065 39.3883 30.0065 40.8372 30.0065C41.0519 30.0065 41.1055 30.0589 41.1055 30.2681C41.1055 33.4598 41.1055 36.6514 41.1055 39.843C41.1055 39.8692 41.1055 39.8954 41.1055 39.9477C27.5824 39.9477 14.0592 39.9477 0.509206 39.9477C0.0262356 39.9477 0.079899 40 0.079899 39.5291C0.079899 26.4748 0.079899 13.4205 0.079899 0.366252C0.079899 0.261609 0.079899 0.130804 0.079899 0.0261609C13.7372 0 27.4214 0 41.0787 0Z" fill="#FF3339"/>
<path d="M0.0795654 0C0.0795654 0.104644 0.0795654 0.235448 0.0795654 0.340092C0.0795654 13.3944 0.0795654 26.4487 0.0795654 39.5029C0.0795654 39.9738 0.0259021 39.9215 0.508872 39.9215C14.032 39.9215 27.5552 39.9215 41.1052 39.9215C41.1052 39.9477 41.1052 39.9477 41.1052 39.9738C27.5015 39.9738 13.9247 39.9738 0.321051 39.9738C0.0795654 39.9738 0.0259021 39.9215 0.0259021 39.6861C0.0259021 26.5533 0.0259021 13.4205 0.0259021 0.261609C0.0259021 0.183126 -0.054593 0.0784827 0.0795654 0Z" fill="#AFAFAF"/>
<path d="M37.1604 26.4748C36.5164 27.1812 35.792 27.6782 34.9065 27.9137C33.9942 28.1491 33.0551 28.2014 32.116 28.3322C31.1501 28.4369 30.1573 28.3846 29.1914 28.3846C26.2399 28.3846 23.2616 28.3846 20.3101 28.3846C20.0686 28.3846 19.9613 28.3061 19.9076 28.0706C19.6929 27.2858 19.4246 26.501 19.21 25.7161C19.1563 25.4807 19.049 25.4284 18.8075 25.4284C16.8756 25.4284 14.9437 25.4284 13.0119 25.4284C12.7972 25.4284 12.6899 25.4807 12.6362 25.69C12.4216 26.501 12.1532 27.2858 11.9118 28.0968C11.8581 28.3061 11.7776 28.3584 11.5629 28.3584C9.87255 28.3584 8.18215 28.3584 6.46493 28.3584C6.08928 28.3584 6.08928 28.3584 6.22344 28.0183C8.10166 23.1262 10.0067 18.208 11.9118 13.3159C12.2069 12.5311 12.5289 11.7462 12.824 10.9352C12.9045 10.726 12.985 10.6475 13.2265 10.6475C15.0511 10.6475 16.9025 10.6475 18.727 10.6475C18.9685 10.6475 19.0758 10.6998 19.1563 10.9352C19.8808 12.845 20.6052 14.7286 21.3297 16.6122C21.3565 16.7168 21.4102 16.7953 21.4907 16.8999C21.4907 16.8214 21.4907 16.743 21.4907 16.6645C21.4907 14.7547 21.4907 12.845 21.4907 10.9614C21.4907 10.6998 21.5712 10.6475 21.8126 10.6475C25.1934 10.6475 28.5474 10.6475 31.9282 10.6475C33.1893 10.6475 34.4235 10.8306 35.5236 11.5369C36.2481 12.0078 36.7579 12.6095 37.1604 13.3682C37.1604 12.845 37.1604 12.2956 37.1604 11.7724C37.1604 11.4061 36.9994 10.9352 37.214 10.726C37.4287 10.5167 37.9117 10.6736 38.2605 10.6736C39.0923 10.6736 39.924 10.6736 40.729 10.6736C40.9705 10.6736 41.0241 10.7521 41.0241 10.9614C41.0241 16.6645 41.0241 22.3676 41.0241 28.0706C41.0241 28.3322 40.9436 28.3846 40.7022 28.3846C39.6021 28.3584 38.502 28.3846 37.375 28.3846C37.1604 28.3846 37.1067 28.3322 37.1067 28.1229C37.1872 27.5997 37.1604 27.0765 37.1604 26.4748ZM29.0035 24.5651C29.0035 24.5651 29.0035 24.5389 29.0035 24.5651C29.5402 24.5389 30.05 24.5389 30.5866 24.5389C30.8818 24.5389 31.1501 24.4866 31.4452 24.3819C32.2502 24.1203 32.6795 23.5186 32.6795 22.6553C32.6526 21.8967 32.1965 21.3734 31.3916 21.138C31.1769 21.0857 30.9623 21.0333 30.7208 21.0333C29.6207 20.9549 28.5206 21.0072 27.4205 20.981C27.2326 20.981 27.179 21.0333 27.179 21.2165C27.179 22.2629 27.179 23.3093 27.179 24.3558C27.179 24.5389 27.2326 24.5912 27.4205 24.5912C27.9303 24.5651 28.4669 24.5651 29.0035 24.5651ZM27.179 15.932C27.179 16.429 27.179 16.9261 27.179 17.397C27.179 17.5539 27.2058 17.6324 27.3936 17.6324C28.3864 17.6063 29.3792 17.6586 30.3451 17.5801C31.2306 17.5016 31.7404 17.0831 31.9014 16.3767C32.1428 15.1995 31.5525 14.4408 30.3451 14.31C29.3524 14.2054 28.3864 14.2838 27.3936 14.2577C27.2058 14.2577 27.179 14.3362 27.179 14.4931C27.179 14.964 27.179 15.4349 27.179 15.932ZM15.9365 15.3826C15.9097 15.3826 15.8828 15.3826 15.856 15.3826C15.2389 17.397 14.5949 19.4114 13.951 21.4258C13.8705 21.6612 14.0046 21.635 14.1388 21.635C15.2926 21.635 16.4463 21.635 17.5732 21.635C17.8416 21.635 17.8684 21.5827 17.7879 21.3473C17.3854 20.1177 16.9829 18.862 16.6073 17.6063C16.4195 16.8738 16.178 16.1151 15.9365 15.3826ZM37.1604 16.743C36.6237 17.8417 35.7383 18.5219 34.5845 18.9405C35.5505 19.2021 36.4091 19.5945 37.1604 20.2747C37.1604 19.0713 37.1604 17.9202 37.1604 16.743Z" fill="#FF3339"/>
<path d="M37.161 16.743C37.161 17.8941 37.161 19.0713 37.161 20.2747C36.4366 19.5684 35.5511 19.2021 34.5852 18.9405C35.739 18.5219 36.6244 17.8417 37.161 16.743Z" fill="white"/>
</g>
<defs>
<clipPath id="clip0_1205_363">
<rect width="96.5941" height="40" fill="white"/>
</clipPath>
</defs>
</svg>
