<svg width="20" height="20" viewBox="0 0 20 20" fill="none" xmlns="http://www.w3.org/2000/svg">
<g clip-path="url(#clip0_1205_784)">
<path d="M9.99935 18.3327C5.39685 18.3327 1.66602 14.6018 1.66602 9.99935C1.66602 5.39685 5.39685 1.66602 9.99935 1.66602C14.6018 1.66602 18.3327 5.39685 18.3327 9.99935C18.3327 14.6018 14.6018 18.3327 9.99935 18.3327ZM8.09102 16.3885C7.26886 14.6446 6.79258 12.7579 6.68852 10.8327H3.38435C3.5465 12.1151 4.07762 13.3228 4.91316 14.3091C5.74869 15.2954 6.85269 16.0178 8.09102 16.3885ZM8.35768 10.8327C8.48352 12.8652 9.06435 14.7743 9.99935 16.4593C10.9596 14.7298 11.5206 12.8072 11.641 10.8327H8.35768ZM16.6143 10.8327H13.3102C13.2061 12.7579 12.7298 14.6446 11.9077 16.3885C13.146 16.0178 14.25 15.2954 15.0855 14.3091C15.9211 13.3228 16.4522 12.1151 16.6143 10.8327ZM3.38435 9.16602H6.68852C6.79258 7.24084 7.26886 5.35409 8.09102 3.61018C6.85269 3.98092 5.74869 4.70331 4.91316 5.68959C4.07762 6.67588 3.5465 7.8836 3.38435 9.16602ZM8.35852 9.16602H11.6402C11.52 7.19151 10.9593 5.26896 9.99935 3.53935C9.03908 5.26889 8.47815 7.19145 8.35768 9.16602H8.35852ZM11.9077 3.61018C12.7298 5.35409 13.2061 7.24084 13.3102 9.16602H16.6143C16.4522 7.8836 15.9211 6.67588 15.0855 5.68959C14.25 4.70331 13.146 3.98092 11.9077 3.61018Z" fill="#0F5FFF"/>
</g>
<defs>
<clipPath id="clip0_1205_784">
<rect width="20" height="20" fill="white"/>
</clipPath>
</defs>
</svg>
