<svg width="40" height="40" viewBox="0 0 40 40" fill="none" xmlns="http://www.w3.org/2000/svg">
<g clip-path="url(#clip0_1205_215)">
<path d="M28.3346 25.408V36.8613C28.3347 37.0087 28.2956 37.1536 28.2214 37.281C28.1471 37.4084 28.0404 37.5138 27.9122 37.5865C27.7839 37.6592 27.6386 37.6965 27.4912 37.6947C27.3438 37.693 27.1994 37.6521 27.073 37.5763L20.0013 33.333L12.9296 37.5763C12.803 37.6522 12.6586 37.693 12.511 37.6948C12.3634 37.6965 12.218 37.659 12.0897 37.5861C11.9614 37.5132 11.8547 37.4075 11.7806 37.2799C11.7065 37.1522 11.6676 37.0072 11.668 36.8596V25.4096C9.51155 23.6831 7.94462 21.3294 7.18373 18.6739C6.42284 16.0183 6.50556 13.1919 7.42045 10.5854C8.33535 7.97889 10.0372 5.72088 12.2909 4.12343C14.5446 2.52598 17.2389 1.66797 20.0013 1.66797C22.7637 1.66797 25.458 2.52598 27.7117 4.12343C29.9654 5.72088 31.6673 7.97889 32.5822 10.5854C33.497 13.1919 33.5798 16.0183 32.8189 18.6739C32.058 21.3294 30.4911 23.6831 28.3346 25.4096V25.408ZM20.0013 24.9996C22.6535 24.9996 25.197 23.9461 27.0724 22.0707C28.9477 20.1953 30.0013 17.6518 30.0013 14.9996C30.0013 12.3475 28.9477 9.80393 27.0724 7.92856C25.197 6.0532 22.6535 4.99963 20.0013 4.99963C17.3491 4.99963 14.8056 6.0532 12.9302 7.92856C11.0549 9.80393 10.0013 12.3475 10.0013 14.9996C10.0013 17.6518 11.0549 20.1953 12.9302 22.0707C14.8056 23.9461 17.3491 24.9996 20.0013 24.9996ZM20.0013 21.6663C18.2332 21.6663 16.5375 20.9639 15.2873 19.7137C14.037 18.4634 13.3346 16.7677 13.3346 14.9996C13.3346 13.2315 14.037 11.5358 15.2873 10.2856C16.5375 9.03534 18.2332 8.33297 20.0013 8.33297C21.7694 8.33297 23.4651 9.03534 24.7153 10.2856C25.9656 11.5358 26.668 13.2315 26.668 14.9996C26.668 16.7677 25.9656 18.4634 24.7153 19.7137C23.4651 20.9639 21.7694 21.6663 20.0013 21.6663Z" fill="#0F5FFF"/>
</g>
<defs>
<clipPath id="clip0_1205_215">
<rect width="40" height="40" fill="white"/>
</clipPath>
</defs>
</svg>
