<svg width="198" height="40" viewBox="0 0 198 40" fill="none" xmlns="http://www.w3.org/2000/svg">
<g clip-path="url(#clip0_1205_308)">
<path d="M72.2086 35.2557C71.643 36.0413 71.0146 36.7954 70.2605 37.4553C68.3438 39.1521 66.1128 40.0319 63.5991 39.6862C61.0225 39.3406 59.0429 38.0209 58.006 35.4129C56.6234 31.8936 57.1576 28.5 58.4773 25.1693C59.5142 22.5927 61.2738 20.5503 63.6305 19.0107C66.5213 17.1253 69.6949 16.4655 73.0256 16.654C75.0052 16.7483 76.9848 17.1253 78.8701 17.7852C79.7813 18.0994 79.8442 18.1623 79.687 19.0735C79.2471 22.1214 78.9329 25.1693 78.3359 28.1858C78.0531 29.6627 77.7703 31.1709 77.8332 32.7106C77.896 34.5959 78.9958 35.35 80.7868 34.753C81.4781 34.5016 82.1065 34.0931 82.5778 33.5275C83.9918 31.925 84.746 30.0083 85.0602 27.903C85.4058 25.4836 85.4372 23.0641 84.8088 20.676C84.0233 17.7538 82.5464 15.3029 80.0641 13.449C77.079 11.2495 73.6855 10.4639 70.0405 10.4953C65.9557 10.5268 62.2793 11.9093 59.1372 14.4231C56.9376 16.1827 55.2723 18.4451 54.1411 21.1159C52.0987 25.9235 52.0358 30.7938 53.2927 35.7585C53.6069 36.9211 54.3296 37.9266 54.7381 39.1521C54.5181 39.372 54.2039 39.2777 53.9211 39.2777C52.5386 39.2777 51.156 39.2463 49.742 39.3092C49.1136 39.3406 48.8308 39.0578 48.6108 38.5236C47.0397 34.8787 46.8198 31.0766 47.2283 27.1803C47.4797 24.7294 48.2024 22.4356 49.1764 20.2047C50.3076 17.6595 51.7844 15.3657 53.764 13.3547C56.4663 10.621 59.5771 8.67287 63.2534 7.44742C67.841 5.90775 72.46 5.78206 77.079 7.00751C80.6611 7.95016 83.8033 9.83548 86.2228 12.632C87.731 14.3602 88.8308 16.3712 89.5849 18.6022C90.6218 21.6815 90.8104 24.7923 90.3076 27.9659C89.8363 31.0452 88.7365 33.936 86.537 36.2298C85.2487 37.581 83.7405 38.6493 81.8551 39.1521C80.504 39.4977 79.1843 39.9376 77.7703 39.8119C77.3304 39.7805 76.9219 39.7176 76.482 39.592C74.691 39.1206 73.3713 38.1466 72.7428 36.3241C72.68 35.947 72.6171 35.5385 72.2086 35.2557ZM70.8575 22.2785C69.6949 22.2157 68.7522 22.7499 67.841 23.3469C66.1128 24.4466 65.3901 26.2063 64.8245 28.0287C64.4474 29.2856 64.416 30.6053 64.7617 31.8936C65.233 33.559 66.9926 34.0617 68.1238 33.5904C69.7263 32.9305 70.5433 31.5794 71.046 30.134C71.863 27.8402 71.8316 25.3579 72.1772 22.9698C72.2401 22.4985 71.9887 22.3414 71.5802 22.3099C71.3917 22.3099 71.1089 22.2785 70.8575 22.2785Z" fill="#115D9F"/>
<path d="M197.519 39.5297C195.602 39.5297 193.623 39.5297 191.643 39.5297C191.329 39.5297 191.203 39.3097 191.046 39.0898C190.606 38.4613 190.418 37.77 190.166 37.0788C188.878 33.7795 187.558 30.4802 186.239 27.1809C185.924 26.4267 185.83 25.5784 185.296 24.8871C184.793 25.1385 184.762 25.6412 184.605 26.0811C183.473 29.0662 182.342 32.0513 181.054 35.0049C180.551 36.1989 180.111 37.4244 179.703 38.6498C179.483 39.3725 179.012 39.5297 178.32 39.5297C175.838 39.4982 173.387 39.4982 170.905 39.5297C170.182 39.5297 169.773 39.2783 169.522 38.6184C169.145 37.5501 168.705 36.5132 168.36 35.4448C168.14 34.785 167.825 34.4707 167.071 34.5022C165.029 34.565 162.986 34.565 160.944 34.5022C160.158 34.4707 159.781 34.7535 159.53 35.4762C159.121 36.6703 158.744 37.8643 158.116 38.9641C157.896 39.3725 157.676 39.5297 157.236 39.5297C155.382 39.5297 153.528 39.5297 151.549 39.5297C151.612 38.5242 152.052 37.7072 152.397 36.9531C152.711 36.2932 152.994 35.6333 153.277 34.9421C154.22 32.6483 155.1 30.3545 156.074 28.0921C157.268 25.3584 158.399 22.6247 159.561 19.8596C160.693 17.1573 164.118 16.089 166.537 17.6915C167.417 18.2571 167.982 19.1683 168.391 20.1424C170.025 24.133 171.659 28.1549 173.356 32.1141C173.701 32.9311 174.11 33.748 174.55 34.7535C175.021 33.7795 175.461 32.9939 175.806 32.1455C177.315 28.5634 178.823 24.9813 180.3 21.3678C180.677 20.4566 180.96 19.5139 181.557 18.6656C182.059 17.9429 182.688 17.5029 183.505 17.2516C184.667 16.9374 185.83 16.9688 186.961 17.283C188.155 17.5972 188.878 18.4456 189.318 19.5454C190.261 21.7763 191.172 24.0073 192.083 26.2382C192.9 28.155 193.717 30.0403 194.534 31.957C194.911 32.8368 195.257 33.7166 195.602 34.5964C196.168 35.9476 196.765 37.2987 197.33 38.6498C197.519 38.9012 197.739 39.1212 197.519 39.5297ZM165.909 29.349C165.312 27.7779 164.777 26.3639 164.243 24.9499C164.212 24.8557 164.055 24.7928 163.866 24.6357C163.238 26.2382 162.641 27.7465 162.044 29.349C163.332 29.349 164.526 29.349 165.909 29.349Z" fill="#115D9F"/>
<path d="M0.56622 24.4468C-0.250748 21.3046 -0.187904 18.3196 0.597642 15.2402C0.880438 15.6487 1.22608 15.9944 1.50887 16.3714C2.13731 17.1255 2.86001 17.7854 3.58272 18.4138C4.08546 18.8537 4.61964 19.1994 5.15381 19.5764C5.90793 20.142 6.78774 20.4563 7.63613 20.7705C8.89301 21.2418 10.1813 21.3361 11.4696 21.1475C11.6895 21.1161 11.8467 21.179 12.0352 21.2732C13.732 22.3416 15.2088 23.6299 16.4342 25.2324C17.1255 26.1436 17.5026 27.212 17.8168 28.2803C18.0053 28.9402 18.0053 29.6314 17.8797 30.2913C17.5026 32.0823 16.6856 33.5906 15.4602 34.9417C14.6432 35.8215 13.7948 36.6385 12.7579 37.2984C11.2811 38.241 9.67855 38.5867 7.95035 38.5238C6.22215 38.4296 4.65106 37.864 3.33134 36.7328C1.57172 35.1931 0.314845 33.3078 0.534798 30.7626C0.660485 29.223 1.38319 27.9661 2.45153 26.8663C3.01712 26.2693 3.7084 25.798 4.39968 25.3581C5.05954 24.9496 5.78224 24.7925 6.56779 24.8553C6.85059 24.8867 7.10196 24.9496 7.32191 25.1381C7.63613 25.3895 7.66755 25.6409 7.4476 25.9865C7.29049 26.175 7.16481 26.395 6.94485 26.5521C6.22215 27.1177 5.46803 27.6519 4.7139 28.2175C3.77125 28.8773 2.89144 29.5372 1.9802 30.197C1.69741 30.3856 1.66598 30.6369 1.76025 30.9197C1.91736 31.2968 2.07447 31.6739 2.29442 31.9881C2.86001 32.805 3.45703 33.622 4.21115 34.2819C5.31092 35.2245 6.53637 35.9472 8.0132 36.1043C9.49002 36.2929 10.9354 36.1358 12.2551 35.4131C13.4806 34.7532 14.5489 33.9048 15.2088 32.6165C16.0886 30.8883 15.5859 28.9716 14.109 27.9347C13.2921 27.3691 12.4437 27.0234 11.4382 27.0234C11.2182 27.0234 10.9983 27.0234 10.7469 27.0234C10.8097 26.8035 10.8726 26.5835 10.904 26.395C11.0925 25.3581 10.7783 24.4468 9.99277 23.7556C7.60471 21.6189 4.61964 21.4618 1.94878 23.3156C1.47745 23.6927 0.943282 23.9127 0.56622 24.4468Z" fill="#C42121"/>
<path d="M29.3489 12.8525C28.9719 13.8894 29.0347 14.8949 29.6946 15.7433C30.2916 16.4974 31.0771 17.0316 31.957 17.4401C33.1196 17.9429 34.2822 18.0685 35.4762 17.7543C36.4817 17.4715 37.4872 17.1259 38.3042 16.4346C38.6498 16.1518 39.0269 15.9004 39.4668 15.5862C40.2837 18.6341 40.1895 21.5878 39.4039 24.6671C39.0583 24.2901 38.8069 23.9444 38.5555 23.5988C37.2044 21.9648 35.5705 20.6451 33.6852 19.6711C32.2398 18.9169 30.6372 18.6341 29.0033 18.7912C28.5006 18.8541 28.0607 18.7598 27.6207 18.4456C25.9554 17.3144 24.4471 15.9947 23.316 14.3293C22.4361 13.0096 21.902 11.5328 22.0905 9.93028C22.2162 8.70483 22.6561 7.54223 23.3474 6.5053C24.1643 5.24843 25.1698 4.08582 26.3639 3.20601C28.909 1.3207 31.7684 0.78653 34.7535 2.01198C36.7017 2.79753 38.1471 4.24293 39.0269 6.15966C39.8753 8.04497 39.8124 9.93029 38.6812 11.7528C37.99 12.8839 37.0159 13.7637 35.9475 14.4865C35.2563 14.9264 34.5021 15.1777 33.6537 15.0835C33.4966 15.052 33.3081 15.052 33.151 14.9892C32.4597 14.7378 32.334 14.2665 32.8682 13.7323C33.151 13.4495 33.4652 13.1982 33.7794 12.9468C35.0677 12.0041 36.356 11.0615 37.6443 10.0874C38.5555 9.39611 38.6812 9.5218 38.0842 8.42204C37.173 6.7881 35.979 5.40554 34.2508 4.49431C32.3969 3.52023 30.543 3.45739 28.6577 4.14867C27.1494 4.68284 25.8925 5.65691 25.0442 7.0709C24.2272 8.42204 24.2272 9.8046 25.1384 11.0929C25.8297 12.0355 26.8038 12.6954 28.0292 12.7897C28.4063 12.8211 28.8462 12.8525 29.3489 12.8525Z" fill="#C42121"/>
<path d="M27.1173 29.3176C26.1433 28.9719 25.2949 29.0033 24.4779 29.5061C23.9123 29.8832 23.441 30.3859 23.0639 30.9515C21.7756 32.8997 21.8071 34.9106 22.7497 36.9845C23.1582 37.8957 23.7866 38.6184 24.4151 39.5297C21.3671 40.2524 18.3821 40.2209 15.3027 39.4354C15.8055 39.0583 16.214 38.7441 16.591 38.3985C18.0679 37.1416 19.2933 35.6334 20.1731 33.9051C21.0215 32.2712 21.5243 30.5116 21.21 28.5949C21.1786 28.3435 21.21 28.1235 21.3671 27.8722C22.5298 26.0811 23.8809 24.51 25.6719 23.316C27.7458 21.9334 29.9139 21.7449 32.1763 22.6247C33.1818 23.0018 34.0616 23.6616 34.8785 24.3843C35.4127 24.8557 35.9155 25.327 36.3868 25.8612C38.5863 28.4063 39.1833 31.2657 38.115 34.4079C37.6122 35.9161 36.5753 37.1102 35.287 38.1157C34.1873 38.9641 32.9932 39.4354 31.6107 39.4982C29.9453 39.5611 28.4999 38.9955 27.2745 37.8957C26.3318 37.0473 25.4834 36.0733 25.0749 34.8164C24.9178 34.3136 24.8864 33.8423 24.9492 33.3396C24.9807 33.151 25.0435 32.9625 25.1692 32.774C25.452 32.3655 25.7348 32.3341 26.1118 32.6169C26.6146 33.0253 26.9602 33.5281 27.3373 34.0308C28.3114 35.3506 29.2855 36.6389 30.2281 37.9586C30.4795 38.3042 30.7309 38.3671 31.0765 38.2099C31.485 38.0214 31.9249 37.8643 32.2705 37.6129C33.5588 36.7017 34.7529 35.6648 35.507 34.2194C36.2611 32.774 36.4811 31.2029 36.1354 29.6004C35.6955 27.5265 34.5957 25.8926 32.7419 24.8557C31.3279 24.0701 29.851 24.2272 28.7199 25.1699C27.7144 26.0183 27.1173 27.1495 27.1173 28.532C27.1173 28.752 27.1173 28.9719 27.1173 29.3176Z" fill="#115D9F"/>
<path d="M12.8833 10.6216C14.0144 10.9986 15.0514 10.9044 15.8998 10.2131C16.6539 9.58464 17.2195 8.7991 17.5651 7.85644C18.4135 5.62549 17.7851 3.64592 16.5282 1.76061C16.2454 1.35212 15.9626 0.943639 15.617 0.503733C18.6649 -0.187547 21.65 -0.124704 24.7293 0.566577C23.661 1.28928 22.8126 2.10625 22.027 2.95464C21.3672 3.67734 20.7701 4.49431 20.236 5.3427C19.4818 6.47388 19.1362 7.76218 18.822 9.05047C18.6335 9.77318 18.6963 10.5587 18.7591 11.3128C18.7906 11.6585 18.7277 11.9413 18.5706 12.2241C18.0364 13.0725 17.408 13.858 16.7481 14.6121C16.1511 15.3034 15.4284 15.9319 14.6743 16.466C12.9775 17.6601 11.1551 18.3199 9.08122 17.7857C8.0443 17.5029 7.07022 17.0945 6.15899 16.4346C5.53055 15.9633 4.93354 15.4919 4.36795 14.9578C1.75993 12.444 0.50306 9.01905 2.04273 5.21701C2.79685 3.48881 4.08515 2.16909 5.75051 1.25786C7.10165 0.503733 8.45278 0.28378 9.96103 0.597999C11.1236 0.849373 12.0663 1.47781 12.9461 2.23193C13.5431 2.76611 14.0459 3.39454 14.4858 4.08582C14.9257 4.74568 15.1771 5.46838 15.1456 6.28535C15.1456 6.5053 15.1142 6.72526 15.0199 6.94521C14.7372 7.60507 14.3287 7.73076 13.8259 7.25943C13.5431 7.00805 13.2917 6.72526 13.0718 6.44246C11.972 4.93421 10.8723 3.45739 9.7725 1.98056C9.58397 1.69776 9.39544 1.66634 9.0498 1.76061C8.51563 1.91772 8.07572 2.26336 7.60439 2.57757C6.19041 3.45739 5.05923 4.61999 4.36795 6.15966C3.42529 8.26493 3.48813 10.4016 4.61932 12.444C5.0278 13.1982 5.56198 13.858 6.19041 14.455C6.94454 15.1149 7.82435 15.5862 8.79842 15.6805C10.0239 15.8062 10.9665 15.2406 11.7835 14.3608C12.7262 13.2924 13.009 12.067 12.8833 10.6216Z" fill="#115D9F"/>
<path d="M134.58 29.695C134.58 26.8041 134.549 23.8819 134.58 20.9911C134.612 19.1686 135.429 18.006 136.968 17.5033C137.502 17.3462 138.068 17.2833 138.634 17.2833C142.059 17.2519 145.484 17.2519 148.909 17.2833C151.14 17.3148 152.993 18.0689 153.968 20.237C154.282 20.9283 154.533 21.7138 154.659 22.4679C155.099 24.7617 154.91 27.0555 154.03 29.2236C153.119 31.4546 151.36 32.4287 149.034 32.4915C146.898 32.5543 144.792 32.4915 142.656 32.4915C142.31 32.4915 141.964 32.4915 141.619 32.4915C140.676 32.5229 140.676 32.5229 140.645 33.4342C140.645 34.6596 140.645 35.8536 140.645 37.0791C140.645 37.519 140.645 37.9589 140.645 38.3674C140.645 39.4986 140.645 39.4986 139.482 39.4986C138.194 39.4986 136.874 39.4986 135.586 39.4986C134.549 39.4986 134.549 39.4671 134.549 38.3988C134.58 35.508 134.58 32.6172 134.58 29.695ZM144.227 27.0869C144.761 27.0869 145.264 27.0869 145.798 27.0869C148.469 27.0869 148.72 26.8041 148.469 24.1019C148.374 23.0964 148.123 22.7507 147.118 22.7193C145.169 22.6565 143.221 22.6879 141.273 22.6879C140.833 22.6879 140.676 22.9078 140.676 23.3163C140.676 24.3532 140.708 25.3902 140.676 26.4271C140.676 26.9298 140.896 27.1184 141.367 27.0869C142.341 27.0555 143.284 27.0555 144.227 27.0869Z" fill="#115D9F"/>
<path d="M107.902 39.5289C106.268 39.5289 104.603 39.5289 102.969 39.5289C101.806 39.5289 100.612 39.466 99.4812 39.2146C97.0931 38.7433 95.3335 37.4864 94.1081 35.3183C93.134 33.5901 92.914 31.7362 92.7884 29.8195C92.6941 28.1856 92.7884 26.5202 93.0083 24.8863C93.3854 22.1212 94.6737 19.8902 97.0617 18.4134C98.1615 17.7221 99.4498 17.4393 100.77 17.3136C103.283 17.1251 105.797 17.2508 108.311 17.2194C109.191 17.2194 110.039 17.2194 110.919 17.2194C111.453 17.2194 111.704 17.3765 111.704 17.9735C111.673 19.2618 111.673 20.5815 111.704 21.8698C111.736 22.5611 111.422 22.6553 110.856 22.6553C109.002 22.6239 107.117 22.6553 105.263 22.6553C104.352 22.6553 103.44 22.6868 102.529 22.7496C100.267 22.9381 99.8897 23.6294 99.2927 25.8289C98.8528 27.4943 98.947 29.2539 99.2298 30.9821C99.544 32.9303 100.55 33.8415 102.529 34.0615C104.289 34.25 106.08 34.1243 107.871 34.1557C110.165 34.1871 112.458 34.1871 114.752 34.1557C115.412 34.1557 115.695 34.3443 115.663 35.0355C115.601 36.1667 115.663 37.2979 115.632 38.4291C115.632 39.4974 115.601 39.5289 114.564 39.5289C112.333 39.5289 110.102 39.5289 107.902 39.5289Z" fill="#115D9F"/>
<path d="M132.884 22.5622C132.067 22.7508 131.313 22.6565 130.59 22.6565C129.585 22.6879 128.611 22.6565 127.605 22.6565C126.254 22.6565 126.317 22.5308 126.317 23.882C126.317 24.1019 126.317 24.3219 126.317 24.5418C126.317 28.9723 126.317 33.3714 126.317 37.8018C126.317 38.1161 126.285 38.3988 126.317 38.7131C126.38 39.3729 126.034 39.53 125.469 39.4986C123.96 39.4672 122.421 39.4672 120.912 39.4986C120.19 39.53 120.033 39.2158 120.033 38.5874C120.064 36.6706 120.033 34.7853 120.033 32.8686C120.033 29.915 120.033 26.9613 120.033 24.0391C120.033 22.6565 120.033 22.6565 118.587 22.6565C117.142 22.6565 115.728 22.6565 114.282 22.6565C113.371 22.6565 113.371 22.6251 113.371 21.7139C113.371 20.5512 113.371 19.3886 113.371 18.1946C113.371 17.2834 113.403 17.2834 114.345 17.252C116.953 17.252 119.561 17.252 122.138 17.252C125.343 17.252 128.548 17.252 131.753 17.252C132.853 17.252 132.853 17.252 132.884 18.4146C132.884 19.7971 132.884 21.1797 132.884 22.5622Z" fill="#115D9F"/>
<path d="M19.9229 25.045C18.6347 22.9084 16.9379 21.3373 15.084 19.9861C15.1154 19.7662 15.2725 19.7033 15.3982 19.6091C17.1578 18.5407 18.5404 17.0639 19.7344 15.3985C20.0801 14.9272 20.1115 14.9272 20.3943 15.3671C21.4312 17.0325 22.8138 18.3522 24.3534 19.5462C24.5734 19.7033 24.7933 19.8604 24.9504 20.1118C22.9394 21.3687 21.3684 23.034 19.9229 25.045Z" fill="#115D9F"/>
<path d="M33.7166 8.16981C32.8996 8.79824 32.1455 9.42668 31.2971 9.99227C30.7629 10.3693 30.1031 10.495 29.4118 10.4008C28.5948 10.2751 28.2492 9.55237 28.752 8.92393C29.6003 7.85559 30.6687 7.16431 32.1141 7.25857C32.7425 7.29 33.2767 7.60421 33.7166 8.16981Z" fill="#C42121"/>
<path d="M10.4643 10.3071C10.4643 10.6213 10.4015 10.9984 10.0873 11.2498C9.74164 11.5325 9.14463 11.5325 8.76757 11.1555C7.82491 10.2757 7.16505 9.23875 7.29074 7.85619C7.35358 7.32202 7.54212 6.85069 7.9506 6.47363C8.10771 6.31652 8.2334 6.2851 8.39051 6.47363C8.92468 7.22776 9.49027 7.98188 10.0244 8.736C10.3387 9.17591 10.4643 9.67866 10.4643 10.3071Z" fill="#115D9F"/>
<path d="M31.7995 33.622C31.0768 32.805 30.4169 31.9252 29.8513 30.9825C29.5686 30.5112 29.4743 29.9456 29.5686 29.38C29.6942 28.563 30.3541 28.2803 31.0454 28.7202C32.1766 29.4743 32.9621 30.9825 32.6479 32.3337C32.5536 32.8678 32.3651 33.3706 31.7995 33.622Z" fill="#115D9F"/>
<path d="M8.39108 32.679C7.60554 32.679 7.07137 32.4904 6.60004 32.1134C6.41151 31.9562 6.2544 31.7363 6.53719 31.5792C7.44843 31.0136 8.20255 30.1966 9.17663 29.7567C9.64796 29.5368 10.0879 29.4739 10.5592 29.5368C11.3447 29.631 11.7846 30.448 11.3133 31.0136C10.5278 32.0191 9.55369 32.679 8.39108 32.679Z" fill="#C42121"/>
</g>
<defs>
<clipPath id="clip0_1205_308">
<rect width="197.612" height="40" fill="white"/>
</clipPath>
</defs>
</svg>
