<svg width="61" height="40" viewBox="0 0 61 40" fill="none" xmlns="http://www.w3.org/2000/svg">
<path fill-rule="evenodd" clip-rule="evenodd" d="M31.5124 25.0435C30.3233 24.9275 29.0152 24.8116 27.945 24.4638C27.7072 24.4638 26.8748 24.1159 26.7559 24C23.0695 22.3768 20.4534 18.6667 20.4534 14.3768C20.4534 8.57971 25.3289 3.82609 31.2746 3.82609C37.2204 3.82609 41.977 8.46377 42.0959 14.2609H46.0201C45.9012 6.37681 39.2419 0 31.1557 0C23.0695 0 16.4103 6.49275 16.4103 14.3768C16.4103 19.8261 19.621 24.5797 24.1397 27.0145C24.9721 27.4783 26.1613 27.942 26.518 28.058C27.8261 28.4058 29.4909 28.6377 30.9179 28.7536C31.3935 28.7536 33.0583 28.7536 33.6529 28.7536H60.6466V24.9275H33.7718C33.4151 25.0435 31.8692 25.0435 31.5124 25.0435ZM33.7718 19.0145C33.534 19.0145 31.9881 19.0145 31.7503 19.0145C31.2746 19.0145 30.5611 18.8986 30.2044 18.7826C29.7287 18.6667 29.2531 18.4348 29.0152 18.3188C27.5883 17.5072 26.518 16 26.518 14.3768C26.518 11.8261 28.6585 9.85507 31.1557 9.85507C33.6529 9.85507 35.6745 11.8261 35.7934 14.2609H39.5987C39.4797 9.73913 35.7934 6.14493 31.1557 6.14493C26.518 6.14493 22.7127 9.85507 22.7127 14.3768C22.7127 17.6232 24.6154 20.2899 27.3504 21.6812C27.8261 21.913 28.5396 22.1449 28.7774 22.2609C29.6098 22.4928 30.5611 22.6087 31.3935 22.6087C31.7503 22.6087 33.1773 22.6087 33.534 22.6087H60.6466V18.8986H33.7718V19.0145ZM14.032 28.8696H10.1078V3.82609H4.28094V0H14.032V28.8696ZM0 5.7971V9.50725H4.28094V28.8696H8.08621V5.7971H0Z" fill="#B9433B"/>
<path d="M53.7499 0.231888C52.3229 0.231888 51.1338 1.39131 51.1338 2.66667C51.1338 4.05797 52.3229 5.2174 53.7499 5.2174C55.1769 5.2174 56.366 4.05797 56.366 2.66667C56.2471 1.39131 55.1769 0.231888 53.7499 0.231888ZM53.7499 4.86957C52.5608 4.86957 51.6095 3.94203 51.6095 2.78261C51.6095 1.62319 52.6797 0.695656 53.7499 0.695656C54.9391 0.695656 55.8904 1.62319 55.8904 2.78261C55.8904 3.94203 54.9391 4.86957 53.7499 4.86957Z" fill="#B9433B"/>
<path d="M54.7012 3.47826C54.7012 3.24638 54.7012 2.89855 54.3445 2.78261C54.7012 2.66667 54.8201 2.43478 54.8201 2.2029C54.8201 1.50725 54.2256 1.50725 53.9877 1.50725H52.7986V3.94203H53.2742V3.01449H53.631C54.1066 3.01449 54.2256 3.24638 54.2256 3.47826C54.2256 3.94203 54.2256 3.94203 54.3445 4.05797H54.8201C54.7012 3.94203 54.7012 3.82609 54.7012 3.47826ZM53.8688 2.66667H53.2742V1.85507H53.7499C54.1066 1.85507 54.3445 1.97102 54.3445 2.2029C54.3445 2.43478 54.2256 2.66667 53.8688 2.66667Z" fill="#B9433B"/>
<path d="M7.13449 38.9565C6.06426 38.9565 4.16162 38.6087 4.16162 36.5217C4.16162 34.4348 6.06426 33.971 7.13449 34.0869V33.3913H8.91822V34.0869C9.98845 34.0869 11.8911 34.4348 11.8911 36.5217C11.8911 38.7246 9.98845 38.9565 8.91822 38.9565V39.7681H7.13449V38.9565ZM7.25341 35.2464C6.77775 35.2464 5.94534 35.3623 5.94534 36.5217C5.94534 37.5652 6.89666 37.7971 7.25341 37.7971V35.2464ZM8.7993 37.6812C9.27496 37.6812 10.1074 37.5652 10.1074 36.4058C10.1074 35.3623 9.15605 35.1304 8.7993 35.1304V37.6812Z" fill="#B9433B"/>
<path d="M14.1504 33.6232V37.3333L16.5287 33.6232H18.3124V39.8841H16.6476V36.1739L14.1504 39.8841H12.3667V33.6232H14.1504Z" fill="#B9433B"/>
<path d="M19.1453 33.6232H21.7614C23.5451 33.6232 24.0208 34.7826 24.0208 35.7101C24.0208 36.5217 23.5451 37.7971 21.7614 37.7971H20.8101V39.8841H19.0264V33.6232H19.1453ZM20.929 36.4058H21.4047C22.2371 36.4058 22.2371 35.942 22.2371 35.7101C22.2371 35.3623 22.1182 35.0145 21.4047 35.0145H20.929V36.4058Z" fill="#B9433B"/>
<path d="M25.091 33.6232H26.8747L27.9449 37.4493L29.1341 33.6232H30.9178L31.7502 39.8841H30.0854L29.6097 36.2898L28.5395 39.8841H27.4693L26.399 36.2898L25.9234 39.8841H24.1396L25.091 33.6232Z" fill="#B9433B"/>
<path d="M34.6041 33.6232H36.7446L39.004 39.7681H37.1013L36.7446 38.7246H34.6041L34.2474 39.7681H32.3447L34.6041 33.6232ZM34.9609 37.4493H36.3878L35.6743 35.1304L34.9609 37.4493Z" fill="#B9433B"/>
<path d="M42.8088 36.4058H41.2629L42.571 33.7391H43.7602L42.8088 36.4058ZM44.9493 36.4058H43.4034L44.7115 33.7391H45.9006L44.9493 36.4058Z" fill="#B9433B"/>
<path d="M47.6852 35.1304H46.7339V33.6232H49.35V39.8841H47.6852V35.1304Z" fill="#B9433B"/>
<path d="M55.177 39.5362C54.5825 39.8841 53.9879 40 53.5122 40C51.6096 40 50.3015 38.7246 50.3015 36.7536C50.3015 34.6667 51.8474 33.5072 53.5122 33.5072C54.1068 33.5072 54.7014 33.6232 55.2959 33.971V35.7101C54.9392 35.3623 54.4635 35.0145 53.75 35.0145C52.7987 35.0145 52.0852 35.8261 52.0852 36.7536C52.0852 37.6812 52.6798 38.3768 53.75 38.3768C54.4635 38.3768 54.9392 38.029 55.2959 37.6812V39.5362H55.177Z" fill="#B9433B"/>
<path d="M57.079 33.6232H58.6249L57.3168 36.2898H56.1277L57.079 33.6232ZM59.1006 33.6232H60.6465L59.3384 36.2898H58.1492L59.1006 33.6232Z" fill="#B9433B"/>
</svg>
