<svg width="41" height="40" viewBox="0 0 41 40" fill="none" xmlns="http://www.w3.org/2000/svg">
<g clip-path="url(#clip0_1205_208)">
<path d="M6.805 4.70935L20.5 1.66602L34.195 4.70935C34.5651 4.79162 34.8961 4.99762 35.1334 5.29336C35.3706 5.58909 35.4999 5.95688 35.5 6.33602V22.981C35.4999 24.6272 35.0933 26.248 34.3165 27.6994C33.5396 29.1508 32.4164 30.3879 31.0467 31.301L20.5 38.3327L9.95333 31.301C8.58379 30.3881 7.46077 29.1512 6.68391 27.7001C5.90706 26.249 5.50039 24.6286 5.5 22.9827V6.33602C5.50007 5.95688 5.6294 5.58909 5.86665 5.29336C6.1039 4.99762 6.43489 4.79162 6.805 4.70935ZM20.5 22.4993L25.3983 25.0744L24.4633 19.621L28.425 15.7577L22.9483 14.961L20.5 9.99935L18.05 14.961L12.575 15.7577L16.5367 19.621L15.6033 25.0744L20.5 22.4993Z" fill="#0F5FFF"/>
</g>
<defs>
<clipPath id="clip0_1205_208">
<rect width="40" height="40" fill="white" transform="translate(0.5)"/>
</clipPath>
</defs>
</svg>
