<svg width="20" height="20" viewBox="0 0 20 20" fill="none" xmlns="http://www.w3.org/2000/svg">
<g clip-path="url(#clip0_1205_843)">
<path d="M10 19.773L4.69667 14.4696C3.64779 13.4208 2.93349 12.0844 2.64411 10.6295C2.35473 9.17467 2.50326 7.66667 3.07092 6.29623C3.63858 4.92579 4.59987 3.75446 5.83324 2.93035C7.0666 2.10625 8.51665 1.66638 10 1.66638C11.4834 1.66638 12.9334 2.10625 14.1668 2.93035C15.4001 3.75446 16.3614 4.92579 16.9291 6.29623C17.4968 7.66667 17.6453 9.17467 17.3559 10.6295C17.0665 12.0844 16.3522 13.4208 15.3033 14.4696L10 19.773ZM14.125 13.2913C14.9408 12.4755 15.4963 11.4361 15.7213 10.3045C15.9463 9.17301 15.8308 8.00015 15.3892 6.93428C14.9477 5.86841 14.2 4.95741 13.2408 4.31646C12.2815 3.67551 11.1537 3.3334 10 3.3334C8.8463 3.3334 7.71851 3.67551 6.75924 4.31646C5.79997 4.95741 5.05229 5.86841 4.61076 6.93428C4.16923 8.00015 4.05368 9.17301 4.27871 10.3045C4.50374 11.4361 5.05926 12.4755 5.875 13.2913L10 17.4163L14.125 13.2913ZM10 10.833C9.55798 10.833 9.13405 10.6574 8.82149 10.3448C8.50893 10.0323 8.33334 9.60834 8.33334 9.16632C8.33334 8.72429 8.50893 8.30037 8.82149 7.9878C9.13405 7.67524 9.55798 7.49965 10 7.49965C10.442 7.49965 10.866 7.67524 11.1785 7.9878C11.4911 8.30037 11.6667 8.72429 11.6667 9.16632C11.6667 9.60834 11.4911 10.0323 11.1785 10.3448C10.866 10.6574 10.442 10.833 10 10.833Z" fill="#0F5FFF"/>
</g>
<defs>
<clipPath id="clip0_1205_843">
<rect width="20" height="20" fill="white" transform="translate(0 0.000366211)"/>
</clipPath>
</defs>
</svg>
