<svg width="168" height="48" viewBox="0 0 168 48" fill="none" xmlns="http://www.w3.org/2000/svg">
<path d="M9.53931 47.9978C9.53931 47.999 9.53834 48 9.53715 48C9.14655 48 8.78653 48 8.39582 47.987C7.69214 47.9741 6.86091 47.9352 6.04288 47.784C5.27762 47.6544 4.58713 47.4254 3.94942 47.1057C3.29851 46.786 2.70038 46.3539 2.19461 45.8527C1.67565 45.3429 1.24464 44.7683 0.91039 44.1159C0.584937 43.4895 0.365036 42.8284 0.219901 42.0594C0.0659703 41.2299 0.0263876 40.3874 0.0131935 39.748C-1.23698e-07 39.4801 0 38.6118 0 38.6117C0 38.6117 0 38.6117 0 38.6117V9.43271C0 9.39158 0.000313764 9.35074 0.000930163 9.30962C0.00393584 9.10911 0.0131935 8.47419 0.0131935 8.26066C0.0263876 7.60828 0.0659703 6.7658 0.219901 5.94924C0.360638 5.18452 0.584937 4.51917 0.91039 3.87975C1.24904 3.24032 1.67564 2.65274 2.18581 2.15589C2.70478 1.64608 3.30291 1.20972 3.95382 0.894326C4.60473 0.561653 5.29082 0.345635 6.04728 0.216022C6.8917 0.0648065 7.74931 0.0259221 8.41341 0.0129608L9.5437 0H158.448L159.604 0.0129608C160.255 0.0259221 161.113 0.0648065 161.944 0.216022C162.709 0.345635 163.4 0.561653 164.051 0.894326C164.701 1.21404 165.3 1.64608 165.805 2.15589C166.324 2.65274 166.755 3.24032 167.103 3.89271C167.428 4.51917 167.648 5.19316 167.767 5.93627C167.921 6.71395 167.96 7.51755 167.987 8.27363C168 8.61926 168 8.99946 168 9.37102C168 9.82899 168 10.2783 168 10.7233V37.2724C168 37.7174 168 38.1667 168 38.6117C168 39.0092 168 39.3764 167.987 39.7609C167.96 40.4868 167.921 41.2947 167.78 42.0464C167.648 42.8112 167.428 43.4765 167.09 44.1159C166.751 44.7683 166.324 45.3429 165.814 45.8398C165.295 46.3496 164.697 46.773 164.046 47.1014C163.395 47.434 162.722 47.6371 161.94 47.7797C161.135 47.9309 160.303 47.9698 159.587 47.9827C159.222 47.9957 158.835 47.9957 158.456 47.9957H157.093H9.54146C9.54027 47.9957 9.53931 47.9967 9.53931 47.9978Z" fill="#0F5FFF"/>
<path d="M59.3322 30.7278L56.7863 23.847L54.2522 30.7278H59.3322ZM50.457 35.833L55.7347 22.0003H57.8497L63.1274 35.833H61.1784L59.9173 32.2819H53.6908L52.4297 35.833H50.457ZM66.7131 34.2789V39.7796H65.0092V25.4565H66.7131V27.0224C67.0728 26.4055 67.5235 25.9508 68.0691 25.6542C68.6225 25.3497 69.2748 25.1994 70.0299 25.1994C71.291 25.1994 72.3149 25.7016 73.1016 26.7061C73.8962 27.7026 74.2916 29.0194 74.2916 30.6566C74.2916 32.2858 73.8962 33.5987 73.1016 34.6071C72.3149 35.6037 71.291 36.1019 70.0299 36.1019C69.2748 36.1019 68.6225 35.9556 68.0691 35.659C67.5235 35.3545 67.0728 34.8918 66.7131 34.2789ZM72.5165 30.6566C72.5165 29.403 72.2556 28.4184 71.7338 27.7026C71.2278 26.9868 70.5241 26.627 69.6187 26.627C68.7174 26.627 68.0018 26.9868 67.48 27.7026C66.9661 28.4184 66.7091 29.403 66.7091 30.6566C66.7091 31.9102 66.9661 32.8948 67.48 33.6106C68.0018 34.3184 68.7134 34.6744 69.6187 34.6744C70.5201 34.6744 71.2278 34.3184 71.7338 33.6106C72.2556 32.8948 72.5165 31.9102 72.5165 30.6566ZM78.7667 34.2789V39.7796H77.051V25.4565H78.7667V27.0224C79.1265 26.4055 79.5732 25.9508 80.1109 25.6542C80.6643 25.3497 81.3206 25.1994 82.0836 25.1994C83.3368 25.1994 84.3567 25.7016 85.1434 26.7061C85.938 27.7026 86.3334 29.0194 86.3334 30.6566C86.3334 32.2858 85.938 33.5987 85.1434 34.6071C84.3567 35.6037 83.3368 36.1019 82.0836 36.1019C81.3206 36.1019 80.6643 35.9556 80.1109 35.659C79.5732 35.3545 79.1225 34.8918 78.7667 34.2789ZM84.5583 30.6566C84.5583 29.403 84.2974 28.4184 83.7756 27.7026C83.2695 26.9868 82.5659 26.627 81.6605 26.627C80.7592 26.627 80.0436 26.9868 79.5218 27.7026C79.0158 28.4184 78.7628 29.403 78.7628 30.6566C78.7628 31.9102 79.0158 32.8948 79.5218 33.6106C80.0436 34.3184 80.7552 34.6744 81.6605 34.6744C82.5619 34.6744 83.2695 34.3184 83.7756 33.6106C84.2974 32.8948 84.5583 31.9102 84.5583 30.6566ZM98.5965 33.8597V30.1465H95.5485V28.6042H100.455V34.5518C99.7312 35.0658 98.9326 35.4534 98.0589 35.7183C97.1931 35.9754 96.268 36.1019 95.2797 36.1019C93.1133 36.1019 91.4213 35.4692 90.1997 34.2077C88.986 32.9462 88.3772 31.1865 88.3772 28.9285C88.3772 26.6705 88.986 24.9107 90.1997 23.6493C91.4213 22.3799 93.1173 21.7432 95.2797 21.7432C96.1811 21.7432 97.035 21.8579 97.8375 22.0833C98.6558 22.3008 99.407 22.629 100.091 23.064V25.061C99.3991 24.4678 98.6638 24.0249 97.885 23.7284C97.1061 23.4318 96.2878 23.2855 95.4339 23.2855C93.7458 23.2855 92.4729 23.756 91.615 24.6972C90.7729 25.6463 90.3539 27.058 90.3539 28.9245C90.3539 30.7911 90.7729 32.1988 91.615 33.14C92.4729 34.0812 93.7458 34.5518 95.4339 34.5518C96.0941 34.5518 96.6871 34.4964 97.2089 34.3896C97.7229 34.2789 98.1854 34.101 98.5965 33.8597ZM110.148 30.6091H108.456C107.076 30.6091 106.124 30.7673 105.594 31.0876C105.064 31.4 104.799 31.9379 104.799 32.7011C104.799 33.3101 104.997 33.7925 105.396 34.1484C105.792 34.5004 106.333 34.6744 107.021 34.6744C107.97 34.6744 108.729 34.3382 109.298 33.6699C109.867 33.0016 110.152 32.1079 110.152 30.9927V30.6091H110.148ZM111.852 29.9092V35.833H110.148V34.2552C109.761 34.8879 109.274 35.3545 108.701 35.659C108.116 35.9556 107.405 36.1019 106.562 36.1019C105.503 36.1019 104.657 35.8053 104.028 35.2122C103.404 34.6111 103.095 33.8083 103.095 32.8039C103.095 31.6452 103.483 30.7634 104.262 30.1623C105.048 29.5691 106.215 29.2725 107.764 29.2725H110.148V29.1104C110.148 28.3235 109.891 27.7145 109.377 27.2874C108.863 26.8603 108.14 26.6468 107.207 26.6468C106.614 26.6468 106.041 26.7179 105.479 26.8563C104.918 26.9948 104.376 27.2123 103.854 27.497V25.9191C104.479 25.6779 105.084 25.5 105.677 25.3813C106.262 25.2548 106.827 25.1955 107.381 25.1955C108.883 25.1955 110.006 25.583 110.745 26.362C111.484 27.149 111.852 28.3274 111.852 29.9092ZM115.367 35.833V21.4189H117.07V35.833H115.367ZM120.636 35.833V21.4189H122.34V35.833H120.636ZM134.73 30.2137V31.056H126.894C126.966 32.2226 127.313 33.1202 127.946 33.7411C128.582 34.3501 129.468 34.6506 130.599 34.6506C131.251 34.6506 131.883 34.5715 132.492 34.4173C133.117 34.2552 133.726 34.014 134.327 33.6936V35.3071C133.718 35.5641 133.093 35.7618 132.445 35.9042C131.808 36.0347 131.156 36.1019 130.496 36.1019C128.843 36.1019 127.535 35.6195 126.558 34.6546C125.594 33.6976 125.111 32.3966 125.111 30.7515C125.111 29.0471 125.57 27.6987 126.491 26.71C127.408 25.7056 128.65 25.2034 130.203 25.2034C131.599 25.2034 132.698 25.6542 133.508 26.5598C134.323 27.4535 134.73 28.6715 134.73 30.2137ZM126.942 29.7233H133.026C133.01 28.7901 132.745 28.0427 132.231 27.4812C131.725 26.9275 131.053 26.6507 130.211 26.6507C129.262 26.6507 128.499 26.9196 127.922 27.4574C127.353 27.9952 127.029 28.7505 126.942 29.7233ZM143.467 25.2943L143.479 27.0462C143.285 26.9354 143.075 26.8564 142.846 26.801C142.617 26.7456 142.376 26.7179 142.111 26.7179C141.146 26.7179 140.403 27.0343 139.881 27.6631C139.367 28.2879 139.11 29.1855 139.11 30.36V35.8291H137.406V25.4565H139.11V27.0699C139.47 26.4372 139.936 25.9705 140.514 25.6661C141.091 25.3537 141.787 25.1994 142.605 25.1994C142.723 25.1994 142.854 25.2113 143 25.235C143.139 25.2429 143.297 25.2627 143.467 25.2943ZM154.141 25.4565L149.586 36.79C149.104 38.0277 148.634 38.8384 148.175 39.218C147.716 39.5937 147.104 39.7796 146.341 39.7796H144.973V38.356H145.977C146.444 38.356 146.811 38.2413 147.076 38.0159C147.333 37.7984 147.618 37.2724 147.93 36.438L148.246 35.6669L144.04 25.4565H145.851L149.096 33.5631L152.33 25.4565H154.141Z" fill="white"/>
<path d="M32.803 7.58008H18.9998C12.489 7.58008 10.1055 10.0456 10.1055 16.8168V31.1721C10.1055 37.9433 12.489 40.4222 18.9998 40.4222H32.803C39.3009 40.4222 41.6844 37.9433 41.6844 31.1721V16.8168C41.6844 10.0456 39.3137 7.58008 32.803 7.58008Z" fill="#E14459"/>
<path fill-rule="evenodd" clip-rule="evenodd" d="M24.136 26.9142L23.7424 27.7177H22.8669L24.733 23.822H25.4891L27.3552 27.7177H26.4531L26.0729 26.9142H24.136ZM24.4455 26.2081H25.75L25.0956 24.8162L24.4455 26.2081ZM38.2954 23.822H39.1577V27.7177H38.2954V23.822ZM34.9125 27.0116H37.2783V27.7177H34.0635V23.822H37.1855V24.5402H34.9125V25.3316H36.4824V26.0498H34.9125V27.0116ZM32.4671 23.822H33.3692L31.8923 27.7299H31.1626L30.1942 25.1652L29.2258 27.7299H28.5182L27.028 23.822H27.9566L28.8985 26.5084L29.8537 23.822H30.5612L31.5297 26.5084L32.4671 23.822ZM21.5624 23.822H22.4247V26.0295C22.4247 27.1455 21.7569 27.7907 20.5807 27.7907C19.4309 27.7907 18.7632 27.1536 18.7632 26.0539V23.826H19.6255V26.0336C19.6255 26.691 19.966 27.04 20.5939 27.04C21.2219 27.04 21.5624 26.691 21.5624 26.0579V23.822ZM16.7025 23.822H17.5648V27.7299H16.7025V26.1351H14.7568V27.7299H13.8945V23.822H14.7568V25.3924H16.7025V23.822ZM26.5239 18.859C23.5302 18.859 21.1157 16.6311 21.1157 13.896H21.8719C21.8719 16.2456 23.9635 18.1529 26.5239 18.1529C29.0843 18.1529 31.1759 16.2456 31.1759 13.896H31.9321C31.9321 16.6271 29.5044 18.859 26.5239 18.859Z" fill="white"/>
<path d="M50.5273 14.1336C50.5273 12.9643 50.8633 12.0496 51.5353 11.3897C52.2073 10.7265 53.0748 10.3949 54.1376 10.3949C54.8336 10.3949 55.461 10.5503 56.0199 10.8611C56.5787 11.1718 57.0039 11.6059 57.2953 12.1634C57.5902 12.7176 57.7376 13.3471 57.7376 14.0519C57.7376 14.7663 57.5833 15.4055 57.2747 15.9693C56.9662 16.5332 56.529 16.9609 55.9633 17.2524C55.3976 17.5407 54.7873 17.6849 54.1325 17.6849C53.4228 17.6849 52.7885 17.5247 52.2296 17.2043C51.6708 16.884 51.2473 16.4467 50.9593 15.8924C50.6713 15.3382 50.5273 14.7519 50.5273 14.1336ZM51.5559 14.148C51.5559 14.997 51.7993 15.6666 52.2862 16.1567C52.7765 16.6437 53.3902 16.8872 54.1273 16.8872C54.8782 16.8872 55.4953 16.6405 55.9787 16.1471C56.4656 15.6538 56.709 14.9538 56.709 14.0471C56.709 13.4737 56.6045 12.9739 56.3953 12.5478C56.1896 12.1185 55.8862 11.7869 55.485 11.5531C55.0873 11.316 54.6399 11.1975 54.1428 11.1975C53.4365 11.1975 52.8279 11.4249 52.317 11.8798C51.8096 12.3316 51.5559 13.0876 51.5559 14.148Z" fill="white"/>
<path d="M60.9467 17.5647V11.3512H58.4627V10.5199H64.4387V11.3512H61.9444V17.5647H60.9467Z" fill="white"/>
<path d="M65.4827 10.5199H66.4804V13.605C66.9364 13.605 67.257 13.5233 67.4421 13.3599C67.6273 13.1933 67.8638 12.7961 68.1518 12.1682C68.361 11.7068 68.5324 11.3817 68.6661 11.1927C68.8032 11.0004 68.997 10.8403 69.2472 10.7121C69.4975 10.5808 69.7735 10.5151 70.0752 10.5151C70.4592 10.5151 70.6615 10.5183 70.6821 10.5247V11.332C70.6478 11.332 70.5809 11.3304 70.4815 11.3272C70.3718 11.324 70.305 11.3224 70.281 11.3224C69.9621 11.3224 69.7255 11.3945 69.5712 11.5387C69.4135 11.6828 69.2335 11.9904 69.0312 12.4613C68.7775 13.0572 68.5632 13.4336 68.3884 13.5906C68.2135 13.7444 68.0044 13.8677 67.761 13.9606C68.2478 14.0856 68.7278 14.5052 69.201 15.2197L70.7541 17.5647H69.5147L68.2547 15.6522C67.9084 15.1236 67.6187 14.7615 67.3855 14.5661C67.1524 14.3675 66.8507 14.2682 66.4804 14.2682V17.5647H65.4827V10.5199Z" fill="white"/>
<path d="M71.6078 17.5647V10.5199H74.4518C74.9524 10.5199 75.3346 10.5423 75.5986 10.5872C75.9689 10.6448 76.2792 10.7554 76.5295 10.9187C76.7798 11.0789 76.9803 11.3048 77.1312 11.5963C77.2855 11.8879 77.3626 12.2082 77.3626 12.5574C77.3626 13.1565 77.1586 13.6643 76.7506 14.0808C76.3426 14.494 75.6055 14.7007 74.5392 14.7007H72.6055V17.5647H71.6078ZM72.6055 13.8693H74.5546C75.1992 13.8693 75.6569 13.7572 75.9278 13.5329C76.1986 13.3087 76.3341 12.9931 76.3341 12.5863C76.3341 12.2915 76.2535 12.04 76.0923 11.8318C75.9346 11.6203 75.7255 11.481 75.4649 11.4137C75.2969 11.3721 74.9866 11.3512 74.5341 11.3512H72.6055V13.8693Z" fill="white"/>
<path d="M78.0929 14.1336C78.0929 12.9643 78.4289 12.0496 79.1009 11.3897C79.7729 10.7265 80.6403 10.3949 81.7032 10.3949C82.3992 10.3949 83.0266 10.5503 83.5854 10.8611C84.1443 11.1718 84.5694 11.6059 84.8609 12.1634C85.1557 12.7176 85.3032 13.3471 85.3032 14.0519C85.3032 14.7663 85.1489 15.4055 84.8403 15.9693C84.5317 16.5332 84.0946 16.9609 83.5289 17.2524C82.9632 17.5407 82.3529 17.6849 81.698 17.6849C80.9883 17.6849 80.354 17.5247 79.7952 17.2043C79.2363 16.884 78.8129 16.4467 78.5249 15.8924C78.2369 15.3382 78.0929 14.7519 78.0929 14.1336ZM79.1215 14.148C79.1215 14.997 79.3649 15.6666 79.8518 16.1567C80.342 16.6437 80.9557 16.8872 81.6929 16.8872C82.4437 16.8872 83.0609 16.6405 83.5443 16.1471C84.0312 15.6538 84.2746 14.9538 84.2746 14.0471C84.2746 13.4737 84.17 12.9739 83.9609 12.5478C83.7552 12.1185 83.4517 11.7869 83.0506 11.5531C82.6529 11.316 82.2055 11.1975 81.7083 11.1975C81.002 11.1975 80.3935 11.4249 79.8826 11.8798C79.3752 12.3316 79.1215 13.0876 79.1215 14.148Z" fill="white"/>
<path d="M86.6094 10.5199H87.5146V16.0991L91.526 10.5199H92.5288V17.5647H91.6237V12L87.6071 17.5647H86.6094V10.5199ZM90.3586 8.84277H90.9911C90.9397 9.24323 90.782 9.55078 90.518 9.76543C90.2574 9.98007 89.9094 10.0874 89.474 10.0874C89.0351 10.0874 88.6837 9.98168 88.4197 9.77023C88.1591 9.55559 88.0031 9.24643 87.9517 8.84277H88.5843C88.6323 9.06062 88.7266 9.22401 88.8671 9.33293C89.0111 9.43865 89.2031 9.49151 89.4431 9.49151C89.7208 9.49151 89.93 9.44026 90.0706 9.33774C90.2146 9.23202 90.3106 9.06703 90.3586 8.84277Z" fill="white"/>
<path d="M96.0825 17.5647V11.3512H93.5985V10.5199H99.5745V11.3512H97.0802V17.5647H96.0825Z" fill="white"/>
<path d="M100.624 17.5647V10.5199H106.075V11.3512H101.621V13.5089H105.792V14.3355H101.621V16.7334H106.25V17.5647H100.624Z" fill="white"/>
<path d="M110.518 17.5647V10.5199H113.347C113.923 10.5199 114.384 10.592 114.73 10.7361C115.08 10.8771 115.353 11.0965 115.548 11.3945C115.747 11.6892 115.846 11.9984 115.846 12.3219C115.846 12.6231 115.759 12.9066 115.584 13.1725C115.409 13.4384 115.145 13.6531 114.792 13.8165C115.248 13.9414 115.598 14.1544 115.841 14.4556C116.088 14.7567 116.212 15.1123 116.212 15.5224C116.212 15.8524 116.136 16.1599 115.985 16.4451C115.838 16.727 115.654 16.9448 115.435 17.0986C115.216 17.2524 114.94 17.3693 114.607 17.4494C114.278 17.5263 113.873 17.5647 113.393 17.5647H110.518ZM111.516 13.4801H113.146C113.589 13.4801 113.906 13.4528 114.098 13.3984C114.352 13.3279 114.542 13.211 114.669 13.0476C114.799 12.8842 114.864 12.6792 114.864 12.4325C114.864 12.1986 114.804 11.9936 114.684 11.8174C114.564 11.638 114.393 11.5162 114.17 11.4522C113.947 11.3849 113.565 11.3512 113.023 11.3512H111.516V13.4801ZM111.516 16.7334H113.393C113.716 16.7334 113.942 16.7222 114.072 16.6998C114.302 16.6613 114.494 16.5972 114.648 16.5075C114.802 16.4178 114.929 16.2881 115.029 16.1183C115.128 15.9453 115.178 15.7467 115.178 15.5224C115.178 15.2597 115.106 15.0322 114.962 14.84C114.818 14.6446 114.617 14.5084 114.36 14.4316C114.106 14.3515 113.74 14.3114 113.26 14.3114H111.516V16.7334Z" fill="white"/>
</svg>
