<svg width="166" height="48" viewBox="0 0 166 48" fill="none" xmlns="http://www.w3.org/2000/svg">
<path d="M10.6593 47.9975C10.2304 47.9975 9.81181 47.9926 9.38626 47.9841C8.5047 47.9738 7.6252 47.9054 6.75497 47.7794C5.94352 47.6548 5.15745 47.4231 4.42268 47.0919C3.69465 46.7634 3.03062 46.3327 2.45604 45.8162C1.87315 45.3058 1.38786 44.7139 1.01941 44.0638C0.646906 43.4095 0.389108 42.7082 0.255001 41.9843C0.110177 41.2065 0.0318215 40.4199 0.0206096 39.6315C0.013 39.4059 0.00338465 38.7321 0.000715351 38.5383C0.0002282 38.503 0 38.468 0 38.4327V9.55565C0 9.51741 0.000272686 9.47921 0.000839315 9.44097C0.00376667 9.24339 0.0137246 8.59106 0.02068 8.37578C0.0314153 7.5886 0.109315 6.80329 0.253706 6.02664C0.388061 5.30074 0.646058 4.59741 1.01877 3.94098C1.38586 3.29137 1.86845 2.69898 2.44784 2.18678C3.02657 1.66971 3.69272 1.23677 4.42199 0.903746C5.15507 0.573578 5.93966 0.34349 6.74946 0.22119C7.62255 0.0939071 8.50511 0.0250918 9.38973 0.0153216L10.66 0H155.333L156.619 0.0159364C157.495 0.0252212 158.37 0.0934226 159.235 0.21996C160.053 0.343794 160.846 0.575487 161.587 0.907422C163.048 1.57857 164.237 2.64038 164.987 3.94404C165.353 4.59594 165.607 5.29354 165.74 6.01316C165.886 6.79618 165.968 7.58767 165.985 8.3813C165.989 8.73667 165.989 9.11839 165.989 9.49828C166 9.96885 166 10.4167 166 10.8683V37.1304C166 37.5862 166 38.0311 165.989 38.4796C165.989 38.8876 165.989 39.2614 165.983 39.6462C165.967 40.4257 165.887 41.203 165.743 41.972C165.611 42.7012 165.355 43.4079 164.983 44.0676C164.612 44.7106 164.129 45.2974 163.553 45.8064C162.978 46.3257 162.313 46.7589 161.583 47.0895C160.843 47.4233 160.052 47.6558 159.235 47.7794C158.365 47.9061 157.485 47.9745 156.603 47.9841C156.191 47.9926 155.759 47.9975 155.34 47.9975L153.814 48L10.6593 47.9975Z" fill="#0F5FFF"/>
<path d="M39.5682 23.719C39.5817 22.6716 39.8599 21.6447 40.3769 20.7338C40.8939 19.8228 41.633 19.0574 42.5253 18.5088C41.9584 17.6993 41.2106 17.033 40.3412 16.563C39.4719 16.093 38.5049 15.8322 37.517 15.8013C35.4099 15.5801 33.3671 17.0622 32.2933 17.0622C31.1987 17.0622 29.5455 15.8233 27.7652 15.8599C26.6137 15.8971 25.4914 16.232 24.5078 16.8318C23.5241 17.4317 22.7127 18.2762 22.1524 19.2829C19.7256 23.4846 21.5358 29.6598 23.8605 33.0561C25.0236 34.7192 26.383 36.5769 28.1616 36.5111C29.9022 36.4389 30.5522 35.4012 32.6532 35.4012C34.7347 35.4012 35.3446 36.5111 37.1593 36.4692C39.027 36.4389 40.2037 34.7987 41.326 33.1198C42.1617 31.9348 42.8048 30.6251 43.2314 29.2392C42.1463 28.7803 41.2203 28.0121 40.5689 27.0305C39.9175 26.0488 39.5695 24.8971 39.5682 23.719Z" fill="white"/>
<path d="M36.1403 13.5686C37.1586 12.3462 37.6603 10.7749 37.5388 9.18848C35.9831 9.35188 34.5459 10.0954 33.5139 11.271C33.0092 11.8453 32.6227 12.5134 32.3765 13.2372C32.1302 13.9609 32.029 14.7261 32.0787 15.489C32.8569 15.497 33.6267 15.3284 34.3302 14.9957C35.0338 14.6631 35.6527 14.1751 36.1403 13.5686Z" fill="white"/>
<path d="M61.5693 32.3014H55.6297L54.2033 36.5132H51.6875L57.3134 20.9307H59.9273L65.5532 36.5132H62.9945L61.5693 32.3014ZM56.2449 30.3579H60.953L58.632 23.5225H58.5671L56.2449 30.3579Z" fill="white"/>
<path d="M77.7017 30.8328C77.7017 34.3633 75.8121 36.6315 72.9605 36.6315C72.2382 36.6693 71.5198 36.5029 70.8876 36.1514C70.2554 35.7999 69.735 35.2774 69.3859 34.6439H69.332V40.271H67V25.1517H69.2573V27.0413H69.3002C69.6653 26.4108 70.1945 25.8911 70.8315 25.5374C71.4685 25.1837 72.1894 25.0094 72.9176 25.0329C75.801 25.0329 77.7017 27.3122 77.7017 30.8328ZM75.3047 30.8328C75.3047 28.5327 74.1161 27.0205 72.3024 27.0205C70.5207 27.0205 69.3222 28.5645 69.3222 30.8328C69.3222 33.1219 70.5207 34.6549 72.3024 34.6549C74.1161 34.6549 75.3047 33.1538 75.3047 30.8328Z" fill="white"/>
<path d="M90.2095 30.8328C90.2095 34.3633 88.3199 36.6315 85.4683 36.6315C84.746 36.6693 84.0276 36.5029 83.3954 36.1514C82.7632 35.7998 82.2428 35.2774 81.8938 34.6439H81.8398V40.271H79.5078V25.1517H81.765V27.0413H81.8079C82.173 26.4108 82.7022 25.8911 83.3392 25.5374C83.9762 25.1837 84.6972 25.0094 85.4254 25.0329C88.3089 25.0329 90.2095 27.3121 90.2095 30.8328ZM87.8126 30.8328C87.8126 28.5327 86.6239 27.0205 84.8103 27.0205C83.0285 27.0205 81.83 28.5645 81.83 30.8328C81.83 33.1219 83.0285 34.6549 84.8103 34.6549C86.6239 34.6549 87.8126 33.1538 87.8126 30.8328H87.8126Z" fill="white"/>
<path d="M98.4653 32.1713C98.6381 33.7166 100.139 34.7312 102.191 34.7312C104.156 34.7312 105.57 33.7166 105.57 32.3232C105.57 31.1137 104.717 30.3895 102.698 29.8932L100.678 29.4067C97.8171 28.7156 96.4887 27.3774 96.4887 25.206C96.4887 22.5174 98.8317 20.6707 102.159 20.6707C105.451 20.6707 107.709 22.5174 107.785 25.206H105.431C105.29 23.6509 104.004 22.7122 102.126 22.7122C100.247 22.7122 98.9616 23.6619 98.9616 25.0442C98.9616 26.1459 99.7826 26.7941 101.791 27.2904L103.508 27.7119C106.705 28.468 108.033 29.7523 108.033 32.0315C108.033 34.9468 105.711 36.7727 102.018 36.7727C98.5621 36.7727 96.2289 34.9897 96.0781 32.1712L98.4653 32.1713Z" fill="white"/>
<path d="M113.069 22.4646V25.1532H115.23V26.9999H113.069V33.2631C113.069 34.236 113.502 34.6895 114.451 34.6895C114.708 34.685 114.964 34.667 115.218 34.6355V36.4712C114.792 36.551 114.358 36.5871 113.923 36.579C111.623 36.579 110.726 35.7151 110.726 33.5118V26.9999H109.074V25.1532H110.726V22.4646H113.069Z" fill="white"/>
<path d="M116.488 30.8344C116.488 27.2599 118.594 25.0137 121.876 25.0137C125.17 25.0137 127.266 27.2598 127.266 30.8344C127.266 34.4188 125.181 36.6552 121.876 36.6552C118.573 36.6552 116.488 34.4188 116.488 30.8344ZM124.89 30.8344C124.89 28.3824 123.766 26.9351 121.876 26.9351C119.987 26.9351 118.864 28.3934 118.864 30.8344C118.864 33.2963 119.987 34.7325 121.876 34.7325C123.766 34.7325 124.89 33.2963 124.89 30.8344H124.89Z" fill="white"/>
<path d="M129.184 25.1516H131.408V27.0853H131.462C131.612 26.4814 131.966 25.9477 132.464 25.5739C132.961 25.2001 133.572 25.009 134.194 25.0327C134.463 25.0318 134.731 25.061 134.993 25.1197V27.301C134.654 27.1973 134.3 27.1497 133.946 27.1601C133.607 27.1463 133.269 27.2061 132.956 27.3352C132.642 27.4643 132.36 27.6597 132.129 27.908C131.898 28.1563 131.724 28.4517 131.618 28.7738C131.512 29.0958 131.477 29.437 131.516 29.7739V36.5125H129.184L129.184 25.1516Z" fill="white"/>
<path d="M145.744 33.1772C145.431 35.2396 143.422 36.655 140.852 36.655C137.547 36.655 135.496 34.4406 135.496 30.8881C135.496 27.3246 137.558 25.0134 140.754 25.0134C143.898 25.0134 145.874 27.1726 145.874 30.6173V31.4163H137.85V31.5572C137.813 31.9753 137.865 32.3965 138.004 32.7928C138.142 33.1892 138.363 33.5515 138.652 33.8559C138.941 34.1603 139.292 34.3996 139.68 34.5581C140.069 34.7166 140.487 34.7906 140.906 34.7752C141.457 34.8268 142.01 34.6992 142.483 34.4113C142.956 34.1233 143.323 33.6905 143.53 33.1772L145.744 33.1772ZM137.861 29.7865H143.541C143.562 29.4105 143.505 29.0343 143.374 28.6814C143.242 28.3286 143.039 28.0066 142.778 27.7359C142.516 27.4651 142.201 27.2514 141.853 27.1081C141.505 26.9648 141.131 26.8949 140.754 26.903C140.375 26.9008 139.998 26.9737 139.647 27.1177C139.295 27.2617 138.976 27.4738 138.707 27.7419C138.438 28.01 138.225 28.3287 138.08 28.6796C137.934 29.0305 137.86 29.4067 137.861 29.7865V29.7865Z" fill="white"/>
<path d="M54.5836 12.3668H55.5848C55.7571 12.3883 55.9321 12.3738 56.0985 12.3243C56.265 12.2748 56.4194 12.1914 56.5521 12.0792C56.6847 11.9671 56.7926 11.8287 56.8691 11.6728C56.9456 11.5169 56.989 11.3468 56.9965 11.1733C56.9965 10.4827 56.4769 10.0367 55.5958 10.0367C55.4192 10.012 55.2395 10.023 55.0673 10.0689C54.895 10.1148 54.7337 10.1948 54.5928 10.3041C54.452 10.4135 54.3345 10.5499 54.2472 10.7054C54.16 10.8609 54.1048 11.0322 54.0849 11.2094H52.9856C53.0046 10.8878 53.0895 10.5735 53.2351 10.2862C53.3808 9.99878 53.584 9.74447 53.8322 9.53904C54.0804 9.33362 54.3682 9.18149 54.6777 9.09212C54.9872 9.00275 55.3118 8.97805 55.6313 9.01957C57.1055 9.01957 58.1435 9.84489 58.1435 11.0329C58.147 11.431 58.0138 11.8181 57.7663 12.1298C57.5187 12.4414 57.1717 12.6588 56.7833 12.7455V12.8337C57.2438 12.8541 57.6775 13.0561 57.9896 13.3953C58.3016 13.7346 58.4667 14.1837 58.4486 14.6443C58.4145 14.9754 58.3147 15.2964 58.155 15.5885C57.9952 15.8805 57.7788 16.1378 57.5183 16.3451C57.2579 16.5524 56.9586 16.7056 56.6382 16.7958C56.3178 16.886 55.9825 16.9113 55.6522 16.8703C55.3212 16.9154 54.9844 16.8934 54.6621 16.8056C54.3397 16.7178 54.0383 16.566 53.7759 16.3593C53.5134 16.1525 53.2953 15.8951 53.1345 15.6022C52.9737 15.3093 52.8735 14.9871 52.8398 14.6547H53.9562C54.0236 15.371 54.6817 15.833 55.6522 15.833C56.6227 15.833 57.2563 15.314 57.2563 14.5824C57.2563 13.8405 56.6595 13.3834 55.6167 13.3834H54.5836V12.3668Z" fill="white"/>
<path d="M59.7227 15.09C59.7227 14.0729 60.4812 13.4865 61.8243 13.4032L63.3548 13.315V12.8273C63.3548 12.2305 62.9615 11.8935 62.198 11.8935C61.5755 11.8935 61.1454 12.122 61.0204 12.5215H59.9408C60.0547 11.551 60.9689 10.9285 62.2507 10.9285C63.6673 10.9285 64.4663 11.6337 64.4663 12.8273V16.688H63.3916V15.8939H63.3034C63.1243 16.1787 62.8728 16.4109 62.5746 16.5668C62.2764 16.7227 61.9422 16.7966 61.6061 16.7811C61.3689 16.8057 61.1292 16.7804 60.9024 16.7068C60.6755 16.6331 60.4667 16.5127 60.2892 16.3534C60.1118 16.1941 59.9697 15.9993 59.8721 15.7817C59.7745 15.5641 59.7236 15.3285 59.7227 15.09ZM63.3548 14.6072V14.1348L61.9749 14.223C61.1968 14.2751 60.8439 14.5398 60.8439 15.0379C60.8439 15.5465 61.285 15.8424 61.8917 15.8424C62.0694 15.8604 62.2489 15.8425 62.4196 15.7897C62.5903 15.7368 62.7486 15.6502 62.8851 15.535C63.0216 15.4197 63.1335 15.2782 63.2142 15.1188C63.2949 14.9594 63.3427 14.7854 63.3548 14.6072Z" fill="white"/>
<path d="M67.4237 11.9775V16.6893H66.3086V11.0388H70.029V11.9774L67.4237 11.9775Z" fill="white"/>
<path d="M76.7806 13.8609C76.7806 15.6562 75.8726 16.7817 74.4462 16.7817C74.096 16.8056 73.7463 16.729 73.4383 16.5609C73.1302 16.3927 72.8766 16.1401 72.7073 15.8326H72.619V18.5672H71.5039V11.0382H72.5774V11.972H72.6607C72.8331 11.6538 73.09 11.3894 73.4031 11.2081C73.7162 11.0268 74.0734 10.9355 74.4351 10.9444C75.8725 10.9444 76.7806 12.065 76.7806 13.8609ZM75.6336 13.8609C75.6336 12.6674 75.0687 11.9462 74.1239 11.9462C73.1853 11.9462 72.5982 12.6827 72.5982 13.8658C72.5982 15.0435 73.1852 15.7806 74.119 15.7806C75.0687 15.7805 75.6336 15.0594 75.6336 13.8609Z" fill="white"/>
<path d="M78.2674 18.7133V17.7532C78.3881 17.7685 78.5097 17.7755 78.6313 17.774C78.8689 17.7916 79.1046 17.7208 79.2932 17.5753C79.4818 17.4298 79.6101 17.2197 79.6533 16.9854L79.7366 16.7103L77.6914 11.0391H78.9058L80.3224 15.5272H80.4107L81.8224 11.0391H83.0049L80.8984 16.923C80.4156 18.2979 79.8813 18.739 78.7294 18.739C78.6363 18.739 78.3716 18.7286 78.2674 18.7133Z" fill="white"/>
<path d="M83.8789 15.0862H84.9891C85.0982 15.5843 85.5651 15.8441 86.2182 15.8441C86.9609 15.8441 87.4167 15.5169 87.4167 15.0084C87.4167 14.4637 87.0074 14.2039 86.2182 14.2039H85.3727V13.3375H86.2035C86.8775 13.3375 87.2206 13.0783 87.2206 12.6059C87.2206 12.1911 86.8886 11.8744 86.2035 11.8744C85.5798 11.8744 85.1239 12.1391 85.0516 12.5851H83.9769C84.0573 12.0726 84.3356 11.612 84.752 11.3025C85.1684 10.993 85.6896 10.8593 86.2035 10.9302C87.5466 10.9302 88.315 11.5374 88.315 12.492C88.3212 12.7578 88.236 13.0177 88.0737 13.2283C87.9113 13.4389 87.6815 13.5873 87.4228 13.6488V13.737C87.7308 13.7767 88.0135 13.9282 88.2173 14.1625C88.421 14.3969 88.5317 14.6979 88.5282 15.0084C88.5282 16.0825 87.614 16.7932 86.2182 16.7932C84.9842 16.7932 83.9819 16.2277 83.8789 15.0862Z" fill="white"/>
<path d="M90.1289 16.6893V11.0388H91.2342V14.9253H91.3225L93.9265 11.0388H95.0318V16.6893H93.9265V12.782H93.8432L91.2342 16.6893L90.1289 16.6893Z" fill="white"/>
<path d="M101.12 11.9774H99.341V16.6892H98.2247V11.9774H96.4453V11.0388H101.12V11.9774Z" fill="white"/>
<path d="M107.123 15.1624C106.971 15.6788 106.642 16.1254 106.195 16.4242C105.747 16.723 105.208 16.855 104.673 16.7971C104.301 16.807 103.931 16.7357 103.589 16.5882C103.247 16.4407 102.941 16.2206 102.693 15.9431C102.445 15.6656 102.26 15.3374 102.151 14.9812C102.042 14.6251 102.012 14.2495 102.063 13.8806C102.014 13.5106 102.044 13.1342 102.153 12.777C102.261 12.4198 102.445 12.0901 102.692 11.8101C102.939 11.5302 103.244 11.3066 103.584 11.1545C103.925 11.0024 104.295 10.9254 104.668 10.9286C106.241 10.9286 107.19 12.0027 107.19 13.777V14.1662H103.2V14.2287C103.183 14.4361 103.209 14.6449 103.276 14.8416C103.344 15.0384 103.453 15.2188 103.594 15.3713C103.736 15.5238 103.908 15.6449 104.099 15.7269C104.291 15.8089 104.497 15.8499 104.705 15.8474C104.972 15.8793 105.242 15.8312 105.481 15.7092C105.72 15.5872 105.918 15.3969 106.048 15.1624L107.123 15.1624ZM103.2 13.3414H106.053C106.067 13.1519 106.042 12.9615 105.978 12.7825C105.914 12.6035 105.813 12.4398 105.682 12.3019C105.551 12.1641 105.393 12.0551 105.218 11.9821C105.042 11.909 104.854 11.8734 104.663 11.8777C104.471 11.875 104.279 11.9111 104.1 11.9838C103.922 12.0564 103.759 12.1641 103.623 12.3006C103.486 12.437 103.379 12.5995 103.306 12.7782C103.234 12.957 103.198 13.1485 103.2 13.3414H103.2Z" fill="white"/>
<path d="M111.855 11.0391H114.403C115.508 11.0391 116.157 11.5991 116.157 12.4758C116.158 12.7541 116.065 13.0244 115.891 13.2417C115.717 13.459 115.474 13.61 115.202 13.6694V13.7576C115.532 13.7785 115.841 13.9253 116.066 14.1677C116.291 14.4101 116.414 14.7296 116.41 15.0603C116.41 16.0461 115.669 16.6895 114.429 16.6895H111.855V11.0391ZM112.961 11.895V13.3582H114.066C114.74 13.3582 115.062 13.099 115.062 12.6211C115.062 12.1805 114.782 11.895 114.19 11.895L112.961 11.895ZM112.961 14.178V15.8336H114.283C114.942 15.8336 115.295 15.5425 115.295 15.0082C115.295 14.4427 114.896 14.178 114.143 14.178L112.961 14.178Z" fill="white"/>
</svg>
