<svg width="166" height="48" viewBox="0 0 166 48" fill="none" xmlns="http://www.w3.org/2000/svg">
<path d="M9.42154 47.9978C9.42154 47.999 9.42057 48 9.41938 48C9.03362 48 8.67804 48 8.29217 47.987C7.59718 47.9741 6.77621 47.9352 5.96828 47.784C5.21247 47.6544 4.5305 47.4254 3.90066 47.1057C3.25779 46.786 2.66705 46.3539 2.16752 45.8527C1.65496 45.3429 1.22927 44.7683 0.899151 44.1159C0.577715 43.4895 0.360529 42.8284 0.217186 42.0594C0.0651559 41.2299 0.0260618 40.3874 0.0130306 39.748C-1.41589e-07 39.4801 0 38.6118 0 38.6117C0 38.6117 0 38.6117 0 38.6117V9.43194C0 9.39133 0.00030656 9.35096 0.000907956 9.31034C0.00386516 9.11064 0.0130306 8.47445 0.0130306 8.26066C0.0260618 7.60828 0.0651559 6.7658 0.217186 5.94924C0.356185 5.18452 0.577715 4.51917 0.899151 3.87975C1.23362 3.24032 1.65496 2.65274 2.15883 2.15589C2.67139 1.64608 3.26214 1.20972 3.90501 0.894326C4.54788 0.561653 5.2255 0.345635 5.97262 0.216022C6.80662 0.0648065 7.65364 0.0259221 8.30954 0.0129608L9.42588 0H156.491L157.634 0.0129608C158.277 0.0259221 159.124 0.0648065 159.945 0.216022C160.7 0.345635 161.382 0.561653 162.025 0.894326C162.668 1.21404 163.259 1.64608 163.758 2.15589C164.271 2.65274 164.697 3.24032 165.04 3.89271C165.361 4.51917 165.578 5.19316 165.696 5.93627C165.848 6.71395 165.887 7.51755 165.913 8.27363C165.926 8.61926 165.926 8.99946 165.926 9.37102C165.926 9.82899 165.926 10.2783 165.926 10.7233V37.2724C165.926 37.7174 165.926 38.1667 165.926 38.6117C165.926 39.0092 165.926 39.3764 165.913 39.7609C165.887 40.4868 165.848 41.2947 165.709 42.0464C165.578 42.8112 165.361 43.4765 165.027 44.1159C164.692 44.7683 164.271 45.3429 163.767 45.8398C163.255 46.3496 162.664 46.773 162.021 47.1014C161.378 47.434 160.713 47.6371 159.94 47.7797C159.145 47.9309 158.324 47.9698 157.616 47.9827C157.256 47.9957 156.874 47.9957 156.5 47.9957H155.154H9.42369C9.4225 47.9957 9.42154 47.9967 9.42154 47.9978Z" fill="#0F5FFF"/>
<path fill-rule="evenodd" clip-rule="evenodd" d="M23.886 42.8196C15.2261 42.8196 10.8962 42.8196 8.20591 40.123C5.51563 37.4265 5.51563 33.0865 5.51563 24.4066L5.51563 22.8722C5.51562 14.1923 5.51562 9.85231 8.2059 7.15581C10.8962 4.45947 15.2261 4.45947 23.886 4.45947L25.4168 4.45947C34.0767 4.45947 38.4066 4.45947 41.0969 7.15581C43.7872 9.8523 43.7872 14.1923 43.7872 22.8722V24.4066C43.7872 33.0865 43.7872 37.4265 41.0969 40.123C38.4066 42.8196 34.0767 42.8196 25.4168 42.8196H23.886Z" fill="#2B71F6"/>
<path d="M27.6486 28.1002C26.6175 27.8421 25.8945 26.9176 25.8945 25.8572V13.365C25.8945 12.1606 27.03 11.2773 28.2012 11.5705L35.618 13.4276C36.6491 13.6857 37.3722 14.6102 37.3722 15.6706V28.1629C37.3722 29.3673 36.2367 30.2506 35.0655 29.9573L27.6486 28.1002Z" fill="white"/>
<path d="M13.6838 33.8522C12.6527 33.594 11.9297 32.6696 11.9297 31.6092V19.117C11.9297 17.9125 13.0651 17.0292 14.2363 17.3225L21.6532 19.1796C22.6843 19.4377 23.4073 20.3622 23.4073 21.4226V33.9148C23.4073 35.1192 22.2719 36.0026 21.1007 35.7093L13.6838 33.8522Z" fill="white"/>
<path d="M20.6642 30.9757C19.6331 30.7176 18.9102 29.7931 18.9102 28.7327V16.2405C18.9102 15.0361 20.0456 14.1527 21.2168 14.446L28.6336 16.3031C29.6648 16.5613 30.3878 17.4858 30.3878 18.5461V31.0384C30.3878 32.2428 29.2524 33.126 28.0812 32.8329L20.6642 30.9757Z" fill="white"/>
<path d="M25.521 32.194C25.1962 32.111 24.965 31.8231 24.9536 31.4875L24.631 21.9471C24.5376 20.6845 23.6026 19.6804 22.6254 19.3846C22.5705 19.368 22.5119 19.3904 22.4795 19.4376C22.4464 19.4858 22.4592 19.5523 22.5052 19.588C22.7465 19.7752 23.4107 20.3863 23.4107 21.4401L23.4087 31.6574L25.521 32.194Z" fill="#2B71F6"/>
<path d="M32.5015 29.3161C32.177 29.2347 31.9455 28.9476 31.9343 28.6126L31.6115 19.073C31.5181 17.8103 30.5831 16.8061 29.6058 16.5103C29.551 16.4937 29.4924 16.5161 29.4599 16.5635C29.4269 16.6115 29.4396 16.6781 29.4857 16.7138C29.727 16.901 30.3911 17.512 30.3911 18.5659L30.3892 28.7867L32.5015 29.3161Z" fill="#2B71F6"/>
<path d="M65.0594 27.1217C67.7207 26.4416 69.4696 24.4014 69.4696 21.7315C69.4696 18.4318 66.8336 16.1145 63.133 16.1145H56.543V33.8722H59.5845V27.3484H61.7389L66.4534 33.8722H70.0272L65.0594 27.1217ZM63.133 18.8852C65.0341 18.8852 66.352 20.0439 66.352 21.7315C66.352 23.4191 65.0341 24.5778 63.133 24.5778H59.5845V18.8852H63.133Z" fill="white"/>
<path d="M76.8722 34.1239C78.469 34.1239 79.9391 33.2927 80.7755 31.9073L81.3585 33.872H83.5383V20.7742H80.6235V28.3558C80.6235 30.2197 79.3815 31.5295 77.6833 31.5295C76.0104 31.5295 74.8445 30.2197 74.8445 28.3558V20.7742H71.9297V28.6832C71.9297 31.8318 74.0588 34.1239 76.8722 34.1239Z" fill="white"/>
<path d="M92.8434 34.1237C96.2145 34.1237 99.0026 32.2094 99.0026 29.0356C99.0026 25.4841 96.0879 24.4515 93.5785 23.5951C91.6268 22.9401 89.9287 22.3357 89.9287 20.7488C89.9287 19.3634 91.2213 18.633 92.742 18.633C94.3389 18.633 95.4795 19.4642 96.1132 20.8747L99.0026 20.3962C98.0898 17.6255 95.7837 15.8623 92.6407 15.8623C89.3963 15.8623 86.811 17.7263 86.811 20.9C86.811 24.4767 89.7259 25.4589 92.2352 26.2902C94.1615 26.9199 95.8851 27.5244 95.8851 29.1365C95.8851 30.547 94.5924 31.3529 92.8688 31.3529C90.8918 31.3529 89.8273 30.4211 88.8895 28.7334L85.9492 29.2372C86.811 32.2346 89.5484 34.1237 92.8434 34.1237Z" fill="white"/>
<path d="M106.926 31.352C105.938 31.352 105.456 30.8735 105.456 29.8912V23.2919H109.384V20.7731H105.456V16.9949H103.276L102.541 20.7731H100.387V23.2919H102.541V29.8912C102.541 32.4603 104.036 33.8709 106.926 33.8709H109.384L109.638 31.352H106.926Z" fill="white"/>
<path d="M117.968 34.124C122.1 34.124 125.015 31.3029 125.015 27.3233C125.015 23.3436 122.1 20.5225 117.968 20.5225C113.837 20.5225 110.922 23.3436 110.922 27.3233C110.922 31.3029 113.837 34.124 117.968 34.124ZM117.968 31.4793C115.586 31.4793 113.964 29.7917 113.964 27.3233C113.964 24.8548 115.586 23.1672 117.968 23.1672C120.351 23.1672 121.973 24.8548 121.973 27.3233C121.973 29.7917 120.351 31.4793 117.968 31.4793Z" fill="white"/>
<path d="M130.462 33.872V26.1393C130.462 24.4769 131.273 23.5449 133.047 23.5449H134.72L134.467 20.7742H133.909C132.363 20.7742 131.172 21.2024 130.285 22.6633L129.727 20.7742H127.547V33.872H130.462Z" fill="white"/>
<path d="M149.07 27.1721C149.07 23.3939 146.231 20.5225 142.226 20.5225C138.222 20.5225 135.383 23.3688 135.383 27.3233C135.383 31.2777 138.222 34.124 142.226 34.124C144.963 34.124 147.549 32.8395 148.537 30.3459L145.8 29.8924C145.166 30.8244 143.949 31.4793 142.404 31.4793C140.173 31.4793 138.703 30.1191 138.425 28.1041H149.019C149.044 27.827 149.07 27.5247 149.07 27.1721ZM142.226 23.0413C144.051 23.0413 145.42 24.1999 145.901 25.8372H138.601C139.083 24.1495 140.451 23.0413 142.226 23.0413Z" fill="white"/>
</svg>
