<svg width="20" height="24" viewBox="0 0 20 24" fill="none" xmlns="http://www.w3.org/2000/svg">
<g clip-path="url(#clip0_931_5276)">
<path d="M18.8104 8.1816C18.672 8.2896 16.2279 9.6744 16.2279 12.7536C16.2279 16.3152 19.3379 17.5752 19.431 17.6064C19.4166 17.6832 18.9369 19.332 17.7912 21.012C16.7697 22.4904 15.7028 23.9664 14.0797 23.9664C12.4567 23.9664 12.039 23.0184 10.1654 23.0184C8.33949 23.0184 7.69028 23.9976 6.20569 23.9976C4.7211 23.9976 3.68522 22.6296 2.49421 20.9496C1.11464 18.9768 0 15.912 0 13.0032C0 8.3376 3.01692 5.8632 5.9861 5.8632C7.56378 5.8632 8.87891 6.9048 9.86943 6.9048C10.8122 6.9048 12.2825 5.8008 14.0774 5.8008C14.7576 5.8008 17.2017 5.8632 18.8104 8.1816ZM13.2253 3.8256C13.9676 2.94 14.4927 1.7112 14.4927 0.4824C14.4927 0.312 14.4783 0.1392 14.4473 0C13.2396 0.0456 11.8027 0.8088 10.9363 1.8192C10.2561 2.5968 9.6212 3.8256 9.6212 5.0712C9.6212 5.2584 9.65223 5.4456 9.66655 5.5056C9.74293 5.52 9.86704 5.5368 9.99115 5.5368C11.0748 5.5368 12.4376 4.8072 13.2253 3.8256Z" fill="white"/>
</g>
<defs>
<clipPath id="clip0_931_5276">
<rect width="19.4286" height="24" fill="white"/>
</clipPath>
</defs>
</svg>
