<svg width="20" height="24" viewBox="0 0 20 24" fill="none" xmlns="http://www.w3.org/2000/svg">
<g clip-path="url(#clip0_706_8378)">
<path d="M11.5036 12.6803C11.1059 12.6859 11.5788 12.8853 12.098 12.9651C12.2414 12.8532 12.3716 12.7399 12.4875 12.6296C12.1642 12.7089 11.8351 12.7106 11.5036 12.6803Z" fill="white"/>
<path d="M13.6395 12.1483C13.8763 11.8214 14.0489 11.4635 14.1097 11.0935C14.0566 11.3573 13.9134 11.585 13.7787 11.8254C13.0353 12.2935 13.7087 11.5474 13.7782 11.2639C12.9789 12.27 13.6685 11.8672 13.6395 12.1483Z" fill="white"/>
<path d="M14.4271 10.0982C14.4752 9.38202 14.2862 9.60842 14.2227 9.88174C14.2968 9.92025 14.3554 10.3865 14.4271 10.0982Z" fill="white"/>
<path d="M9.99609 0.30957C10.2083 0.347636 10.4546 0.376849 10.4201 0.427529C10.6523 0.376627 10.705 0.32971 9.99609 0.30957Z" fill="white"/>
<path d="M10.4196 0.42749L10.2695 0.458474L10.4092 0.44608L10.4196 0.42749Z" fill="white"/>
<path d="M17.0377 10.3698C17.0614 11.0129 16.8496 11.325 16.6586 11.8774L16.3149 12.0491C16.0336 12.5953 16.3421 12.3959 16.1407 12.8303C15.7016 13.2207 14.8082 14.0519 14.5223 14.1279C14.3136 14.1232 14.6637 13.8815 14.7095 13.7868C14.1217 14.1905 14.2379 14.3928 13.3389 14.638L13.3126 14.5796C11.0955 15.6226 8.01575 13.5556 8.05625 10.7352C8.03257 10.9142 7.98898 10.8695 7.93984 10.9419C7.82543 9.49074 8.60997 8.03319 9.93319 7.43809C11.2274 6.7974 12.7447 7.06031 13.6718 7.92431C13.1625 7.25728 12.1489 6.55019 10.9477 6.61636C9.77097 6.63495 8.67017 7.38276 8.30279 8.19453C7.69994 8.57408 7.63001 9.65761 7.36731 9.8559C7.01388 12.4534 8.03213 13.5757 9.75459 14.8958C10.0257 15.0786 9.83094 15.1063 9.86768 15.2455C9.29537 14.9775 8.77131 14.5729 8.34042 14.0776C8.56903 14.4122 8.81579 14.7376 9.1347 14.9932C8.59515 14.8104 7.87434 13.6857 7.66387 13.6399C8.59404 15.3052 11.4377 16.5605 12.9266 15.9377C12.2377 15.9632 11.3624 15.9519 10.5883 15.6657C10.2632 15.4984 9.82098 15.1519 9.89999 15.087C11.9321 15.8461 14.0312 15.662 15.7895 14.2525C16.2368 13.9041 16.7254 13.3114 16.8666 13.3033C16.6539 13.623 16.9029 13.4571 16.7396 13.7395C17.1853 13.0206 16.5459 13.4469 17.2004 12.4981L17.442 12.831C17.3522 12.2343 18.183 11.5098 18.0987 10.5661C18.2892 10.2775 18.3113 10.8766 18.1091 11.5405C18.3897 10.804 18.183 10.6856 18.2551 10.0779C18.333 10.2821 18.4353 10.4993 18.4877 10.7148C18.3049 10.0031 18.6754 9.51619 18.767 9.10256C18.6767 9.06251 18.4848 9.41727 18.441 8.57651C18.4474 8.21135 18.5426 8.38508 18.5793 8.29522C18.5076 8.25406 18.3195 7.9741 18.2051 7.4372C18.2881 7.31106 18.4269 7.7643 18.5397 7.78289C18.4671 7.35598 18.3421 7.03044 18.337 6.7029C18.0073 6.01374 18.2204 6.79474 17.9528 6.407C17.6018 5.31218 18.2441 6.15294 18.2874 5.65543C18.8195 6.42626 19.1229 7.62089 19.2621 8.11574C19.1559 7.51245 18.9841 6.92797 18.7745 6.36252C18.9361 6.43046 18.5143 5.12119 18.9846 5.98829C18.4822 4.1399 16.8345 2.4128 15.3188 1.60236C15.5042 1.7721 15.7384 1.98522 15.6543 2.01864C14.9005 1.56982 15.0331 1.53486 14.9251 1.34519C14.3109 1.09533 14.2706 1.36533 13.8639 1.34564C12.7064 0.731722 12.4833 0.797008 11.4182 0.412371L11.4666 0.638771C10.6998 0.383379 10.5732 0.735705 9.74441 0.639657C9.69395 0.600263 10.01 0.497133 10.27 0.459289C9.52863 0.557108 9.56338 0.313224 8.83792 0.486289C9.01674 0.360806 9.20574 0.277814 9.39651 0.171143C8.79189 0.20788 7.95312 0.523026 8.21206 0.236429C7.2259 0.676394 5.47445 1.29407 4.49161 2.21561L4.46062 2.00913C4.01026 2.54979 2.49672 3.62381 2.3761 4.32403L2.25571 4.35214C2.02134 4.74895 1.86974 5.19865 1.68384 5.60697C1.37733 6.12926 1.23458 5.80792 1.27818 5.8898C0.675332 7.1121 0.375899 8.1392 0.117188 8.98151C0.301539 9.25704 0.121614 10.6402 0.191326 11.7472C-0.111426 17.2145 4.0284 22.5228 8.55354 23.7484C9.2168 23.9857 10.2032 23.9766 11.0422 24.001C10.0523 23.7179 9.92433 23.8509 8.96008 23.5147C8.26451 23.1872 8.11202 22.8132 7.61939 22.3856L7.81436 22.7302C6.84812 22.3883 7.25245 22.307 6.46636 22.0581L6.67461 21.7861C6.36146 21.7624 5.84514 21.2583 5.70395 20.9792L5.36136 20.9927C4.94972 20.4848 4.7304 20.1187 4.74634 19.8352L4.63568 20.0324C4.5102 19.8171 3.12125 18.1276 3.84184 18.5209C3.70795 18.3985 3.53001 18.3217 3.33703 17.9711L3.48376 17.8034C3.13697 17.3572 2.8455 16.7854 2.86763 16.5948C3.05265 16.8447 3.18101 16.8914 3.30804 16.9341C2.43232 14.7612 2.38318 16.8143 1.71992 14.7223L1.86023 14.711C1.75267 14.549 1.68738 14.3731 1.60085 14.2004L1.66193 13.5918C1.03142 12.8628 1.48555 10.4922 1.57651 9.19197C1.63958 8.66326 2.10278 8.10047 2.45511 7.21789L2.24044 7.18093C2.65075 6.46521 4.58323 4.30655 5.47821 4.41765C5.91176 3.873 5.39212 4.41565 5.30736 4.27844C6.25966 3.29295 6.55909 3.5822 7.20177 3.40493C7.89492 2.99351 6.60689 3.56538 6.93554 3.24802C8.13371 2.94195 7.78471 2.55222 9.34782 2.39686C9.5127 2.4907 8.96518 2.54182 8.82774 2.66354C9.82607 2.17511 11.9869 2.28621 13.3905 2.93464C15.0191 3.69573 16.8489 5.94557 16.9211 8.06241L17.0032 8.08454C16.9616 8.92596 17.132 9.89906 16.8367 10.7929L17.0377 10.3698Z" fill="white"/>
<path d="M7.16124 13.2263L7.10547 13.5052C7.36684 13.8602 7.5742 14.2448 7.90794 14.5223C7.66782 14.0536 7.48944 13.8599 7.16124 13.2263Z" fill="white"/>
<path d="M7.78058 13.2019C7.64226 13.049 7.56037 12.8649 7.46875 12.6814C7.55639 13.0038 7.73587 13.2809 7.90296 13.5627L7.78058 13.2019Z" fill="white"/>
<path d="M18.7123 10.8254L18.6539 10.9719C18.5467 11.7328 18.3155 12.4857 17.9609 13.1837C18.3527 12.4472 18.6061 11.6416 18.7123 10.8254Z" fill="white"/>
<path d="M10.075 0.118844C10.3438 0.0203606 10.736 0.0648439 11.0213 0C10.6495 0.0312048 10.2794 0.0497948 9.91406 0.0969339L10.075 0.118844Z" fill="white"/>
<path d="M0.635116 5.13867C0.697083 5.71231 0.203561 5.93495 0.744444 5.55673C1.03436 4.90364 0.631133 5.37636 0.635116 5.13867Z" fill="white"/>
<path d="M-0.00135967 7.79342C0.123238 7.41099 0.145812 7.18127 0.193393 6.95996C-0.150965 7.40015 0.0349352 7.49398 -0.00135967 7.79342Z" fill="white"/>
</g>
<defs>
<clipPath id="clip0_706_8378">
<rect width="19.2631" height="24" fill="white"/>
</clipPath>
</defs>
</svg>
