<svg width="93" height="170" viewBox="0 0 93 170" fill="none" xmlns="http://www.w3.org/2000/svg">
<path d="M68.8127 21.2048H92.6712L85.5803 132.405L85.5797 132.414V132.424C85.5797 132.766 85.4966 133.07 85.3199 133.346C85.1417 133.624 84.8584 133.89 84.4361 134.135L84.4196 134.144L84.4044 134.156L39.2931 168.692C38.3932 169.235 37.1402 169.459 35.8244 169.396C34.5079 169.332 33.1645 168.982 32.1103 168.416C32.1087 168.415 32.1071 168.414 32.1055 168.413L1.98883 150.817L1.9703 150.806L1.95043 150.798C0.775728 150.321 0.327344 149.383 0.327344 148.58V33.2197L45.3583 21.1946L45.3977 21.1841L45.4328 21.1635L53.7077 16.3034L53.7077 16.3034L53.7119 16.3009C54.6128 15.7518 55.8716 15.5251 57.1939 15.5891C58.5102 15.6528 59.8533 16.003 60.9074 16.5687L68.6597 21.1629L68.7305 21.2048H68.8127Z" fill="#F7EEE8" stroke="#14225B" stroke-width="0.6"/>
<path d="M68.8192 21.3454H92.6976V136.899C92.6976 137.241 92.6144 137.545 92.4378 137.821C92.2595 138.1 91.9762 138.365 91.554 138.61L91.5539 138.61L39.3185 168.953C39.3185 168.953 39.3184 168.953 39.3184 168.953C38.5412 169.404 37.4322 169.658 36.2768 169.695L35.7613 53.4371L57.2267 15.6992C58.5368 15.7297 59.8393 16.1033 60.9113 16.7078L68.6663 21.3035L68.737 21.3454H68.8192Z" fill="#F7EEE8" stroke="#14225B" stroke-width="0.6"/>
<path d="M38.6281 52.3422V169.263C37.0931 169.8 35.0395 169.795 33.2805 169.136V52.3422H38.6281Z" fill="#F7EEE8" stroke="#14225B" stroke-width="0.6"/>
<path d="M39.2986 53.092L39.2986 53.0919L39.2927 53.0956C38.3878 53.6471 37.1258 53.9043 35.8071 53.8564C34.4909 53.8087 33.152 53.4581 32.1036 52.8315L32.101 52.83L1.97765 35.2301C1.97718 35.2299 1.97671 35.2296 1.97624 35.2293C0.915207 34.5949 0.391714 33.8738 0.311269 33.2337C0.233986 32.6186 0.554811 31.9635 1.46003 31.4108L53.6927 1.06977L53.6928 1.06983L53.6982 1.06653C54.6031 0.514964 55.865 0.25778 57.1838 0.305628C58.5 0.353384 59.8388 0.704027 60.8873 1.3306L60.889 1.33161L91.0132 19.0633C91.0136 19.0635 91.014 19.0638 91.0144 19.064C92.0756 19.6985 92.5992 20.4195 92.6796 21.0598C92.7569 21.6747 92.4361 22.3298 91.5311 22.8825C91.5301 22.8831 91.5291 22.8837 91.5282 22.8843L39.2986 53.092Z" fill="#F7EEE8" stroke="#14225B" stroke-width="0.6"/>
<path d="M4.92922 52.2771C5.18255 52.0757 5.56197 52.0198 6.0639 52.3024L25.8442 63.8604L25.8441 63.8604L25.848 63.8626C26.3662 64.1551 26.8477 64.6959 27.2008 65.3666C27.5527 66.0351 27.7642 66.8084 27.7642 67.5419V74.7664C27.7642 75.4363 27.5539 75.8896 27.2795 76.1078C27.0262 76.3092 26.6468 76.365 26.1449 76.0824L6.3646 64.5245L6.36462 64.5245L6.36071 64.5223C5.84251 64.2298 5.36108 63.6889 5.00797 63.0183C4.65603 62.3498 4.44453 61.5765 4.44453 60.8429V53.6185C4.44453 52.9485 4.65485 52.4952 4.92922 52.2771Z" fill="#F7EEE8" stroke="#14225B" stroke-width="0.6"/>
<path d="M20.0457 68.4579L18.2355 67.4071C17.977 67.2757 17.8477 66.8816 17.8477 66.6189V64.6486C17.8477 64.2546 18.1063 64.1232 18.2355 64.2546L20.0457 65.3054C20.3043 65.4368 20.4336 65.8308 20.4336 66.0935V68.0638C20.5629 68.4579 20.3043 68.5892 20.0457 68.4579Z" fill="#14225B"/>
<path d="M14.1121 64.9135L12.302 63.8626C12.0434 63.7313 11.9141 63.3372 11.9141 63.0745V61.1042C11.9141 60.7101 12.1727 60.5788 12.302 60.7101L14.1121 61.761C14.3707 61.8923 14.5 62.2864 14.5 62.5491V64.5194C14.5 64.9134 14.2414 65.0448 14.1121 64.9135Z" fill="#14225B"/>
<path d="M6.3646 116.41L6.36462 116.41L6.36071 116.408C5.84251 116.116 5.36108 115.575 5.00797 114.904C4.65603 114.236 4.44453 113.462 4.44453 112.729V105.504C4.44453 104.835 4.65485 104.381 4.92922 104.163C5.18255 103.962 5.56197 103.906 6.0639 104.188L25.8442 115.746L25.8441 115.746L25.848 115.749C26.3662 116.041 26.8477 116.582 27.2008 117.253C27.5527 117.921 27.7642 118.694 27.7642 119.428V126.652C27.7642 127.397 27.5496 127.84 27.2861 128.038C27.0419 128.221 26.6619 128.26 26.1449 127.968L6.3646 116.41Z" fill="#F7EEE8" stroke="#14225B" stroke-width="0.6"/>
<path d="M20.0457 120.476L18.2355 119.426C17.977 119.294 17.8477 118.9 17.8477 118.637V116.667C17.8477 116.273 18.1063 116.142 18.2355 116.273L20.0457 117.324C20.3043 117.455 20.4336 117.849 20.4336 118.112V120.082C20.5629 120.345 20.3043 120.608 20.0457 120.476Z" fill="#14225B"/>
<path d="M14.1121 116.801L12.302 115.751C12.0434 115.619 11.9141 115.225 11.9141 114.962V112.992C11.9141 112.598 12.1727 112.467 12.302 112.598L14.1121 113.649C14.3707 113.78 14.5 114.174 14.5 114.437V116.407C14.5 116.801 14.2414 117.064 14.1121 116.801Z" fill="#14225B"/>
<path d="M6.3646 142.406L6.36462 142.406L6.36071 142.404C5.84251 142.111 5.36108 141.57 5.00797 140.9C4.65603 140.231 4.44453 139.458 4.44453 138.724V131.5C4.44453 130.83 4.65485 130.377 4.92922 130.158C5.18255 129.957 5.56197 129.901 6.0639 130.184L25.8442 141.742L25.8441 141.742L25.848 141.744C26.3662 142.036 26.8477 142.577 27.2008 143.248C27.5527 143.916 27.7642 144.69 27.7642 145.423V152.648C27.7642 153.318 27.5539 153.771 27.2795 153.989C27.0262 154.191 26.6468 154.246 26.1449 153.964L6.3646 142.406Z" fill="#F7EEE8" stroke="#14225B" stroke-width="0.6"/>
<path d="M20.0457 146.341L18.2355 145.291C17.977 145.159 17.8477 144.765 17.8477 144.502V142.532C17.8477 142.138 18.1063 142.007 18.2355 142.138L20.0457 143.189C20.3043 143.32 20.4336 143.714 20.4336 143.977V145.947C20.5629 146.341 20.3043 146.473 20.0457 146.341Z" fill="#14225B"/>
<path d="M14.1121 142.798L12.302 141.747C12.0434 141.616 11.9141 141.221 11.9141 140.959V138.988C11.9141 138.594 12.1727 138.463 12.302 138.594L14.1121 139.645C14.3707 139.777 14.5 140.171 14.5 140.433V142.404C14.5 142.798 14.2414 142.929 14.1121 142.798Z" fill="#14225B"/>
<path d="M6.3646 90.3978L6.36462 90.3978L6.36071 90.3955C5.84251 90.1031 5.36108 89.5622 5.00797 88.8915C4.65603 88.2231 4.44453 87.4497 4.44453 86.7162V79.4918C4.44453 78.8218 4.65485 78.3685 4.92922 78.1504C5.18255 77.9489 5.56197 77.8931 6.0639 78.1757L25.8442 89.7336L25.8441 89.7337L25.848 89.7359C26.3662 90.0284 26.8477 90.5692 27.2008 91.2399C27.5527 91.9083 27.7642 92.6817 27.7642 93.4152V100.64C27.7642 101.384 27.5496 101.827 27.2861 102.025C27.0419 102.209 26.6619 102.247 26.1449 101.956L6.3646 90.3978Z" fill="#F7EEE8" stroke="#14225B" stroke-width="0.6"/>
<path d="M20.0457 94.4594L18.2355 93.4085C17.977 93.2772 17.8477 92.8831 17.8477 92.6204V90.6501C17.8477 90.256 18.1063 90.1247 18.2355 90.256L20.0457 91.3069C20.3043 91.4382 20.4336 91.8323 20.4336 92.095V94.0653C20.5629 94.4594 20.3043 94.5907 20.0457 94.4594Z" fill="#14225B"/>
<path d="M14.1121 90.9186L12.302 89.8678C12.0434 89.7364 11.9141 89.3423 11.9141 89.0796V87.1093C11.9141 86.7153 12.1727 86.5839 12.302 86.7153L14.1121 87.7661C14.3707 87.8975 14.5 88.2915 14.5 88.5542V90.5245C14.5 90.9186 14.2414 91.0499 14.1121 90.9186Z" fill="#14225B"/>
<path d="M88.6973 41.933L43.0687 68.7216C42.6306 68.9416 42.3147 68.8868 42.1087 68.7194C41.8827 68.5357 41.7023 68.1486 41.7023 67.5402V58.7395C41.7023 58.1376 41.8814 57.4612 42.1873 56.8551C42.4931 56.2494 42.9119 55.7407 43.369 55.4489L88.9976 28.6604C89.4533 28.4312 89.769 28.4697 89.965 28.6191C90.1789 28.7821 90.364 29.1581 90.364 29.8418V38.6424C90.364 39.2444 90.185 39.9207 89.879 40.5268C89.5732 41.1326 89.1544 41.6413 88.6973 41.933Z" fill="#F7EEE8" stroke="#14225B" stroke-width="0.6"/>
<path d="M78.6238 42.4563L85.0886 38.6471C85.6058 38.3844 85.9937 37.5962 85.9937 36.9395C85.9937 36.2827 85.6058 35.8887 85.0886 36.2827L78.6238 40.092C78.1066 40.3547 77.7188 41.1428 77.7188 41.7995C77.7187 42.4563 78.1066 42.719 78.6238 42.4563Z" fill="#14225B"/>
<path d="M73.082 44.4271C73.082 45.0841 73.5994 45.3469 74.1168 45.0841C74.6341 44.6899 75.1515 43.9015 75.1515 43.2445C75.1515 42.5875 74.6341 42.3247 74.1168 42.5875C73.5994 42.9817 73.082 43.7701 73.082 44.4271Z" fill="#14225B"/>
<path d="M69.4492 46.6561C69.4492 47.3132 69.9666 47.576 70.484 47.3132C71.0013 46.9189 71.5187 46.1305 71.5187 45.4735C71.5187 44.8165 71.0013 44.5537 70.484 44.8165C69.8373 45.0793 69.4492 45.9991 69.4492 46.6561Z" fill="#14225B"/>
<path d="M65.7188 48.7582C65.7188 49.4152 66.2361 49.678 66.7535 49.4152C67.2709 49.021 67.7882 48.2326 67.7882 47.5756C67.7882 46.9186 67.2709 46.6558 66.7535 46.9186C66.1068 47.3128 65.7188 48.1012 65.7188 48.7582Z" fill="#14225B"/>
<path d="M61.9766 50.9852C61.9766 51.6422 62.4939 51.9051 63.0113 51.6422C63.5287 51.248 64.0461 50.4596 64.0461 49.8026C64.0461 49.1456 63.5287 48.8828 63.0113 49.1456C62.4939 49.5398 61.9766 50.3282 61.9766 50.9852Z" fill="#14225B"/>
<path d="M46.3144 62.157L48.5125 60.8435C48.7711 60.7121 49.159 60.1867 49.159 59.6613V57.2969C49.159 56.9029 48.9004 56.6402 48.5125 56.9029L46.3144 58.2164C46.0559 58.3478 45.668 58.8732 45.668 59.3986V61.7629C45.7973 62.157 46.0559 62.2884 46.3144 62.157Z" fill="#14225B"/>
<path d="M43.0606 84.2254L43.0605 84.2252L43.0517 84.2308C42.6009 84.5171 42.2976 84.4705 42.1087 84.317C41.8885 84.138 41.7023 83.7246 41.7023 83.0392V74.2385C41.7023 73.6366 41.8814 72.9602 42.1873 72.3542C42.4931 71.7484 42.9119 71.2397 43.369 70.948L88.9976 44.1594C89.4533 43.9302 89.769 43.9688 89.965 44.1181C90.1789 44.2811 90.364 44.6571 90.364 45.3408V54.1415C90.364 54.7434 90.185 55.4198 89.879 56.0258C89.5732 56.6316 89.1544 57.1403 88.6973 57.4321L43.0606 84.2254Z" fill="#F7EEE8" stroke="#14225B" stroke-width="0.6"/>
<path d="M78.6238 58.0791L85.0886 54.2699C85.6058 54.0072 85.9937 53.219 85.9937 52.5623C85.9937 51.9055 85.6058 51.5115 85.0886 51.9055L78.6238 55.7148C78.1066 55.9775 77.7188 56.7656 77.7188 57.4224C77.7187 58.0791 78.1066 58.3418 78.6238 58.0791Z" fill="#14225B"/>
<path d="M73.082 60.0543C73.082 60.7113 73.5994 60.9741 74.1168 60.7113C74.6341 60.3171 75.1515 59.5287 75.1515 58.8717C75.1515 58.2147 74.6341 57.9519 74.1168 58.2147C73.5994 58.4775 73.082 59.3973 73.082 60.0543Z" fill="#14225B"/>
<path d="M69.4492 62.2892C69.4492 62.9462 69.9666 63.209 70.484 62.9462C71.0013 62.552 71.5187 61.7636 71.5187 61.1066C71.5187 60.4496 71.0013 60.1868 70.484 60.4496C69.8373 60.7124 69.4492 61.5008 69.4492 62.2892Z" fill="#14225B"/>
<path d="M65.7188 64.3917C65.7188 65.0487 66.2361 65.3116 66.7535 65.0487C67.2709 64.6545 67.7882 63.8661 67.7882 63.2091C67.7882 62.5521 67.2709 62.2893 66.7535 62.5521C66.1068 62.9463 65.7188 63.7347 65.7188 64.3917Z" fill="#14225B"/>
<path d="M61.9766 66.6203C61.9766 67.2773 62.4939 67.5401 63.0113 67.2773C63.5287 66.8831 64.0461 66.0947 64.0461 65.4376C64.0461 64.7806 63.5287 64.5178 63.0113 64.7806C62.4939 65.0434 61.9766 65.9633 61.9766 66.6203Z" fill="#14225B"/>
<path d="M46.3144 77.656L48.5125 76.3425C48.7711 76.2111 49.159 75.6857 49.159 75.1603V72.796C49.159 72.4019 48.9004 72.1392 48.5125 72.4019L46.3144 73.7154C46.0559 73.8468 45.668 74.3722 45.668 74.8976V77.262C45.7973 77.656 46.0559 77.9187 46.3144 77.656Z" fill="#14225B"/>
<path d="M88.6973 73.0612L43.0687 99.8498C42.6131 100.079 42.2974 100.04 42.1013 99.891C41.8874 99.7281 41.7023 99.3521 41.7023 98.6684V89.8677C41.7023 89.2658 41.8814 88.5894 42.1873 87.9833C42.4931 87.3775 42.9119 86.8688 43.369 86.5771L88.9976 59.7885C89.4533 59.5594 89.769 59.5979 89.965 59.7473C90.1789 59.9102 90.364 60.2862 90.364 60.9699V69.7706C90.364 70.3725 90.185 71.0489 89.879 71.655C89.5732 72.2608 89.1544 72.7695 88.6973 73.0612Z" fill="#F7EEE8" stroke="#14225B" stroke-width="0.6"/>
<path d="M78.6238 73.7085L85.0886 69.8993C85.6058 69.6366 85.9937 68.8484 85.9937 68.1917C85.9937 67.5349 85.6058 67.1408 85.0886 67.5349L78.6238 71.3442C78.1066 71.6069 77.7188 72.395 77.7188 73.0517C77.7187 73.7085 78.1066 73.9712 78.6238 73.7085Z" fill="#14225B"/>
<path d="M73.082 75.684C73.082 76.341 73.5994 76.6038 74.1168 76.341C74.6341 75.9468 75.1515 75.1584 75.1515 74.5014C75.1515 73.8444 74.6341 73.5816 74.1168 73.8444C73.5994 74.1072 73.082 75.027 73.082 75.684Z" fill="#14225B"/>
<path d="M69.4492 77.7929C69.4492 78.4499 69.9666 78.7127 70.484 78.4499C71.0013 78.0557 71.5187 77.2673 71.5187 76.6103C71.5187 75.9532 71.0013 75.6904 70.484 75.9532C69.8373 76.3474 69.4492 77.1359 69.4492 77.7929Z" fill="#14225B"/>
<path d="M65.7188 80.0214C65.7188 80.6784 66.2361 80.9412 66.7535 80.6784C67.2709 80.2842 67.7882 79.4958 67.7882 78.8388C67.7882 78.1818 67.2709 77.919 66.7535 78.1818C66.1068 78.4446 65.7188 79.3644 65.7188 80.0214Z" fill="#14225B"/>
<path d="M61.9766 82.121C61.9766 82.778 62.4939 83.0408 63.0113 82.778C63.5287 82.3838 64.0461 81.5954 64.0461 80.9384C64.0461 80.2814 63.5287 80.0186 63.0113 80.2814C62.4939 80.6756 61.9766 81.464 61.9766 82.121Z" fill="#14225B"/>
<path d="M46.3144 93.2849L48.5125 91.9714C48.7711 91.84 49.159 91.3146 49.159 90.7892V88.4249C49.159 88.0308 48.9004 87.7681 48.5125 88.0308L46.3144 89.3443C46.0559 89.4757 45.668 90.0011 45.668 90.5265V92.8909C45.7973 93.2849 46.0559 93.5476 46.3144 93.2849Z" fill="#14225B"/>
<path d="M88.6973 88.6938L43.0687 115.482C42.6306 115.702 42.3147 115.648 42.1087 115.48C41.8827 115.296 41.7023 114.909 41.7023 114.301V105.5C41.7023 104.898 41.8814 104.222 42.1873 103.616C42.4931 103.01 42.9119 102.501 43.369 102.21L88.9976 75.4211C89.4533 75.1919 89.769 75.2305 89.965 75.3798C90.1789 75.5428 90.364 75.9188 90.364 76.6025V85.4032C90.364 86.0051 90.185 86.6815 89.879 87.2876C89.5732 87.8933 89.1544 88.402 88.6973 88.6938Z" fill="#F7EEE8" stroke="#14225B" stroke-width="0.6"/>
<path d="M78.6238 89.2122L85.0886 85.4029C85.6058 85.1402 85.9937 84.3521 85.9937 83.6953C85.9937 83.0386 85.6058 82.6445 85.0886 83.0386L78.6238 86.8478C78.1066 87.1105 77.7188 87.8986 77.7188 88.5554C77.7187 89.2122 78.1066 89.6062 78.6238 89.2122Z" fill="#14225B"/>
<path d="M73.082 91.1852C73.082 91.8422 73.5994 92.105 74.1168 91.8422C74.6341 91.448 75.1515 90.6596 75.1515 90.0026C75.1515 89.3456 74.6341 89.0828 74.1168 89.3456C73.5994 89.7398 73.082 90.5282 73.082 91.1852Z" fill="#14225B"/>
<path d="M69.4492 93.4169C69.4492 94.0739 69.9666 94.3367 70.484 94.0739C71.0013 93.6797 71.5187 92.8913 71.5187 92.2343C71.5187 91.5773 71.0013 91.3145 70.484 91.5773C69.8373 91.8401 69.4492 92.7599 69.4492 93.4169Z" fill="#14225B"/>
<path d="M65.7188 95.6508C65.7188 96.3078 66.2361 96.5706 66.7535 96.3078C67.2709 95.9136 67.7882 95.1252 67.7882 94.4682C67.7882 93.8112 67.2709 93.5484 66.7535 93.8112C66.1068 94.074 65.7188 94.8624 65.7188 95.6508Z" fill="#14225B"/>
<path d="M61.9766 97.7538C61.9766 98.4108 62.4939 98.6736 63.0113 98.4108C63.5287 98.0166 64.0461 97.2282 64.0461 96.5712C64.0461 95.9142 63.5287 95.6514 63.0113 95.9142C62.4939 96.3084 61.9766 97.0968 61.9766 97.7538Z" fill="#14225B"/>
<path d="M46.3144 108.917L48.5125 107.604C48.7711 107.472 49.159 106.947 49.159 106.422V104.057C49.159 103.663 48.9004 103.4 48.5125 103.663L46.3144 104.977C46.0559 105.108 45.668 105.633 45.668 106.159V108.523C45.7973 108.917 46.0559 109.049 46.3144 108.917Z" fill="#14225B"/>
<path d="M43.0606 130.994L43.0605 130.994L43.0517 131C42.6009 131.286 42.2976 131.24 42.1087 131.086C41.8885 130.907 41.7023 130.494 41.7023 129.808V121.008C41.7023 120.406 41.8814 119.729 42.1873 119.123C42.4931 118.517 42.9119 118.009 43.369 117.717L88.9976 90.9284C89.4533 90.6993 89.769 90.7378 89.965 90.8872C90.1789 91.0501 90.364 91.4261 90.364 92.1098V100.911C90.364 101.512 90.185 102.189 89.879 102.795C89.5732 103.401 89.1544 103.909 88.6973 104.201L43.0606 130.994Z" fill="#F7EEE8" stroke="#14225B" stroke-width="0.6"/>
<path d="M78.6238 104.848L85.0886 101.039C85.6058 100.776 85.9937 99.9881 85.9937 99.3313C85.9937 98.6746 85.6058 98.2805 85.0886 98.6746L78.6238 102.484C78.1066 102.747 77.7188 103.535 77.7188 104.191C77.7187 104.848 78.1066 105.111 78.6238 104.848Z" fill="#14225B"/>
<path d="M73.082 106.824C73.082 107.481 73.5994 107.743 74.1168 107.481C74.6341 107.086 75.1515 106.298 75.1515 105.641C75.1515 104.984 74.6341 104.721 74.1168 104.984C73.5994 105.378 73.082 106.167 73.082 106.824Z" fill="#14225B"/>
<path d="M69.4492 109.058C69.4492 109.715 69.9666 109.978 70.484 109.715C71.0013 109.321 71.5187 108.532 71.5187 107.875C71.5187 107.218 71.0013 106.956 70.484 107.218C69.8373 107.481 69.4492 108.401 69.4492 109.058Z" fill="#14225B"/>
<path d="M65.7188 111.163C65.7188 111.82 66.2361 112.083 66.7535 111.82C67.2709 111.426 67.7882 110.638 67.7882 109.981C67.7882 109.324 67.2709 109.061 66.7535 109.324C66.1068 109.718 65.7188 110.506 65.7188 111.163Z" fill="#14225B"/>
<path d="M61.9766 113.387C61.9766 114.044 62.4939 114.307 63.0113 114.044C63.5287 113.65 64.0461 112.861 64.0461 112.204C64.0461 111.547 63.5287 111.285 63.0113 111.547C62.4939 111.81 61.9766 112.73 61.9766 113.387Z" fill="#14225B"/>
<path d="M46.3144 124.551L48.5125 123.238C48.7711 123.106 49.159 122.581 49.159 122.055V119.691C49.159 119.297 48.9004 119.034 48.5125 119.297L46.3144 120.61C46.0559 120.742 45.668 121.267 45.668 121.793V124.157C45.7973 124.42 46.0559 124.682 46.3144 124.551Z" fill="#14225B"/>
<path d="M43.0606 146.621L43.0605 146.621L43.0517 146.626C42.6009 146.912 42.2976 146.866 42.1087 146.712C41.8885 146.533 41.7023 146.12 41.7023 145.434V136.634C41.7023 136.032 41.8814 135.356 42.1873 134.749C42.4931 134.144 42.9119 133.635 43.369 133.343L88.9976 106.555C89.4533 106.325 89.769 106.364 89.965 106.513C90.1789 106.676 90.364 107.052 90.364 107.736V116.537C90.364 117.139 90.185 117.815 89.879 118.421C89.5732 119.027 89.1544 119.536 88.6973 119.827L43.0606 146.621Z" fill="#F7EEE8" stroke="#14225B" stroke-width="0.6"/>
<path d="M78.6238 120.474L85.0886 116.665C85.6058 116.402 85.9937 115.614 85.9937 114.958C85.9937 114.301 85.6058 113.907 85.0886 114.301L78.6238 118.11C78.1066 118.373 77.7188 119.161 77.7188 119.818C77.7187 120.474 78.1066 120.737 78.6238 120.474Z" fill="#14225B"/>
<path d="M73.082 122.45C73.082 123.107 73.5994 123.369 74.1168 123.107C74.6341 122.712 75.1515 121.924 75.1515 121.267C75.1515 120.61 74.6341 120.347 74.1168 120.61C73.5994 120.873 73.082 121.793 73.082 122.45Z" fill="#14225B"/>
<path d="M69.4492 124.55C69.4492 125.207 69.9666 125.47 70.484 125.207C71.0013 124.813 71.5187 124.024 71.5187 123.367C71.5187 122.71 71.0013 122.448 70.484 122.71C69.8373 123.105 69.4492 123.893 69.4492 124.55Z" fill="#14225B"/>
<path d="M65.7188 126.784C65.7188 127.441 66.2361 127.704 66.7535 127.441C67.2709 127.047 67.7882 126.258 67.7882 125.601C67.7882 124.944 67.2709 124.682 66.7535 124.944C66.1068 125.207 65.7188 126.127 65.7188 126.784Z" fill="#14225B"/>
<path d="M61.9766 129.016C61.9766 129.673 62.4939 129.935 63.0113 129.673C63.5287 129.278 64.0461 128.49 64.0461 127.833C64.0461 127.176 63.5287 126.913 63.0113 127.176C62.4939 127.439 61.9766 128.227 61.9766 129.016Z" fill="#14225B"/>
<path d="M46.3144 140.046L48.5125 138.732C48.7711 138.601 49.159 138.075 49.159 137.55V135.317C49.159 134.923 48.9004 134.66 48.5125 134.923L46.3144 136.236C46.0559 136.368 45.668 136.893 45.668 137.419V139.783C45.7973 140.046 46.0559 140.308 46.3144 140.046Z" fill="#14225B"/>
<path d="M88.6973 135.467L43.0687 162.256C42.6306 162.476 42.3147 162.421 42.1087 162.254C41.8827 162.07 41.7023 161.683 41.7023 161.074V152.274C41.7023 151.672 41.8814 150.995 42.1873 150.389C42.4931 149.784 42.9119 149.275 43.369 148.983L88.9976 122.195C89.4533 121.965 89.769 122.004 89.965 122.153C90.1789 122.316 90.364 122.692 90.364 123.376V132.177C90.364 132.779 90.185 133.455 89.879 134.061C89.5732 134.667 89.1544 135.175 88.6973 135.467Z" fill="#F7EEE8" stroke="#14225B" stroke-width="0.6"/>
<path d="M78.6238 135.99L85.0886 132.181C85.6058 131.918 85.9937 131.13 85.9937 130.473C85.9937 129.816 85.6058 129.422 85.0886 129.816L78.6238 133.626C78.1066 133.888 77.7188 134.676 77.7188 135.333C77.7187 135.99 78.1066 136.384 78.6238 135.99Z" fill="#14225B"/>
<path d="M71.9023 138.875C71.9023 140.188 72.8074 140.714 73.8418 140.057C74.8761 139.4 75.7812 137.824 75.7812 136.511C75.7812 135.197 74.8761 134.672 73.8418 135.328C72.8074 135.985 71.9023 137.561 71.9023 138.875Z" fill="#14225B"/>
<path d="M64.2773 143.474C64.2773 144.131 64.7947 144.394 65.3121 144.131C65.8295 143.737 66.3468 142.949 66.3468 142.292C66.3468 141.635 65.8295 141.372 65.3121 141.635C64.6654 141.897 64.2773 142.817 64.2773 143.474Z" fill="#14225B"/>
<path d="M60.5508 145.577C60.5508 146.234 61.0682 146.497 61.5855 146.234C62.1029 145.84 62.6203 145.052 62.6203 144.395C62.6203 143.738 62.1029 143.475 61.5855 143.738C61.0682 144.132 60.5508 144.92 60.5508 145.577Z" fill="#14225B"/>
<path d="M56.793 147.808C56.793 148.465 57.3103 148.727 57.8277 148.465C58.3451 148.07 58.8625 147.282 58.8625 146.625C58.8625 145.968 58.3451 145.705 57.8277 145.968C57.3103 146.231 56.793 147.151 56.793 147.808Z" fill="#14225B"/>
<path d="M46.3144 155.686L48.5125 154.372C48.7711 154.241 49.159 153.715 49.159 153.19V150.825C49.159 150.431 48.9004 150.169 48.5125 150.431L46.3144 151.745C46.0559 151.876 45.668 152.402 45.668 152.927V155.292C45.7973 155.686 46.0559 155.817 46.3144 155.686Z" fill="#14225B"/>
<path d="M65.2937 13.466L63.7758 14.3409L63.0182 13.899C63.5645 13.7571 64.1019 13.61 64.6301 13.4371C64.6654 13.427 64.7005 13.4065 64.7268 13.3911C64.8584 13.3144 64.8921 13.1907 64.8022 13.0872C64.6768 12.9628 64.4197 12.9152 64.2084 12.9864C62.0953 13.6575 59.7846 14.1007 57.4086 14.3012L57.3908 14.2908L57.3645 14.3062C56.4105 14.3843 55.4385 14.4314 54.4747 14.4321L54.439 14.4113L54.3952 14.4369C53.166 14.4364 51.945 14.3792 50.723 14.2498C50.7053 14.2497 50.7053 14.2497 50.6876 14.2496C50.6699 14.2495 50.6699 14.2495 50.6522 14.2494C50.6345 14.2494 50.6168 14.2493 50.5904 14.2543L50.5727 14.2542C50.5727 14.2542 50.5727 14.2542 50.5639 14.2593C50.5462 14.2593 50.5198 14.2643 50.511 14.2694C50.5022 14.2745 50.4933 14.2693 50.4845 14.2745C50.4669 14.2744 50.4493 14.2846 50.4405 14.2897C50.4318 14.2948 50.4318 14.2948 50.4141 14.2948C50.4053 14.2999 50.3878 14.3101 50.3701 14.31C50.3613 14.3151 50.3613 14.3151 50.3525 14.3203C50.335 14.3305 50.3262 14.3356 50.3087 14.3458C50.2999 14.351 50.2999 14.351 50.2911 14.3561C50.2823 14.3612 50.2737 14.3766 50.2649 14.3818C50.2562 14.3869 50.2562 14.3869 50.2563 14.3972C50.2564 14.4075 50.2477 14.4126 50.239 14.4281C50.2303 14.4332 50.2304 14.4435 50.2216 14.4486C50.2216 14.4486 50.2129 14.4537 50.2218 14.4589C50.2219 14.4692 50.2219 14.4692 50.222 14.4796C50.2222 14.4899 50.2134 14.495 50.2223 14.5002C50.2225 14.5105 50.2226 14.5208 50.2227 14.5311L50.2229 14.5414C51.3985 18.4203 49.2769 22.382 44.557 25.135C44.5394 25.1453 44.5219 25.1555 44.5132 25.1709C44.4957 25.1812 44.4692 25.1862 44.4517 25.1964C39.7317 27.9495 32.9397 29.187 26.2897 28.5013C26.2808 28.4961 26.272 28.5012 26.272 28.5012C26.2543 28.5011 26.2366 28.501 26.2189 28.5009C26.2012 28.5009 26.1925 28.506 26.1836 28.5008C26.1659 28.5007 26.1659 28.5007 26.1482 28.5006C26.1482 28.5006 26.1394 28.5057 26.1305 28.5005C26.1128 28.5005 26.104 28.5056 26.0864 28.5055C26.0687 28.5054 26.0599 28.5105 26.0334 28.5156C26.0247 28.5207 26.007 28.5206 26.007 28.5206C25.9982 28.5257 25.9717 28.5308 25.963 28.5359C25.9542 28.541 25.9542 28.541 25.9454 28.5461C25.9279 28.5563 25.9191 28.5615 25.9016 28.5717C25.8928 28.5768 25.8928 28.5768 25.884 28.5819C25.8665 28.5922 25.8577 28.5973 25.8491 28.6127C25.8403 28.6178 25.8403 28.6178 25.8404 28.6281C25.8229 28.6384 25.823 28.6487 25.8142 28.6538C25.8055 28.6589 25.8144 28.6641 25.8056 28.6692C25.797 28.6847 25.7971 28.695 25.7883 28.7001C25.7883 28.7001 25.7883 28.7001 25.7796 28.7052L25.7797 28.7155C25.7799 28.7259 25.78 28.7362 25.7714 28.7516C25.7715 28.7619 25.7715 28.7619 25.7716 28.7722C25.7718 28.7826 25.7718 28.7826 25.7719 28.7929C25.9849 29.5005 26.0919 30.2179 26.0928 30.9348L26.0489 30.9604L26.0846 30.9812C26.0746 31.5485 26.0026 32.1103 25.8687 32.6668L25.8423 32.6821L25.8602 32.6925C25.5342 34.0887 24.7744 35.4366 23.6239 36.6691C23.5017 36.7923 23.5923 36.9475 23.7966 37.0155C23.9654 37.073 24.1773 37.0533 24.3177 36.9715C24.344 36.9561 24.3791 36.9356 24.3965 36.9151C24.6842 36.6121 24.9452 36.2935 25.1884 35.9749L25.946 36.4168L24.4371 37.2969C24.2704 37.3942 24.2726 37.5592 24.4419 37.658C24.6113 37.7568 24.8943 37.7581 25.061 37.6609L45.3431 25.7266C45.3607 25.7164 45.3782 25.7062 45.3869 25.6907C45.4044 25.6805 45.4309 25.6755 45.4484 25.6652L65.9089 13.835C66.0755 13.7378 66.0733 13.5727 65.904 13.4739C65.7434 13.37 65.4604 13.3687 65.2937 13.466ZM63.1617 14.6991L62.1966 15.262L60.7171 14.399C61.2023 14.3136 61.6873 14.2178 62.1545 14.1117L63.1617 14.6991ZM59.7553 14.5545L61.5736 15.615L60.6086 16.1779L58.1753 14.7587C58.705 14.6992 59.2436 14.6346 59.7553 14.5545ZM57.1066 14.8517L59.9855 16.5309L59.0205 17.0938L55.3305 14.9415C55.9315 14.9237 56.5235 14.8903 57.1066 14.8517ZM51.4056 16.3366C51.3912 15.9291 51.3327 15.5265 51.2476 15.1187L56.8183 18.3679L55.8532 18.9308L51.4056 16.3366ZM52.0667 14.88C52.7481 14.9193 53.4382 14.9431 54.1192 14.9514L58.4063 17.452L57.4413 18.0149L52.0667 14.88ZM51.4065 17.0536L55.2391 19.2891L54.274 19.8519L51.2703 18.0999C51.3453 17.7547 51.3846 17.399 51.4065 17.0536ZM36.028 28.6958C37.9776 28.3592 39.8544 27.8676 41.5699 27.2204L37.5521 29.5848L36.028 28.6958ZM36.938 29.943L35.9729 30.5059L33.4505 29.0346C33.9892 28.9804 34.5189 28.9209 35.0573 28.846L36.938 29.943ZM50.7964 19.6657C50.9337 19.3569 51.0356 19.0479 51.1197 18.7285L53.6421 20.1998L52.6771 20.7627L50.7964 19.6657ZM52.0629 21.1209L48.0094 23.4644C49.1189 22.4638 49.9618 21.3691 50.5388 20.2319L52.0629 21.1209ZM32.3729 29.1225L35.3588 30.8641L34.3938 31.427L30.5611 29.1915C31.18 29.184 31.7811 29.1662 32.3729 29.1225ZM26.975 30.7841C26.9608 30.3869 26.9288 29.9896 26.8526 29.587L32.2183 32.7167L31.2532 33.2796L26.975 30.7841ZM27.2618 29.1092C27.961 29.1589 28.6512 29.193 29.3499 29.2014L33.7886 31.7904L32.8235 32.3533L27.2618 29.1092ZM30.648 33.643L29.683 34.2059L26.8041 32.5267C26.879 32.1814 26.9362 31.8361 26.958 31.4907L30.648 33.643ZM29.0778 34.5693L28.1127 35.1322L26.2945 34.0716C26.4318 33.7628 26.5426 33.459 26.6356 33.1448L29.0778 34.5693ZM25.5353 35.471C25.7173 35.1985 25.8815 34.9156 26.028 34.6326L27.4986 35.4904L26.5336 36.0533L25.5353 35.471Z" fill="#14225B"/>
<path d="M28.5303 39.0861L30.4937 37.9409L36.5269 41.46L37.478 40.9053L31.4447 37.3862L33.4034 36.2437L32.6271 35.7909L27.7539 38.6333L28.5303 39.0861Z" fill="#14225B"/>
<path d="M37.6242 38.3157C38.3102 38.7158 39.0457 38.9251 39.8308 38.9436C40.616 38.9622 41.3538 38.77 42.0444 38.3673C42.5246 38.0871 42.8266 37.8055 42.9502 37.5225C43.0707 37.2376 43.0675 36.9812 42.9405 36.7533L41.8836 36.9388C41.9484 37.1047 41.9427 37.2772 41.8666 37.4561C41.7874 37.6333 41.6096 37.8024 41.3334 37.9635C40.9285 38.1997 40.479 38.2982 39.9849 38.2591C39.4909 38.2162 39.01 38.0584 38.5423 37.7856L38.3366 37.6656C37.8969 37.4092 37.6357 37.1414 37.5528 36.8624C37.4699 36.5834 37.6231 36.3304 38.0124 36.1033C38.3765 35.891 38.7555 35.8044 39.1494 35.8438C39.5465 35.8814 39.8963 35.9883 40.1987 36.1648L40.2502 36.1948L37.6323 37.7217L38.231 38.0709L41.7528 36.0166L41.4442 35.8366C40.7582 35.4365 40.0556 35.2226 39.3362 35.1948C38.6137 35.1652 37.9386 35.3334 37.3108 35.6996C36.683 36.0658 36.3834 36.4806 36.412 36.944C36.4438 37.4056 36.798 37.8337 37.4746 38.2284L37.6242 38.3157Z" fill="#14225B"/>
<path d="M42.1218 33.8646L43.6379 32.9803L47.3514 35.1463L48.2648 34.6135L43.8311 32.0274L40.6106 33.9058L42.9388 35.4176C43.3721 35.696 43.6477 35.9117 43.7657 36.0647C43.8837 36.2178 43.8485 36.3492 43.6602 36.4591C43.6068 36.4902 43.5566 36.5158 43.5096 36.536C43.4657 36.5543 43.4171 36.5718 43.3638 36.5883L44.1308 37.0357C44.2029 37.0191 44.2812 36.9916 44.3659 36.9531C44.4506 36.9146 44.5369 36.8697 44.6248 36.8185C45.0391 36.5768 45.1783 36.3174 45.0422 36.0403C44.9093 35.7614 44.5124 35.4109 43.8516 34.9889L42.1218 33.8646Z" fill="#14225B"/>
<path d="M46.9374 32.8835C47.6233 33.2836 48.3589 33.4929 49.144 33.5114C49.9291 33.53 50.6669 33.3379 51.3575 32.9351C51.8377 32.6549 52.1397 32.3733 52.2633 32.0903C52.3838 31.8054 52.3806 31.549 52.2537 31.3212L51.1968 31.5066C51.2615 31.6725 51.2558 31.845 51.1797 32.024C51.1005 32.2011 50.9228 32.3702 50.6465 32.5314C50.2416 32.7675 49.7921 32.866 49.2981 32.8269C48.804 32.784 48.3232 32.6262 47.8555 32.3534L47.6497 32.2334C47.2101 31.977 46.9488 31.7092 46.8659 31.4302C46.7831 31.1512 46.9363 30.8982 47.3255 30.6711C47.6896 30.4588 48.0686 30.3723 48.4626 30.4116C48.8597 30.4492 49.2094 30.5562 49.5119 30.7326L49.5633 30.7626L46.9455 32.2895L47.5441 32.6387L51.066 30.5845L50.7573 30.4044C50.0713 30.0043 49.3687 29.7904 48.6493 29.7626C47.9268 29.733 47.2517 29.9013 46.6239 30.2674C45.9961 30.6336 45.6966 31.0484 45.7252 31.5118C45.7569 31.9734 46.1111 32.4015 46.7877 32.7962L46.9374 32.8835Z" fill="#14225B"/>
<path d="M53.9007 31.3262L54.7388 30.8373L51.8672 29.1623C51.7393 29.0878 51.6162 29.0196 51.4976 28.9578C51.3823 28.8941 51.2653 28.8314 51.1468 28.7696L51.175 28.7531C51.3124 28.8039 51.4607 28.8538 51.62 28.9028C51.7761 28.9499 51.9323 28.9934 52.0885 29.0333L56.1466 30.0162L56.9047 29.574L55.2101 27.2179C55.1325 27.1104 55.0548 27.0139 54.9771 26.9283C54.8994 26.839 54.8201 26.7543 54.7393 26.6742L54.7675 26.6577C54.8735 26.7268 54.9826 26.796 55.0948 26.8651C55.2039 26.9324 55.3224 27.0033 55.4502 27.0779L58.3172 28.7501L59.2165 28.2256L54.7827 25.6395L53.5209 26.3755L55.2015 28.7179C55.276 28.8163 55.3412 28.9019 55.3971 28.9748C55.453 29.044 55.5167 29.1142 55.5883 29.1852L55.5647 29.1989C55.4461 29.1553 55.3274 29.1173 55.2088 29.0846C55.0901 29.0484 54.9448 29.0094 54.773 28.9678L50.7477 27.993L49.467 28.74L53.9007 31.3262Z" fill="#14225B"/>
<path d="M57.8796 26.5011C58.5562 26.8957 59.2996 27.0986 60.1098 27.1098C60.9168 27.1192 61.65 26.9316 62.3091 26.5472C62.9683 26.1627 63.2899 25.7351 63.2738 25.2643C63.2577 24.7899 62.9114 24.3554 62.2348 23.9607L62.0852 23.8735C61.4117 23.4806 60.6683 23.2795 59.855 23.2702C59.0448 23.259 58.3101 23.4456 57.6509 23.8301C56.9949 24.2128 56.6749 24.6413 56.6909 25.1157C56.7101 25.5883 57.0565 26.021 57.7299 26.4138L57.8796 26.5011ZM58.6435 25.8591C58.1976 25.599 57.9395 25.3258 57.8692 25.0395C57.7989 24.7495 57.9662 24.4864 58.3712 24.2502C58.7792 24.0122 59.2303 23.9146 59.7243 23.9574C60.2152 23.9984 60.6836 24.149 61.1295 24.4091L61.3119 24.5154C61.7609 24.7773 62.0236 25.0533 62.1002 25.3432C62.1736 25.6314 62.0063 25.8945 61.5982 26.1325C61.1902 26.3705 60.7391 26.4681 60.2451 26.4253C59.7479 26.3806 59.2764 26.2283 58.8306 25.9682L58.6435 25.8591Z" fill="#14225B"/>
<path d="M62.7763 23.6449C63.4685 24.0487 64.2071 24.258 64.9923 24.2729C65.7774 24.2877 66.4902 24.1084 67.1305 23.7349C67.752 23.3724 68.0732 23.005 68.0941 22.6327C68.115 22.2568 67.8854 21.927 67.4053 21.6433L67.3398 21.5996L66.4453 22.1214L66.5061 22.1569C66.796 22.3296 66.9404 22.5164 66.9392 22.7171C66.9412 22.916 66.7712 23.1152 66.429 23.3148C66.0461 23.5382 65.6154 23.6275 65.137 23.5828C64.6555 23.5363 64.1856 23.3794 63.7272 23.1121L63.5402 23.0029C63.0569 22.7211 62.7863 22.4442 62.7284 22.1725C62.6674 21.8989 62.8284 21.6504 63.2114 21.427C63.5409 21.2348 63.8747 21.1383 64.2125 21.1377C64.5504 21.1334 64.8628 21.2149 65.1497 21.3822L65.2105 21.4176L66.1097 20.8931L66.0349 20.8494C65.5422 20.573 64.9814 20.4419 64.3525 20.4559C63.7237 20.4662 63.0969 20.6536 62.4723 21.0179C61.8288 21.3932 61.5183 21.809 61.5407 22.2651C61.5662 22.7194 61.9282 23.1502 62.6266 23.5576L62.7763 23.6449Z" fill="#14225B"/>
<path d="M63.1838 18.8734L65.1472 17.7281L71.1804 21.2472L72.1315 20.6925L66.0983 17.1734L68.0569 16.0309L67.2806 15.5781L62.4074 18.4205L63.1838 18.8734Z" fill="#14225B"/>
</svg>
