<svg width="168" height="48" viewBox="0 0 168 48" fill="none" xmlns="http://www.w3.org/2000/svg">
<path d="M161.778 48H6.22222C2.73778 48 0 45.24 0 42V6C0 2.64 2.86222 0 6.22222 0H161.778C165.262 0 168 2.76 168 6V42C168 45.24 165.262 48 161.778 48Z" fill="#0F5FFF"/>
<path d="M84.8414 25.8802C81.9614 25.8802 79.6814 28.0402 79.6814 31.0402C79.6814 33.9202 81.9614 36.2002 84.8414 36.2002C87.7214 36.2002 90.0014 34.0402 90.0014 31.0402C90.0014 27.9202 87.7214 25.8802 84.8414 25.8802ZM84.8414 34.0402C83.2814 34.0402 81.9614 32.7202 81.9614 30.9202C81.9614 29.1202 83.2814 27.8002 84.8414 27.8002C86.4014 27.8002 87.7214 29.0002 87.7214 30.9202C87.7214 32.7202 86.4014 34.0402 84.8414 34.0402ZM73.6814 25.8802C70.8014 25.8802 68.5214 28.0402 68.5214 31.0402C68.5214 33.9202 70.8014 36.2002 73.6814 36.2002C76.5614 36.2002 78.8414 34.0402 78.8414 31.0402C78.8414 27.9202 76.5614 25.8802 73.6814 25.8802ZM73.6814 34.0402C72.1214 34.0402 70.8014 32.7202 70.8014 30.9202C70.8014 29.1202 72.1214 27.8002 73.6814 27.8002C75.2414 27.8002 76.5614 29.0002 76.5614 30.9202C76.5614 32.7202 75.2414 34.0402 73.6814 34.0402ZM60.3614 27.4402V29.6002H65.5214C65.4014 30.8002 64.9214 31.7602 64.3214 32.3602C63.6014 33.0802 62.4014 33.9202 60.3614 33.9202C57.1214 33.9202 54.7214 31.4002 54.7214 28.1602C54.7214 24.9202 57.2414 22.4002 60.3614 22.4002C62.0414 22.4002 63.3614 23.1202 64.3214 23.9602L65.8814 22.4002C64.5614 21.2002 62.8814 20.2402 60.4814 20.2402C56.1614 20.2402 52.4414 23.8402 52.4414 28.1602C52.4414 32.4802 56.1614 36.0802 60.4814 36.0802C62.8814 36.0802 64.5614 35.3602 66.0014 33.8002C67.4414 32.3602 67.9214 30.3202 67.9214 28.7602C67.9214 28.2802 67.9214 27.8002 67.8014 27.4402H60.3614ZM114.841 29.1202C114.361 27.9202 113.161 25.8802 110.521 25.8802C107.881 25.8802 105.721 27.9202 105.721 31.0402C105.721 33.9202 107.881 36.2002 110.761 36.2002C113.041 36.2002 114.481 34.7602 114.961 33.9202L113.281 32.7202C112.681 33.5602 111.961 34.1602 110.761 34.1602C109.561 34.1602 108.841 33.6802 108.241 32.6002L115.081 29.7202L114.841 29.1202ZM107.881 30.8002C107.881 28.8802 109.441 27.8002 110.521 27.8002C111.361 27.8002 112.201 28.2802 112.441 28.8802L107.881 30.8002ZM102.241 35.7202H104.521V20.7202H102.241V35.7202ZM98.6414 26.9602C98.0414 26.3602 97.0814 25.7602 95.8814 25.7602C93.3614 25.7602 90.9614 28.0402 90.9614 30.9202C90.9614 33.8002 93.2414 35.9602 95.8814 35.9602C97.0814 35.9602 98.0414 35.3602 98.5214 34.7602H98.6414V35.4802C98.6414 37.4002 97.5614 38.4802 95.8814 38.4802C94.5614 38.4802 93.6014 37.5202 93.3614 36.6802L91.4414 37.5202C92.0414 38.8402 93.4814 40.5202 96.0014 40.5202C98.6414 40.5202 100.801 38.9602 100.801 35.2402V26.1202H98.6414V26.9602ZM96.0014 34.0402C94.4414 34.0402 93.1214 32.7202 93.1214 30.9202C93.1214 29.1202 94.4414 27.8002 96.0014 27.8002C97.5614 27.8002 98.7614 29.1202 98.7614 30.9202C98.7614 32.7202 97.5614 34.0402 96.0014 34.0402ZM125.281 20.7202H119.881V35.7202H122.161V30.0802H125.281C127.801 30.0802 130.201 28.2802 130.201 25.4002C130.201 22.5202 127.801 20.7202 125.281 20.7202ZM125.401 27.9202H122.161V22.7602H125.401C127.081 22.7602 128.041 24.2002 128.041 25.2802C127.921 26.6002 126.961 27.9202 125.401 27.9202ZM139.201 25.7602C137.521 25.7602 135.841 26.4802 135.241 28.0402L137.281 28.8802C137.761 28.0402 138.481 27.8002 139.321 27.8002C140.521 27.8002 141.601 28.5202 141.721 29.7202V29.8402C141.361 29.6002 140.401 29.2402 139.441 29.2402C137.281 29.2402 135.121 30.4402 135.121 32.6002C135.121 34.6402 136.921 35.9602 138.841 35.9602C140.401 35.9602 141.121 35.2402 141.721 34.5202H141.841V35.7202H144.001V29.9602C143.761 27.3202 141.721 25.7602 139.201 25.7602ZM138.961 34.0402C138.241 34.0402 137.161 33.6802 137.161 32.7202C137.161 31.5202 138.481 31.1602 139.561 31.1602C140.521 31.1602 141.001 31.4002 141.601 31.6402C141.361 33.0802 140.161 34.0402 138.961 34.0402ZM151.561 26.1202L149.041 32.6002H148.921L146.281 26.1202H143.881L147.841 35.2402L145.561 40.2802H147.841L153.961 26.1202H151.561ZM131.401 35.7202H133.681V20.7202H131.401V35.7202Z" fill="white"/>
<path d="M15.6 8.7207C15.24 9.0807 15 9.6807 15 10.4007V36.9207C15 37.6407 15.24 38.2407 15.6 38.6007L15.72 38.7207L30.6 23.8407V23.7207V23.6007L15.6 8.7207Z" fill="url(#paint0_linear_931_5392)"/>
<path d="M35.5177 28.8816L30.5977 23.9616V23.7216V23.6016L35.5177 18.6816L35.6377 18.8016L41.5177 22.1616C43.1977 23.1216 43.1977 24.6816 41.5177 25.6416L35.5177 28.8816Z" fill="url(#paint1_linear_931_5392)"/>
<path d="M35.6377 28.7607L30.5977 23.7207L15.5977 38.7207C16.1977 39.3207 17.0377 39.3207 18.1177 38.8407L35.6377 28.7607Z" fill="url(#paint2_linear_931_5392)"/>
<path d="M35.6377 18.6804L18.1177 8.7204C17.0377 8.1204 16.1977 8.2404 15.5977 8.8404L30.5977 23.7204L35.6377 18.6804Z" fill="url(#paint3_linear_931_5392)"/>
<path opacity="0.2" d="M35.5177 28.6401L18.1177 38.4801C17.1577 39.0801 16.3177 38.9601 15.7177 38.4801L15.5977 38.6001L15.7177 38.7201C16.3177 39.2001 17.1577 39.3201 18.1177 38.7201L35.5177 28.6401Z" fill="black"/>
<path opacity="0.12" d="M15.6011 38.481C15.2411 38.121 15.1211 37.521 15.1211 36.801V36.921C15.1211 37.641 15.3611 38.241 15.7211 38.601V38.481H15.6011Z" fill="black"/>
<path opacity="0.12" d="M41.5195 25.2807L35.5195 28.6407L35.6395 28.7607L41.5195 25.4007C42.3595 24.9207 42.7195 24.3207 42.7195 23.7207C42.7195 24.3207 42.2395 24.8007 41.5195 25.2807Z" fill="black"/>
<path opacity="0.25" d="M18.1211 8.84115L41.5211 22.1611C42.2411 22.6411 42.7211 23.1211 42.7211 23.7211C42.7211 23.1211 42.3611 22.5211 41.5211 22.0411L18.1211 8.72114C16.4411 7.76114 15.1211 8.60114 15.1211 10.5211V10.6411C15.1211 8.72115 16.4411 7.88114 18.1211 8.84115Z" fill="white"/>
<path d="M53.6408 16.8808H52.8008V14.4808H53.5208C54.1208 14.0008 54.4808 13.0408 54.4808 11.7208V8.12085H59.2808V14.4808H60.1208V16.8808H59.2808V15.3208H53.7608V16.8808H53.6408ZM55.3208 11.7208C55.3208 12.8008 55.0808 13.7608 54.6008 14.4808H58.2008V9.08085H55.2008V11.7208H55.3208Z" fill="white" stroke="white" stroke-width="0.2" stroke-miterlimit="10"/>
<path d="M67.1998 14.36C66.4798 15.08 65.6398 15.44 64.5598 15.44C63.4798 15.44 62.6398 15.08 61.9198 14.36C61.1998 13.64 60.8398 12.8 60.8398 11.72C60.8398 10.64 61.1998 9.8 61.9198 9.08C62.6398 8.36 63.4798 8 64.5598 8C65.6398 8 66.4798 8.36 67.1998 9.08C67.9198 9.8 68.2798 10.64 68.2798 11.72C68.2798 12.8 67.9198 13.64 67.1998 14.36ZM62.6398 13.76C63.1198 14.24 63.8398 14.6 64.5598 14.6C65.2798 14.6 65.9998 14.36 66.4798 13.76C66.9598 13.28 67.3198 12.56 67.3198 11.72C67.3198 10.88 67.0798 10.16 66.4798 9.68C65.9998 9.2 65.2798 8.84 64.5598 8.84C63.8398 8.84 63.1198 9.08 62.6398 9.68C62.1598 10.16 61.7998 10.88 61.7998 11.72C61.7998 12.56 62.0398 13.28 62.6398 13.76Z" fill="white" stroke="white" stroke-width="0.2" stroke-miterlimit="10"/>
<path d="M72.9622 15.44C71.8822 15.44 71.0422 15.08 70.3222 14.36C69.6022 13.64 69.2422 12.8 69.2422 11.72C69.2422 10.64 69.6022 9.8 70.3222 9.08C71.0422 8.36 71.8822 8 72.9622 8C74.0422 8 74.8822 8.36 75.6022 9.2L75.0022 9.8C74.5222 9.2 73.8022 8.84 72.9622 8.84C72.1222 8.84 71.5222 9.08 70.9222 9.68C70.3222 10.16 70.0822 10.88 70.0822 11.72C70.0822 12.56 70.3222 13.28 70.9222 13.76C71.4022 14.24 72.1222 14.6 72.9622 14.6C73.8022 14.6 74.5222 14.24 75.1222 13.52L75.7222 14.12C75.3622 14.48 75.0022 14.84 74.5222 15.08C74.0422 15.32 73.5622 15.44 72.9622 15.44Z" fill="white" stroke="white" stroke-width="0.2" stroke-miterlimit="10"/>
<path d="M79.5664 15.3208H78.6064V8.96085H76.5664V8.12085H81.4864V8.96085H79.4464V15.3208H79.5664Z" fill="white" stroke="white" stroke-width="0.2" stroke-miterlimit="10"/>
<path d="M87.842 8.12085L85.082 14.2409C84.722 15.0809 84.122 15.5609 83.402 15.5609C83.162 15.5609 82.922 15.5609 82.682 15.4409L82.922 14.6009C83.042 14.7208 83.282 14.7209 83.402 14.7209C83.642 14.7209 83.762 14.7208 83.882 14.6009C84.002 14.4809 84.122 14.3609 84.242 14.1209L84.482 13.5209L82.082 8.24085H83.162L84.962 12.3209L86.642 8.24085H87.842V8.12085Z" fill="white" stroke="white" stroke-width="0.2" stroke-miterlimit="10"/>
<path d="M88.9219 15.3206V8.12061H94.0819V15.3206H93.1219V8.96061H89.7619V15.3206H88.9219Z" fill="white" stroke="white" stroke-width="0.2" stroke-miterlimit="10"/>
<path d="M95.7617 15.3208V8.12085H96.7217V11.2409H100.322V8.12085H101.282V15.3208H100.322V12.0808H96.7217V15.3208H95.7617Z" fill="white" stroke="white" stroke-width="0.2" stroke-miterlimit="10"/>
<path d="M108.84 14.36C108.12 15.08 107.28 15.44 106.2 15.44C105.12 15.44 104.28 15.08 103.56 14.36C102.84 13.64 102.48 12.8 102.48 11.72C102.48 10.64 102.84 9.8 103.56 9.08C104.28 8.36 105.12 8 106.2 8C107.28 8 108.12 8.36 108.84 9.08C109.56 9.8 109.92 10.64 109.92 11.72C109.8 12.8 109.44 13.64 108.84 14.36ZM104.16 13.76C104.64 14.24 105.36 14.6 106.08 14.6C106.8 14.6 107.52 14.36 108 13.76C108.48 13.28 108.84 12.56 108.84 11.72C108.84 10.88 108.6 10.16 108 9.68C107.52 9.2 106.8 8.84 106.08 8.84C105.36 8.84 104.64 9.08 104.16 9.68C103.68 10.16 103.32 10.88 103.32 11.72C103.32 12.56 103.68 13.28 104.16 13.76Z" fill="white" stroke="white" stroke-width="0.2" stroke-miterlimit="10"/>
<path d="M113.645 15.3208V8.12085H116.285C116.885 8.12085 117.365 8.36085 117.725 8.72085C118.085 9.08085 118.325 9.56085 118.325 10.1609C118.325 10.5209 118.205 10.7608 118.085 11.1208C117.965 11.3608 117.725 11.6008 117.365 11.7208C117.725 11.8408 117.965 12.0808 118.205 12.3208C118.445 12.5608 118.565 12.9208 118.565 13.4008C118.565 14.0008 118.325 14.4809 117.965 14.8409C117.485 15.2009 117.005 15.4409 116.405 15.4409H113.645V15.3208ZM114.605 11.2409H116.285C116.645 11.2409 116.885 11.1208 117.125 10.8808C117.365 10.6408 117.485 10.4009 117.485 10.1609C117.485 9.92085 117.365 9.68085 117.125 9.44085C116.885 9.20085 116.645 9.08085 116.285 9.08085H114.605V11.2409ZM114.605 14.4808H116.525C116.885 14.4808 117.125 14.3608 117.365 14.1208C117.605 13.8808 117.725 13.6408 117.725 13.2808C117.725 13.0408 117.605 12.6809 117.365 12.4409C117.125 12.2009 116.885 12.0808 116.525 12.0808H114.725V14.4808H114.605Z" fill="white" stroke="white" stroke-width="0.2" stroke-miterlimit="10"/>
<defs>
<linearGradient id="paint0_linear_931_5392" x1="29.2796" y1="10.1723" x2="9.14076" y2="30.3112" gradientUnits="userSpaceOnUse">
<stop stop-color="#00A0FF"/>
<stop offset="0.00657445" stop-color="#00A1FF"/>
<stop offset="0.2601" stop-color="#00BEFF"/>
<stop offset="0.5122" stop-color="#00D2FF"/>
<stop offset="0.7604" stop-color="#00DFFF"/>
<stop offset="1" stop-color="#00E3FF"/>
</linearGradient>
<linearGradient id="paint1_linear_931_5392" x1="43.7189" y1="23.7233" x2="14.6827" y2="23.7233" gradientUnits="userSpaceOnUse">
<stop stop-color="#FFE000"/>
<stop offset="0.4087" stop-color="#FFBD00"/>
<stop offset="0.7754" stop-color="#FFA500"/>
<stop offset="1" stop-color="#FF9C00"/>
</linearGradient>
<linearGradient id="paint2_linear_931_5392" x1="32.9101" y1="26.476" x2="5.6001" y2="53.786" gradientUnits="userSpaceOnUse">
<stop stop-color="#FF3A44"/>
<stop offset="1" stop-color="#C31162"/>
</linearGradient>
<linearGradient id="paint3_linear_931_5392" x1="11.8744" y1="-0.0681618" x2="24.0695" y2="12.1268" gradientUnits="userSpaceOnUse">
<stop stop-color="#32A071"/>
<stop offset="0.0685" stop-color="#2DA771"/>
<stop offset="0.4762" stop-color="#15CF74"/>
<stop offset="0.8009" stop-color="#06E775"/>
<stop offset="1" stop-color="#00F076"/>
</linearGradient>
</defs>
</svg>
