<svg width="76" height="104" viewBox="0 0 76 104" fill="none" xmlns="http://www.w3.org/2000/svg">
<g opacity="0.1">
<g clip-path="url(#clip0_804_28858)">
<rect width="156" height="101" transform="matrix(-0.866025 -0.5 9.77409e-08 -1 150.504 179)" fill="#008DF4"/>
</g>
</g>
<g opacity="0.2">
<g clip-path="url(#clip1_804_28858)">
<rect width="156" height="101" transform="matrix(-0.866025 -0.5 9.77409e-08 -1 143.434 191.835)" fill="#008DF4"/>
</g>
</g>
<g clip-path="url(#clip2_804_28858)">
<rect width="156" height="101" transform="matrix(-0.866025 -0.5 9.77409e-08 -1 135.907 203.784)" fill="#008DF4"/>
<path opacity="0.2" d="M60.5957 104L0.806961 69.4814L30.7013 61.9581L60.5957 104Z" fill="white"/>
<path d="M0.807129 24.7837L60.5959 59.3028L30.7015 69.4814L0.807129 24.7837Z" fill="#0F5FFF"/>
<path d="M46.7545 73.4027L45.4437 72.6371L45.4437 71.8781C45.7866 72.2278 46.1296 72.5687 46.4877 72.8916C46.5106 72.9137 46.5411 72.9313 46.5639 72.9445C46.6783 73.0105 46.7849 72.9828 46.823 72.8709C46.8611 72.7232 46.7849 72.5096 46.6402 72.3813C45.2227 71.0808 43.8891 69.5339 42.7079 67.834L42.7079 67.8162L42.685 67.803C42.2126 67.1194 41.7553 66.409 41.3362 65.6848L41.3362 65.6491L41.2981 65.6271C40.7647 64.703 40.2769 63.7606 39.8426 62.7866C39.8349 62.7732 39.8349 62.7732 39.8273 62.7599C39.8197 62.7466 39.8197 62.7466 39.8121 62.7332C39.8045 62.7199 39.7968 62.7066 39.7816 62.6889L39.774 62.6755C39.774 62.6755 39.774 62.6755 39.7664 62.6711C39.7587 62.6578 39.7435 62.6401 39.7359 62.6357C39.7283 62.6313 39.7283 62.6223 39.7206 62.6179C39.713 62.6046 39.6978 62.5958 39.6901 62.5914C39.6825 62.587 39.6825 62.587 39.6749 62.5737C39.6673 62.5693 39.652 62.5605 39.6444 62.5472C39.6368 62.5428 39.6368 62.5428 39.6292 62.5384C39.6139 62.5296 39.6063 62.5252 39.5911 62.5164C39.5835 62.512 39.5835 62.512 39.5758 62.5076C39.5682 62.5032 39.553 62.5033 39.5454 62.4989C39.5377 62.4945 39.5377 62.4945 39.5301 62.499C39.5225 62.5035 39.5149 62.4991 39.4996 62.4993C39.492 62.4949 39.4844 62.4994 39.4768 62.495C39.4768 62.495 39.4692 62.4906 39.4692 62.4995C39.4615 62.5041 39.4615 62.5041 39.4539 62.5086C39.4463 62.5131 39.4387 62.5087 39.4387 62.5177C39.431 62.5222 39.4234 62.5267 39.4158 62.5312L39.4082 62.5358C37.0306 65.083 33.1593 65.1875 29.0594 62.8204C29.0442 62.8116 29.0289 62.8028 29.0137 62.8029C28.9984 62.7941 28.9832 62.7764 28.9679 62.7676C24.8681 60.4005 20.9968 55.8259 18.6191 50.5332C18.6191 50.5243 18.6115 50.5199 18.6115 50.5199C18.6039 50.5066 18.5963 50.4932 18.5887 50.4799C18.581 50.4666 18.5734 50.4622 18.5734 50.4532C18.5658 50.4399 18.5658 50.4399 18.5582 50.4266C18.5582 50.4266 18.5506 50.4222 18.5506 50.4133C18.5429 50.3999 18.5353 50.3955 18.5277 50.3822C18.5201 50.3689 18.5125 50.3645 18.4972 50.3467C18.4896 50.3423 18.482 50.329 18.482 50.329C18.4744 50.3246 18.4591 50.3069 18.4515 50.3025C18.4439 50.2981 18.4439 50.2981 18.4363 50.2937C18.421 50.2849 18.4134 50.2805 18.3982 50.2717C18.3905 50.2673 18.3905 50.2673 18.3829 50.2629C18.3677 50.2541 18.36 50.2497 18.3448 50.2498C18.3372 50.2454 18.3372 50.2454 18.3296 50.2499C18.3143 50.2411 18.3067 50.2457 18.2991 50.2413C18.2915 50.2369 18.2915 50.2458 18.2838 50.2414C18.2686 50.2415 18.261 50.2461 18.2534 50.2417C18.2534 50.2417 18.2534 50.2417 18.2457 50.2373L18.2381 50.2418C18.2305 50.2463 18.2229 50.2509 18.2076 50.251C18.2 50.2555 18.2 50.2555 18.1924 50.26C18.1848 50.2646 18.1848 50.2646 18.1772 50.2691C17.7428 50.7327 17.2551 51.1208 16.7216 51.4289L16.6835 51.4069L16.6835 51.4426C16.2568 51.6784 15.8071 51.8653 15.3347 52.0033L15.3118 51.9901L15.3118 52.008C14.1306 52.3618 12.797 52.3687 11.3796 52.0325C11.2348 51.9936 11.1586 52.1282 11.1967 52.3109C11.2272 52.4624 11.3338 52.6133 11.4558 52.6837C11.4786 52.6969 11.5091 52.7145 11.532 52.7188C11.8825 52.8051 12.2331 52.8646 12.576 52.9108L12.576 53.6698L11.2653 52.913C11.1205 52.8295 10.9985 52.9019 10.9985 53.0716C10.9985 53.2412 11.1205 53.4545 11.2653 53.5381L28.9603 63.6651C28.9756 63.6739 28.9908 63.6827 29.006 63.6825C29.0213 63.6913 29.0365 63.7091 29.0518 63.7179L46.7468 74.0234C46.8916 74.107 47.0136 74.0345 47.0136 73.8649C47.0212 73.6996 46.8993 73.4863 46.7545 73.4027ZM44.9103 72.3291L44.072 71.8451L44.072 70.3628C44.3463 70.6909 44.6283 71.0144 44.9103 71.3201L44.9103 72.3291ZM43.5386 69.7066L43.5386 71.5282L42.7003 71.0442L42.7003 68.6065C42.9746 68.9792 43.2566 69.3563 43.5386 69.7066ZM42.1668 67.8431L42.1668 70.7273L41.3286 70.2433L41.3286 66.5466C41.6029 66.9907 41.8849 67.4214 42.1668 67.8431ZM38.5852 64.1947C38.8824 64.0091 39.1567 63.7925 39.4234 63.5536L39.4234 69.1345L38.5852 68.6505L38.5852 64.1947ZM39.9569 64.067C40.2236 64.596 40.5056 65.1249 40.7951 65.6403L40.7951 69.9353L39.9569 69.4514L39.9569 64.067ZM38.0517 64.5029L38.0517 68.3425L37.2135 67.8585L37.2135 64.8493C37.503 64.7576 37.785 64.6346 38.0517 64.5029ZM22.7038 57.9366C23.8012 59.2577 24.9824 60.4576 26.2093 61.4695L22.7038 59.4635L22.7038 57.9366ZM22.1704 59.1555L21.3321 58.6716L21.3321 56.1445C21.6064 56.5262 21.8808 56.8989 22.1704 57.2714L22.1704 59.1555ZM35.8417 65.1646C36.1313 65.1354 36.4057 65.0794 36.68 65.0057L36.68 67.5327L35.8417 67.0487L35.8417 65.1646ZM35.3083 66.7407L31.8028 64.699C33.0297 65.1037 34.2109 65.2678 35.3083 65.2138L35.3083 66.7407ZM20.7986 55.3722L20.7986 58.3636L19.9604 57.8796L19.9604 54.04C20.2347 54.502 20.5091 54.9461 20.7986 55.3722ZM17.217 52.0274C17.5065 51.8464 17.7885 51.652 18.0552 51.422L18.0552 56.7975L17.217 56.3135L17.217 52.0274ZM18.5887 51.5246C18.8554 52.0715 19.1297 52.6049 19.4269 53.1337L19.4269 57.5805L18.5887 57.0966L18.5887 51.5246ZM16.6835 56.0145L15.8452 55.5305L15.8452 52.6463C16.1348 52.5546 16.4168 52.4495 16.6835 52.3177L16.6835 56.0145ZM15.3118 55.2315L14.4735 54.7475L14.4735 52.9259C14.7631 52.8966 15.0375 52.8497 15.3118 52.7848L15.3118 55.2315ZM13.1018 52.9554C13.3838 52.9754 13.6658 52.9774 13.9401 52.9662L13.9401 54.4395L13.1018 53.9555L13.1018 52.9554Z" fill="white"/>
<path d="M12.4668 57.424L12.4668 56.5127L16.5774 58.8859L16.5774 59.7972L14.9331 58.8479L14.9331 63.7357L14.111 63.2611L14.111 58.3733L12.4668 57.424Z" fill="white"/>
<path d="M17.1113 64.4465C16.7539 63.8149 16.5751 63.1898 16.5751 62.5712C16.5751 61.9526 16.7539 61.5367 17.1113 61.3233C17.4735 61.1071 17.9143 61.149 18.4338 61.449C18.9533 61.7489 19.3918 62.2147 19.7492 62.8463C20.1114 63.4751 20.2925 64.0989 20.2925 64.7174L20.2925 65.0074L17.3258 63.2945C17.3829 63.6755 17.514 64.0245 17.7189 64.3417C17.9239 64.6588 18.1622 64.8958 18.4338 65.0527C18.7674 65.2453 19.0343 65.3027 19.2345 65.225C19.325 65.1999 19.4037 65.1487 19.4704 65.0712L20.2568 65.5252C20.1567 65.7381 20.0304 65.8944 19.8779 65.9941C19.4871 66.2213 19.0057 66.1699 18.4338 65.8397C17.9143 65.5398 17.4735 65.0754 17.1113 64.4465ZM17.3615 62.611L19.5061 63.8492C19.4633 63.5483 19.3489 63.2475 19.163 62.9469C18.9819 62.6491 18.7388 62.4121 18.4338 62.236C18.1765 62.0874 17.9477 62.0464 17.7475 62.1131C17.5474 62.1743 17.4187 62.3402 17.3615 62.611Z" fill="white"/>
<path d="M20.5433 66.9747L21.5441 63.3275L23.1526 64.2562L24.1534 69.0591L23.3671 68.605L22.5807 64.713L22.116 64.4447L21.3297 67.4287L20.5433 66.9747Z" fill="white"/>
<path d="M24.9373 68.9648C24.5799 68.3332 24.4011 67.7081 24.4011 67.0895C24.4011 66.471 24.5799 66.055 24.9373 65.8416C25.2995 65.6255 25.7403 65.6674 26.2598 65.9673C26.7793 66.2672 27.2178 66.733 27.5752 67.3646C27.9374 67.9935 28.1185 68.6172 28.1185 69.2358L28.1185 69.5257L25.1518 67.8129C25.209 68.1938 25.34 68.5429 25.5449 68.86C25.7499 69.1772 25.9882 69.4142 26.2598 69.571C26.5934 69.7636 26.8603 69.8211 27.0605 69.7433C27.151 69.7183 27.2297 69.667 27.2964 69.5896L28.0828 70.0436C27.9827 70.2564 27.8564 70.4127 27.7039 70.5124C27.3131 70.7397 26.8317 70.6882 26.2598 70.358C25.7403 70.0581 25.2995 69.5937 24.9373 68.9648ZM25.1875 67.1293L27.3321 68.3675C27.2893 68.0666 27.1749 67.7659 26.989 67.4653C26.8079 67.1674 26.5648 66.9304 26.2598 66.7543C26.0025 66.6057 25.7737 66.5648 25.5735 66.6315C25.3734 66.6926 25.2447 66.8586 25.1875 67.1293Z" fill="white"/>
<path d="M28.7625 71.7201L28.7625 67.495L29.8348 68.1141L30.7999 71.1981L30.9429 71.2806L31.908 69.3111L32.9803 69.9302L32.9803 74.1552L32.2296 73.7219L32.2296 70.7395L32.2368 70.6608L32.2011 70.6401L31.3003 72.4397L30.4424 71.9444L29.5417 69.1047L29.5059 69.0841L29.5131 69.1711L29.5131 72.1535L28.7625 71.7201Z" fill="white"/>
<path d="M34.1667 74.2934C33.8045 73.6591 33.6234 73.0326 33.6234 72.414C33.6234 71.7954 33.8045 71.3809 34.1667 71.1702C34.5337 70.9568 34.984 71.0042 35.5178 71.3124C36.0516 71.6206 36.4996 72.0919 36.8618 72.7262C37.2288 73.3579 37.4123 73.983 37.4123 74.6015C37.4123 75.2201 37.2288 75.6361 36.8618 75.8495C36.4996 76.0601 36.0516 76.0113 35.5178 75.7031C34.984 75.395 34.5337 74.9251 34.1667 74.2934ZM34.7172 72.0265C34.5122 72.1623 34.4098 72.4428 34.4098 72.868C34.4098 73.2933 34.5122 73.6949 34.7172 74.0728C34.9221 74.4451 35.189 74.7263 35.5178 74.9161C35.8467 75.106 36.1136 75.133 36.3185 74.9973C36.5234 74.856 36.6259 74.5728 36.6259 74.1475C36.6259 73.7222 36.5234 73.3234 36.3185 72.9511C36.1136 72.5732 35.8467 72.2893 35.5178 72.0994C35.189 71.9096 34.9221 71.8853 34.7172 72.0265Z" fill="white"/>
<path d="M38.3619 76.7239C38.014 76.1088 37.8401 75.4837 37.8401 74.8485C37.8401 74.2134 38.014 73.7891 38.3619 73.5758C38.7098 73.3624 39.1435 73.4057 39.663 73.7056C40.2445 74.0413 40.7187 74.5719 41.0856 75.2974C41.2429 75.6257 41.3525 75.9431 41.4145 76.2495L40.6281 75.7954C40.5947 75.6381 40.5328 75.4781 40.4422 75.3153C40.2564 74.9595 39.9966 74.6853 39.663 74.4927C39.3675 74.3221 39.1197 74.3088 38.9195 74.4528C38.7241 74.5995 38.6264 74.8828 38.6264 75.3025C38.6264 75.7223 38.7241 76.1183 38.9195 76.4907C39.1197 76.8659 39.3675 77.1387 39.663 77.3093C40.0062 77.5075 40.2754 77.5387 40.4708 77.4029C40.5566 77.342 40.621 77.2549 40.6639 77.1416L41.4145 77.575C41.3525 77.8209 41.2429 78.0144 41.0856 78.1555C40.7234 78.4545 40.2492 78.4348 39.663 78.0964C39.1435 77.7964 38.7098 77.3389 38.3619 76.7239Z" fill="white"/>
<path d="M41.6625 74.2801L41.6625 73.3688L45.773 75.7421L45.773 76.6533L44.1288 75.704L44.1288 80.5918L43.3067 80.1172L43.3067 75.2294L41.6625 74.2801Z" fill="white"/>
</g>
<defs>
<clipPath id="clip0_804_28858">
<rect width="69.0381" height="44.6978" rx="3" transform="matrix(0.866025 0.5 -2.20305e-08 1 15.4038 0)" fill="white"/>
</clipPath>
<clipPath id="clip1_804_28858">
<rect width="69.0381" height="44.6978" rx="3" transform="matrix(0.866025 0.5 -2.20305e-08 1 8.3335 12.835)" fill="white"/>
</clipPath>
<clipPath id="clip2_804_28858">
<rect width="69.0381" height="44.6978" rx="3" transform="matrix(0.866025 0.5 -2.20305e-08 1 0.807129 24.7837)" fill="white"/>
</clipPath>
</defs>
</svg>
