<svg width="16" height="16" viewBox="0 0 16 16" fill="none" xmlns="http://www.w3.org/2000/svg">
<g clip-path="url(#clip0_931_7660)">
<path d="M13.3327 14.6665H11.9993V13.3332C11.9993 12.8027 11.7886 12.294 11.4136 11.919C11.0385 11.5439 10.5298 11.3332 9.99935 11.3332H5.99935C5.46892 11.3332 4.96021 11.5439 4.58514 11.919C4.21006 12.294 3.99935 12.8027 3.99935 13.3332V14.6665H2.66602V13.3332C2.66602 12.4491 3.01721 11.6013 3.64233 10.9761C4.26745 10.351 5.11529 9.99984 5.99935 9.99984H9.99935C10.8834 9.99984 11.7313 10.351 12.3564 10.9761C12.9815 11.6013 13.3327 12.4491 13.3327 13.3332V14.6665ZM7.99935 8.6665C7.47406 8.6665 6.95392 8.56304 6.46862 8.36202C5.98331 8.161 5.54236 7.86637 5.17092 7.49493C4.79949 7.1235 4.50485 6.68254 4.30383 6.19724C4.10281 5.71194 3.99935 5.19179 3.99935 4.6665C3.99935 4.14122 4.10281 3.62107 4.30383 3.13577C4.50485 2.65047 4.79949 2.20951 5.17092 1.83808C5.54236 1.46664 5.98331 1.172 6.46862 0.970986C6.95392 0.769967 7.47406 0.666504 7.99935 0.666504C9.06021 0.666504 10.0776 1.08793 10.8278 1.83808C11.5779 2.58822 11.9993 3.60564 11.9993 4.6665C11.9993 5.72737 11.5779 6.74479 10.8278 7.49493C10.0776 8.24508 9.06021 8.6665 7.99935 8.6665ZM7.99935 7.33317C8.70659 7.33317 9.38487 7.05222 9.88497 6.55212C10.3851 6.05203 10.666 5.37375 10.666 4.6665C10.666 3.95926 10.3851 3.28098 9.88497 2.78089C9.38487 2.28079 8.70659 1.99984 7.99935 1.99984C7.29211 1.99984 6.61383 2.28079 6.11373 2.78089C5.61363 3.28098 5.33268 3.95926 5.33268 4.6665C5.33268 5.37375 5.61363 6.05203 6.11373 6.55212C6.61383 7.05222 7.29211 7.33317 7.99935 7.33317Z" fill="white"/>
</g>
<defs>
<clipPath id="clip0_931_7660">
<rect width="16" height="16" fill="white"/>
</clipPath>
</defs>
</svg>
