<svg width="20" height="20" viewBox="0 0 20 20" fill="none" xmlns="http://www.w3.org/2000/svg">
<path d="M9.99935 1.6665C5.40435 1.6665 1.66602 5.40484 1.66602 9.99984V13.4523C1.66602 14.3057 2.41352 14.9998 3.33268 14.9998H4.16602C4.38703 14.9998 4.59899 14.912 4.75527 14.7558C4.91155 14.5995 4.99935 14.3875 4.99935 14.1665V9.88067C4.99935 9.65966 4.91155 9.44769 4.75527 9.29141C4.59899 9.13513 4.38703 9.04734 4.16602 9.04734H3.40935C3.87268 5.82234 6.64768 3.33317 9.99935 3.33317C13.351 3.33317 16.126 5.82234 16.5893 9.04734H15.8327C15.6117 9.04734 15.3997 9.13513 15.2434 9.29141C15.0871 9.44769 14.9993 9.65966 14.9993 9.88067V14.9998C14.9993 15.919 14.2518 16.6665 13.3327 16.6665H11.666V15.8332H8.33268V18.3332H13.3327C15.171 18.3332 16.666 16.8382 16.666 14.9998C17.5852 14.9998 18.3327 14.3057 18.3327 13.4523V9.99984C18.3327 5.40484 14.5943 1.6665 9.99935 1.6665Z" fill="white"/>
</svg>
