<svg width="20" height="20" viewBox="0 0 20 20" fill="none" xmlns="http://www.w3.org/2000/svg">
<path fill-rule="evenodd" clip-rule="evenodd" d="M10.2164 18.3307C10.072 18.3344 9.92748 18.3344 9.78306 18.3307C8.17152 18.2889 6.60668 17.7806 5.27806 16.8676C3.94944 15.9546 2.91403 14.676 2.29723 13.1866C1.8781 12.1699 1.66361 11.0806 1.66604 9.98098C1.66847 8.88134 1.88777 7.79299 2.3114 6.77822C2.72782 5.78753 3.33165 4.88659 4.08973 4.12489L4.12473 4.08989C4.88283 3.33571 5.7788 2.73425 6.7639 2.31822C7.78665 1.8889 8.8846 1.66736 9.99381 1.66651C11.103 1.66565 12.2013 1.88549 13.2247 2.31322C14.2163 2.73045 15.1178 3.33544 15.8797 4.09489L15.9047 4.11989C16.6656 4.88406 17.2797 5.79489 17.6989 6.80572C18.1344 7.85785 18.3499 8.98799 18.3322 10.1266C18.3074 11.7616 17.8024 13.3532 16.8798 14.7034C15.9573 16.0535 14.6581 17.1025 13.1439 17.7199C12.2131 18.098 11.2216 18.305 10.2172 18.3307H10.2164ZM11.6931 12.8724L14.0881 15.2666C12.9184 16.1739 11.4801 16.6664 9.99973 16.6664C8.51937 16.6664 7.08107 16.1739 5.9114 15.2666L8.3064 12.8716C8.81962 13.1735 9.40426 13.3328 9.99973 13.3328C10.5952 13.3328 11.1798 13.1735 11.6931 12.8716V12.8724ZM7.12806 11.6932L4.73306 14.0882C3.82568 12.9186 3.33321 11.4803 3.33321 9.99989C3.33321 8.51953 3.82568 7.08123 4.73306 5.91156L7.12806 8.30656C6.82609 8.81978 6.66686 9.40442 6.66686 9.99989C6.66686 10.5954 6.82609 11.18 7.12806 11.6932ZM8.4014 10.4741C8.31438 10.1789 8.31034 9.86551 8.38973 9.56822C8.46525 9.28562 8.61417 9.02802 8.8214 8.82156C9.02777 8.61389 9.28544 8.46456 9.56822 8.38874C9.851 8.31292 10.1488 8.31332 10.4314 8.38989C10.7047 8.46322 10.9639 8.60656 11.1781 8.82156C11.3857 9.02793 11.5351 9.2856 11.6109 9.56838C11.6867 9.85116 11.6863 10.149 11.6097 10.4316C11.5364 10.7049 11.3931 10.9641 11.1781 11.1782C10.9717 11.3859 10.714 11.5352 10.4312 11.611C10.1485 11.6869 9.85064 11.6865 9.56806 11.6099C9.28547 11.5343 9.02788 11.3854 8.8214 11.1782C8.62466 10.9824 8.48025 10.7402 8.4014 10.4741ZM11.6931 7.12822C11.1798 6.82625 10.5952 6.66702 9.99973 6.66702C9.40426 6.66702 8.81962 6.82625 8.3064 7.12822L5.9114 4.73322C7.08107 3.82585 8.51937 3.33337 9.99973 3.33337C11.4801 3.33337 12.9184 3.82585 14.0881 4.73322L11.6931 7.12822ZM15.2664 14.0882C16.1738 12.9186 16.6663 11.4803 16.6663 9.99989C16.6663 8.51953 16.1738 7.08123 15.2664 5.91156L12.8714 8.30656C13.1734 8.81978 13.3326 9.40442 13.3326 9.99989C13.3326 10.5954 13.1734 11.18 12.8714 11.6932L15.2664 14.0882Z" fill="#0F5FFF"/>
</svg>
