<svg width="97" height="96" viewBox="0 0 97 96" fill="none" xmlns="http://www.w3.org/2000/svg">
<path d="M32.214 75.0528C26.9052 68.784 23.4684 59.5296 23.238 49.1328C23.238 49.104 23.238 46.896 23.238 46.8672C23.4684 36.4704 26.9052 27.216 32.214 20.9472C39.1068 12.0096 49.3404 6.336 60.7644 6.336C67.7916 6.336 74.3772 8.4864 80.0028 12.2208C71.5548 4.656 60.4188 0.048 48.198 0C48.1404 0 48.0732 0 48.0156 0C21.51 0 0.015625 21.4944 0.015625 48C0.015625 73.7472 20.2812 94.752 45.7308 95.9424C46.4892 95.9808 47.2476 96 48.0156 96C60.3036 96 71.5164 91.3824 80.0028 83.7888C74.3772 87.5136 67.8012 89.664 60.7644 89.664C49.3404 89.664 39.1068 83.9904 32.214 75.0528Z" fill="url(#paint0_linear_931_4607)"/>
<path d="M32.2148 20.9466C36.6212 15.7434 42.3044 12.6138 48.5252 12.6138C62.5028 12.6138 73.8212 28.4538 73.8212 47.9995C73.8212 67.5451 62.4932 83.385 48.5252 83.385C42.314 83.385 36.6212 80.2458 32.2148 75.0522C39.1076 83.9898 49.3412 89.6635 60.7652 89.6635C67.7924 89.6635 74.378 87.513 80.0037 83.7882C89.834 74.9947 96.0164 62.217 96.0164 47.9995C96.0164 33.7818 89.834 21.0042 80.0037 12.2202C74.378 8.48585 67.802 6.33545 60.7652 6.33545C49.3412 6.33545 39.1076 12.009 32.2148 20.9466Z" fill="url(#paint1_linear_931_4607)"/>
<defs>
<linearGradient id="paint0_linear_931_4607" x1="40.0114" y1="1.56518" x2="40.0114" y2="94.6028" gradientUnits="userSpaceOnUse">
<stop offset="0.3" stop-color="#FF1B2D"/>
<stop offset="0.4381" stop-color="#FA1A2C"/>
<stop offset="0.5939" stop-color="#ED1528"/>
<stop offset="0.7581" stop-color="#D60E21"/>
<stop offset="0.9272" stop-color="#B70519"/>
<stop offset="1" stop-color="#A70014"/>
</linearGradient>
<linearGradient id="paint1_linear_931_4607" x1="64.1165" y1="7.04832" x2="64.1165" y2="89.3356" gradientUnits="userSpaceOnUse">
<stop stop-color="#9C0000"/>
<stop offset="0.7" stop-color="#FF4B4B"/>
</linearGradient>
</defs>
</svg>
