<svg width="96" height="96" viewBox="0 0 96 96" fill="none" xmlns="http://www.w3.org/2000/svg">
<g clip-path="url(#clip0_931_4593)">
<path d="M48 71.9893C61.2548 71.9893 72 61.2441 72 47.9893C72 34.7344 61.2548 23.9893 48 23.9893C34.7452 23.9893 24 34.7344 24 47.9893C24 61.2441 34.7452 71.9893 48 71.9893Z" fill="white"/>
<path d="M47.999 24.0001H89.5614C85.3498 16.7029 79.2912 10.6431 71.9947 6.4301C64.6983 2.21711 56.4212 -0.000587741 47.9958 1.1684e-07C39.5704 0.000587974 31.2937 2.21944 23.9978 6.43344C16.702 10.6475 10.6442 16.7081 6.43359 24.0059L27.2148 60.0001L27.2334 59.9953C25.1194 56.3498 24.0038 52.2115 23.9991 47.9974C23.9943 43.7833 25.1006 39.6425 27.2064 35.9923C29.3122 32.3421 32.3431 29.3115 35.9935 27.2061C39.644 25.1007 43.7849 23.9949 47.999 24.0001Z" fill="url(#paint0_linear_931_4593)"/>
<path d="M48 67C58.4934 67 67 58.4934 67 48C67 37.5066 58.4934 29 48 29C37.5066 29 29 37.5066 29 48C29 58.4934 37.5066 67 48 67Z" fill="#1A73E8"/>
<path d="M68.782 60.0059L48.0008 96.0001C56.4262 96.0013 64.7033 93.7842 72 89.5717C79.2968 85.3593 85.3558 79.3 89.568 72.0031C93.7801 64.7062 95.9969 56.4289 95.9954 48.0036C95.9939 39.5782 93.7741 31.3017 89.5594 24.0063H47.9972L47.9922 24.0249C52.2063 24.0168 56.348 25.1198 59.9999 27.2227C63.6518 29.3256 66.6847 32.3541 68.793 36.0029C70.9013 39.6517 72.0103 43.7918 72.0084 48.0059C72.0065 52.22 70.8936 56.3591 68.782 60.0059Z" fill="url(#paint1_linear_931_4593)"/>
<path d="M27.2177 60.0064L6.43654 24.0122C2.22279 31.3082 0.00422027 39.585 0.00390628 48.0104C0.00359229 56.4358 2.22155 64.7128 6.43476 72.0091C10.648 79.3054 16.7079 85.3639 24.0053 89.5753C31.3026 93.7867 39.5802 96.0026 48.0055 96.0002L68.7867 60.006L68.7733 59.9924C66.6733 63.6459 63.6472 66.6812 60 68.7924C56.3529 70.9035 52.2137 72.0159 47.9996 72.0173C43.7855 72.0187 39.6455 70.9091 35.997 68.8005C32.3484 66.6918 29.3203 63.6585 27.2177 60.0064Z" fill="url(#paint2_linear_931_4593)"/>
</g>
<defs>
<linearGradient id="paint0_linear_931_4593" x1="6.43359" y1="30.0001" x2="89.5614" y2="30.0001" gradientUnits="userSpaceOnUse">
<stop stop-color="#D93025"/>
<stop offset="1" stop-color="#EA4335"/>
</linearGradient>
<linearGradient id="paint1_linear_931_4593" x1="41.4432" y1="95.3583" x2="83.0072" y2="23.3675" gradientUnits="userSpaceOnUse">
<stop stop-color="#FCC934"/>
<stop offset="1" stop-color="#FBBC04"/>
</linearGradient>
<linearGradient id="paint2_linear_931_4593" x1="53.1967" y1="93.0032" x2="11.6327" y2="21.0122" gradientUnits="userSpaceOnUse">
<stop stop-color="#1E8E3E"/>
<stop offset="1" stop-color="#34A853"/>
</linearGradient>
<clipPath id="clip0_931_4593">
<rect width="96" height="96" fill="white"/>
</clipPath>
</defs>
</svg>
