<svg width="24" height="24" viewBox="0 0 24 24" fill="none" xmlns="http://www.w3.org/2000/svg">
<path d="M21 21V6.75L14.25 0H6C5.20435 0 4.44129 0.316071 3.87868 0.87868C3.31607 1.44129 3 2.20435 3 3V21C3 21.7956 3.31607 22.5587 3.87868 23.1213C4.44129 23.6839 5.20435 24 6 24H18C18.7956 24 19.5587 23.6839 20.1213 23.1213C20.6839 22.5587 21 21.7956 21 21ZM14.25 4.5C14.25 5.09674 14.4871 5.66903 14.909 6.09099C15.331 6.51295 15.9033 6.75 16.5 6.75H19.5V21C19.5 21.3978 19.342 21.7794 19.0607 22.0607C18.7794 22.342 18.3978 22.5 18 22.5H6C5.60218 22.5 5.22064 22.342 4.93934 22.0607C4.65804 21.7794 4.5 21.3978 4.5 21V3C4.5 2.60218 4.65804 2.22064 4.93934 1.93934C5.22064 1.65804 5.60218 1.5 6 1.5H14.25V4.5Z" fill="#EB1916"/>
<path d="M6.90426 21.1305C6.6119 21.0136 6.37635 20.7877 6.24726 20.5005C5.95476 19.9185 6.05226 19.3365 6.36726 18.8475C6.66426 18.387 7.15626 17.9955 7.71276 17.667C8.41767 17.2672 9.16279 16.9429 9.93576 16.6995C10.536 15.6204 11.0681 14.5047 11.5288 13.359C11.2533 12.7331 11.0374 12.0828 10.8838 11.4165C10.7548 10.8165 10.7053 10.2225 10.8148 9.71248C10.9273 9.18148 11.2258 8.70448 11.7898 8.47798C12.0778 8.36248 12.3898 8.29798 12.6928 8.36248C12.8452 8.39493 12.9885 8.4609 13.1122 8.55559C13.236 8.65029 13.3371 8.77135 13.4083 8.90998C13.5403 9.15598 13.5883 9.44398 13.5988 9.71698C13.6093 9.99898 13.5808 10.311 13.5283 10.638C13.4023 11.403 13.1233 12.339 12.7483 13.329C13.1621 14.214 13.654 15.0604 14.2183 15.858C14.8859 15.8053 15.5574 15.8304 16.2193 15.933C16.7653 16.032 17.3203 16.2255 17.6593 16.6305C17.8393 16.8465 17.9488 17.1105 17.9593 17.4075C17.9698 17.6955 17.8888 17.9805 17.7523 18.252C17.634 18.5036 17.4507 18.719 17.2213 18.876C16.9945 19.0239 16.7267 19.0964 16.4563 19.083C15.9598 19.062 15.4753 18.789 15.0568 18.4575C14.5479 18.0367 14.0893 17.5586 13.6903 17.0325C12.6759 17.1476 11.6736 17.3514 10.6948 17.6415C10.2465 18.4364 9.73487 19.1939 9.16476 19.9065C8.72676 20.4315 8.25126 20.8905 7.77426 21.087C7.50019 21.211 7.18933 21.2265 6.90426 21.1305ZM8.97276 18.279C8.72376 18.393 8.49276 18.513 8.28426 18.636C7.79226 18.927 7.47276 19.2105 7.31376 19.4565C7.17276 19.674 7.16976 19.8315 7.25376 19.998C7.26876 20.031 7.28376 20.052 7.29276 20.064C7.31066 20.0592 7.3282 20.0532 7.34526 20.046C7.55076 19.962 7.87776 19.6935 8.29776 19.188C8.53663 18.8955 8.76187 18.5922 8.97276 18.279ZM11.4328 16.284C11.9336 16.1671 12.4391 16.0705 12.9478 15.9945C12.6746 15.5765 12.4194 15.1471 12.1828 14.7075C11.9475 15.2394 11.6974 15.7646 11.4328 16.2825V16.284ZM15.1018 16.959C15.3268 17.2035 15.5458 17.409 15.7543 17.574C16.1143 17.859 16.3648 17.9535 16.5013 17.958C16.5378 17.9628 16.5749 17.9548 16.6063 17.9355C16.6687 17.8862 16.7172 17.8216 16.7473 17.748C16.8006 17.6566 16.831 17.5537 16.8358 17.448C16.8349 17.4127 16.821 17.3791 16.7968 17.3535C16.7188 17.2605 16.4968 17.1255 16.0198 17.04C15.7163 16.9892 15.4094 16.9627 15.1018 16.9605V16.959ZM12.1168 11.7C12.243 11.2928 12.3432 10.8779 12.4168 10.458C12.4633 10.176 12.4813 9.94348 12.4738 9.76048C12.4742 9.65952 12.458 9.55918 12.4258 9.46348C12.3507 9.47277 12.2774 9.49299 12.2083 9.52348C12.0778 9.57598 11.9713 9.68248 11.9143 9.94798C11.8543 10.236 11.8693 10.6515 11.9833 11.181C12.0193 11.3475 12.0643 11.5215 12.1183 11.7H12.1168Z" fill="#EB1916"/>
</svg>
