<svg width="16" height="16" viewBox="0 0 16 16" fill="none" xmlns="http://www.w3.org/2000/svg">
<path d="M3.33333 2.66667C3.33333 2.84348 3.2631 3.01305 3.13807 3.13807C3.01305 3.2631 2.84348 3.33333 2.66667 3.33333C2.48986 3.33333 2.32029 3.2631 2.19526 3.13807C2.07024 3.01305 2 2.84348 2 2.66667C2 2.48986 2.07024 2.32029 2.19526 2.19526C2.32029 2.07024 2.48986 2 2.66667 2C2.84348 2 3.01305 2.07024 3.13807 2.19526C3.2631 2.32029 3.33333 2.48986 3.33333 2.66667ZM6 2.66667C6 2.84348 5.92976 3.01305 5.80474 3.13807C5.67971 3.2631 5.51014 3.33333 5.33333 3.33333C5.15652 3.33333 4.98695 3.2631 4.86193 3.13807C4.7369 3.01305 4.66667 2.84348 4.66667 2.66667C4.66667 2.48986 4.7369 2.32029 4.86193 2.19526C4.98695 2.07024 5.15652 2 5.33333 2C5.51014 2 5.67971 2.07024 5.80474 2.19526C5.92976 2.32029 6 2.48986 6 2.66667ZM8 3.33333C8.17681 3.33333 8.34638 3.2631 8.4714 3.13807C8.59643 3.01305 8.66667 2.84348 8.66667 2.66667C8.66667 2.48986 8.59643 2.32029 8.4714 2.19526C8.34638 2.07024 8.17681 2 8 2C7.82319 2 7.65362 2.07024 7.5286 2.19526C7.40357 2.32029 7.33333 2.48986 7.33333 2.66667C7.33333 2.84348 7.40357 3.01305 7.5286 3.13807C7.65362 3.2631 7.82319 3.33333 8 3.33333ZM11.3333 2.66667C11.3333 2.84348 11.2631 3.01305 11.1381 3.13807C11.013 3.2631 10.8435 3.33333 10.6667 3.33333C10.4899 3.33333 10.3203 3.2631 10.1953 3.13807C10.0702 3.01305 10 2.84348 10 2.66667C10 2.48986 10.0702 2.32029 10.1953 2.19526C10.3203 2.07024 10.4899 2 10.6667 2C10.8435 2 11.013 2.07024 11.1381 2.19526C11.2631 2.32029 11.3333 2.48986 11.3333 2.66667ZM13.3333 3.33333C13.5101 3.33333 13.6797 3.2631 13.8047 3.13807C13.9298 3.01305 14 2.84348 14 2.66667C14 2.48986 13.9298 2.32029 13.8047 2.19526C13.6797 2.07024 13.5101 2 13.3333 2C13.1565 2 12.987 2.07024 12.8619 2.19526C12.7369 2.32029 12.6667 2.48986 12.6667 2.66667C12.6667 2.84348 12.7369 3.01305 12.8619 3.13807C12.987 3.2631 13.1565 3.33333 13.3333 3.33333ZM3.33333 13.3333C3.33333 13.5101 3.2631 13.6797 3.13807 13.8047C3.01305 13.9298 2.84348 14 2.66667 14C2.48986 14 2.32029 13.9298 2.19526 13.8047C2.07024 13.6797 2 13.5101 2 13.3333C2 13.1565 2.07024 12.987 2.19526 12.8619C2.32029 12.7369 2.48986 12.6667 2.66667 12.6667C2.84348 12.6667 3.01305 12.7369 3.13807 12.8619C3.2631 12.987 3.33333 13.1565 3.33333 13.3333ZM6 13.3333C6 13.5101 5.92976 13.6797 5.80474 13.8047C5.67971 13.9298 5.51014 14 5.33333 14C5.15652 14 4.98695 13.9298 4.86193 13.8047C4.7369 13.6797 4.66667 13.5101 4.66667 13.3333C4.66667 13.1565 4.7369 12.987 4.86193 12.8619C4.98695 12.7369 5.15652 12.6667 5.33333 12.6667C5.51014 12.6667 5.67971 12.7369 5.80474 12.8619C5.92976 12.987 6 13.1565 6 13.3333ZM8 14C8.17681 14 8.34638 13.9298 8.4714 13.8047C8.59643 13.6797 8.66667 13.5101 8.66667 13.3333C8.66667 13.1565 8.59643 12.987 8.4714 12.8619C8.34638 12.7369 8.17681 12.6667 8 12.6667C7.82319 12.6667 7.65362 12.7369 7.5286 12.8619C7.40357 12.987 7.33333 13.1565 7.33333 13.3333C7.33333 13.5101 7.40357 13.6797 7.5286 13.8047C7.65362 13.9298 7.82319 14 8 14ZM11.3333 13.3333C11.3333 13.5101 11.2631 13.6797 11.1381 13.8047C11.013 13.9298 10.8435 14 10.6667 14C10.4899 14 10.3203 13.9298 10.1953 13.8047C10.0702 13.6797 10 13.5101 10 13.3333C10 13.1565 10.0702 12.987 10.1953 12.8619C10.3203 12.7369 10.4899 12.6667 10.6667 12.6667C10.8435 12.6667 11.013 12.7369 11.1381 12.8619C11.2631 12.987 11.3333 13.1565 11.3333 13.3333ZM13.3333 14C13.5101 14 13.6797 13.9298 13.8047 13.8047C13.9298 13.6797 14 13.5101 14 13.3333C14 13.1565 13.9298 12.987 13.8047 12.8619C13.6797 12.7369 13.5101 12.6667 13.3333 12.6667C13.1565 12.6667 12.987 12.7369 12.8619 12.8619C12.7369 12.987 12.6667 13.1565 12.6667 13.3333C12.6667 13.5101 12.7369 13.6797 12.8619 13.8047C12.987 13.9298 13.1565 14 13.3333 14ZM3.33333 8C3.51014 8 3.67971 7.92976 3.80474 7.80474C3.92976 7.67971 4 7.51014 4 7.33333C4 7.15652 3.92976 6.98695 3.80474 6.86193C3.67971 6.7369 3.51014 6.66667 3.33333 6.66667C3.15652 6.66667 2.98695 6.7369 2.86193 6.86193C2.7369 6.98695 2.66667 7.15652 2.66667 7.33333C2.66667 7.51014 2.7369 7.67971 2.86193 7.80474C2.98695 7.92976 3.15652 8 3.33333 8ZM13.3333 8.66667C13.3333 8.84348 13.2631 9.01305 13.1381 9.13807C13.013 9.2631 12.8435 9.33333 12.6667 9.33333C12.4899 9.33333 12.3203 9.2631 12.1953 9.13807C12.0702 9.01305 12 8.84348 12 8.66667C12 8.48986 12.0702 8.32029 12.1953 8.19526C12.3203 8.07024 12.4899 8 12.6667 8C12.8435 8 13.013 8.07024 13.1381 8.19526C13.2631 8.32029 13.3333 8.48986 13.3333 8.66667Z" fill="white"/>
<path fill-rule="evenodd" clip-rule="evenodd" d="M0 6C0 5.46957 0.210714 4.96086 0.585786 4.58579C0.960859 4.21071 1.46957 4 2 4H14C14.5304 4 15.0391 4.21071 15.4142 4.58579C15.7893 4.96086 16 5.46957 16 6V10C16 10.5304 15.7893 11.0391 15.4142 11.4142C15.0391 11.7893 14.5304 12 14 12H2C1.46957 12 0.960859 11.7893 0.585786 11.4142C0.210714 11.0391 0 10.5304 0 10L0 6ZM2 5.33333H14C14.1768 5.33333 14.3464 5.40357 14.4714 5.5286C14.5964 5.65362 14.6667 5.82319 14.6667 6V10C14.6667 10.1768 14.5964 10.3464 14.4714 10.4714C14.3464 10.5964 14.1768 10.6667 14 10.6667H2C1.82319 10.6667 1.65362 10.5964 1.5286 10.4714C1.40357 10.3464 1.33333 10.1768 1.33333 10V6C1.33333 5.82319 1.40357 5.65362 1.5286 5.5286C1.65362 5.40357 1.82319 5.33333 2 5.33333Z" fill="white"/>
</svg>
