<svg width="21" height="20" viewBox="0 0 21 20" fill="none" xmlns="http://www.w3.org/2000/svg">
<path d="M7.16406 14.9998L8.83073 13.3331H10.4974L11.6307 12.1998C12.7892 12.6034 14.0504 12.6018 15.2078 12.1952C16.3653 11.7887 17.3504 11.0013 18.0021 9.96193C18.6537 8.92255 18.9332 7.69275 18.7949 6.47381C18.6566 5.25488 18.1085 4.119 17.2406 3.25209C16.3726 2.38518 15.236 1.83858 14.0169 1.70177C12.7978 1.56495 11.5683 1.84602 10.5298 2.49897C9.4912 3.15192 8.70504 4.13807 8.29995 5.29602C7.89487 6.45397 7.89485 7.71514 8.2999 8.87311L2.16406 14.9998V18.3331H5.4974L7.16406 16.6664V14.9998Z" stroke="white" stroke-width="1.5" stroke-linecap="round" stroke-linejoin="round"/>
<path d="M14.6615 6.66667C15.1217 6.66667 15.4948 6.29357 15.4948 5.83333C15.4948 5.3731 15.1217 5 14.6615 5C14.2012 5 13.8281 5.3731 13.8281 5.83333C13.8281 6.29357 14.2012 6.66667 14.6615 6.66667Z" stroke="white" stroke-width="1.5" stroke-linecap="round" stroke-linejoin="round"/>
</svg>
