<svg width="98" height="96" viewBox="0 0 98 96" fill="none" xmlns="http://www.w3.org/2000/svg">
<g clip-path="url(#clip0_931_4584)">
<path d="M96.4844 48C96.4844 54.3035 95.2428 60.5452 92.8306 66.3688C90.4184 72.1924 86.8827 77.4839 82.4255 81.9411C77.9683 86.3984 72.6768 89.934 66.8532 92.3462C61.0295 94.7585 54.7878 96 48.4844 96C35.754 96 23.545 90.9429 14.5432 81.9411C5.54149 72.9394 0.484374 60.7304 0.484375 48C0.484374 35.2696 5.54149 23.0606 14.5432 14.0589C23.545 5.05714 35.754 3.25116e-06 48.4844 0C54.7878 -4.02452e-07 61.0295 1.24156 66.8532 3.65379C72.6768 6.06601 77.9683 9.60167 82.4255 14.0589C86.8827 18.5161 90.4184 23.8076 92.8306 29.6312C95.2428 35.4548 96.4844 41.6966 96.4844 48Z" fill="#EFEFF5"/>
<path d="M93.2113 48.0002C93.2113 59.8626 88.5564 71.2392 80.2707 79.6272C71.985 88.0152 60.7472 92.7275 49.0295 92.7275C37.3117 92.7275 26.0739 88.0152 17.7882 79.6272C9.50251 71.2392 4.84766 59.8626 4.84766 48.0002C4.84766 36.1378 9.50251 24.7613 17.7882 16.3733C26.0739 7.98527 37.3117 3.27295 49.0295 3.27295C60.7472 3.27295 71.985 7.98527 80.2707 16.3733C88.5564 24.7613 93.2113 36.1378 93.2113 48.0002Z" fill="url(#paint0_radial_931_4584)"/>
<path d="M49.0312 6.54541C48.673 6.54541 48.3846 6.83352 48.3846 7.19144V14.6431C48.3846 15.0011 48.673 15.2892 49.0312 15.2892C49.3895 15.2892 49.6779 15.0011 49.6779 14.6431V7.19144C49.6779 6.83352 49.3895 6.54541 49.0312 6.54541ZM44.8008 6.81253C44.7579 6.80792 44.7138 6.80792 44.6693 6.81306C44.313 6.85021 44.0561 7.16668 44.0933 7.52266L44.4192 10.6401C44.4564 10.9961 44.7732 11.2528 45.1295 11.2156C45.4858 11.1785 45.7428 10.862 45.7056 10.506L45.3799 7.38857C45.3473 7.07708 45.1006 6.84161 44.8008 6.81253H44.8008ZM53.2913 6.8156C52.9914 6.84445 52.7447 7.0799 52.7119 7.39134L52.3837 10.5085C52.3462 10.8645 52.6031 11.1813 52.9594 11.2187C53.3157 11.2561 53.6325 10.9997 53.67 10.6438L53.9982 7.5263C54.0357 7.17035 53.7787 6.85384 53.4224 6.81643C53.3779 6.81182 53.3341 6.81182 53.2912 6.81563L53.2913 6.8156ZM40.4551 7.4421C40.4121 7.44244 40.3683 7.4467 40.3245 7.45591C39.974 7.53004 39.7516 7.87168 39.8258 8.22182L41.3705 15.5118C41.4447 15.862 41.7867 16.0842 42.1372 16.0101C42.4877 15.9359 42.7101 15.5946 42.6359 15.2444L41.0912 7.95417C41.0262 7.64778 40.7564 7.43935 40.4551 7.4417L40.4551 7.4421ZM57.6367 7.44824C57.3355 7.44517 57.0655 7.65381 57.0004 7.96014L55.4503 15.2493C55.3758 15.5994 55.5981 15.9411 55.9485 16.0155C56.2989 16.0899 56.641 15.8678 56.7154 15.5178L58.2655 8.22862C58.34 7.87854 58.1177 7.5368 57.7673 7.46244C57.7235 7.45323 57.6798 7.44862 57.6367 7.44862L57.6367 7.44824ZM36.3078 8.61034C36.2241 8.60267 36.1376 8.61188 36.0524 8.64012C35.7117 8.75078 35.5264 9.1136 35.6372 9.45399L36.6067 12.4351C36.7175 12.7755 37.0809 12.9606 37.4216 12.85C37.7624 12.7393 37.9474 12.3762 37.8366 12.0359L36.8671 9.05473C36.7841 8.79943 36.5589 8.63161 36.3078 8.61028V8.61034ZM61.7605 8.61188C61.5094 8.63321 61.2843 8.80103 61.2012 9.05631L60.2311 12.0372C60.1204 12.3775 60.3055 12.7407 60.6461 12.8513C60.9869 12.962 61.3503 12.777 61.4611 12.4367L62.4312 9.45559C62.542 9.1152 62.3568 8.75208 62.0162 8.64144C61.9311 8.61381 61.8443 8.60476 61.7605 8.61182V8.61188ZM32.2066 10.1097C32.1225 10.1112 32.0375 10.1296 31.9557 10.166C31.6285 10.3114 31.4819 10.6916 31.6275 11.0186L34.657 17.828C34.8025 18.155 35.1831 18.3012 35.5104 18.1558C35.8376 18.0105 35.9844 17.6303 35.8389 17.3032L32.8091 10.4939C32.7 10.2486 32.4586 10.1048 32.2066 10.1097V10.1097ZM65.9081 10.1326C65.6561 10.1279 65.4145 10.2708 65.305 10.5159L62.2662 17.3211C62.1203 17.6479 62.2662 18.0284 62.5934 18.1742C62.9205 18.3201 63.3014 18.1743 63.4474 17.8475L66.4861 11.0424C66.632 10.7155 66.4862 10.335 66.159 10.1892C66.0773 10.1528 65.9921 10.1344 65.9081 10.1325V10.1326ZM28.3998 12.1219C28.2756 12.1127 28.1477 12.1403 28.0314 12.2076C27.7211 12.3865 27.6156 12.7801 27.7947 13.09L29.3635 15.8046C29.5426 16.1146 29.9365 16.22 30.2468 16.041C30.557 15.8621 30.6626 15.4686 30.4835 15.1586L28.9147 12.444C28.8027 12.2503 28.6067 12.1364 28.3998 12.122V12.1219ZM69.6627 12.1219C69.4558 12.1357 69.26 12.2502 69.1481 12.444L67.579 15.1585C67.3999 15.4685 67.5057 15.862 67.816 16.041C68.1262 16.22 68.5202 16.1145 68.6993 15.8046L70.2681 13.09C70.4472 12.78 70.3416 12.3865 70.0314 12.2075C69.9151 12.1405 69.7869 12.1133 69.6627 12.1219V12.1219ZM24.7032 14.4252C24.5788 14.4298 24.4542 14.4698 24.3454 14.5485C24.0555 14.7586 23.9914 15.161 24.2018 15.4508L28.5815 21.4824C28.7919 21.7721 29.195 21.8362 29.485 21.6261C29.775 21.4159 29.8391 21.0135 29.6286 20.7238L25.2486 14.6921C25.1171 14.5111 24.9105 14.4182 24.7032 14.4253V14.4252ZM73.4056 14.4581C73.1983 14.4504 72.9917 14.5433 72.8599 14.7241L68.4718 20.7499C68.2611 21.0393 68.3247 21.4419 68.6144 21.6525C68.9041 21.863 69.3071 21.7996 69.5178 21.5103L73.9057 15.4845C74.1164 15.1951 74.0527 14.7925 73.7631 14.582C73.6545 14.5031 73.53 14.4626 73.4056 14.4581L73.4056 14.4581ZM21.3991 17.1936C21.234 17.1844 21.0656 17.2395 20.9324 17.3592C20.6662 17.5987 20.6448 18.0055 20.8845 18.2715L22.9838 20.6013C23.2235 20.8673 23.6307 20.8887 23.897 20.6492C24.1633 20.4097 24.1847 20.0026 23.9449 19.7366L21.8459 17.4071C21.7261 17.274 21.5642 17.2022 21.3991 17.1935V17.1936ZM76.6681 17.1982C76.5031 17.2074 76.3412 17.2788 76.2213 17.4117L74.122 19.741C73.8823 20.007 73.9035 20.4141 74.1698 20.6536C74.436 20.8931 74.8433 20.8716 75.083 20.6057L77.1826 18.2765C77.4223 18.0105 77.4008 17.6033 77.1346 17.3639C77.0014 17.2442 76.8334 17.1896 76.6683 17.1983L76.6681 17.1982ZM18.2323 20.2326C18.0672 20.2418 17.9055 20.3131 17.7857 20.4461C17.546 20.7121 17.5674 21.119 17.8336 21.3584L23.3772 26.344C23.6435 26.5834 24.0507 26.562 24.2904 26.2961C24.5301 26.0301 24.5089 25.6232 24.2426 25.3838L18.6988 20.3982C18.5656 20.2785 18.3972 20.224 18.2321 20.2326L18.2323 20.2326ZM79.8503 20.2543C79.6853 20.2451 79.5166 20.3001 79.3834 20.4197L73.8365 25.4013C73.5701 25.6406 73.5482 26.0475 73.7876 26.3136C74.0271 26.5798 74.4347 26.6014 74.7011 26.3621L80.2483 21.3805C80.5147 21.1412 80.5364 20.7344 80.2969 20.4682C80.177 20.3351 80.0154 20.2631 79.8503 20.2543H79.8503ZM15.5988 23.6155C15.3914 23.6078 15.1847 23.7012 15.0531 23.8821C14.8426 24.1716 14.9064 24.574 15.1963 24.7843L17.7346 26.6268C18.0245 26.8372 18.4272 26.7736 18.6378 26.484C18.8484 26.1945 18.7846 25.7919 18.4949 25.5815L15.9566 23.7391C15.848 23.6602 15.7232 23.62 15.5988 23.6155L15.5988 23.6155ZM82.4813 23.639C82.3569 23.6436 82.2323 23.6834 82.1235 23.7622L79.5841 25.603C79.2941 25.8132 79.23 26.2158 79.4403 26.5056C79.6507 26.7952 80.0535 26.859 80.3434 26.6489L82.8832 24.8081C83.1731 24.598 83.237 24.1956 83.0267 23.9059C82.8951 23.7248 82.6886 23.632 82.4813 23.6391V23.639ZM13.1377 27.2241C12.9308 27.2379 12.7351 27.3524 12.6231 27.5461C12.444 27.856 12.5495 28.2496 12.8598 28.4286L19.3193 32.1544C19.6296 32.3334 20.0235 32.2279 20.2026 31.918C20.3818 31.608 20.2762 31.2145 19.966 31.0355L13.5064 27.3096C13.3901 27.2426 13.2619 27.2154 13.1377 27.224V27.2241ZM84.9247 27.2241C84.8006 27.2148 84.6724 27.2425 84.5561 27.3097L78.0965 31.0356C77.7863 31.2145 77.6807 31.6081 77.8599 31.918C78.039 32.228 78.4329 32.3334 78.7432 32.1545L85.203 28.4286C85.5133 28.2497 85.6188 27.8561 85.4397 27.5462C85.3277 27.3524 85.1317 27.2386 84.9247 27.2241V27.2241ZM11.277 31.0704C11.025 31.0642 10.7834 31.2083 10.6739 31.4534C10.528 31.7803 10.6738 32.1608 11.001 32.3066L13.8667 33.5836C14.1939 33.7294 14.5748 33.5837 14.7207 33.2569C14.8667 32.93 14.7205 32.5495 14.3934 32.4037L11.5279 31.1267C11.4462 31.0902 11.361 31.072 11.277 31.0704ZM86.798 31.0969C86.714 31.0984 86.6286 31.1169 86.5468 31.1532L83.6806 32.428C83.3533 32.5736 83.2069 32.9539 83.3526 33.2809C83.4984 33.6079 83.8794 33.7541 84.2067 33.6085L87.0729 32.3335C87.4002 32.188 87.5463 31.8075 87.4006 31.4806C87.2913 31.2353 87.05 31.0919 86.798 31.0969ZM9.61869 35.0904C9.36752 35.1115 9.14235 35.2791 9.05911 35.5343C8.94819 35.8746 9.13285 36.2378 9.47356 36.3487L16.5655 38.6573C16.9061 38.7682 17.2697 38.5835 17.3807 38.2433C17.4917 37.903 17.307 37.5398 16.9663 37.4289L9.87434 35.1203C9.78923 35.0925 9.7024 35.0834 9.61869 35.0905V35.0904ZM88.4533 35.1181C88.3696 35.1104 88.2831 35.1196 88.1979 35.1478L81.1043 37.4514C80.7636 37.5621 80.5785 37.9252 80.6893 38.2656C80.8 38.606 81.1635 38.7908 81.5042 38.6802L88.5976 36.3766C88.9383 36.2659 89.1236 35.9028 89.0129 35.5624C88.9298 35.3072 88.7044 35.1393 88.4533 35.118V35.1181ZM8.5855 39.3104C8.28424 39.3073 8.01406 39.5162 7.94889 39.8226C7.87438 40.1727 8.09668 40.5143 8.44707 40.5888L11.5162 41.2404C11.8667 41.3148 12.2087 41.0927 12.2832 40.7427C12.3577 40.3926 12.1354 40.0509 11.785 39.9765L8.7161 39.3249C8.67232 39.3157 8.62853 39.3111 8.58552 39.3111L8.5855 39.3104ZM89.4784 39.3165C89.4354 39.3169 89.3919 39.3227 89.3481 39.3303L86.2789 39.9817C85.9285 40.0561 85.7064 40.3975 85.7808 40.7476C85.8553 41.0977 86.1973 41.3199 86.5477 41.2456L89.6166 40.5942C89.967 40.5198 90.1895 40.1781 90.1151 39.828C90.0499 39.5217 89.7797 39.3133 89.4785 39.3158L89.4784 39.3165ZM7.80348 43.5551C7.5036 43.5838 7.25676 43.8189 7.22382 44.1303C7.18619 44.4862 7.44247 44.8032 7.79874 44.8408L15.2164 45.6242C15.5727 45.6618 15.8899 45.4055 15.9275 45.0496C15.9652 44.6937 15.7086 44.3768 15.3523 44.3392L7.93467 43.5557C7.89011 43.5511 7.84633 43.5511 7.80347 43.5551L7.80348 43.5551ZM90.266 43.6108C90.2231 43.6062 90.179 43.6062 90.1345 43.6114L82.716 44.3848C82.3596 44.422 82.1028 44.7384 82.1399 45.0944C82.1771 45.4504 82.4939 45.7071 82.8502 45.6699L90.2687 44.8965C90.625 44.8593 90.8819 44.5428 90.8448 44.1869C90.8122 43.8754 90.5658 43.6399 90.2659 43.6108L90.266 43.6108ZM7.67789 47.9002C7.31963 47.9002 7.03125 48.1883 7.03125 48.5462C7.03125 48.9041 7.31963 49.1922 7.67789 49.1922H10.8154C11.1737 49.1922 11.4624 48.9041 11.4624 48.5462C11.4624 48.1883 11.1737 47.9002 10.8154 47.9002H7.67789ZM87.2471 47.9002C86.8888 47.9002 86.6004 48.1883 86.6004 48.5462C86.6004 48.9041 86.8888 49.1922 87.2471 49.1922H90.3846C90.7428 49.1922 91.0312 48.9041 91.0312 48.5462C91.0312 48.1883 90.7428 47.9002 90.3846 47.9002H87.2471ZM15.3437 51.422C15.3008 51.4173 15.257 51.4173 15.2125 51.4225L7.79368 52.1959C7.43735 52.2331 7.1805 52.5496 7.21765 52.9055C7.25483 53.2615 7.57161 53.5182 7.92792 53.481L15.3467 52.7076C15.703 52.6704 15.9599 52.3539 15.9227 51.998C15.8902 51.6865 15.6435 51.451 15.3436 51.4219L15.3437 51.422ZM82.7149 51.4677C82.415 51.4964 82.1682 51.7315 82.1352 52.0429C82.0976 52.3988 82.3539 52.7157 82.7102 52.7533L90.1278 53.5368C90.4841 53.5744 90.8013 53.3181 90.839 52.9622C90.8766 52.6062 90.62 52.2893 90.2637 52.2517L82.8464 51.4683C82.8018 51.4636 82.7577 51.4636 82.7149 51.4677L82.7149 51.4677ZM11.6457 55.832C11.6027 55.8324 11.5589 55.8366 11.5151 55.8459L8.44598 56.4972C8.09553 56.5716 7.87338 56.9133 7.9478 57.2634C8.02231 57.6135 8.36431 57.8354 8.71475 57.761L11.7839 57.11C12.1343 57.0356 12.3565 56.6939 12.2821 56.3438C12.2169 56.0375 11.947 55.8291 11.6458 55.8316L11.6457 55.832ZM86.4159 55.8382C86.1147 55.8351 85.8448 56.0438 85.7796 56.3501C85.7051 56.7002 85.9271 57.0419 86.2775 57.1163L89.3467 57.7679C89.6971 57.8423 90.0391 57.6205 90.1136 57.2705C90.1881 56.9204 89.9658 56.5784 89.6154 56.504L86.5465 55.8524C86.5027 55.8432 86.459 55.8386 86.4159 55.8386L86.4159 55.8382ZM16.8139 58.3827C16.7302 58.375 16.6437 58.3842 16.5585 58.4124L9.46492 60.716C9.1242 60.8267 8.93916 61.1898 9.04991 61.5302C9.16067 61.8706 9.52413 62.0554 9.86485 61.9448L16.9582 59.6412C17.2989 59.5305 17.4842 59.1674 17.3735 58.827C17.2904 58.5718 17.0651 58.4039 16.8139 58.3826V58.3827ZM81.2416 58.4055C80.9904 58.4266 80.7653 58.5942 80.682 58.8494C80.5711 59.1897 80.7558 59.553 81.0965 59.6639L88.1884 61.9725C88.5291 62.0833 88.8927 61.8986 89.0036 61.5584C89.1147 61.2181 88.9299 60.8549 88.5892 60.744L81.4972 58.4354C81.4121 58.4076 81.3253 58.3985 81.2416 58.4056V58.4055ZM14.107 63.4282C14.023 63.4297 13.9379 63.4478 13.8561 63.4842L10.9896 64.7592C10.6623 64.9047 10.5162 65.2852 10.6619 65.6121C10.8077 65.9391 11.1884 66.085 11.5157 65.9395L14.3822 64.6647C14.7095 64.5192 14.8556 64.1388 14.7099 63.8118C14.6006 63.5666 14.359 63.4231 14.107 63.4282V63.4282ZM83.9451 63.4527C83.6931 63.4466 83.4515 63.5907 83.342 63.8358C83.1961 64.1627 83.3419 64.5432 83.6691 64.689L86.5345 65.966C86.8617 66.1118 87.2426 65.9661 87.3886 65.6392C87.5345 65.3124 87.3887 64.9318 87.0615 64.786L84.1961 63.5091C84.1143 63.4725 84.0291 63.4544 83.9451 63.4527V63.4527ZM19.688 64.8527C19.5638 64.8435 19.4357 64.8711 19.3193 64.9383L12.8598 68.6642C12.5495 68.8431 12.444 69.2367 12.6231 69.5466C12.8022 69.8566 13.1962 69.962 13.5064 69.7831L19.966 66.0575C20.2762 65.8785 20.3817 65.4847 20.2026 65.1748C20.0906 64.981 19.8949 64.8672 19.688 64.8527V64.8527ZM78.3748 64.8527C78.1679 64.8665 77.9718 64.981 77.8599 65.1747C77.6807 65.4847 77.7863 65.8785 78.0965 66.0575L84.5561 69.783C84.8663 69.962 85.2605 69.8565 85.4397 69.5466C85.6188 69.2366 85.5133 68.8431 85.203 68.6641L78.7432 64.9383C78.6269 64.8712 78.4989 64.844 78.3748 64.8526V64.8527ZM18.0768 70.3203C17.9524 70.3249 17.8277 70.365 17.719 70.4439L15.1796 72.2846C14.8896 72.4948 14.8254 72.8972 15.0358 73.1869C15.2462 73.4766 15.6489 73.5407 15.9389 73.3304L18.4786 71.4896C18.7686 71.2795 18.8327 70.8771 18.6224 70.5874C18.4909 70.4063 18.2841 70.3132 18.0768 70.3203L18.0768 70.3203ZM79.9703 70.3421C79.763 70.3344 79.5563 70.4277 79.4247 70.6087C79.2141 70.8982 79.278 71.3008 79.5679 71.5112L82.1062 73.3536C82.3961 73.564 82.7988 73.5002 83.0094 73.2106C83.22 72.921 83.1562 72.5187 82.8665 72.3083L80.3282 70.4659C80.2196 70.387 80.0948 70.3465 79.9704 70.342L79.9703 70.3421ZM23.8283 70.5652C23.6632 70.5559 23.4949 70.6109 23.3616 70.7305L17.8145 75.7122C17.548 75.9514 17.5264 76.3583 17.7659 76.6245C18.0054 76.8906 18.4126 76.9122 18.6791 76.673L24.2263 71.6913C24.4927 71.452 24.5144 71.0452 24.2748 70.779C24.1552 70.6459 23.9933 70.5739 23.8283 70.5652ZM74.2188 70.583C74.0538 70.5922 73.8919 70.6635 73.772 70.7965C73.5323 71.0625 73.5538 71.4694 73.82 71.7088L79.3635 76.6944C79.6298 76.9339 80.0373 76.9124 80.277 76.6465C80.5167 76.3805 80.4953 75.9736 80.2291 75.7342L74.6852 70.7486C74.552 70.6289 74.3839 70.5744 74.2188 70.583V70.583ZM29.0908 75.3156C28.8835 75.308 28.6766 75.4007 28.5449 75.5816L24.1571 81.6074C23.9463 81.8969 24.0097 82.2994 24.2993 82.51C24.589 82.7205 24.992 82.6572 25.2027 82.3677L29.5906 76.3419C29.8013 76.0525 29.7379 75.6499 29.4483 75.4393C29.3397 75.3605 29.2152 75.3199 29.0908 75.3156ZM68.9357 75.3427C68.8112 75.3473 68.6866 75.387 68.5779 75.4659C68.2879 75.6761 68.2238 76.0784 68.4341 76.3681L72.8138 82.3998C73.0242 82.6895 73.427 82.7536 73.717 82.5435C74.007 82.3333 74.0711 81.9309 73.8608 81.6412L69.481 75.6096C69.3495 75.4285 69.143 75.3356 68.9357 75.3427L68.9357 75.3427ZM23.4264 76.2733C23.2613 76.2826 23.0994 76.3539 22.9796 76.4869L20.8802 78.8162C20.6405 79.0822 20.6617 79.4893 20.928 79.7287C21.1943 79.9682 21.6015 79.9468 21.8412 79.6807L23.9408 77.3515C24.1805 77.0855 24.159 76.6784 23.8929 76.4389C23.7597 76.3192 23.5916 76.2646 23.4265 76.2733L23.4264 76.2733ZM74.6322 76.2764C74.4671 76.2672 74.299 76.3223 74.1658 76.442C73.8995 76.6815 73.8781 77.0883 74.1177 77.3543L76.2168 79.6841C76.4565 79.9501 76.8637 79.9715 77.13 79.732C77.3963 79.4926 77.4177 79.0855 77.1779 78.8194L75.0789 76.4899C74.959 76.3569 74.7971 76.285 74.632 76.2763L74.6322 76.2764ZM35.2182 78.8605C34.9662 78.8544 34.7249 78.9985 34.6154 79.2436L31.5764 86.0487C31.4304 86.3756 31.5763 86.7561 31.9035 86.9019C32.2307 87.0477 32.6115 86.902 32.7575 86.5751L35.7965 79.77C35.9425 79.4431 35.7966 79.0626 35.4694 78.9168C35.3877 78.8803 35.3022 78.8622 35.2182 78.8605ZM62.8032 78.8792C62.7192 78.8808 62.6339 78.8989 62.552 78.9352C62.2249 79.0806 62.0783 79.4608 62.2238 79.7879L65.2534 86.5972C65.3988 86.924 65.7797 87.0704 66.1071 86.9251C66.4343 86.7797 66.5808 86.3995 66.4353 86.0724L63.4058 79.2631C63.2967 79.018 63.0552 78.8744 62.8032 78.8792V78.8792ZM29.8781 80.9645C29.6712 80.9783 29.4754 81.0928 29.3635 81.2865L27.7947 84.0011C27.6156 84.3111 27.7211 84.7046 28.0314 84.8836C28.3416 85.0625 28.7356 84.9571 28.9147 84.6471L30.4835 81.9326C30.6626 81.6226 30.5571 81.2291 30.2468 81.0501C30.1305 80.983 30.0023 80.9559 29.8781 80.9645V80.9645ZM68.1843 80.9645C68.0602 80.9553 67.9323 80.9831 67.816 81.0501C67.5057 81.2291 67.4002 81.6227 67.5793 81.9326L69.1481 84.6472C69.3272 84.9571 69.7211 85.0626 70.0314 84.8836C70.3416 84.7047 70.4472 84.3111 70.2681 84.0012L68.6993 81.2866C68.5873 81.0929 68.3913 80.979 68.1843 80.9645V80.9645ZM41.9837 81.0618C41.6824 81.0587 41.4125 81.2674 41.3473 81.5737L39.7973 88.8629C39.7228 89.213 39.9451 89.5547 40.2954 89.6291C40.6459 89.7035 40.9879 89.4814 41.0624 89.1314L42.6124 81.8422C42.687 81.4921 42.4646 81.1504 42.1143 81.076C42.0705 81.0668 42.0267 81.0622 41.9837 81.0622L41.9837 81.0618ZM56.0559 81.0664C56.0129 81.0667 55.9694 81.071 55.9257 81.0802C55.5752 81.1544 55.3527 81.4957 55.4269 81.8459L56.9717 89.1361C57.0459 89.4863 57.3878 89.7085 57.7383 89.6344C58.0888 89.5603 58.3113 89.2186 58.2371 88.8685L56.692 81.5787C56.6271 81.2723 56.3572 81.0639 56.056 81.0662L56.0559 81.0664ZM49.0312 81.8017C48.673 81.8017 48.3846 82.0898 48.3846 82.4477V89.8994C48.3846 90.2573 48.673 90.5454 49.0312 90.5454C49.3895 90.5454 49.6779 90.2573 49.6779 89.8994V82.4477C49.6779 82.0898 49.3895 81.8017 49.0312 81.8017ZM37.161 84.2095C36.9098 84.2309 36.6845 84.3987 36.6014 84.654L35.6316 87.6351C35.5208 87.9755 35.7059 88.3386 36.0466 88.4493C36.3873 88.5599 36.7507 88.3747 36.8615 88.0344L37.8313 85.0535C37.9421 84.7132 37.757 84.35 37.4163 84.2394C37.3312 84.2118 37.2447 84.2025 37.161 84.2096V84.2095ZM60.8965 84.2111C60.8128 84.2034 60.7263 84.2126 60.6411 84.2407C60.3004 84.3514 60.1151 84.7145 60.2258 85.0549L61.1954 88.036C61.3062 88.3764 61.6696 88.5612 62.0103 88.4506C62.351 88.3399 62.5363 87.9771 62.4256 87.6367L61.4558 84.6556C61.3727 84.4003 61.1476 84.2325 60.8965 84.2112V84.2111ZM44.9722 85.8714C44.6723 85.9003 44.4252 86.1355 44.3925 86.4469L44.0645 89.5644C44.0271 89.9203 44.2837 90.2368 44.64 90.2743C44.9963 90.3117 45.3134 90.0553 45.3509 89.6993L45.6788 86.5821C45.7163 86.2262 45.4596 85.9094 45.1033 85.872C45.0588 85.8674 45.015 85.8674 44.9721 85.8714L44.9722 85.8714ZM53.0644 85.8745C53.0215 85.8699 52.9774 85.8699 52.9329 85.875C52.5765 85.9122 52.3196 86.2287 52.3568 86.5846L52.6828 89.7024C52.72 90.0583 53.0368 90.3148 53.3931 90.2776C53.7494 90.2404 54.0063 89.924 53.9691 89.568L53.6434 86.4505C53.6109 86.139 53.3642 85.9036 53.0643 85.8745L53.0644 85.8745Z" fill="#F4F2F3"/>
<g opacity="0.409" filter="url(#filter0_f_931_4584)">
<path d="M79.0291 21.8184L43.6072 42.7262L21.2109 78.5456L53.9748 53.8914L79.0291 21.8184Z" fill="black"/>
</g>
<path d="M54.2694 53.4545L44.1211 42.8073L80.1211 18.5454L54.2694 53.4545Z" fill="#FF5150"/>
<path d="M53.9375 53.1927L43.7892 42.5454L17.9375 77.4545L53.9375 53.1927Z" fill="#F1F1F1"/>
<path opacity="0.243" d="M17.9375 77.4545L54.1297 53.3L80.1193 18.5454L17.9375 77.4545Z" fill="black"/>
</g>
<defs>
<filter id="filter0_f_931_4584" x="18.6661" y="19.2735" width="62.9061" height="61.8167" filterUnits="userSpaceOnUse" color-interpolation-filters="sRGB">
<feFlood flood-opacity="0" result="BackgroundImageFix"/>
<feBlend mode="normal" in="SourceGraphic" in2="BackgroundImageFix" result="shape"/>
<feGaussianBlur stdDeviation="1.27242" result="effect1_foregroundBlur_931_4584"/>
</filter>
<radialGradient id="paint0_radial_931_4584" cx="0" cy="0" r="1" gradientUnits="userSpaceOnUse" gradientTransform="translate(49.2287 41.4784) scale(47.938 48.5299)">
<stop stop-color="#06C2E7"/>
<stop offset="0.25" stop-color="#0DB8EC"/>
<stop offset="0.5" stop-color="#12AEF1"/>
<stop offset="0.75" stop-color="#1F86F9"/>
<stop offset="1" stop-color="#107DDD"/>
</radialGradient>
<clipPath id="clip0_931_4584">
<rect width="96.5282" height="96" fill="white" transform="translate(0.484375)"/>
</clipPath>
</defs>
</svg>
