<svg width="16" height="16" viewBox="0 0 16 16" fill="none" xmlns="http://www.w3.org/2000/svg">
<g clip-path="url(#clip0_677_9288)">
<path d="M7.9987 5.00016H13.9537M5.66536 14.2468L9.88003 10.3335M1.9987 5.09083L5.6237 9.85083M7.9987 5.00016C8.79435 5.00016 9.55741 5.31623 10.12 5.87884C10.6826 6.44145 10.9987 7.20451 10.9987 8.00016C10.9987 8.79581 10.6826 9.55887 10.12 10.1215C9.55741 10.6841 8.79435 11.0002 7.9987 11.0002C7.20305 11.0002 6.43999 10.6841 5.87738 10.1215C5.31477 9.55887 4.9987 8.79581 4.9987 8.00016C4.9987 7.20451 5.31477 6.44145 5.87738 5.87884C6.43999 5.31623 7.20305 5.00016 7.9987 5.00016V5.00016ZM7.9987 14.6668C11.6807 14.6668 14.6654 11.6822 14.6654 8.00016C14.6654 4.31816 11.6807 1.3335 7.9987 1.3335C4.3167 1.3335 1.33203 4.31816 1.33203 8.00016C1.33203 11.6822 4.3167 14.6668 7.9987 14.6668Z" stroke="white" stroke-width="1.3" stroke-linecap="round" stroke-linejoin="round"/>
</g>
<defs>
<clipPath id="clip0_677_9288">
<rect width="16" height="16" fill="white"/>
</clipPath>
</defs>
</svg>
