<svg width="103" height="96" viewBox="0 0 103 96" fill="none" xmlns="http://www.w3.org/2000/svg">
<path d="M93.4122 32.4923C91.4271 27.7157 87.4002 22.5583 84.2468 20.928C86.4955 25.2825 88.0563 29.9589 88.8737 34.791L88.882 34.8676C83.7164 21.9948 74.9601 16.7962 67.8046 5.49132C67.4427 4.91959 67.0808 4.34669 66.7284 3.74195C66.5268 3.39656 66.3653 3.08535 66.225 2.79889C65.9283 2.22428 65.6996 1.61701 65.5436 0.989398C65.5438 0.960437 65.5334 0.932413 65.5143 0.910671C65.4951 0.888928 65.4687 0.874991 65.4399 0.871516C65.4117 0.863792 65.382 0.863792 65.3538 0.871516C65.348 0.871516 65.3385 0.882125 65.3314 0.884483C65.3244 0.886841 65.3091 0.89745 65.2984 0.902165L65.3161 0.871516C53.8403 7.59081 49.9443 20.0274 49.5906 26.2516C45.0061 26.5659 40.6228 28.2547 37.0126 31.0977C36.6361 30.7788 36.2425 30.4805 35.8338 30.2042C34.7928 26.5603 34.7485 22.704 35.7053 19.0372C31.4908 21.0787 27.7461 23.9728 24.708 27.5365H24.6868C22.8761 25.2413 23.0034 17.6733 23.1072 16.0925C22.5715 16.3078 22.0602 16.5792 21.5818 16.9023C19.9833 18.0431 18.489 19.3232 17.1164 20.7276C15.5522 22.3135 14.1236 24.0276 12.8455 25.852V25.859V25.8508C9.90853 30.0139 7.82515 34.7176 6.71564 39.6902L6.65435 39.9919C6.56829 40.3939 6.25826 42.4073 6.20521 42.8447C6.20521 42.8789 6.19814 42.9107 6.1946 42.9449C5.79469 45.0236 5.54687 47.1286 5.45312 49.2433V49.4791C5.47332 60.912 9.77892 71.9219 17.52 80.3354C25.261 88.7488 35.875 93.9545 47.2667 94.9248C58.6583 95.895 69.9998 92.5593 79.0522 85.5762C88.1046 78.593 94.2102 68.4699 96.1636 57.2051C96.2402 56.6157 96.3027 56.0322 96.371 55.4369C97.3121 47.6589 96.2934 39.769 93.4075 32.4852L93.4122 32.4923ZM40.7542 68.2578C40.9675 68.3603 41.1679 68.4711 41.3872 68.569L41.419 68.589C41.1974 68.4829 40.9758 68.3725 40.7542 68.2578ZM88.8832 34.8806V34.837L88.8914 34.8853L88.8832 34.8806Z" fill="url(#paint0_linear_931_4566)"/>
<path d="M93.4106 32.492C91.4254 27.7154 87.3986 22.558 84.2452 20.9277C86.4939 25.2822 88.0546 29.9586 88.8721 34.7907V34.8343L88.8804 34.8826C92.4025 44.9605 91.8931 56.0096 87.4587 65.7207C82.2224 76.956 69.5524 88.4719 49.7128 87.9061C28.2818 87.299 9.39703 71.3908 5.87235 50.561C5.22989 47.2756 5.87235 45.6099 6.19534 42.9399C5.75476 45.0139 5.50889 47.1245 5.46094 49.2442V49.48C5.48113 60.9129 9.78673 71.9228 17.5278 80.3363C25.2689 88.7497 35.8828 93.9554 47.2745 94.9257C58.6661 95.8959 70.0076 92.5602 79.06 85.5771C88.1124 78.5939 94.218 68.4708 96.1714 57.206C96.248 56.6166 96.3105 56.0331 96.3789 55.4378C97.3199 47.6598 96.3012 39.7699 93.4153 32.4861L93.4106 32.492Z" fill="url(#paint1_radial_931_4566)"/>
<path d="M93.4106 32.492C91.4254 27.7154 87.3986 22.558 84.2452 20.9277C86.4939 25.2822 88.0546 29.9586 88.8721 34.7907V34.8343L88.8804 34.8826C92.4025 44.9605 91.8931 56.0096 87.4587 65.7207C82.2224 76.956 69.5524 88.4719 49.7128 87.9061C28.2818 87.299 9.39703 71.3908 5.87235 50.561C5.22989 47.2756 5.87235 45.6099 6.19534 42.9399C5.75476 45.0139 5.50889 47.1245 5.46094 49.2442V49.48C5.48113 60.9129 9.78673 71.9228 17.5278 80.3363C25.2689 88.7497 35.8828 93.9554 47.2745 94.9257C58.6661 95.8959 70.0076 92.5602 79.06 85.5771C88.1124 78.5939 94.218 68.4708 96.1714 57.206C96.248 56.6166 96.3105 56.0331 96.3789 55.4378C97.3199 47.6598 96.3012 39.7699 93.4153 32.4861L93.4106 32.492Z" fill="url(#paint2_radial_931_4566)"/>
<path d="M71.204 37.8557C71.303 37.9253 71.395 37.9948 71.4881 38.0644C70.3405 36.0294 68.9118 34.1662 67.2443 32.5298C53.0395 18.325 63.5228 1.73894 65.2899 0.890192L65.3075 0.864258C53.8317 7.58355 49.9357 20.0201 49.582 26.2443C50.1149 26.2078 50.643 26.163 51.1876 26.163C55.2591 26.1709 59.2559 27.2567 62.7716 29.31C66.2874 31.3634 69.1968 34.3111 71.204 37.8534V37.8557Z" fill="url(#paint3_radial_931_4566)"/>
<path d="M51.2085 40.6967C51.1331 41.8331 47.118 45.7527 45.714 45.7527C32.7234 45.7527 30.6133 53.6119 30.6133 53.6119C31.1885 60.2298 35.8001 65.683 41.3748 68.5594C41.6294 68.6914 41.8875 68.8105 42.1457 68.9272C42.5929 69.1252 43.04 69.3083 43.4872 69.4765C45.4004 70.1535 47.4043 70.5401 49.432 70.6235C72.2069 71.6915 76.6157 43.3927 60.1817 35.1763C64.0583 34.6719 67.9841 35.6251 71.1978 37.851C69.1906 34.3087 66.2812 31.361 62.7654 29.3077C59.2497 27.2543 55.2529 26.1685 51.1814 26.1606C50.6391 26.1606 50.1087 26.2054 49.5758 26.242C44.9913 26.5563 40.608 28.2451 36.9978 31.0881C37.6945 31.6775 38.4807 32.465 40.137 34.0977C43.2373 37.152 51.1885 40.316 51.2061 40.6873L51.2085 40.6967Z" fill="url(#paint4_radial_931_4566)"/>
<path d="M51.2085 40.6967C51.1331 41.8331 47.118 45.7527 45.714 45.7527C32.7234 45.7527 30.6133 53.6119 30.6133 53.6119C31.1885 60.2298 35.8001 65.683 41.3748 68.5594C41.6294 68.6914 41.8875 68.8105 42.1457 68.9272C42.5929 69.1252 43.04 69.3083 43.4872 69.4765C45.4004 70.1535 47.4043 70.5401 49.432 70.6235C72.2069 71.6915 76.6157 43.3927 60.1817 35.1763C64.0583 34.6719 67.9841 35.6251 71.1978 37.851C69.1906 34.3087 66.2812 31.361 62.7654 29.3077C59.2497 27.2543 55.2529 26.1685 51.1814 26.1606C50.6391 26.1606 50.1087 26.2054 49.5758 26.242C44.9913 26.5563 40.608 28.2451 36.9978 31.0881C37.6945 31.6775 38.4807 32.465 40.137 34.0977C43.2373 37.152 51.1885 40.316 51.2061 40.6873L51.2085 40.6967Z" fill="url(#paint5_radial_931_4566)"/>
<path d="M34.8702 29.5806C35.2403 29.8164 35.5456 30.0215 35.8132 30.2065C34.7723 26.5627 34.7279 22.7064 35.6847 19.0396C31.4703 21.081 27.7255 23.9752 24.6875 27.5389C24.9103 27.533 31.5376 27.4139 34.8702 29.5806Z" fill="url(#paint6_radial_931_4566)"/>
<path d="M5.86661 50.5633C9.39247 71.3931 28.276 87.3073 49.7071 87.9084C69.5466 88.4696 82.219 76.9525 87.453 65.723C91.8874 56.012 92.3967 44.9628 88.8746 34.885V34.8414C88.8746 34.8072 88.8676 34.7871 88.8746 34.7977L88.8829 34.8744C90.5038 45.4567 85.1213 55.7042 76.7056 62.6474L76.6797 62.7064C60.2823 76.0625 44.5921 70.7625 41.4211 68.6005C41.1995 68.4944 40.9779 68.384 40.7562 68.2693C31.1972 63.7001 27.2469 54.9957 28.0957 47.522C25.8266 47.5555 23.5964 46.9302 21.6755 45.7219C19.7546 44.5136 18.2253 42.7741 17.2729 40.7143C19.7824 39.177 22.6437 38.308 25.5842 38.1899C28.5248 38.0719 31.4465 38.7088 34.0711 40.04C39.4811 42.4956 45.637 42.7376 51.223 40.7143C51.2053 40.3429 43.2542 37.1778 40.1539 34.1246C38.4976 32.492 37.7113 31.7057 37.0147 31.1151C36.6381 30.7962 36.2446 30.4979 35.8358 30.2216C35.5647 30.0365 35.2594 29.8361 34.8928 29.5956C31.5602 27.4289 24.9329 27.548 24.7136 27.5539H24.6924C22.8817 25.2587 23.0091 17.6907 23.1128 16.1099C22.5771 16.3251 22.0658 16.5966 21.5874 16.9197C19.9889 18.0605 18.4947 19.3406 17.122 20.745C15.5522 22.3264 14.1177 24.0366 12.8335 25.8576V25.8646V25.8564C9.89646 30.0195 7.81308 34.7232 6.70357 39.6958C6.68118 39.7889 5.05794 46.8854 5.85836 50.5657L5.86661 50.5633Z" fill="url(#paint7_radial_931_4566)"/>
<path d="M67.2411 32.5276C68.909 34.1658 70.3377 36.0309 71.4849 38.068C71.7359 38.2578 71.9705 38.4464 72.1698 38.6292C82.5281 48.1776 77.1008 61.6751 76.6964 62.63C85.1109 55.6973 90.4887 45.4428 88.8737 34.8569C83.7057 21.9724 74.94 16.7738 67.7963 5.46886C67.4344 4.89713 67.0725 4.32423 66.72 3.71949C66.5185 3.37409 66.357 3.06288 66.2167 2.77643C65.92 2.20182 65.6913 1.59455 65.5353 0.966937C65.5355 0.937976 65.5251 0.909952 65.5059 0.88821C65.4868 0.866467 65.4603 0.85253 65.4316 0.849055C65.4034 0.841331 65.3737 0.841331 65.3455 0.849055C65.3396 0.849055 65.3302 0.859664 65.3231 0.862022C65.3161 0.86438 65.3007 0.874989 65.2901 0.879704C63.5231 1.71785 53.0422 18.3145 67.247 32.5075L67.2411 32.5276Z" fill="url(#paint8_radial_931_4566)"/>
<path d="M72.1709 38.634C71.9717 38.4513 71.7371 38.2627 71.4861 38.0729C71.3929 38.0034 71.301 37.9338 71.202 37.8643C67.9883 35.6383 64.0625 34.6851 60.1859 35.1895C76.6186 43.4059 72.2098 71.6977 49.4362 70.6367C47.4084 70.5534 45.4046 70.1667 43.4914 69.4897C43.0442 69.3223 42.597 69.1392 42.1499 68.9404C41.8917 68.8225 41.6335 68.7046 41.3789 68.5726L41.4107 68.5926C44.5865 70.7605 60.2719 76.0569 76.6693 62.6985L76.6953 62.6396C77.1043 61.6847 82.5316 48.1872 72.1686 38.6387L72.1709 38.634Z" fill="url(#paint9_radial_931_4566)"/>
<path d="M30.6166 53.6048C30.6166 53.6048 32.7255 45.7455 45.7173 45.7455C47.1213 45.7455 51.1399 41.8259 51.2118 40.6896C45.6258 42.7129 39.4699 42.4709 34.0599 40.0153C31.4353 38.6841 28.5136 38.0472 25.573 38.1652C22.6325 38.2833 19.7712 39.1523 17.2617 40.6896C18.2141 42.7494 19.7434 44.4889 21.6643 45.6972C23.5853 46.9055 25.8154 47.5308 28.0845 47.4973C27.2381 54.9675 31.1872 63.6707 40.7451 68.2446C40.9584 68.3471 41.1588 68.4579 41.3781 68.5558C35.7987 65.6735 31.1919 60.2227 30.6166 53.6083V53.6048Z" fill="url(#paint10_radial_931_4566)"/>
<path d="M93.4138 32.4923C91.4286 27.7157 87.4018 22.5583 84.2484 20.928C86.497 25.2825 88.0578 29.9589 88.8753 34.791L88.8835 34.8676C83.7179 21.9948 74.9616 16.7962 67.8062 5.49132C67.4443 4.91959 67.0824 4.34669 66.7299 3.74195C66.5283 3.39656 66.3668 3.08535 66.2265 2.79889C65.9298 2.22428 65.7012 1.61701 65.5452 0.989398C65.5454 0.960437 65.5349 0.932413 65.5158 0.910671C65.4967 0.888928 65.4702 0.874991 65.4414 0.871516C65.4133 0.863792 65.3836 0.863792 65.3554 0.871516C65.3495 0.871516 65.3401 0.882125 65.333 0.884483C65.3259 0.886841 65.3106 0.89745 65.3 0.902165L65.3177 0.871516C53.8418 7.59081 49.9458 20.0274 49.5922 26.2516C50.125 26.215 50.6531 26.1702 51.1977 26.1702C55.2692 26.1781 59.266 27.2639 62.7818 29.3173C66.2975 31.3706 69.2069 34.3183 71.2141 37.8606C68.0005 35.6347 64.0747 34.6815 60.198 35.1859C76.6308 43.4023 72.222 71.694 49.4484 70.6331C47.4206 70.5497 45.4168 70.1631 43.5035 69.4861C43.0564 69.3187 42.6092 69.1356 42.162 68.9368C41.9039 68.8189 41.6457 68.701 41.3911 68.569L41.4229 68.589C41.2013 68.4829 40.9797 68.3725 40.7581 68.2578C40.9714 68.3603 41.1718 68.4711 41.3911 68.569C35.8117 65.6856 31.2049 60.2347 30.6296 53.6215C30.6296 53.6215 32.7385 45.7623 45.7303 45.7623C47.1343 45.7623 51.1529 41.8427 51.2248 40.7063C51.2072 40.335 43.256 37.1698 40.1557 34.1167C38.4994 32.484 37.7132 31.6977 37.0165 31.1072C36.64 30.7882 36.2465 30.4899 35.8377 30.2136C34.7967 26.5698 34.7524 22.7134 35.7092 19.0466C31.4947 21.0881 27.75 23.9823 24.7119 27.5459H24.6907C22.88 25.2508 23.0074 17.6827 23.1111 16.1019C22.5754 16.3172 22.0641 16.5887 21.5857 16.9118C19.9872 18.0526 18.4929 19.3327 17.1203 20.737C15.5561 22.3229 14.1275 24.037 12.8494 25.8614V25.8685V25.8602C9.91243 30.0234 7.82906 34.727 6.71955 39.6996L6.65825 40.0014C6.5722 40.4034 6.18672 42.4451 6.13132 42.8836C5.77873 44.9912 5.55356 47.1181 5.45703 49.2528V49.4885C5.47722 60.9214 9.78283 71.9313 17.5239 80.3448C25.2649 88.7583 35.8789 93.964 47.2706 94.9342C58.6622 95.9045 70.0037 92.5688 79.0561 85.5856C88.1085 78.6025 94.2141 68.4793 96.1675 57.2145C96.2441 56.6251 96.3066 56.0416 96.375 55.4463C97.316 47.6683 96.2973 39.7785 93.4114 32.4946L93.4138 32.4923ZM88.8812 34.8393L88.8894 34.8876L88.8812 34.8393Z" fill="url(#paint11_linear_931_4566)"/>
<defs>
<linearGradient id="paint0_linear_931_4566" x1="87.3648" y1="15.4652" x2="11.5158" y2="88.6466" gradientUnits="userSpaceOnUse">
<stop offset="0.048" stop-color="#FFF44F"/>
<stop offset="0.111" stop-color="#FFE847"/>
<stop offset="0.225" stop-color="#FFC830"/>
<stop offset="0.368" stop-color="#FF980E"/>
<stop offset="0.401" stop-color="#FF8B16"/>
<stop offset="0.462" stop-color="#FF672A"/>
<stop offset="0.534" stop-color="#FF3647"/>
<stop offset="0.705" stop-color="#E31587"/>
</linearGradient>
<radialGradient id="paint1_radial_931_4566" cx="0" cy="0" r="1" gradientUnits="userSpaceOnUse" gradientTransform="translate(84.4279 11.4736) scale(95.2489 95.2489)">
<stop offset="0.129" stop-color="#FFBD4F"/>
<stop offset="0.186" stop-color="#FFAC31"/>
<stop offset="0.247" stop-color="#FF9D17"/>
<stop offset="0.283" stop-color="#FF980E"/>
<stop offset="0.403" stop-color="#FF563B"/>
<stop offset="0.467" stop-color="#FF3750"/>
<stop offset="0.71" stop-color="#F5156C"/>
<stop offset="0.782" stop-color="#EB0878"/>
<stop offset="0.86" stop-color="#E50080"/>
</radialGradient>
<radialGradient id="paint2_radial_931_4566" cx="0" cy="0" r="1" gradientUnits="userSpaceOnUse" gradientTransform="translate(49.0632 50.3747) scale(95.2489 95.2489)">
<stop offset="0.3" stop-color="#960E18"/>
<stop offset="0.351" stop-color="#B11927" stop-opacity="0.74"/>
<stop offset="0.435" stop-color="#DB293D" stop-opacity="0.343"/>
<stop offset="0.497" stop-color="#F5334B" stop-opacity="0.094"/>
<stop offset="0.53" stop-color="#FF3750" stop-opacity="0"/>
</radialGradient>
<radialGradient id="paint3_radial_931_4566" cx="0" cy="0" r="1" gradientUnits="userSpaceOnUse" gradientTransform="translate(60.8539 -9.74515) scale(68.9965 68.9965)">
<stop offset="0.132" stop-color="#FFF44F"/>
<stop offset="0.252" stop-color="#FFDC3E"/>
<stop offset="0.506" stop-color="#FF9D12"/>
<stop offset="0.526" stop-color="#FF980E"/>
</radialGradient>
<radialGradient id="paint4_radial_931_4566" cx="0" cy="0" r="1" gradientUnits="userSpaceOnUse" gradientTransform="translate(38.4536 75.1301) scale(45.3493 45.3493)">
<stop offset="0.353" stop-color="#3A8EE6"/>
<stop offset="0.472" stop-color="#5C79F0"/>
<stop offset="0.669" stop-color="#9059FF"/>
<stop offset="1" stop-color="#C139E6"/>
</radialGradient>
<radialGradient id="paint5_radial_931_4566" cx="0" cy="0" r="1" gradientUnits="userSpaceOnUse" gradientTransform="translate(53.6699 42.1985) rotate(-13.5916) scale(24.0481 28.1543)">
<stop offset="0.206" stop-color="#9059FF" stop-opacity="0"/>
<stop offset="0.278" stop-color="#8C4FF3" stop-opacity="0.064"/>
<stop offset="0.747" stop-color="#7716A8" stop-opacity="0.45"/>
<stop offset="0.975" stop-color="#6E008B" stop-opacity="0.6"/>
</radialGradient>
<radialGradient id="paint6_radial_931_4566" cx="0" cy="0" r="1" gradientUnits="userSpaceOnUse" gradientTransform="translate(47.8844 7.93739) scale(32.6298 32.6298)">
<stop stop-color="#FFE226"/>
<stop offset="0.121" stop-color="#FFDB27"/>
<stop offset="0.295" stop-color="#FFC82A"/>
<stop offset="0.502" stop-color="#FFA930"/>
<stop offset="0.732" stop-color="#FF7E37"/>
<stop offset="0.792" stop-color="#FF7139"/>
</radialGradient>
<radialGradient id="paint7_radial_931_4566" cx="0" cy="0" r="1" gradientUnits="userSpaceOnUse" gradientTransform="translate(73.8211 -13.2817) scale(139.219 139.219)">
<stop offset="0.113" stop-color="#FFF44F"/>
<stop offset="0.456" stop-color="#FF980E"/>
<stop offset="0.622" stop-color="#FF5634"/>
<stop offset="0.716" stop-color="#FF3647"/>
<stop offset="0.904" stop-color="#E31587"/>
</radialGradient>
<radialGradient id="paint8_radial_931_4566" cx="0" cy="0" r="1" gradientUnits="userSpaceOnUse" gradientTransform="translate(62.2476 -5.56256) rotate(83.976) scale(102.022 66.9559)">
<stop stop-color="#FFF44F"/>
<stop offset="0.06" stop-color="#FFE847"/>
<stop offset="0.168" stop-color="#FFC830"/>
<stop offset="0.304" stop-color="#FF980E"/>
<stop offset="0.356" stop-color="#FF8B16"/>
<stop offset="0.455" stop-color="#FF672A"/>
<stop offset="0.57" stop-color="#FF3647"/>
<stop offset="0.737" stop-color="#E31587"/>
</radialGradient>
<radialGradient id="paint9_radial_931_4566" cx="0" cy="0" r="1" gradientUnits="userSpaceOnUse" gradientTransform="translate(47.8872 19.7257) scale(86.9028 86.9028)">
<stop offset="0.137" stop-color="#FFF44F"/>
<stop offset="0.48" stop-color="#FF980E"/>
<stop offset="0.592" stop-color="#FF5634"/>
<stop offset="0.655" stop-color="#FF3647"/>
<stop offset="0.904" stop-color="#E31587"/>
</radialGradient>
<radialGradient id="paint10_radial_931_4566" cx="0" cy="0" r="1" gradientUnits="userSpaceOnUse" gradientTransform="translate(70.284 24.4407) scale(95.1192 95.1192)">
<stop offset="0.094" stop-color="#FFF44F"/>
<stop offset="0.231" stop-color="#FFE141"/>
<stop offset="0.509" stop-color="#FFAF1E"/>
<stop offset="0.626" stop-color="#FF980E"/>
</radialGradient>
<linearGradient id="paint11_linear_931_4566" x1="86.4469" y1="15.0762" x2="21.9181" y2="79.6168" gradientUnits="userSpaceOnUse">
<stop offset="0.167" stop-color="#FFF44F" stop-opacity="0.8"/>
<stop offset="0.266" stop-color="#FFF44F" stop-opacity="0.634"/>
<stop offset="0.489" stop-color="#FFF44F" stop-opacity="0.217"/>
<stop offset="0.6" stop-color="#FFF44F" stop-opacity="0"/>
</linearGradient>
</defs>
</svg>
