<svg width="97" height="96" viewBox="0 0 97 96" fill="none" xmlns="http://www.w3.org/2000/svg">
<g clip-path="url(#clip0_931_4600)">
<path d="M87.1695 71.4375C85.8822 72.1065 84.5546 72.6951 83.1945 73.2C78.8878 74.803 74.3273 75.616 69.732 75.6C51.9945 75.6 36.5445 63.4125 36.5445 47.7375C36.5676 45.6385 37.1495 43.5836 38.2305 41.7843C39.3114 39.9849 40.8523 38.5061 42.6945 37.5C26.6445 38.175 22.5195 54.9 22.5195 64.6875C22.5195 92.4375 48.057 95.2125 53.5695 95.2125C56.532 95.2125 60.9945 94.35 63.6945 93.4875L64.182 93.3375C74.5148 89.7667 83.3233 82.7833 89.157 73.5375C89.3266 73.2566 89.3993 72.9278 89.3642 72.6016C89.329 72.2754 89.1878 71.9697 88.9622 71.7313C88.7367 71.493 88.4392 71.3353 88.1154 71.2822C87.7916 71.2291 87.4594 71.2837 87.1695 71.4375Z" fill="url(#paint0_linear_931_4600)"/>
<path opacity="0.35" d="M87.1695 71.4375C85.8822 72.1065 84.5546 72.6951 83.1945 73.2C78.8878 74.803 74.3273 75.616 69.732 75.6C51.9945 75.6 36.5445 63.4125 36.5445 47.7375C36.5676 45.6385 37.1495 43.5836 38.2305 41.7843C39.3114 39.9849 40.8523 38.5061 42.6945 37.5C26.6445 38.175 22.5195 54.9 22.5195 64.6875C22.5195 92.4375 48.057 95.2125 53.5695 95.2125C56.532 95.2125 60.9945 94.35 63.6945 93.4875L64.182 93.3375C74.5148 89.7667 83.3233 82.7833 89.157 73.5375C89.3266 73.2566 89.3993 72.9278 89.3642 72.6016C89.329 72.2754 89.1878 71.9697 88.9622 71.7313C88.7367 71.493 88.4392 71.3353 88.1154 71.2822C87.7916 71.2291 87.4594 71.2837 87.1695 71.4375Z" fill="url(#paint1_radial_931_4600)"/>
<path d="M40.145 90.4876C36.807 88.4144 33.9136 85.6995 31.6325 82.5001C29.0275 78.9346 27.2344 74.8421 26.3789 70.51C25.5235 66.1779 25.6264 61.7111 26.6806 57.423C27.7347 53.1349 29.7145 49.1295 32.4811 45.6877C35.2476 42.246 38.7337 39.4514 42.695 37.5001C43.895 36.9376 45.8825 35.9626 48.545 36.0001C50.4185 36.0146 52.2633 36.4622 53.9352 37.3079C55.607 38.1536 57.0607 39.3744 58.1825 40.8751C59.6913 42.9042 60.5184 45.3592 60.545 47.8876C60.545 47.8126 69.7325 18.0376 30.545 18.0376C14.0825 18.0376 0.54496 33.6376 0.54496 47.3626C0.47948 54.6127 2.0295 61.7863 5.08246 68.3626C10.0822 79.0089 18.817 87.449 29.6286 92.0806C40.4402 96.7121 52.5761 97.2128 63.7325 93.4876C59.8239 94.7221 55.6939 95.0931 51.6278 94.5751C47.5618 94.0572 43.6567 92.6625 40.1825 90.4876H40.145Z" fill="url(#paint2_linear_931_4600)"/>
<path opacity="0.41" d="M40.145 90.4876C36.807 88.4144 33.9136 85.6995 31.6325 82.5001C29.0275 78.9346 27.2344 74.8421 26.3789 70.51C25.5235 66.1779 25.6264 61.7111 26.6806 57.423C27.7347 53.1349 29.7145 49.1295 32.4811 45.6877C35.2476 42.246 38.7337 39.4514 42.695 37.5001C43.895 36.9376 45.8825 35.9626 48.545 36.0001C50.4185 36.0146 52.2633 36.4622 53.9352 37.3079C55.607 38.1536 57.0607 39.3744 58.1825 40.8751C59.6913 42.9042 60.5184 45.3592 60.545 47.8876C60.545 47.8126 69.7325 18.0376 30.545 18.0376C14.0825 18.0376 0.54496 33.6376 0.54496 47.3626C0.47948 54.6127 2.0295 61.7863 5.08246 68.3626C10.0822 79.0089 18.817 87.449 29.6286 92.0806C40.4402 96.7121 52.5761 97.2128 63.7325 93.4876C59.8239 94.7221 55.6939 95.0931 51.6278 94.5751C47.5618 94.0572 43.6567 92.6625 40.1825 90.4876H40.145Z" fill="url(#paint3_radial_931_4600)"/>
<path d="M57.6578 55.8C57.3203 56.175 56.3828 56.7375 56.3828 57.9C56.3828 58.875 57.0203 59.85 58.1828 60.6375C63.5453 64.3875 73.7078 63.8625 73.7453 63.8625C77.743 63.8599 81.6668 62.785 85.1078 60.75C88.5721 58.7237 91.4465 55.8271 93.4462 52.3475C95.4459 48.8678 96.5013 44.9258 96.5078 40.9125C96.6203 32.5125 93.5078 26.925 92.2703 24.45C84.2828 8.925 67.1453 2.34991e-07 48.5078 2.34991e-07C35.8935 -0.00124709 23.7857 4.96312 14.8031 13.8194C5.82053 22.6757 0.685201 34.7119 0.507812 47.325C0.695312 33.6375 14.3078 22.575 30.5078 22.575C31.8203 22.575 39.3203 22.6875 46.2578 26.325C51.1317 28.7469 55.1679 32.5741 57.8453 37.3125C60.1328 41.2875 60.5453 46.35 60.5453 48.375C60.5453 50.4 59.5328 53.3625 57.6203 55.8375L57.6578 55.8Z" fill="url(#paint4_radial_931_4600)"/>
<path d="M57.6578 55.8C57.3203 56.175 56.3828 56.7375 56.3828 57.9C56.3828 58.875 57.0203 59.85 58.1828 60.6375C63.5453 64.3875 73.7078 63.8625 73.7453 63.8625C77.743 63.8599 81.6668 62.785 85.1078 60.75C88.5721 58.7237 91.4465 55.8271 93.4462 52.3475C95.4459 48.8678 96.5013 44.9258 96.5078 40.9125C96.6203 32.5125 93.5078 26.925 92.2703 24.45C84.2828 8.925 67.1453 2.34991e-07 48.5078 2.34991e-07C35.8935 -0.00124709 23.7857 4.96312 14.8031 13.8194C5.82053 22.6757 0.685201 34.7119 0.507812 47.325C0.695312 33.6375 14.3078 22.575 30.5078 22.575C31.8203 22.575 39.3203 22.6875 46.2578 26.325C51.1317 28.7469 55.1679 32.5741 57.8453 37.3125C60.1328 41.2875 60.5453 46.35 60.5453 48.375C60.5453 50.4 59.5328 53.3625 57.6203 55.8375L57.6578 55.8Z" fill="url(#paint5_radial_931_4600)"/>
</g>
<defs>
<linearGradient id="paint0_linear_931_4600" x1="22.5195" y1="66.375" x2="89.4195" y2="66.375" gradientUnits="userSpaceOnUse">
<stop stop-color="#0C59A4"/>
<stop offset="1" stop-color="#114A8B"/>
</linearGradient>
<radialGradient id="paint1_radial_931_4600" cx="0" cy="0" r="1" gradientUnits="userSpaceOnUse" gradientTransform="translate(59.457 66.8794) scale(35.775 33.9862)">
<stop offset="0.7" stop-opacity="0"/>
<stop offset="0.9" stop-opacity="0.5"/>
<stop offset="1"/>
</radialGradient>
<linearGradient id="paint2_linear_931_4600" x1="57.77" y1="37.3501" x2="16.0325" y2="82.8376" gradientUnits="userSpaceOnUse">
<stop stop-color="#1B9DE2"/>
<stop offset="0.2" stop-color="#1595DF"/>
<stop offset="0.7" stop-color="#0680D7"/>
<stop offset="1" stop-color="#0078D4"/>
</linearGradient>
<radialGradient id="paint3_radial_931_4600" cx="0" cy="0" r="1" gradientUnits="userSpaceOnUse" gradientTransform="translate(26.9656 74.6015) rotate(-81.3844) scale(53.7698 43.4406)">
<stop offset="0.8" stop-opacity="0"/>
<stop offset="0.9" stop-opacity="0.5"/>
<stop offset="1"/>
</radialGradient>
<radialGradient id="paint4_radial_931_4600" cx="0" cy="0" r="1" gradientUnits="userSpaceOnUse" gradientTransform="translate(10.2166 17.7435) rotate(92.2906) scale(75.9607 161.78)">
<stop stop-color="#35C1F1"/>
<stop offset="0.1" stop-color="#34C1ED"/>
<stop offset="0.2" stop-color="#2FC2DF"/>
<stop offset="0.3" stop-color="#2BC3D2"/>
<stop offset="0.7" stop-color="#36C752"/>
</radialGradient>
<radialGradient id="paint5_radial_931_4600" cx="0" cy="0" r="1" gradientUnits="userSpaceOnUse" gradientTransform="translate(90.5303 28.9875) rotate(73.7398) scale(36.4875 29.6716)">
<stop stop-color="#66EB6E"/>
<stop offset="1" stop-color="#66EB6E" stop-opacity="0"/>
</radialGradient>
<clipPath id="clip0_931_4600">
<rect width="96" height="96" fill="white" transform="translate(0.507812)"/>
</clipPath>
</defs>
</svg>
