<svg width="20" height="20" viewBox="0 0 20 20" fill="none" xmlns="http://www.w3.org/2000/svg">
<path d="M6.66797 3.33317V13.3332C6.66797 13.7752 6.84356 14.1991 7.15612 14.5117C7.46869 14.8242 7.89261 14.9998 8.33464 14.9998H15.0013C15.4433 14.9998 15.8673 14.8242 16.1798 14.5117C16.4924 14.1991 16.668 13.7752 16.668 13.3332V6.03484C16.6679 5.8128 16.6235 5.59301 16.5374 5.38837C16.4513 5.18374 16.3251 4.99837 16.1663 4.84317L13.4038 2.1415C13.0924 1.83705 12.6743 1.66656 12.2388 1.6665H8.33464C7.89261 1.6665 7.46869 1.8421 7.15612 2.15466C6.84356 2.46722 6.66797 2.89114 6.66797 3.33317V3.33317Z" stroke="#008DF4" stroke-width="1.3" stroke-linecap="round" stroke-linejoin="round"/>
<path d="M13.334 14.9997V16.6663C13.334 17.1084 13.1584 17.5323 12.8458 17.8449C12.5333 18.1574 12.1093 18.333 11.6673 18.333H5.00065C4.55862 18.333 4.1347 18.1574 3.82214 17.8449C3.50958 17.5323 3.33398 17.1084 3.33398 16.6663V7.49967C3.33398 7.05765 3.50958 6.63372 3.82214 6.32116C4.1347 6.0086 4.55862 5.83301 5.00065 5.83301H6.66732" stroke="#008DF4" stroke-width="1.3" stroke-linecap="round" stroke-linejoin="round"/>
</svg>
