<svg width="97" height="96" viewBox="0 0 97 96" fill="none" xmlns="http://www.w3.org/2000/svg">
<path d="M48.5184 93.6733C73.7265 93.6733 94.1618 73.2248 94.1618 48.0002C94.1618 22.7757 73.7265 2.32715 48.5184 2.32715C23.3102 2.32715 2.875 22.7757 2.875 48.0002C2.875 73.2248 23.3102 93.6733 48.5184 93.6733Z" fill="white"/>
<path fill-rule="evenodd" clip-rule="evenodd" d="M48.5172 4.65388C24.5956 4.65388 5.20075 24.0592 5.20075 48C5.20075 71.9408 24.5956 91.3461 48.5172 91.3461C72.4388 91.3461 91.8336 71.9408 91.8336 48C91.8336 24.0592 72.4388 4.65388 48.5172 4.65388ZM0.546875 48C0.546875 21.4918 22.0225 0 48.5172 0C75.0119 0 96.4875 21.4918 96.4875 48C96.4875 74.5082 75.0119 96 48.5172 96C22.0225 96 0.546875 74.5082 0.546875 48Z" fill="url(#paint0_linear_931_4580)"/>
<path d="M26.2577 19.0088L17.7734 27.493L42.5741 52.2956V81.7804H54.5744V52.2636L79.345 27.493L70.8608 19.0088L48.5582 41.3113L26.2577 19.0088Z" fill="#FF0000"/>
<defs>
<linearGradient id="paint0_linear_931_4580" x1="-3308.07" y1="-1528.1" x2="-3308.07" y2="-1690.14" gradientUnits="userSpaceOnUse">
<stop stop-color="#D3D3D3"/>
<stop offset="1" stop-color="#FCF9F9"/>
</linearGradient>
</defs>
</svg>
