<svg width="16" height="16" viewBox="0 0 16 16" fill="none" xmlns="http://www.w3.org/2000/svg">
<path d="M6 3.33333H4.66667C4.31304 3.33333 3.97391 3.47381 3.72386 3.72386C3.47381 3.97391 3.33333 4.31304 3.33333 4.66667V6M6 3.33333V2M6 3.33333H10M3.33333 6V10M3.33333 6H2M10 3.33333H11.3333C11.687 3.33333 12.0261 3.47381 12.2761 3.72386C12.5262 3.97391 12.6667 4.31304 12.6667 4.66667V11.3333C12.6667 11.687 12.5262 12.0261 12.2761 12.2761C12.0261 12.5262 11.687 12.6667 11.3333 12.6667H4.66667C4.31304 12.6667 3.97391 12.5262 3.72386 12.2761C3.47381 12.0261 3.33333 11.687 3.33333 11.3333V10M10 3.33333V2M3.33333 10H2M6 14V12.6667M10 14V12.6667M14 10H12.6667M14 6H12.6667M8.66667 6.66667H7.33333C7.15652 6.66667 6.98695 6.7369 6.86193 6.86193C6.7369 6.98695 6.66667 7.15652 6.66667 7.33333V8.66667C6.66667 8.84348 6.7369 9.01305 6.86193 9.13807C6.98695 9.2631 7.15652 9.33333 7.33333 9.33333H8.66667C8.84348 9.33333 9.01305 9.2631 9.13807 9.13807C9.2631 9.01305 9.33333 8.84348 9.33333 8.66667V7.33333C9.33333 7.15652 9.2631 6.98695 9.13807 6.86193C9.01305 6.7369 8.84348 6.66667 8.66667 6.66667Z" stroke="white" stroke-width="1.3" stroke-linecap="round" stroke-linejoin="round"/>
</svg>
