<svg width="16" height="16" viewBox="0 0 16 16" fill="none" xmlns="http://www.w3.org/2000/svg">
<path d="M10.3552 1.87214C9.85124 1.36814 8.97391 1.36814 8.46991 1.87214L1.87057 8.47147C1.62078 8.7216 1.48047 9.06064 1.48047 9.41414C1.48047 9.76764 1.62078 10.1067 1.87057 10.3568L5.64191 14.1281C5.89391 14.3801 6.22857 14.5188 6.58457 14.5188C6.94057 14.5188 7.27524 14.3801 7.52724 14.1281L14.1266 7.52881C14.3786 7.27681 14.5172 6.94214 14.5172 6.58614C14.5172 6.23014 14.3786 5.89547 14.1266 5.64347L10.3552 1.87214ZM6.58457 13.1855V13.8521V13.1855L2.81324 9.41414L9.41257 2.81481L13.1839 6.58614L6.58457 13.1855Z" fill="white"/>
<path d="M5.9987 10.6668C6.36689 10.6668 6.66536 10.3684 6.66536 10.0002C6.66536 9.63197 6.36689 9.3335 5.9987 9.3335C5.63051 9.3335 5.33203 9.63197 5.33203 10.0002C5.33203 10.3684 5.63051 10.6668 5.9987 10.6668Z" fill="white"/>
<path d="M10.47 14.4715L9.52734 13.5288L13.5273 9.52881L14.47 10.4721L10.47 14.4715ZM5.52734 1.52881L6.47001 2.47148L2.47001 6.47148L1.52734 5.52814L5.52734 1.52881Z" fill="white"/>
</svg>
