<svg width="116" height="144" viewBox="0 0 116 144" fill="none" xmlns="http://www.w3.org/2000/svg">
<g clip-path="url(#clip0_811_11067)">
<path d="M12.7567 115.431C12.6904 115.431 12.6572 115.431 12.5908 115.398L5.42378 111.707C5.15834 111.575 4.99243 111.312 4.99243 111.015C4.99243 110.718 5.15834 110.455 5.42378 110.323L12.5245 106.435C12.5908 106.402 12.5908 106.336 12.5908 106.303C12.5908 106.27 12.5908 106.204 12.5245 106.171L5.49014 102.316C5.2247 102.184 5.09197 101.92 5.09197 101.624C5.09197 101.327 5.2247 101.064 5.49014 100.932L15.378 95.0333C16.108 94.6049 17.0371 94.572 17.8002 95.0004L23.3082 98.0978C23.4741 98.1967 23.5073 98.3944 23.4409 98.5592C23.3414 98.7239 23.1423 98.7569 22.9764 98.691L17.4684 95.5935C16.9375 95.2969 16.2739 95.2969 15.7098 95.6264L5.82195 101.492C5.75559 101.525 5.75559 101.591 5.75559 101.624C5.75559 101.657 5.75559 101.723 5.82195 101.755L12.8563 105.644C13.1217 105.776 13.2544 106.039 13.2544 106.336C13.2544 106.632 13.0885 106.896 12.8231 107.028L5.72241 110.883C5.65605 110.916 5.65605 110.982 5.65605 111.015C5.65605 111.048 5.65605 111.114 5.72241 111.147L12.8895 114.837C13.0554 114.936 13.1217 115.134 13.0222 115.266C12.989 115.365 12.8563 115.431 12.7567 115.431Z" fill="#5793CE"/>
<path d="M13.517 116.841L14.4082 115.298L11.0692 113.396L10.178 114.94L13.517 116.841Z" fill="#5793CE"/>
<path d="M10.0361 114.541C10.0361 114.146 10.3016 113.651 10.6666 113.454C10.9984 113.256 11.297 113.421 11.297 113.816C11.297 114.211 11.0316 114.706 10.6666 114.903C10.3016 115.101 10.0361 114.936 10.0361 114.541Z" fill="#5793CE"/>
<path d="M17.8832 119.96L19.3191 117.473L14.1091 114.507L12.6733 116.994L17.8832 119.96Z" fill="#5793CE"/>
<path d="M13.8854 114.969L12.7572 114.343C12.2927 114.673 11.9277 115.299 11.8613 115.892L12.9895 116.518C13.454 116.189 13.819 115.562 13.8854 114.969Z" fill="#396CAA"/>
<path d="M12.3923 116.32C12.3923 115.661 12.8569 114.903 13.4209 114.574C13.985 114.244 14.4495 114.508 14.4495 115.167C14.4495 115.826 13.985 116.584 13.4209 116.913C12.8237 117.21 12.3923 116.979 12.3923 116.32Z" fill="#5793CE"/>
<path d="M11.3639 114.179C11.6021 114.178 11.7949 114.074 11.7946 113.947C11.7942 113.82 11.6007 113.717 11.3625 113.718C11.1243 113.718 10.9315 113.822 10.9319 113.95C10.9322 114.077 11.1257 114.18 11.3639 114.179Z" fill="#D4ECFF"/>
<path d="M35.2538 91.4741L17.668 81.5227C17.0375 81.1602 17.1039 80.5011 17.8339 80.0728L27.954 74.2732C28.684 73.8448 29.8121 73.8119 30.4758 74.1744L48.0616 84.1259C48.692 84.4883 48.6257 85.1474 47.8957 85.5757L37.7755 91.3753C37.0456 91.7707 35.9174 91.8366 35.2538 91.4741Z" fill="#B2D3EA"/>
<path d="M49.6539 80.7648V40.0032L33.329 35.7524L30.3095 34.0389C29.6127 33.6435 28.4182 33.7094 27.6219 34.1378L24.8015 35.7524H16.1082L18.6963 75.0971C18.6631 75.3607 18.829 75.6243 19.1608 75.822L35.4526 88.0142C36.1493 88.4096 37.3439 88.3437 38.1402 87.9154L48.9903 81.6874C49.4548 81.4238 49.6539 81.0943 49.6539 80.7648Z" fill="#396CAA"/>
<path d="M29.0831 33.7753C28.5854 33.7753 28.0545 33.9071 27.6563 34.1377L24.836 35.7524H16.1426V76.6128C16.1094 76.8764 16.2753 77.14 16.6071 77.3377L35.4538 88.0142C35.7856 88.2119 36.2501 88.2778 36.7147 88.2778L36.9138 47.1538L29.0831 33.7753Z" fill="#D4ECFF"/>
<path d="M35.6187 88.1132C36.2159 88.3768 37.0786 88.3439 37.7754 88.0803V46.6597H35.6187V88.1132Z" fill="#5793CE"/>
<path d="M35.453 47.1538L16.5731 36.4774C15.8764 36.082 15.9759 35.39 16.7722 34.9287L27.6224 28.7007C28.4187 28.2394 29.6132 28.2065 30.31 28.6019L49.1567 39.2783C49.8535 39.6737 49.7539 40.3657 48.9576 40.8271L38.1407 47.055C37.3443 47.5163 36.1166 47.5492 35.453 47.1538Z" fill="#D4ECFF"/>
<path d="M48.9908 40.0692L38.1407 46.2971C37.3444 46.7584 36.1499 46.7914 35.4531 46.396L16.5732 35.7195C16.4073 35.6207 16.3078 35.5218 16.2414 35.423C16.0091 35.7854 16.1087 36.2138 16.5732 36.4774L35.4199 47.1539C36.1167 47.5493 37.3112 47.4834 38.1075 47.055L48.9576 40.8271C49.5881 40.4646 49.754 39.9703 49.4885 39.5749C49.4222 39.7726 49.2231 39.9374 48.9908 40.0692Z" fill="#FAFDFF"/>
<path d="M35.9831 42.8372L23.4076 35.6207C23.0758 35.423 23.109 35.1264 23.5072 34.8957L28.5838 31.963C28.9488 31.7653 29.5129 31.7324 29.8447 31.8971L42.387 39.1136C42.7188 39.3113 42.6857 39.6079 42.2875 39.8385L37.2108 42.7383C36.8458 43.0019 36.2818 43.0349 35.9831 42.8372Z" fill="#173D7A"/>
<path d="M29.1814 35.9172L28.4514 35.4888C28.4182 35.4559 28.4182 35.4229 28.4514 35.39L29.1482 34.9946C29.2146 34.9616 29.2809 34.9616 29.3141 34.9946L30.0441 35.4229C30.0773 35.4559 30.0773 35.4888 30.0441 35.5218L29.3805 35.9172C29.3141 35.9502 29.2477 35.9502 29.1814 35.9172Z" fill="#D4ECFF"/>
<path d="M31.6367 37.3013L30.9067 36.9058C30.8735 36.8729 30.8735 36.8399 30.9067 36.807L31.6035 36.4116C31.6699 36.3786 31.7362 36.3786 31.7694 36.4116L32.4994 36.8399C32.5326 36.8729 32.5326 36.9058 32.4994 36.9388L31.8026 37.3342C31.7362 37.3342 31.6699 37.3342 31.6367 37.3013Z" fill="#D4ECFF"/>
<path d="M34.0598 38.7181L33.3298 38.2897C33.2966 38.2568 33.2966 38.2238 33.3298 38.1909L34.0266 37.7955C34.093 37.7625 34.1593 37.7625 34.1925 37.7955L34.9225 38.2238C34.9557 38.2568 34.9557 38.2897 34.9225 38.3227L34.2257 38.7181C34.1925 38.7181 34.093 38.7181 34.0598 38.7181Z" fill="#D4ECFF"/>
<path d="M36.4807 40.1023L35.7507 39.6739C35.7175 39.6409 35.7175 39.608 35.7507 39.575L36.4475 39.1796C36.5139 39.1467 36.5802 39.1467 36.6134 39.1796L37.3434 39.608C37.3766 39.6409 37.3766 39.6739 37.3434 39.7069L36.6466 40.1023C36.6134 40.1023 36.5471 40.1352 36.4807 40.1023Z" fill="#D4ECFF"/>
<path d="M23.4064 35.6207C23.4396 35.6207 23.4728 35.5878 23.5059 35.5878L28.5826 32.688C28.9476 32.4903 29.5117 32.4573 29.8435 32.6221L42.3858 39.8386C42.6844 39.6409 42.6844 39.3443 42.3858 39.1795L29.8435 31.9301C29.5117 31.7324 28.9476 31.7654 28.5826 31.996L23.5059 34.8958C23.141 35.0935 23.1078 35.423 23.4064 35.6207Z" fill="#5793CE"/>
<path d="M40.2654 55.2271L47.3992 51.174C47.7974 50.9434 48.1292 50.3173 48.1292 49.7901V47.2528C48.1292 46.7255 47.7974 46.4619 47.3992 46.6926L40.2654 50.7457C39.8672 50.9763 39.5354 51.6024 39.5354 52.1296V54.6999C39.5354 55.2271 39.8672 55.4578 40.2654 55.2271Z" fill="#173D7A"/>
<path d="M47.7304 46.6266C47.83 46.7254 47.9295 46.9232 47.9295 47.1538V49.6911C47.9295 50.2184 47.5977 50.8444 47.1995 51.0751L40.0657 55.1282C39.9329 55.1941 39.8334 55.227 39.7007 55.1941C39.8334 55.3259 40.0325 55.3259 40.2316 55.227L47.3654 51.174C47.7636 50.9433 48.0954 50.3172 48.0954 49.79V47.2527C48.1286 46.8902 47.9627 46.6925 47.7304 46.6266Z" fill="white"/>
<path d="M42.3888 52.4922L43.0524 52.1297C43.152 52.0638 43.2183 51.932 43.2183 51.8331V51.1411C43.2183 51.0093 43.152 50.9764 43.0524 51.0093L42.3888 51.3718C42.2893 51.4377 42.2229 51.5695 42.2229 51.6684V52.3604C42.2561 52.4922 42.3224 52.5251 42.3888 52.4922Z" fill="#396CAA"/>
<path d="M44.5797 51.24L45.2433 50.8775C45.3429 50.8116 45.4092 50.6798 45.4092 50.5809V49.8889C45.4092 49.7571 45.3429 49.7242 45.2433 49.7571L44.5797 50.1196C44.4802 50.1855 44.4138 50.3173 44.4138 50.4162V51.1082C44.447 51.24 44.5134 51.2729 44.5797 51.24Z" fill="white"/>
<path d="M40.2654 73.5485L47.3992 69.4954C47.7974 69.2648 48.1292 68.6387 48.1292 68.1115V65.5742C48.1292 65.0469 47.7974 64.7833 47.3992 65.014L40.2654 69.0671C39.8672 69.2977 39.5354 69.9238 39.5354 70.4511V72.9884C39.5354 73.5485 39.8672 73.7792 40.2654 73.5485Z" fill="#173D7A"/>
<path d="M47.7304 64.948C47.83 65.0469 47.9295 65.2446 47.9295 65.4752V68.0125C47.9295 68.5398 47.5977 69.1658 47.1995 69.3965L40.0657 73.4826C39.9329 73.5485 39.8334 73.5814 39.7007 73.5485C39.8334 73.6803 40.0325 73.6803 40.2316 73.5814L47.3654 69.5283C47.7636 69.2977 48.0954 68.6716 48.0954 68.1443V65.5741C48.1286 65.2116 47.9627 65.0139 47.7304 64.948Z" fill="white"/>
<path d="M42.3888 70.8136L43.0524 70.4511C43.152 70.3852 43.2183 70.2534 43.2183 70.1545V69.4625C43.2183 69.3307 43.152 69.2978 43.0524 69.3307L42.3888 69.6932C42.2893 69.7591 42.2229 69.8909 42.2229 69.9898V70.6818C42.2561 70.8136 42.3224 70.8465 42.3888 70.8136Z" fill="#396CAA"/>
<path d="M44.5797 69.5614L45.2433 69.1989C45.3429 69.133 45.4092 69.0012 45.4092 68.9023V68.2103C45.4092 68.0785 45.3429 68.0456 45.2433 68.0785L44.5797 68.441C44.4802 68.5069 44.4138 68.6387 44.4138 68.7376V69.4296C44.447 69.5614 44.5134 69.5943 44.5797 69.5614Z" fill="white"/>
<path d="M40.2654 82.7092L47.3992 78.6561C47.7974 78.4254 48.1292 77.7993 48.1292 77.2721V74.7348C48.1292 74.2076 47.7974 73.944 47.3992 74.1746L40.2654 78.2277C39.8672 78.4584 39.5354 79.0845 39.5354 79.6117V82.149C39.5354 82.7092 39.8672 82.9398 40.2654 82.7092Z" fill="#173D7A"/>
<path d="M47.7304 74.1417C47.83 74.2406 47.9295 74.4383 47.9295 74.669V77.2063C47.9295 77.7335 47.5977 78.3596 47.1995 78.5902L40.0657 82.6433C39.9329 82.7092 39.8334 82.7422 39.7007 82.7092C39.8334 82.841 40.0325 82.841 40.2316 82.7422L47.3654 78.6891C47.7636 78.4584 48.0954 77.8323 48.0954 77.3051V74.7678C48.1286 74.3724 47.9627 74.1747 47.7304 74.1417Z" fill="white"/>
<path d="M42.3888 79.9742L43.0524 79.6117C43.152 79.5458 43.2183 79.414 43.2183 79.3152V78.6232C43.2183 78.4914 43.152 78.4584 43.0524 78.4914L42.3888 78.8539C42.2893 78.9198 42.2229 79.0516 42.2229 79.1504V79.8424C42.2561 79.9742 42.3224 80.0072 42.3888 79.9742Z" fill="#396CAA"/>
<path d="M44.5797 78.722L45.2433 78.3595C45.3429 78.2936 45.4092 78.1618 45.4092 78.063V77.371C45.4092 77.2392 45.3429 77.2062 45.2433 77.2392L44.5797 77.6017C44.4802 77.6676 44.4138 77.7994 44.4138 77.8982V78.5902C44.447 78.722 44.5134 78.755 44.5797 78.722Z" fill="white"/>
<path d="M40.2654 64.3878L47.3992 60.3347C47.7974 60.104 48.1292 59.4779 48.1292 58.9507V56.4134C48.1292 55.8862 47.7974 55.6226 47.3992 55.8532L40.2654 59.9063C39.8672 60.137 39.5354 60.7631 39.5354 61.2903V63.8276C39.5354 64.3878 39.8672 64.6184 40.2654 64.3878Z" fill="#173D7A"/>
<path d="M47.7304 55.7872C47.83 55.8861 47.9295 56.0838 47.9295 56.3145V58.8518C47.9295 59.379 47.5977 60.0051 47.1995 60.2357L40.0657 64.2888C39.9329 64.3547 39.8334 64.3877 39.7007 64.3547C39.8334 64.4865 40.0325 64.4865 40.2316 64.3877L47.3654 60.3346C47.7636 60.1039 48.0954 59.4778 48.0954 58.9506V56.4133C48.1286 56.0508 47.9627 55.8531 47.7304 55.7872Z" fill="white"/>
<path d="M42.3888 61.6528L43.0524 61.2903C43.152 61.2244 43.2183 61.0926 43.2183 60.9938V60.3018C43.2183 60.17 43.152 60.137 43.0524 60.17L42.3888 60.5324C42.2893 60.5983 42.2229 60.7301 42.2229 60.829V61.521C42.2561 61.6528 42.3224 61.6858 42.3888 61.6528Z" fill="#396CAA"/>
<path d="M44.5797 60.4006L45.2433 60.0381C45.3429 59.9722 45.4092 59.8404 45.4092 59.7416V59.0496C45.4092 58.9178 45.3429 58.8848 45.2433 58.9178L44.5797 59.2802C44.4802 59.3461 44.4138 59.478 44.4138 59.5768V60.2688C44.447 60.4006 44.5134 60.4336 44.5797 60.4006Z" fill="white"/>
<path d="M34.0605 52.6566L17.6028 43.1994C17.2378 43.0017 16.9392 42.4086 16.9392 41.9472V38.8168C16.9392 38.3225 17.2378 38.0919 17.6028 38.3225L34.0605 47.7797C34.4255 47.9775 34.7241 48.5706 34.7241 49.0319V52.1624C34.7241 52.6237 34.4255 52.8543 34.0605 52.6566Z" fill="#5793CE"/>
<path opacity="0.4" d="M33.5963 51.5362L18.0676 42.6392C17.8686 42.5403 17.7358 42.2438 17.7358 41.9802V39.6406C17.7358 39.377 17.9017 39.2781 18.0676 39.377L33.5963 48.274C33.7953 48.3728 33.9281 48.6694 33.9281 48.933V51.2726C33.9281 51.5362 33.7953 51.668 33.5963 51.5362Z" fill="#D4ECFF"/>
<path d="M21.3183 43.3311L18.9956 42.013C18.8297 41.9141 18.6638 41.6176 18.6638 41.3869C18.6638 41.1562 18.7965 41.0244 18.9956 41.1562L21.3183 42.4743C21.4842 42.5732 21.6501 42.8697 21.6501 43.1004C21.6501 43.2981 21.4842 43.4299 21.3183 43.3311Z" fill="#D4ECFF"/>
<path d="M23.1735 44.2446C23.3164 44.1627 23.3133 43.8919 23.1667 43.6398C23.0201 43.3876 22.7855 43.2496 22.6426 43.3315C22.4998 43.4133 22.5029 43.6842 22.6495 43.9363C22.7961 44.1885 23.0307 44.3265 23.1735 44.2446Z" fill="#173D7A"/>
<path d="M24.6038 44.7811C24.6038 45.0117 24.4379 45.1106 24.2388 45.0117C24.0397 44.8799 23.8738 44.5834 23.8738 44.3527C23.8738 44.122 24.0397 44.0232 24.2388 44.122C24.4379 44.2538 24.6038 44.5504 24.6038 44.7811Z" fill="#173D7A"/>
<path d="M25.9646 45.539C25.9646 45.7697 25.7987 45.8685 25.5996 45.7697C25.4005 45.6379 25.2346 45.3413 25.2346 45.1106C25.2346 44.88 25.4005 44.7811 25.5996 44.88C25.7987 45.0118 25.9646 45.3083 25.9646 45.539Z" fill="#D4ECFF"/>
<path d="M27.2913 46.3299C27.2913 46.5606 27.1254 46.6594 26.9263 46.5606C26.7272 46.4288 26.5613 46.1322 26.5613 45.9015C26.5613 45.6709 26.7272 45.572 26.9263 45.6709C27.1254 45.7697 27.2913 46.0663 27.2913 46.3299Z" fill="#173D7A"/>
<path d="M32.9317 50.2512L32.1354 49.7899C32.0026 49.7239 31.9363 49.5592 31.9363 49.3944V48.5706C31.9363 48.4059 32.0358 48.34 32.1354 48.4059L32.9317 48.8672C33.0644 48.9331 33.1308 49.0979 33.1308 49.2626V50.0864C33.164 50.2512 33.0644 50.3171 32.9317 50.2512Z" fill="#173D7A"/>
<path d="M34.0605 58.1597L17.6028 48.7025C17.2378 48.5048 16.9392 47.9116 16.9392 47.4503V44.3199C16.9392 43.8256 17.2378 43.5949 17.6028 43.8256L34.0605 53.2828C34.4255 53.4805 34.7241 54.0736 34.7241 54.535V57.6654C34.7241 58.1267 34.4255 58.3574 34.0605 58.1597Z" fill="#5793CE"/>
<path opacity="0.4" d="M33.5963 57.0393L18.0676 48.1423C17.8686 48.0434 17.7358 47.7468 17.7358 47.4832V45.1436C17.7358 44.88 17.9017 44.7812 18.0676 44.88L33.5963 53.777C33.7953 53.8759 33.9281 54.1725 33.9281 54.4361V56.7757C33.9281 57.0393 33.7953 57.1711 33.5963 57.0393Z" fill="#D4ECFF"/>
<path d="M21.3183 48.8014L18.9956 47.4833C18.8297 47.3845 18.6638 47.0879 18.6638 46.8572C18.6638 46.6266 18.7965 46.4948 18.9956 46.6266L21.3183 47.9447C21.4842 48.0435 21.6501 48.3401 21.6501 48.5707C21.6501 48.8014 21.4842 48.9332 21.3183 48.8014Z" fill="#D4ECFF"/>
<path d="M23.2771 49.5263C23.2771 49.757 23.1112 49.8558 22.9121 49.757C22.713 49.6252 22.5471 49.3286 22.5471 49.0979C22.5471 48.8673 22.713 48.7684 22.9121 48.8673C23.1112 48.9661 23.2771 49.2627 23.2771 49.5263Z" fill="white"/>
<path d="M24.6038 50.2841C24.6038 50.5148 24.4379 50.6136 24.2388 50.5148C24.0397 50.383 23.8738 50.0864 23.8738 49.8557C23.8738 49.6251 24.0397 49.5262 24.2388 49.6251C24.4379 49.7569 24.6038 50.0535 24.6038 50.2841Z" fill="#173D7A"/>
<path d="M25.9646 51.0421C25.9646 51.2727 25.7987 51.3716 25.5996 51.2727C25.4005 51.1409 25.2346 50.8443 25.2346 50.6137C25.2346 50.383 25.4005 50.2842 25.5996 50.383C25.7987 50.4819 25.9646 50.8114 25.9646 51.0421Z" fill="#D4ECFF"/>
<path d="M27.1906 52.056C27.3335 51.9741 27.3304 51.7033 27.1838 51.4512C27.0372 51.199 26.8026 51.061 26.6597 51.1429C26.5169 51.2247 26.52 51.4956 26.6666 51.7477C26.8132 51.9999 27.0478 52.1379 27.1906 52.056Z" fill="#173D7A"/>
<path d="M32.9317 55.7542L32.1354 55.2929C32.0026 55.227 31.9363 55.0622 31.9363 54.8975V54.0737C31.9363 53.9089 32.0358 53.843 32.1354 53.9089L32.9317 54.3702C33.0644 54.4362 33.1308 54.6009 33.1308 54.7657V55.5895C33.164 55.7542 33.0644 55.8201 32.9317 55.7542Z" fill="#173D7A"/>
<path d="M34.0605 63.6298L17.6028 54.2055C17.2378 54.0078 16.9392 53.4147 16.9392 52.9534V49.8229C16.9392 49.3286 17.2378 49.098 17.6028 49.3286L34.0605 58.7858C34.4255 58.9836 34.7241 59.5767 34.7241 60.038V63.1685C34.7241 63.6298 34.4255 63.8604 34.0605 63.6298Z" fill="#5793CE"/>
<path opacity="0.4" d="M33.5963 62.5423L18.0676 53.6453C17.8686 53.5464 17.7358 53.2499 17.7358 52.9863V50.6467C17.7358 50.3831 17.9017 50.2842 18.0676 50.3831L33.5963 59.2801C33.7953 59.3789 33.9281 59.6755 33.9281 59.9391V62.2787C33.9281 62.5423 33.7953 62.6741 33.5963 62.5423Z" fill="#D4ECFF"/>
<path d="M21.3183 54.3045L18.9956 52.9864C18.8297 52.8875 18.6638 52.591 18.6638 52.3603C18.6638 52.1296 18.7965 51.9978 18.9956 52.1296L21.3183 53.4477C21.4842 53.5466 21.6501 53.8431 21.6501 54.0738C21.6501 54.3045 21.4842 54.4363 21.3183 54.3045Z" fill="#D4ECFF"/>
<path d="M23.2771 55.0294C23.2771 55.26 23.1112 55.3589 22.9121 55.26C22.713 55.1282 22.5471 54.8317 22.5471 54.601C22.5471 54.3703 22.713 54.2715 22.9121 54.3703C23.1112 54.4692 23.2771 54.7657 23.2771 55.0294Z" fill="white"/>
<path d="M24.6038 55.7872C24.6038 56.0178 24.4379 56.1167 24.2388 56.0178C24.0397 55.886 23.8738 55.5895 23.8738 55.3588C23.8738 55.1281 24.0397 55.0293 24.2388 55.1281C24.4379 55.2599 24.6038 55.5565 24.6038 55.7872Z" fill="#173D7A"/>
<path d="M25.9646 56.5451C25.9646 56.7758 25.7987 56.8746 25.5996 56.7758C25.4005 56.644 25.2346 56.3474 25.2346 56.1167C25.2346 55.8861 25.4005 55.7872 25.5996 55.8861C25.7987 56.0179 25.9646 56.3144 25.9646 56.5451Z" fill="#D4ECFF"/>
<path d="M27.2913 57.336C27.2913 57.5667 27.1254 57.6655 26.9263 57.5667C26.7272 57.4349 26.5613 57.1383 26.5613 56.9076C26.5613 56.677 26.7272 56.5781 26.9263 56.677C27.1254 56.7758 27.2913 57.0724 27.2913 57.336Z" fill="#173D7A"/>
<path d="M32.9317 61.2573L32.1354 60.796C32.0026 60.7301 31.9363 60.5653 31.9363 60.4005V59.5767C31.9363 59.412 32.0358 59.3461 32.1354 59.412L32.9317 59.8733C33.0644 59.9392 33.1308 60.104 33.1308 60.2687V61.0925C33.164 61.2573 33.0644 61.3232 32.9317 61.2573Z" fill="#173D7A"/>
<path d="M34.0605 69.1327L17.6028 59.7085C17.2378 59.5107 16.9392 58.9176 16.9392 58.4563V55.3258C16.9392 54.8316 17.2378 54.6009 17.6028 54.8316L34.0605 64.2558C34.4255 64.4535 34.7241 65.0467 34.7241 65.508V68.6384C34.7241 69.1327 34.4255 69.3634 34.0605 69.1327Z" fill="#5793CE"/>
<path opacity="0.4" d="M33.5963 68.0453L18.0676 59.1482C17.8686 59.0494 17.7358 58.7528 17.7358 58.4892V56.1496C17.7358 55.886 17.9017 55.7871 18.0676 55.886L33.5963 64.783C33.7953 64.8819 33.9281 65.1784 33.9281 65.4421V67.7816C33.9281 68.0453 33.7953 68.1441 33.5963 68.0453Z" fill="#D4ECFF"/>
<path d="M21.3183 59.8074L18.9956 58.4893C18.8297 58.3905 18.6638 58.0939 18.6638 57.8632C18.6638 57.6326 18.7965 57.5008 18.9956 57.6326L21.3183 58.9506C21.4842 59.0495 21.6501 59.3461 21.6501 59.5767C21.6501 59.8074 21.4842 59.9392 21.3183 59.8074Z" fill="#D4ECFF"/>
<path d="M23.2771 60.4993C23.2771 60.73 23.1112 60.8289 22.9121 60.73C22.713 60.5982 22.5471 60.3016 22.5471 60.071C22.5471 59.8403 22.713 59.7414 22.9121 59.8403C23.1112 59.9721 23.2771 60.2687 23.2771 60.4993Z" fill="#173D7A"/>
<path d="M24.5 61.5183C24.6428 61.4364 24.6397 61.1656 24.4931 60.9134C24.3465 60.6613 24.1119 60.5232 23.9691 60.6051C23.8262 60.687 23.8293 60.9578 23.9759 61.21C24.1225 61.4622 24.3571 61.6002 24.5 61.5183Z" fill="#173D7A"/>
<path d="M25.9646 62.048C25.9646 62.2787 25.7987 62.3776 25.5996 62.2787C25.4005 62.1469 25.2346 61.8503 25.2346 61.6197C25.2346 61.389 25.4005 61.2901 25.5996 61.389C25.7987 61.5208 25.9646 61.8174 25.9646 62.048Z" fill="#D4ECFF"/>
<path d="M27.2913 62.806C27.2913 63.0366 27.1254 63.1355 26.9263 63.0366C26.7272 62.9048 26.5613 62.6083 26.5613 62.3776C26.5613 62.1469 26.7272 62.0481 26.9263 62.1469C27.1254 62.2787 27.2913 62.5753 27.2913 62.806Z" fill="#173D7A"/>
<path d="M32.9317 66.7602L32.1354 66.2989C32.0026 66.233 31.9363 66.0682 31.9363 65.9035V65.0797C31.9363 64.9149 32.0358 64.849 32.1354 64.9149L32.9317 65.3762C33.0644 65.4421 33.1308 65.6069 33.1308 65.7717V66.5955C33.164 66.7273 33.0644 66.8261 32.9317 66.7602Z" fill="#D4ECFF"/>
<path d="M34.0605 74.6358L17.6028 65.2115C17.2378 65.0138 16.9392 64.4207 16.9392 63.9593V60.8289C16.9392 60.3346 17.2378 60.104 17.6028 60.3346L34.0605 69.7918C34.4255 69.9895 34.7241 70.5827 34.7241 71.044V74.1744C34.7241 74.6358 34.4255 74.8664 34.0605 74.6358Z" fill="#5793CE"/>
<path opacity="0.4" d="M33.5963 73.5483L18.0676 64.6513C17.8686 64.5524 17.7358 64.2559 17.7358 63.9922V61.6527C17.7358 61.389 17.9017 61.2902 18.0676 61.389L33.5963 70.2861C33.7953 70.3849 33.9281 70.6815 33.9281 70.9451V73.2847C33.9281 73.5483 33.7953 73.6472 33.5963 73.5483Z" fill="#D4ECFF"/>
<path d="M21.3183 65.3104L18.9956 63.9924C18.8297 63.8935 18.6638 63.5969 18.6638 63.3663C18.6638 63.1356 18.7965 63.0038 18.9956 63.1356L21.3183 64.4537C21.4842 64.5525 21.6501 64.8491 21.6501 65.0798C21.6501 65.3104 21.4842 65.4093 21.3183 65.3104Z" fill="#D4ECFF"/>
<path d="M23.2771 66.0024C23.2771 66.233 23.1112 66.3319 22.9121 66.233C22.713 66.1012 22.5471 65.8047 22.5471 65.574C22.5471 65.3433 22.713 65.2445 22.9121 65.3433C23.1112 65.4752 23.2771 65.7717 23.2771 66.0024Z" fill="#173D7A"/>
<path d="M24.6038 66.7932C24.6038 67.0238 24.4379 67.1227 24.2388 67.0238C24.0397 66.892 23.8738 66.5954 23.8738 66.3648C23.8738 66.1341 24.0397 66.0353 24.2388 66.1341C24.4379 66.2659 24.6038 66.5295 24.6038 66.7932Z" fill="white"/>
<path d="M25.9646 67.5511C25.9646 67.7818 25.7987 67.8806 25.5996 67.7818C25.4005 67.6499 25.2346 67.3534 25.2346 67.1227C25.2346 66.8921 25.4005 66.7932 25.5996 66.8921C25.7987 67.0239 25.9646 67.3204 25.9646 67.5511Z" fill="#D4ECFF"/>
<path d="M27.2913 68.309C27.2913 68.5397 27.1254 68.6385 26.9263 68.5397C26.7272 68.4079 26.5613 68.1113 26.5613 67.8807C26.5613 67.65 26.7272 67.5511 26.9263 67.65C27.1254 67.7818 27.2913 68.0784 27.2913 68.309Z" fill="white"/>
<path d="M32.9317 72.2303L32.1354 71.769C32.0026 71.7031 31.9363 71.5383 31.9363 71.3736V70.5498C31.9363 70.385 32.0358 70.3191 32.1354 70.385L32.9317 70.8463C33.0644 70.9122 33.1308 71.077 33.1308 71.2417V72.0655C33.164 72.2303 33.0644 72.3292 32.9317 72.2303Z" fill="#D4ECFF"/>
<path d="M34.0605 80.1387L17.6028 70.7144C17.2378 70.5167 16.9392 69.9236 16.9392 69.4623V66.3318C16.9392 65.8375 17.2378 65.6069 17.6028 65.8375L34.0605 75.2948C34.4255 75.4925 34.7241 76.0856 34.7241 76.5469V79.6774C34.7241 80.1387 34.4255 80.3694 34.0605 80.1387Z" fill="#5793CE"/>
<path opacity="0.4" d="M33.5963 79.0512L18.0676 70.1542C17.8686 70.0554 17.7358 69.7588 17.7358 69.4952V67.1556C17.7358 66.892 17.9017 66.7931 18.0676 66.892L33.5963 75.789C33.7953 75.8879 33.9281 76.1844 33.9281 76.448V78.7876C33.9281 79.0512 33.7953 79.1501 33.5963 79.0512Z" fill="#D4ECFF"/>
<path d="M21.3183 70.8134L18.9956 69.4953C18.8297 69.3964 18.6638 69.0999 18.6638 68.8692C18.6638 68.6385 18.7965 68.5067 18.9956 68.6385L21.3183 69.9566C21.4842 70.0555 21.6501 70.352 21.6501 70.5827C21.6501 70.8134 21.4842 70.9122 21.3183 70.8134Z" fill="#D4ECFF"/>
<path d="M23.1774 71.758C23.3203 71.6761 23.3172 71.4053 23.1706 71.1532C23.024 70.901 22.7894 70.763 22.6466 70.8449C22.5037 70.9268 22.5068 71.1976 22.6534 71.4497C22.8 71.7019 23.0346 71.8399 23.1774 71.758Z" fill="#173D7A"/>
<path d="M24.6038 72.2961C24.6038 72.5268 24.4379 72.6256 24.2388 72.5268C24.0397 72.3949 23.8738 72.0984 23.8738 71.8677C23.8738 71.6371 24.0397 71.5382 24.2388 71.637C24.4379 71.7359 24.6038 72.0325 24.6038 72.2961Z" fill="#173D7A"/>
<path d="M25.9646 73.054C25.9646 73.2847 25.7987 73.3835 25.5996 73.2847C25.4005 73.1529 25.2346 72.8563 25.2346 72.6256C25.2346 72.395 25.4005 72.2961 25.5996 72.395C25.7987 72.4938 25.9646 72.8234 25.9646 73.054Z" fill="#D4ECFF"/>
<path d="M27.2913 73.812C27.2913 74.0426 27.1254 74.1415 26.9263 74.0426C26.7272 73.9108 26.5613 73.6142 26.5613 73.3836C26.5613 73.1529 26.7272 73.0541 26.9263 73.1529C27.1254 73.2847 27.2913 73.5813 27.2913 73.812Z" fill="#173D7A"/>
<path d="M32.9317 77.7332L32.1354 77.2719C32.0026 77.206 31.9363 77.0412 31.9363 76.8765V76.0527C31.9363 75.8879 32.0358 75.822 32.1354 75.8879L32.9317 76.3493C33.0644 76.4152 33.1308 76.5799 33.1308 76.7447V77.5685C33.164 77.7332 33.0644 77.7991 32.9317 77.7332Z" fill="#173D7A"/>
<path d="M34.0605 85.6417L17.6028 76.2175C17.2378 76.0198 16.9392 75.4266 16.9392 74.9653V71.8349C16.9392 71.3406 17.2378 71.1099 17.6028 71.3406L34.0605 80.7978C34.4255 80.9955 34.7241 81.5887 34.7241 82.05V85.1804C34.7241 85.6417 34.4255 85.8724 34.0605 85.6417Z" fill="#5793CE"/>
<path opacity="0.4" d="M33.5963 84.5543L18.0676 75.6573C17.8686 75.5584 17.7358 75.2618 17.7358 74.9982V72.6586C17.7358 72.395 17.9017 72.2962 18.0676 72.395L33.5963 81.2921C33.7953 81.3909 33.9281 81.6875 33.9281 81.9511V84.2907C33.9281 84.5543 33.7953 84.6532 33.5963 84.5543Z" fill="#D4ECFF"/>
<path d="M21.3183 76.3164L18.9956 74.9983C18.8297 74.8995 18.6638 74.6029 18.6638 74.3723C18.6638 74.1416 18.7965 74.0098 18.9956 74.1416L21.3183 75.4597C21.4842 75.5585 21.6501 75.8551 21.6501 76.0858C21.6501 76.3164 21.4842 76.4153 21.3183 76.3164Z" fill="#D4ECFF"/>
<path d="M23.7082 77.3048C23.7082 77.7661 23.3764 77.9309 22.9783 77.7002C22.5801 77.4696 22.2483 76.9094 22.2483 76.481C22.2483 76.0197 22.5801 75.8549 22.9783 76.0856C23.3764 76.3162 23.7082 76.8764 23.7082 77.3048Z" fill="white"/>
<path d="M26.4956 78.9195C26.4956 79.1502 26.3297 79.249 26.1306 79.1502C25.9315 79.0184 25.7656 78.7218 25.7656 78.4911C25.7656 78.2605 25.9315 78.1616 26.1306 78.2605C26.2965 78.3923 26.4956 78.6888 26.4956 78.9195Z" fill="#173D7A"/>
<path d="M27.8223 79.7104C27.8223 79.9411 27.6564 80.0399 27.4573 79.9411C27.2582 79.8093 27.0923 79.5127 27.0923 79.282C27.0923 79.0514 27.2582 78.9525 27.4573 79.0514C27.6564 79.1502 27.8223 79.4468 27.8223 79.7104Z" fill="#D4ECFF"/>
<path d="M29.1506 80.4685C29.1506 80.6991 28.9847 80.798 28.7856 80.6991C28.5866 80.5673 28.4207 80.2707 28.4207 80.0401C28.4207 79.8094 28.5866 79.7106 28.7856 79.8094C28.9847 79.9412 29.1506 80.2378 29.1506 80.4685Z" fill="#173D7A"/>
<path d="M32.9317 83.2363L32.1354 82.775C32.0026 82.7091 31.9363 82.5443 31.9363 82.3795V81.5557C31.9363 81.391 32.0358 81.3251 32.1354 81.391L32.9317 81.8523C33.0644 81.9182 33.1308 82.083 33.1308 82.2477V83.0715C33.164 83.2363 33.0644 83.3022 32.9317 83.2363Z" fill="#D4ECFF"/>
<path d="M32.9643 99.4487C32.898 99.4487 32.8648 99.4487 32.7984 99.4158L14.0845 88.8382C13.8522 88.7064 13.7195 88.4757 13.7195 88.2121C13.7195 87.9485 13.8522 87.7178 14.0845 87.586L22.1142 82.8739C22.4128 82.7091 22.5788 82.4126 22.5788 82.0831V76.9096C22.5788 76.7119 22.7115 76.5801 22.9106 76.5801C23.1096 76.5801 23.2424 76.7119 23.2424 76.9096V82.0831C23.2424 82.6432 22.9437 83.1705 22.446 83.4341L14.4163 88.1462C14.3831 88.1462 14.3831 88.1792 14.3831 88.2121C14.3831 88.2451 14.3831 88.2451 14.4163 88.278L33.1302 98.8556C33.2961 98.9544 33.3293 99.1522 33.263 99.3169C33.1966 99.4158 33.0971 99.4487 32.9643 99.4487Z" fill="#5793CE"/>
<path d="M29.4193 98.1909L30.3105 96.6472L26.9716 94.7459L26.0803 96.2896L29.4193 98.1909Z" fill="#5793CE"/>
<path d="M25.8972 95.8897C25.8972 95.4943 26.1627 95 26.5277 94.8023C26.8595 94.6046 27.1581 94.7693 27.1581 95.1648C27.1581 95.5602 26.8926 96.0545 26.5277 96.2522C26.1627 96.4169 25.8972 96.2851 25.8972 95.8897Z" fill="#5793CE"/>
<path d="M33.7856 101.31L35.2214 98.823L30.0115 95.8564L28.5756 98.3433L33.7856 101.31Z" fill="#5793CE"/>
<path d="M29.7464 96.3181L28.6183 95.692C28.1538 96.0215 27.7888 96.6476 27.7224 97.2408L28.8506 97.8668C29.3151 97.5373 29.6801 96.9112 29.7464 96.3181Z" fill="#396CAA"/>
<path d="M28.2534 97.6691C28.2534 97.01 28.7179 96.2521 29.282 95.9226C29.8461 95.5931 30.3106 95.8567 30.3106 96.5158C30.3106 97.1748 29.8461 97.9327 29.282 98.2622C28.7179 98.5588 28.2534 98.2952 28.2534 97.6691Z" fill="#5793CE"/>
<path d="M26.9587 95.4613C26.7928 95.3624 26.7928 95.2306 26.9587 95.1318C27.1246 95.0329 27.39 95.0329 27.5559 95.1318C27.7218 95.2306 27.7218 95.3624 27.5559 95.4613C27.3568 95.5601 27.0914 95.5601 26.9587 95.4613Z" fill="#D4ECFF"/>
<path d="M25.362 100.619L26.2532 99.075L22.9142 97.1737L22.023 98.7173L25.362 100.619Z" fill="#5793CE"/>
<path d="M21.8489 98.2952C21.8489 97.8998 22.1143 97.4055 22.4793 97.2078C22.8111 97.0101 23.1097 97.1749 23.1097 97.5703C23.1097 97.9657 22.8443 98.46 22.4793 98.6577C22.1143 98.8554 21.8489 98.6906 21.8489 98.2952Z" fill="#5793CE"/>
<path d="M29.7275 103.737L31.1633 101.25L25.9534 98.2836L24.5175 100.771L29.7275 103.737Z" fill="#5793CE"/>
<path d="M25.6981 98.7566L24.57 98.1305C24.1054 98.46 23.7404 99.0861 23.6741 99.6792L24.8022 100.305C25.2667 99.9758 25.6317 99.3168 25.6981 98.7566Z" fill="#396CAA"/>
<path d="M24.2051 100.108C24.2051 99.4485 24.6696 98.6906 25.2337 98.3611C25.7978 98.0316 26.2623 98.2952 26.2623 98.9542C26.2623 99.6133 25.7978 100.371 25.2337 100.701C24.6696 100.997 24.2051 100.734 24.2051 100.108Z" fill="#5793CE"/>
<path d="M22.8781 97.8998C22.7122 97.8009 22.7122 97.6691 22.8781 97.5702C23.044 97.4714 23.3094 97.4714 23.4753 97.5702C23.6412 97.6691 23.6412 97.8009 23.4753 97.8998C23.3094 97.9986 23.044 97.9986 22.8781 97.8998Z" fill="#D4ECFF"/>
<path d="M69.0313 136.729L25.2385 111.631C23.9937 110.919 24.1446 109.683 25.5779 108.859L55.4144 91.7774C56.8478 90.9533 58.9978 90.8784 60.2426 91.5901L104.035 116.726C105.28 117.437 105.129 118.674 103.696 119.498L73.8595 136.579C72.4639 137.366 70.2761 137.441 69.0313 136.729Z" fill="#B2D3EA"/>
<path d="M114.333 72.1859L70.5029 47.0504C70.0126 46.7507 69.4845 46.7132 69.0318 46.8631L68.9564 46.9005C68.9564 46.9005 68.9564 46.9005 68.9187 46.9005L67.3344 47.4999L68.7678 48.1742C68.7678 48.2116 68.7678 48.2116 68.7301 48.2491L61.601 80.502C61.2615 82.1128 61.9405 83.9857 63.1852 84.6975L105.922 109.196L105.771 110.994L107.506 110.32C108.072 110.058 108.562 109.421 108.751 108.559L115.88 76.3065C116.257 74.7706 115.578 72.8976 114.333 72.1859Z" fill="#173D7A"/>
<path d="M114.333 72.1859L70.5025 47.0504C70.0121 46.7507 69.484 46.7132 69.0314 46.8631L68.956 46.9005C68.956 46.9005 68.956 46.9005 68.9182 46.9005L67.334 47.4999L68.7674 48.1742C68.7674 48.2116 68.7674 48.2116 68.7296 48.2491L64.0146 69.5263L85.4396 86.121L115.653 73.9091C115.427 73.1599 114.937 72.523 114.333 72.1859Z" fill="#396CAA"/>
<path d="M112.671 77.1307L115.991 75.7072C116.066 74.4336 115.5 73.085 114.633 72.3733L109.352 74.5834L112.671 77.1307Z" fill="#274F89"/>
<path d="M104.3 110.882L60.5067 85.7465C59.2619 85.0347 58.5452 83.1617 58.9224 81.551L66.0515 49.298C66.391 47.6873 67.7112 46.9381 68.9559 47.6498L112.749 72.7854C113.994 73.4971 114.71 75.3701 114.333 76.9809L107.204 109.234C106.827 110.882 105.544 111.594 104.3 110.882Z" fill="#D4ECFF"/>
<path d="M103.356 108.485L62.1656 84.8848C61.034 84.248 60.3927 82.5249 60.6945 81.0265L67.2201 51.5081C67.5595 50.0472 68.7289 49.3729 69.8605 50.0098L111.051 73.6094C112.182 74.2463 112.823 75.9694 112.522 77.4678L105.996 106.986C105.657 108.485 104.487 109.159 103.356 108.485Z" fill="white"/>
<path d="M103.356 108.485L62.1656 84.8848C61.034 84.248 60.3927 82.5249 60.6945 81.0265L67.2201 51.5081C67.5595 50.0472 68.7289 49.3729 69.8605 50.0098L111.051 73.6094C112.182 74.2463 112.823 75.9694 112.522 77.4678L105.996 106.986C105.657 108.485 104.487 109.159 103.356 108.485Z" fill="white"/>
<path d="M104.903 111.968L98.9056 111.182L60.2426 89.0053C58.9979 88.2936 56.8478 88.3685 55.4145 89.1926L28.0298 104.888L24.4087 104.401V106.424C24.371 106.911 24.6727 107.361 25.2385 107.698L69.0314 132.833C70.2761 133.545 72.4262 133.47 73.8595 132.646L103.696 115.564C104.488 115.115 104.903 114.515 104.865 113.954V111.968H104.903Z" fill="#173D7A"/>
<path d="M75.8587 97.9957L73.1051 96.4224H42.9292L28.0298 104.963L24.4087 104.476V106.499C24.371 106.986 24.6727 107.436 25.2385 107.773L69.0314 132.908C69.6726 133.283 70.6156 133.433 71.5209 133.358L75.8587 97.9957Z" fill="#396CAA"/>
<path d="M25.9923 104.663L24.3703 104.439V106.462C24.3326 106.949 24.6344 107.398 25.2002 107.735L25.9546 108.185V104.663H25.9923Z" fill="#5793CE"/>
<path d="M69.4829 133.096C70.6522 133.545 72.3496 133.433 73.5944 132.833V128.263H69.4829V133.096Z" fill="#274F89"/>
<path d="M69.0313 130.848L25.2385 105.712C23.9937 105.001 24.1446 103.765 25.5779 102.94L55.4144 85.8587C56.8478 85.0346 58.9978 84.9597 60.2426 85.6714L104.035 110.807C105.28 111.519 105.129 112.755 103.696 113.579L73.8595 130.661C72.4639 131.447 70.2761 131.56 69.0313 130.848Z" fill="#D4ECFF"/>
<path d="M103.696 112.792L73.8593 129.874C72.4259 130.698 70.2759 130.773 69.0311 130.061L25.2382 104.963C24.8233 104.739 24.597 104.439 24.4838 104.139C24.2952 104.739 24.5216 105.3 25.2382 105.712L69.0311 130.848C70.2759 131.56 72.4259 131.485 73.8593 130.661L103.696 113.579C104.639 113.017 105.054 112.268 104.827 111.631C104.676 112.043 104.299 112.455 103.696 112.792Z" fill="white"/>
<path d="M43.8704 97.3962L41.8713 96.2724C41.7204 96.1975 41.7204 96.0102 41.909 95.8978L44.2476 94.5493C44.4362 94.4369 44.7003 94.4369 44.8512 94.5118L46.8503 95.6356C47.0012 95.7105 47.0012 95.8978 46.8126 96.0102L44.474 97.3588C44.3231 97.4711 44.0213 97.5086 43.8704 97.3962Z" fill="#173D7A"/>
<path d="M46.9266 99.157L44.9274 98.0332C44.7766 97.9582 44.7766 97.7709 44.9652 97.6586L47.3038 96.31C47.4924 96.1976 47.7564 96.1976 47.9073 96.2726L49.9065 97.3963C50.0574 97.4713 50.0574 97.6586 49.8688 97.7709L47.5301 99.1195C47.3792 99.2319 47.0775 99.2693 46.9266 99.157Z" fill="#173D7A"/>
<path d="M49.981 100.917L47.9819 99.7937C47.831 99.7187 47.831 99.5314 48.0196 99.4191L50.3582 98.0705C50.5468 97.9581 50.8109 97.9581 50.9618 98.0331L52.9609 99.1568C53.1118 99.2318 53.1118 99.4191 52.9232 99.5314L50.5846 100.88C50.4337 100.992 50.1319 100.992 49.981 100.917Z" fill="#173D7A"/>
<path d="M54.2428 99.4565L52.2436 98.3327C52.0927 98.2578 52.0927 98.0705 52.2813 97.9581L54.2428 96.8343C54.4314 96.7219 54.6954 96.7219 54.8463 96.7968L56.8454 97.9206C56.9963 97.9956 56.9963 98.1829 56.8077 98.2952L54.8463 99.419C54.6577 99.5314 54.3936 99.5689 54.2428 99.4565Z" fill="#173D7A"/>
<path d="M57.2989 101.217L55.2998 100.093C55.1489 100.019 55.1489 99.8312 55.3375 99.7188L57.2989 98.595C57.4875 98.4827 57.7516 98.4827 57.9024 98.5576L59.9016 99.6814C60.0525 99.7563 60.0525 99.9436 59.8639 100.056L57.9024 101.18C57.7138 101.292 57.4498 101.33 57.2989 101.217Z" fill="#173D7A"/>
<path d="M60.3543 102.978L58.3552 101.854C58.2043 101.779 58.2043 101.592 58.3929 101.479L60.3543 100.356C60.5429 100.243 60.807 100.243 60.9578 100.318L62.957 101.442C63.1079 101.517 63.1079 101.704 62.9193 101.817L60.9578 102.94C60.7693 103.053 60.5052 103.053 60.3543 102.978Z" fill="#173D7A"/>
<path d="M63.4085 104.738L61.4094 103.615C61.2585 103.54 61.2585 103.352 61.4471 103.24L63.4085 102.116C63.5971 102.004 63.8612 102.004 64.0121 102.079L66.0112 103.202C66.1621 103.277 66.1621 103.465 65.9735 103.577L64.0121 104.701C63.8612 104.813 63.5594 104.813 63.4085 104.738Z" fill="#173D7A"/>
<path d="M66.4647 106.499L64.4655 105.375C64.3146 105.3 64.3146 105.113 64.5032 105.001L66.4647 103.877C66.6533 103.765 66.9173 103.765 67.0682 103.839L69.0674 104.963C69.2182 105.038 69.2182 105.225 69.0296 105.338L67.0682 106.462C66.9173 106.574 66.6156 106.574 66.4647 106.499Z" fill="#173D7A"/>
<path d="M69.5201 108.259L67.5209 107.136C67.3701 107.061 67.3701 106.873 67.5587 106.761L69.5201 105.637C69.7087 105.525 69.9727 105.525 70.1236 105.6L72.1228 106.724C72.2737 106.799 72.2737 106.986 72.0851 107.098L70.1236 108.222C69.9727 108.334 69.671 108.334 69.5201 108.259Z" fill="#173D7A"/>
<path d="M72.5763 109.983L70.5771 108.859C70.4262 108.784 70.4262 108.597 70.6148 108.484L72.5763 107.361C72.7649 107.248 73.0289 107.248 73.1798 107.323L75.1789 108.447C75.3298 108.522 75.3298 108.709 75.1412 108.821L73.1798 109.945C73.0289 110.095 72.7649 110.095 72.5763 109.983Z" fill="#173D7A"/>
<path d="M75.6688 111.743L73.6696 110.62C73.5188 110.545 73.5187 110.357 73.7073 110.245L75.6688 109.121C75.8574 109.009 76.1214 109.009 76.2723 109.084L78.2715 110.208C78.4223 110.282 78.4223 110.47 78.2337 110.582L76.2723 111.706C76.0837 111.818 75.8197 111.856 75.6688 111.743Z" fill="#173D7A"/>
<path d="M78.7242 113.504L76.725 112.38C76.5742 112.305 76.5742 112.118 76.7628 112.006L78.7242 110.882C78.9128 110.769 79.1768 110.769 79.3277 110.844L81.3269 111.968C81.4778 112.043 81.4778 112.23 81.2892 112.343L79.3277 113.467C79.1391 113.579 78.8751 113.616 78.7242 113.504Z" fill="#173D7A"/>
<path d="M81.7804 115.265L79.7812 114.141C79.6303 114.066 79.6303 113.879 79.8189 113.766L81.7804 112.643C81.969 112.53 82.233 112.53 82.3839 112.605L84.383 113.729C84.5339 113.804 84.5339 113.991 84.3453 114.103L82.3839 115.227C82.1953 115.34 81.9312 115.34 81.7804 115.265Z" fill="#173D7A"/>
<path d="M58.7318 98.6324L56.7326 97.5086C56.5817 97.4337 56.5817 97.2464 56.7703 97.134L58.7318 96.0102C58.9204 95.8978 59.1844 95.8978 59.3353 95.9727L61.3344 97.0965C61.4853 97.1715 61.4853 97.3588 61.2967 97.4711L59.3353 98.5949C59.1844 98.7073 58.8827 98.7448 58.7318 98.6324Z" fill="#396CAA"/>
<path d="M55.6392 96.8719L53.6401 95.7481C53.4892 95.6732 53.4892 95.4859 53.6778 95.3735L55.6392 94.2497C55.8278 94.1373 56.0919 94.1373 56.2428 94.2123L58.2419 95.336C58.3928 95.411 58.3928 95.5983 58.2042 95.7106L56.2428 96.8344C56.0542 96.9468 55.7901 96.9468 55.6392 96.8719Z" fill="#396CAA"/>
<path d="M52.5086 95.0739L48.2463 92.639C48.0954 92.564 48.0954 92.3767 48.284 92.2644L50.2454 91.1406C50.434 91.0282 50.6981 91.0282 50.849 91.1031L55.1113 93.538C55.2622 93.6129 55.2622 93.8002 55.0736 93.9126L53.1122 95.0364C52.9613 95.1488 52.6595 95.1488 52.5086 95.0739Z" fill="#173D7A"/>
<path d="M54.696 92.901L51.2258 90.9156C51.0749 90.8407 51.0749 90.6534 51.2635 90.541L53.2249 89.4172C53.4135 89.3048 53.6776 89.3048 53.8285 89.3797L57.2987 91.3651C57.4496 91.44 57.4496 91.6273 57.261 91.7397L55.2995 92.8635C55.1109 92.9759 54.8469 92.9759 54.696 92.901Z" fill="#173D7A"/>
<path d="M61.7879 100.393L59.7888 99.2693C59.6379 99.1944 59.6379 99.0071 59.8265 98.8947L61.7879 97.7709C61.9765 97.6586 62.2406 97.6586 62.3914 97.7335L64.3906 98.8573C64.5415 98.9322 64.5415 99.1195 64.3529 99.2319L62.3914 100.356C62.2406 100.468 61.9388 100.468 61.7879 100.393Z" fill="#396CAA"/>
<path d="M64.8421 102.154L62.843 101.03C62.6921 100.955 62.6921 100.767 62.8807 100.655L64.8421 99.5313C65.0307 99.4189 65.2948 99.4189 65.4456 99.4939L67.4448 100.618C67.5957 100.693 67.5957 100.88 67.4071 100.992L65.4456 102.116C65.2948 102.228 65.0307 102.228 64.8421 102.154Z" fill="#173D7A"/>
<path d="M67.9359 103.914L65.9367 102.79C65.7858 102.716 65.7858 102.528 65.9744 102.416L67.9359 101.292C68.1245 101.18 68.3885 101.18 68.5394 101.255L70.5386 102.378C70.6894 102.453 70.6894 102.641 70.5008 102.753L68.5394 103.877C68.3508 103.989 68.0868 103.989 67.9359 103.914Z" fill="#173D7A"/>
<path d="M70.9901 105.675L68.9909 104.551C68.84 104.476 68.84 104.289 69.0286 104.177L70.9901 103.053C71.1787 102.941 71.4427 102.941 71.5936 103.015L73.5928 104.139C73.7436 104.214 73.7436 104.401 73.555 104.514L71.5936 105.638C71.405 105.75 71.141 105.75 70.9901 105.675Z" fill="#173D7A"/>
<path d="M74.0462 107.398L72.0471 106.274C71.8962 106.199 71.8962 106.012 72.0848 105.9L74.0462 104.776C74.2348 104.664 74.4989 104.664 74.6497 104.738L76.6489 105.862C76.7998 105.937 76.7998 106.125 76.6112 106.237L74.6497 107.361C74.4611 107.511 74.1971 107.511 74.0462 107.398Z" fill="#173D7A"/>
<path d="M77.1016 109.159L75.1025 108.035C74.9516 107.96 74.9516 107.773 75.1402 107.66L77.1016 106.536C77.2902 106.424 77.5543 106.424 77.7052 106.499L79.7043 107.623C79.8552 107.698 79.8552 107.885 79.6666 107.997L77.7052 109.121C77.5543 109.234 77.2525 109.271 77.1016 109.159Z" fill="#173D7A"/>
<path d="M80.1578 110.919L78.1586 109.796C78.0078 109.721 78.0078 109.533 78.1964 109.421L80.1578 108.297C80.3464 108.185 80.6104 108.185 80.7613 108.26L82.7605 109.384C82.9114 109.458 82.9114 109.646 82.7228 109.758L80.7613 110.882C80.6104 110.994 80.3087 111.032 80.1578 110.919Z" fill="#173D7A"/>
<path d="M83.213 112.68L81.2138 111.556C81.0629 111.481 81.0629 111.294 81.2515 111.182L83.213 110.058C83.4016 109.945 83.6656 109.945 83.8165 110.02L85.8157 111.144C85.9665 111.219 85.9665 111.406 85.7779 111.519L83.8165 112.643C83.6656 112.755 83.4016 112.755 83.213 112.68Z" fill="#173D7A"/>
<path d="M86.2684 114.441L84.2692 113.317C84.1184 113.242 84.1184 113.055 84.307 112.942L86.2684 111.818C86.457 111.706 86.721 111.706 86.8719 111.781L88.8711 112.905C89.022 112.98 89.022 113.167 88.8334 113.279L86.8719 114.403C86.721 114.516 86.457 114.516 86.2684 114.441Z" fill="#173D7A"/>
<path d="M91.7369 117.55L87.3991 115.077C87.2482 115.002 87.2482 114.815 87.4368 114.703L89.3983 113.579C89.5869 113.467 89.8509 113.467 90.0018 113.541L94.3396 116.014C94.4905 116.089 94.4905 116.276 94.3019 116.388L92.3404 117.512C92.1518 117.625 91.8878 117.662 91.7369 117.55Z" fill="#173D7A"/>
<path d="M97.6986 114.141L94.0397 112.043C93.8889 111.968 93.8889 111.781 94.0775 111.669L96.0389 110.545C96.2275 110.432 96.4915 110.432 96.6424 110.507L100.301 112.605C100.452 112.68 100.452 112.867 100.264 112.98L98.3021 114.103C98.1135 114.216 97.8495 114.216 97.6986 114.141Z" fill="#173D7A"/>
<path d="M67.1432 100.056L65.144 98.9322C64.9931 98.8573 64.9931 98.67 65.1817 98.5576L67.1432 97.4338C67.3318 97.3214 67.5958 97.3214 67.7467 97.3963L69.7458 98.5201C69.8967 98.595 69.8967 98.7823 69.7081 98.8947L67.7467 100.019C67.5958 100.131 67.3318 100.131 67.1432 100.056Z" fill="#173D7A"/>
<path d="M64.0113 98.2579L62.0122 97.1341C61.8613 97.0592 61.8613 96.8719 62.0499 96.7595L64.0113 95.6357C64.1999 95.5233 64.464 95.5233 64.6148 95.5982L66.614 96.722C66.7649 96.797 66.7649 96.9842 66.5763 97.0966L64.6148 98.2204C64.464 98.3328 64.1622 98.3328 64.0113 98.2579Z" fill="#173D7A"/>
<path d="M60.8824 96.4595L58.8833 95.3357C58.7324 95.2608 58.7324 95.0735 58.921 94.9612L60.8824 93.8374C61.071 93.725 61.3351 93.725 61.4859 93.7999L63.4851 94.9237C63.636 94.9986 63.636 95.1859 63.4474 95.2983L61.4859 96.4221C61.3351 96.5345 61.0333 96.5345 60.8824 96.4595Z" fill="#396CAA"/>
<path d="M57.7513 94.6617L55.7522 93.5379C55.6013 93.463 55.6013 93.2757 55.7899 93.1633L57.7513 92.0395C57.9399 91.9271 58.2039 91.9271 58.3548 92.002L60.354 93.1258C60.5049 93.2008 60.5049 93.3881 60.3163 93.5004L58.3548 94.6242C58.1662 94.7366 57.9022 94.7366 57.7513 94.6617Z" fill="#173D7A"/>
<path d="M70.1986 101.816L68.1994 100.693C68.0485 100.618 68.0485 100.43 68.2371 100.318L70.1986 99.1943C70.3872 99.0819 70.6512 99.0819 70.8021 99.1568L72.8012 100.281C72.9521 100.356 72.9521 100.543 72.7635 100.655L70.8021 101.779C70.6512 101.891 70.3872 101.891 70.1986 101.816Z" fill="#173D7A"/>
<path d="M73.2921 103.577L71.2929 102.453C71.142 102.379 71.142 102.191 71.3306 102.079L73.2921 100.955C73.4807 100.843 73.7447 100.843 73.8956 100.918L75.8948 102.041C76.0456 102.116 76.0456 102.304 75.857 102.416L73.8956 103.54C73.707 103.652 73.443 103.652 73.2921 103.577Z" fill="#173D7A"/>
<path d="M76.3473 105.3L74.3481 104.177C74.1972 104.102 74.1972 103.914 74.3858 103.802L76.3473 102.678C76.5359 102.566 76.7999 102.566 76.9508 102.641L78.9499 103.765C79.1008 103.839 79.1008 104.027 78.9122 104.139L76.9508 105.263C76.7622 105.375 76.4981 105.413 76.3473 105.3Z" fill="#173D7A"/>
<path d="M79.4027 107.061L77.4035 105.937C77.2526 105.862 77.2526 105.675 77.4412 105.563L79.4027 104.439C79.5913 104.326 79.8553 104.326 80.0062 104.401L82.0053 105.525C82.1562 105.6 82.1562 105.787 81.9676 105.9L80.0062 107.024C79.8553 107.136 79.5536 107.173 79.4027 107.061Z" fill="#173D7A"/>
<path d="M82.4569 108.822L80.4577 107.698C80.3068 107.623 80.3068 107.436 80.4954 107.323L82.4569 106.199C82.6455 106.087 82.9095 106.087 83.0604 106.162L85.0596 107.286C85.2104 107.361 85.2104 107.548 85.0218 107.66L83.0604 108.784C82.9095 108.897 82.6077 108.934 82.4569 108.822Z" fill="#173D7A"/>
<path d="M85.513 110.582L83.5139 109.458C83.363 109.384 83.363 109.196 83.5516 109.084L85.513 107.96C85.7016 107.848 85.9657 107.848 86.1165 107.923L88.1157 109.046C88.2666 109.121 88.2666 109.309 88.078 109.421L86.1165 110.545C85.9657 110.657 85.6639 110.657 85.513 110.582Z" fill="#173D7A"/>
<path d="M88.5694 112.343L86.5703 111.219C86.4194 111.144 86.4194 110.957 86.608 110.844L88.5694 109.721C88.758 109.608 89.0221 109.608 89.1729 109.683L91.1721 110.807C91.323 110.882 91.323 111.069 91.1344 111.182L89.1729 112.305C89.0221 112.418 88.758 112.418 88.5694 112.343Z" fill="#173D7A"/>
<path d="M91.661 114.103L89.6618 112.98C89.5109 112.905 89.5109 112.717 89.6995 112.605L91.661 111.481C91.8496 111.369 92.1136 111.369 92.2645 111.444L94.2636 112.567C94.4145 112.642 94.4145 112.83 94.2259 112.942L92.2645 114.066C92.0759 114.178 91.8119 114.178 91.661 114.103Z" fill="#173D7A"/>
<path d="M94.7171 115.826L92.718 114.703C92.5671 114.628 92.5671 114.44 92.7557 114.328L94.7171 113.204C94.9057 113.092 95.1698 113.092 95.3206 113.167L97.3198 114.291C97.4707 114.366 97.4707 114.553 97.2821 114.665L95.3206 115.789C95.132 115.939 94.868 115.939 94.7171 115.826Z" fill="#173D7A"/>
<path d="M65.5592 95.7105L63.56 94.5867C63.4091 94.5118 63.4091 94.3245 63.5977 94.2121L65.5592 93.0883C65.7478 92.976 66.0118 92.976 66.1627 93.0509L68.1618 94.1747C68.3127 94.2496 68.3127 94.4369 68.1241 94.5493L66.1627 95.6731C65.9741 95.7854 65.7101 95.7854 65.5592 95.7105Z" fill="#173D7A"/>
<path d="M62.504 93.9501L60.5048 92.8263C60.354 92.7514 60.354 92.5641 60.5426 92.4517L62.504 91.328C62.6926 91.2156 62.9566 91.2156 63.1075 91.2905L65.1067 92.4143C65.2575 92.4892 65.2575 92.6765 65.069 92.7889L63.1075 93.9127C62.9189 94.0251 62.6549 94.0625 62.504 93.9501Z" fill="#173D7A"/>
<path d="M59.4495 92.2268L57.4504 91.103C57.2995 91.028 57.2995 90.8407 57.4881 90.7284L59.4495 89.6046C59.6381 89.4922 59.9022 89.4922 60.0531 89.5671L62.0522 90.6909C62.2031 90.7658 62.2031 90.9531 62.0145 91.0655L60.0531 92.1893C59.9022 92.3017 59.6004 92.3017 59.4495 92.2268Z" fill="#173D7A"/>
<path d="M56.3934 90.4661L54.3942 89.3423C54.2434 89.2674 54.2434 89.0801 54.432 88.9677L56.3934 87.8439C56.582 87.7316 56.846 87.7316 56.9969 87.8065L58.9961 88.9303C59.147 89.0052 59.147 89.1925 58.9584 89.3049L56.9969 90.4287C56.846 90.5411 56.582 90.5411 56.3934 90.4661Z" fill="#173D7A"/>
<path d="M59.5233 88.6682L57.5241 87.5444C57.3732 87.4695 57.3732 87.2822 57.5618 87.1698L58.2031 86.7952C58.3917 86.6829 58.6557 86.6829 58.8066 86.7578L60.8058 87.8816C60.9566 87.9565 60.9566 88.1438 60.768 88.2562L60.1268 88.6308C59.9759 88.7432 59.7119 88.7806 59.5233 88.6682Z" fill="#173D7A"/>
<path d="M63.5216 90.953L61.5224 89.8292C61.3715 89.7543 61.3715 89.567 61.5601 89.4546L62.2014 89.08C62.39 88.9676 62.654 88.9677 62.8049 89.0426L64.8041 90.1664C64.9549 90.2413 64.9549 90.4286 64.7663 90.541L64.1251 90.9156C63.9365 91.0279 63.6724 91.0279 63.5216 90.953Z" fill="#173D7A"/>
<path d="M66.5396 92.6763L64.5405 91.5525C64.3896 91.4776 64.3896 91.2903 64.5782 91.1779L65.2194 90.8033C65.408 90.6909 65.6721 90.6909 65.823 90.7658L67.8221 91.8896C67.973 91.9646 67.973 92.1518 67.7844 92.2642L67.1432 92.6388C66.9923 92.7887 66.6905 92.7887 66.5396 92.6763Z" fill="#173D7A"/>
<path d="M69.5958 94.437L67.5966 93.3132C67.4458 93.2383 67.4458 93.051 67.6344 92.9386L68.2756 92.564C68.4642 92.4517 68.7282 92.4517 68.8791 92.5266L70.8783 93.6504C71.0291 93.7253 71.0291 93.9126 70.8405 94.025L70.1993 94.3996C70.0107 94.512 69.7467 94.5119 69.5958 94.437Z" fill="#173D7A"/>
<path d="M72.6136 96.1602L70.6145 95.0364C70.4636 94.9615 70.4636 94.7742 70.6522 94.6618L71.2934 94.2872C71.482 94.1748 71.746 94.1748 71.8969 94.2497L73.8961 95.3735C74.047 95.4484 74.047 95.6357 73.8584 95.7481L73.2171 96.1227C73.0662 96.2351 72.7645 96.2726 72.6136 96.1602Z" fill="#173D7A"/>
<path d="M89.5487 105.862L87.5495 104.738C87.3986 104.663 87.3986 104.476 87.5872 104.364L88.2285 103.989C88.4171 103.877 88.6811 103.877 88.832 103.952L90.8312 105.075C90.982 105.15 90.982 105.338 90.7934 105.45L90.1522 105.825C90.0013 105.974 89.6995 105.974 89.5487 105.862Z" fill="#173D7A"/>
<path d="M92.5677 107.623L90.5686 106.499C90.4177 106.424 90.4177 106.237 90.6063 106.124L91.2475 105.75C91.4361 105.637 91.7002 105.637 91.851 105.712L93.8502 106.836C94.0011 106.911 94.0011 107.098 93.8125 107.211L93.1712 107.585C93.0204 107.698 92.7563 107.698 92.5677 107.623Z" fill="#173D7A"/>
<path d="M95.6239 109.346L93.6247 108.222C93.4738 108.147 93.4738 107.96 93.6624 107.848L94.3037 107.473C94.4923 107.361 94.7563 107.361 94.9072 107.436L96.9063 108.559C97.0572 108.634 97.0572 108.822 96.8686 108.934L96.2274 109.309C96.0388 109.421 95.7747 109.458 95.6239 109.346Z" fill="#173D7A"/>
<path d="M98.6397 111.107L96.6406 109.983C96.4897 109.908 96.4897 109.721 96.6783 109.608L97.3195 109.234C97.5081 109.121 97.7722 109.121 97.9231 109.196L99.9222 110.32C100.073 110.395 100.073 110.582 99.8845 110.695L99.2432 111.069C99.0924 111.182 98.7906 111.182 98.6397 111.107Z" fill="#173D7A"/>
<path d="M68.6153 97.4713L66.6162 96.3475C66.4653 96.2725 66.4653 96.0852 66.6539 95.9729L68.6153 94.8491C68.8039 94.7367 69.068 94.7367 69.2188 94.8116L71.218 95.9354C71.3689 96.0103 71.3689 96.1976 71.1803 96.31L69.2188 97.4338C69.0302 97.5462 68.7662 97.5462 68.6153 97.4713Z" fill="#173D7A"/>
<path d="M71.6695 99.232L69.6704 98.1082C69.5195 98.0333 69.5195 97.846 69.7081 97.7336L71.6695 96.6098C71.8581 96.4974 72.1222 96.4974 72.273 96.5724L74.2722 97.6961C74.4231 97.7711 74.4231 97.9584 74.2345 98.0707L72.273 99.1945C72.1222 99.3069 71.8204 99.3069 71.6695 99.232Z" fill="#173D7A"/>
<path d="M74.7259 100.955L72.7268 99.8312C72.5759 99.7563 72.5759 99.569 72.7645 99.4566L74.7259 98.3328C74.9145 98.2205 75.1786 98.2205 75.3294 98.2954L77.3286 99.4192C77.4795 99.4941 77.4795 99.6814 77.2909 99.7938L75.3294 100.918C75.1786 101.067 74.8768 101.067 74.7259 100.955Z" fill="#173D7A"/>
<path d="M77.7801 102.716L75.781 101.592C75.6301 101.517 75.6301 101.33 75.8187 101.217L77.7801 100.093C77.9687 99.981 78.2328 99.981 78.3836 100.056L80.3828 101.18C80.5337 101.255 80.5337 101.442 80.3451 101.554L78.3836 102.678C78.2328 102.79 77.931 102.828 77.7801 102.716Z" fill="#173D7A"/>
<path d="M80.8353 104.476L78.8361 103.352C78.6853 103.278 78.6853 103.09 78.8739 102.978L80.8353 101.854C81.0239 101.742 81.2879 101.742 81.4388 101.817L83.438 102.94C83.5888 103.015 83.5888 103.203 83.4002 103.315L81.4388 104.439C81.2879 104.551 81.0239 104.589 80.8353 104.476Z" fill="#173D7A"/>
<path d="M83.9281 106.237L81.9289 105.113C81.778 105.038 81.778 104.851 81.9666 104.738L83.9281 103.615C84.1167 103.502 84.3807 103.502 84.5316 103.577L86.5307 104.701C86.6816 104.776 86.6816 104.963 86.493 105.076L84.5316 106.199C84.343 106.312 84.0789 106.312 83.9281 106.237Z" fill="#173D7A"/>
<path d="M86.9842 107.998L84.9851 106.874C84.8342 106.799 84.8342 106.611 85.0228 106.499L86.9842 105.375C87.1728 105.263 87.4369 105.263 87.5877 105.338L89.5869 106.462C89.7378 106.537 89.7378 106.724 89.5492 106.836L87.5877 107.96C87.3991 108.072 87.1351 108.072 86.9842 107.998Z" fill="#173D7A"/>
<path d="M90.0394 109.758L88.0402 108.634C87.8894 108.559 87.8894 108.372 88.078 108.26L90.0394 107.136C90.228 107.024 90.492 107.024 90.6429 107.098L92.6421 108.222C92.7929 108.297 92.793 108.484 92.6044 108.597L90.6429 109.721C90.4543 109.833 90.1903 109.833 90.0394 109.758Z" fill="#173D7A"/>
<path d="M93.0948 111.518L91.0957 110.395C90.9448 110.32 90.9448 110.132 91.1334 110.02L93.0948 108.896C93.2834 108.784 93.5475 108.784 93.6983 108.859L95.6975 109.983C95.8484 110.057 95.8484 110.245 95.6598 110.357L93.6983 111.481C93.5475 111.593 93.2457 111.593 93.0948 111.518Z" fill="#173D7A"/>
<path d="M51.1124 97.696L45.2658 94.3621C45.1149 94.2872 45.1149 94.0999 45.3035 93.9875L47.265 92.8637C47.4536 92.7513 47.7176 92.7513 47.8685 92.8263L53.7151 96.1602C53.866 96.2351 53.866 96.4224 53.6774 96.5348L51.7159 97.6586C51.5273 97.771 51.2633 97.771 51.1124 97.696Z" fill="#173D7A"/>
<path d="M88.7203 119.235L82.8737 115.902C82.7229 115.827 82.7229 115.639 82.9115 115.527L84.8729 114.403C85.0615 114.291 85.3255 114.291 85.4764 114.366L91.323 117.7C91.4739 117.775 91.4739 117.962 91.2853 118.074L89.3238 119.198C89.1352 119.31 88.8712 119.348 88.7203 119.235Z" fill="#173D7A"/>
<path d="M76.4615 116.089L74.4624 114.965C74.3115 114.89 74.3115 114.703 74.5001 114.59L76.8387 113.242C77.0273 113.13 77.2914 113.13 77.4422 113.204L79.4414 114.328C79.5923 114.403 79.5923 114.59 79.4037 114.703L77.065 116.051C76.9142 116.164 76.6124 116.201 76.4615 116.089Z" fill="#173D7A"/>
<path d="M54.2439 103.352L51.0754 101.517C50.9245 101.442 50.9245 101.255 51.1131 101.142L53.4517 99.7938C53.6403 99.6814 53.9044 99.6814 54.0553 99.7563L57.2237 101.592C57.3746 101.667 57.3746 101.854 57.186 101.966L54.8474 103.315C54.6588 103.427 54.3947 103.427 54.2439 103.352Z" fill="#173D7A"/>
<path d="M73.5183 114.403L70.3498 112.567C70.1989 112.492 70.1989 112.305 70.3875 112.193L72.7262 110.844C72.9148 110.732 73.1788 110.732 73.3297 110.807L76.4982 112.642C76.649 112.717 76.649 112.904 76.4604 113.017L74.1218 114.365C73.9709 114.478 73.6692 114.515 73.5183 114.403Z" fill="#173D7A"/>
<path d="M58.6562 105.9L55.4877 104.064C55.3369 103.989 55.3369 103.802 55.5255 103.69L57.8641 102.341C58.0527 102.229 58.3167 102.229 58.4676 102.304L61.6361 104.139C61.787 104.214 61.787 104.401 61.5984 104.514L59.2597 105.862C59.1089 105.975 58.8071 105.975 58.6562 105.9Z" fill="#173D7A"/>
<path d="M58.5062 102.341L72.274 110.245C72.4626 110.357 72.4626 110.507 72.274 110.582L69.8977 111.968C69.7091 112.08 69.445 112.08 69.2941 111.968L55.5264 104.064L58.5062 102.341Z" fill="#173D7A"/>
<path d="M85.0227 119.273L87.2482 120.546C87.3613 120.621 87.3613 120.734 87.2104 120.846L86.2674 121.408C86.1166 121.483 85.8902 121.52 85.7771 121.445L83.5516 120.172C83.4385 120.097 83.4384 119.985 83.5893 119.872L84.5323 119.31C84.6832 119.198 84.9095 119.198 85.0227 119.273Z" fill="#173D7A"/>
<path d="M81.9292 117.512L84.1547 118.786C84.2678 118.861 84.2678 118.973 84.1169 119.085L83.1739 119.647C83.0231 119.722 82.7967 119.76 82.6836 119.685L80.4581 118.411C80.3449 118.336 80.3449 118.224 80.4958 118.112L81.4388 117.55C81.5897 117.437 81.816 117.437 81.9292 117.512Z" fill="#173D7A"/>
<path d="M78.8747 115.752L81.1002 117.025C81.2134 117.1 81.2134 117.212 81.0625 117.325L80.1195 117.887C79.9686 117.962 79.7423 117.999 79.6291 117.924L77.4037 116.651C77.2905 116.576 77.2905 116.463 77.4414 116.351L78.3844 115.789C78.5353 115.677 78.7616 115.677 78.8747 115.752Z" fill="#173D7A"/>
<path d="M83.6274 116.538L85.8529 117.812C85.9661 117.887 85.9661 117.999 85.8152 118.112L84.8722 118.674C84.7213 118.748 84.495 118.786 84.3818 118.711L82.1563 117.437C82.0432 117.362 82.0432 117.25 82.1941 117.138L83.1371 116.576C83.2879 116.463 83.5143 116.463 83.6274 116.538Z" fill="#173D7A"/>
<path d="M79.5918 62.7459L76.6497 61.0602C76.3856 60.9104 76.2348 60.5358 76.3102 60.1987C76.3856 59.8615 76.6497 59.7491 76.9514 59.899L79.8936 61.5847C80.1576 61.7345 80.3085 62.1091 80.2331 62.4462C80.1199 62.7834 79.8559 62.8958 79.5918 62.7459Z" fill="#D4ECFF"/>
<path d="M86.5326 66.7543L82.1948 64.2819C81.9308 64.1321 81.7799 63.7575 81.8554 63.4203C81.9308 63.0832 82.1948 62.9708 82.4966 63.1207L86.8344 65.593C87.0984 65.7428 87.2493 66.1174 87.1739 66.4546C87.0984 66.7543 86.8344 66.9041 86.5326 66.7543Z" fill="#D4ECFF"/>
<path d="M74.4617 76.3065L71.5195 74.6208C71.2555 74.4709 71.1046 74.0963 71.1801 73.7592C71.2555 73.4221 71.5195 73.3097 71.8213 73.4595L74.7635 75.1452C75.0275 75.2951 75.1784 75.6697 75.1029 76.0068C75.0275 76.3439 74.7257 76.4938 74.4617 76.3065Z" fill="#D4ECFF"/>
<path d="M80.6855 79.9027L76.3477 77.4304C76.0836 77.2805 75.9327 76.9059 76.0082 76.5688C76.0836 76.2316 76.3477 76.1193 76.6494 76.2691L80.9872 78.7414C81.2513 78.8913 81.4021 79.2659 81.3267 79.603C81.2513 79.9027 80.9495 80.0525 80.6855 79.9027Z" fill="#D4ECFF"/>
<path d="M70.9174 60.5359L69.0691 59.487C68.8051 59.3372 68.6542 58.9626 68.7296 58.6254C68.8051 58.2883 69.0691 58.1759 69.3709 58.3257L71.2191 59.3746C71.4832 59.5245 71.6341 59.8991 71.5586 60.2362C71.4832 60.5733 71.2191 60.6857 70.9174 60.5359Z" fill="#D4ECFF"/>
<path d="M76.575 66.5295L70.9924 63.3079C70.7284 63.1581 70.5775 62.7835 70.653 62.4463C70.7284 62.1092 70.9924 61.9968 71.2942 62.1467L76.8768 65.3682C77.1408 65.518 77.2917 65.8926 77.2162 66.2298C77.1408 66.5295 76.839 66.6793 76.575 66.5295Z" fill="#D4ECFF"/>
<path d="M71.6706 69.2264L69.8223 68.1775C69.5582 68.0277 69.4074 67.6531 69.4828 67.316C69.5582 66.9788 69.8223 66.8665 70.124 67.0163L71.9723 68.0652C72.2364 68.215 72.3872 68.5896 72.3118 68.9267C72.2364 69.2264 71.9723 69.3763 71.6706 69.2264Z" fill="#D4ECFF"/>
<path d="M81.6289 85.9336L76.7254 83.1241C76.4613 82.9742 76.3104 82.5996 76.3859 82.2625C76.4613 81.9254 76.7254 81.813 77.0271 81.9628L81.9307 84.7723C82.1947 84.9221 82.3456 85.2967 82.2702 85.6339C82.1947 85.971 81.893 86.0834 81.6289 85.9336Z" fill="#D4ECFF"/>
<path d="M69.8981 73.6845L68.7288 73.0102C68.4647 72.8603 68.3139 72.4857 68.3893 72.1486C68.4647 71.8115 68.7288 71.6991 69.0305 71.8489L70.1998 72.5232C70.4639 72.673 70.6148 73.0476 70.5393 73.3848C70.4639 73.7219 70.1621 73.8718 69.8981 73.6845Z" fill="#D4ECFF"/>
<path d="M69.069 78.7039L67.5979 77.8798C67.3339 77.73 67.183 77.3554 67.2584 77.0182C67.3339 76.6811 67.5979 76.5687 67.8997 76.7186L69.3707 77.5427C69.6348 77.6925 69.7857 78.0671 69.7102 78.4043C69.5971 78.7414 69.333 78.8912 69.069 78.7039Z" fill="#D4ECFF"/>
<path d="M74.7259 81.9629L70.8784 79.7527C70.6144 79.6029 70.4635 79.2283 70.539 78.8912C70.6144 78.554 70.8784 78.4416 71.1802 78.5915L75.0276 80.8016C75.2917 80.9515 75.4425 81.3261 75.3671 81.6632C75.2917 82.0003 74.9899 82.1127 74.7259 81.9629Z" fill="#D4ECFF"/>
<path d="M69.7851 81.8881L67.0315 80.3148C66.7675 80.1649 66.6166 79.7903 66.692 79.4532C66.7675 79.116 67.0315 79.0037 67.3333 79.1535L70.0868 80.7268C70.3509 80.8767 70.5017 81.2512 70.4263 81.5884C70.3509 81.9255 70.0868 82.0379 69.7851 81.8881Z" fill="#D4ECFF"/>
<path d="M85.8163 88.3312L84.0435 87.3198C83.7794 87.1699 83.6285 86.7953 83.704 86.4582C83.7794 86.121 84.0435 86.0087 84.3452 86.1585L86.1181 87.1699C86.3821 87.3198 86.533 87.6944 86.4575 88.0315C86.3821 88.3686 86.0803 88.5185 85.8163 88.3312Z" fill="#D4ECFF"/>
<path d="M78.4981 73.1224L73.5945 70.3129C73.3305 70.1631 73.1796 69.7885 73.255 69.4513C73.3305 69.1142 73.5945 69.0018 73.8963 69.1517L78.7998 71.9612C79.0639 72.111 79.2148 72.4856 79.1393 72.8227C79.0262 73.1599 78.7621 73.2722 78.4981 73.1224Z" fill="#D4ECFF"/>
<path d="M78.9507 70.6126L70.426 65.7429C70.162 65.593 70.0111 65.2184 70.0866 64.8813C70.162 64.5441 70.426 64.4318 70.7278 64.5816L79.2525 69.4514C79.5165 69.6012 79.6674 69.9758 79.592 70.313C79.4788 70.6501 79.2148 70.7999 78.9507 70.6126Z" fill="#D4ECFF"/>
<path d="M74.1595 73.3847L69.2559 70.5753C68.9918 70.4254 68.841 70.0508 68.9164 69.7137C68.9918 69.3765 69.2559 69.2642 69.5576 69.414L74.4612 72.2235C74.7253 72.3733 74.8761 72.7479 74.8007 73.0851C74.7253 73.4222 74.4612 73.572 74.1595 73.3847Z" fill="#D4ECFF"/>
<path d="M82.1957 75.2577L80.4229 74.2463C80.1588 74.0964 80.0079 73.7218 80.0834 73.3847C80.1588 73.0476 80.4229 72.9352 80.7246 73.085L82.4975 74.0964C82.7615 74.2463 82.9124 74.6209 82.8369 74.958C82.7615 75.2577 82.4597 75.4075 82.1957 75.2577Z" fill="#D4ECFF"/>
<path d="M99.7338 74.2838L89.21 68.2527C88.9459 68.1029 88.7951 67.7283 88.8705 67.3912C88.9459 67.054 89.21 66.9416 89.5117 67.0915L100.036 73.1225C100.3 73.2724 100.451 73.647 100.375 73.9841C100.262 74.3212 99.9979 74.4711 99.7338 74.2838Z" fill="#D4ECFF"/>
<path d="M74.0467 78.8161L68.1624 75.4448C67.8983 75.2949 67.7474 74.9203 67.8229 74.5832C67.8983 74.246 68.1624 74.1337 68.4641 74.2835L74.3484 77.6549C74.6125 77.8047 74.7634 78.1793 74.6879 78.5165C74.5748 78.8536 74.3107 78.966 74.0467 78.8161Z" fill="#D4ECFF"/>
<path d="M73.9713 59.5244L69.6336 57.0521C69.3695 56.9022 69.2186 56.5276 69.2941 56.1905C69.3695 55.8533 69.6336 55.741 69.9353 55.8908L74.2731 58.3631C74.5371 58.513 74.688 58.8876 74.6126 59.2247C74.5372 59.5619 74.2731 59.7117 73.9713 59.5244Z" fill="#D4ECFF"/>
<path d="M69.0304 84.2105L64.0137 81.3261C63.7496 81.1763 63.5988 80.8017 63.6742 80.4645C63.7496 80.1274 64.0137 80.015 64.3154 80.1649L69.3322 83.0493C69.5962 83.1991 69.7471 83.5737 69.6717 83.9108C69.5962 84.2105 69.2945 84.3603 69.0304 84.2105Z" fill="#D4ECFF"/>
<path d="M102.866 94.6618L99.9236 92.9761C99.6596 92.8263 99.5087 92.4517 99.5841 92.1146C99.6596 91.7774 99.9236 91.665 100.225 91.8149L103.168 93.5006C103.432 93.6504 103.582 94.025 103.507 94.3621C103.432 94.6993 103.168 94.8491 102.866 94.6618Z" fill="#D4ECFF"/>
<path d="M104.978 84.8847L99.3955 81.6631C99.1315 81.5133 98.9806 81.1387 99.056 80.8016C99.1315 80.4644 99.3955 80.352 99.6973 80.5019L105.28 83.7234C105.544 83.8733 105.695 84.2479 105.619 84.585C105.544 84.8847 105.242 85.0345 104.978 84.8847Z" fill="#D4ECFF"/>
<path d="M100.113 87.5819L98.2647 86.533C98.0006 86.3832 97.8497 86.0086 97.9252 85.6714C98.0006 85.3343 98.2647 85.2219 98.5664 85.3718L100.415 86.4206C100.679 86.5705 100.83 86.9451 100.754 87.2822C100.641 87.6193 100.377 87.7317 100.113 87.5819Z" fill="#D4ECFF"/>
<path d="M98.3021 92.0394L97.1328 91.3652C96.8688 91.2153 96.7179 90.8407 96.7933 90.5036C96.8688 90.1665 97.1328 90.0541 97.4346 90.2039L98.6039 90.8782C98.8679 91.028 99.0188 91.4026 98.9434 91.7398C98.8679 92.0769 98.6039 92.2267 98.3021 92.0394Z" fill="#D4ECFF"/>
<path d="M106.902 91.4775L101.998 88.668C101.734 88.5182 101.583 88.1436 101.659 87.8064C101.734 87.4693 101.998 87.3569 102.3 87.5068L107.204 90.3163C107.468 90.4661 107.619 90.8407 107.543 91.1778C107.468 91.515 107.166 91.6274 106.902 91.4775Z" fill="#D4ECFF"/>
<path d="M107.356 88.9679L98.8311 84.0981C98.567 83.9482 98.4161 83.5736 98.4916 83.2365C98.567 82.8994 98.8311 82.787 99.1328 82.9368L107.658 87.8066C107.922 87.9564 108.072 88.331 107.997 88.6682C107.922 89.0053 107.62 89.1552 107.356 88.9679Z" fill="#D4ECFF"/>
<path d="M102.602 91.7774L97.6983 88.968C97.4342 88.8181 97.2833 88.4435 97.3588 88.1064C97.4342 87.7692 97.6983 87.6569 98 87.8067L102.904 90.6162C103.168 90.766 103.319 91.1406 103.243 91.4778C103.13 91.7774 102.866 91.9273 102.602 91.7774Z" fill="#D4ECFF"/>
<path d="M102.451 97.1715L96.5664 93.8001C96.3024 93.6503 96.1515 93.2757 96.2269 92.9385C96.3024 92.6014 96.5664 92.489 96.8682 92.6388L102.752 96.0102C103.017 96.1601 103.167 96.5347 103.092 96.8718C103.017 97.2089 102.715 97.3213 102.451 97.1715Z" fill="#D4ECFF"/>
<path d="M9.30587 126.074L22.0805 118.791C23.0759 118.231 24.8345 118.297 25.9958 118.956L52.2086 134.048C53.3699 134.707 53.5027 135.729 52.4741 136.289L39.6995 143.571C38.704 144.131 36.9455 144.065 35.7841 143.406L9.57132 128.314C8.40999 127.655 8.31045 126.667 9.30587 126.074Z" fill="#B2D3EA"/>
<path d="M40.2313 141.199L53.3045 133.719C53.8686 133.389 54.1672 132.961 54.1672 132.499V130.259L53.7358 130.984C53.5367 130.753 53.2713 130.522 52.9063 130.325L26.5608 115.134C25.0676 114.277 22.8113 114.178 21.5173 114.903L8.44407 122.383C8.31135 122.449 8.17862 122.548 8.07908 122.647L7.58137 122.021V124.13C7.54819 124.723 7.97954 125.316 8.80906 125.81L35.1878 140.968C36.6809 141.825 38.9372 141.924 40.2313 141.199Z" fill="#396CAA"/>
<path d="M8.47715 120.736L21.5504 113.255C22.8444 112.531 25.1007 112.629 26.5938 113.486L52.9394 128.677C54.4325 129.534 54.5984 130.819 53.3044 131.577L40.2311 139.057C38.9371 139.782 36.6808 139.683 35.1877 138.826L8.84214 123.635C7.349 122.779 7.1831 121.461 8.47715 120.736Z" fill="#D4ECFF"/>
<path d="M53.3039 131.577L40.2307 139.057C38.9367 139.782 36.6804 139.683 35.1872 138.826L8.84171 123.635C8.11173 123.207 7.71356 122.713 7.61402 122.185C7.51448 122.812 7.91265 123.504 8.84171 123.998L35.1872 139.189C36.6804 140.045 38.9367 140.144 40.2307 139.419L53.3039 131.939C53.9676 131.544 54.2662 131.017 54.1666 130.489C54.1003 130.885 53.8348 131.28 53.3039 131.577Z" fill="white"/>
<path d="M9.30587 121.032L22.0805 113.75C23.0759 113.19 24.8345 113.256 25.9958 113.915L52.2086 129.007C53.3699 129.666 53.5027 130.687 52.4741 131.247L39.6995 138.53C38.704 139.09 36.9455 139.024 35.7841 138.365L9.57132 123.273C8.40999 122.614 8.31045 121.625 9.30587 121.032Z" fill="white"/>
<path d="M29.8779 123.701L25.133 120.999C24.9671 120.9 24.9671 120.736 25.1662 120.604C25.3653 120.472 25.6639 120.472 25.863 120.571L30.6078 123.273C30.7737 123.372 30.7737 123.537 30.5747 123.668C30.3756 123.767 30.077 123.8 29.8779 123.701Z" fill="#B2D3EA"/>
<path d="M25.3973 122.779L23.705 121.823C23.5391 121.724 23.5391 121.559 23.7382 121.428C23.9373 121.296 24.2359 121.296 24.435 121.395L26.1272 122.35C26.2931 122.449 26.2931 122.614 26.0941 122.746C25.895 122.845 25.5963 122.878 25.3973 122.779Z" fill="#B2D3EA"/>
<path d="M28.253 124.393L26.5607 123.438C26.3948 123.339 26.3948 123.174 26.5939 123.042C26.793 122.91 27.0916 122.91 27.2907 123.009L28.9829 123.965C29.1489 124.064 29.1488 124.229 28.9498 124.36C28.7175 124.492 28.4189 124.492 28.253 124.393Z" fill="#396CAA"/>
<path d="M33.96 127.689L29.3811 125.052C29.2152 124.954 29.2152 124.789 29.4142 124.657C29.6133 124.525 29.912 124.525 30.111 124.624L34.69 127.26C34.8559 127.359 34.8559 127.524 34.6568 127.656C34.4577 127.754 34.1259 127.787 33.96 127.689Z" fill="#B2D3EA"/>
<path d="M28.1854 126.008L22.2793 122.614C22.1134 122.515 22.1134 122.35 22.3124 122.219C22.5115 122.087 22.8101 122.087 23.0092 122.186L28.9154 125.58C29.0813 125.678 29.0813 125.843 28.8822 125.975C28.6831 126.107 28.3513 126.107 28.1854 126.008Z" fill="#B2D3EA"/>
<path d="M35.2868 131.742L20.82 123.438C20.6541 123.339 20.6541 123.174 20.8532 123.042C21.0523 122.91 21.3509 122.91 21.55 123.009L36.0168 131.313C36.1827 131.412 36.1827 131.577 35.9836 131.709C35.7846 131.84 35.4859 131.84 35.2868 131.742Z" fill="#396CAA"/>
<path d="M39.5002 129.204L31.205 124.426C31.0391 124.327 31.0391 124.163 31.2382 124.031C31.4373 123.899 31.7359 123.899 31.935 123.998L40.2634 128.776C40.4293 128.875 40.4293 129.04 40.2302 129.171C39.9979 129.303 39.6993 129.303 39.5002 129.204Z" fill="#B2D3EA"/>
<path d="M29.3162 136.981L28.0885 136.289C27.9557 136.223 27.8562 136.025 27.8562 135.86C27.8562 135.696 27.9557 135.63 28.0885 135.696L29.3162 136.388C29.4489 136.454 29.5484 136.651 29.5484 136.816C29.5484 136.981 29.4489 137.08 29.3162 136.981Z" fill="#D4ECFF"/>
<path d="M31.2395 138.101L30.0118 137.409C29.8791 137.343 29.7795 137.146 29.7795 136.981C29.7795 136.816 29.8791 136.75 30.0118 136.816L31.2395 137.508C31.3722 137.574 31.4718 137.772 31.4718 137.937C31.4718 138.101 31.3722 138.167 31.2395 138.101Z" fill="#D4ECFF"/>
</g>
<path d="M29.4471 35.4965C29.3144 35.4965 29.1816 35.3647 29.1816 35.2329V24.3917C29.1816 24.2599 29.3144 24.1281 29.4471 24.1281C29.5798 24.1281 29.7125 24.2599 29.7125 24.3917V35.2329C29.7125 35.3647 29.5798 35.4965 29.4471 35.4965Z" fill="#5793CE"/>
<path d="M30.374 23.6997H28.4827V27.7528H30.374V23.6997Z" fill="#5793CE"/>
<path d="M30.1093 28.1484C29.7443 28.3461 29.147 28.3461 28.782 28.1484C28.4171 27.9507 28.4171 27.5882 28.782 27.3905C29.147 27.1928 29.7443 27.1928 30.1093 27.3905C30.4743 27.6211 30.4743 27.9507 30.1093 28.1484Z" fill="#5793CE"/>
<path d="M30.9735 18.0651H27.8877V24.4248H30.9735V18.0651Z" fill="#5793CE"/>
<path d="M28.4841 24.3918V25.7758C29.0482 26.0394 29.8114 26.0394 30.3754 25.7758V24.3918C29.8114 24.1282 29.0482 24.1282 28.4841 24.3918Z" fill="#396CAA"/>
<path d="M30.508 25.0507C29.9108 25.3802 28.9485 25.3802 28.3513 25.0507C27.754 24.7212 27.754 24.161 28.3513 23.7985C28.9485 23.469 29.9108 23.469 30.508 23.7985C31.1053 24.161 31.1053 24.6882 30.508 25.0507Z" fill="#5793CE"/>
<path d="M32.0369 37.0454C31.9042 37.0454 31.7715 36.9136 31.7715 36.7818V25.9406C31.7715 25.8088 31.9042 25.677 32.0369 25.677C32.1696 25.677 32.3024 25.8088 32.3024 25.9406V36.7818C32.3024 36.9136 32.1696 37.0454 32.0369 37.0454Z" fill="#5793CE"/>
<path d="M32.9658 25.2487H31.0745V29.3017H32.9658V25.2487Z" fill="#5793CE"/>
<path d="M32.7013 29.6971C32.3363 29.8948 31.7391 29.8948 31.3741 29.6971C31.0091 29.4994 31.0091 29.1369 31.3741 28.9392C31.7391 28.7415 32.3363 28.7415 32.7013 28.9392C33.0663 29.1369 33.0663 29.4994 32.7013 29.6971Z" fill="#5793CE"/>
<path d="M33.5653 19.5808H30.4795V25.9405H33.5653V19.5808Z" fill="#5793CE"/>
<path d="M31.0757 25.9076V27.2916C31.6398 27.5552 32.4029 27.5552 32.967 27.2916V25.9076C32.4029 25.677 31.6398 25.677 31.0757 25.9076Z" fill="#396CAA"/>
<path d="M33.0996 26.5997C32.5023 26.9292 31.5401 26.9292 30.9428 26.5997C30.3456 26.2701 30.3456 25.71 30.9428 25.3475C31.5401 25.018 32.5023 25.018 33.0996 25.3475C33.6968 25.677 33.6968 26.2372 33.0996 26.5997Z" fill="#5793CE"/>
<path d="M34.6231 38.5613C34.4904 38.5613 34.3577 38.4295 34.3577 38.2977V27.4565C34.3577 27.3247 34.4904 27.1929 34.6231 27.1929C34.7558 27.1929 34.8886 27.3247 34.8886 27.4565V38.2977C34.8886 38.4624 34.7558 38.5613 34.6231 38.5613Z" fill="#5793CE"/>
<path d="M35.5539 26.7974H33.6626V30.8505H35.5539V26.7974Z" fill="#5793CE"/>
<path d="M35.2897 31.2461C34.9247 31.4439 34.3275 31.4439 33.9625 31.2461C33.5975 31.0484 33.5975 30.686 33.9625 30.4882C34.3275 30.2905 34.9247 30.2905 35.2897 30.4882C35.6547 30.686 35.6547 31.0155 35.2897 31.2461Z" fill="#5793CE"/>
<path d="M36.1517 21.1296H33.0659V27.4894H36.1517V21.1296Z" fill="#5793CE"/>
<path d="M33.6628 27.4566V28.8406C34.2269 29.1042 34.9901 29.1042 35.5541 28.8406V27.4566C34.9901 27.193 34.2269 27.193 33.6628 27.4566Z" fill="#396CAA"/>
<path d="M35.6867 28.1155C35.0895 28.445 34.1272 28.445 33.53 28.1155C32.9327 27.786 32.9327 27.2258 33.53 26.8634C34.1272 26.5338 35.0895 26.5338 35.6867 26.8634C36.284 27.2258 36.284 27.786 35.6867 28.1155Z" fill="#5793CE"/>
<path d="M37.2112 40.1099C37.0785 40.1099 36.9458 39.9781 36.9458 39.8463V29.0051C36.9458 28.8733 37.0785 28.7415 37.2112 28.7415C37.344 28.7415 37.4767 28.8733 37.4767 29.0051V39.8463C37.4767 39.9781 37.344 40.1099 37.2112 40.1099Z" fill="#5793CE"/>
<path d="M38.1413 28.3132H36.25V32.3663H38.1413V28.3132Z" fill="#5793CE"/>
<path d="M37.8771 32.7616C37.5121 32.9594 36.9149 32.9594 36.5499 32.7616C36.1849 32.5639 36.1849 32.2015 36.5499 32.0038C36.9149 31.806 37.5121 31.806 37.8771 32.0038C38.2421 32.2015 38.2421 32.5639 37.8771 32.7616Z" fill="#5793CE"/>
<path d="M38.7389 22.6782H35.6531V29.0379H38.7389V22.6782Z" fill="#5793CE"/>
<path d="M36.25 29.0052V30.3892C36.8141 30.6528 37.5772 30.6528 38.1413 30.3892V29.0052C37.6104 28.7416 36.8141 28.7416 36.25 29.0052Z" fill="#396CAA"/>
<path d="M38.3061 29.6642C37.7089 29.9938 36.7466 29.9938 36.1494 29.6642C35.5521 29.3347 35.5521 28.7745 36.1494 28.4121C36.7466 28.0825 37.7089 28.0825 38.3061 28.4121C38.9034 28.7416 38.9034 29.3018 38.3061 29.6642Z" fill="#5793CE"/>
<path d="M49.2582 34.3105L53.3726 31.905L49.4573 27.0281L48.3955 28.7086L49.2582 34.3105Z" fill="#5793CE"/>
<path d="M19.3276 7.61932L25.8974 3.86279L25.6652 7.61932L21.8826 8.77263L19.3276 7.61932Z" fill="#5793CE"/>
<path d="M50.3847 22.0852C49.887 21.7886 49.4225 21.6239 48.9579 21.558C48.2943 18.098 45.8721 14.4404 42.9854 12.7598C42.1227 12.2655 41.2932 12.0019 40.53 11.936C40.1318 7.75111 37.2119 2.97308 33.6284 0.93006C31.7703 -0.124402 30.0781 -0.25621 28.8172 0.402829L28.7508 0.435781C28.7176 0.468733 28.6845 0.468733 28.6513 0.501685L24.7691 2.77537L26.0632 3.79688C24.9019 4.29116 24.1719 5.57628 24.1719 7.4875C24.1719 11.0134 26.6604 15.2642 29.7131 17.0106L50.3847 31.6413C52.6742 32.9593 54.5323 31.9049 54.5323 29.2687C54.5655 26.5996 52.6742 23.4033 50.3847 22.0852Z" fill="#5793CE"/>
<path d="M24.4065 5.93877L33.2989 0.765321C31.5735 -0.124381 30.014 -0.190284 28.8527 0.40285L28.7864 0.435802C28.7532 0.468754 28.72 0.468754 28.6868 0.501706L24.8047 2.77539L26.0987 3.7969C25.3024 4.12642 24.7051 4.85136 24.4065 5.93877Z" fill="#5793CE"/>
<path d="M40.827 21.0968L47.3304 17.3073C46.2023 15.3961 44.676 13.7155 42.9837 12.7599C42.7515 12.6281 42.5524 12.5293 42.3201 12.4304L34.0581 17.2414L40.827 21.0968Z" fill="#5793CE"/>
<path d="M26.6609 3.20371L29.5476 4.8513L34.8565 1.75382C34.4584 1.45725 34.0602 1.19364 33.662 0.962973C33.0316 0.600502 32.4012 0.336886 31.8039 0.205078L26.6609 3.20371Z" fill="#D4ECFF"/>
<path d="M46.6357 16.2197L41.4595 19.2513L43.2512 21.2614L47.9629 18.4934C47.5647 17.7026 47.1334 16.9447 46.6357 16.2197Z" fill="#D4ECFF"/>
<path d="M46.3027 24.4576C45.805 24.1611 45.3404 23.9963 44.8759 23.9304C44.2123 20.4705 41.7901 16.8128 38.9034 15.1322C38.0407 14.638 37.2112 14.3744 36.448 14.3085C36.0498 10.1236 33.1299 5.34552 29.5464 3.3025C25.6974 1.09472 22.6116 2.87413 22.6116 7.28969C22.6116 7.45445 22.6116 7.58626 22.6116 7.75102C19.8244 6.46589 17.6013 7.91578 17.6013 11.211C17.6013 14.7368 20.0899 18.9876 23.1425 20.7341L46.2695 33.9808C48.559 35.2988 50.4171 34.2444 50.4171 31.6082C50.4835 29.005 48.6253 25.7757 46.3027 24.4576Z" fill="#D4ECFF"/>
<path d="M22.6467 7.7511C22.6467 7.58634 22.6467 7.45454 22.6467 7.28978C22.6467 7.28978 22.6467 7.28978 22.6467 7.25682C21.0872 6.66369 19.7599 6.9273 18.9304 7.88291C19.8263 7.15797 21.1535 7.05911 22.6467 7.7511Z" fill="white"/>
<path d="M46.6687 24.1281C46.171 23.8316 45.7064 23.6668 45.2419 23.6009C44.5783 20.1409 42.1561 16.4833 39.2694 14.8027C38.4067 14.3084 37.5772 14.0448 36.814 13.9789C36.4158 9.79402 33.4959 5.01599 29.9124 2.97297C27.5234 1.58899 25.433 1.7867 24.1721 3.17068C25.433 2.08327 27.3907 2.05032 29.5806 3.30249C33.1309 5.34551 36.084 10.1235 36.4822 14.3084C37.2453 14.3743 38.0749 14.638 38.9376 15.1322C41.8243 16.7798 44.2465 20.4705 44.9101 23.9304C45.3415 23.9963 45.8392 24.1611 46.3369 24.4576C48.6264 25.7757 50.4845 29.005 50.4845 31.6412C50.4845 32.5968 50.2522 33.3217 49.8209 33.8489C50.4513 33.3876 50.8163 32.4979 50.8163 31.3116C50.8163 28.6755 48.9582 25.4462 46.6687 24.1281Z" fill="white"/>
<path d="M22.1471 8.80571L23.8725 9.59655L23.773 7.68534C23.773 7.55353 23.773 7.42172 23.773 7.28992C23.773 5.60937 24.3039 4.35719 25.2329 3.82996C26.162 3.30273 27.4892 3.46749 28.9824 4.32424C32.1677 6.1366 34.9549 10.5851 35.2867 14.4405L35.3863 15.3961L36.3485 15.462C36.9458 15.495 37.6094 15.7256 38.3062 16.121C40.8279 17.5709 43.1174 20.932 43.7146 24.1284L43.8806 24.9192L44.6769 25.051C45.0087 25.1169 45.3405 25.2158 45.7055 25.4464C47.6632 26.5668 49.289 29.3677 49.289 31.6085C49.289 32.4323 49.0568 33.0583 48.6586 33.289C48.2604 33.5197 47.5968 33.4208 46.8668 32.9924L23.7398 19.7458C21.0522 18.197 18.7627 14.3087 18.7627 11.2112C18.7627 9.99198 19.1277 9.06932 19.7581 8.6739C20.0236 8.50914 20.3222 8.44323 20.6872 8.44323C21.1517 8.44323 21.6494 8.57504 22.1471 8.80571Z" fill="#D4ECFF"/>
<path d="M29.1475 27.0608C29.1475 27.2585 29.0148 27.3244 28.8489 27.2256C28.683 27.1267 28.5503 26.8961 28.5503 26.7313C28.5503 26.5336 28.683 26.4677 28.8489 26.5665C29.0148 26.6654 29.1475 26.8961 29.1475 27.0608Z" fill="#D4ECFF"/>
<path d="M31.7369 28.6427C31.7369 28.8404 31.6042 28.9063 31.4383 28.8075C31.2724 28.7086 31.1396 28.478 31.1396 28.3132C31.1396 28.1155 31.2724 28.0496 31.4383 28.1484C31.6042 28.2143 31.7369 28.445 31.7369 28.6427Z" fill="#D4ECFF"/>
<path d="M34.326 30.1913C34.326 30.389 34.1933 30.4549 34.0274 30.3561C33.8615 30.2572 33.7288 30.0265 33.7288 29.8618C33.7288 29.6641 33.8615 29.5982 34.0274 29.697C34.1933 29.7959 34.326 30.0265 34.326 30.1913Z" fill="#D4ECFF"/>
<path d="M36.9464 31.7731C36.9464 31.9708 36.8137 32.0367 36.6478 31.9379C36.4818 31.839 36.3491 31.6083 36.3491 31.4436C36.3491 31.2459 36.4818 31.18 36.6478 31.2788C36.8137 31.3447 36.9464 31.5754 36.9464 31.7731Z" fill="#D4ECFF"/>
<path d="M41.7985 23.145L41.1386 22.7621L41.1386 22.3826C41.3112 22.5575 41.4839 22.728 41.6642 22.8894C41.6757 22.9005 41.6911 22.9093 41.7026 22.9159C41.7601 22.9489 41.8139 22.935 41.833 22.879C41.8522 22.8052 41.8139 22.6984 41.741 22.6343C41.0273 21.984 40.3559 21.2106 39.7612 20.3606L39.7612 20.3517L39.7497 20.3451C39.5118 20.0033 39.2816 19.6481 39.0706 19.286L39.0706 19.2681L39.0514 19.2572C38.7828 18.7951 38.5373 18.3239 38.3186 17.8369C38.3147 17.8302 38.3147 17.8302 38.3109 17.8236C38.307 17.8169 38.307 17.8169 38.3032 17.8102C38.2994 17.8036 38.2955 17.7969 38.2879 17.788L38.284 17.7814C38.284 17.7814 38.284 17.7814 38.2802 17.7792C38.2764 17.7725 38.2687 17.7636 38.2648 17.7614C38.261 17.7592 38.261 17.7548 38.2572 17.7526C38.2533 17.7459 38.2457 17.7415 38.2418 17.7393C38.238 17.7371 38.238 17.7371 38.2341 17.7304C38.2303 17.7282 38.2226 17.7238 38.2188 17.7172C38.215 17.715 38.215 17.715 38.2111 17.7128C38.2035 17.7084 38.1996 17.7062 38.1919 17.7018C38.1881 17.6996 38.1881 17.6996 38.1843 17.6974C38.1804 17.6952 38.1728 17.6952 38.1689 17.693C38.1651 17.6908 38.1651 17.6908 38.1612 17.6931C38.1574 17.6954 38.1536 17.6932 38.1459 17.6932C38.1421 17.691 38.1382 17.6933 38.1344 17.6911C38.1344 17.6911 38.1306 17.6889 38.1306 17.6934C38.1267 17.6956 38.1267 17.6956 38.1229 17.6979C38.119 17.7002 38.1152 17.698 38.1152 17.7024C38.1114 17.7047 38.1075 17.707 38.1037 17.7092L38.0999 17.7115C36.9028 18.9851 34.9537 19.0373 32.8895 17.8538C32.8819 17.8494 32.8742 17.845 32.8665 17.8451C32.8588 17.8407 32.8512 17.8318 32.8435 17.8274C30.7793 16.6439 28.8302 14.3566 27.6332 11.7102C27.6332 11.7057 27.6293 11.7035 27.6293 11.7035C27.6255 11.6969 27.6216 11.6902 27.6178 11.6836C27.614 11.6769 27.6101 11.6747 27.6101 11.6702C27.6063 11.6636 27.6063 11.6636 27.6025 11.6569C27.6025 11.6569 27.5986 11.6547 27.5986 11.6502C27.5948 11.6436 27.591 11.6414 27.5871 11.6347C27.5833 11.628 27.5794 11.6258 27.5718 11.617C27.5679 11.6148 27.5641 11.6081 27.5641 11.6081C27.5603 11.6059 27.5526 11.597 27.5487 11.5948C27.5449 11.5926 27.5449 11.5926 27.5411 11.5904C27.5334 11.586 27.5296 11.5838 27.5219 11.5794C27.5181 11.5772 27.5181 11.5772 27.5142 11.575C27.5065 11.5706 27.5027 11.5684 27.495 11.5685C27.4912 11.5663 27.4912 11.5663 27.4874 11.5686C27.4797 11.5642 27.4758 11.5664 27.472 11.5642C27.4682 11.562 27.4682 11.5665 27.4643 11.5643C27.4567 11.5644 27.4528 11.5666 27.449 11.5644C27.449 11.5644 27.449 11.5644 27.4452 11.5622L27.4413 11.5645C27.4375 11.5668 27.4336 11.569 27.426 11.5691C27.4221 11.5714 27.4221 11.5714 27.4183 11.5736C27.4145 11.5759 27.4145 11.5759 27.4106 11.5782C27.1919 11.8099 26.9464 12.004 26.6778 12.1581L26.6586 12.1471L26.6586 12.1649C26.4438 12.2828 26.2174 12.3763 25.9795 12.4453L25.968 12.4387L25.968 12.4476C25.3733 12.6245 24.7019 12.628 23.9882 12.4599C23.9153 12.4404 23.877 12.5077 23.8961 12.5991C23.9115 12.6748 23.9652 12.7503 24.0266 12.7855C24.0381 12.7921 24.0535 12.8009 24.065 12.803C24.2415 12.8462 24.4179 12.8759 24.5906 12.899L24.5906 13.2785L23.9307 12.9001C23.8578 12.8583 23.7964 12.8946 23.7964 12.9794C23.7964 13.0642 23.8578 13.1709 23.9307 13.2127L32.8396 18.2761C32.8473 18.2805 32.855 18.2849 32.8627 18.2849C32.8703 18.2893 32.878 18.2981 32.8857 18.3025L41.7947 23.4553C41.8676 23.4971 41.929 23.4609 41.929 23.376C41.9328 23.2934 41.8714 23.1868 41.7985 23.145ZM40.87 22.6081L40.448 22.3662L40.448 21.625C40.5861 21.789 40.728 21.9508 40.87 22.1036L40.87 22.6081ZM40.1794 21.2969L40.1794 22.2077L39.7573 21.9657L39.7573 20.7468C39.8955 20.9332 40.0374 21.1217 40.1794 21.2969ZM39.4888 20.3652L39.4888 21.8073L39.0667 21.5653L39.0667 19.7169C39.2048 19.9389 39.3468 20.1543 39.4888 20.3652ZM37.6855 18.541C37.8351 18.4482 37.9732 18.3398 38.1075 18.2204L38.1075 21.0108L37.6855 20.7688L37.6855 18.541ZM38.3761 18.4771C38.5104 18.7416 38.6524 19.006 38.7982 19.2638L38.7982 21.4113L38.3761 21.1693L38.3761 18.4771ZM37.4169 18.695L37.4169 20.6149L36.9949 20.3729L36.9949 18.8683C37.1407 18.8224 37.2826 18.7609 37.4169 18.695ZM29.6897 15.4119C30.2422 16.0725 30.8369 16.6724 31.4546 17.1784L29.6897 16.1754L29.6897 15.4119ZM29.4211 16.0214L28.999 15.7794L28.999 14.5159C29.1372 14.7067 29.2753 14.893 29.4211 15.0793L29.4211 16.0214ZM36.3043 19.0259C36.45 19.0113 36.5882 18.9833 36.7263 18.9464L36.7263 20.2099L36.3043 19.968L36.3043 19.0259ZM36.0357 19.814L34.2708 18.7931C34.8885 18.9955 35.4832 19.0775 36.0357 19.0505L36.0357 19.814ZM28.7305 14.1297L28.7305 15.6254L28.3084 15.3834L28.3084 13.4636C28.4466 13.6946 28.5847 13.9166 28.7305 14.1297ZM26.9272 12.4573C27.073 12.3668 27.2149 12.2696 27.3492 12.1546L27.3492 14.8424L26.9272 14.6004L26.9272 12.4573ZM27.6178 12.2059C27.7521 12.4794 27.8902 12.7461 28.0399 13.0105L28.0399 15.2339L27.6178 14.9919L27.6178 12.2059ZM26.6586 14.4508L26.2366 14.2089L26.2366 12.7668C26.3824 12.7209 26.5243 12.6683 26.6586 12.6025L26.6586 14.4508ZM25.968 14.0593L25.546 13.8173L25.546 12.9065C25.6918 12.8919 25.8299 12.8684 25.968 12.836L25.968 14.0593ZM24.8553 12.9213C24.9973 12.9313 25.1393 12.9323 25.2774 12.9267L25.2774 13.6634L24.8553 13.4214L24.8553 12.9213Z" fill="#14225B"/>
<path d="M24.5356 15.1556L24.5356 14.7L26.6052 15.8866L26.6052 16.3422L25.7774 15.8676L25.7774 18.3115L25.3635 18.0741L25.3635 15.6302L24.5356 15.1556Z" fill="#14225B"/>
<path d="M26.874 18.6669C26.6941 18.351 26.6041 18.0385 26.6041 17.7292C26.6041 17.4199 26.6941 17.2119 26.874 17.1052C27.0564 16.9972 27.2783 17.0181 27.5399 17.1681C27.8014 17.318 28.0222 17.5509 28.2021 17.8667C28.3845 18.1812 28.4757 18.493 28.4757 18.8023L28.4757 18.9473L26.982 18.0909C27.0108 18.2813 27.0768 18.4559 27.18 18.6144C27.2831 18.773 27.4031 18.8915 27.5399 18.9699C27.7078 19.0662 27.8422 19.095 27.943 19.0561C27.9886 19.0436 28.0282 19.0179 28.0618 18.9792L28.4577 19.2062C28.4073 19.3126 28.3437 19.3908 28.2669 19.4406C28.0702 19.5543 27.8278 19.5285 27.5399 19.3634C27.2783 19.2135 27.0564 18.9813 26.874 18.6669ZM27 17.7491L28.0798 18.3682C28.0582 18.2177 28.0006 18.0674 27.907 17.9171C27.8158 17.7681 27.6934 17.6496 27.5399 17.5616C27.4103 17.4873 27.2951 17.4668 27.1944 17.5002C27.0936 17.5307 27.0288 17.6137 27 17.7491Z" fill="#14225B"/>
<path d="M28.6019 19.931L29.1058 18.1074L29.9157 18.5717L30.4195 20.9731L30.0236 20.7461L29.6277 18.8001L29.3938 18.666L28.9978 20.158L28.6019 19.931Z" fill="#14225B"/>
<path d="M30.8142 20.926C30.6342 20.6102 30.5443 20.2977 30.5443 19.9884C30.5443 19.6791 30.6342 19.4711 30.8142 19.3644C30.9966 19.2563 31.2185 19.2773 31.4801 19.4273C31.7416 19.5772 31.9623 19.8101 32.1423 20.1259C32.3247 20.4403 32.4159 20.7522 32.4159 21.0615L32.4159 21.2065L30.9222 20.35C30.951 20.5405 31.017 20.715 31.1201 20.8736C31.2233 21.0322 31.3433 21.1507 31.4801 21.2291C31.648 21.3254 31.7824 21.3541 31.8832 21.3153C31.9288 21.3027 31.9683 21.2771 32.0019 21.2384L32.3979 21.4654C32.3475 21.5718 32.2839 21.65 32.2071 21.6998C32.0103 21.8134 31.768 21.7877 31.4801 21.6226C31.2185 21.4727 30.9966 21.2405 30.8142 20.926ZM30.9402 20.0083L32.0199 20.6274C31.9983 20.4769 31.9408 20.3265 31.8472 20.1762C31.756 20.0273 31.6336 19.9088 31.4801 19.8208C31.3505 19.7465 31.2353 19.726 31.1345 19.7593C31.0337 19.7899 30.969 19.8729 30.9402 20.0083Z" fill="#14225B"/>
<path d="M32.7401 22.3036L32.7401 20.1911L33.2799 20.5007L33.7658 22.0426L33.8378 22.0839L34.3237 21.0991L34.8636 21.4087L34.8636 23.5212L34.4857 23.3045L34.4857 21.8133L34.4893 21.774L34.4713 21.7637L34.0178 22.6635L33.5859 22.4158L33.1324 20.996L33.1144 20.9857L33.118 21.0291L33.118 22.5203L32.7401 22.3036Z" fill="#14225B"/>
<path d="M35.4609 23.5903C35.2786 23.2731 35.1874 22.9599 35.1874 22.6506C35.1874 22.3413 35.2786 22.134 35.4609 22.0287C35.6457 21.922 35.8725 21.9457 36.1412 22.0998C36.4099 22.2539 36.6355 22.4895 36.8179 22.8067C37.0026 23.1225 37.095 23.4351 37.095 23.7444C37.095 24.0536 37.0026 24.2616 36.8179 24.3683C36.6355 24.4736 36.4099 24.4493 36.1412 24.2952C35.8725 24.1411 35.6457 23.9061 35.4609 23.5903ZM35.7381 22.4569C35.6349 22.5247 35.5833 22.665 35.5833 22.8776C35.5833 23.0902 35.6349 23.291 35.7381 23.48C35.8413 23.6662 35.9756 23.8067 36.1412 23.9017C36.3068 23.9966 36.4411 24.0101 36.5443 23.9423C36.6475 23.8716 36.6991 23.73 36.6991 23.5174C36.6991 23.3047 36.6475 23.1053 36.5443 22.9191C36.4411 22.7302 36.3068 22.5882 36.1412 22.4933C35.9756 22.3984 35.8413 22.3862 35.7381 22.4569Z" fill="#14225B"/>
<path d="M37.5731 24.8055C37.398 24.498 37.3104 24.1854 37.3104 23.8679C37.3104 23.5503 37.398 23.3382 37.5731 23.2315C37.7483 23.1248 37.9666 23.1465 38.2282 23.2964C38.5209 23.4643 38.7597 23.7296 38.9444 24.0923C39.0236 24.2565 39.0788 24.4151 39.11 24.5683L38.7141 24.3413C38.6973 24.2627 38.6661 24.1826 38.6205 24.1013C38.5269 23.9233 38.3962 23.7862 38.2282 23.6899C38.0794 23.6046 37.9546 23.598 37.8539 23.67C37.7555 23.7434 37.7063 23.885 37.7063 24.0949C37.7063 24.3047 37.7555 24.5028 37.8539 24.689C37.9546 24.8765 38.0794 25.013 38.2282 25.0983C38.401 25.1973 38.5365 25.2129 38.6349 25.1451C38.6781 25.1146 38.7105 25.071 38.7321 25.0144L39.11 25.2311C39.0788 25.354 39.0236 25.4508 38.9444 25.5214C38.7621 25.6709 38.5233 25.661 38.2282 25.4918C37.9666 25.3418 37.7483 25.1131 37.5731 24.8055Z" fill="#14225B"/>
<path d="M39.2349 23.5837L39.2349 23.128L41.3044 24.3146L41.3044 24.7703L40.4766 24.2956L40.4766 26.7395L40.0627 26.5022L40.0627 24.0583L39.2349 23.5837Z" fill="#14225B"/>
<defs>
<clipPath id="clip0_811_11067">
<rect width="116" height="115.92" fill="white" transform="translate(0 28.08)"/>
</clipPath>
</defs>
</svg>
