<svg width="150" height="144" viewBox="0 0 150 144" fill="none" xmlns="http://www.w3.org/2000/svg">
<path d="M136.373 79.1153C135.949 79.1153 135.525 79.0092 135.154 78.797L127.942 74.4996L128.367 73.7569L135.578 78.0542C136.055 78.3195 136.638 78.3195 137.115 78.0542L148.834 71.2103C149.046 71.1042 149.152 70.892 149.152 70.6798C149.152 70.4676 149.046 70.2553 148.834 70.1492L133.192 61.8198L133.616 61.0771L149.258 69.4595C149.735 69.7248 150 70.1492 150 70.6798C150 71.2103 149.735 71.6878 149.311 71.9531L137.54 78.797C137.168 79.0092 136.744 79.1153 136.373 79.1153Z" fill="#B2D3EA"/>
<path d="M107.215 144C106.685 144 106.208 143.894 105.731 143.629L77.045 127.606C76.6208 127.394 76.3557 126.917 76.3557 126.439C76.3557 125.962 76.6208 125.537 77.045 125.272L90.0358 117.951C90.2479 117.845 90.2479 117.632 90.2479 117.579C90.2479 117.526 90.2479 117.314 90.0358 117.208L75.5604 108.878C75.1362 108.666 74.9241 108.242 74.9241 107.764C74.9241 107.287 75.1362 106.862 75.5073 106.65L81.3929 102.883L81.8701 103.573L75.9845 107.34C75.7724 107.446 75.7724 107.658 75.7724 107.711C75.7724 107.764 75.8255 107.977 75.9845 108.083L90.46 116.412C90.8841 116.624 91.0962 117.049 91.0962 117.526C91.0962 118.004 90.8311 118.428 90.46 118.64L77.4162 126.015C77.2041 126.121 77.1511 126.333 77.1511 126.439C77.1511 126.545 77.1511 126.705 77.4162 126.864L106.155 142.886C106.844 143.257 107.693 143.257 108.329 142.833L119.305 136.095C119.411 136.042 119.411 135.936 119.411 135.936C119.411 135.883 119.411 135.83 119.305 135.777L111.404 130.949L111.828 130.206L119.729 135.034C120.047 135.246 120.259 135.564 120.259 135.936C120.259 136.307 120.047 136.626 119.782 136.838L108.859 143.576C108.329 143.841 107.799 144 107.215 144Z" fill="#B2D3EA"/>
<path d="M119.674 79.5398L105.835 71.5287C104.986 71.0512 105.092 70.2023 106.047 69.6187L119.409 61.8729C120.416 61.2893 121.901 61.2362 122.749 61.7137L136.588 69.7248C137.437 70.2023 137.331 71.0512 136.376 71.6348L123.014 79.3806C122.007 79.9642 120.522 80.0172 119.674 79.5398Z" fill="#B2D3EA"/>
<path d="M141.204 63.6772V57.6821H127.789L123.176 54.9764C122.116 54.3398 120.26 54.4459 119.041 55.1356L114.693 57.6291H101.278V63.7833C101.225 64.2077 101.49 64.5791 101.967 64.8974L119.306 74.9246C120.366 75.5612 122.222 75.4551 123.442 74.7654L140.197 65.1097C140.886 64.6852 141.204 64.1547 141.204 63.6772Z" fill="#396CAA"/>
<path d="M121.218 54.604C120.423 54.604 119.627 54.8163 118.991 55.1876L114.643 57.6812H101.228V63.8354C101.175 64.2598 101.44 64.6312 101.917 64.9495L119.256 74.9767C119.786 75.295 120.476 75.4011 121.165 75.4011V54.604H121.218Z" fill="#396CAA"/>
<path d="M102.71 57.682H101.172V63.8363C101.119 64.2607 101.384 64.6321 101.861 64.9504L102.657 65.4279V57.682H102.71Z" fill="#5793CE"/>
<path d="M119.52 75.0829C120.421 75.4543 121.747 75.4543 122.861 75.0298V68.0268H119.52V75.0829Z" fill="#5793CE"/>
<path d="M119.255 68.8231L101.916 58.796C100.856 58.1594 100.962 57.0983 102.235 56.4086L118.99 46.7528C120.21 46.0631 122.065 45.957 123.126 46.5936L140.464 56.6208C141.525 57.2574 141.419 58.3185 140.146 59.0082L123.391 68.664C122.171 69.3537 120.316 69.4067 119.255 68.8231Z" fill="#D4ECFF"/>
<path d="M119.572 67.0196L105.043 58.6371C104.142 58.1066 104.248 57.2047 105.308 56.6211L119.36 48.5039C120.367 47.9203 121.958 47.8673 122.859 48.3447L137.388 56.7272C138.289 57.2577 138.183 58.1597 137.123 58.7433L123.071 66.8605C122.011 67.4441 120.473 67.5502 119.572 67.0196Z" fill="#5793CE"/>
<path d="M134.793 65.2686C134.793 65.6931 134.475 66.2767 134.103 66.4889C133.732 66.7011 133.414 66.5419 133.414 66.0644C133.414 65.64 133.732 65.0564 134.103 64.8442C134.475 64.632 134.793 64.7912 134.793 65.2686Z" fill="#D4ECFF"/>
<path d="M137.073 63.943C137.073 64.3674 136.755 64.951 136.383 65.1633C136.012 65.3755 135.694 65.2163 135.694 64.7388C135.694 64.3144 136.012 63.7308 136.383 63.5186C136.755 63.3064 137.073 63.5186 137.073 63.943Z" fill="#D4ECFF"/>
<path d="M139.304 62.669C139.304 63.0935 138.986 63.677 138.614 63.8893C138.243 64.1015 137.925 63.9423 137.925 63.4648C137.925 63.0404 138.243 62.4568 138.614 62.2446C138.986 62.0324 139.304 62.1915 139.304 62.669Z" fill="#D4ECFF"/>
<path d="M141.204 54.0731V48.0781H127.789L123.176 45.3723C122.116 44.7357 120.26 44.8418 119.041 45.5315L114.693 48.025H101.278V54.1793C101.225 54.6037 101.49 54.9751 101.967 55.2934L119.306 65.3205C120.366 65.9572 122.222 65.8511 123.442 65.1614L140.197 55.5056C140.886 55.1342 141.204 54.6037 141.204 54.0731Z" fill="#396CAA"/>
<path d="M121.218 45.0009C120.423 45.0009 119.627 45.2131 118.991 45.5845L114.643 48.078H101.228V54.2322C101.175 54.6567 101.44 55.028 101.917 55.3464L119.256 65.3735C119.786 65.6918 120.476 65.7979 121.165 65.7979V45.0009H121.218Z" fill="#396CAA"/>
<path d="M102.71 48.0789H101.172V54.2331C101.119 54.6575 101.384 55.0289 101.861 55.3472L102.657 55.8247V48.0789H102.71Z" fill="#5793CE"/>
<path d="M119.52 65.5337C120.421 65.905 121.747 65.905 122.861 65.4806V58.4775H119.52V65.5337Z" fill="#5793CE"/>
<path d="M119.255 59.2199L101.916 49.1928C100.856 48.5561 100.962 47.495 102.235 46.8053L118.99 37.1496C120.21 36.4599 122.065 36.3538 123.126 36.9904L140.464 47.0176C141.525 47.6542 141.419 48.7153 140.146 49.405L123.391 59.0607C122.171 59.8035 120.316 59.8566 119.255 59.2199Z" fill="#D4ECFF"/>
<path d="M119.572 57.4156L105.043 49.0331C104.142 48.5026 104.248 47.6007 105.308 47.0171L119.36 38.8999C120.367 38.3163 121.958 38.2632 122.859 38.7407L137.388 47.1232C138.289 47.6537 138.183 48.5556 137.123 49.1392L123.071 57.2564C122.011 57.8931 120.473 57.9461 119.572 57.4156Z" fill="#5793CE"/>
<path d="M134.793 55.6654C134.793 56.0898 134.475 56.6734 134.103 56.8856C133.732 57.0978 133.414 56.9386 133.414 56.4612C133.414 56.0367 133.732 55.4532 134.103 55.2409C134.475 55.0287 134.793 55.2409 134.793 55.6654Z" fill="#D4ECFF"/>
<path d="M137.073 54.3922C137.073 54.8166 136.755 55.4002 136.383 55.6124C136.012 55.8247 135.694 55.6655 135.694 55.188C135.694 54.7636 136.012 54.18 136.383 53.9678C136.755 53.7556 137.073 53.9147 137.073 54.3922Z" fill="#D4ECFF"/>
<path d="M139.304 53.0658C139.304 53.4902 138.986 54.0738 138.614 54.2861C138.243 54.4983 137.925 54.3391 137.925 53.8616C137.925 53.4372 138.243 52.8536 138.614 52.6414C138.986 52.4292 139.304 52.6414 139.304 53.0658Z" fill="#D4ECFF"/>
<path d="M141.204 44.525V38.5299H127.789L123.176 35.8242C122.116 35.1875 120.26 35.2936 119.041 35.9833L114.693 38.4769H101.278V44.6311C101.225 45.0555 101.49 45.4269 101.967 45.7452L119.306 55.7724C120.366 56.409 122.222 56.3029 123.442 55.6132L140.197 45.9574C140.886 45.533 141.204 45.0025 141.204 44.525Z" fill="#396CAA"/>
<path d="M121.218 35.4527C120.423 35.4527 119.627 35.6649 118.991 36.0363L114.643 38.5298H101.228V44.684C101.175 45.1084 101.44 45.4798 101.917 45.7981L119.256 55.8253C119.786 56.1436 120.476 56.2497 121.165 56.2497V35.4527H121.218Z" fill="#396CAA"/>
<path d="M102.71 38.5298H101.172V44.684C101.119 45.1084 101.384 45.4798 101.861 45.7981L102.657 46.2756V38.5298H102.71Z" fill="#5793CE"/>
<path d="M119.52 55.9306C120.421 56.302 121.747 56.302 122.861 55.8776V48.8745H119.52V55.9306Z" fill="#5793CE"/>
<path d="M119.255 49.6709L101.916 39.6438C100.856 39.0071 100.962 37.9461 102.235 37.2564L118.99 27.6006C120.21 26.9109 122.065 26.8048 123.126 27.4414L140.464 37.4686C141.525 38.1052 141.419 39.1663 140.146 39.856L123.391 49.5118C122.171 50.2015 120.316 50.3076 119.255 49.6709Z" fill="#D4ECFF"/>
<path d="M140.146 38.6358L123.391 48.2915C122.171 48.9812 120.315 49.0874 119.255 48.4507L101.916 38.4766C101.704 38.3175 101.492 38.1583 101.386 37.9991C101.015 38.5827 101.174 39.2194 101.916 39.6438L119.255 49.6709C120.315 50.3076 122.171 50.2015 123.391 49.5118L140.146 39.856C141.101 39.3255 141.366 38.5297 140.995 37.9461C140.835 38.1583 140.57 38.4236 140.146 38.6358Z" fill="white"/>
<path d="M134.793 46.1164C134.793 46.5408 134.475 47.1244 134.103 47.3366C133.732 47.5489 133.414 47.3897 133.414 46.9122C133.414 46.4878 133.732 45.9042 134.103 45.692C134.475 45.4798 134.793 45.6389 134.793 46.1164Z" fill="#D4ECFF"/>
<path d="M137.073 44.7908C137.073 45.2152 136.755 45.7988 136.383 46.011C136.012 46.2232 135.694 46.0641 135.694 45.5866C135.694 45.1622 136.012 44.5786 136.383 44.3664C136.755 44.1542 137.073 44.3664 137.073 44.7908Z" fill="#D4ECFF"/>
<path d="M139.304 43.5169C139.304 43.9413 138.986 44.5249 138.614 44.7371C138.243 44.9493 137.925 44.7902 137.925 44.3127C137.925 43.8882 138.243 43.3047 138.614 43.0924C138.986 42.8802 139.304 43.0394 139.304 43.5169Z" fill="#D4ECFF"/>
<path d="M120.309 43.4622L112.197 38.7935C111.72 38.5282 111.773 37.9977 112.356 37.6794L120.203 33.1698C120.787 32.8515 121.635 32.7984 122.165 33.0637L130.278 37.7324C130.755 37.9977 130.702 38.5282 130.119 38.8466L122.271 43.3561C121.635 43.7275 120.787 43.7275 120.309 43.4622Z" fill="#5793CE"/>
<path d="M121.055 39.5367L119.941 38.9001C119.888 38.847 119.888 38.794 119.941 38.7409L121.002 38.1043C121.108 38.0512 121.214 38.0512 121.267 38.1043L122.38 38.7409C122.433 38.794 122.433 38.847 122.38 38.9001L121.32 39.5367C121.267 39.5898 121.108 39.5898 121.055 39.5367Z" fill="#D4ECFF"/>
<path d="M112.147 38.7943C112.2 38.7943 112.253 38.7412 112.306 38.7412L120.154 34.2316C120.737 33.9133 121.585 33.8603 122.116 34.1255L130.228 38.7943C130.706 38.4759 130.706 37.9985 130.228 37.7332L122.116 33.0645C121.639 32.7992 120.737 32.7992 120.154 33.1706L112.306 37.6801C111.723 37.9985 111.67 38.4759 112.147 38.7943Z" fill="#396CAA"/>
<path d="M88.4439 108.241L58.4856 91.1574C57.3721 90.5208 57.5312 89.4066 58.8037 88.6639L76.0364 78.6898C77.3089 77.947 79.2178 77.894 80.3313 78.5306L110.29 95.6139C111.403 96.2506 111.244 97.3647 109.971 98.1074L92.7388 108.082C91.4662 108.824 89.5574 108.877 88.4439 108.241Z" fill="#B2D3EA"/>
<path d="M112.941 89.9377V19.9599L85.157 12.6915L80.0137 9.72052C78.8472 9.03082 76.7792 9.13693 75.4537 9.93273L70.6815 12.6915H55.835L60.2359 80.2289C60.1829 80.7064 60.448 81.1308 61.0313 81.4491L88.7625 102.405C89.9291 103.095 91.997 102.989 93.3226 102.193L111.828 91.5293C112.57 91.0518 112.941 90.4683 112.941 89.9377Z" fill="#396CAA"/>
<path d="M77.8923 9.29587C77.0439 9.29587 76.1425 9.50808 75.4532 9.93251L70.6811 12.6913H55.8345V82.8283C55.7815 83.3058 56.0466 83.7302 56.6299 84.0485L88.7621 102.352C89.3454 102.67 90.0877 102.83 90.883 102.83L91.2012 32.2681L77.8923 9.29587Z" fill="#D4ECFF"/>
<path d="M89.0293 102.511C90.0367 102.936 91.5214 102.936 92.6879 102.458V31.4193H89.0293V102.511Z" fill="#5793CE"/>
<path d="M88.7583 32.2679L56.6261 13.9644C55.4595 13.2747 55.6186 12.1075 56.9442 11.3117L75.4494 0.647885C76.828 -0.147921 78.8429 -0.200971 80.0094 0.435673L112.142 18.7392C113.308 19.4289 113.149 20.5961 111.824 21.3919L93.3183 32.0557C91.9397 32.8515 89.9248 32.9576 88.7583 32.2679Z" fill="#D4ECFF"/>
<path d="M111.83 20.1191L93.3246 30.7829C91.946 31.5787 89.9311 31.6317 88.7646 30.9951L56.6323 12.6915C56.3672 12.5324 56.1551 12.3732 56.0491 12.161C55.6249 12.7977 55.837 13.5404 56.6323 13.9648L88.7646 32.2684C89.9311 32.9581 91.999 32.8519 93.3246 32.0561L111.83 21.3924C112.89 20.8088 113.208 19.9069 112.731 19.2702C112.519 19.5885 112.254 19.8538 111.83 20.1191Z" fill="#FAFDFF"/>
<path d="M96.9275 46.1152L109.07 39.1652C109.759 38.7938 110.289 37.7327 110.289 36.7778V32.4274C110.289 31.5255 109.759 31.101 109.07 31.4724L96.9275 38.4755C96.2382 38.8469 95.708 39.9079 95.708 40.8629V45.2133C95.708 46.1152 96.2382 46.5397 96.9275 46.1152Z" fill="#173D7A"/>
<path d="M109.709 31.3663C109.921 31.5255 110.027 31.8438 110.027 32.2682V36.6186C110.027 37.5205 109.497 38.5816 108.808 39.006L96.6653 45.9561C96.4532 46.0622 96.2411 46.1152 96.082 46.0622C96.2941 46.2744 96.6123 46.3274 97.0365 46.1152L109.179 39.1652C109.868 38.7938 110.398 37.7327 110.398 36.7778V32.4274C110.345 31.7907 110.08 31.4194 109.709 31.3663Z" fill="white"/>
<path d="M100.583 41.3933L101.697 40.7567C101.856 40.6506 101.963 40.4384 101.963 40.2261V39.059C101.963 38.8467 101.856 38.7937 101.697 38.8467L100.583 39.4834C100.424 39.5895 100.318 39.8017 100.318 40.0139V41.1811C100.318 41.3933 100.424 41.4994 100.583 41.3933Z" fill="#396CAA"/>
<path d="M104.297 39.2184L105.411 38.5818C105.57 38.4757 105.676 38.2635 105.676 38.0512V36.8841C105.676 36.6718 105.57 36.6188 105.411 36.6718L104.297 37.3085C104.137 37.4146 104.031 37.6268 104.031 37.839V39.0062C104.031 39.2184 104.19 39.3245 104.297 39.2184Z" fill="white"/>
<path d="M96.9275 77.576L109.07 70.6259C109.759 70.2545 110.289 69.1935 110.289 68.2385V63.8881C110.289 62.9862 109.759 62.5618 109.07 62.9331L96.9275 69.8832C96.2382 70.2545 95.708 71.3156 95.708 72.2706V76.621C95.708 77.5229 96.2382 77.9473 96.9275 77.576Z" fill="#173D7A"/>
<path d="M109.709 62.8261C109.921 62.9852 110.027 63.3036 110.027 63.728V68.0784C110.027 68.9803 109.497 70.0414 108.808 70.4658L96.6653 77.4158C96.4532 77.522 96.2411 77.575 96.082 77.522C96.2941 77.7342 96.6123 77.7872 97.0365 77.575L109.179 70.625C109.868 70.2536 110.398 69.1925 110.398 68.2376V63.8872C110.345 63.2505 110.08 62.8791 109.709 62.8261Z" fill="white"/>
<path d="M100.583 72.8531L101.697 72.2165C101.856 72.1104 101.963 71.8982 101.963 71.6859V70.5188C101.963 70.3065 101.856 70.2535 101.697 70.3066L100.583 70.9432C100.424 71.0493 100.318 71.2615 100.318 71.4737V72.6409C100.318 72.8001 100.424 72.9062 100.583 72.8531Z" fill="#396CAA"/>
<path d="M104.297 70.6782L105.411 70.0416C105.57 69.9355 105.676 69.7232 105.676 69.511V68.3438C105.676 68.1316 105.57 68.0786 105.411 68.1316L104.297 68.7683C104.137 68.8744 104.031 69.0866 104.031 69.2988V70.466C104.031 70.6782 104.19 70.7843 104.297 70.6782Z" fill="#396CAA"/>
<path d="M96.9275 93.2811L109.07 86.3311C109.759 85.9597 110.289 84.8986 110.289 83.9437V79.5933C110.289 78.6914 109.759 78.2669 109.07 78.6383L96.9275 85.5883C96.2382 85.9597 95.708 87.0208 95.708 87.9758V92.3262C95.708 93.2281 96.2382 93.6525 96.9275 93.2811Z" fill="#173D7A"/>
<path d="M109.706 78.5323C109.918 78.6914 110.024 79.0098 110.024 79.4342V83.7846C110.024 84.6865 109.494 85.7476 108.805 86.172L96.6091 93.1221C96.397 93.2282 96.1849 93.2812 96.0259 93.2282C96.238 93.4404 96.5561 93.4934 96.9803 93.2812L109.123 86.3312C109.812 85.9598 110.342 84.8987 110.342 83.9438V79.5934C110.342 78.9567 110.077 78.5853 109.706 78.5323Z" fill="white"/>
<path d="M100.583 88.5592L101.697 87.9225C101.856 87.8164 101.963 87.6042 101.963 87.392V86.2248C101.963 86.0126 101.856 85.9596 101.697 86.0126L100.583 86.6492C100.424 86.7554 100.318 86.9676 100.318 87.1798V88.347C100.318 88.5592 100.424 88.6122 100.583 88.5592Z" fill="white"/>
<path d="M104.297 86.3843L105.411 85.7476C105.57 85.6415 105.676 85.4293 105.676 85.2171V84.0499C105.676 83.8377 105.57 83.7846 105.411 83.8377L104.297 84.4743C104.137 84.5804 104.031 84.7926 104.031 85.0049V86.172C104.031 86.3843 104.19 86.4904 104.297 86.3843Z" fill="#396CAA"/>
<path d="M96.9275 61.8195L109.07 54.8695C109.759 54.4981 110.289 53.437 110.289 52.4821V48.1317C110.289 47.2298 109.759 46.8053 109.07 47.1767L96.9275 54.1267C96.2382 54.4981 95.708 55.5592 95.708 56.5141V60.8646C95.708 61.8195 96.2382 62.2439 96.9275 61.8195Z" fill="#173D7A"/>
<path d="M109.709 47.0706C109.921 47.2298 110.027 47.5481 110.027 47.9726V52.323C110.027 53.2249 109.497 54.286 108.808 54.7104L96.6653 61.6604C96.4532 61.7665 96.2411 61.8196 96.082 61.7665C96.2941 61.9787 96.6123 62.0318 97.0365 61.8196L109.179 54.8695C109.868 54.4982 110.398 53.4371 110.398 52.4821V48.1317C110.345 47.5481 110.08 47.1237 109.709 47.0706Z" fill="white"/>
<path d="M100.583 57.0982L101.697 56.4616C101.856 56.3555 101.963 56.1433 101.963 55.9311V54.7639C101.963 54.5517 101.856 54.4986 101.697 54.5517L100.583 55.1883C100.424 55.2944 100.318 55.5066 100.318 55.7188V56.886C100.318 57.0982 100.424 57.2044 100.583 57.0982Z" fill="white"/>
<path d="M104.297 54.9756L105.411 54.3389C105.57 54.2328 105.676 54.0206 105.676 53.8084V52.6412C105.676 52.429 105.57 52.376 105.411 52.429L104.297 53.0657C104.137 53.1718 104.031 53.384 104.031 53.5962V54.7634C104.031 54.9756 104.19 55.0287 104.297 54.9756Z" fill="white"/>
<path d="M86.3746 41.6586L58.3252 25.4773C57.6889 25.1059 57.2117 24.1509 57.2117 23.302V17.9436C57.2117 17.0948 57.7419 16.7234 58.3252 17.0948L86.3746 33.2761C87.0109 33.6475 87.4881 34.6025 87.4881 35.4513V40.8098C87.5411 41.6586 87.0109 42.03 86.3746 41.6586Z" fill="#5793CE"/>
<path opacity="0.4" d="M85.5806 39.8022L59.1218 24.5227C58.8037 24.3636 58.5386 23.833 58.5386 23.4086V19.3765C58.5386 18.9521 58.8037 18.7399 59.1218 18.9521L85.5806 34.2316C85.8987 34.3907 86.1638 34.9213 86.1638 35.3457V39.3778C86.1638 39.8022 85.8987 39.9614 85.5806 39.8022Z" fill="#D4ECFF"/>
<path d="M64.6342 25.6365L60.7105 23.3552C60.3923 23.1961 60.1272 22.7186 60.1272 22.2941C60.1272 21.8697 60.3923 21.7106 60.7105 21.8697L64.6342 24.151C64.9523 24.3102 65.2175 24.7877 65.2175 25.2121C65.2175 25.6365 64.9523 25.8487 64.6342 25.6365Z" fill="#D4ECFF"/>
<path d="M68.0294 26.8568C68.0294 27.2813 67.7641 27.4404 67.3927 27.2282C67.0214 27.016 66.7561 26.5385 66.7561 26.1141C66.7561 25.6896 67.0214 25.5305 67.3927 25.7427C67.7111 25.9549 68.0294 26.4324 68.0294 26.8568Z" fill="#173D7A"/>
<path d="M70.3099 28.1831C70.3099 28.6075 70.0446 28.7667 69.6733 28.5544C69.3019 28.3422 69.0366 27.8647 69.0366 27.4403C69.0366 27.0159 69.3019 26.8567 69.6733 27.0689C69.9916 27.2811 70.3099 27.7586 70.3099 28.1831Z" fill="#173D7A"/>
<path d="M72.5902 29.5093C72.5902 29.9337 72.3249 30.0929 71.9535 29.8807C71.5822 29.6685 71.3169 29.191 71.3169 28.7665C71.3169 28.3421 71.5822 28.1829 71.9535 28.3952C72.2719 28.5543 72.5902 29.0849 72.5902 29.5093Z" fill="#D4ECFF"/>
<path d="M74.8702 30.8364C74.8702 31.2608 74.6049 31.4199 74.2336 31.2077C73.8622 30.9955 73.5969 30.518 73.5969 30.0936C73.5969 29.6692 73.8622 29.51 74.2336 29.7222C74.6049 29.8814 74.8702 30.4119 74.8702 30.8364Z" fill="#173D7A"/>
<path d="M84.4643 37.5198L83.1387 36.7771C82.9266 36.671 82.7676 36.3526 82.7676 36.0874V34.6549C82.7676 34.3897 82.9266 34.2836 83.1387 34.3897L84.4643 35.1324C84.6764 35.2385 84.8355 35.5568 84.8355 35.8221V37.2546C84.8355 37.5198 84.6764 37.679 84.4643 37.5198Z" fill="#173D7A"/>
<path d="M86.3746 51.1028L58.3252 34.9214C57.6889 34.5501 57.2117 33.5951 57.2117 32.7462V27.3878C57.2117 26.539 57.7419 26.1676 58.3252 26.5389L86.3746 42.7203C87.0109 43.0917 87.4881 44.0467 87.4881 44.8955V50.2539C87.5411 51.1028 87.0109 51.4742 86.3746 51.1028Z" fill="#5793CE"/>
<path opacity="0.4" d="M85.5806 49.2463L59.1218 33.9668C58.8037 33.8076 58.5386 33.2771 58.5386 32.8527V28.8206C58.5386 28.3962 58.8037 28.1839 59.1218 28.3961L85.5806 43.6756C85.8987 43.8348 86.1638 44.3653 86.1638 44.7897V48.8218C86.1638 49.1932 85.8987 49.4054 85.5806 49.2463Z" fill="#D4ECFF"/>
<path d="M64.6342 35.0806L60.7105 32.7993C60.3923 32.6401 60.1272 32.1626 60.1272 31.7382C60.1272 31.3138 60.3923 31.1546 60.7105 31.3138L64.6342 33.5951C64.9523 33.7542 65.2175 34.2317 65.2175 34.6562C65.2175 35.0806 64.9523 35.2928 64.6342 35.0806Z" fill="#D4ECFF"/>
<path d="M68.0294 36.3009C68.0294 36.7253 67.7641 36.8845 67.3927 36.6723C67.0214 36.46 66.7561 35.9826 66.7561 35.5581C66.7561 35.1337 67.0214 34.9745 67.3927 35.1868C67.7111 35.399 68.0294 35.8765 68.0294 36.3009Z" fill="white"/>
<path d="M70.3099 37.6271C70.3099 38.0515 70.0446 38.2107 69.6733 37.9985C69.3019 37.7863 69.0366 37.3088 69.0366 36.8844C69.0366 36.4599 69.3019 36.3008 69.6733 36.513C69.9916 36.7252 70.3099 37.2027 70.3099 37.6271Z" fill="#173D7A"/>
<path d="M72.5902 38.9533C72.5902 39.3778 72.3249 39.5369 71.9535 39.3247C71.5822 39.1125 71.3169 38.635 71.3169 38.2106C71.3169 37.7862 71.5822 37.627 71.9535 37.8392C72.2719 37.9984 72.5902 38.5289 72.5902 38.9533Z" fill="#D4ECFF"/>
<path d="M74.8702 40.2266C74.8702 40.651 74.6049 40.8102 74.2336 40.598C73.8622 40.3857 73.5969 39.9083 73.5969 39.4838C73.5969 39.0594 73.8622 38.9002 74.2336 39.1124C74.6049 39.3247 74.8702 39.8552 74.8702 40.2266Z" fill="#173D7A"/>
<path d="M84.4643 46.9638L83.1387 46.2211C82.9266 46.115 82.7676 45.7966 82.7676 45.5314V44.0989C82.7676 43.8337 82.9266 43.7276 83.1387 43.8337L84.4643 44.5764C84.6764 44.6825 84.8355 45.0008 84.8355 45.2661V46.6986C84.8355 46.9638 84.6764 47.123 84.4643 46.9638Z" fill="#173D7A"/>
<path d="M86.3746 60.5461L58.3252 44.3117C57.6889 43.9403 57.2117 42.9853 57.2117 42.1365V36.7781C57.2117 35.9292 57.7419 35.5578 58.3252 35.9292L86.3746 52.1106C87.0109 52.482 87.4881 53.4369 87.4881 54.2858V59.6973C87.5411 60.4931 87.0109 60.9175 86.3746 60.5461Z" fill="#5793CE"/>
<path opacity="0.4" d="M85.5806 58.6887L59.1218 43.4093C58.8037 43.2501 58.5386 42.7196 58.5386 42.2951V38.2631C58.5386 37.8386 58.8037 37.6264 59.1218 37.8386L85.5806 53.1181C85.8987 53.2772 86.1638 53.8078 86.1638 54.2322V58.2643C86.1638 58.6357 85.8987 58.8479 85.5806 58.6887Z" fill="#D4ECFF"/>
<path d="M64.6342 44.5239L60.7105 42.2425C60.3923 42.0834 60.1272 41.6059 60.1272 41.1815C60.1272 40.757 60.3923 40.5979 60.7105 40.757L64.6342 43.0384C64.9523 43.1975 65.2175 43.675 65.2175 44.0994C65.2175 44.5239 64.9523 44.7361 64.6342 44.5239Z" fill="#D4ECFF"/>
<path d="M68.0294 45.7442C68.0294 46.1686 67.7641 46.3278 67.3927 46.1156C67.0214 45.9034 66.7561 45.4259 66.7561 45.0015C66.7561 44.577 67.0214 44.4179 67.3927 44.6301C67.7111 44.8423 68.0294 45.3198 68.0294 45.7442Z" fill="white"/>
<path d="M70.3099 47.0704C70.3099 47.4948 70.0446 47.6539 69.6733 47.4417C69.3019 47.2295 69.0366 46.752 69.0366 46.3276C69.0366 45.9032 69.3019 45.744 69.6733 45.9562C69.9916 46.1154 70.3099 46.6459 70.3099 47.0704Z" fill="#173D7A"/>
<path d="M72.5902 48.3436C72.5902 48.7681 72.3249 48.9272 71.9535 48.715C71.5822 48.5028 71.3169 48.0253 71.3169 47.6009C71.3169 47.1765 71.5822 47.0173 71.9535 47.2295C72.2719 47.4417 72.5902 47.9723 72.5902 48.3436Z" fill="#D4ECFF"/>
<path d="M74.8702 49.6707C74.8702 50.0952 74.6049 50.2543 74.2336 50.0421C73.8622 49.8299 73.5969 49.3524 73.5969 48.928C73.5969 48.5035 73.8622 48.3444 74.2336 48.5566C74.6049 48.7688 74.8702 49.2994 74.8702 49.6707Z" fill="#173D7A"/>
<path d="M84.4643 56.4089L83.1387 55.6661C82.9266 55.56 82.7676 55.2417 82.7676 54.9765V53.544C82.7676 53.2787 82.9266 53.1726 83.1387 53.2787L84.4643 54.0215C84.6764 54.1276 84.8355 54.4459 84.8355 54.7112V56.1436C84.8355 56.4089 84.6764 56.515 84.4643 56.4089Z" fill="#173D7A"/>
<path d="M86.3746 69.9894L58.3252 53.755C57.6889 53.3836 57.2117 52.4286 57.2117 51.5798V46.2214C57.2117 45.3725 57.7419 45.0011 58.3252 45.3725L86.3746 61.5539C87.0109 61.9253 87.4881 62.8802 87.4881 63.7291V69.0875C87.5411 69.9364 87.0109 70.3608 86.3746 69.9894Z" fill="#5793CE"/>
<path opacity="0.4" d="M85.5806 68.0799L59.1218 52.8004C58.8037 52.6412 58.5386 52.1107 58.5386 51.6863V47.6542C58.5386 47.2298 58.8037 47.0176 59.1218 47.2298L85.5806 62.5092C85.8987 62.6684 86.1638 63.1989 86.1638 63.6234V67.6554C86.1638 68.0799 85.8987 68.2921 85.5806 68.0799Z" fill="#D4ECFF"/>
<path d="M64.6342 53.9672L60.7105 51.6858C60.3923 51.5267 60.1272 51.0492 60.1272 50.6248C60.1272 50.2003 60.3923 50.0412 60.7105 50.2003L64.6342 52.4816C64.9523 52.6408 65.2175 53.1183 65.2175 53.5427C65.2175 53.9671 64.9523 54.1794 64.6342 53.9672Z" fill="#D4ECFF"/>
<path d="M68.0294 55.1866C68.0294 55.611 67.7641 55.7702 67.3927 55.5579C67.0214 55.3457 66.7561 54.8683 66.7561 54.4438C66.7561 54.0194 67.0214 53.8602 67.3927 54.0724C67.7111 54.2316 68.0294 54.7621 68.0294 55.1866Z" fill="#173D7A"/>
<path d="M70.3099 56.5137C70.3099 56.9381 70.0446 57.0973 69.6733 56.8851C69.3019 56.6728 69.0366 56.1954 69.0366 55.7709C69.0366 55.3465 69.3019 55.1873 69.6733 55.3996C69.9916 55.5587 70.3099 56.0893 70.3099 56.5137Z" fill="#173D7A"/>
<path d="M72.5902 57.7869C72.5902 58.2114 72.3249 58.3705 71.9535 58.1583C71.5822 57.9461 71.3169 57.4686 71.3169 57.0442C71.3169 56.6198 71.5822 56.4606 71.9535 56.6728C72.2719 56.885 72.5902 57.4156 72.5902 57.7869Z" fill="#D4ECFF"/>
<path d="M74.8702 59.113C74.8702 59.5375 74.6049 59.6966 74.2336 59.4844C73.8622 59.2722 73.5969 58.7947 73.5969 58.3703C73.5969 57.9459 73.8622 57.7867 74.2336 57.9989C74.6049 58.2111 74.8702 58.6886 74.8702 59.113Z" fill="#173D7A"/>
<path d="M84.4643 65.8513L83.1387 65.1085C82.9266 65.0024 82.7676 64.6841 82.7676 64.4188V62.9863C82.7676 62.7211 82.9266 62.615 83.1387 62.7211L84.4643 63.4638C84.6764 63.5699 84.8355 63.8883 84.8355 64.1535V65.586C84.8355 65.8513 84.6764 65.9574 84.4643 65.8513Z" fill="#D4ECFF"/>
<path d="M86.3746 79.4335L58.3252 63.1991C57.6889 62.8277 57.2117 61.8728 57.2117 61.0239V55.6655C57.2117 54.8166 57.7419 54.4453 58.3252 54.8166L86.3746 70.998C87.0109 71.3694 87.4881 72.3243 87.4881 73.1732V78.5316C87.5411 79.3805 87.0109 79.8049 86.3746 79.4335Z" fill="#5793CE"/>
<path opacity="0.4" d="M85.5806 77.5241L59.1218 62.2446C58.8037 62.0854 58.5386 61.5549 58.5386 61.1305V57.0984C58.5386 56.674 58.8037 56.4617 59.1218 56.674L85.5806 71.9534C85.8987 72.1126 86.1638 72.6431 86.1638 73.0675V77.0996C86.1638 77.5241 85.8987 77.7363 85.5806 77.5241Z" fill="#D4ECFF"/>
<path d="M64.6342 63.4113L60.7105 61.13C60.3923 60.9709 60.1272 60.4934 60.1272 60.069C60.1272 59.6445 60.3923 59.4854 60.7105 59.6445L64.6342 61.9258C64.9523 62.085 65.2175 62.5625 65.2175 62.9869C65.2175 63.4113 64.9523 63.5705 64.6342 63.4113Z" fill="#D4ECFF"/>
<path d="M68.0294 64.6317C68.0294 65.0561 67.7641 65.2153 67.3927 65.003C67.0214 64.7908 66.7561 64.3133 66.7561 63.8889C66.7561 63.4645 67.0214 63.3053 67.3927 63.5175C67.7111 63.6767 68.0294 64.2072 68.0294 64.6317Z" fill="#173D7A"/>
<path d="M70.3099 65.9049C70.3099 66.3293 70.0446 66.4885 69.6733 66.2763C69.3019 66.064 69.0366 65.5866 69.0366 65.1621C69.0366 64.7377 69.3019 64.5785 69.6733 64.7908C69.9916 65.003 70.3099 65.5335 70.3099 65.9049Z" fill="white"/>
<path d="M72.5902 67.2311C72.5902 67.6555 72.3249 67.8147 71.9535 67.6025C71.5822 67.3903 71.3169 66.9128 71.3169 66.4884C71.3169 66.0639 71.5822 65.9048 71.9535 66.117C72.2719 66.3292 72.5902 66.8597 72.5902 67.2311Z" fill="#D4ECFF"/>
<path d="M74.8702 68.5573C74.8702 68.9818 74.6049 69.1409 74.2336 68.9287C73.8622 68.7165 73.5969 68.239 73.5969 67.8146C73.5969 67.3901 73.8622 67.231 74.2336 67.4432C74.6049 67.6554 74.8702 68.1329 74.8702 68.5573Z" fill="white"/>
<path d="M84.4643 75.2955L83.1387 74.5527C82.9266 74.4466 82.7676 74.1283 82.7676 73.863V72.4306C82.7676 72.1653 82.9266 72.0592 83.1387 72.1653L84.4643 72.9081C84.6764 73.0142 84.8355 73.3325 84.8355 73.5978V75.0302C84.8355 75.2955 84.6764 75.4016 84.4643 75.2955Z" fill="#D4ECFF"/>
<path d="M86.3746 88.8768L58.3252 72.6423C57.6889 72.271 57.2117 71.316 57.2117 70.4671V65.1087C57.2117 64.2599 57.7419 63.8885 58.3252 64.2599L86.3746 80.4412C87.0109 80.8126 87.4881 81.7676 87.4881 82.6164V87.9749C87.5411 88.8237 87.0109 89.1951 86.3746 88.8768Z" fill="#5793CE"/>
<path opacity="0.4" d="M85.5806 86.9672L59.1218 71.6878C58.8037 71.5286 58.5386 70.9981 58.5386 70.5737V66.5946C58.5386 66.1702 58.8037 65.958 59.1218 66.1702L85.5806 81.4497C85.8987 81.6088 86.1638 82.1394 86.1638 82.5638V86.5959C86.1638 86.9672 85.8987 87.1795 85.5806 86.9672Z" fill="#D4ECFF"/>
<path d="M64.6342 72.8545L60.7105 70.5732C60.3923 70.414 60.1272 69.9366 60.1272 69.5121C60.1272 69.0877 60.3923 68.9285 60.7105 69.0877L64.6342 71.369C64.9523 71.5282 65.2175 72.0057 65.2175 72.4301C65.2175 72.8545 64.9523 73.0137 64.6342 72.8545Z" fill="#D4ECFF"/>
<path d="M68.0294 74.0219C68.0294 74.4463 67.7641 74.6055 67.3927 74.3933C67.0214 74.1811 66.7561 73.7036 66.7561 73.2791C66.7561 72.8547 67.0214 72.6956 67.3927 72.9078C67.7111 73.12 68.0294 73.6505 68.0294 74.0219Z" fill="#173D7A"/>
<path d="M70.3099 75.3481C70.3099 75.7726 70.0446 75.9317 69.6733 75.7195C69.3019 75.5073 69.0366 75.0298 69.0366 74.6054C69.0366 74.181 69.3019 74.0218 69.6733 74.234C69.9916 74.4462 70.3099 74.9768 70.3099 75.3481Z" fill="#173D7A"/>
<path d="M72.5902 76.6743C72.5902 77.0987 72.3249 77.2579 71.9535 77.0456C71.5822 76.8334 71.3169 76.356 71.3169 75.9315C71.3169 75.5071 71.5822 75.3479 71.9535 75.5601C72.2719 75.7724 72.5902 76.2498 72.5902 76.6743Z" fill="#D4ECFF"/>
<path d="M74.8702 78.0014C74.8702 78.4258 74.6049 78.585 74.2336 78.3728C73.8622 78.1605 73.5969 77.6831 73.5969 77.2586C73.5969 76.8342 73.8622 76.675 74.2336 76.8873C74.6049 77.0995 74.8702 77.577 74.8702 78.0014Z" fill="#173D7A"/>
<path d="M84.4643 84.7396L83.1387 83.9968C82.9266 83.8907 82.7676 83.5724 82.7676 83.3071V81.8747C82.7676 81.6094 82.9266 81.5033 83.1387 81.6094L84.4643 82.3521C84.6764 82.4582 84.8355 82.7766 84.8355 83.0418V84.4743C84.8355 84.7396 84.6764 84.8457 84.4643 84.7396Z" fill="#173D7A"/>
<path d="M86.3746 98.2679L58.3252 82.0865C57.6889 81.7151 57.2117 80.7601 57.2117 79.9113V74.5528C57.2117 73.704 57.7419 73.3326 58.3252 73.704L86.3746 89.8854C87.0109 90.2567 87.4881 91.2117 87.4881 92.0606V97.419C87.5411 98.2679 87.0109 98.6392 86.3746 98.2679Z" fill="#5793CE"/>
<path opacity="0.4" d="M85.5806 96.4114L59.1218 81.1319C58.8037 80.9728 58.5386 80.4423 58.5386 80.0178V75.9857C58.5386 75.5613 58.8037 75.3491 59.1218 75.5613L85.5806 90.8408C85.8987 90.9999 86.1638 91.5305 86.1638 91.9549V95.987C86.1638 96.4114 85.8987 96.6236 85.5806 96.4114Z" fill="#D4ECFF"/>
<path d="M64.6342 82.2986L60.7105 80.0173C60.3923 79.8581 60.1272 79.3807 60.1272 78.9562C60.1272 78.5318 60.3923 78.3726 60.7105 78.5318L64.6342 80.8131C64.9523 80.9723 65.2175 81.4497 65.2175 81.8742C65.2175 82.2986 64.9523 82.4578 64.6342 82.2986Z" fill="#D4ECFF"/>
<path d="M68.0294 83.4661C68.0294 83.8905 67.7641 84.0496 67.3927 83.8374C67.0214 83.6252 66.7561 83.1477 66.7561 82.7233C66.7561 82.2989 67.0214 82.1397 67.3927 82.3519C67.7111 82.5641 68.0294 83.0947 68.0294 83.4661Z" fill="white"/>
<path d="M70.3099 84.7923C70.3099 85.2167 70.0446 85.3758 69.6733 85.1636C69.3019 84.9514 69.0366 84.4739 69.0366 84.0495C69.0366 83.6251 69.3019 83.4659 69.6733 83.6781C69.9916 83.8903 70.3099 84.3678 70.3099 84.7923Z" fill="#173D7A"/>
<path d="M72.5902 86.1184C72.5902 86.5429 72.3249 86.702 71.9535 86.4898C71.5822 86.2776 71.3169 85.8001 71.3169 85.3757C71.3169 84.9512 71.5822 84.7921 71.9535 85.0043C72.2719 85.2165 72.5902 85.694 72.5902 86.1184Z" fill="#D4ECFF"/>
<path d="M74.8702 87.4455C74.8702 87.8699 74.6049 88.0291 74.2336 87.8169C73.8622 87.6047 73.5969 87.1272 73.5969 86.7028C73.5969 86.2783 73.8622 86.1192 74.2336 86.3314C74.6049 86.5436 74.8702 87.0211 74.8702 87.4455Z" fill="#173D7A"/>
<path d="M84.4643 94.1828L83.1387 93.4401C82.9266 93.334 82.7676 93.0156 82.7676 92.7504V91.3179C82.7676 91.0527 82.9266 90.9465 83.1387 91.0527L84.4643 91.7954C84.6764 91.9015 84.8355 92.2198 84.8355 92.4851V93.9176C84.8355 94.1828 84.6764 94.2889 84.4643 94.1828Z" fill="#D4ECFF"/>
<path d="M101.438 87.2852H100.854V55.6652L104.619 53.49V37.9453H105.149V53.8614L101.438 55.9835V87.2852Z" fill="white"/>
<path d="M11.7712 94.0758C11.4531 94.0758 11.1349 93.9697 10.8168 93.8106L0.530235 87.9747C0.212094 87.8155 0 87.4972 0 87.1258C0 86.7544 0.15907 86.4361 0.477211 86.277L26.1936 71.4219C27.6783 70.5731 29.4811 70.5731 30.9657 71.4219L60.3407 88.3991L59.9165 89.1419L30.5415 72.1647C29.322 71.475 27.8373 71.475 26.6178 72.1647L0.901399 87.0197C0.848376 87.0728 0.848376 87.1258 0.848376 87.1258C0.848376 87.1789 0.848376 87.2319 0.901399 87.2319L11.188 93.0678C11.5591 93.28 11.9833 93.28 12.3015 93.0148L16.6494 90.2029L17.1266 90.8926L12.7787 93.7045C12.5135 93.9697 12.1424 94.0758 11.7712 94.0758Z" fill="#B2D3EA"/>
<path d="M25.1873 96.3574L11.3482 88.3463C10.4998 87.8688 10.6059 87.0199 11.5603 86.4363L24.9222 78.6905C25.9297 78.1069 27.4143 78.0539 28.2627 78.5313L42.1018 86.5425C42.9502 87.0199 42.8442 87.8688 41.8897 88.4524L28.5278 96.1982C27.5204 96.7818 26.0357 96.8349 25.1873 96.3574Z" fill="#B2D3EA"/>
<path d="M46.7176 80.4932V74.4982H33.3026L28.6896 71.7924C27.6291 71.1558 25.7733 71.2619 24.5537 71.9516L20.2058 74.4451H6.79087V80.5993C6.73785 81.0238 7.00296 81.3952 7.48018 81.7135L24.8189 91.7406C25.8793 92.3773 27.7352 92.2712 28.9547 91.5815L45.7101 81.9257C46.3994 81.5013 46.7706 80.9707 46.7176 80.4932Z" fill="#396CAA"/>
<path d="M26.7314 71.3688C25.9361 71.3688 25.1407 71.581 24.5044 71.9524L20.1565 74.4459H6.74155V80.6001C6.68853 81.0246 6.95365 81.396 7.43086 81.7143L24.7695 91.7414C25.2998 92.0597 25.9891 92.1659 26.6784 92.1659V71.3688H26.7314Z" fill="#396CAA"/>
<path d="M8.28011 74.4459H6.74156V80.6001C6.6885 81.0245 6.95377 81.3959 7.43126 81.7142L8.22706 82.1917V74.4459H8.28011Z" fill="#5793CE"/>
<path d="M25.0828 91.8998C25.9842 92.2712 27.3098 92.2712 28.4232 91.8467V84.8436H25.0828V91.8998Z" fill="#5793CE"/>
<path d="M24.8213 85.64L7.42959 75.6129C6.36912 74.9762 6.47517 73.9151 7.74773 73.2254L24.5032 63.5697C25.7227 62.88 27.5785 62.7739 28.639 63.4105L45.9777 73.4377C47.0381 74.0743 46.9321 75.1354 45.6595 75.8251L28.9041 85.4809C27.7376 86.1705 25.8818 86.2236 24.8213 85.64Z" fill="#D4ECFF"/>
<path d="M25.1418 83.8356L10.6134 75.4531C9.71198 74.9226 9.81803 74.0207 10.8785 73.4371L24.9297 65.3199C25.9372 64.7363 27.5279 64.6832 28.4293 65.1607L42.9577 73.5432C43.8591 74.0737 43.7531 74.9756 42.6926 75.5592L28.6414 83.6764C27.5809 84.26 25.9902 84.3131 25.1418 83.8356Z" fill="#5793CE"/>
<path d="M40.3557 82.0864C40.3557 82.5108 40.0374 83.0944 39.666 83.3066C39.2946 83.5188 38.9763 83.3597 38.9763 82.8822C38.9763 82.4578 39.2946 81.8742 39.666 81.662C40.0374 81.4497 40.3557 81.6089 40.3557 82.0864Z" fill="#D4ECFF"/>
<path d="M42.5796 80.7591C42.5796 81.1835 42.2613 81.7671 41.8899 81.9793C41.5185 82.1915 41.2002 82.0324 41.2002 81.5549C41.2002 81.1305 41.5185 80.5469 41.8899 80.3347C42.2613 80.1224 42.5796 80.3347 42.5796 80.7591Z" fill="#D4ECFF"/>
<path d="M44.8599 79.4332C44.8599 79.8576 44.5415 80.4412 44.1702 80.6534C43.7988 80.8656 43.4805 80.7064 43.4805 80.229C43.4805 79.8045 43.7988 79.2209 44.1702 79.0087C44.5415 78.8496 44.8599 79.0087 44.8599 79.4332Z" fill="#D4ECFF"/>
<path d="M46.7176 70.8927V64.8976H33.3026L28.6896 62.1919C27.6291 61.5552 25.7733 61.6614 24.5537 62.351L20.2058 64.8446H6.79087V70.9988C6.73785 71.4232 7.00296 71.7946 7.48018 72.1129L24.8189 82.1401C25.8793 82.7767 27.7352 82.6706 28.9547 81.9809L45.7101 72.3251C46.3994 71.9538 46.7706 71.4232 46.7176 70.8927Z" fill="#396CAA"/>
<path d="M26.7314 61.8194C25.9361 61.8194 25.1407 62.0316 24.5044 62.403L20.1565 64.8965H6.74155V71.0507C6.68853 71.4752 6.95365 71.8465 7.43086 72.1649L24.7695 82.192C25.2998 82.5103 25.9891 82.6164 26.6784 82.6164V61.8194H26.7314Z" fill="#396CAA"/>
<path d="M8.28011 64.8975H6.74156V71.0517C6.6885 71.4761 6.95377 71.8475 7.43126 72.1658L8.22706 72.6433V64.8975H8.28011Z" fill="#5793CE"/>
<path d="M25.0828 82.2984C25.9842 82.6697 27.3098 82.6697 28.4232 82.2453V75.2422H25.0828V82.2984Z" fill="#5793CE"/>
<path d="M24.8213 76.0386L7.42959 66.0114C6.36912 65.3748 6.47517 64.3137 7.74773 63.624L24.5032 53.9682C25.7227 53.2785 27.5785 53.1724 28.639 53.8091L45.9777 63.8362C47.0381 64.4729 46.9321 65.5339 45.6595 66.2236L28.9041 75.8794C27.7376 76.5691 25.8818 76.6752 24.8213 76.0386Z" fill="#D4ECFF"/>
<path d="M25.1418 74.2342L10.6134 65.8517C9.71198 65.3212 9.81803 64.4193 10.8785 63.8357L24.9297 55.7185C25.9372 55.1349 27.5279 55.0818 28.4293 55.5593L42.9577 63.9418C43.8591 64.4724 43.7531 65.3743 42.6926 65.9579L28.6414 74.0751C27.5809 74.7117 25.9902 74.7648 25.1418 74.2342Z" fill="#5793CE"/>
<path d="M40.3557 72.4848C40.3557 72.9092 40.0374 73.4928 39.666 73.705C39.2946 73.9172 38.9763 73.7581 38.9763 73.2806C38.9763 72.8562 39.2946 72.2726 39.666 72.0604C40.0374 71.8481 40.3557 72.0604 40.3557 72.4848Z" fill="#D4ECFF"/>
<path d="M42.5796 71.2116C42.5796 71.636 42.2613 72.2196 41.8899 72.4318C41.5185 72.644 41.2002 72.4849 41.2002 72.0074C41.2002 71.5829 41.5185 70.9994 41.8899 70.7871C42.2613 70.5749 42.5796 70.7341 42.5796 71.2116Z" fill="#D4ECFF"/>
<path d="M44.8599 69.8852C44.8599 70.3097 44.5415 70.8933 44.1702 71.1055C43.7988 71.3177 43.4805 71.1585 43.4805 70.6811C43.4805 70.2566 43.7988 69.673 44.1702 69.4608C44.5415 69.2486 44.8599 69.4608 44.8599 69.8852Z" fill="#D4ECFF"/>
<path d="M46.7176 61.3419V55.3468H33.3026L28.6896 52.6411C27.6291 52.0044 25.7733 52.1105 24.5537 52.8002L20.2058 55.2938H6.79087V61.448C6.73785 61.8724 7.00296 62.2438 7.48018 62.5621L24.8189 72.5893C25.8793 73.2259 27.7352 73.1198 28.9547 72.4301L45.7101 62.7743C46.3994 62.3499 46.7706 61.8194 46.7176 61.3419Z" fill="#396CAA"/>
<path d="M26.7314 52.2695C25.9361 52.2695 25.1407 52.4817 24.5044 52.8531L20.1565 55.3466H6.74155V61.5008C6.68853 61.9253 6.95365 62.2966 7.43086 62.615L24.7695 72.6421C25.2998 72.9604 25.9891 73.0665 26.6784 73.0665V52.2695H26.7314Z" fill="#396CAA"/>
<path d="M8.28011 55.3466H6.74156V61.5008C6.6885 61.9252 6.95377 62.2966 7.43126 62.6149L8.22706 63.0924V55.3466H8.28011Z" fill="#5793CE"/>
<path d="M25.0828 72.7475C25.9842 73.1189 27.3098 73.1189 28.4232 72.6944V65.6913H25.0828V72.7475Z" fill="#5793CE"/>
<path d="M24.8213 66.4878L7.42959 56.4606C6.36912 55.824 6.47517 54.7629 7.74773 54.0732L24.5032 44.4174C25.7227 43.7277 27.5785 43.6216 28.639 44.2583L45.9777 54.2854C47.0381 54.9221 46.9321 55.9831 45.6595 56.6728L28.9041 66.3286C27.7376 67.0183 25.8818 67.0714 24.8213 66.4878Z" fill="#D4ECFF"/>
<path d="M45.7124 55.4525L28.957 65.1083C27.7374 65.798 25.8816 65.9041 24.8211 65.2675L7.42942 55.2934C7.21733 55.1342 7.00524 54.9751 6.89919 54.8159C6.52802 55.3995 6.68709 56.0361 7.42942 56.4606L24.7681 66.4877C25.8286 67.1244 27.6844 67.0183 28.9039 66.3286L45.6594 56.6728C46.6138 56.1422 46.8789 55.3464 46.5077 54.7628C46.3487 54.9751 46.0835 55.2403 45.7124 55.4525Z" fill="white"/>
<path d="M40.3557 62.9342C40.3557 63.3586 40.0374 63.9422 39.666 64.1544C39.2946 64.3666 38.9763 64.2075 38.9763 63.73C38.9763 63.3055 39.2946 62.722 39.666 62.5097C40.0374 62.2975 40.3557 62.4567 40.3557 62.9342Z" fill="#D4ECFF"/>
<path d="M42.5796 61.6086C42.5796 62.033 42.2613 62.6166 41.8899 62.8288C41.5185 63.041 41.2002 62.8819 41.2002 62.4044C41.2002 61.98 41.5185 61.3964 41.8899 61.1841C42.2613 60.9719 42.5796 61.1841 42.5796 61.6086Z" fill="#D4ECFF"/>
<path d="M44.8599 60.3346C44.8599 60.759 44.5415 61.3426 44.1702 61.5548C43.7988 61.767 43.4805 61.6079 43.4805 61.1304C43.4805 60.706 43.7988 60.1224 44.1702 59.9102C44.5415 59.6979 44.8599 59.8571 44.8599 60.3346Z" fill="#D4ECFF"/>
<path d="M25.8297 60.2807L17.7171 55.612C17.2399 55.3468 17.2929 54.8162 17.8762 54.4979L25.7237 49.9883C26.3069 49.67 27.1553 49.6169 27.6856 49.8822L35.7982 54.5509C36.2754 54.8162 36.2223 55.3467 35.6391 55.6651L27.7916 60.1746C27.2083 60.546 26.3069 60.546 25.8297 60.2807Z" fill="#5793CE"/>
<path d="M26.6247 56.3553L25.5112 55.7187C25.4582 55.6656 25.4582 55.6125 25.5112 55.5595L26.5717 54.9228C26.6777 54.8698 26.7838 54.8698 26.8368 54.9228L27.9503 55.5595C28.0033 55.6125 28.0033 55.6656 27.9503 55.7187L26.8898 56.3553C26.7838 56.3553 26.6777 56.4083 26.6247 56.3553Z" fill="#D4ECFF"/>
<path d="M17.7177 55.559C17.7707 55.559 17.8237 55.5059 17.8768 55.5059L25.7242 50.9964C26.3075 50.678 27.1559 50.625 27.6861 50.8902L35.7987 55.559C36.2759 55.2406 36.2759 54.7632 35.7987 54.4979L27.6861 49.8292C27.2089 49.5639 26.3075 49.5639 25.7242 49.9353L17.8768 54.4448C17.2935 54.7632 17.1875 55.2937 17.7177 55.559Z" fill="#396CAA"/>
<path d="M23.7081 68.2397C23.7081 68.558 23.4959 68.6641 23.2307 68.505C22.9654 68.3458 22.7532 67.9744 22.7532 67.7092C22.7532 67.3909 22.9654 67.2848 23.2307 67.4439C23.4959 67.55 23.7081 67.9214 23.7081 68.2397Z" fill="#D4ECFF"/>
<path d="M22.2255 67.3903C22.2255 67.7086 22.0133 67.8148 21.748 67.6556C21.4827 67.4964 21.2705 67.1251 21.2705 66.8598C21.2705 66.5415 21.4827 66.4354 21.748 66.5945C22.0133 66.7006 22.2255 67.072 22.2255 67.3903Z" fill="#D4ECFF"/>
<path d="M23.7081 69.9897C23.7081 70.3081 23.4959 70.4142 23.2307 70.255C22.9654 70.0959 22.7532 69.7245 22.7532 69.4592C22.7532 69.1409 22.9654 69.0348 23.2307 69.1939C23.4959 69.3531 23.7081 69.7245 23.7081 69.9897Z" fill="#D4ECFF"/>
<path d="M22.2255 69.1414C22.2255 69.4597 22.0133 69.5658 21.748 69.4067C21.4827 69.2475 21.2705 68.8761 21.2705 68.6109C21.2705 68.2925 21.4827 68.1864 21.748 68.3456C22.0133 68.5047 22.2255 68.8761 22.2255 69.1414Z" fill="#D4ECFF"/>
<path d="M23.7081 77.735C23.7081 78.0533 23.4959 78.1594 23.2307 78.0003C22.9654 77.8411 22.7532 77.4697 22.7532 77.2045C22.7532 76.8862 22.9654 76.7801 23.2307 76.9392C23.4959 77.0984 23.7081 77.4697 23.7081 77.735Z" fill="#D4ECFF"/>
<path d="M22.2255 76.9395C22.2255 77.2578 22.0133 77.3639 21.748 77.2048C21.4827 77.0456 21.2705 76.6742 21.2705 76.4089C21.2705 76.0906 21.4827 75.9845 21.748 76.1437C22.0133 76.2498 22.2255 76.6212 22.2255 76.9395Z" fill="#D4ECFF"/>
<path d="M23.7081 79.5389C23.7081 79.8572 23.4959 79.9633 23.2307 79.8041C22.9654 79.645 22.7532 79.2736 22.7532 79.0083C22.7532 78.69 22.9654 78.5839 23.2307 78.743C23.4959 78.8492 23.7081 79.2205 23.7081 79.5389Z" fill="#D4ECFF"/>
<path d="M22.2255 78.6905C22.2255 79.0088 22.0133 79.1149 21.748 78.9558C21.4827 78.7966 21.2705 78.4252 21.2705 78.16C21.2705 77.8416 21.4827 77.7355 21.748 77.8947C22.0133 78.0008 22.2255 78.3722 22.2255 78.6905Z" fill="#D4ECFF"/>
<path d="M23.7081 87.2843C23.7081 87.6026 23.4959 87.7087 23.2307 87.5496C22.9654 87.3904 22.7532 87.019 22.7532 86.7538C22.7532 86.4354 22.9654 86.3293 23.2307 86.4885C23.4959 86.5946 23.7081 86.966 23.7081 87.2843Z" fill="#D4ECFF"/>
<path d="M22.2255 86.4357C22.2255 86.7541 22.0133 86.8602 21.748 86.701C21.4827 86.5418 21.2705 86.1705 21.2705 85.9052C21.2705 85.5869 21.4827 85.4808 21.748 85.6399C22.0133 85.7991 22.2255 86.1174 22.2255 86.4357Z" fill="#D4ECFF"/>
<path d="M23.7081 89.0353C23.7081 89.3536 23.4959 89.4597 23.2307 89.3005C22.9654 89.1414 22.7532 88.77 22.7532 88.5047C22.7532 88.1864 22.9654 88.0803 23.2307 88.2395C23.4959 88.3986 23.7081 88.77 23.7081 89.0353Z" fill="#D4ECFF"/>
<path d="M22.2255 88.1868C22.2255 88.5051 22.0133 88.6112 21.748 88.4521C21.4827 88.2929 21.2705 87.9215 21.2705 87.6563C21.2705 87.3379 21.4827 87.2318 21.748 87.391C22.0133 87.5502 22.2255 87.9215 22.2255 88.1868Z" fill="#D4ECFF"/>
<path d="M26.9373 103.467C26.4601 103.467 25.9298 103.361 25.5056 103.096L16.7568 98.0027C16.4386 97.8436 16.2795 97.5252 16.2795 97.1539C16.2795 96.7825 16.4386 96.5172 16.7568 96.305L22.4833 92.9626L22.9075 93.7054L17.1809 97.0477C17.1279 97.0477 17.1279 97.1008 17.1279 97.1539C17.1279 97.2069 17.1279 97.2069 17.1809 97.26L25.9298 102.353C26.5661 102.724 27.3084 102.724 27.9447 102.353L45.0713 92.5912C45.9727 92.1138 47.0332 92.1138 47.9346 92.5912L62.3039 100.868C62.9402 101.239 63.6825 101.239 64.3188 100.868L71.2119 96.8886L71.6361 97.6313L64.743 101.61C63.8416 102.141 62.7811 102.141 61.8797 101.61L47.5634 93.334C46.9271 92.9626 46.1848 92.9626 45.5485 93.334L28.4219 103.096C27.9447 103.361 27.4145 103.467 26.9373 103.467Z" fill="#B2D3EA"/>
<path d="M102.872 135.777L89.033 127.766C88.1846 127.289 88.2907 126.44 89.2451 125.856L102.607 118.11C103.614 117.527 105.099 117.474 105.948 117.951L119.84 126.015C120.688 126.493 120.582 127.342 119.628 127.925L106.266 135.671C105.258 136.202 103.774 136.255 102.872 135.777Z" fill="#B2D3EA"/>
<path d="M124.452 119.914V113.919H111.037L106.424 111.213C105.363 110.577 103.507 110.683 102.288 111.372L97.9399 113.866H84.525V120.02C84.472 120.445 84.7371 120.816 85.2143 121.134L102.553 131.161C103.613 131.798 105.469 131.692 106.689 131.002L123.444 121.346C124.134 120.922 124.452 120.392 124.452 119.914Z" fill="#396CAA"/>
<path d="M104.465 110.79C103.67 110.79 102.875 111.002 102.238 111.373L97.8904 113.867H84.4754V120.021C84.4224 120.445 84.6875 120.817 85.1647 121.135L102.503 131.162C103.034 131.481 103.723 131.587 104.412 131.587V110.79H104.465Z" fill="#396CAA"/>
<path d="M85.9576 113.867H84.419V120.021C84.366 120.445 84.6313 120.817 85.1087 121.135L85.9046 121.613V113.867H85.9576Z" fill="#5793CE"/>
<path d="M102.767 131.321C103.669 131.692 104.994 131.692 106.108 131.267V124.264H102.767V131.321Z" fill="#5793CE"/>
<path d="M102.502 125.061L85.1637 115.034C84.1033 114.397 84.2093 113.336 85.4819 112.646L102.237 102.99C103.457 102.301 105.313 102.195 106.373 102.831L123.712 112.858C124.772 113.495 124.666 114.556 123.394 115.246L106.638 124.902C105.419 125.591 103.563 125.644 102.502 125.061Z" fill="#D4ECFF"/>
<path d="M102.812 123.256L88.2838 114.874C87.3824 114.343 87.4884 113.441 88.5489 112.858L102.6 104.741C103.608 104.157 105.198 104.104 106.1 104.581L120.628 112.964C121.53 113.494 121.423 114.396 120.363 114.98L106.312 123.097C105.251 123.681 103.714 123.734 102.812 123.256Z" fill="#5793CE"/>
<path d="M118.04 121.453C118.04 121.878 117.722 122.461 117.351 122.674C116.979 122.886 116.661 122.727 116.661 122.249C116.661 121.825 116.979 121.241 117.351 121.029C117.722 120.87 118.04 121.029 118.04 121.453Z" fill="#D4ECFF"/>
<path d="M120.321 120.18C120.321 120.604 120.002 121.188 119.631 121.4C119.259 121.612 118.941 121.453 118.941 120.976C118.941 120.551 119.259 119.968 119.631 119.755C120.002 119.543 120.321 119.755 120.321 120.18Z" fill="#D4ECFF"/>
<path d="M122.551 118.854C122.551 119.278 122.233 119.862 121.862 120.074C121.49 120.286 121.172 120.127 121.172 119.65C121.172 119.225 121.49 118.642 121.862 118.429C122.233 118.27 122.551 118.429 122.551 118.854Z" fill="#D4ECFF"/>
<path d="M124.452 110.311V104.316H111.037L106.424 101.61C105.363 100.973 103.507 101.08 102.288 101.769L97.9399 104.263H84.525V110.417C84.472 110.841 84.7371 111.213 85.2143 111.531L102.553 121.558C103.613 122.195 105.469 122.089 106.689 121.399L123.444 111.743C124.134 111.372 124.452 110.841 124.452 110.311Z" fill="#396CAA"/>
<path d="M104.465 101.239C103.67 101.239 102.875 101.451 102.238 101.822L97.8904 104.316H84.4754V110.47C84.4224 110.894 84.6875 111.266 85.1647 111.584L102.503 121.611C103.034 121.929 103.723 122.036 104.412 122.036V101.239H104.465Z" fill="#396CAA"/>
<path d="M85.9576 104.316H84.419V110.47C84.366 110.894 84.6313 111.266 85.1087 111.584L85.9046 112.061V104.316H85.9576Z" fill="#5793CE"/>
<path d="M102.767 121.717C103.669 122.089 104.994 122.089 106.108 121.664V114.661H102.767V121.717Z" fill="#5793CE"/>
<path d="M102.502 115.457L85.1637 105.43C84.1033 104.793 84.2093 103.732 85.4819 103.042L102.237 93.3864C103.457 92.6967 105.313 92.5906 106.373 93.2272L123.712 103.254C124.772 103.891 124.666 104.952 123.394 105.642L106.638 115.298C105.419 115.987 103.563 116.093 102.502 115.457Z" fill="#D4ECFF"/>
<path d="M102.812 113.653L88.2838 105.271C87.3824 104.74 87.4884 103.838 88.5489 103.255L102.6 95.1375C103.608 94.5539 105.198 94.5009 106.1 94.9784L120.628 103.361C121.53 103.891 121.423 104.793 120.363 105.377L106.312 113.494C105.251 114.131 103.714 114.184 102.812 113.653Z" fill="#5793CE"/>
<path d="M118.04 111.902C118.04 112.327 117.722 112.91 117.351 113.122C116.979 113.335 116.661 113.175 116.661 112.698C116.661 112.274 116.979 111.69 117.351 111.478C117.722 111.266 118.04 111.478 118.04 111.902Z" fill="#D4ECFF"/>
<path d="M120.321 110.629C120.321 111.053 120.002 111.637 119.631 111.849C119.259 112.061 118.941 111.902 118.941 111.425C118.941 111 119.259 110.417 119.631 110.205C120.002 109.992 120.321 110.151 120.321 110.629Z" fill="#D4ECFF"/>
<path d="M122.551 109.303C122.551 109.727 122.233 110.311 121.862 110.523C121.49 110.735 121.172 110.576 121.172 110.098C121.172 109.674 121.49 109.09 121.862 108.878C122.233 108.666 122.551 108.878 122.551 109.303Z" fill="#D4ECFF"/>
<path d="M124.452 100.763V94.7674H111.037L106.424 92.0617C105.363 91.4251 103.507 91.5312 102.288 92.2209L97.9399 94.7144H84.525V100.869C84.472 101.293 84.7371 101.664 85.2143 101.983L102.553 112.01C103.613 112.647 105.469 112.54 106.689 111.851L123.444 102.195C124.134 101.771 124.452 101.24 124.452 100.763Z" fill="#396CAA"/>
<path d="M104.465 91.6893C103.67 91.6893 102.875 91.9015 102.238 92.2729L97.8904 94.7664H84.4754V100.921C84.4224 101.345 84.6875 101.716 85.1647 102.035L102.503 112.062C103.034 112.38 103.723 112.486 104.412 112.486V91.6893H104.465Z" fill="#396CAA"/>
<path d="M85.9576 94.7673H84.419V100.922C84.366 101.346 84.6313 101.717 85.1087 102.036L85.9046 102.513V94.7673H85.9576Z" fill="#5793CE"/>
<path d="M102.767 112.168C103.669 112.54 104.994 112.54 106.108 112.115V105.112H102.767V112.168Z" fill="#5793CE"/>
<path d="M102.502 105.908L85.1637 95.8812C84.1033 95.2446 84.2093 94.1835 85.4819 93.4938L102.237 83.838C103.457 83.1483 105.313 83.0422 106.373 83.6789L123.712 93.706C124.772 94.3427 124.666 95.4038 123.394 96.0935L106.638 105.749C105.419 106.439 103.563 106.492 102.502 105.908Z" fill="#D4ECFF"/>
<path d="M123.393 94.8733L106.638 104.529C105.419 105.219 103.563 105.325 102.502 104.688L85.1636 94.7142C84.9515 94.555 84.7394 94.3958 84.6333 94.2367C84.2622 94.8203 84.4212 95.4569 85.1636 95.8813L102.502 105.908C103.563 106.545 105.419 106.439 106.638 105.749L123.393 96.0936C124.348 95.563 124.613 94.7672 124.242 94.1836C124.083 94.3958 123.818 94.6611 123.393 94.8733Z" fill="white"/>
<path d="M118.04 102.353C118.04 102.778 117.722 103.361 117.351 103.573C116.979 103.786 116.661 103.626 116.661 103.149C116.661 102.671 116.979 102.141 117.351 101.929C117.722 101.716 118.04 101.876 118.04 102.353Z" fill="#D4ECFF"/>
<path d="M120.321 101.028C120.321 101.452 120.002 102.036 119.631 102.248C119.259 102.46 118.941 102.301 118.941 101.823C118.941 101.399 119.259 100.815 119.631 100.603C120.002 100.391 120.321 100.603 120.321 101.028Z" fill="#D4ECFF"/>
<path d="M122.551 99.7536C122.551 100.178 122.233 100.762 121.862 100.974C121.49 101.186 121.172 101.027 121.172 100.549C121.172 100.125 121.49 99.5414 121.862 99.3291C122.233 99.1169 122.551 99.2761 122.551 99.7536Z" fill="#D4ECFF"/>
<path d="M103.564 99.7015L95.451 95.0327C94.9738 94.7675 95.0268 94.2369 95.6101 93.9186L103.458 89.409C104.041 89.0907 104.889 89.0377 105.419 89.3029L113.532 93.9717C114.009 94.2369 113.956 94.7675 113.373 95.0858L105.525 99.5954C104.889 99.9667 104.041 99.9667 103.564 99.7015Z" fill="#5793CE"/>
<path d="M104.302 95.7759L103.188 95.1392C103.135 95.0862 103.135 95.0331 103.188 94.9801L104.249 94.3434C104.355 94.2904 104.461 94.2904 104.514 94.3434L105.628 94.9801C105.681 95.0331 105.681 95.0862 105.628 95.1392L104.567 95.7759C104.514 95.7759 104.355 95.8289 104.302 95.7759Z" fill="#D4ECFF"/>
<path d="M95.3946 94.9796C95.4477 94.9796 95.5007 94.9265 95.5537 94.9265L103.401 90.417C103.984 90.0987 104.833 90.0456 105.363 90.3109L113.476 94.9796C113.953 94.6613 113.953 94.1838 113.476 93.9185L105.363 89.2498C104.886 88.9845 103.984 88.9845 103.401 89.3559L95.5537 93.8655C94.9704 94.1838 94.9174 94.7143 95.3946 94.9796Z" fill="#396CAA"/>
<path d="M97.7625 22.06L96.8814 21.5449L97.3259 21.2882C97.4689 21.4735 97.6171 21.6558 97.7913 21.8349C97.8016 21.8469 97.8222 21.8588 97.8376 21.8677C97.9149 21.9124 98.0394 21.9238 98.1436 21.8934C98.2687 21.8509 98.3165 21.7637 98.2447 21.6921C97.5686 20.9753 97.1218 20.1916 96.9192 19.3858L96.9297 19.3798L96.9142 19.3708C96.8353 19.0473 96.7875 18.7177 96.7865 18.3908L96.8074 18.3788L96.7816 18.3639C96.7817 17.9471 96.8389 17.533 96.9687 17.1187C96.9688 17.1127 96.9688 17.1127 96.9689 17.1067C96.9689 17.1007 96.9689 17.1007 96.969 17.0947C96.9691 17.0887 96.9692 17.0827 96.9641 17.0737L96.9642 17.0677C96.9642 17.0677 96.9642 17.0677 96.959 17.0648C96.9591 17.0588 96.954 17.0498 96.9489 17.0468C96.9437 17.0438 96.9489 17.0408 96.9438 17.0378C96.9439 17.0318 96.9336 17.0259 96.9284 17.0229C96.9232 17.0199 96.9232 17.0199 96.9233 17.0139C96.9182 17.011 96.9079 17.005 96.9079 16.999C96.9028 16.996 96.9028 16.996 96.8976 16.9931C96.8873 16.9871 96.8822 16.9841 96.8719 16.9782C96.8667 16.9752 96.8667 16.9752 96.8616 16.9722C96.8564 16.9692 96.8409 16.9663 96.8357 16.9633C96.8306 16.9604 96.8306 16.9604 96.8202 16.9604C96.8098 16.9604 96.8047 16.9575 96.7891 16.9545C96.784 16.9516 96.7736 16.9516 96.7684 16.9486C96.7684 16.9486 96.7633 16.9456 96.758 16.9487C96.7477 16.9487 96.7477 16.9487 96.7373 16.9488C96.7269 16.9488 96.7217 16.9458 96.7165 16.9488C96.7061 16.9489 96.6958 16.9489 96.6854 16.949L96.675 16.949C92.7717 17.3463 88.784 16.6256 86.0118 15.0241C86.0014 15.0181 85.9911 15.0122 85.9756 15.0092C85.9653 15.0033 85.9602 14.9943 85.9499 14.9884C83.1776 13.3869 81.9299 11.0833 82.6177 8.82843C82.623 8.82541 82.6178 8.82243 82.6178 8.82243C82.6179 8.81644 82.618 8.81044 82.618 8.80444C82.6181 8.79844 82.613 8.79547 82.6182 8.79245C82.6183 8.78645 82.6183 8.78645 82.6183 8.78045C82.6183 8.78045 82.6132 8.77747 82.6184 8.77445C82.6185 8.76846 82.6133 8.76548 82.6134 8.75948C82.6135 8.75348 82.6083 8.75051 82.6033 8.74153C82.5981 8.73856 82.5982 8.73256 82.5982 8.73256C82.593 8.72958 82.588 8.72061 82.5828 8.71763C82.5776 8.71465 82.5776 8.71465 82.5725 8.71168C82.5622 8.70572 82.557 8.70275 82.5467 8.69679C82.5416 8.69382 82.5416 8.69382 82.5364 8.69084C82.5261 8.68489 82.521 8.68191 82.5054 8.67898C82.5003 8.676 82.5003 8.676 82.4899 8.67604C82.4796 8.67009 82.4692 8.67013 82.4641 8.66716C82.4589 8.66418 82.4537 8.6672 82.4485 8.66423C82.433 8.66129 82.4226 8.66134 82.4175 8.65836C82.4175 8.65836 82.4175 8.65836 82.4123 8.65538L82.4019 8.65543C82.3915 8.65547 82.3812 8.65551 82.3656 8.65258C82.3552 8.65263 82.3552 8.65263 82.3449 8.65267C82.3345 8.65271 82.3345 8.65271 82.3241 8.65276C81.6121 8.72474 80.8901 8.76078 80.1686 8.76083L80.1428 8.74595L80.1219 8.75803C79.551 8.75445 78.9855 8.72985 78.4255 8.68425L78.41 8.67532L78.3996 8.68136C76.9943 8.57036 75.6376 8.31223 74.3968 7.92167C74.2727 7.88021 74.1166 7.91086 74.0483 7.98012C73.9904 8.03733 74.0103 8.10921 74.0927 8.15684C74.1082 8.16577 74.1288 8.17768 74.1495 8.18359C74.4545 8.28125 74.7752 8.36985 75.096 8.45245L74.6515 8.70921L73.7652 8.19721C73.6673 8.14065 73.5012 8.14135 73.4018 8.19875C73.3025 8.25614 73.3013 8.3521 73.3992 8.40866L85.4166 15.2905C85.4269 15.2964 85.4372 15.3024 85.4528 15.3053C85.4631 15.3113 85.4682 15.3202 85.4785 15.3262L97.3913 22.2684C97.4892 22.325 97.6554 22.3243 97.7547 22.2669C97.8592 22.2125 97.8604 22.1165 97.7625 22.06ZM96.5207 21.3366L95.9539 21.0091L96.8219 20.5077C96.9081 20.6722 97.0046 20.8367 97.1116 20.9952L96.5207 21.3366ZM96.6651 20.1815L95.5984 20.7977L95.0316 20.4703L96.4591 19.6456C96.5191 19.8253 96.5843 20.0079 96.6651 20.1815ZM96.3651 19.2832L94.6761 20.2589L94.1093 19.9314L96.2741 18.6809C96.2923 18.8847 96.3261 19.0855 96.3651 19.2832ZM94.8687 17.3495C95.2789 17.3447 95.684 17.325 96.0944 17.2963L92.8263 19.1842L92.2595 18.8568L94.8687 17.3495ZM96.3349 17.5742C96.2956 17.8052 96.2719 18.0392 96.2637 18.2701L93.7486 19.7231L93.1818 19.3956L96.3349 17.5742ZM94.1472 17.3495L91.8988 18.6484L91.3319 18.321L93.0941 17.303C93.4416 17.3285 93.7996 17.342 94.1472 17.3495ZM82.4253 12.1307C82.7647 12.7919 83.2602 13.4285 83.912 14.0105L81.5312 12.6472L82.4253 12.1307ZM81.1705 12.4388L80.6036 12.1114L82.0834 11.2565C82.1382 11.4392 82.1982 11.6189 82.2738 11.8015L81.1705 12.4388ZM91.5182 17.1418C91.829 17.1884 92.14 17.2231 92.4615 17.2517L90.9817 18.1066L90.4149 17.7791L91.5182 17.1418ZM90.0542 17.5707L87.6943 16.1954C88.7017 16.5719 89.8037 16.8581 90.9483 17.0542L90.0542 17.5707ZM81.9946 10.8911L80.2429 11.903L79.6761 11.5756L81.9246 10.2767C81.9323 10.4865 81.9505 10.6904 81.9946 10.8911ZM80.3205 9.06004C80.7203 9.05535 81.1201 9.04467 81.5253 9.01896L78.3774 10.8374L77.8106 10.51L80.3205 9.06004ZM82.0062 9.15786C81.9565 9.39496 81.9224 9.62899 81.9142 9.86591L79.3102 11.3702L78.7433 11.0428L82.0062 9.15786ZM77.4447 10.3046L76.8778 9.97718L78.5668 9.0015C78.9142 9.02701 79.2618 9.04653 79.6095 9.05406L77.4447 10.3046ZM76.5119 9.77182L75.9451 9.44438L77.0118 8.82816C77.3226 8.87482 77.6284 8.91251 77.9446 8.94416L76.5119 9.77182ZM75.6032 8.57025C75.8775 8.63206 76.1623 8.68783 76.4471 8.7376L75.5844 9.23601L75.0175 8.90857L75.6032 8.57025Z" fill="#14225B"/>
<path d="M72.3433 9.95824L72.877 9.64996L75.6565 11.2556L75.1228 11.5639L74.011 10.9216L71.1488 12.5751L70.5929 12.254L73.4551 10.6005L72.3433 9.95824Z" fill="#14225B"/>
<path d="M72.9418 13.241C72.9491 12.9575 73.1339 12.7111 73.4961 12.5019C73.8584 12.2926 74.2832 12.1868 74.7707 12.1844C75.2647 12.1821 75.6873 12.2823 76.0385 12.4852C76.3898 12.6882 76.5618 12.9314 76.5544 13.2148C76.5536 13.4983 76.372 13.7447 76.0098 13.9539L75.84 14.052L73.8339 12.8932C73.6688 13.0332 73.5973 13.1769 73.6195 13.3242C73.6416 13.4715 73.7445 13.5982 73.9282 13.7043C74.1538 13.8346 74.3909 13.9062 74.6394 13.919C74.7459 13.9282 74.8557 13.9262 74.9687 13.9131L75.5005 14.2202C75.2743 14.2727 75.0547 14.3009 74.8416 14.3048C74.3122 14.3054 73.8541 14.194 73.4674 13.9706C73.1161 13.7676 72.9409 13.5244 72.9418 13.241ZM74.2704 12.6689L75.7206 13.5066C75.8533 13.3965 75.9134 13.2724 75.9009 13.1344C75.8917 12.9983 75.7839 12.8706 75.5777 12.7515C75.4036 12.651 75.1956 12.5924 74.9535 12.5759C74.7147 12.5575 74.487 12.5885 74.2704 12.6689Z" fill="#14225B"/>
<path d="M74.9423 14.7665L78.0932 13.7282L79.1808 14.3565L77.3834 16.1767L76.8517 15.8696L78.3332 14.3993L78.019 14.2178L75.474 15.0737L74.9423 14.7665Z" fill="#14225B"/>
<path d="M78.2336 16.2979C78.2409 16.0145 78.4257 15.7681 78.788 15.5588C79.1502 15.3496 79.575 15.2438 80.0625 15.2414C80.5565 15.239 80.9791 15.3393 81.3304 15.5422C81.6816 15.7451 81.8536 15.9883 81.8463 16.2718C81.8454 16.5553 81.6638 16.8017 81.3016 17.0109L81.1318 17.109L79.1257 15.9501C78.9606 16.0902 78.8892 16.2339 78.9113 16.3812C78.9335 16.5285 79.0364 16.6552 79.2201 16.7613C79.4456 16.8916 79.6827 16.9632 79.9313 16.976C80.0378 16.9852 80.1475 16.9832 80.2606 16.97L80.7923 17.2772C80.5661 17.3297 80.3465 17.3579 80.1334 17.3618C79.604 17.3624 79.1459 17.2509 78.7592 17.0275C78.4079 16.8246 78.2327 16.5814 78.2336 16.2979ZM79.5623 15.7259L81.0124 16.5636C81.1451 16.4535 81.2052 16.3294 81.1928 16.1914C81.1835 16.0552 81.0757 15.9276 80.8695 15.8085C80.6955 15.7079 80.4874 15.6494 80.2453 15.6329C80.0065 15.6145 79.7788 15.6455 79.5623 15.7259Z" fill="#14225B"/>
<path d="M80.5 17.9771L82.9741 16.5478L83.6992 16.9667L82.8721 18.1984L82.9688 18.2543L85.101 17.7765L85.8261 18.1954L83.352 19.6246L82.8444 19.3314L84.5909 18.3225L84.6442 18.2973L84.62 18.2833L82.6526 18.7162L82.0725 18.3811L82.8218 17.2446L82.7977 17.2306L82.754 17.2614L81.0075 18.2703L80.5 17.9771Z" fill="#14225B"/>
<path d="M84.4744 19.9031C84.4785 19.6178 84.6617 19.3705 85.0239 19.1612C85.3861 18.952 85.8126 18.8471 86.3033 18.8466C86.8005 18.8461 87.2296 18.9501 87.5905 19.1586C87.9514 19.3671 88.1298 19.614 88.1257 19.8993C88.1281 20.1847 87.9481 20.432 87.5859 20.6412C87.2237 20.8505 86.794 20.9554 86.2968 20.9559C85.8061 20.9564 85.3802 20.8524 85.0193 20.6439C84.6584 20.4354 84.4767 20.1885 84.4744 19.9031ZM86.3602 19.2438C86.0729 19.2497 85.8047 19.3245 85.5556 19.4684C85.3066 19.6123 85.1754 19.7681 85.1619 19.936C85.1517 20.102 85.2578 20.2492 85.4802 20.3777C85.7025 20.5061 85.9574 20.5674 86.2447 20.5615C86.5353 20.5537 86.8051 20.4779 87.0542 20.3341C87.3032 20.1902 87.4328 20.0353 87.443 19.8693C87.4564 19.7014 87.352 19.5533 87.1296 19.4248C86.9073 19.2964 86.6508 19.236 86.3602 19.2438Z" fill="#14225B"/>
<path d="M87.3063 21.5447C87.3136 21.2686 87.5032 21.0232 87.8752 20.8083C88.2471 20.5935 88.672 20.4839 89.1498 20.4797C89.6276 20.4755 90.0422 20.5748 90.3934 20.7778C90.7866 21.0049 90.9568 21.277 90.9042 21.5941C90.8715 21.7359 90.7968 21.8646 90.6802 21.9804L90.1485 21.6732C90.2068 21.6135 90.2377 21.5472 90.2411 21.4745C90.261 21.3178 90.1581 21.1743 89.9325 21.044C89.7327 20.9286 89.4892 20.8757 89.2018 20.8853C88.9177 20.8968 88.6527 20.9735 88.4069 21.1155C88.1611 21.2575 88.0283 21.4106 88.0084 21.5747C87.9917 21.7407 88.0833 21.8814 88.2831 21.9968C88.5151 22.1309 88.77 22.194 89.0477 22.1863C89.1703 22.1824 89.2866 22.1655 89.3965 22.1356L89.904 22.4288C89.6972 22.4999 89.4727 22.5439 89.2305 22.5609C88.688 22.5914 88.2186 22.4921 87.8222 22.2631C87.471 22.0602 87.299 21.8207 87.3063 21.5447Z" fill="#14225B"/>
<path d="M92.085 21.3626L92.6186 21.0543L95.3982 22.66L94.8645 22.9683L93.7527 22.326L90.8904 23.9795L90.3345 23.6583L93.1968 22.0049L92.085 21.3626Z" fill="#14225B"/>
</svg>
