<svg width="162" height="200" viewBox="0 0 162 200" fill="none" xmlns="http://www.w3.org/2000/svg">
<g clip-path="url(#clip0_980_17748)">
<path d="M18.1622 160.32C18.07 160.32 18.0239 160.32 17.9317 160.275L7.9775 155.149C7.60882 154.966 7.3784 154.599 7.3784 154.188C7.3784 153.776 7.60882 153.41 7.9775 153.226L17.8396 147.826C17.9317 147.78 17.9317 147.689 17.9317 147.643C17.9317 147.597 17.9317 147.506 17.8396 147.46L8.06967 142.105C7.70099 141.922 7.51666 141.556 7.51666 141.144C7.51666 140.732 7.70099 140.366 8.06967 140.183L21.8028 131.991C22.8167 131.396 24.107 131.35 25.167 131.945L32.817 136.247C33.0474 136.384 33.0935 136.659 33.0013 136.888C32.8631 137.117 32.5866 137.162 32.3562 137.071L24.7061 132.769C23.9688 132.357 23.0471 132.357 22.2637 132.815L8.53051 140.961C8.43834 141.007 8.43834 141.098 8.43834 141.144C8.43834 141.19 8.43834 141.281 8.53051 141.327L18.3004 146.728C18.6691 146.911 18.8534 147.277 18.8534 147.689C18.8534 148.101 18.623 148.467 18.2543 148.65L8.39226 154.004C8.30009 154.05 8.30009 154.142 8.30009 154.188C8.30009 154.233 8.30009 154.325 8.39226 154.371L18.3465 159.496C18.5769 159.634 18.6691 159.908 18.5308 160.091C18.4847 160.229 18.3004 160.32 18.1622 160.32Z" fill="#5793CE"/>
<path d="M19.2177 162.28L20.4555 160.136L15.818 157.495L14.5802 159.639L19.2177 162.28Z" fill="#5793CE"/>
<path d="M14.3834 159.085C14.3834 158.535 14.752 157.849 15.259 157.574C15.7198 157.3 16.1346 157.529 16.1346 158.078C16.1346 158.627 15.7659 159.314 15.259 159.588C14.752 159.863 14.3834 159.634 14.3834 159.085Z" fill="#5793CE"/>
<path d="M25.2819 166.611L27.2761 163.157L20.04 159.037L18.0458 162.491L25.2819 166.611Z" fill="#5793CE"/>
<path d="M19.7294 159.68L18.1625 158.81C17.5173 159.268 17.0104 160.137 16.9182 160.961L18.4851 161.831C19.1303 161.373 19.6372 160.503 19.7294 159.68Z" fill="#396CAA"/>
<path d="M17.6556 161.556C17.6556 160.641 18.3007 159.588 19.0842 159.13C19.8676 158.673 20.5128 159.039 20.5128 159.954C20.5128 160.87 19.8676 161.922 19.0842 162.38C18.2547 162.792 17.6556 162.471 17.6556 161.556Z" fill="#5793CE"/>
<path d="M16.2273 158.582C16.5582 158.581 16.826 158.437 16.8255 158.26C16.8249 158.083 16.5563 157.94 16.2254 157.941C15.8945 157.942 15.6267 158.086 15.6273 158.263C15.6278 158.44 15.8965 158.583 16.2273 158.582Z" fill="#D4ECFF"/>
<path d="M49.408 127.048L24.9833 113.226C24.1077 112.723 24.1999 111.807 25.2137 111.212L39.2695 103.157C40.2833 102.563 41.8502 102.517 42.7719 103.02L67.1966 116.842C68.0722 117.345 67.9801 118.26 66.9662 118.855L52.9104 126.91C51.8966 127.46 50.3297 127.551 49.408 127.048Z" fill="#B2D3EA"/>
<path d="M69.4083 112.173V55.5602L46.7347 49.6563L42.541 47.2764C41.5733 46.7272 39.9142 46.8188 38.8082 47.4137L34.891 49.6563H22.8169L26.4115 104.302C26.3654 104.668 26.5958 105.034 27.0567 105.308L49.6841 122.242C50.6519 122.791 52.3109 122.7 53.417 122.105L68.4866 113.455C69.1317 113.089 69.4083 112.631 69.4083 112.173Z" fill="#396CAA"/>
<path d="M40.8376 46.9102C40.1464 46.9102 39.409 47.0932 38.856 47.4136L34.9388 49.6562H22.8647V106.407C22.8186 106.773 23.0491 107.139 23.5099 107.414L49.6859 122.242C50.1467 122.517 50.7919 122.608 51.4371 122.608L51.7136 65.4914L40.8376 46.9102Z" fill="#D4ECFF"/>
<path d="M49.9149 122.38C50.7444 122.746 51.9426 122.7 52.9104 122.334V64.8052H49.9149V122.38Z" fill="#5793CE"/>
<path d="M49.6848 65.4915L23.4627 50.6632C22.4949 50.114 22.6332 49.1529 23.7392 48.5121L38.8088 39.8622C39.9149 39.2215 41.5739 39.1757 42.5417 39.7249L68.7176 54.5533C69.6854 55.1025 69.5472 56.0636 68.4411 56.7043L53.4176 65.3542C52.3116 65.995 50.6065 66.0407 49.6848 65.4915Z" fill="#D4ECFF"/>
<path d="M68.4873 55.6518L53.4177 64.3017C52.3116 64.9424 50.6526 64.9882 49.6848 64.439L23.4628 49.6106C23.2324 49.4733 23.0941 49.336 23.002 49.1987C22.6794 49.7022 22.8176 50.2971 23.4628 50.6633L49.6387 65.4916C50.6065 66.0408 52.2656 65.9493 53.3716 65.3543L68.4412 56.7045C69.3168 56.201 69.5472 55.5145 69.1785 54.9653C69.0864 55.2399 68.8099 55.4688 68.4873 55.6518Z" fill="#FAFDFF"/>
<path d="M50.421 59.4961L32.955 49.4732C32.4942 49.1986 32.5402 48.7867 33.0933 48.4663L40.1442 44.3931C40.6511 44.1185 41.4345 44.0727 41.8954 44.3015L59.3153 54.3244C59.7761 54.599 59.73 55.0109 59.177 55.3313L52.1261 59.3588C51.6192 59.7249 50.8358 59.7707 50.421 59.4961Z" fill="#173D7A"/>
<path d="M40.9742 49.8851L39.9603 49.2902C39.9142 49.2444 39.9142 49.1986 39.9603 49.1529L40.9281 48.6037C41.0202 48.5579 41.1124 48.5579 41.1585 48.6037L42.1723 49.1986C42.2184 49.2444 42.2184 49.2902 42.1723 49.3359L41.2507 49.8851C41.1585 49.9309 41.0663 49.9309 40.9742 49.8851Z" fill="#D4ECFF"/>
<path d="M44.3844 51.8074L43.3705 51.2582C43.3245 51.2124 43.3245 51.1666 43.3705 51.1209L44.3383 50.5717C44.4305 50.5259 44.5226 50.5259 44.5687 50.5717L45.5826 51.1666C45.6287 51.2124 45.6287 51.2582 45.5826 51.3039L44.6148 51.8531C44.5227 51.8531 44.4305 51.8531 44.3844 51.8074Z" fill="#D4ECFF"/>
<path d="M47.7497 53.7753L46.7358 53.1803C46.6897 53.1345 46.6897 53.0888 46.7358 53.043L47.7036 52.4938C47.7957 52.448 47.8879 52.448 47.934 52.4938L48.9479 53.0888C48.9939 53.1345 48.9939 53.1803 48.9479 53.2261L47.9801 53.7753C47.934 53.7753 47.7957 53.7753 47.7497 53.7753Z" fill="#D4ECFF"/>
<path d="M51.1122 55.6976L50.0983 55.1027C50.0522 55.0569 50.0522 55.0111 50.0983 54.9654L51.0661 54.4162C51.1582 54.3704 51.2504 54.3704 51.2965 54.4162L52.3104 55.0111C52.3564 55.0569 52.3564 55.1027 52.3104 55.1484L51.3426 55.6976C51.2965 55.6976 51.2043 55.7434 51.1122 55.6976Z" fill="#D4ECFF"/>
<path d="M32.9533 49.4733C32.9994 49.4733 33.0455 49.4275 33.0916 49.4275L40.1425 45.4001C40.6494 45.1255 41.4328 45.0797 41.8937 45.3085L59.3136 55.3314C59.7283 55.0568 59.7283 54.6449 59.3136 54.4161L41.8937 44.3474C41.4328 44.0728 40.6494 44.1186 40.1425 44.439L33.0916 48.4664C32.5846 48.741 32.5385 49.1987 32.9533 49.4733Z" fill="#5793CE"/>
<path d="M56.3685 76.7045L66.2767 71.0752C66.8297 70.7548 67.2905 69.8853 67.2905 69.153V65.629C67.2905 64.8967 66.8297 64.5306 66.2767 64.8509L56.3685 70.4802C55.8155 70.8006 55.3547 71.6702 55.3547 72.4024V75.9722C55.3547 76.7045 55.8155 77.0249 56.3685 76.7045Z" fill="#173D7A"/>
<path d="M66.7365 64.7593C66.8748 64.8966 67.0131 65.1712 67.0131 65.4915V69.0156C67.0131 69.7478 66.5522 70.6174 65.9992 70.9378L56.091 76.5671C55.9067 76.6586 55.7685 76.7044 55.5841 76.6586C55.7685 76.8417 56.045 76.8417 56.3215 76.7044L66.2296 71.0751C66.7826 70.7547 67.2435 69.8851 67.2435 69.1529V65.6288C67.2896 65.1254 67.0591 64.8508 66.7365 64.7593Z" fill="white"/>
<path d="M59.3177 72.9058L60.2394 72.4024C60.3776 72.3109 60.4698 72.1278 60.4698 71.9905V71.0294C60.4698 70.8463 60.3776 70.8006 60.2394 70.8463L59.3177 71.3498C59.1795 71.4413 59.0873 71.6244 59.0873 71.7617V72.7228C59.1334 72.9058 59.2255 72.9516 59.3177 72.9058Z" fill="#396CAA"/>
<path d="M62.3606 71.1667L63.2823 70.6633C63.4205 70.5717 63.5127 70.3887 63.5127 70.2514V69.2903C63.5127 69.1072 63.4205 69.0614 63.2823 69.1072L62.3606 69.6106C62.2224 69.7022 62.1302 69.8852 62.1302 70.0225V70.9836C62.1763 71.1667 62.2684 71.2125 62.3606 71.1667Z" fill="white"/>
<path d="M56.3685 102.151L66.2767 96.5215C66.8297 96.2011 67.2905 95.3316 67.2905 94.5993V91.0753C67.2905 90.343 66.8297 89.9769 66.2767 90.2972L56.3685 95.9265C55.8155 96.2469 55.3547 97.1165 55.3547 97.8487V101.373C55.3547 102.151 55.8155 102.471 56.3685 102.151Z" fill="#173D7A"/>
<path d="M66.7365 90.2056C66.8748 90.3429 67.0131 90.6175 67.0131 90.9378V94.4619C67.0131 95.1941 66.5522 96.0637 65.9992 96.3841L56.091 102.059C55.9067 102.151 55.7685 102.196 55.5841 102.151C55.7685 102.334 56.045 102.334 56.3215 102.196L66.2296 96.5671C66.7826 96.2468 67.2435 95.3772 67.2435 94.6449V91.0751C67.2896 90.5717 67.0591 90.2971 66.7365 90.2056Z" fill="white"/>
<path d="M59.3177 98.3521L60.2394 97.8487C60.3776 97.7572 60.4698 97.5741 60.4698 97.4368V96.4757C60.4698 96.2926 60.3776 96.2469 60.2394 96.2926L59.3177 96.7961C59.1795 96.8876 59.0873 97.0707 59.0873 97.208V98.1691C59.1334 98.3521 59.2255 98.3979 59.3177 98.3521Z" fill="#396CAA"/>
<path d="M62.3606 96.613L63.2823 96.1096C63.4205 96.018 63.5127 95.835 63.5127 95.6977V94.7366C63.5127 94.5535 63.4205 94.5077 63.2823 94.5535L62.3606 95.0569C62.2224 95.1485 62.1302 95.3315 62.1302 95.4688V96.4299C62.1763 96.613 62.2684 96.6588 62.3606 96.613Z" fill="white"/>
<path d="M56.3685 114.874L66.2767 109.245C66.8297 108.924 67.2905 108.055 67.2905 107.322V103.798C67.2905 103.066 66.8297 102.7 66.2767 103.02L56.3685 108.65C55.8155 108.97 55.3547 109.84 55.3547 110.572V114.096C55.3547 114.874 55.8155 115.194 56.3685 114.874Z" fill="#173D7A"/>
<path d="M66.7365 102.975C66.8748 103.112 67.0131 103.387 67.0131 103.707V107.231C67.0131 107.963 66.5522 108.833 65.9992 109.153L56.091 114.782C55.9067 114.874 55.7685 114.92 55.5841 114.874C55.7685 115.057 56.045 115.057 56.3215 114.92L66.2296 109.29C66.7826 108.97 67.2435 108.1 67.2435 107.368V103.844C67.2896 103.295 67.0591 103.02 66.7365 102.975Z" fill="white"/>
<path d="M59.3177 111.075L60.2394 110.572C60.3776 110.48 60.4698 110.297 60.4698 110.16V109.199C60.4698 109.016 60.3776 108.97 60.2394 109.016L59.3177 109.519C59.1795 109.611 59.0873 109.794 59.0873 109.931V110.892C59.1334 111.075 59.2255 111.121 59.3177 111.075Z" fill="#396CAA"/>
<path d="M62.3606 109.336L63.2823 108.833C63.4205 108.741 63.5127 108.558 63.5127 108.421V107.46C63.5127 107.277 63.4205 107.231 63.2823 107.277L62.3606 107.78C62.2224 107.872 62.1302 108.055 62.1302 108.192V109.153C62.1763 109.336 62.2684 109.382 62.3606 109.336Z" fill="white"/>
<path d="M56.3685 89.4276L66.2767 83.7983C66.8297 83.478 67.2905 82.6084 67.2905 81.8762V78.3521C67.2905 77.6199 66.8297 77.2537 66.2767 77.5741L56.3685 83.2034C55.8155 83.5238 55.3547 84.3933 55.3547 85.1256V88.6496C55.3547 89.4276 55.8155 89.748 56.3685 89.4276Z" fill="#173D7A"/>
<path d="M66.7365 77.4824C66.8748 77.6197 67.0131 77.8943 67.0131 78.2147V81.7387C67.0131 82.471 66.5522 83.3405 65.9992 83.6609L56.091 89.2902C55.9067 89.3817 55.7685 89.4275 55.5841 89.3817C55.7685 89.5648 56.045 89.5648 56.3215 89.4275L66.2296 83.7982C66.7826 83.4778 67.2435 82.6083 67.2435 81.876V78.352C67.2896 77.8486 67.0591 77.574 66.7365 77.4824Z" fill="white"/>
<path d="M59.3177 85.629L60.2394 85.1256C60.3776 85.034 60.4698 84.851 60.4698 84.7137V83.7526C60.4698 83.5695 60.3776 83.5237 60.2394 83.5695L59.3177 84.0729C59.1795 84.1645 59.0873 84.3475 59.0873 84.4848V85.4459C59.1334 85.629 59.2255 85.6747 59.3177 85.629Z" fill="#396CAA"/>
<path d="M62.3606 83.8898L63.2823 83.3864C63.4205 83.2949 63.5127 83.1118 63.5127 82.9745V82.0134C63.5127 81.8303 63.4205 81.7846 63.2823 81.8304L62.3606 82.3338C62.2224 82.4253 62.1302 82.6084 62.1302 82.7457V83.7068C62.1763 83.8898 62.2684 83.9356 62.3606 83.8898Z" fill="white"/>
<path d="M47.7505 73.1344L24.8927 59.9993C24.3857 59.7247 23.971 58.9009 23.971 58.2602V53.9124C23.971 53.2259 24.3857 52.9055 24.8927 53.2259L47.7505 66.3609C48.2575 66.6355 48.6722 67.4593 48.6722 68.1V72.4479C48.6722 73.0886 48.2575 73.409 47.7505 73.1344Z" fill="#5793CE"/>
<path opacity="0.4" d="M47.1056 71.5783L25.5381 59.2213C25.2616 59.084 25.0772 58.6721 25.0772 58.306V55.0565C25.0772 54.6904 25.3077 54.5531 25.5381 54.6904L47.1056 67.0474C47.3821 67.1847 47.5664 67.5966 47.5664 67.9627V71.2121C47.5664 71.5783 47.3821 71.7613 47.1056 71.5783Z" fill="#D4ECFF"/>
<path d="M30.0531 60.1822L26.8272 58.3515C26.5968 58.2142 26.3664 57.8023 26.3664 57.482C26.3664 57.1616 26.5507 56.9785 26.8272 57.1616L30.0531 58.9923C30.2836 59.1296 30.514 59.5415 30.514 59.8618C30.514 60.1364 30.2836 60.3195 30.0531 60.1822Z" fill="#D4ECFF"/>
<path d="M32.6297 61.451C32.8281 61.3373 32.8238 60.9611 32.6202 60.6109C32.4166 60.2607 32.0907 60.069 31.8923 60.1827C31.694 60.2965 31.6982 60.6726 31.9018 61.0228C32.1054 61.373 32.4313 61.5647 32.6297 61.451Z" fill="#173D7A"/>
<path d="M34.6161 62.1961C34.6161 62.5165 34.3857 62.6538 34.1092 62.5165C33.8327 62.3334 33.6023 61.9215 33.6023 61.6012C33.6023 61.2808 33.8327 61.1435 34.1092 61.2808C34.3857 61.4639 34.6161 61.8758 34.6161 62.1961Z" fill="#173D7A"/>
<path d="M36.5063 63.2487C36.5063 63.5691 36.2759 63.7064 35.9994 63.5691C35.7229 63.386 35.4925 62.9741 35.4925 62.6538C35.4925 62.3334 35.7229 62.1961 35.9994 62.3334C36.2759 62.5165 36.5063 62.9284 36.5063 63.2487Z" fill="#D4ECFF"/>
<path d="M38.3487 64.3471C38.3487 64.6675 38.1183 64.8048 37.8418 64.6675C37.5653 64.4844 37.3349 64.0725 37.3349 63.7522C37.3349 63.4318 37.5653 63.2945 37.8418 63.4318C38.1183 63.5691 38.3487 63.981 38.3487 64.3471Z" fill="#173D7A"/>
<path d="M46.1827 69.7934L45.0767 69.1527C44.8923 69.0612 44.8002 68.8323 44.8002 68.6035V67.4593C44.8002 67.2305 44.9384 67.139 45.0767 67.2305L46.1827 67.8712C46.367 67.9628 46.4592 68.1916 46.4592 68.4204V69.5646C46.5053 69.7934 46.367 69.885 46.1827 69.7934Z" fill="#173D7A"/>
<path d="M47.7505 80.7774L24.8927 67.6424C24.3857 67.3678 23.971 66.544 23.971 65.9033V61.5555C23.971 60.869 24.3857 60.5486 24.8927 60.869L47.7505 74.004C48.2575 74.2786 48.6722 75.1024 48.6722 75.7431V80.0909C48.6722 80.7317 48.2575 81.052 47.7505 80.7774Z" fill="#5793CE"/>
<path opacity="0.4" d="M47.1056 79.2213L25.5381 66.8644C25.2616 66.7271 25.0772 66.3152 25.0772 65.949V62.6996C25.0772 62.3335 25.3077 62.1962 25.5381 62.3335L47.1056 74.6905C47.3821 74.8278 47.5664 75.2397 47.5664 75.6058V78.8552C47.5664 79.2213 47.3821 79.4044 47.1056 79.2213Z" fill="#D4ECFF"/>
<path d="M30.0531 67.7798L26.8272 65.9492C26.5968 65.8119 26.3664 65.4 26.3664 65.0796C26.3664 64.7592 26.5507 64.5762 26.8272 64.7592L30.0531 66.5899C30.2836 66.7272 30.514 67.1391 30.514 67.4595C30.514 67.7798 30.2836 67.9629 30.0531 67.7798Z" fill="#D4ECFF"/>
<path d="M32.7737 68.7866C32.7737 69.107 32.5433 69.2443 32.2668 69.107C31.9903 68.9239 31.7599 68.512 31.7599 68.1916C31.7599 67.8713 31.9903 67.734 32.2668 67.8713C32.5433 68.0086 32.7737 68.4205 32.7737 68.7866Z" fill="white"/>
<path d="M34.6161 69.8392C34.6161 70.1596 34.3857 70.2969 34.1092 70.1596C33.8327 69.9765 33.6023 69.5646 33.6023 69.2442C33.6023 68.9239 33.8327 68.7866 34.1092 68.9239C34.3857 69.1069 34.6161 69.5188 34.6161 69.8392Z" fill="#173D7A"/>
<path d="M36.5063 70.8918C36.5063 71.2122 36.2759 71.3495 35.9994 71.2122C35.7229 71.0291 35.4925 70.6172 35.4925 70.2968C35.4925 69.9765 35.7229 69.8392 35.9994 69.9765C36.2759 70.1138 36.5063 70.5714 36.5063 70.8918Z" fill="#D4ECFF"/>
<path d="M38.2089 72.3001C38.4073 72.1864 38.403 71.8103 38.1994 71.46C37.9958 71.1098 37.6699 70.9181 37.4716 71.0318C37.2732 71.1456 37.2774 71.5217 37.4811 71.8719C37.6847 72.2222 38.0105 72.4139 38.2089 72.3001Z" fill="#173D7A"/>
<path d="M46.1827 77.4365L45.0767 76.7958C44.8923 76.7042 44.8002 76.4754 44.8002 76.2466V75.1024C44.8002 74.8736 44.9384 74.782 45.0767 74.8736L46.1827 75.5143C46.367 75.6058 46.4592 75.8347 46.4592 76.0635V77.2077C46.5053 77.4365 46.367 77.528 46.1827 77.4365Z" fill="#173D7A"/>
<path d="M47.7505 88.3747L24.8927 75.2855C24.3857 75.0109 23.971 74.1871 23.971 73.5463V69.1985C23.971 68.512 24.3857 68.1917 24.8927 68.512L47.7505 81.647C48.2575 81.9216 48.6722 82.7454 48.6722 83.3862V87.734C48.6722 88.3747 48.2575 88.6951 47.7505 88.3747Z" fill="#5793CE"/>
<path opacity="0.4" d="M47.1056 86.8644L25.5381 74.5074C25.2616 74.3701 25.0772 73.9582 25.0772 73.5921V70.3427C25.0772 69.9765 25.3077 69.8392 25.5381 69.9765L47.1056 82.3335C47.3821 82.4708 47.5664 82.8827 47.5664 83.2489V86.4983C47.5664 86.8644 47.3821 87.0475 47.1056 86.8644Z" fill="#D4ECFF"/>
<path d="M30.0531 75.4229L26.8272 73.5922C26.5968 73.4549 26.3664 73.043 26.3664 72.7227C26.3664 72.4023 26.5507 72.2192 26.8272 72.4023L30.0531 74.233C30.2836 74.3703 30.514 74.7822 30.514 75.1025C30.514 75.4229 30.2836 75.606 30.0531 75.4229Z" fill="#D4ECFF"/>
<path d="M32.7737 76.4297C32.7737 76.75 32.5433 76.8873 32.2668 76.75C31.9903 76.5669 31.7599 76.1551 31.7599 75.8347C31.7599 75.5143 31.9903 75.377 32.2668 75.5143C32.5433 75.6516 32.7737 76.0635 32.7737 76.4297Z" fill="white"/>
<path d="M34.6161 77.4823C34.6161 77.8026 34.3857 77.9399 34.1092 77.8026C33.8327 77.6196 33.6023 77.2077 33.6023 76.8873C33.6023 76.5669 33.8327 76.4296 34.1092 76.5669C34.3857 76.75 34.6161 77.1619 34.6161 77.4823Z" fill="#173D7A"/>
<path d="M36.5063 78.5349C36.5063 78.8552 36.2759 78.9925 35.9994 78.8552C35.7229 78.6722 35.4925 78.2603 35.4925 77.9399C35.4925 77.6195 35.7229 77.4822 35.9994 77.6195C36.2759 77.8026 36.5063 78.2145 36.5063 78.5349Z" fill="#D4ECFF"/>
<path d="M38.3487 79.6333C38.3487 79.9536 38.1183 80.0909 37.8418 79.9536C37.5653 79.7706 37.3349 79.3587 37.3349 79.0383C37.3349 78.7179 37.5653 78.5806 37.8418 78.7179C38.1183 78.8552 38.3487 79.2671 38.3487 79.6333Z" fill="#173D7A"/>
<path d="M46.1827 85.0796L45.0767 84.4388C44.8923 84.3473 44.8002 84.1185 44.8002 83.8896V82.7455C44.8002 82.5166 44.9384 82.4251 45.0767 82.5166L46.1827 83.1574C46.367 83.2489 46.4592 83.4777 46.4592 83.7066V84.8507C46.5053 85.0796 46.367 85.1711 46.1827 85.0796Z" fill="#173D7A"/>
<path d="M47.7505 96.0178L24.8927 82.9285C24.3857 82.6539 23.971 81.8301 23.971 81.1894V76.8416C23.971 76.1551 24.3857 75.8347 24.8927 76.1551L47.7505 89.2443C48.2575 89.5189 48.6722 90.3427 48.6722 90.9835V95.3313C48.6722 96.0178 48.2575 96.3382 47.7505 96.0178Z" fill="#5793CE"/>
<path opacity="0.4" d="M47.1056 94.5075L25.5381 82.1505C25.2616 82.0132 25.0772 81.6013 25.0772 81.2352V77.9857C25.0772 77.6196 25.3077 77.4823 25.5381 77.6196L47.1056 89.9766C47.3821 90.1139 47.5664 90.5258 47.5664 90.8919V94.1414C47.5664 94.5075 47.3821 94.6448 47.1056 94.5075Z" fill="#D4ECFF"/>
<path d="M30.0531 83.066L26.8272 81.2353C26.5968 81.098 26.3664 80.6861 26.3664 80.3657C26.3664 80.0454 26.5507 79.8623 26.8272 80.0454L30.0531 81.876C30.2836 82.0133 30.514 82.4252 30.514 82.7456C30.514 83.066 30.2836 83.249 30.0531 83.066Z" fill="#D4ECFF"/>
<path d="M32.7737 84.0269C32.7737 84.3473 32.5433 84.4846 32.2668 84.3473C31.9903 84.1642 31.7599 83.7523 31.7599 83.432C31.7599 83.1116 31.9903 82.9743 32.2668 83.1116C32.5433 83.2947 32.7737 83.7066 32.7737 84.0269Z" fill="#173D7A"/>
<path d="M34.472 85.4422C34.6704 85.3285 34.6661 84.9524 34.4625 84.6021C34.2589 84.2519 33.933 84.0602 33.7346 84.1739C33.5363 84.2877 33.5405 84.6638 33.7441 85.014C33.9477 85.3643 34.2736 85.556 34.472 85.4422Z" fill="#173D7A"/>
<path d="M36.5063 86.1779C36.5063 86.4983 36.2759 86.6356 35.9994 86.4983C35.7229 86.3152 35.4925 85.9033 35.4925 85.583C35.4925 85.2626 35.7229 85.1253 35.9994 85.2626C36.2759 85.4457 36.5063 85.8576 36.5063 86.1779Z" fill="#D4ECFF"/>
<path d="M38.3487 87.2306C38.3487 87.5509 38.1183 87.6882 37.8418 87.5509C37.5653 87.3679 37.3349 86.956 37.3349 86.6356C37.3349 86.3152 37.5653 86.1779 37.8418 86.3152C38.1183 86.4983 38.3487 86.9102 38.3487 87.2306Z" fill="#173D7A"/>
<path d="M46.1827 92.7226L45.0767 92.0819C44.8923 91.9904 44.8002 91.7615 44.8002 91.5327V90.3885C44.8002 90.1597 44.9384 90.0682 45.0767 90.1597L46.1827 90.8004C46.367 90.892 46.4592 91.1208 46.4592 91.3496V92.4938C46.5053 92.6769 46.367 92.8142 46.1827 92.7226Z" fill="#D4ECFF"/>
<path d="M47.7505 103.661L24.8927 90.5716C24.3857 90.297 23.971 89.4732 23.971 88.8325V84.4847C23.971 83.7982 24.3857 83.4778 24.8927 83.7982L47.7505 96.9332C48.2575 97.2078 48.6722 98.0316 48.6722 98.6723V103.02C48.6722 103.661 48.2575 103.981 47.7505 103.661Z" fill="#5793CE"/>
<path opacity="0.4" d="M47.1056 102.151L25.5381 89.7936C25.2616 89.6563 25.0772 89.2444 25.0772 88.8782V85.6288C25.0772 85.2627 25.3077 85.1254 25.5381 85.2627L47.1056 97.6197C47.3821 97.757 47.5664 98.1689 47.5664 98.535V101.784C47.5664 102.151 47.3821 102.288 47.1056 102.151Z" fill="#D4ECFF"/>
<path d="M30.0531 90.709L26.8272 88.8784C26.5968 88.7411 26.3664 88.3292 26.3664 88.0088C26.3664 87.6884 26.5507 87.5054 26.8272 87.6884L30.0531 89.5191C30.2836 89.6564 30.514 90.0683 30.514 90.3887C30.514 90.709 30.2836 90.8463 30.0531 90.709Z" fill="#D4ECFF"/>
<path d="M32.7737 91.67C32.7737 91.9904 32.5433 92.1277 32.2668 91.9904C31.9903 91.8073 31.7599 91.3954 31.7599 91.075C31.7599 90.7547 31.9903 90.6174 32.2668 90.7547C32.5433 90.9377 32.7737 91.3496 32.7737 91.67Z" fill="#173D7A"/>
<path d="M34.6161 92.7684C34.6161 93.0888 34.3857 93.2261 34.1092 93.0888C33.8327 92.9057 33.6023 92.4938 33.6023 92.1734C33.6023 91.8531 33.8327 91.7158 34.1092 91.8531C34.3857 92.0361 34.6161 92.4023 34.6161 92.7684Z" fill="white"/>
<path d="M36.5063 93.821C36.5063 94.1414 36.2759 94.2787 35.9994 94.1414C35.7229 93.9583 35.4925 93.5464 35.4925 93.226C35.4925 92.9057 35.7229 92.7684 35.9994 92.9057C36.2759 93.0887 36.5063 93.5006 36.5063 93.821Z" fill="#D4ECFF"/>
<path d="M38.3487 94.8736C38.3487 95.194 38.1183 95.3313 37.8418 95.194C37.5653 95.0109 37.3349 94.599 37.3349 94.2787C37.3349 93.9583 37.5653 93.821 37.8418 93.9583C38.1183 94.1414 38.3487 94.5533 38.3487 94.8736Z" fill="white"/>
<path d="M46.1827 100.32L45.0767 99.6792C44.8923 99.5877 44.8002 99.3588 44.8002 99.13V97.9858C44.8002 97.757 44.9384 97.6655 45.0767 97.757L46.1827 98.3977C46.367 98.4893 46.4592 98.7181 46.4592 98.9469V100.091C46.5053 100.32 46.367 100.457 46.1827 100.32Z" fill="#D4ECFF"/>
<path d="M47.7505 111.304L24.8927 98.2147C24.3857 97.9401 23.971 97.1163 23.971 96.4755V92.1277C23.971 91.4412 24.3857 91.1209 24.8927 91.4412L47.7505 104.576C48.2575 104.851 48.6722 105.675 48.6722 106.315V110.663C48.6722 111.304 48.2575 111.624 47.7505 111.304Z" fill="#5793CE"/>
<path opacity="0.4" d="M47.1056 109.794L25.5381 97.4366C25.2616 97.2993 25.0772 96.8874 25.0772 96.5213V93.2719C25.0772 92.9057 25.3077 92.7684 25.5381 92.9057L47.1056 105.263C47.3821 105.4 47.5664 105.812 47.5664 106.178V109.427C47.5664 109.794 47.3821 109.931 47.1056 109.794Z" fill="#D4ECFF"/>
<path d="M30.0531 98.3521L26.8272 96.5214C26.5968 96.3841 26.3664 95.9722 26.3664 95.6519C26.3664 95.3315 26.5507 95.1484 26.8272 95.3315L30.0531 97.1622C30.2836 97.2995 30.514 97.7114 30.514 98.0317C30.514 98.3521 30.2836 98.4894 30.0531 98.3521Z" fill="#D4ECFF"/>
<path d="M32.6353 99.6641C32.8337 99.5504 32.8294 99.1743 32.6258 98.824C32.4222 98.4738 32.0963 98.2821 31.898 98.3959C31.6996 98.5096 31.7038 98.8857 31.9075 99.2359C32.1111 99.5862 32.4369 99.7779 32.6353 99.6641Z" fill="#173D7A"/>
<path d="M34.6161 100.411C34.6161 100.732 34.3857 100.869 34.1092 100.732C33.8327 100.549 33.6023 100.137 33.6023 99.8165C33.6023 99.4961 33.8327 99.3588 34.1092 99.4961C34.3857 99.6334 34.6161 100.045 34.6161 100.411Z" fill="#173D7A"/>
<path d="M36.5063 101.464C36.5063 101.784 36.2759 101.922 35.9994 101.784C35.7229 101.601 35.4925 101.189 35.4925 100.869C35.4925 100.549 35.7229 100.411 35.9994 100.549C36.2759 100.686 36.5063 101.144 36.5063 101.464Z" fill="#D4ECFF"/>
<path d="M38.3487 102.517C38.3487 102.837 38.1183 102.974 37.8418 102.837C37.5653 102.654 37.3349 102.242 37.3349 101.922C37.3349 101.601 37.5653 101.464 37.8418 101.601C38.1183 101.784 38.3487 102.196 38.3487 102.517Z" fill="#173D7A"/>
<path d="M46.1827 107.963L45.0767 107.322C44.8923 107.231 44.8002 107.002 44.8002 106.773V105.629C44.8002 105.4 44.9384 105.309 45.0767 105.4L46.1827 106.041C46.367 106.132 46.4592 106.361 46.4592 106.59V107.734C46.5053 107.963 46.367 108.055 46.1827 107.963Z" fill="#173D7A"/>
<path d="M47.7505 118.947L24.8927 105.858C24.3857 105.583 23.971 104.759 23.971 104.119V99.7708C23.971 99.0843 24.3857 98.7639 24.8927 99.0843L47.7505 112.219C48.2575 112.494 48.6722 113.318 48.6722 113.958V118.306C48.6722 118.947 48.2575 119.267 47.7505 118.947Z" fill="#5793CE"/>
<path opacity="0.4" d="M47.1056 117.437L25.5381 105.08C25.2616 104.942 25.0772 104.531 25.0772 104.164V100.915C25.0772 100.549 25.3077 100.412 25.5381 100.549L47.1056 112.906C47.3821 113.043 47.5664 113.455 47.5664 113.821V117.071C47.5664 117.437 47.3821 117.574 47.1056 117.437Z" fill="#D4ECFF"/>
<path d="M30.0531 105.995L26.8272 104.165C26.5968 104.027 26.3664 103.615 26.3664 103.295C26.3664 102.975 26.5507 102.792 26.8272 102.975L30.0531 104.805C30.2836 104.943 30.514 105.354 30.514 105.675C30.514 105.995 30.2836 106.132 30.0531 105.995Z" fill="#D4ECFF"/>
<path d="M33.3724 107.368C33.3724 108.009 32.9116 108.237 32.3585 107.917C31.8055 107.597 31.3447 106.819 31.3447 106.224C31.3447 105.583 31.8055 105.354 32.3585 105.675C32.9116 105.995 33.3724 106.773 33.3724 107.368Z" fill="white"/>
<path d="M37.2439 109.611C37.2439 109.931 37.0134 110.068 36.7369 109.931C36.4604 109.748 36.23 109.336 36.23 109.016C36.23 108.695 36.4604 108.558 36.7369 108.695C36.9673 108.878 37.2439 109.29 37.2439 109.611Z" fill="#173D7A"/>
<path d="M39.0863 110.709C39.0863 111.029 38.8558 111.167 38.5793 111.029C38.3028 110.846 38.0724 110.434 38.0724 110.114C38.0724 109.794 38.3028 109.656 38.5793 109.794C38.8558 109.931 39.0863 110.343 39.0863 110.709Z" fill="#D4ECFF"/>
<path d="M40.9314 111.762C40.9314 112.082 40.701 112.219 40.4245 112.082C40.148 111.899 39.9175 111.487 39.9175 111.167C39.9175 110.846 40.148 110.709 40.4245 110.846C40.701 111.03 40.9314 111.441 40.9314 111.762Z" fill="#173D7A"/>
<path d="M46.1827 115.606L45.0767 114.965C44.8923 114.874 44.8002 114.645 44.8002 114.416V113.272C44.8002 113.043 44.9384 112.952 45.0767 113.043L46.1827 113.684C46.367 113.775 46.4592 114.004 46.4592 114.233V115.377C46.5053 115.606 46.367 115.698 46.1827 115.606Z" fill="#D4ECFF"/>
<path d="M46.2284 138.123C46.1363 138.123 46.0902 138.123 45.998 138.078L20.0064 123.387C19.6838 123.203 19.4995 122.883 19.4995 122.517C19.4995 122.151 19.6838 121.83 20.0064 121.647L31.1588 115.103C31.5736 114.874 31.804 114.462 31.804 114.004V106.819C31.804 106.544 31.9884 106.361 32.2649 106.361C32.5414 106.361 32.7257 106.544 32.7257 106.819V114.004C32.7257 114.782 32.311 115.515 31.6197 115.881L20.4673 122.425C20.4212 122.425 20.4212 122.471 20.4212 122.517C20.4212 122.563 20.4212 122.563 20.4673 122.608L46.4589 137.3C46.6893 137.437 46.7354 137.711 46.6432 137.94C46.551 138.078 46.4128 138.123 46.2284 138.123Z" fill="#5793CE"/>
<path d="M41.3047 136.376L42.5425 134.232L37.905 131.592L36.6672 133.736L41.3047 136.376Z" fill="#5793CE"/>
<path d="M36.413 133.18C36.413 132.631 36.7817 131.945 37.2886 131.67C37.7495 131.395 38.1642 131.624 38.1642 132.174C38.1642 132.723 37.7955 133.409 37.2886 133.684C36.7817 133.913 36.413 133.73 36.413 133.18Z" fill="#5793CE"/>
<path d="M47.3689 140.709L49.3631 137.254L42.127 133.134L40.1328 136.588L47.3689 140.709Z" fill="#5793CE"/>
<path d="M41.759 133.775L40.1921 132.906C39.5469 133.363 39.04 134.233 38.9478 135.057L40.5147 135.926C41.1599 135.469 41.6668 134.599 41.759 133.775Z" fill="#396CAA"/>
<path d="M39.6852 135.652C39.6852 134.736 40.3304 133.684 41.1138 133.226C41.8972 132.768 42.5424 133.135 42.5424 134.05C42.5424 134.965 41.8972 136.018 41.1138 136.476C40.3304 136.887 39.6852 136.521 39.6852 135.652Z" fill="#5793CE"/>
<path d="M37.8874 132.585C37.657 132.448 37.657 132.265 37.8874 132.128C38.1178 131.99 38.4865 131.99 38.7169 132.128C38.9473 132.265 38.9473 132.448 38.7169 132.585C38.4404 132.723 38.0717 132.723 37.8874 132.585Z" fill="#D4ECFF"/>
<path d="M35.6694 139.748L36.9072 137.604L32.2698 134.963L31.032 137.107L35.6694 139.748Z" fill="#5793CE"/>
<path d="M30.79 136.521C30.79 135.972 31.1587 135.285 31.6656 135.011C32.1265 134.736 32.5412 134.965 32.5412 135.514C32.5412 136.064 32.1726 136.75 31.6656 137.025C31.1587 137.299 30.79 137.07 30.79 136.521Z" fill="#5793CE"/>
<path d="M41.7322 144.08L43.7265 140.625L36.4904 136.505L34.4961 139.959L41.7322 144.08Z" fill="#5793CE"/>
<path d="M36.136 137.162L34.5691 136.292C33.924 136.75 33.417 137.62 33.3249 138.444L34.8917 139.313C35.5369 138.855 36.0438 137.94 36.136 137.162Z" fill="#396CAA"/>
<path d="M34.0622 139.038C34.0622 138.123 34.7074 137.07 35.4908 136.613C36.2743 136.155 36.9194 136.521 36.9194 137.437C36.9194 138.352 36.2743 139.405 35.4908 139.862C34.7074 140.274 34.0622 139.908 34.0622 139.038Z" fill="#5793CE"/>
<path d="M32.2193 135.972C31.9889 135.835 31.9889 135.652 32.2193 135.514C32.4498 135.377 32.8184 135.377 33.0488 135.514C33.2793 135.652 33.2793 135.835 33.0488 135.972C32.8184 136.109 32.4498 136.109 32.2193 135.972Z" fill="#D4ECFF"/>
<path d="M96.3214 189.902L35.498 155.043C33.7692 154.055 33.9787 152.338 35.9695 151.193L77.4091 127.469C79.3998 126.324 82.386 126.22 84.1148 127.209L144.938 162.119C146.667 163.108 146.458 164.824 144.467 165.969L103.027 189.694C101.089 190.786 98.0503 190.89 96.3214 189.902Z" fill="#B2D3EA"/>
<path d="M159.241 100.258L98.3654 65.3478C97.6843 64.9316 96.9509 64.8795 96.3222 65.0876L96.2175 65.1397C96.2175 65.1397 96.2175 65.1397 96.1651 65.1397L93.9647 65.9721L95.9555 66.9086C95.9555 66.9606 95.9555 66.9606 95.9031 67.0127L86.0016 111.808C85.5301 114.046 86.4731 116.647 88.202 117.635L147.559 151.661L147.349 154.159L149.759 153.222C150.545 152.858 151.226 151.974 151.488 150.777L161.389 105.981C161.913 103.848 160.97 101.247 159.241 100.258Z" fill="#173D7A"/>
<path d="M159.24 100.258L98.3647 65.3478C97.6836 64.9316 96.9502 64.8795 96.3215 65.0876L96.2167 65.1397C96.2167 65.1397 96.2167 65.1397 96.1643 65.1397L93.964 65.9721L95.9548 66.9086C95.9548 66.9606 95.9548 66.9606 95.9024 67.0127L89.3538 96.5643L119.111 119.612L161.074 102.652C160.76 101.611 160.079 100.727 159.24 100.258Z" fill="#396CAA"/>
<path d="M156.932 107.126L161.542 105.149C161.647 103.38 160.861 101.507 159.656 100.519L152.322 103.588L156.932 107.126Z" fill="#274F89"/>
<path d="M145.305 154.003L84.4815 119.092C82.7527 118.104 81.7573 115.502 82.2812 113.265L92.1826 68.4696C92.6541 66.2324 94.4878 65.1919 96.2166 66.1804L157.04 101.091C158.769 102.079 159.764 104.681 159.24 106.918L149.339 151.714C148.815 154.003 147.034 154.991 145.305 154.003Z" fill="#D4ECFF"/>
<path d="M143.994 150.673L86.7857 117.896C85.214 117.011 84.3234 114.618 84.7425 112.537L93.8058 71.5391C94.2773 69.51 95.9014 68.5735 97.473 69.458L154.682 102.235C156.253 103.12 157.144 105.513 156.725 107.594L147.661 148.592C147.19 150.673 145.566 151.609 143.994 150.673Z" fill="white"/>
<path d="M143.994 150.673L86.7857 117.896C85.214 117.011 84.3234 114.618 84.7425 112.537L93.8058 71.5391C94.2773 69.51 95.9014 68.5735 97.473 69.458L154.682 102.235C156.253 103.12 157.144 105.513 156.725 107.594L147.661 148.592C147.19 150.673 145.566 151.609 143.994 150.673Z" fill="white"/>
<path d="M146.143 155.511L137.813 154.419L84.1148 123.619C82.3859 122.63 79.3998 122.734 77.409 123.879L39.3747 145.678L34.3454 145.002V147.811C34.293 148.488 34.7121 149.112 35.4979 149.58L96.3214 184.491C98.0502 185.479 101.036 185.375 103.027 184.231L144.467 160.506C145.567 159.882 146.143 159.049 146.091 158.269V155.511H146.143Z" fill="#173D7A"/>
<path d="M105.804 136.105L101.979 133.92H60.0683L39.3747 145.782L34.3454 145.106V147.915C34.293 148.592 34.7121 149.216 35.4979 149.684L96.3214 184.595C97.212 185.115 98.5217 185.323 99.779 185.219L105.804 136.105Z" fill="#396CAA"/>
<path d="M36.545 145.366L34.2923 145.054V147.863C34.2399 148.54 34.659 149.164 35.4448 149.632L36.4926 150.257V145.366H36.545Z" fill="#5793CE"/>
<path d="M96.9488 184.855C98.5728 185.479 100.93 185.323 102.659 184.491V178.143H96.9488V184.855Z" fill="#274F89"/>
<path d="M96.3214 181.733L35.498 146.823C33.7692 145.834 33.9787 144.117 35.9695 142.973L77.4091 119.248C79.3998 118.104 82.386 118 84.1148 118.988L144.938 153.899C146.667 154.887 146.458 156.604 144.467 157.749L103.027 181.473C101.089 182.566 98.0503 182.722 96.3214 181.733Z" fill="#D4ECFF"/>
<path d="M144.466 156.656L103.027 180.381C101.036 181.525 98.0498 181.629 96.321 180.641L35.4975 145.782C34.9212 145.47 34.6069 145.054 34.4497 144.638C34.1878 145.47 34.5021 146.251 35.4975 146.823L96.321 181.733C98.0498 182.722 101.036 182.618 103.027 181.473L144.466 157.749C145.776 156.968 146.352 155.928 146.038 155.043C145.828 155.616 145.305 156.188 144.466 156.656Z" fill="white"/>
<path d="M61.3759 135.273L58.5993 133.712C58.3897 133.608 58.3897 133.348 58.6517 133.192L61.8998 131.319C62.1617 131.162 62.5284 131.162 62.738 131.266L65.5146 132.827C65.7242 132.931 65.7242 133.192 65.4622 133.348L62.2141 135.221C62.0045 135.377 61.5854 135.429 61.3759 135.273Z" fill="#173D7A"/>
<path d="M65.6206 137.718L62.844 136.157C62.6345 136.053 62.6345 135.793 62.8964 135.637L66.1445 133.764C66.4065 133.608 66.7732 133.608 66.9828 133.712L69.7594 135.273C69.9689 135.377 69.9689 135.637 69.707 135.793L66.4589 137.666C66.2493 137.822 65.8302 137.874 65.6206 137.718Z" fill="#173D7A"/>
<path d="M69.8627 140.163L67.0861 138.602C66.8765 138.498 66.8765 138.238 67.1385 138.082L70.3866 136.209C70.6485 136.053 71.0152 136.053 71.2248 136.157L74.0014 137.718C74.211 137.822 74.211 138.082 73.949 138.238L70.7009 140.111C70.4914 140.267 70.0722 140.267 69.8627 140.163Z" fill="#173D7A"/>
<path d="M75.7819 138.134L73.0053 136.573C72.7957 136.469 72.7957 136.209 73.0577 136.053L75.7819 134.492C76.0438 134.336 76.4105 134.336 76.6201 134.44L79.3967 136.001C79.6063 136.105 79.6063 136.365 79.3443 136.521L76.6201 138.082C76.3581 138.238 75.9914 138.29 75.7819 138.134Z" fill="#173D7A"/>
<path d="M80.0266 140.579L77.25 139.019C77.0405 138.915 77.0405 138.654 77.3024 138.498L80.0266 136.938C80.2886 136.781 80.6553 136.781 80.8649 136.886L83.6415 138.446C83.851 138.55 83.851 138.811 83.5891 138.967L80.8649 140.527C80.6029 140.684 80.2362 140.736 80.0266 140.579Z" fill="#173D7A"/>
<path d="M84.27 143.025L81.4934 141.464C81.2839 141.36 81.2839 141.1 81.5458 140.944L84.27 139.383C84.532 139.227 84.8987 139.227 85.1083 139.331L87.8849 140.892C88.0944 140.996 88.0944 141.256 87.8325 141.412L85.1083 142.973C84.8463 143.129 84.4796 143.129 84.27 143.025Z" fill="#173D7A"/>
<path d="M88.5121 145.47L85.7355 143.909C85.5259 143.805 85.5259 143.545 85.7879 143.389L88.5121 141.828C88.774 141.672 89.1407 141.672 89.3503 141.776L92.1269 143.337C92.3365 143.441 92.3365 143.701 92.0745 143.857L89.3503 145.418C89.1407 145.574 88.7216 145.574 88.5121 145.47Z" fill="#173D7A"/>
<path d="M92.7569 147.915L89.9802 146.355C89.7707 146.251 89.7707 145.99 90.0326 145.834L92.7569 144.273C93.0188 144.117 93.3855 144.117 93.5951 144.221L96.3717 145.782C96.5812 145.886 96.5812 146.146 96.3193 146.303L93.5951 147.863C93.3855 148.019 92.9664 148.019 92.7569 147.915Z" fill="#173D7A"/>
<path d="M97.0003 150.36L94.2237 148.8C94.0141 148.695 94.0141 148.435 94.276 148.279L97.0003 146.718C97.2622 146.562 97.6289 146.562 97.8385 146.666L100.615 148.227C100.825 148.331 100.825 148.591 100.563 148.747L97.8385 150.308C97.6289 150.464 97.2098 150.464 97.0003 150.36Z" fill="#173D7A"/>
<path d="M101.245 152.754L98.4684 151.193C98.2589 151.089 98.2589 150.829 98.5208 150.673L101.245 149.112C101.507 148.956 101.874 148.956 102.083 149.06L104.86 150.621C105.069 150.725 105.069 150.985 104.807 151.141L102.083 152.702C101.874 152.91 101.507 152.91 101.245 152.754Z" fill="#173D7A"/>
<path d="M105.54 155.199L102.764 153.638C102.554 153.534 102.554 153.274 102.816 153.118L105.54 151.557C105.802 151.401 106.169 151.401 106.379 151.505L109.155 153.066C109.365 153.17 109.365 153.43 109.103 153.586L106.379 155.147C106.117 155.303 105.75 155.355 105.54 155.199Z" fill="#173D7A"/>
<path d="M109.784 157.645L107.007 156.084C106.798 155.98 106.798 155.72 107.06 155.563L109.784 154.003C110.046 153.847 110.412 153.847 110.622 153.951L113.399 155.511C113.608 155.615 113.608 155.876 113.346 156.032L110.622 157.592C110.36 157.749 109.993 157.801 109.784 157.645Z" fill="#173D7A"/>
<path d="M114.028 160.09L111.252 158.529C111.042 158.425 111.042 158.165 111.304 158.009L114.028 156.448C114.29 156.292 114.657 156.292 114.867 156.396L117.643 157.957C117.853 158.061 117.853 158.321 117.591 158.477L114.867 160.038C114.605 160.194 114.238 160.194 114.028 160.09Z" fill="#173D7A"/>
<path d="M82.0164 136.989L79.2398 135.429C79.0303 135.325 79.0303 135.064 79.2922 134.908L82.0164 133.348C82.2784 133.191 82.6451 133.191 82.8547 133.296L85.6313 134.856C85.8408 134.96 85.8408 135.221 85.5789 135.377L82.8547 136.937C82.6451 137.094 82.226 137.146 82.0164 136.989Z" fill="#396CAA"/>
<path d="M77.7213 134.544L74.9447 132.984C74.7352 132.88 74.7352 132.619 74.9971 132.463L77.7213 130.902C77.9833 130.746 78.35 130.746 78.5596 130.85L81.3362 132.411C81.5457 132.515 81.5457 132.775 81.2838 132.932L78.5596 134.492C78.2976 134.648 77.9309 134.648 77.7213 134.544Z" fill="#396CAA"/>
<path d="M73.3734 132.047L67.4535 128.665C67.2439 128.561 67.2439 128.301 67.5059 128.145L70.2301 126.584C70.492 126.428 70.8588 126.428 71.0683 126.532L76.9882 129.914C77.1978 130.018 77.1978 130.278 76.9359 130.434L74.2116 131.995C74.0021 132.151 73.583 132.151 73.3734 132.047Z" fill="#173D7A"/>
<path d="M76.4115 129.029L71.5917 126.272C71.3822 126.168 71.3822 125.907 71.6441 125.751L74.3683 124.191C74.6303 124.035 74.997 124.035 75.2065 124.139L80.0263 126.896C80.2359 127 80.2359 127.26 79.9739 127.416L77.2497 128.977C76.9878 129.133 76.621 129.133 76.4115 129.029Z" fill="#173D7A"/>
<path d="M86.2613 139.435L83.4847 137.874C83.2752 137.77 83.2752 137.51 83.5371 137.354L86.2613 135.793C86.5233 135.637 86.89 135.637 87.0995 135.741L89.8761 137.302C90.0857 137.406 90.0857 137.666 89.8238 137.822L87.0995 139.383C86.89 139.539 86.4709 139.539 86.2613 139.435Z" fill="#396CAA"/>
<path d="M90.5034 141.88L87.7267 140.319C87.5172 140.215 87.5172 139.955 87.7791 139.799L90.5034 138.238C90.7653 138.082 91.132 138.082 91.3416 138.186L94.1182 139.747C94.3277 139.851 94.3277 140.111 94.0658 140.267L91.3416 141.828C91.132 141.984 90.7653 141.984 90.5034 141.88Z" fill="#173D7A"/>
<path d="M94.8001 144.325L92.0235 142.765C91.8139 142.661 91.8139 142.4 92.0759 142.244L94.8001 140.684C95.062 140.527 95.4288 140.527 95.6383 140.631L98.4149 142.192C98.6245 142.296 98.6245 142.556 98.3625 142.713L95.6383 144.273C95.3764 144.429 95.0096 144.429 94.8001 144.325Z" fill="#173D7A"/>
<path d="M99.0421 146.771L96.2655 145.21C96.0559 145.106 96.0559 144.846 96.3179 144.69L99.0421 143.129C99.304 142.973 99.6707 142.973 99.8803 143.077L102.657 144.638C102.866 144.742 102.866 145.002 102.605 145.158L99.8803 146.719C99.6183 146.875 99.2516 146.875 99.0421 146.771Z" fill="#173D7A"/>
<path d="M103.287 149.164L100.51 147.603C100.301 147.499 100.301 147.239 100.563 147.083L103.287 145.522C103.549 145.366 103.915 145.366 104.125 145.47L106.902 147.031C107.111 147.135 107.111 147.395 106.849 147.551L104.125 149.112C103.863 149.32 103.496 149.32 103.287 149.164Z" fill="#173D7A"/>
<path d="M107.53 151.609L104.754 150.048C104.544 149.944 104.544 149.684 104.806 149.528L107.53 147.967C107.792 147.811 108.159 147.811 108.368 147.915L111.145 149.476C111.355 149.58 111.355 149.84 111.093 149.996L108.368 151.557C108.159 151.713 107.74 151.765 107.53 151.609Z" fill="#173D7A"/>
<path d="M111.775 154.055L108.998 152.494C108.789 152.39 108.789 152.13 109.051 151.974L111.775 150.413C112.037 150.257 112.404 150.257 112.613 150.361L115.39 151.922C115.599 152.026 115.599 152.286 115.337 152.442L112.613 154.003C112.404 154.159 111.985 154.211 111.775 154.055Z" fill="#173D7A"/>
<path d="M116.018 156.5L113.242 154.939C113.032 154.835 113.032 154.575 113.294 154.419L116.018 152.858C116.28 152.702 116.647 152.702 116.857 152.806L119.633 154.367C119.843 154.471 119.843 154.731 119.581 154.887L116.857 156.448C116.647 156.604 116.28 156.604 116.018 156.5Z" fill="#173D7A"/>
<path d="M120.262 158.945L117.485 157.384C117.276 157.28 117.276 157.02 117.538 156.864L120.262 155.303C120.524 155.147 120.89 155.147 121.1 155.251L123.877 156.812C124.086 156.916 124.086 157.176 123.824 157.332L121.1 158.893C120.89 159.049 120.524 159.049 120.262 158.945Z" fill="#173D7A"/>
<path d="M127.857 163.263L121.832 159.83C121.623 159.726 121.623 159.465 121.885 159.309L124.609 157.749C124.871 157.592 125.238 157.592 125.447 157.697L131.472 161.13C131.682 161.234 131.682 161.495 131.42 161.651L128.695 163.211C128.433 163.368 128.067 163.42 127.857 163.263Z" fill="#173D7A"/>
<path d="M136.137 158.529L131.055 155.616C130.846 155.512 130.846 155.251 131.108 155.095L133.832 153.534C134.094 153.378 134.461 153.378 134.67 153.482L139.752 156.396C139.961 156.5 139.961 156.76 139.7 156.916L136.975 158.477C136.713 158.633 136.347 158.633 136.137 158.529Z" fill="#173D7A"/>
<path d="M93.6992 138.967L90.9226 137.406C90.7131 137.302 90.7131 137.042 90.975 136.886L93.6992 135.325C93.9612 135.169 94.3279 135.169 94.5374 135.273L97.314 136.834C97.5236 136.938 97.5236 137.198 97.2617 137.354L94.5374 138.915C94.3279 139.071 93.9612 139.071 93.6992 138.967Z" fill="#173D7A"/>
<path d="M89.3493 136.469L86.5727 134.908C86.3631 134.804 86.3631 134.544 86.6251 134.388L89.3493 132.827C89.6112 132.671 89.978 132.671 90.1875 132.775L92.9641 134.336C93.1737 134.44 93.1737 134.7 92.9117 134.856L90.1875 136.417C89.978 136.573 89.5588 136.573 89.3493 136.469Z" fill="#173D7A"/>
<path d="M85.0035 133.972L82.2269 132.411C82.0173 132.307 82.0173 132.047 82.2792 131.891L85.0035 130.33C85.2654 130.174 85.6321 130.174 85.8417 130.278L88.6183 131.839C88.8278 131.943 88.8278 132.203 88.5659 132.359L85.8417 133.92C85.6321 134.076 85.213 134.076 85.0035 133.972Z" fill="#396CAA"/>
<path d="M80.6549 131.475L77.8783 129.914C77.6687 129.81 77.6687 129.55 77.9307 129.394L80.6549 127.833C80.9168 127.677 81.2836 127.677 81.4931 127.781L84.2697 129.341C84.4793 129.446 84.4793 129.706 84.2173 129.862L81.4931 131.423C81.2312 131.579 80.8644 131.579 80.6549 131.475Z" fill="#173D7A"/>
<path d="M97.9427 141.412L95.1661 139.851C94.9565 139.747 94.9565 139.487 95.2185 139.331L97.9427 137.77C98.2046 137.614 98.5714 137.614 98.7809 137.718L101.558 139.279C101.767 139.383 101.767 139.643 101.505 139.799L98.7809 141.36C98.5714 141.516 98.2046 141.516 97.9427 141.412Z" fill="#173D7A"/>
<path d="M102.239 143.857L99.4627 142.296C99.2531 142.192 99.2531 141.932 99.5151 141.776L102.239 140.215C102.501 140.059 102.868 140.059 103.078 140.163L105.854 141.724C106.064 141.828 106.064 142.088 105.802 142.244L103.078 143.805C102.816 143.961 102.449 143.961 102.239 143.857Z" fill="#173D7A"/>
<path d="M106.483 146.25L103.706 144.69C103.497 144.586 103.497 144.325 103.758 144.169L106.483 142.609C106.745 142.452 107.111 142.452 107.321 142.557L110.098 144.117C110.307 144.221 110.307 144.482 110.045 144.638L107.321 146.198C107.059 146.355 106.692 146.407 106.483 146.25Z" fill="#173D7A"/>
<path d="M110.726 148.696L107.949 147.135C107.74 147.031 107.74 146.771 108.002 146.615L110.726 145.054C110.988 144.898 111.355 144.898 111.564 145.002L114.341 146.563C114.55 146.667 114.55 146.927 114.289 147.083L111.564 148.644C111.355 148.8 110.936 148.852 110.726 148.696Z" fill="#173D7A"/>
<path d="M114.968 151.141L112.192 149.58C111.982 149.476 111.982 149.216 112.244 149.06L114.968 147.499C115.23 147.343 115.597 147.343 115.806 147.447L118.583 149.008C118.793 149.112 118.793 149.372 118.531 149.528L115.806 151.089C115.597 151.245 115.178 151.297 114.968 151.141Z" fill="#173D7A"/>
<path d="M119.213 153.586L116.436 152.026C116.227 151.922 116.227 151.661 116.489 151.505L119.213 149.944C119.475 149.788 119.842 149.788 120.051 149.892L122.828 151.453C123.037 151.557 123.037 151.817 122.775 151.974L120.051 153.534C119.842 153.69 119.422 153.69 119.213 153.586Z" fill="#173D7A"/>
<path d="M123.458 156.032L120.681 154.471C120.472 154.367 120.472 154.107 120.733 153.951L123.458 152.39C123.72 152.234 124.086 152.234 124.296 152.338L127.073 153.899C127.282 154.003 127.282 154.263 127.02 154.419L124.296 155.98C124.086 156.136 123.72 156.136 123.458 156.032Z" fill="#173D7A"/>
<path d="M127.752 158.477L124.975 156.916C124.765 156.812 124.765 156.552 125.027 156.396L127.752 154.835C128.014 154.679 128.38 154.679 128.59 154.783L131.366 156.344C131.576 156.448 131.576 156.708 131.314 156.864L128.59 158.425C128.328 158.581 127.961 158.581 127.752 158.477Z" fill="#173D7A"/>
<path d="M131.996 160.87L129.22 159.309C129.01 159.205 129.01 158.945 129.272 158.789L131.996 157.228C132.258 157.072 132.625 157.072 132.835 157.176L135.611 158.737C135.821 158.841 135.821 159.101 135.559 159.257L132.835 160.818C132.573 161.026 132.206 161.026 131.996 160.87Z" fill="#173D7A"/>
<path d="M91.499 132.931L88.7224 131.371C88.5128 131.267 88.5128 131.006 88.7748 130.85L91.499 129.289C91.7609 129.133 92.1277 129.133 92.3372 129.237L95.1138 130.798C95.3234 130.902 95.3234 131.162 95.0614 131.319L92.3372 132.879C92.0753 133.035 91.7085 133.035 91.499 132.931Z" fill="#173D7A"/>
<path d="M87.2557 130.486L84.4791 128.925C84.2695 128.821 84.2696 128.561 84.5315 128.405L87.2557 126.844C87.5177 126.688 87.8844 126.688 88.0939 126.792L90.8705 128.353C91.0801 128.457 91.0801 128.717 90.8182 128.873L88.0939 130.434C87.832 130.59 87.4653 130.642 87.2557 130.486Z" fill="#173D7A"/>
<path d="M83.0136 128.093L80.237 126.532C80.0274 126.428 80.0274 126.168 80.2893 126.012L83.0136 124.451C83.2755 124.295 83.6422 124.295 83.8518 124.399L86.6284 125.96C86.838 126.064 86.8379 126.324 86.576 126.48L83.8518 128.041C83.6422 128.197 83.2231 128.197 83.0136 128.093Z" fill="#173D7A"/>
<path d="M78.7688 125.647L75.9922 124.087C75.7826 123.983 75.7826 123.722 76.0446 123.566L78.7688 122.006C79.0307 121.849 79.3974 121.849 79.607 121.954L82.3836 123.514C82.5932 123.618 82.5932 123.879 82.3312 124.035L79.607 125.595C79.3974 125.752 79.0307 125.752 78.7688 125.647Z" fill="#173D7A"/>
<path d="M83.1158 123.15L80.3392 121.59C80.1297 121.485 80.1297 121.225 80.3916 121.069L81.2822 120.549C81.5442 120.393 81.9109 120.393 82.1204 120.497L84.8971 122.058C85.1066 122.162 85.1066 122.422 84.8447 122.578L83.9541 123.098C83.7445 123.254 83.3778 123.306 83.1158 123.15Z" fill="#173D7A"/>
<path d="M88.6691 126.324L85.8925 124.763C85.683 124.659 85.683 124.399 85.9449 124.243L86.8355 123.722C87.0975 123.566 87.4642 123.566 87.6738 123.67L90.4504 125.231C90.6599 125.335 90.6599 125.595 90.398 125.751L89.5074 126.272C89.2454 126.428 88.8787 126.428 88.6691 126.324Z" fill="#173D7A"/>
<path d="M92.8608 128.717L90.0842 127.156C89.8746 127.052 89.8746 126.792 90.1366 126.636L91.0272 126.116C91.2891 125.96 91.6558 125.96 91.8654 126.064L94.642 127.625C94.8516 127.729 94.8516 127.989 94.5896 128.145L93.699 128.665C93.4895 128.873 93.0703 128.873 92.8608 128.717Z" fill="#173D7A"/>
<path d="M97.1054 131.163L94.3288 129.602C94.1193 129.498 94.1193 129.238 94.3812 129.081L95.2718 128.561C95.5338 128.405 95.9005 128.405 96.11 128.509L98.8866 130.07C99.0962 130.174 99.0962 130.434 98.8343 130.59L97.9436 131.111C97.6817 131.267 97.315 131.267 97.1054 131.163Z" fill="#173D7A"/>
<path d="M101.297 133.556L98.5203 131.995C98.3108 131.891 98.3108 131.631 98.5727 131.475L99.4633 130.954C99.7253 130.798 100.092 130.798 100.302 130.902L103.078 132.463C103.288 132.567 103.288 132.827 103.026 132.983L102.135 133.504C101.926 133.66 101.506 133.712 101.297 133.556Z" fill="#173D7A"/>
<path d="M124.818 147.031L122.041 145.47C121.832 145.366 121.832 145.106 122.094 144.95L122.984 144.429C123.246 144.273 123.613 144.273 123.823 144.377L126.599 145.938C126.809 146.042 126.809 146.302 126.547 146.458L125.656 146.979C125.447 147.187 125.028 147.187 124.818 147.031Z" fill="#173D7A"/>
<path d="M129.011 149.476L126.234 147.915C126.025 147.811 126.025 147.551 126.287 147.395L127.177 146.875C127.439 146.719 127.806 146.719 128.015 146.823L130.792 148.384C131.002 148.488 131.002 148.748 130.74 148.904L129.849 149.424C129.64 149.58 129.273 149.58 129.011 149.476Z" fill="#173D7A"/>
<path d="M133.256 151.869L130.479 150.309C130.269 150.205 130.269 149.944 130.531 149.788L131.422 149.268C131.684 149.112 132.051 149.112 132.26 149.216L135.037 150.777C135.246 150.881 135.246 151.141 134.984 151.297L134.094 151.817C133.832 151.974 133.465 152.026 133.256 151.869Z" fill="#173D7A"/>
<path d="M137.444 154.315L134.668 152.754C134.458 152.65 134.458 152.39 134.72 152.234L135.611 151.714C135.873 151.557 136.239 151.557 136.449 151.662L139.226 153.222C139.435 153.326 139.435 153.587 139.173 153.743L138.283 154.263C138.073 154.419 137.654 154.419 137.444 154.315Z" fill="#173D7A"/>
<path d="M95.7438 135.377L92.9672 133.816C92.7576 133.712 92.7576 133.452 93.0195 133.296L95.7438 131.735C96.0057 131.579 96.3724 131.579 96.582 131.683L99.3586 133.244C99.5682 133.348 99.5681 133.608 99.3062 133.764L96.582 135.325C96.32 135.481 95.9533 135.481 95.7438 135.377Z" fill="#173D7A"/>
<path d="M99.9858 137.822L97.2092 136.261C96.9996 136.157 96.9996 135.897 97.2616 135.741L99.9858 134.18C100.248 134.024 100.614 134.024 100.824 134.128L103.601 135.689C103.81 135.793 103.81 136.053 103.548 136.209L100.824 137.77C100.614 137.926 100.195 137.926 99.9858 137.822Z" fill="#173D7A"/>
<path d="M104.231 140.215L101.454 138.655C101.244 138.55 101.244 138.29 101.506 138.134L104.231 136.573C104.493 136.417 104.859 136.417 105.069 136.521L107.845 138.082C108.055 138.186 108.055 138.446 107.793 138.602L105.069 140.163C104.859 140.371 104.44 140.371 104.231 140.215Z" fill="#173D7A"/>
<path d="M108.473 142.661L105.696 141.1C105.486 140.996 105.486 140.736 105.748 140.579L108.473 139.019C108.734 138.863 109.101 138.863 109.311 138.967L112.087 140.527C112.297 140.631 112.297 140.892 112.035 141.048L109.311 142.608C109.101 142.765 108.682 142.817 108.473 142.661Z" fill="#173D7A"/>
<path d="M112.716 145.106L109.939 143.545C109.73 143.441 109.73 143.181 109.992 143.025L112.716 141.464C112.978 141.308 113.345 141.308 113.554 141.412L116.331 142.973C116.54 143.077 116.54 143.337 116.278 143.493L113.554 145.054C113.345 145.21 112.978 145.262 112.716 145.106Z" fill="#173D7A"/>
<path d="M117.011 147.551L114.235 145.99C114.025 145.886 114.025 145.626 114.287 145.47L117.011 143.909C117.273 143.753 117.64 143.753 117.85 143.857L120.626 145.418C120.836 145.522 120.836 145.782 120.574 145.938L117.85 147.499C117.588 147.655 117.221 147.655 117.011 147.551Z" fill="#173D7A"/>
<path d="M121.256 149.997L118.479 148.436C118.27 148.332 118.27 148.072 118.532 147.915L121.256 146.355C121.518 146.199 121.885 146.199 122.094 146.303L124.871 147.863C125.08 147.968 125.08 148.228 124.818 148.384L122.094 149.945C121.832 150.101 121.466 150.101 121.256 149.997Z" fill="#173D7A"/>
<path d="M125.499 152.442L122.723 150.881C122.513 150.777 122.513 150.517 122.775 150.361L125.499 148.8C125.761 148.644 126.128 148.644 126.338 148.748L129.114 150.309C129.324 150.413 129.324 150.673 129.062 150.829L126.338 152.39C126.076 152.546 125.709 152.546 125.499 152.442Z" fill="#173D7A"/>
<path d="M129.743 154.887L126.966 153.326C126.757 153.222 126.757 152.962 127.019 152.806L129.743 151.245C130.005 151.089 130.372 151.089 130.581 151.193L133.358 152.754C133.567 152.858 133.567 153.118 133.305 153.274L130.581 154.835C130.372 154.991 129.952 154.991 129.743 154.887Z" fill="#173D7A"/>
<path d="M71.4341 135.689L63.3139 131.059C63.1043 130.955 63.1043 130.694 63.3662 130.538L66.0905 128.977C66.3524 128.821 66.7191 128.821 66.9287 128.925L75.049 133.556C75.2585 133.66 75.2585 133.92 74.9966 134.076L72.2723 135.637C72.0104 135.793 71.6437 135.793 71.4341 135.689Z" fill="#173D7A"/>
<path d="M123.667 165.605L115.547 160.974C115.338 160.87 115.338 160.61 115.599 160.454L118.324 158.893C118.586 158.737 118.952 158.737 119.162 158.841L127.282 163.472C127.492 163.576 127.492 163.836 127.23 163.992L124.506 165.553C124.244 165.709 123.877 165.761 123.667 165.605Z" fill="#173D7A"/>
<path d="M106.641 161.235L103.865 159.674C103.655 159.57 103.655 159.31 103.917 159.153L107.165 157.28C107.427 157.124 107.794 157.124 108.003 157.228L110.78 158.789C110.989 158.893 110.989 159.153 110.727 159.31L107.479 161.182C107.27 161.339 106.851 161.391 106.641 161.235Z" fill="#173D7A"/>
<path d="M75.7834 143.545L71.3827 140.996C71.1732 140.892 71.1732 140.632 71.4351 140.476L74.6832 138.603C74.9452 138.446 75.3119 138.446 75.5215 138.551L79.9221 141.1C80.1317 141.204 80.1317 141.464 79.8697 141.62L76.6216 143.493C76.3597 143.649 75.993 143.649 75.7834 143.545Z" fill="#173D7A"/>
<path d="M102.554 158.893L98.1529 156.344C97.9434 156.24 97.9434 155.979 98.2053 155.823L101.453 153.95C101.715 153.794 102.082 153.794 102.292 153.898L106.692 156.448C106.902 156.552 106.902 156.812 106.64 156.968L103.392 158.841C103.182 158.997 102.763 159.049 102.554 158.893Z" fill="#173D7A"/>
<path d="M81.9116 147.083L77.5109 144.534C77.3013 144.43 77.3013 144.169 77.5633 144.013L80.8114 142.14C81.0733 141.984 81.4401 141.984 81.6496 142.088L86.0503 144.638C86.2598 144.742 86.2598 145.002 85.9979 145.158L82.7498 147.031C82.5402 147.187 82.1211 147.187 81.9116 147.083Z" fill="#173D7A"/>
<path d="M81.7032 142.14L100.825 153.118C101.087 153.274 101.087 153.482 100.825 153.586L97.5246 155.511C97.2627 155.667 96.896 155.667 96.6864 155.511L77.5645 144.534L81.7032 142.14Z" fill="#173D7A"/>
<path d="M118.532 165.657L121.623 167.426C121.78 167.53 121.78 167.686 121.57 167.842L120.261 168.622C120.051 168.726 119.737 168.778 119.58 168.674L116.489 166.905C116.332 166.801 116.332 166.645 116.541 166.489L117.851 165.709C118.06 165.553 118.375 165.553 118.532 165.657Z" fill="#173D7A"/>
<path d="M114.235 163.211L117.326 164.98C117.483 165.084 117.483 165.24 117.274 165.396L115.964 166.177C115.755 166.281 115.44 166.333 115.283 166.229L112.192 164.46C112.035 164.356 112.035 164.2 112.244 164.044L113.554 163.263C113.764 163.107 114.078 163.107 114.235 163.211Z" fill="#173D7A"/>
<path d="M109.993 160.766L113.084 162.535C113.241 162.639 113.241 162.795 113.032 162.951L111.722 163.732C111.512 163.836 111.198 163.888 111.041 163.784L107.95 162.015C107.793 161.911 107.793 161.755 108.002 161.599L109.312 160.818C109.522 160.662 109.836 160.662 109.993 160.766Z" fill="#173D7A"/>
<path d="M116.594 161.859L119.685 163.628C119.842 163.732 119.842 163.888 119.632 164.044L118.323 164.824C118.113 164.929 117.799 164.981 117.642 164.876L114.551 163.108C114.394 163.004 114.393 162.847 114.603 162.691L115.913 161.911C116.122 161.755 116.437 161.755 116.594 161.859Z" fill="#173D7A"/>
<path d="M110.989 87.1472L106.902 84.806C106.536 84.5978 106.326 84.0776 106.431 83.6093C106.536 83.1411 106.902 82.985 107.321 83.1931L111.408 85.5343C111.774 85.7425 111.984 86.2627 111.879 86.731C111.722 87.1992 111.355 87.3553 110.989 87.1472Z" fill="#D4ECFF"/>
<path d="M120.628 92.7143L114.604 89.2804C114.237 89.0723 114.027 88.5521 114.132 88.0838C114.237 87.6156 114.604 87.4595 115.023 87.6676L121.048 91.1014C121.414 91.3095 121.624 91.8298 121.519 92.298C121.414 92.7143 121.048 92.9224 120.628 92.7143Z" fill="#D4ECFF"/>
<path d="M103.863 105.981L99.7771 103.64C99.4104 103.432 99.2008 102.912 99.3056 102.443C99.4104 101.975 99.7771 101.819 100.196 102.027L104.283 104.368C104.649 104.577 104.859 105.097 104.754 105.565C104.649 106.033 104.23 106.241 103.863 105.981Z" fill="#D4ECFF"/>
<path d="M112.508 110.976L106.483 107.542C106.116 107.334 105.907 106.814 106.011 106.346C106.116 105.877 106.483 105.721 106.902 105.929L112.927 109.363C113.294 109.571 113.503 110.092 113.398 110.56C113.294 110.976 112.874 111.184 112.508 110.976Z" fill="#D4ECFF"/>
<path d="M98.9407 84.0775L96.3736 82.6208C96.0069 82.4127 95.7974 81.8924 95.9022 81.4241C96.0069 80.9559 96.3736 80.7998 96.7928 81.0079L99.3598 82.4647C99.7265 82.6728 99.9361 83.1931 99.8313 83.6613C99.7265 84.1296 99.3598 84.2857 98.9407 84.0775Z" fill="#D4ECFF"/>
<path d="M106.799 92.402L99.0451 87.9277C98.6783 87.7195 98.4688 87.1993 98.5736 86.731C98.6783 86.2628 99.0451 86.1067 99.4642 86.3148L107.218 90.7892C107.584 90.9973 107.794 91.5176 107.689 91.9858C107.584 92.402 107.165 92.6101 106.799 92.402Z" fill="#D4ECFF"/>
<path d="M99.9869 96.1479L97.4198 94.6911C97.0531 94.483 96.8435 93.9627 96.9483 93.4945C97.0531 93.0262 97.4198 92.8701 97.8389 93.0782L100.406 94.535C100.773 94.7431 100.982 95.2634 100.877 95.7316C100.773 96.1479 100.406 96.356 99.9869 96.1479Z" fill="#D4ECFF"/>
<path d="M113.818 119.352L107.007 115.45C106.641 115.242 106.431 114.722 106.536 114.253C106.641 113.785 107.007 113.629 107.426 113.837L114.237 117.739C114.604 117.947 114.813 118.468 114.708 118.936C114.604 119.404 114.185 119.56 113.818 119.352Z" fill="#D4ECFF"/>
<path d="M97.5253 102.34L95.9012 101.403C95.5345 101.195 95.3249 100.675 95.4297 100.206C95.5345 99.7381 95.9012 99.582 96.3203 99.7901L97.9444 100.727C98.3111 100.935 98.5206 101.455 98.4159 101.923C98.3111 102.392 97.892 102.6 97.5253 102.34Z" fill="#D4ECFF"/>
<path d="M96.3736 109.311L94.3305 108.166C93.9638 107.958 93.7542 107.438 93.859 106.97C93.9638 106.502 94.3305 106.345 94.7496 106.554L96.7928 107.698C97.1595 107.906 97.369 108.427 97.2643 108.895C97.1071 109.363 96.7404 109.571 96.3736 109.311Z" fill="#D4ECFF"/>
<path d="M104.23 113.837L98.8866 110.768C98.5199 110.56 98.3104 110.039 98.4151 109.571C98.5199 109.103 98.8866 108.947 99.3057 109.155L104.649 112.225C105.016 112.433 105.226 112.953 105.121 113.421C105.016 113.889 104.597 114.045 104.23 113.837Z" fill="#D4ECFF"/>
<path d="M97.3682 113.733L93.5438 111.548C93.1771 111.34 92.9675 110.82 93.0723 110.352C93.1771 109.883 93.5438 109.727 93.9629 109.935L97.7873 112.121C98.154 112.329 98.3636 112.849 98.2588 113.317C98.154 113.785 97.7873 113.942 97.3682 113.733Z" fill="#D4ECFF"/>
<path d="M119.634 122.682L117.171 121.277C116.805 121.069 116.595 120.549 116.7 120.081C116.805 119.613 117.171 119.456 117.59 119.665L120.053 121.069C120.419 121.277 120.629 121.798 120.524 122.266C120.419 122.734 120 122.942 119.634 122.682Z" fill="#D4ECFF"/>
<path d="M109.469 101.559L102.659 97.6568C102.292 97.4487 102.083 96.9284 102.187 96.4602C102.292 95.9919 102.659 95.8358 103.078 96.0439L109.888 99.946C110.255 100.154 110.465 100.674 110.36 101.143C110.203 101.611 109.836 101.767 109.469 101.559Z" fill="#D4ECFF"/>
<path d="M110.098 98.0731L98.2584 91.3095C97.8917 91.1014 97.6821 90.5811 97.7869 90.1129C97.8917 89.6446 98.2584 89.4885 98.6775 89.6966L110.517 96.4602C110.884 96.6683 111.094 97.1886 110.989 97.6569C110.832 98.1251 110.465 98.3332 110.098 98.0731Z" fill="#D4ECFF"/>
<path d="M103.444 101.923L96.6331 98.0212C96.2664 97.8131 96.0569 97.2928 96.1616 96.8245C96.2664 96.3563 96.6331 96.2002 97.0523 96.4083L103.863 100.31C104.23 100.518 104.439 101.039 104.334 101.507C104.23 101.975 103.863 102.183 103.444 101.923Z" fill="#D4ECFF"/>
<path d="M114.605 104.525L112.143 103.12C111.776 102.912 111.566 102.391 111.671 101.923C111.776 101.455 112.143 101.299 112.562 101.507L115.024 102.912C115.391 103.12 115.6 103.64 115.496 104.108C115.391 104.525 114.972 104.733 114.605 104.525Z" fill="#D4ECFF"/>
<path d="M138.964 103.172L124.347 94.7953C123.98 94.5872 123.771 94.067 123.876 93.5987C123.98 93.1305 124.347 92.9744 124.766 93.1825L139.383 101.559C139.749 101.767 139.959 102.287 139.854 102.756C139.697 103.224 139.33 103.432 138.964 103.172Z" fill="#D4ECFF"/>
<path d="M103.287 109.467L95.1145 104.784C94.7478 104.576 94.5382 104.056 94.643 103.588C94.7478 103.119 95.1145 102.963 95.5336 103.171L103.706 107.854C104.073 108.062 104.283 108.582 104.178 109.051C104.021 109.519 103.654 109.675 103.287 109.467Z" fill="#D4ECFF"/>
<path d="M103.182 82.6728L97.1576 79.2389C96.7909 79.0308 96.5813 78.5106 96.6861 78.0423C96.7909 77.5741 97.1576 77.418 97.5767 77.6261L103.601 81.0599C103.968 81.268 104.178 81.7883 104.073 82.2565C103.968 82.7248 103.601 82.9329 103.182 82.6728Z" fill="#D4ECFF"/>
<path d="M96.32 116.959L89.3523 112.953C88.9856 112.745 88.776 112.224 88.8808 111.756C88.9856 111.288 89.3523 111.132 89.7714 111.34L96.7391 115.346C97.1058 115.554 97.3154 116.074 97.2106 116.543C97.1058 116.959 96.6867 117.167 96.32 116.959Z" fill="#D4ECFF"/>
<path d="M143.313 131.475L139.227 129.133C138.86 128.925 138.651 128.405 138.756 127.937C138.86 127.469 139.227 127.313 139.646 127.521L143.732 129.862C144.099 130.07 144.309 130.59 144.204 131.058C144.099 131.527 143.732 131.735 143.313 131.475Z" fill="#D4ECFF"/>
<path d="M146.247 117.895L138.494 113.421C138.127 113.213 137.917 112.693 138.022 112.224C138.127 111.756 138.494 111.6 138.913 111.808L146.666 116.283C147.033 116.491 147.243 117.011 147.138 117.479C147.033 117.895 146.614 118.104 146.247 117.895Z" fill="#D4ECFF"/>
<path d="M139.49 121.642L136.923 120.185C136.556 119.977 136.347 119.456 136.451 118.988C136.556 118.52 136.923 118.364 137.342 118.572L139.909 120.029C140.276 120.237 140.485 120.757 140.381 121.225C140.223 121.694 139.857 121.85 139.49 121.642Z" fill="#D4ECFF"/>
<path d="M136.975 127.833L135.351 126.896C134.984 126.688 134.775 126.168 134.88 125.7C134.984 125.231 135.351 125.075 135.77 125.283L137.394 126.22C137.761 126.428 137.97 126.948 137.866 127.416C137.761 127.885 137.394 128.093 136.975 127.833Z" fill="#D4ECFF"/>
<path d="M148.919 127.052L142.109 123.15C141.742 122.942 141.532 122.422 141.637 121.953C141.742 121.485 142.109 121.329 142.528 121.537L149.338 125.439C149.705 125.647 149.915 126.168 149.81 126.636C149.705 127.104 149.286 127.26 148.919 127.052Z" fill="#D4ECFF"/>
<path d="M149.55 123.566L137.71 116.803C137.343 116.595 137.133 116.075 137.238 115.606C137.343 115.138 137.71 114.982 138.129 115.19L149.969 121.954C150.335 122.162 150.545 122.682 150.44 123.15C150.335 123.619 149.916 123.827 149.55 123.566Z" fill="#D4ECFF"/>
<path d="M142.947 127.469L136.136 123.567C135.77 123.358 135.56 122.838 135.665 122.37C135.77 121.902 136.136 121.746 136.555 121.954L143.366 125.856C143.733 126.064 143.942 126.584 143.837 127.052C143.68 127.469 143.314 127.677 142.947 127.469Z" fill="#D4ECFF"/>
<path d="M142.737 134.96L134.564 130.278C134.198 130.07 133.988 129.55 134.093 129.081C134.198 128.613 134.564 128.457 134.983 128.665L143.156 133.348C143.523 133.556 143.732 134.076 143.628 134.544C143.523 135.013 143.104 135.169 142.737 134.96Z" fill="#D4ECFF"/>
<path d="M13.3691 175.102L31.1116 164.988C32.4942 164.21 34.9366 164.302 36.5496 165.217L72.9563 186.178C74.5692 187.093 74.7536 188.512 73.325 189.29L55.5825 199.405C54.1999 200.183 51.7575 200.091 50.1445 199.176L13.7378 178.215C12.1249 177.299 11.9866 175.926 13.3691 175.102Z" fill="#B2D3EA"/>
<path d="M56.3212 196.109L74.4785 185.72C75.2619 185.263 75.6767 184.668 75.6767 184.027V180.915L75.0776 181.922C74.8011 181.601 74.4324 181.281 73.9255 181.006L37.3345 159.908C35.2607 158.718 32.1269 158.581 30.3296 159.588L12.1724 169.977C11.988 170.068 11.8037 170.206 11.6654 170.343L10.9742 169.473V172.402C10.9281 173.226 11.5272 174.05 12.6793 174.736L49.3164 195.789C51.3902 196.979 54.5239 197.116 56.3212 196.109Z" fill="#396CAA"/>
<path d="M12.2184 167.688L30.3756 157.299C32.1729 156.293 35.3067 156.43 37.3805 157.62L73.9715 178.718C76.0453 179.908 76.2757 181.693 74.4784 182.746L56.3212 193.135C54.5239 194.141 51.3901 194.004 49.3163 192.814L12.7253 171.716C10.6515 170.526 10.4211 168.695 12.2184 167.688Z" fill="#D4ECFF"/>
<path d="M74.4778 182.746L56.3205 193.135C54.5232 194.141 51.3895 194.004 49.3157 192.814L12.7246 171.716C11.7108 171.121 11.1578 170.434 11.0195 169.702C10.8813 170.572 11.4343 171.533 12.7246 172.219L49.3157 193.318C51.3895 194.508 54.5232 194.645 56.3205 193.638L74.4778 183.249C75.3995 182.7 75.8142 181.967 75.676 181.235C75.5838 181.784 75.2151 182.334 74.4778 182.746Z" fill="white"/>
<path d="M13.3691 168.101L31.1116 157.986C32.4942 157.208 34.9366 157.3 36.5496 158.215L72.9563 179.176C74.5692 180.091 74.7536 181.51 73.325 182.288L55.5825 192.403C54.1999 193.181 51.7575 193.089 50.1445 192.174L13.7378 171.213C12.1249 170.297 11.9866 168.924 13.3691 168.101Z" fill="white"/>
<path d="M41.9413 171.808L35.3513 168.055C35.1209 167.917 35.1208 167.689 35.3974 167.505C35.6739 167.322 36.0886 167.322 36.3651 167.46L42.9552 171.213C43.1856 171.35 43.1856 171.579 42.9091 171.762C42.6326 171.899 42.2179 171.945 41.9413 171.808Z" fill="#B2D3EA"/>
<path d="M35.7185 170.526L33.3682 169.199C33.1378 169.061 33.1378 168.833 33.4143 168.649C33.6908 168.466 34.1055 168.466 34.3821 168.604L36.7324 169.931C36.9628 170.068 36.9628 170.297 36.6863 170.48C36.4098 170.617 35.995 170.663 35.7185 170.526Z" fill="#B2D3EA"/>
<path d="M39.6847 172.769L37.3344 171.441C37.1039 171.304 37.1039 171.075 37.3804 170.892C37.6569 170.709 38.0717 170.709 38.3482 170.846L40.6985 172.174C40.9289 172.311 40.9289 172.54 40.6524 172.723C40.3298 172.906 39.9151 172.906 39.6847 172.769Z" fill="#396CAA"/>
<path d="M47.611 177.345L41.2513 173.684C41.0209 173.547 41.0209 173.318 41.2974 173.135C41.5739 172.952 41.9887 172.952 42.2652 173.089L48.6248 176.75C48.8553 176.888 48.8553 177.116 48.5788 177.299C48.3023 177.437 47.8414 177.483 47.611 177.345Z" fill="#B2D3EA"/>
<path d="M39.5909 175.011L31.3879 170.297C31.1574 170.16 31.1574 169.931 31.4339 169.748C31.7104 169.565 32.1252 169.565 32.4017 169.702L40.6047 174.416C40.8352 174.554 40.8352 174.782 40.5587 174.965C40.2821 175.148 39.8213 175.148 39.5909 175.011Z" fill="#B2D3EA"/>
<path d="M49.4539 182.975L29.3611 171.441C29.1307 171.304 29.1306 171.075 29.4072 170.892C29.6837 170.709 30.0984 170.709 30.3749 170.846L50.4677 182.38C50.6982 182.517 50.6982 182.746 50.4216 182.929C50.1451 183.112 49.7304 183.112 49.4539 182.975Z" fill="#396CAA"/>
<path d="M55.3059 179.451L43.7848 172.814C43.5543 172.677 43.5543 172.448 43.8308 172.265C44.1074 172.082 44.5221 172.082 44.7986 172.219L56.3658 178.856C56.5962 178.993 56.5962 179.222 56.3197 179.405C55.9971 179.588 55.5824 179.588 55.3059 179.451Z" fill="#B2D3EA"/>
<path d="M41.1613 190.251L39.4562 189.29C39.2718 189.199 39.1336 188.924 39.1336 188.695C39.1336 188.466 39.2718 188.375 39.4562 188.466L41.1613 189.427C41.3456 189.519 41.4839 189.794 41.4839 190.022C41.4839 190.251 41.3456 190.389 41.1613 190.251Z" fill="#D4ECFF"/>
<path d="M43.8327 191.807L42.1276 190.846C41.9433 190.755 41.805 190.48 41.805 190.251C41.805 190.023 41.9433 189.931 42.1276 190.023L43.8327 190.984C44.0171 191.075 44.1553 191.35 44.1553 191.579C44.1553 191.807 44.0171 191.899 43.8327 191.807Z" fill="#D4ECFF"/>
</g>
<path d="M41.3433 49.3007C41.1589 49.3007 40.9746 49.1176 40.9746 48.9346V33.8774C40.9746 33.6943 41.1589 33.5112 41.3433 33.5112C41.5276 33.5112 41.7119 33.6943 41.7119 33.8774V48.9346C41.7119 49.1176 41.5276 49.3007 41.3433 49.3007Z" fill="#5793CE"/>
<path d="M42.6303 32.9163H40.0035V38.5455H42.6303V32.9163Z" fill="#5793CE"/>
<path d="M42.2629 39.095C41.7559 39.3696 40.9264 39.3696 40.4195 39.095C39.9126 38.8204 39.9126 38.317 40.4195 38.0424C40.9264 37.7678 41.7559 37.7678 42.2629 38.0424C42.7698 38.3627 42.7698 38.8204 42.2629 39.095Z" fill="#5793CE"/>
<path d="M43.4632 25.0903H39.1773V33.9233H43.4632V25.0903Z" fill="#5793CE"/>
<path d="M40.0056 33.8775V35.7997C40.789 36.1658 41.8489 36.1658 42.6324 35.7997V33.8775C41.8489 33.5114 40.789 33.5114 40.0056 33.8775Z" fill="#396CAA"/>
<path d="M42.8166 34.7926C41.9871 35.2503 40.6506 35.2503 39.8211 34.7926C38.9916 34.3349 38.9916 33.5569 39.8211 33.0535C40.6506 32.5958 41.9871 32.5958 42.8166 33.0535C43.6461 33.5569 43.6461 34.2892 42.8166 34.7926Z" fill="#5793CE"/>
<path d="M44.94 51.452C44.7557 51.452 44.5714 51.2689 44.5714 51.0858V36.0286C44.5714 35.8455 44.7557 35.6625 44.94 35.6625C45.1244 35.6625 45.3087 35.8455 45.3087 36.0286V51.0858C45.3087 51.2689 45.1244 51.452 44.94 51.452Z" fill="#5793CE"/>
<path d="M46.2302 35.0676H43.6034V40.6969H46.2302V35.0676Z" fill="#5793CE"/>
<path d="M45.8628 41.2459C45.3559 41.5205 44.5263 41.5205 44.0194 41.2459C43.5125 40.9713 43.5125 40.4679 44.0194 40.1933C44.5263 39.9187 45.3559 39.9187 45.8628 40.1933C46.3697 40.4679 46.3697 40.9713 45.8628 41.2459Z" fill="#5793CE"/>
<path d="M47.0629 27.1956H42.7771V36.0285H47.0629V27.1956Z" fill="#5793CE"/>
<path d="M43.6051 35.9828V37.905C44.3885 38.2712 45.4485 38.2712 46.2319 37.905V35.9828C45.4485 35.6625 44.3885 35.6625 43.6051 35.9828Z" fill="#396CAA"/>
<path d="M46.4162 36.9439C45.5867 37.4016 44.2502 37.4016 43.4207 36.9439C42.5912 36.4863 42.5912 35.7083 43.4207 35.2048C44.2502 34.7472 45.5867 34.7472 46.4162 35.2048C47.2457 35.6625 47.2457 36.4405 46.4162 36.9439Z" fill="#5793CE"/>
<path d="M48.532 53.5573C48.3477 53.5573 48.1633 53.3742 48.1633 53.1912V38.134C48.1633 37.9509 48.3477 37.7678 48.532 37.7678C48.7163 37.7678 48.9007 37.9509 48.9007 38.134V53.1912C48.9007 53.42 48.7163 53.5573 48.532 53.5573Z" fill="#5793CE"/>
<path d="M49.8249 37.2185H47.1981V42.8478H49.8249V37.2185Z" fill="#5793CE"/>
<path d="M49.4578 43.3974C48.9509 43.672 48.1214 43.672 47.6145 43.3974C47.1075 43.1228 47.1075 42.6193 47.6145 42.3447C48.1214 42.0701 48.9509 42.0701 49.4578 42.3447C49.9648 42.6193 49.9648 43.077 49.4578 43.3974Z" fill="#5793CE"/>
<path d="M50.6552 29.3467H46.3694V38.1796H50.6552V29.3467Z" fill="#5793CE"/>
<path d="M47.1984 38.1342V40.0564C47.9819 40.4225 49.0418 40.4225 49.8252 40.0564V38.1342C49.0418 37.7681 47.9819 37.7681 47.1984 38.1342Z" fill="#396CAA"/>
<path d="M50.0093 39.0493C49.1798 39.507 47.8433 39.507 47.0138 39.0493C46.1843 38.5916 46.1843 37.8136 47.0138 37.3102C47.8433 36.8525 49.1798 36.8525 50.0093 37.3102C50.8388 37.8136 50.8388 38.5916 50.0093 39.0493Z" fill="#5793CE"/>
<path d="M52.1267 55.7082C51.9424 55.7082 51.758 55.5251 51.758 55.342V40.2848C51.758 40.1018 51.9424 39.9187 52.1267 39.9187C52.311 39.9187 52.4954 40.1018 52.4954 40.2848V55.342C52.4954 55.5251 52.311 55.7082 52.1267 55.7082Z" fill="#5793CE"/>
<path d="M53.4186 39.324H50.7918V44.9533H53.4186V39.324Z" fill="#5793CE"/>
<path d="M53.0515 45.5022C52.5446 45.7768 51.7151 45.7768 51.2082 45.5022C50.7012 45.2276 50.7012 44.7242 51.2082 44.4496C51.7151 44.175 52.5446 44.175 53.0515 44.4496C53.5585 44.7242 53.5585 45.2276 53.0515 45.5022Z" fill="#5793CE"/>
<path d="M54.2485 31.4976H49.9627V40.3305H54.2485V31.4976Z" fill="#5793CE"/>
<path d="M50.7918 40.285V42.2072C51.5752 42.5733 52.6351 42.5733 53.4186 42.2072V40.285C52.6812 39.9188 51.5752 39.9188 50.7918 40.285Z" fill="#396CAA"/>
<path d="M53.6473 41.2003C52.8178 41.658 51.4813 41.658 50.6518 41.2003C49.8223 40.7426 49.8223 39.9646 50.6518 39.4612C51.4813 39.0035 52.8178 39.0035 53.6473 39.4612C54.4768 39.9188 54.4768 40.6969 53.6473 41.2003Z" fill="#5793CE"/>
<path d="M68.8588 47.6534L74.5732 44.3124L69.1353 37.5389L67.6606 39.873L68.8588 47.6534Z" fill="#5793CE"/>
<path d="M27.2885 10.5824L36.4132 5.36499L36.0906 10.5824L30.837 12.1842L27.2885 10.5824Z" fill="#5793CE"/>
<path d="M70.4232 30.6739C69.732 30.262 69.0868 30.0332 68.4416 29.9416C67.5199 25.1361 64.1557 20.0561 60.1464 17.722C58.9482 17.0355 57.7961 16.6693 56.7362 16.5778C56.1831 10.7654 52.1277 4.12928 47.1506 1.29175C44.5699 -0.17278 42.2196 -0.355847 40.4683 0.559485L40.3762 0.605252C40.3301 0.651018 40.284 0.651018 40.2379 0.696785L34.8461 3.85468L36.6433 5.27344C35.0304 5.95994 34.0165 7.74484 34.0165 10.3993C34.0165 15.2963 37.4729 21.2002 41.7126 23.6258L70.4232 43.9462C73.6031 45.7769 76.1838 44.3123 76.1838 40.651C76.2299 36.9439 73.6031 32.5046 70.4232 30.6739Z" fill="#5793CE"/>
<path d="M34.3426 8.24828L46.6932 1.06293C44.2968 -0.172764 42.1309 -0.264297 40.5179 0.559501L40.4257 0.605267C40.3797 0.651034 40.3336 0.651034 40.2875 0.6968L34.8956 3.85469L36.6929 5.27346C35.5869 5.73112 34.7574 6.73799 34.3426 8.24828Z" fill="#5793CE"/>
<path d="M57.1487 29.3011L66.1813 24.038C64.6144 21.3835 62.4945 19.0494 60.1442 17.7222C59.8216 17.5391 59.5451 17.4018 59.2225 17.2645L47.7475 23.9464L57.1487 29.3011Z" fill="#5793CE"/>
<path d="M37.4736 4.44955L41.4829 6.73788L48.8564 2.43582C48.3034 2.02392 47.7504 1.65779 47.1974 1.33742C46.3218 0.833989 45.4462 0.467856 44.6167 0.28479L37.4736 4.44955Z" fill="#D4ECFF"/>
<path d="M65.2164 22.5273L58.0272 26.7379L60.5158 29.5296L67.0597 25.6852C66.5067 24.5868 65.9076 23.5342 65.2164 22.5273Z" fill="#D4ECFF"/>
<path d="M64.7538 33.969C64.0625 33.5571 63.4174 33.3283 62.7722 33.2367C61.8505 28.4312 58.4863 23.3512 54.477 21.0171C53.2788 20.3306 52.1267 19.9644 51.0667 19.8729C50.5137 14.0605 46.4583 7.42438 41.4812 4.58685C36.1354 1.52049 31.8495 3.99189 31.8495 10.1246C31.8495 10.3534 31.8495 10.5365 31.8495 10.7653C27.9784 8.98044 24.8908 10.9942 24.8908 15.5708C24.8908 20.4679 28.3471 26.3717 32.5869 28.7974L64.7077 47.1955C67.8875 49.0262 70.4683 47.5617 70.4683 43.9003C70.5604 40.2848 67.9797 35.7997 64.7538 33.969Z" fill="#D4ECFF"/>
<path d="M31.8981 10.7655C31.8981 10.5366 31.8981 10.3536 31.8981 10.1247C31.8981 10.1247 31.8981 10.1247 31.8981 10.079C29.7322 9.25518 27.8888 9.62131 26.7367 10.9485C27.981 9.94168 29.8243 9.80438 31.8981 10.7655Z" fill="white"/>
<path d="M65.262 33.5113C64.5708 33.0994 63.9256 32.8706 63.2804 32.7791C62.3587 27.9736 58.9945 22.8935 54.9852 20.5594C53.787 19.8729 52.6349 19.5068 51.575 19.4152C51.0219 13.6029 46.9665 6.96671 41.9894 4.12918C38.6713 2.20699 35.768 2.48159 34.0168 4.40378C35.768 2.89349 38.487 2.84772 41.5285 4.58685C46.4596 7.42438 50.5611 14.0605 51.1141 19.8729C52.1741 19.9644 53.3262 20.3306 54.5244 21.0171C58.5337 23.3054 61.8979 28.4312 62.8195 33.2367C63.4186 33.3283 64.1099 33.5571 64.8012 33.969C67.981 35.7997 70.5617 40.2848 70.5617 43.9461C70.5617 45.2733 70.2391 46.2802 69.64 47.0125C70.5156 46.3717 71.0226 45.136 71.0226 43.4884C71.0226 39.8271 68.4418 35.342 65.262 33.5113Z" fill="white"/>
<path d="M31.2045 12.2302L33.6008 13.3286L33.4626 10.6741C33.4626 10.4911 33.4626 10.308 33.4626 10.1249C33.4626 7.79083 34.1999 6.0517 35.4903 5.31944C36.7807 4.58717 38.624 4.81601 40.6978 6.00594C45.1219 8.5231 48.993 14.7016 49.4539 20.0563L49.5921 21.3835L50.9286 21.475C51.7581 21.5208 52.6798 21.8412 53.6476 22.3904C57.15 24.4041 60.3298 29.0723 61.1593 33.5117L61.3898 34.6101L62.4958 34.7931C62.9566 34.8847 63.4175 35.022 63.9244 35.3423C66.6434 36.8984 68.9015 40.7886 68.9015 43.9007C68.9015 45.0448 68.5789 45.9144 68.0259 46.2348C67.4729 46.5551 66.5512 46.4178 65.5374 45.8229L33.4165 27.4247C29.6837 25.2737 26.5038 19.8732 26.5038 15.5712C26.5038 13.8778 27.0108 12.5963 27.8864 12.0471C28.255 11.8183 28.6698 11.7268 29.1767 11.7268C29.8219 11.7268 30.5132 11.9098 31.2045 12.2302Z" fill="#D4ECFF"/>
<path d="M40.927 37.5844C40.927 37.859 40.7427 37.9505 40.5122 37.8133C40.2818 37.676 40.0975 37.3556 40.0975 37.1268C40.0975 36.8522 40.2818 36.7606 40.5122 36.8979C40.7427 37.0352 40.927 37.3556 40.927 37.5844Z" fill="#D4ECFF"/>
<path d="M44.5234 39.7816C44.5234 40.0562 44.339 40.1477 44.1086 40.0104C43.8782 39.8731 43.6939 39.5527 43.6939 39.3239C43.6939 39.0493 43.8782 38.9578 44.1086 39.0951C44.339 39.1866 44.5234 39.507 44.5234 39.7816Z" fill="#D4ECFF"/>
<path d="M48.1194 41.9323C48.1194 42.2069 47.9351 42.2985 47.7047 42.1612C47.4742 42.0239 47.2899 41.7035 47.2899 41.4747C47.2899 41.2001 47.4742 41.1085 47.7047 41.2458C47.9351 41.3831 48.1194 41.7035 48.1194 41.9323Z" fill="#D4ECFF"/>
<path d="M51.7588 44.1293C51.7588 44.4039 51.5745 44.4955 51.3441 44.3582C51.1136 44.2209 50.9293 43.9005 50.9293 43.6717C50.9293 43.3971 51.1136 43.3055 51.3441 43.4428C51.5745 43.5344 51.7588 43.8547 51.7588 44.1293Z" fill="#D4ECFF"/>
<path d="M58.498 32.1457L57.5815 31.614L57.5815 31.0869C57.8213 31.3298 58.0611 31.5666 58.3115 31.7908C58.3275 31.8061 58.3488 31.8184 58.3648 31.8275C58.4447 31.8734 58.5193 31.8541 58.546 31.7764C58.5726 31.6738 58.5193 31.5255 58.4181 31.4364C57.4269 30.5333 56.4944 29.4591 55.6684 28.2786L55.6684 28.2662L55.6524 28.257C55.322 27.7823 55.0023 27.289 54.7092 26.7861L54.7092 26.7613L54.6826 26.746C54.3095 26.1042 53.9685 25.4498 53.6648 24.7734C53.6594 24.7641 53.6594 24.7641 53.6541 24.7549C53.6488 24.7456 53.6488 24.7456 53.6434 24.7364C53.6381 24.7271 53.6328 24.7179 53.6221 24.7055L53.6168 24.6963C53.6168 24.6963 53.6168 24.6963 53.6115 24.6932C53.6061 24.684 53.5955 24.6717 53.5902 24.6686C53.5848 24.6656 53.5848 24.6594 53.5795 24.6563C53.5742 24.647 53.5635 24.6409 53.5582 24.6379C53.5528 24.6348 53.5528 24.6348 53.5475 24.6256C53.5422 24.6225 53.5315 24.6164 53.5262 24.6071C53.5209 24.6041 53.5209 24.6041 53.5155 24.601C53.5049 24.5949 53.4996 24.5919 53.4889 24.5858C53.4836 24.5827 53.4836 24.5827 53.4782 24.5796C53.4729 24.5766 53.4623 24.5767 53.4569 24.5736C53.4516 24.5706 53.4516 24.5706 53.4463 24.5737C53.4409 24.5769 53.4356 24.5738 53.425 24.5739C53.4196 24.5708 53.4143 24.574 53.409 24.5709C53.409 24.5709 53.4036 24.5679 53.4036 24.5741C53.3983 24.5772 53.3983 24.5772 53.393 24.5804C53.3877 24.5835 53.3823 24.5805 53.3823 24.5867C53.377 24.5898 53.3717 24.5929 53.3663 24.5961L53.361 24.5992C51.6984 26.3682 48.9914 26.4407 46.1244 24.7969C46.1138 24.7908 46.1031 24.7847 46.0925 24.7848C46.0818 24.7786 46.0712 24.7663 46.0605 24.7602C43.1936 23.1164 40.4865 19.9396 38.8239 16.2641C38.8239 16.2579 38.8186 16.2549 38.8186 16.2549C38.8133 16.2456 38.8079 16.2364 38.8026 16.2271C38.7973 16.2178 38.7919 16.2148 38.7919 16.2086C38.7866 16.1993 38.7866 16.1993 38.7813 16.1901C38.7813 16.1901 38.776 16.187 38.776 16.1808C38.7706 16.1716 38.7653 16.1685 38.76 16.1593C38.7546 16.15 38.7493 16.1469 38.7387 16.1346C38.7333 16.1316 38.728 16.1223 38.728 16.1223C38.7227 16.1193 38.712 16.107 38.7067 16.1039C38.7014 16.1008 38.7014 16.1008 38.696 16.0978C38.6854 16.0917 38.68 16.0886 38.6694 16.0825C38.6641 16.0795 38.6641 16.0795 38.6587 16.0764C38.6481 16.0703 38.6427 16.0672 38.6321 16.0673C38.6268 16.0643 38.6268 16.0643 38.6214 16.0674C38.6108 16.0613 38.6054 16.0644 38.6001 16.0614C38.5948 16.0583 38.5948 16.0645 38.5895 16.0615C38.5788 16.0616 38.5735 16.0647 38.5681 16.0617C38.5681 16.0617 38.5681 16.0617 38.5628 16.0586L38.5575 16.0618C38.5521 16.0649 38.5468 16.068 38.5362 16.0681C38.5308 16.0713 38.5308 16.0713 38.5255 16.0744C38.5202 16.0776 38.5202 16.0776 38.5148 16.0807C38.2111 16.4026 37.8701 16.6722 37.497 16.8861L37.4704 16.8709L37.4704 16.8957C37.172 17.0594 36.8576 17.1892 36.5272 17.285L36.5112 17.2759L36.5112 17.2883C35.6852 17.534 34.7527 17.5388 33.7615 17.3053C33.6603 17.2783 33.607 17.3717 33.6336 17.4986C33.6549 17.6039 33.7295 17.7086 33.8148 17.7575C33.8308 17.7667 33.8521 17.7789 33.8681 17.7819C34.1132 17.8418 34.3583 17.8832 34.5981 17.9152L34.5981 18.4423L33.6816 17.9168C33.5803 17.8587 33.4951 17.9091 33.4951 18.0269C33.4951 18.1447 33.5803 18.2928 33.6816 18.3509L46.0552 25.3835C46.0658 25.3896 46.0765 25.3957 46.0871 25.3956C46.0978 25.4017 46.1085 25.414 46.1191 25.4201L58.4927 32.5768C58.5939 32.6348 58.6792 32.5845 58.6792 32.4667C58.6845 32.3519 58.5993 32.2038 58.498 32.1457ZM57.2084 31.4001L56.6223 31.064L56.6223 30.0347C56.8141 30.2625 57.0113 30.4872 57.2084 30.6994L57.2084 31.4001ZM56.2492 29.579L56.2492 30.844L55.6631 30.5079L55.6631 28.815C55.8549 29.0738 56.0521 29.3357 56.2492 29.579ZM55.2901 28.2849L55.2901 30.2878L54.7039 29.9517L54.7039 27.3845C54.8957 27.6929 55.0929 27.992 55.2901 28.2849ZM52.7855 25.7513C52.9933 25.6224 53.1852 25.472 53.3717 25.3061L53.3717 29.1817L52.7855 28.8456L52.7855 25.7513ZM53.7447 25.6626C53.9312 26.0299 54.1284 26.3972 54.3309 26.7552L54.3309 29.7378L53.7447 29.4017L53.7447 25.6626ZM52.4125 25.9653L52.4125 28.6317L51.8263 28.2956L51.8263 26.2059C52.0288 26.1421 52.226 26.0568 52.4125 25.9653ZM41.6802 21.4054C42.4475 22.3228 43.2735 23.1561 44.1315 23.8588L41.6802 22.4657L41.6802 21.4054ZM41.3072 22.2518L40.721 21.9158L40.721 20.1609C40.9128 20.4259 41.1047 20.6847 41.3072 20.9434L41.3072 22.2518ZM50.8671 26.4248C51.0696 26.4045 51.2614 26.3657 51.4533 26.3144L51.4533 28.0693L50.8671 27.7332L50.8671 26.4248ZM50.4941 27.5193L48.0428 26.1015C48.9008 26.3825 49.7267 26.4965 50.4941 26.459L50.4941 27.5193ZM40.348 19.6246L40.348 21.7019L39.7618 21.3658L39.7618 18.6994C39.9536 19.0202 40.1455 19.3286 40.348 19.6246ZM37.8434 17.3018C38.0459 17.1761 38.2431 17.0411 38.4296 16.8814L38.4296 20.6143L37.8434 20.2782L37.8434 17.3018ZM38.8026 16.9526C38.9891 17.3324 39.181 17.7028 39.3888 18.07L39.3888 21.1581L38.8026 20.822L38.8026 16.9526ZM37.4704 20.0706L36.8842 19.7345L36.8842 17.7316C37.0867 17.6678 37.2839 17.5949 37.4704 17.5034L37.4704 20.0706ZM36.5112 19.5268L35.925 19.1907L35.925 17.9257C36.1275 17.9054 36.3194 17.8728 36.5112 17.8277L36.5112 19.5268ZM34.9658 17.9462C35.163 17.9601 35.3602 17.9615 35.552 17.9537L35.552 18.9768L34.9658 18.6407L34.9658 17.9462Z" fill="#14225B"/>
<path d="M34.5219 21.0495L34.5219 20.4166L37.3963 22.0647L37.3963 22.6975L36.2465 22.0383L36.2465 25.4326L35.6716 25.103L35.6716 21.7087L34.5219 21.0495Z" fill="#14225B"/>
<path d="M37.7696 25.9262C37.5197 25.4876 37.3947 25.0535 37.3947 24.6239C37.3947 24.1944 37.5197 23.9055 37.7696 23.7573C38.0229 23.6072 38.3312 23.6363 38.6944 23.8446C39.0577 24.0529 39.3643 24.3763 39.6142 24.815C39.8675 25.2517 39.9941 25.6848 39.9941 26.1144L39.9941 26.3157L37.9196 25.1262C37.9596 25.3908 38.0512 25.6332 38.1945 25.8534C38.3378 26.0737 38.5045 26.2382 38.6944 26.3472C38.9277 26.4809 39.1143 26.5208 39.2543 26.4668C39.3176 26.4494 39.3726 26.4138 39.4193 26.36L39.9691 26.6753C39.8992 26.8231 39.8108 26.9317 39.7042 27.0009C39.4309 27.1587 39.0943 27.123 38.6944 26.8937C38.3312 26.6854 38.0229 26.3629 37.7696 25.9262ZM37.9446 24.6516L39.4443 25.5114C39.4143 25.3025 39.3343 25.0936 39.2043 24.8848C39.0777 24.678 38.9077 24.5134 38.6944 24.3911C38.5145 24.2879 38.3545 24.2595 38.2145 24.3058C38.0745 24.3483 37.9846 24.4635 37.9446 24.6516Z" fill="#14225B"/>
<path d="M40.1695 27.6819L40.8693 25.1491L41.9941 25.794L42.694 29.1294L42.1441 28.8141L41.5942 26.1113L41.2693 25.925L40.7194 27.9972L40.1695 27.6819Z" fill="#14225B"/>
<path d="M43.2421 29.064C42.9921 28.6253 42.8672 28.1912 42.8672 27.7617C42.8672 27.3321 42.9921 27.0432 43.2421 26.8951C43.4954 26.745 43.8036 26.774 44.1669 26.9823C44.5301 27.1906 44.8367 27.5141 45.0867 27.9527C45.34 28.3894 45.4666 28.8225 45.4666 29.2521L45.4666 29.4535L43.392 28.264C43.432 28.5285 43.5237 28.7709 43.667 28.9912C43.8103 29.2114 43.9769 29.376 44.1669 29.4849C44.4002 29.6187 44.5868 29.6585 44.7268 29.6046C44.7901 29.5872 44.8451 29.5516 44.8917 29.4978L45.4416 29.8131C45.3716 29.9609 45.2833 30.0694 45.1767 30.1387C44.9034 30.2965 44.5668 30.2607 44.1669 30.0314C43.8036 29.8232 43.4954 29.5007 43.2421 29.064ZM43.417 27.7893L44.9167 28.6492C44.8867 28.4402 44.8067 28.2313 44.6768 28.0226C44.5501 27.8157 44.3802 27.6512 44.1669 27.5289C43.9869 27.4257 43.827 27.3972 43.687 27.4436C43.547 27.486 43.457 27.6013 43.417 27.7893Z" fill="#14225B"/>
<path d="M45.9169 30.9773L45.9169 28.0433L46.6667 28.4732L47.3416 30.6148L47.4416 30.6721L48.1164 29.3044L48.8663 29.7343L48.8663 32.6684L48.3414 32.3674L48.3414 30.2963L48.3464 30.2417L48.3214 30.2273L47.6915 31.477L47.0916 31.1331L46.4618 29.1611L46.4368 29.1468L46.4418 29.2072L46.4418 31.2783L45.9169 30.9773Z" fill="#14225B"/>
<path d="M49.6959 32.7644C49.4426 32.3238 49.316 31.8888 49.316 31.4592C49.316 31.0296 49.4426 30.7417 49.6959 30.5955C49.9525 30.4473 50.2674 30.4802 50.6407 30.6942C51.0139 30.9082 51.3272 31.2355 51.5805 31.676C51.8371 32.1147 51.9654 32.5487 51.9654 32.9783C51.9654 33.4079 51.8371 33.6967 51.5805 33.8449C51.3272 33.9912 51.0139 33.9573 50.6407 33.7433C50.2674 33.5293 49.9525 33.203 49.6959 32.7644ZM50.0808 31.1901C49.9375 31.2844 49.8659 31.4792 49.8659 31.7745C49.8659 32.0698 49.9375 32.3487 50.0808 32.6111C50.2241 32.8697 50.4107 33.0649 50.6407 33.1968C50.8706 33.3286 51.0573 33.3474 51.2006 33.2532C51.3439 33.1551 51.4155 32.9583 51.4155 32.663C51.4155 32.3677 51.3439 32.0907 51.2006 31.8322C51.0573 31.5697 50.8706 31.3726 50.6407 31.2407C50.4107 31.1089 50.2241 31.092 50.0808 31.1901Z" fill="#14225B"/>
<path d="M52.6295 34.4521C52.3862 34.025 52.2646 33.5909 52.2646 33.1498C52.2646 32.7088 52.3862 32.4142 52.6295 32.266C52.8728 32.1178 53.176 32.1479 53.5393 32.3562C53.9459 32.5893 54.2775 32.9578 54.5341 33.4616C54.6441 33.6896 54.7207 33.9099 54.764 34.1227L54.2141 33.8074C54.1908 33.6982 54.1475 33.587 54.0842 33.474C53.9542 33.2269 53.7726 33.0365 53.5393 32.9027C53.3327 32.7842 53.1594 32.775 53.0194 32.875C52.8828 32.9769 52.8144 33.1736 52.8144 33.4651C52.8144 33.7566 52.8828 34.0317 53.0194 34.2903C53.1594 34.5508 53.3327 34.7403 53.5393 34.8587C53.7792 34.9963 53.9675 35.018 54.1042 34.9237C54.1642 34.8814 54.2091 34.8209 54.2391 34.7422L54.764 35.0432C54.7207 35.214 54.6441 35.3484 54.5341 35.4464C54.2808 35.654 53.9492 35.6403 53.5393 35.4053C53.176 35.197 52.8728 34.8793 52.6295 34.4521Z" fill="#14225B"/>
<path d="M54.9374 32.7551L54.9374 32.1223L57.8118 33.7703L57.8118 34.4032L56.6621 33.744L56.6621 37.1382L56.0872 36.8086L56.0872 33.4143L54.9374 32.7551Z" fill="#14225B"/>
<defs>
<clipPath id="clip0_980_17748">
<rect width="161.111" height="161" fill="white" transform="translate(0.444458 39)"/>
</clipPath>
</defs>
</svg>
