<svg width="210" height="200" viewBox="0 0 210 200" fill="none" xmlns="http://www.w3.org/2000/svg">
<path d="M190.24 109.882C189.651 109.882 189.062 109.735 188.546 109.44L178.531 103.472L179.12 102.44L189.136 108.409C189.798 108.777 190.609 108.777 191.271 108.409L207.547 98.9032C207.841 98.7558 207.988 98.4611 207.988 98.1663C207.988 97.8716 207.841 97.5769 207.547 97.4295L185.822 85.8608L186.411 84.8292L208.136 96.4716C208.799 96.84 209.167 97.4295 209.167 98.1663C209.167 98.9032 208.799 99.5664 208.209 99.9348L191.86 109.44C191.345 109.735 190.756 109.882 190.24 109.882Z" fill="#B2D3EA"/>
<path d="M149.744 200C149.007 200 148.344 199.853 147.682 199.484L107.84 177.231C107.251 176.936 106.883 176.273 106.883 175.61C106.883 174.947 107.251 174.357 107.84 173.989L125.883 163.82C126.178 163.673 126.178 163.378 126.178 163.305C126.178 163.231 126.178 162.936 125.883 162.789L105.778 151.22C105.189 150.925 104.895 150.336 104.895 149.673C104.895 149.01 105.189 148.42 105.705 148.125L113.879 142.894L114.542 143.852L106.368 149.083C106.073 149.231 106.073 149.525 106.073 149.599C106.073 149.673 106.147 149.967 106.368 150.115L126.472 161.683C127.061 161.978 127.356 162.568 127.356 163.231C127.356 163.894 126.988 164.484 126.472 164.778L108.356 175.021C108.061 175.168 107.988 175.463 107.988 175.61C107.988 175.757 107.988 175.978 108.356 176.2L148.271 198.453C149.228 198.968 150.406 198.968 151.29 198.379L166.534 189.021C166.682 188.947 166.682 188.8 166.682 188.8C166.682 188.726 166.682 188.652 166.534 188.579L155.562 181.873L156.151 180.842L167.124 187.547C167.565 187.842 167.86 188.284 167.86 188.8C167.86 189.316 167.565 189.758 167.197 190.052L152.027 199.411C151.29 199.779 150.554 200 149.744 200Z" fill="#B2D3EA"/>
<path d="M167.047 110.472L147.826 99.3453C146.648 98.6822 146.795 97.5032 148.121 96.6927L166.679 85.9346C168.078 85.124 170.14 85.0503 171.319 85.7135L190.54 96.84C191.718 97.5032 191.571 98.6822 190.245 99.4927L171.687 110.251C170.288 111.061 168.226 111.135 167.047 110.472Z" fill="#B2D3EA"/>
<path d="M196.951 88.4406V80.1141H178.319L171.912 76.3561C170.439 75.4719 167.861 75.6193 166.167 76.5772L160.129 80.0404H141.497V88.5879C141.423 89.1774 141.791 89.6932 142.454 90.1353L166.536 104.062C168.009 104.946 170.586 104.799 172.28 103.841L195.551 90.4301C196.509 89.8406 196.951 89.1037 196.951 88.4406Z" fill="#396CAA"/>
<path d="M169.192 75.8389C168.087 75.8389 166.982 76.1337 166.099 76.6495L160.06 80.1127H141.428V88.6602C141.354 89.2497 141.723 89.7655 142.385 90.2076L166.467 104.134C167.203 104.576 168.161 104.724 169.118 104.724V75.8389H169.192Z" fill="#396CAA"/>
<path d="M143.486 80.1139H141.35V88.6615C141.276 89.251 141.644 89.7668 142.308 90.2089L143.413 90.872V80.1139H143.486Z" fill="#5793CE"/>
<path d="M166.833 104.282C168.085 104.798 169.926 104.798 171.473 104.208V94.4816H166.833V104.282Z" fill="#5793CE"/>
<path d="M166.465 95.5877L142.384 81.6611C140.911 80.7769 141.058 79.3032 142.826 78.3453L166.097 64.9345C167.791 63.9765 170.368 63.8292 171.841 64.7134L195.923 78.64C197.396 79.5242 197.248 80.9979 195.481 81.9558L172.209 95.3666C170.516 96.3246 167.938 96.3982 166.465 95.5877Z" fill="#D4ECFF"/>
<path d="M166.905 93.0828L146.727 81.4405C145.475 80.7036 145.622 79.451 147.095 78.6404L166.611 67.3665C168.01 66.556 170.219 66.4823 171.471 67.1455L191.65 78.7878C192.902 79.5247 192.754 80.7773 191.281 81.5879L171.766 92.8618C170.293 93.6723 168.157 93.8197 166.905 93.0828Z" fill="#5793CE"/>
<path d="M188.046 90.6509C188.046 91.2404 187.604 92.0509 187.088 92.3457C186.572 92.6404 186.13 92.4193 186.13 91.7562C186.13 91.1667 186.572 90.3561 187.088 90.0614C187.604 89.7666 188.046 89.9877 188.046 90.6509Z" fill="#D4ECFF"/>
<path d="M191.213 88.8097C191.213 89.3992 190.771 90.2098 190.255 90.5045C189.739 90.7993 189.297 90.5782 189.297 89.915C189.297 89.3255 189.739 88.515 190.255 88.2203C190.771 87.9255 191.213 88.2203 191.213 88.8097Z" fill="#D4ECFF"/>
<path d="M194.311 87.0403C194.311 87.6298 193.869 88.4403 193.353 88.7351C192.837 89.0298 192.395 88.8088 192.395 88.1456C192.395 87.5561 192.837 86.7456 193.353 86.4508C193.869 86.1561 194.311 86.3772 194.311 87.0403Z" fill="#D4ECFF"/>
<path d="M196.951 75.1016V66.7751H178.319L171.912 63.0172C170.439 62.1329 167.861 62.2803 166.167 63.2382L160.129 66.7015H141.497V75.249C141.423 75.8385 141.791 76.3543 142.454 76.7964L166.536 90.723C168.009 91.6072 170.586 91.4598 172.28 90.5019L195.551 77.0911C196.509 76.5753 196.951 75.8385 196.951 75.1016Z" fill="#396CAA"/>
<path d="M169.192 62.5012C168.087 62.5012 166.982 62.796 166.099 63.3118L160.06 66.775H141.428V75.3225C141.354 75.912 141.723 76.4278 142.385 76.8699L166.467 90.7965C167.203 91.2387 168.161 91.386 169.118 91.386V62.5012H169.192Z" fill="#396CAA"/>
<path d="M143.486 66.7762H141.35V75.3238C141.276 75.9133 141.644 76.4291 142.308 76.8712L143.413 77.5343V66.7762H143.486Z" fill="#5793CE"/>
<path d="M166.833 91.019C168.085 91.5348 169.926 91.5348 171.473 90.9453V81.2188H166.833V91.019Z" fill="#5793CE"/>
<path d="M166.465 82.2499L142.384 68.3233C140.911 67.4391 141.058 65.9654 142.826 65.0075L166.097 51.5967C167.791 50.6388 170.368 50.4914 171.841 51.3756L195.923 65.3022C197.396 66.1864 197.248 67.6601 195.481 68.6181L172.209 82.0289C170.516 83.0605 167.938 83.1341 166.465 82.2499Z" fill="#D4ECFF"/>
<path d="M166.905 79.7439L146.727 68.1016C145.475 67.3647 145.622 66.1121 147.095 65.3015L166.611 54.0276C168.01 53.2171 170.219 53.1434 171.471 53.8065L191.65 65.4489C192.902 66.1857 192.754 67.4384 191.281 68.2489L171.766 79.5228C170.293 80.4071 168.157 80.4808 166.905 79.7439Z" fill="#5793CE"/>
<path d="M188.046 77.313C188.046 77.9025 187.604 78.713 187.088 79.0078C186.572 79.3025 186.13 79.0815 186.13 78.4183C186.13 77.8288 186.572 77.0183 187.088 76.7235C187.604 76.4288 188.046 76.7235 188.046 77.313Z" fill="#D4ECFF"/>
<path d="M191.213 75.5448C191.213 76.1342 190.771 76.9448 190.255 77.2395C189.739 77.5343 189.297 77.3132 189.297 76.65C189.297 76.0606 189.739 75.25 190.255 74.9553C190.771 74.6605 191.213 74.8816 191.213 75.5448Z" fill="#D4ECFF"/>
<path d="M194.311 73.7025C194.311 74.292 193.869 75.1026 193.353 75.3973C192.837 75.6921 192.395 75.471 192.395 74.8078C192.395 74.2183 192.837 73.4078 193.353 73.1131C193.869 72.8183 194.311 73.1131 194.311 73.7025Z" fill="#D4ECFF"/>
<path d="M196.951 61.8402V53.5138H178.319L171.912 49.7558C170.439 48.8716 167.861 49.0189 166.167 49.9769L160.129 53.4401H141.497V61.9876C141.423 62.5771 141.791 63.0929 142.454 63.535L166.536 77.4616C168.009 78.3459 170.586 78.1985 172.28 77.2406L195.551 63.8298C196.509 63.2403 196.951 62.5034 196.951 61.8402Z" fill="#396CAA"/>
<path d="M169.192 49.2398C168.087 49.2398 166.982 49.5346 166.099 50.0504L160.06 53.5136H141.428V62.0611C141.354 62.6506 141.723 63.1664 142.385 63.6085L166.467 77.5351C167.203 77.9772 168.161 78.1246 169.118 78.1246V49.2398H169.192Z" fill="#396CAA"/>
<path d="M143.487 53.5136H141.35V62.0611C141.276 62.6506 141.644 63.1664 142.308 63.6085L143.413 64.2717V53.5136H143.487Z" fill="#5793CE"/>
<path d="M166.833 77.6815C168.085 78.1973 169.926 78.1973 171.473 77.6078V67.8813H166.833V77.6815Z" fill="#5793CE"/>
<path d="M166.465 68.9874L142.384 55.0608C140.911 54.1766 141.058 52.7029 142.826 51.7449L166.097 38.3341C167.791 37.3762 170.368 37.2289 171.841 38.1131L195.923 52.0397C197.396 52.9239 197.248 54.3976 195.481 55.3555L172.21 68.7663C170.516 69.7242 167.938 69.8716 166.465 68.9874Z" fill="#D4ECFF"/>
<path d="M195.481 53.6608L172.209 67.0716C170.515 68.0295 167.938 68.1769 166.465 67.2927L142.384 53.4398C142.089 53.2187 141.794 52.9977 141.647 52.7766C141.132 53.5871 141.353 54.4714 142.384 55.0608L166.465 68.9874C167.938 69.8717 170.515 69.7243 172.209 68.7664L195.481 55.3556C196.806 54.6187 197.175 53.5134 196.659 52.7029C196.438 52.9976 196.07 53.3661 195.481 53.6608Z" fill="white"/>
<path d="M188.046 64.0506C188.046 64.64 187.604 65.4506 187.088 65.7453C186.572 66.0401 186.13 65.819 186.13 65.1558C186.13 64.5664 186.572 63.7558 187.088 63.4611C187.604 63.1663 188.046 63.3874 188.046 64.0506Z" fill="#D4ECFF"/>
<path d="M191.213 62.2094C191.213 62.7989 190.771 63.6095 190.255 63.9042C189.739 64.1989 189.297 63.9779 189.297 63.3147C189.297 62.7252 189.739 61.9147 190.255 61.62C190.771 61.3252 191.213 61.6199 191.213 62.2094Z" fill="#D4ECFF"/>
<path d="M194.311 60.4401C194.311 61.0296 193.869 61.8401 193.353 62.1349C192.837 62.4296 192.395 62.2086 192.395 61.5454C192.395 60.9559 192.837 60.1454 193.353 59.8506C193.869 59.5559 194.311 59.7769 194.311 60.4401Z" fill="#D4ECFF"/>
<path d="M167.93 60.3642L156.662 53.8799C155.999 53.5114 156.073 52.7746 156.883 52.3325L167.782 46.0692C168.593 45.6271 169.771 45.5534 170.507 45.9218L181.775 52.4061C182.438 52.7746 182.364 53.5114 181.554 53.9535L170.655 60.2168C169.771 60.7326 168.593 60.7326 167.93 60.3642Z" fill="#5793CE"/>
<path d="M168.965 54.9121L167.418 54.0279C167.345 53.9542 167.345 53.8805 167.418 53.8068L168.891 52.9226C169.039 52.8489 169.186 52.8489 169.26 52.9226L170.806 53.8068C170.88 53.8805 170.88 53.9542 170.806 54.0279L169.333 54.9121C169.26 54.9858 169.039 54.9858 168.965 54.9121Z" fill="#D4ECFF"/>
<path d="M156.594 53.8809C156.667 53.8809 156.741 53.8072 156.815 53.8072L167.714 47.5439C168.524 47.1018 169.702 47.0281 170.439 47.3966L181.706 53.8809C182.369 53.4388 182.369 52.7756 181.706 52.4072L170.439 45.9229C169.776 45.5544 168.524 45.5544 167.714 46.0702L156.815 52.3335C156.004 52.7756 155.931 53.4388 156.594 53.8809Z" fill="#396CAA"/>
<path d="M123.672 150.334L82.0634 126.607C80.5169 125.723 80.7378 124.176 82.5052 123.144L106.439 109.291C108.207 108.26 110.858 108.186 112.405 109.07L154.013 132.797C155.56 133.681 155.339 135.229 153.571 136.26L129.637 150.113C127.87 151.145 125.219 151.219 123.672 150.334Z" fill="#B2D3EA"/>
<path d="M157.696 124.913V27.722L119.107 17.6271L111.963 13.5007C110.343 12.5428 107.471 12.6902 105.63 13.7954L99.0021 17.6271H78.3818L84.4943 111.429C84.4206 112.092 84.7888 112.682 85.5989 113.124L124.115 142.23C125.735 143.188 128.607 143.04 130.448 141.935L156.15 127.124C157.181 126.461 157.696 125.65 157.696 124.913Z" fill="#396CAA"/>
<path d="M109.017 12.9109C107.839 12.9109 106.587 13.2057 105.629 13.7952L99.0014 17.6268H78.3812V115.039C78.3076 115.702 78.6758 116.292 79.4858 116.734L124.114 142.156C124.924 142.598 125.955 142.819 127.06 142.819L127.502 44.8168L109.017 12.9109Z" fill="#D4ECFF"/>
<path d="M124.485 142.377C125.884 142.966 127.946 142.966 129.567 142.303V43.6378H124.485V142.377Z" fill="#5793CE"/>
<path d="M124.109 44.8165L79.4805 19.395C77.8604 18.437 78.0813 16.816 79.9224 15.7107L105.624 0.89984C107.539 -0.205445 110.337 -0.279126 111.957 0.605102L156.586 26.0267C158.206 26.9846 157.985 28.6057 156.144 29.7109L130.442 44.5218C128.527 45.627 125.729 45.7744 124.109 44.8165Z" fill="#D4ECFF"/>
<path d="M156.152 27.9431L130.451 42.754C128.536 43.8592 125.738 43.9329 124.117 43.0487L79.4893 17.6271C79.1211 17.4061 78.8265 17.185 78.6792 16.8903C78.09 17.7745 78.3846 18.8061 79.4893 19.3956L124.117 44.8172C125.738 45.7751 128.61 45.6277 130.451 44.5224L156.152 29.7116C157.625 28.901 158.067 27.6484 157.404 26.7642C157.11 27.2063 156.742 27.5747 156.152 27.9431Z" fill="#FAFDFF"/>
<path d="M135.455 64.0489L152.319 54.3961C153.277 53.8803 154.013 52.4066 154.013 51.0802V45.038C154.013 43.7854 153.277 43.1959 152.319 43.7117L135.455 53.4382C134.497 53.954 133.761 55.4277 133.761 56.754V62.7963C133.761 64.0489 134.497 64.6384 135.455 64.0489Z" fill="#173D7A"/>
<path d="M153.207 43.5643C153.501 43.7854 153.649 44.2275 153.649 44.817V50.8592C153.649 52.1118 152.912 53.5856 151.955 54.175L135.091 63.8279C134.796 63.9752 134.501 64.0489 134.28 63.9752C134.575 64.27 135.017 64.3437 135.606 64.0489L152.47 54.3961C153.428 53.8803 154.164 52.4066 154.164 51.0802V45.038C154.091 44.1538 153.722 43.638 153.207 43.5643Z" fill="white"/>
<path d="M140.532 57.4907L142.079 56.6065C142.3 56.4591 142.448 56.1644 142.448 55.8696V54.2485C142.448 53.9538 142.3 53.8801 142.079 53.9538L140.532 54.838C140.311 54.9854 140.164 55.2801 140.164 55.5749V57.196C140.164 57.4907 140.311 57.6381 140.532 57.4907Z" fill="#396CAA"/>
<path d="M145.69 54.47L147.237 53.5858C147.458 53.4384 147.605 53.1437 147.605 52.8489V51.2279C147.605 50.9331 147.458 50.8594 147.237 50.9331L145.69 51.8173C145.469 51.9647 145.321 52.2595 145.321 52.5542V54.1753C145.321 54.47 145.542 54.6174 145.69 54.47Z" fill="white"/>
<path d="M135.455 107.744L152.319 98.0916C153.277 97.5758 154.013 96.102 154.013 94.7757V88.7335C154.013 87.4808 153.277 86.8913 152.319 87.4071L135.455 97.06C134.497 97.5758 133.761 99.0495 133.761 100.376V106.418C133.761 107.671 134.497 108.26 135.455 107.744Z" fill="#173D7A"/>
<path d="M153.207 87.2584C153.501 87.4795 153.649 87.9216 153.649 88.5111V94.5533C153.649 95.806 152.912 97.2797 151.955 97.8692L135.091 107.522C134.796 107.669 134.501 107.743 134.28 107.669C134.575 107.964 135.017 108.038 135.606 107.743L152.47 98.0902C153.428 97.5744 154.164 96.1007 154.164 94.7744V88.7322C154.091 87.8479 153.722 87.3321 153.207 87.2584Z" fill="white"/>
<path d="M140.532 101.185L142.079 100.301C142.3 100.153 142.448 99.8586 142.448 99.5638V97.9427C142.448 97.648 142.3 97.5743 142.079 97.648L140.532 98.5322C140.311 98.6796 140.164 98.9743 140.164 99.2691V100.89C140.164 101.111 140.311 101.259 140.532 101.185Z" fill="#396CAA"/>
<path d="M145.69 98.1642L147.237 97.2799C147.458 97.1326 147.605 96.8378 147.605 96.5431V94.922C147.605 94.6273 147.458 94.5536 147.237 94.6273L145.69 95.5115C145.469 95.6589 145.321 95.9536 145.321 96.2483V97.8694C145.321 98.1642 145.542 98.3115 145.69 98.1642Z" fill="#396CAA"/>
<path d="M135.455 129.557L152.319 119.904C153.277 119.388 154.013 117.915 154.013 116.588V110.546C154.013 109.294 153.277 108.704 152.319 109.22L135.455 118.873C134.497 119.388 133.761 120.862 133.761 122.189V128.231C133.761 129.483 134.497 130.073 135.455 129.557Z" fill="#173D7A"/>
<path d="M153.202 109.073C153.497 109.294 153.644 109.736 153.644 110.325V116.368C153.644 117.62 152.908 119.094 151.951 119.683L135.012 129.336C134.718 129.484 134.423 129.557 134.202 129.484C134.497 129.778 134.939 129.852 135.528 129.557L152.392 119.904C153.35 119.389 154.086 117.915 154.086 116.589V110.546C154.086 109.662 153.718 109.146 153.202 109.073Z" fill="white"/>
<path d="M140.532 122.999L142.079 122.115C142.3 121.967 142.448 121.673 142.448 121.378V119.757C142.448 119.462 142.3 119.388 142.079 119.462L140.532 120.346C140.311 120.494 140.164 120.788 140.164 121.083V122.704C140.164 122.999 140.311 123.073 140.532 122.999Z" fill="white"/>
<path d="M145.69 119.978L147.237 119.094C147.458 118.947 147.605 118.652 147.605 118.357V116.736C147.605 116.441 147.458 116.368 147.237 116.441L145.69 117.325C145.469 117.473 145.321 117.768 145.321 118.062V119.683C145.321 119.978 145.542 120.126 145.69 119.978Z" fill="#396CAA"/>
<path d="M135.455 85.8604L152.319 76.2076C153.277 75.6918 154.013 74.2181 154.013 72.8918V66.8495C154.013 65.5969 153.277 65.0074 152.319 65.5232L135.455 75.176C134.497 75.6918 133.761 77.1655 133.761 78.4919V84.5341C133.761 85.8604 134.497 86.4499 135.455 85.8604Z" fill="#173D7A"/>
<path d="M153.207 65.3759C153.501 65.597 153.649 66.0391 153.649 66.6286V72.6708C153.649 73.9234 152.912 75.3972 151.955 75.9866L135.091 85.6395C134.796 85.7868 134.501 85.8605 134.28 85.7868C134.575 86.0816 135.017 86.1553 135.606 85.8605L152.47 76.2077C153.428 75.6919 154.164 74.2182 154.164 72.8918V66.8496C154.091 66.0391 153.722 65.4496 153.207 65.3759Z" fill="white"/>
<path d="M140.532 79.3031L142.079 78.4189C142.3 78.2715 142.448 77.9768 142.448 77.682V76.061C142.448 75.7662 142.3 75.6925 142.079 75.7662L140.532 76.6504C140.311 76.7978 140.164 77.0926 140.164 77.3873V79.0084C140.164 79.3031 140.311 79.4505 140.532 79.3031Z" fill="white"/>
<path d="M145.69 76.355L147.237 75.4708C147.458 75.3234 147.605 75.0286 147.605 74.7339V73.1128C147.605 72.8181 147.458 72.7444 147.237 72.8181L145.69 73.7023C145.469 73.8497 145.321 74.1444 145.321 74.4392V76.0602C145.321 76.355 145.542 76.4287 145.69 76.355Z" fill="white"/>
<path d="M120.798 57.8592L81.8403 35.3851C80.9566 34.8693 80.2938 33.5429 80.2938 32.364V24.9217C80.2938 23.7427 81.0302 23.2269 81.8403 23.7427L120.798 46.2169C121.682 46.7327 122.344 48.059 122.344 49.238V56.6802C122.418 57.8592 121.682 58.375 120.798 57.8592Z" fill="#5793CE"/>
<path opacity="0.4" d="M119.695 55.2808L82.9469 34.0593C82.5051 33.8383 82.1369 33.1014 82.1369 32.5119V26.9118C82.1369 26.3223 82.5051 26.0276 82.9469 26.3223L119.695 47.5438C120.137 47.7649 120.505 48.5017 120.505 49.0912V54.6913C120.505 55.2808 120.137 55.5019 119.695 55.2808Z" fill="#D4ECFF"/>
<path d="M90.6028 35.6063L85.1531 32.4378C84.7113 32.2167 84.343 31.5536 84.343 30.9641C84.343 30.3746 84.7113 30.1535 85.1531 30.3746L90.6028 33.5431C91.0446 33.7641 91.4128 34.4273 91.4128 35.0168C91.4128 35.6063 91.0446 35.901 90.6028 35.6063Z" fill="#D4ECFF"/>
<path d="M95.3185 37.3012C95.3185 37.8906 94.9501 38.1117 94.4343 37.817C93.9185 37.5222 93.55 36.859 93.55 36.2695C93.55 35.6801 93.9185 35.459 94.4343 35.7537C94.8764 36.0485 95.3185 36.7117 95.3185 37.3012Z" fill="#173D7A"/>
<path d="M98.4858 39.1431C98.4858 39.7326 98.1173 39.9537 97.6015 39.6589C97.0857 39.3642 96.7173 38.701 96.7173 38.1115C96.7173 37.522 97.0857 37.301 97.6015 37.5957C98.0436 37.8905 98.4858 38.5537 98.4858 39.1431Z" fill="#173D7A"/>
<path d="M101.653 40.9851C101.653 41.5746 101.284 41.7957 100.768 41.5009C100.253 41.2062 99.8842 40.543 99.8842 39.9535C99.8842 39.364 100.253 39.143 100.768 39.4377C101.211 39.6588 101.653 40.3956 101.653 40.9851Z" fill="#D4ECFF"/>
<path d="M104.82 42.8283C104.82 43.4178 104.451 43.6388 103.935 43.3441C103.42 43.0493 103.051 42.3861 103.051 41.7967C103.051 41.2072 103.42 40.9861 103.935 41.2809C104.451 41.5019 104.82 42.2388 104.82 42.8283Z" fill="#173D7A"/>
<path d="M118.145 52.1109L116.304 51.0793C116.009 50.9319 115.788 50.4898 115.788 50.1214V48.1318C115.788 47.7634 116.009 47.616 116.304 47.7634L118.145 48.795C118.439 48.9424 118.66 49.3845 118.66 49.7529V51.7424C118.66 52.1109 118.439 52.3319 118.145 52.1109Z" fill="#173D7A"/>
<path d="M120.798 70.9761L81.8403 48.502C80.9566 47.9862 80.2938 46.6598 80.2938 45.4809V38.0386C80.2938 36.8597 81.0302 36.3439 81.8403 36.8597L120.798 59.3338C121.682 59.8496 122.344 61.1759 122.344 62.3549V69.7971C122.418 70.9761 121.682 71.4919 120.798 70.9761Z" fill="#5793CE"/>
<path opacity="0.4" d="M119.695 68.3976L82.9469 47.1761C82.5051 46.955 82.1369 46.2182 82.1369 45.6287V40.0286C82.1369 39.4391 82.5051 39.1444 82.9469 39.4391L119.695 60.6606C120.137 60.8816 120.505 61.6185 120.505 62.208V67.8081C120.505 68.3239 120.137 68.6186 119.695 68.3976Z" fill="#D4ECFF"/>
<path d="M90.6028 48.723L85.1531 45.5546C84.7113 45.3335 84.343 44.6703 84.343 44.0808C84.343 43.4914 84.7113 43.2703 85.1531 43.4914L90.6028 46.6598C91.0446 46.8809 91.4128 47.5441 91.4128 48.1336C91.4128 48.723 91.0446 49.0178 90.6028 48.723Z" fill="#D4ECFF"/>
<path d="M95.3185 50.4179C95.3185 51.0074 94.9501 51.2284 94.4343 50.9337C93.9185 50.639 93.55 49.9758 93.55 49.3863C93.55 48.7968 93.9185 48.5758 94.4343 48.8705C94.8764 49.1652 95.3185 49.8284 95.3185 50.4179Z" fill="white"/>
<path d="M98.4858 52.2599C98.4858 52.8494 98.1173 53.0704 97.6015 52.7757C97.0857 52.4809 96.7173 51.8178 96.7173 51.2283C96.7173 50.6388 97.0857 50.4177 97.6015 50.7125C98.0436 51.0072 98.4858 51.6704 98.4858 52.2599Z" fill="#173D7A"/>
<path d="M101.653 54.1019C101.653 54.6914 101.284 54.9124 100.768 54.6177C100.253 54.3229 99.8842 53.6598 99.8842 53.0703C99.8842 52.4808 100.253 52.2597 100.768 52.5545C101.211 52.7755 101.653 53.5124 101.653 54.1019Z" fill="#D4ECFF"/>
<path d="M104.82 55.8703C104.82 56.4597 104.451 56.6808 103.935 56.386C103.42 56.0913 103.051 55.4281 103.051 54.8386C103.051 54.2492 103.42 54.0281 103.935 54.3228C104.451 54.6176 104.82 55.3545 104.82 55.8703Z" fill="#173D7A"/>
<path d="M118.145 65.2275L116.304 64.1959C116.009 64.0486 115.788 63.6065 115.788 63.238V61.2485C115.788 60.8801 116.009 60.7327 116.304 60.8801L118.145 61.9117C118.439 62.059 118.66 62.5012 118.66 62.8696V64.8591C118.66 65.2275 118.439 65.4486 118.145 65.2275Z" fill="#173D7A"/>
<path d="M120.798 84.0918L81.8403 61.544C80.9566 61.0282 80.2938 59.7019 80.2938 58.5229V51.0807C80.2938 49.9017 81.0302 49.3859 81.8403 49.9017L120.798 72.3758C121.682 72.8916 122.344 74.218 122.344 75.3969V82.9129C122.418 84.0182 121.682 84.6076 120.798 84.0918Z" fill="#5793CE"/>
<path opacity="0.4" d="M119.695 81.5121L82.9469 60.2906C82.5051 60.0696 82.1369 59.3327 82.1369 58.7432V53.1431C82.1369 52.5536 82.5051 52.2589 82.9469 52.5536L119.695 73.7751C120.137 73.9962 120.505 74.733 120.505 75.3225V80.9226C120.505 81.4384 120.137 81.7332 119.695 81.5121Z" fill="#D4ECFF"/>
<path d="M90.6028 61.8387L85.1531 58.6702C84.7113 58.4492 84.343 57.786 84.343 57.1965C84.343 56.607 84.7113 56.3859 85.1531 56.607L90.6028 59.7755C91.0446 59.9965 91.4128 60.6597 91.4128 61.2492C91.4128 61.8387 91.0446 62.1334 90.6028 61.8387Z" fill="#D4ECFF"/>
<path d="M95.3185 63.5336C95.3185 64.1231 94.9501 64.3442 94.4343 64.0494C93.9185 63.7547 93.55 63.0915 93.55 62.502C93.55 61.9125 93.9185 61.6915 94.4343 61.9862C94.8764 62.281 95.3185 62.9441 95.3185 63.5336Z" fill="white"/>
<path d="M98.4858 65.3755C98.4858 65.965 98.1173 66.186 97.6015 65.8913C97.0857 65.5965 96.7173 64.9334 96.7173 64.3439C96.7173 63.7544 97.0857 63.5334 97.6015 63.8281C98.0436 64.0492 98.4858 64.786 98.4858 65.3755Z" fill="#173D7A"/>
<path d="M101.653 67.144C101.653 67.7334 101.284 67.9545 100.768 67.6598C100.253 67.365 99.8842 66.7018 99.8842 66.1123C99.8842 65.5229 100.253 65.3018 100.768 65.5965C101.211 65.8913 101.653 66.6282 101.653 67.144Z" fill="#D4ECFF"/>
<path d="M104.82 68.9871C104.82 69.5766 104.451 69.7977 103.935 69.5029C103.42 69.2082 103.051 68.545 103.051 67.9555C103.051 67.366 103.42 67.145 103.935 67.4397C104.451 67.7345 104.82 68.4713 104.82 68.9871Z" fill="#173D7A"/>
<path d="M118.145 78.3457L116.304 77.3141C116.009 77.1667 115.788 76.7246 115.788 76.3562V74.3667C115.788 73.9982 116.009 73.8509 116.304 73.9982L118.145 75.0298C118.439 75.1772 118.66 75.6193 118.66 75.9878V77.9773C118.66 78.3457 118.439 78.4931 118.145 78.3457Z" fill="#173D7A"/>
<path d="M120.798 97.2075L81.8403 74.6597C80.9566 74.1439 80.2938 72.8176 80.2938 71.6386V64.1963C80.2938 63.0174 81.0302 62.5016 81.8403 63.0174L120.798 85.4915C121.682 86.0073 122.344 87.3336 122.344 88.5126V95.9549C122.418 97.1338 121.682 97.7233 120.798 97.2075Z" fill="#5793CE"/>
<path opacity="0.4" d="M119.695 94.5554L82.9469 73.3339C82.5051 73.1128 82.1369 72.376 82.1369 71.7865V66.1864C82.1369 65.5969 82.5051 65.3022 82.9469 65.5969L119.695 86.8184C120.137 87.0394 120.505 87.7763 120.505 88.3658V93.9659C120.505 94.5554 120.137 94.8501 119.695 94.5554Z" fill="#D4ECFF"/>
<path d="M90.6028 74.9544L85.1531 71.7859C84.7113 71.5648 84.343 70.9017 84.343 70.3122C84.343 69.7227 84.7113 69.5016 85.1531 69.7227L90.6028 72.8912C91.0446 73.1122 91.4128 73.7754 91.4128 74.3649C91.4128 74.9544 91.0446 75.2491 90.6028 74.9544Z" fill="#D4ECFF"/>
<path d="M95.3185 76.648C95.3185 77.2375 94.9501 77.4586 94.4343 77.1638C93.9185 76.8691 93.55 76.2059 93.55 75.6164C93.55 75.0269 93.9185 74.8059 94.4343 75.1006C94.8764 75.3217 95.3185 76.0585 95.3185 76.648Z" fill="#173D7A"/>
<path d="M98.4858 78.4912C98.4858 79.0807 98.1173 79.3018 97.6015 79.007C97.0857 78.7123 96.7173 78.0491 96.7173 77.4596C96.7173 76.8702 97.0857 76.6491 97.6015 76.9438C98.0436 77.1649 98.4858 77.9017 98.4858 78.4912Z" fill="#173D7A"/>
<path d="M101.653 80.2596C101.653 80.8491 101.284 81.0702 100.768 80.7754C100.253 80.4807 99.8842 79.8175 99.8842 79.228C99.8842 78.6386 100.253 78.4175 100.768 78.7122C101.211 79.007 101.653 79.7438 101.653 80.2596Z" fill="#D4ECFF"/>
<path d="M104.82 82.1015C104.82 82.6909 104.451 82.912 103.935 82.6173C103.42 82.3225 103.051 81.6593 103.051 81.0699C103.051 80.4804 103.42 80.2593 103.935 80.5541C104.451 80.8488 104.82 81.512 104.82 82.1015Z" fill="#173D7A"/>
<path d="M118.145 91.4601L116.304 90.4285C116.009 90.2811 115.788 89.839 115.788 89.4706V87.481C115.788 87.1126 116.009 86.9652 116.304 87.1126L118.145 88.1442C118.439 88.2916 118.66 88.7337 118.66 89.1021V91.0916C118.66 91.4601 118.439 91.6074 118.145 91.4601Z" fill="#D4ECFF"/>
<path d="M120.798 110.324L81.8403 87.7765C80.9566 87.2607 80.2938 85.9344 80.2938 84.7554V77.3132C80.2938 76.1342 81.0302 75.6184 81.8403 76.1342L120.798 98.6083C121.682 99.1241 122.344 100.45 122.344 101.629V109.072C122.418 110.251 121.682 110.84 120.798 110.324Z" fill="#5793CE"/>
<path opacity="0.4" d="M119.695 107.672L82.9469 86.4508C82.5051 86.2298 82.1369 85.4929 82.1369 84.9034V79.3033C82.1369 78.7138 82.5051 78.4191 82.9469 78.7138L119.695 99.9353C120.137 100.156 120.505 100.893 120.505 101.483V107.083C120.505 107.672 120.137 107.967 119.695 107.672Z" fill="#D4ECFF"/>
<path d="M90.6028 88.0713L85.1531 84.9028C84.7113 84.6818 84.343 84.0186 84.343 83.4291C84.343 82.8396 84.7113 82.6186 85.1531 82.8396L90.6028 86.0081C91.0446 86.2292 91.4128 86.8923 91.4128 87.4818C91.4128 88.0713 91.0446 88.2924 90.6028 88.0713Z" fill="#D4ECFF"/>
<path d="M95.3185 89.7662C95.3185 90.3557 94.9501 90.5767 94.4343 90.282C93.9185 89.9873 93.55 89.3241 93.55 88.7346C93.55 88.1451 93.9185 87.9241 94.4343 88.2188C94.8764 88.4399 95.3185 89.1767 95.3185 89.7662Z" fill="#173D7A"/>
<path d="M98.4858 91.5346C98.4858 92.1241 98.1173 92.3451 97.6015 92.0504C97.0857 91.7556 96.7173 91.0925 96.7173 90.503C96.7173 89.9135 97.0857 89.6924 97.6015 89.9872C98.0436 90.2819 98.4858 91.0188 98.4858 91.5346Z" fill="white"/>
<path d="M101.653 93.3766C101.653 93.966 101.284 94.1871 100.768 93.8924C100.253 93.5976 99.8842 92.9344 99.8842 92.345C99.8842 91.7555 100.253 91.5344 100.768 91.8292C101.211 92.1239 101.653 92.8608 101.653 93.3766Z" fill="#D4ECFF"/>
<path d="M104.82 95.2185C104.82 95.808 104.451 96.029 103.935 95.7343C103.42 95.4396 103.051 94.7764 103.051 94.1869C103.051 93.5974 103.42 93.3764 103.935 93.6711C104.451 93.9659 104.82 94.629 104.82 95.2185Z" fill="white"/>
<path d="M118.145 104.577L116.304 103.545C116.009 103.398 115.788 102.956 115.788 102.588V100.598C115.788 100.23 116.009 100.082 116.304 100.23L118.145 101.261C118.439 101.409 118.66 101.851 118.66 102.219V104.209C118.66 104.577 118.439 104.724 118.145 104.577Z" fill="#D4ECFF"/>
<path d="M120.798 123.44L81.8403 100.892C80.9566 100.376 80.2938 99.05 80.2938 97.871V90.4288C80.2938 89.2498 81.0302 88.734 81.8403 89.2498L120.798 111.724C121.682 112.24 122.344 113.566 122.344 114.745V122.187C122.418 123.366 121.682 123.882 120.798 123.44Z" fill="#5793CE"/>
<path opacity="0.4" d="M119.695 120.788L82.9469 99.5664C82.5051 99.3453 82.1369 98.6085 82.1369 98.019V92.4925C82.1369 91.9031 82.5051 91.6083 82.9469 91.9031L119.695 113.125C120.137 113.346 120.505 114.082 120.505 114.672V120.272C120.505 120.788 120.137 121.083 119.695 120.788Z" fill="#D4ECFF"/>
<path d="M90.6028 101.187L85.1531 98.0183C84.7113 97.7973 84.343 97.1341 84.343 96.5446C84.343 95.9551 84.7113 95.7341 85.1531 95.9551L90.6028 99.1236C91.0446 99.3447 91.4128 100.008 91.4128 100.597C91.4128 101.187 91.0446 101.408 90.6028 101.187Z" fill="#D4ECFF"/>
<path d="M95.3185 102.808C95.3185 103.398 94.9501 103.619 94.4343 103.324C93.9185 103.029 93.55 102.366 93.55 101.777C93.55 101.187 93.9185 100.966 94.4343 101.261C94.8764 101.556 95.3185 102.292 95.3185 102.808Z" fill="#173D7A"/>
<path d="M98.4858 104.65C98.4858 105.24 98.1173 105.461 97.6015 105.166C97.0857 104.871 96.7173 104.208 96.7173 103.619C96.7173 103.029 97.0857 102.808 97.6015 103.103C98.0436 103.398 98.4858 104.134 98.4858 104.65Z" fill="#173D7A"/>
<path d="M101.653 106.492C101.653 107.082 101.284 107.303 100.768 107.008C100.253 106.713 99.8842 106.05 99.8842 105.46C99.8842 104.871 100.253 104.65 100.768 104.945C101.211 105.239 101.653 105.903 101.653 106.492Z" fill="#D4ECFF"/>
<path d="M104.82 108.335C104.82 108.925 104.451 109.146 103.935 108.851C103.42 108.556 103.051 107.893 103.051 107.304C103.051 106.714 103.42 106.493 103.935 106.788C104.451 107.083 104.82 107.746 104.82 108.335Z" fill="#173D7A"/>
<path d="M118.145 117.694L116.304 116.662C116.009 116.515 115.788 116.073 115.788 115.704V113.715C115.788 113.346 116.009 113.199 116.304 113.346L118.145 114.378C118.439 114.525 118.66 114.967 118.66 115.336V117.325C118.66 117.694 118.439 117.841 118.145 117.694Z" fill="#173D7A"/>
<path d="M120.798 136.483L81.8403 114.009C80.9566 113.493 80.2938 112.167 80.2938 110.988V103.546C80.2938 102.367 81.0302 101.851 81.8403 102.367L120.798 124.841C121.682 125.357 122.344 126.683 122.344 127.862V135.304C122.418 136.483 121.682 136.999 120.798 136.483Z" fill="#5793CE"/>
<path opacity="0.4" d="M119.695 133.905L82.9469 112.683C82.5051 112.462 82.1369 111.725 82.1369 111.136V105.536C82.1369 104.946 82.5051 104.652 82.9469 104.946L119.695 126.168C120.137 126.389 120.505 127.126 120.505 127.715V133.315C120.505 133.905 120.137 134.199 119.695 133.905Z" fill="#D4ECFF"/>
<path d="M90.6028 114.304L85.1531 111.135C84.7113 110.914 84.343 110.251 84.343 109.661C84.343 109.072 84.7113 108.851 85.1531 109.072L90.6028 112.24C91.0446 112.461 91.4128 113.125 91.4128 113.714C91.4128 114.304 91.0446 114.525 90.6028 114.304Z" fill="#D4ECFF"/>
<path d="M95.3185 115.925C95.3185 116.515 94.9501 116.736 94.4343 116.441C93.9185 116.146 93.55 115.483 93.55 114.893C93.55 114.304 93.9185 114.083 94.4343 114.378C94.8764 114.672 95.3185 115.409 95.3185 115.925Z" fill="white"/>
<path d="M98.4858 117.767C98.4858 118.357 98.1173 118.578 97.6015 118.283C97.0857 117.988 96.7173 117.325 96.7173 116.735C96.7173 116.146 97.0857 115.925 97.6015 116.22C98.0436 116.514 98.4858 117.178 98.4858 117.767Z" fill="#173D7A"/>
<path d="M101.653 119.609C101.653 120.198 101.284 120.419 100.768 120.125C100.253 119.83 99.8842 119.167 99.8842 118.577C99.8842 117.988 100.253 117.767 100.768 118.062C101.211 118.356 101.653 119.019 101.653 119.609Z" fill="#D4ECFF"/>
<path d="M104.82 121.452C104.82 122.042 104.451 122.263 103.935 121.968C103.42 121.673 103.051 121.01 103.051 120.42C103.051 119.831 103.42 119.61 103.935 119.905C104.451 120.199 104.82 120.863 104.82 121.452Z" fill="#173D7A"/>
<path d="M118.145 130.809L116.304 129.778C116.009 129.631 115.788 129.188 115.788 128.82V126.83C115.788 126.462 116.009 126.315 116.304 126.462L118.145 127.494C118.439 127.641 118.66 128.083 118.66 128.452V130.441C118.66 130.809 118.439 130.957 118.145 130.809Z" fill="#D4ECFF"/>
<path d="M141.719 121.229H140.909V77.3127L146.138 74.2916V52.7017H146.874V74.8074L141.719 77.7549V121.229Z" fill="white"/>
<path d="M17.1823 130.661C16.7404 130.661 16.2985 130.514 15.8567 130.292L1.56978 122.187C1.12792 121.966 0.833344 121.524 0.833344 121.008C0.833344 120.492 1.05427 120.05 1.49614 119.829L37.2134 99.1971C39.2754 98.0182 41.7793 98.0182 43.8413 99.1971L84.6399 122.777L84.0508 123.808L43.2521 100.229C41.5583 99.2708 39.4963 99.2708 37.8025 100.229L2.08529 120.861C2.01164 120.934 2.01164 121.008 2.01164 121.008C2.01164 121.082 2.01164 121.155 2.08529 121.155L16.3722 129.261C16.8877 129.556 17.4768 129.556 17.9187 129.187L23.9575 125.282L24.6203 126.24L18.5815 130.145C18.2133 130.514 17.6978 130.661 17.1823 130.661Z" fill="#B2D3EA"/>
<path d="M35.8158 133.83L16.5948 122.703C15.4165 122.04 15.5638 120.861 16.8894 120.05L35.4476 109.292C36.8468 108.482 38.9089 108.408 40.0872 109.071L59.3082 120.198C60.4865 120.861 60.3392 122.04 59.0136 122.851L40.4554 133.609C39.0562 134.419 36.9941 134.493 35.8158 133.83Z" fill="#B2D3EA"/>
<path d="M65.719 111.796V103.47H47.0872L40.6802 99.7117C39.2073 98.8275 36.6298 98.9749 34.9359 99.9328L28.8972 103.396H10.2653V111.944C10.1917 112.533 10.5599 113.049 11.2227 113.491L35.3042 127.418C36.777 128.302 39.3546 128.154 41.0484 127.196L64.3198 113.786C65.2772 113.196 65.7927 112.459 65.719 111.796Z" fill="#396CAA"/>
<path d="M37.9603 99.1234C36.8557 99.1234 35.751 99.4181 34.8673 99.9339L28.8285 103.397H10.1966V111.945C10.123 112.534 10.4912 113.05 11.154 113.492L35.2355 127.419C35.9719 127.861 36.9293 128.008 37.8867 128.008V99.1234H37.9603Z" fill="#396CAA"/>
<path d="M12.3335 103.397H10.1966V111.945C10.1229 112.534 10.4914 113.05 11.1545 113.492L12.2598 114.155V103.397H12.3335Z" fill="#5793CE"/>
<path d="M35.6708 127.639C36.9227 128.154 38.7638 128.154 40.3104 127.565V117.838H35.6708V127.639Z" fill="#5793CE"/>
<path d="M35.3075 118.944L11.1523 105.018C9.67946 104.134 9.82675 102.66 11.5942 101.702L34.8656 88.2912C36.5594 87.3333 39.137 87.1859 40.6098 88.0702L64.6913 101.997C66.1642 102.881 66.0169 104.355 64.2495 105.313L40.9781 118.723C39.3579 119.681 36.7804 119.755 35.3075 118.944Z" fill="#D4ECFF"/>
<path d="M35.7525 116.438L15.5742 104.796C14.3222 104.059 14.4695 102.806 15.9424 101.996L35.458 90.722C36.8572 89.9115 39.0665 89.8378 40.3185 90.501L60.4968 102.143C61.7488 102.88 61.6015 104.133 60.1286 104.943L40.613 116.217C39.1402 117.028 36.9308 117.102 35.7525 116.438Z" fill="#5793CE"/>
<path d="M56.8831 114.009C56.8831 114.598 56.441 115.409 55.9252 115.704C55.4094 115.998 54.9673 115.777 54.9673 115.114C54.9673 114.525 55.4094 113.714 55.9252 113.419C56.441 113.125 56.8831 113.346 56.8831 114.009Z" fill="#D4ECFF"/>
<path d="M59.9718 112.165C59.9718 112.755 59.5297 113.565 59.0139 113.86C58.4981 114.155 58.056 113.934 58.056 113.271C58.056 112.681 58.4981 111.871 59.0139 111.576C59.5297 111.281 59.9718 111.576 59.9718 112.165Z" fill="#D4ECFF"/>
<path d="M63.1387 110.324C63.1387 110.913 62.6966 111.724 62.1808 112.019C61.665 112.313 61.2229 112.092 61.2229 111.429C61.2229 110.84 61.665 110.029 62.1808 109.734C62.6966 109.513 63.1387 109.734 63.1387 110.324Z" fill="#D4ECFF"/>
<path d="M65.719 98.4621V90.1356H47.0872L40.6802 86.3776C39.2073 85.4934 36.6298 85.6408 34.9359 86.5987L28.8972 90.0619H10.2653V98.6095C10.1917 99.1989 10.5599 99.7147 11.2227 100.157L35.3042 114.083C36.777 114.968 39.3546 114.82 41.0484 113.862L64.3198 100.452C65.2772 99.9358 65.7927 99.1989 65.719 98.4621Z" fill="#396CAA"/>
<path d="M37.9603 85.8603C36.8557 85.8603 35.751 86.155 34.8673 86.6708L28.8285 90.1341H10.1966V98.6816C10.123 99.2711 10.4912 99.7869 11.154 100.229L35.2355 114.156C35.9719 114.598 36.9293 114.745 37.8867 114.745V85.8603H37.9603Z" fill="#396CAA"/>
<path d="M12.3335 90.1354H10.1966V98.6829C10.1229 99.2724 10.4914 99.7882 11.1545 100.23L12.2598 100.893V90.1354H12.3335Z" fill="#5793CE"/>
<path d="M35.6708 114.303C36.9227 114.819 38.7638 114.819 40.3104 114.23V104.503H35.6708V114.303Z" fill="#5793CE"/>
<path d="M35.3075 105.609L11.1523 91.6825C9.67946 90.7983 9.82675 89.3246 11.5942 88.3667L34.8656 74.9559C36.5594 73.998 39.137 73.8506 40.6098 74.7348L64.6913 88.6614C66.1642 89.5457 66.0169 91.0194 64.2495 91.9773L40.9781 105.388C39.3579 106.346 36.7804 106.493 35.3075 105.609Z" fill="#D4ECFF"/>
<path d="M35.7525 103.103L15.5742 91.4608C14.3222 90.7239 14.4695 89.4713 15.9424 88.6607L35.458 77.3868C36.8572 76.5763 39.0665 76.5026 40.3185 77.1658L60.4968 88.8081C61.7488 89.5449 61.6015 90.7976 60.1286 91.6081L40.613 102.882C39.1402 103.766 36.9308 103.84 35.7525 103.103Z" fill="#5793CE"/>
<path d="M56.8831 100.673C56.8831 101.263 56.441 102.073 55.9252 102.368C55.4094 102.663 54.9673 102.442 54.9673 101.779C54.9673 101.189 55.4094 100.379 55.9252 100.084C56.441 99.7891 56.8831 100.084 56.8831 100.673Z" fill="#D4ECFF"/>
<path d="M59.9718 98.905C59.9718 99.4945 59.5297 100.305 59.0139 100.6C58.4981 100.894 58.056 100.673 58.056 100.01C58.056 99.4208 58.4981 98.6102 59.0139 98.3155C59.5297 98.0207 59.9718 98.2418 59.9718 98.905Z" fill="#D4ECFF"/>
<path d="M63.1387 97.0629C63.1387 97.6523 62.6966 98.4629 62.1808 98.7576C61.665 99.0524 61.2229 98.8313 61.2229 98.1681C61.2229 97.5787 61.665 96.7681 62.1808 96.4734C62.6966 96.1786 63.1387 96.4734 63.1387 97.0629Z" fill="#D4ECFF"/>
<path d="M65.719 85.1971V76.8706H47.0872L40.6802 73.1126C39.2073 72.2284 36.6298 72.3758 34.9359 73.3337L28.8972 76.7969H10.2653V85.3444C10.1917 85.9339 10.5599 86.4497 11.2227 86.8918L35.3042 100.818C36.777 101.703 39.3546 101.555 41.0484 100.597L64.3198 87.1866C65.2772 86.5971 65.7927 85.8602 65.719 85.1971Z" fill="#396CAA"/>
<path d="M37.9603 72.5965C36.8557 72.5965 35.751 72.8913 34.8673 73.4071L28.8285 76.8703H10.1966V85.4178C10.123 86.0073 10.4912 86.5231 11.154 86.9652L35.2355 100.892C35.9719 101.334 36.9293 101.481 37.8867 101.481V72.5965H37.9603Z" fill="#396CAA"/>
<path d="M12.3335 76.8703H10.1966V85.4178C10.1229 86.0073 10.4914 86.5231 11.1545 86.9652L12.2598 87.6284V76.8703H12.3335Z" fill="#5793CE"/>
<path d="M35.6708 101.038C36.9227 101.554 38.7638 101.554 40.3104 100.964V91.238H35.6708V101.038Z" fill="#5793CE"/>
<path d="M35.3075 92.3441L11.1523 78.4175C9.67946 77.5333 9.82675 76.0596 11.5942 75.1017L34.8656 61.6909C36.5594 60.733 39.137 60.5856 40.6098 61.4698L64.6913 75.3964C66.1642 76.2806 66.0169 77.7543 64.2495 78.7123L40.9781 92.1231C39.3579 93.081 36.7804 93.1547 35.3075 92.3441Z" fill="#D4ECFF"/>
<path d="M64.3229 77.0174L41.0515 90.4282C39.3577 91.3861 36.7801 91.5335 35.3072 90.6493L11.1521 76.7964C10.8575 76.5753 10.563 76.3543 10.4157 76.1332C9.90016 76.9437 10.1211 77.828 11.1521 78.4175L35.2336 92.3441C36.7065 93.2283 39.284 93.0809 40.9778 92.123L64.2492 78.7122C65.5748 77.9753 65.943 76.8701 65.4275 76.0595C65.2066 76.3543 64.8384 76.7227 64.3229 77.0174Z" fill="white"/>
<path d="M56.8831 87.4086C56.8831 87.998 56.441 88.8086 55.9252 89.1033C55.4094 89.3981 54.9673 89.177 54.9673 88.5138C54.9673 87.9244 55.4094 87.1138 55.9252 86.8191C56.441 86.5243 56.8831 86.7454 56.8831 87.4086Z" fill="#D4ECFF"/>
<path d="M59.9718 85.5675C59.9718 86.1569 59.5297 86.9675 59.0139 87.2622C58.4981 87.557 58.056 87.3359 58.056 86.6727C58.056 86.0833 58.4981 85.2727 59.0139 84.978C59.5297 84.6832 59.9718 84.978 59.9718 85.5675Z" fill="#D4ECFF"/>
<path d="M63.1387 83.798C63.1387 84.3875 62.6966 85.1981 62.1808 85.4928C61.665 85.7876 61.2229 85.5665 61.2229 84.9033C61.2229 84.3138 61.665 83.5033 62.1808 83.2086C62.6966 82.9138 63.1387 83.1349 63.1387 83.798Z" fill="#D4ECFF"/>
<path d="M36.7082 83.7233L25.4407 77.2389C24.7779 76.8705 24.8516 76.1336 25.6616 75.6915L36.5609 69.4282C37.371 68.9861 38.5493 68.9124 39.2857 69.2809L50.5532 75.7652C51.216 76.1336 51.1424 76.8705 50.3323 77.3126L39.433 83.5759C38.6229 84.0917 37.371 84.0917 36.7082 83.7233Z" fill="#5793CE"/>
<path d="M37.8122 78.2712L36.2657 77.387C36.1921 77.3133 36.1921 77.2396 36.2657 77.166L37.7386 76.2817C37.8859 76.208 38.0332 76.208 38.1068 76.2817L39.6533 77.166C39.727 77.2396 39.727 77.3133 39.6533 77.387L38.1804 78.2712C38.0332 78.2712 37.8859 78.3449 37.8122 78.2712Z" fill="#D4ECFF"/>
<path d="M25.4415 77.1652C25.5152 77.1652 25.5888 77.0916 25.6625 77.0916L36.5617 70.8283C37.3718 70.3862 38.5501 70.3125 39.2865 70.6809L50.554 77.1652C51.2168 76.7231 51.2168 76.0599 50.554 75.6915L39.2865 69.2072C38.6237 68.8387 37.3718 68.8388 36.5617 69.3546L25.6625 75.6178C24.8524 76.06 24.7051 76.7968 25.4415 77.1652Z" fill="#396CAA"/>
<path d="M33.7615 94.7774C33.7615 95.2195 33.4668 95.3669 33.0984 95.1458C32.7299 94.9248 32.4352 94.409 32.4352 94.0405C32.4352 93.5984 32.7299 93.451 33.0984 93.6721C33.4668 93.8195 33.7615 94.3353 33.7615 94.7774Z" fill="#D4ECFF"/>
<path d="M31.7023 93.5977C31.7023 94.0398 31.4076 94.1872 31.0391 93.9661C30.6707 93.745 30.376 93.2292 30.376 92.8608C30.376 92.4187 30.6707 92.2713 31.0391 92.4924C31.4076 92.6398 31.7023 93.1556 31.7023 93.5977Z" fill="#D4ECFF"/>
<path d="M33.7615 97.208C33.7615 97.6501 33.4668 97.7975 33.0984 97.5764C32.7299 97.3554 32.4352 96.8396 32.4352 96.4711C32.4352 96.029 32.7299 95.8816 33.0984 96.1027C33.4668 96.3238 33.7615 96.8396 33.7615 97.208Z" fill="#D4ECFF"/>
<path d="M31.7023 96.0297C31.7023 96.4718 31.4076 96.6192 31.0391 96.3981C30.6707 96.1771 30.376 95.6613 30.376 95.2928C30.376 94.8507 30.6707 94.7033 31.0391 94.9244C31.4076 95.1455 31.7023 95.6613 31.7023 96.0297Z" fill="#D4ECFF"/>
<path d="M33.7615 107.965C33.7615 108.407 33.4668 108.555 33.0984 108.334C32.7299 108.113 32.4352 107.597 32.4352 107.228C32.4352 106.786 32.7299 106.639 33.0984 106.86C33.4668 107.081 33.7615 107.597 33.7615 107.965Z" fill="#D4ECFF"/>
<path d="M31.7023 106.86C31.7023 107.303 31.4076 107.45 31.0391 107.229C30.6707 107.008 30.376 106.492 30.376 106.124C30.376 105.681 30.6707 105.534 31.0391 105.755C31.4076 105.902 31.7023 106.418 31.7023 106.86Z" fill="#D4ECFF"/>
<path d="M33.7615 110.471C33.7615 110.913 33.4668 111.06 33.0984 110.839C32.7299 110.618 32.4352 110.102 32.4352 109.734C32.4352 109.292 32.7299 109.144 33.0984 109.365C33.4668 109.513 33.7615 110.029 33.7615 110.471Z" fill="#D4ECFF"/>
<path d="M31.7023 109.292C31.7023 109.734 31.4076 109.882 31.0391 109.661C30.6707 109.44 30.376 108.924 30.376 108.555C30.376 108.113 30.6707 107.966 31.0391 108.187C31.4076 108.334 31.7023 108.85 31.7023 109.292Z" fill="#D4ECFF"/>
<path d="M33.7615 121.228C33.7615 121.67 33.4668 121.818 33.0984 121.597C32.7299 121.376 32.4352 120.86 32.4352 120.491C32.4352 120.049 32.7299 119.902 33.0984 120.123C33.4668 120.27 33.7615 120.786 33.7615 121.228Z" fill="#D4ECFF"/>
<path d="M31.7023 120.05C31.7023 120.492 31.4076 120.639 31.0391 120.418C30.6707 120.197 30.376 119.681 30.376 119.313C30.376 118.871 30.6707 118.723 31.0391 118.944C31.4076 119.165 31.7023 119.608 31.7023 120.05Z" fill="#D4ECFF"/>
<path d="M33.7615 123.66C33.7615 124.102 33.4668 124.25 33.0984 124.029C32.7299 123.807 32.4352 123.292 32.4352 122.923C32.4352 122.481 32.7299 122.334 33.0984 122.555C33.4668 122.776 33.7615 123.292 33.7615 123.66Z" fill="#D4ECFF"/>
<path d="M31.7023 122.482C31.7023 122.924 31.4076 123.071 31.0391 122.85C30.6707 122.629 30.376 122.113 30.376 121.745C30.376 121.303 30.6707 121.155 31.0391 121.376C31.4076 121.597 31.7023 122.113 31.7023 122.482Z" fill="#D4ECFF"/>
<path d="M38.2462 143.705C37.5834 143.705 36.847 143.557 36.2578 143.189L24.1066 136.115C23.6648 135.894 23.4438 135.452 23.4438 134.936C23.4438 134.42 23.6648 134.052 24.1066 133.757L32.0602 129.115L32.6493 130.146L24.6958 134.789C24.6221 134.789 24.6221 134.862 24.6221 134.936C24.6221 135.01 24.6221 135.01 24.6958 135.083L36.847 142.157C37.7307 142.673 38.7617 142.673 39.6455 142.157L63.4324 128.599C64.6843 127.936 66.1572 127.936 67.4091 128.599L87.3666 140.094C88.2503 140.61 89.2813 140.61 90.1651 140.094L99.7387 134.567L100.328 135.599L90.7542 141.126C89.5023 141.862 88.0294 141.862 86.7774 141.126L66.8936 129.631C66.0099 129.115 64.9789 129.115 64.0952 129.631L40.3082 143.189C39.6455 143.557 38.909 143.705 38.2462 143.705Z" fill="#B2D3EA"/>
<path d="M143.711 188.579L124.49 177.453C123.312 176.79 123.459 175.611 124.785 174.8L143.343 164.042C144.742 163.232 146.804 163.158 147.983 163.821L167.277 175.021C168.456 175.684 168.308 176.863 166.983 177.674L148.424 188.432C147.025 189.169 144.963 189.243 143.711 188.579Z" fill="#B2D3EA"/>
<path d="M173.683 166.547V158.221H155.051L148.644 154.463C147.171 153.579 144.594 153.726 142.9 154.684L136.861 158.147H118.229V166.695C118.156 167.284 118.524 167.8 119.187 168.242L143.268 182.169C144.741 183.053 147.318 182.905 149.012 181.948L172.284 168.537C173.241 167.947 173.683 167.21 173.683 166.547Z" fill="#396CAA"/>
<path d="M145.924 153.874C144.82 153.874 143.715 154.169 142.831 154.685L136.792 158.148H118.16V166.696C118.087 167.285 118.455 167.801 119.118 168.243L143.199 182.17C143.936 182.612 144.893 182.759 145.851 182.759V153.874H145.924Z" fill="#396CAA"/>
<path d="M120.219 158.148H118.082V166.696C118.008 167.285 118.377 167.801 119.04 168.243L120.145 168.906V158.148H120.219Z" fill="#5793CE"/>
<path d="M143.566 182.39C144.818 182.905 146.659 182.905 148.205 182.316V172.589H143.566V182.39Z" fill="#5793CE"/>
<path d="M143.198 173.695L119.116 159.769C117.643 158.885 117.791 157.411 119.558 156.453L142.829 143.042C144.523 142.084 147.101 141.937 148.574 142.821L172.655 156.748C174.128 157.632 173.981 159.106 172.213 160.064L148.942 173.474C147.248 174.432 144.671 174.506 143.198 173.695Z" fill="#D4ECFF"/>
<path d="M143.628 171.189L123.45 159.547C122.198 158.81 122.345 157.558 123.818 156.747L143.333 145.473C144.733 144.663 146.942 144.589 148.194 145.252L168.372 156.894C169.624 157.631 169.477 158.884 168.004 159.694L148.488 170.968C147.016 171.779 144.88 171.853 143.628 171.189Z" fill="#5793CE"/>
<path d="M164.778 168.685C164.778 169.275 164.336 170.085 163.82 170.38C163.304 170.675 162.862 170.454 162.862 169.791C162.862 169.201 163.304 168.391 163.82 168.096C164.336 167.875 164.778 168.096 164.778 168.685Z" fill="#D4ECFF"/>
<path d="M167.945 166.916C167.945 167.506 167.503 168.316 166.987 168.611C166.471 168.906 166.029 168.685 166.029 168.022C166.029 167.432 166.471 166.622 166.987 166.327C167.503 166.032 167.945 166.327 167.945 166.916Z" fill="#D4ECFF"/>
<path d="M171.044 165.075C171.044 165.664 170.601 166.475 170.086 166.77C169.57 167.064 169.128 166.843 169.128 166.18C169.128 165.591 169.57 164.78 170.086 164.485C170.601 164.264 171.044 164.485 171.044 165.075Z" fill="#D4ECFF"/>
<path d="M173.683 153.21V144.883H155.051L148.644 141.125C147.171 140.241 144.594 140.388 142.9 141.346L136.861 144.809H118.229V153.357C118.156 153.946 118.524 154.462 119.187 154.904L143.268 168.831C144.741 169.715 147.318 169.568 149.012 168.61L172.284 155.199C173.241 154.683 173.683 153.946 173.683 153.21Z" fill="#396CAA"/>
<path d="M145.924 140.609C144.82 140.609 143.715 140.904 142.831 141.42L136.792 144.883H118.16V153.43C118.087 154.02 118.455 154.536 119.118 154.978L143.199 168.904C143.936 169.346 144.893 169.494 145.851 169.494V140.609H145.924Z" fill="#396CAA"/>
<path d="M120.219 144.883H118.082V153.43C118.008 154.02 118.377 154.536 119.04 154.978L120.145 155.641V144.883H120.219Z" fill="#5793CE"/>
<path d="M143.566 169.052C144.818 169.568 146.659 169.568 148.205 168.978V159.252H143.566V169.052Z" fill="#5793CE"/>
<path d="M143.198 160.357L119.116 146.43C117.643 145.546 117.791 144.072 119.558 143.114L142.829 129.703C144.523 128.745 147.101 128.598 148.574 129.482L172.655 143.409C174.128 144.293 173.981 145.767 172.213 146.725L148.942 160.136C147.248 161.093 144.671 161.241 143.198 160.357Z" fill="#D4ECFF"/>
<path d="M143.628 157.852L123.45 146.209C122.198 145.473 122.345 144.22 123.818 143.409L143.333 132.135C144.733 131.325 146.942 131.251 148.194 131.914L168.372 143.557C169.624 144.294 169.477 145.546 168.004 146.357L148.488 157.631C147.016 158.515 144.88 158.589 143.628 157.852Z" fill="#5793CE"/>
<path d="M164.778 155.42C164.778 156.009 164.336 156.82 163.82 157.115C163.304 157.409 162.862 157.188 162.862 156.525C162.862 155.936 163.304 155.125 163.82 154.83C164.336 154.536 164.778 154.83 164.778 155.42Z" fill="#D4ECFF"/>
<path d="M167.945 153.651C167.945 154.241 167.503 155.051 166.987 155.346C166.471 155.641 166.029 155.42 166.029 154.757C166.029 154.167 166.471 153.357 166.987 153.062C167.503 152.767 167.945 152.988 167.945 153.651Z" fill="#D4ECFF"/>
<path d="M171.044 151.809C171.044 152.399 170.601 153.209 170.086 153.504C169.57 153.799 169.128 153.578 169.128 152.915C169.128 152.325 169.57 151.515 170.086 151.22C170.601 150.925 171.044 151.22 171.044 151.809Z" fill="#D4ECFF"/>
<path d="M173.683 139.948V131.621H155.051L148.644 127.863C147.171 126.979 144.594 127.127 142.9 128.085L136.861 131.548H118.229V140.095C118.156 140.685 118.524 141.201 119.187 141.643L143.268 155.569C144.741 156.454 147.319 156.306 149.012 155.348L172.284 141.937C173.241 141.348 173.683 140.611 173.683 139.948Z" fill="#396CAA"/>
<path d="M145.924 127.346C144.82 127.346 143.715 127.641 142.831 128.157L136.792 131.62H118.161V140.168C118.087 140.757 118.455 141.273 119.118 141.715L143.199 155.642C143.936 156.084 144.893 156.231 145.851 156.231V127.346H145.924Z" fill="#396CAA"/>
<path d="M120.219 131.621H118.082V140.169C118.008 140.758 118.377 141.274 119.04 141.716L120.145 142.379V131.621H120.219Z" fill="#5793CE"/>
<path d="M143.566 155.789C144.818 156.305 146.659 156.305 148.205 155.715V145.989H143.566V155.789Z" fill="#5793CE"/>
<path d="M143.198 147.095L119.116 133.168C117.643 132.284 117.791 130.81 119.558 129.853L142.829 116.442C144.523 115.484 147.101 115.336 148.574 116.221L172.655 130.147C174.128 131.031 173.981 132.505 172.213 133.463L148.942 146.874C147.248 147.832 144.671 147.906 143.198 147.095Z" fill="#D4ECFF"/>
<path d="M172.213 131.768L148.942 145.179C147.248 146.137 144.67 146.285 143.197 145.4L119.116 131.547C118.821 131.326 118.527 131.105 118.38 130.884C117.864 131.695 118.085 132.579 119.116 133.169L143.197 147.095C144.67 147.979 147.248 147.832 148.942 146.874L172.213 133.463C173.539 132.726 173.907 131.621 173.391 130.811C173.17 131.105 172.802 131.474 172.213 131.768Z" fill="white"/>
<path d="M164.778 142.157C164.778 142.747 164.336 143.557 163.82 143.852C163.304 144.147 162.862 143.926 162.862 143.262C162.862 142.599 163.304 141.862 163.82 141.568C164.336 141.273 164.778 141.494 164.778 142.157Z" fill="#D4ECFF"/>
<path d="M167.945 140.316C167.945 140.906 167.503 141.716 166.987 142.011C166.471 142.306 166.029 142.084 166.029 141.421C166.029 140.832 166.471 140.021 166.987 139.727C167.503 139.432 167.945 139.727 167.945 140.316Z" fill="#D4ECFF"/>
<path d="M171.044 138.547C171.044 139.136 170.601 139.947 170.086 140.241C169.57 140.536 169.128 140.315 169.128 139.652C169.128 139.062 169.57 138.252 170.086 137.957C170.601 137.662 171.044 137.883 171.044 138.547Z" fill="#D4ECFF"/>
<path d="M144.672 138.474L133.404 131.99C132.742 131.621 132.815 130.885 133.625 130.442L144.525 124.179C145.335 123.737 146.513 123.663 147.25 124.032L158.517 130.516C159.18 130.885 159.106 131.621 158.296 132.064L147.397 138.327C146.513 138.843 145.335 138.843 144.672 138.474Z" fill="#5793CE"/>
<path d="M145.697 133.022L144.151 132.138C144.077 132.064 144.077 131.99 144.151 131.917L145.624 131.033C145.771 130.959 145.918 130.959 145.992 131.033L147.538 131.917C147.612 131.99 147.612 132.064 147.538 132.138L146.066 133.022C145.992 133.022 145.771 133.096 145.697 133.022Z" fill="#D4ECFF"/>
<path d="M133.326 131.916C133.4 131.916 133.473 131.842 133.547 131.842L144.446 125.579C145.256 125.137 146.435 125.063 147.171 125.432L158.439 131.916C159.101 131.474 159.101 130.811 158.439 130.442L147.171 123.958C146.508 123.59 145.256 123.59 144.446 124.105L133.547 130.369C132.737 130.811 132.663 131.548 133.326 131.916Z" fill="#396CAA"/>
<path d="M136.615 30.6388L135.391 29.9235L136.008 29.5669C136.207 29.8243 136.413 30.0775 136.655 30.3263C136.669 30.3429 136.698 30.3594 136.719 30.3718C136.826 30.4339 136.999 30.4498 137.144 30.4075C137.318 30.3485 137.384 30.2274 137.284 30.1279C136.345 29.1324 135.725 28.0438 135.443 26.9247L135.458 26.9163L135.436 26.9039C135.327 26.4546 135.261 25.9968 135.259 25.5428L135.288 25.5261L135.252 25.5054C135.252 24.9265 135.332 24.3514 135.512 23.776C135.512 23.7676 135.512 23.7676 135.512 23.7593C135.512 23.751 135.512 23.751 135.513 23.7426C135.513 23.7343 135.513 23.726 135.506 23.7135L135.506 23.7052C135.506 23.7052 135.506 23.7052 135.499 23.7011C135.499 23.6927 135.492 23.6803 135.485 23.6761C135.477 23.672 135.485 23.6678 135.478 23.6637C135.478 23.6553 135.463 23.6471 135.456 23.6429C135.449 23.6388 135.449 23.6388 135.449 23.6305C135.442 23.6263 135.428 23.6181 135.428 23.6097C135.421 23.6056 135.421 23.6056 135.413 23.6015C135.399 23.5932 135.392 23.5891 135.378 23.5808C135.37 23.5767 135.37 23.5767 135.363 23.5725C135.356 23.5684 135.335 23.5643 135.327 23.5602C135.32 23.556 135.32 23.556 135.306 23.5561C135.291 23.5562 135.284 23.552 135.263 23.548C135.256 23.5438 135.241 23.5439 135.234 23.5398C135.234 23.5398 135.227 23.5356 135.22 23.5398C135.205 23.5399 135.205 23.5399 135.191 23.5399C135.176 23.54 135.169 23.5359 135.162 23.5401C135.147 23.5401 135.133 23.5402 135.119 23.5402L135.104 23.5403C129.683 24.0922 124.145 23.0911 120.294 20.8668C120.28 20.8585 120.266 20.8502 120.244 20.8462C120.23 20.8379 120.223 20.8254 120.208 20.8172C116.358 18.5929 114.625 15.3934 115.58 12.2617C115.588 12.2575 115.58 12.2534 115.58 12.2534C115.58 12.2451 115.581 12.2367 115.581 12.2284C115.581 12.2201 115.574 12.2159 115.581 12.2117C115.581 12.2034 115.581 12.2034 115.581 12.1951C115.581 12.1951 115.574 12.1909 115.581 12.1867C115.581 12.1784 115.574 12.1743 115.574 12.1659C115.574 12.1576 115.567 12.1535 115.56 12.141C115.553 12.1369 115.553 12.1286 115.553 12.1286C115.546 12.1244 115.539 12.112 115.532 12.1078C115.525 12.1037 115.525 12.1037 115.517 12.0996C115.503 12.0913 115.496 12.0872 115.482 12.0789C115.474 12.0747 115.474 12.0747 115.467 12.0706C115.453 12.0623 115.446 12.0582 115.424 12.0541C115.417 12.05 115.417 12.05 115.403 12.0501C115.388 12.0418 115.374 12.0419 115.367 12.0377C115.36 12.0336 115.352 12.0378 115.345 12.0336C115.324 12.0296 115.309 12.0296 115.302 12.0255C115.302 12.0255 115.302 12.0255 115.295 12.0214L115.28 12.0214C115.266 12.0215 115.252 12.0216 115.23 12.0175C115.216 12.0175 115.216 12.0175 115.201 12.0176C115.187 12.0177 115.187 12.0177 115.172 12.0177C114.183 12.1177 113.181 12.1677 112.179 12.1678L112.143 12.1472L112.114 12.1639C111.321 12.159 110.535 12.1248 109.758 12.0615L109.736 12.0491L109.722 12.0574C107.77 11.9033 105.886 11.5448 104.162 11.0023C103.99 10.9447 103.773 10.9873 103.678 11.0835C103.598 11.163 103.625 11.2628 103.74 11.3289C103.761 11.3414 103.79 11.3579 103.819 11.3661C104.242 11.5017 104.688 11.6248 105.133 11.7395L104.516 12.0961L103.285 11.385C103.149 11.3065 102.918 11.3074 102.78 11.3872C102.642 11.4669 102.641 11.6001 102.777 11.6787L119.468 21.2368C119.482 21.245 119.496 21.2533 119.518 21.2574C119.532 21.2656 119.539 21.2781 119.553 21.2864L136.099 30.9284C136.235 31.0069 136.466 31.0059 136.604 30.9262C136.749 30.8507 136.751 30.7174 136.615 30.6388ZM134.89 29.6341L134.103 29.1793L135.308 28.4829C135.428 28.7114 135.562 28.9399 135.711 29.16L134.89 29.6341ZM135.091 28.0299L133.609 28.8857L132.822 28.4309L134.804 27.2856C134.888 27.5351 134.978 27.7888 135.091 28.0299ZM134.674 26.7822L132.328 28.1373L131.541 27.6826L134.547 25.9457C134.573 26.2288 134.62 26.5076 134.674 26.7822ZM132.596 24.0965C133.165 24.0899 133.728 24.0625 134.298 24.0226L129.759 26.6448L128.972 26.19L132.596 24.0965ZM134.632 24.4085C134.577 24.7295 134.544 25.0544 134.533 25.3752L131.04 27.3932L130.253 26.9384L134.632 24.4085ZM131.593 24.0966L128.471 25.9006L127.683 25.4458L130.131 24.032C130.613 24.0674 131.111 24.0861 131.593 24.0966ZM115.313 16.8481C115.784 17.7665 116.472 18.6507 117.378 19.459L114.071 17.5655L115.313 16.8481ZM113.57 17.2761L112.783 16.8214L114.838 15.6341C114.914 15.8878 114.998 16.1373 115.103 16.3909L113.57 17.2761ZM127.942 23.808C128.374 23.8728 128.806 23.9209 129.252 23.9607L127.197 25.148L126.41 24.6932L127.942 23.808ZM125.909 24.4038L122.631 22.4936C124.03 23.0166 125.561 23.4141 127.15 23.6864L125.909 24.4038ZM114.715 15.1265L112.282 16.532L111.495 16.0772L114.618 14.2732C114.628 14.5646 114.653 14.8477 114.715 15.1265ZM112.39 12.5834C112.945 12.5769 113.5 12.562 114.063 12.5263L109.691 15.052L108.904 14.5972L112.39 12.5834ZM114.731 12.7193C114.662 13.0486 114.615 13.3736 114.603 13.7027L110.986 15.792L110.199 15.3372L114.731 12.7193ZM108.395 14.312L107.608 13.8572L109.954 12.5021C110.437 12.5375 110.919 12.5646 111.402 12.5751L108.395 14.312ZM107.1 13.572L106.313 13.1172L107.794 12.2613C108.226 12.3261 108.651 12.3785 109.09 12.4224L107.1 13.572ZM105.838 11.9031C106.219 11.989 106.614 12.0664 107.01 12.1356L105.812 12.8278L105.024 12.373L105.838 11.9031Z" fill="#14225B"/>
<path d="M101.31 13.8309L102.051 13.4027L105.912 15.6328L105.171 16.061L103.626 15.1689L99.6511 17.4654L98.879 17.0194L102.854 14.7229L101.31 13.8309Z" fill="#14225B"/>
<path d="M102.141 18.3902C102.152 17.9965 102.408 17.6543 102.911 17.3637C103.414 17.0731 104.005 16.9261 104.682 16.9228C105.368 16.9195 105.955 17.0588 106.442 17.3406C106.93 17.6225 107.169 17.9602 107.159 18.354C107.158 18.7477 106.906 19.0899 106.403 19.3805L106.167 19.5167L103.38 17.9072C103.151 18.1017 103.052 18.3012 103.083 18.5058C103.113 18.7104 103.256 18.8864 103.511 19.0338C103.825 19.2148 104.154 19.3142 104.499 19.3319C104.647 19.3447 104.8 19.342 104.957 19.3237L105.695 19.7503C105.381 19.8232 105.076 19.8623 104.78 19.8678C104.045 19.8686 103.408 19.7138 102.871 19.4036C102.384 19.1217 102.14 18.784 102.141 18.3902ZM103.987 17.5957L106.001 18.7592C106.185 18.6062 106.269 18.4339 106.251 18.2422C106.238 18.0532 106.089 17.8759 105.802 17.7104C105.561 17.5708 105.272 17.4895 104.935 17.4665C104.604 17.441 104.288 17.484 103.987 17.5957Z" fill="#14225B"/>
<path d="M104.92 20.5091L109.296 19.067L110.807 19.9396L108.31 22.4677L107.572 22.0411L109.63 19.9991L109.193 19.747L105.658 20.9357L104.92 20.5091Z" fill="#14225B"/>
<path d="M109.491 22.636C109.501 22.2423 109.758 21.9001 110.261 21.6095C110.764 21.3189 111.354 21.1719 112.031 21.1686C112.717 21.1653 113.304 21.3046 113.792 21.5864C114.28 21.8683 114.519 22.206 114.509 22.5998C114.508 22.9935 114.255 23.3357 113.752 23.6263L113.516 23.7625L110.73 22.153C110.501 22.3475 110.402 22.547 110.432 22.7516C110.463 22.9562 110.606 23.1322 110.861 23.2796C111.175 23.4606 111.504 23.56 111.849 23.5777C111.997 23.5905 112.149 23.5878 112.306 23.5695L113.045 23.9961C112.731 24.069 112.426 24.1082 112.13 24.1136C111.394 24.1144 110.758 23.9596 110.221 23.6494C109.733 23.3675 109.49 23.0298 109.491 22.636ZM111.337 21.8415L113.351 23.005C113.535 22.852 113.618 22.6797 113.601 22.488C113.588 22.299 113.439 22.1217 113.152 21.9562C112.91 21.8166 112.621 21.7353 112.285 21.7123C111.954 21.6868 111.637 21.7298 111.337 21.8415Z" fill="#14225B"/>
<path d="M112.639 24.9682L116.075 22.9831L117.082 23.5649L115.934 25.2756L116.068 25.3532L119.029 24.6896L120.036 25.2714L116.6 27.2565L115.895 26.8492L118.321 25.448L118.395 25.4129L118.361 25.3935L115.629 25.9947L114.823 25.5293L115.864 23.9508L115.83 23.9314L115.769 23.9742L113.344 25.3754L112.639 24.9682Z" fill="#14225B"/>
<path d="M118.159 27.6432C118.165 27.2469 118.419 26.9034 118.922 26.6128C119.425 26.3222 120.018 26.1765 120.699 26.1758C121.39 26.1751 121.986 26.3195 122.487 26.6091C122.988 26.8987 123.236 27.2417 123.23 27.638C123.233 28.0343 122.984 28.3778 122.48 28.6684C121.977 28.959 121.381 29.1047 120.69 29.1054C120.008 29.1061 119.417 28.9617 118.916 28.6721C118.414 28.3825 118.162 28.0395 118.159 27.6432ZM120.778 26.7275C120.379 26.7356 120.007 26.8396 119.661 27.0394C119.315 27.2393 119.133 27.4557 119.114 27.6889C119.1 27.9194 119.247 28.1239 119.556 28.3023C119.865 28.4807 120.219 28.5658 120.618 28.5576C121.021 28.5469 121.396 28.4416 121.742 28.2418C122.088 28.0419 122.268 27.8268 122.282 27.5962C122.301 27.3631 122.156 27.1573 121.847 26.9789C121.538 26.8005 121.182 26.7167 120.778 26.7275Z" fill="#14225B"/>
<path d="M122.092 29.9232C122.102 29.5398 122.366 29.1989 122.882 28.9005C123.399 28.6021 123.989 28.4499 124.653 28.4441C125.316 28.4382 125.892 28.5762 126.38 28.858C126.926 29.1734 127.162 29.5514 127.089 29.9918C127.044 30.1887 126.94 30.3675 126.778 30.5283L126.04 30.1017C126.121 30.0187 126.164 29.9267 126.168 29.8257C126.196 29.6081 126.053 29.4088 125.74 29.2278C125.462 29.0675 125.124 28.994 124.725 29.0074C124.33 29.0233 123.962 29.1299 123.621 29.3271C123.279 29.5243 123.095 29.7369 123.067 29.9649C123.044 30.1954 123.171 30.3909 123.449 30.5512C123.771 30.7373 124.125 30.825 124.511 30.8143C124.681 30.8089 124.843 30.7854 124.995 30.7438L125.7 31.1511C125.413 31.2498 125.101 31.311 124.765 31.3347C124.011 31.3769 123.359 31.239 122.809 30.9209C122.321 30.6391 122.082 30.3065 122.092 29.9232Z" fill="#14225B"/>
<path d="M128.729 29.6703L129.47 29.2421L133.331 31.4722L132.59 31.9004L131.045 31.0083L127.07 33.3048L126.298 32.8588L130.273 30.5623L128.729 29.6703Z" fill="#14225B"/>
</svg>
