<svg width="33" height="32" viewBox="0 0 33 32" fill="none" xmlns="http://www.w3.org/2000/svg">
<path d="M21.8166 26.6655L24.4832 26.6655C25.956 26.6655 27.1499 25.4716 27.1499 23.9989L27.1499 7.99886C27.1499 6.5261 25.956 5.3322 24.4832 5.3322L21.8166 5.33219C20.3438 5.33219 19.1499 6.5261 19.1499 7.99886L19.1499 23.9989C19.1499 25.4716 20.3438 26.6655 21.8166 26.6655Z" fill="#008DF4" stroke="#008DF4" stroke-width="2" stroke-linecap="round" stroke-linejoin="round"/>
<path d="M8.49162 26.6655L11.1583 26.6655C12.631 26.6655 13.825 25.4716 13.825 23.9989L13.825 15.9989C13.825 14.5261 12.631 13.3322 11.1583 13.3322L8.49162 13.3322C7.01886 13.3322 5.82495 14.5261 5.82495 15.9989L5.82495 23.9989C5.82495 25.4716 7.01886 26.6655 8.49162 26.6655Z" fill="#008DF4" stroke="#008DF4" stroke-width="2" stroke-linecap="round" stroke-linejoin="round"/>
</svg>
