<svg width="32" height="32" viewBox="0 0 32 32" fill="none" xmlns="http://www.w3.org/2000/svg">
<g clip-path="url(#clip0_677_9705)">
<path d="M28.0611 13.9733L25.0833 13.0844C24.8775 12.3656 24.5943 11.6712 24.2389 11.0133L25.6967 8.28442C25.7514 8.18141 25.7714 8.06351 25.7538 7.94822C25.7362 7.83293 25.6819 7.72639 25.5989 7.64442L23.4744 5.51108C23.3925 5.42812 23.2859 5.37381 23.1706 5.35619C23.0553 5.33858 22.9375 5.35861 22.8344 5.41331L20.1233 6.8622C19.459 6.48945 18.7555 6.19134 18.0256 5.97331L17.1367 3.03108C17.0991 2.92265 17.028 2.82895 16.9338 2.76346C16.8395 2.69797 16.727 2.66407 16.6122 2.66664H13.6078C13.4923 2.66718 13.3801 2.70454 13.2874 2.77328C13.1946 2.84203 13.1263 2.93857 13.0922 3.04886L12.2033 5.9822C11.4673 6.19906 10.7578 6.4972 10.0878 6.87108L7.42111 5.43108C7.31811 5.37638 7.20021 5.35636 7.08492 5.37397C6.96962 5.39158 6.86309 5.4459 6.78111 5.52886L4.62111 7.63553C4.53815 7.7175 4.48383 7.82404 4.46622 7.93933C4.4486 8.05463 4.46863 8.17252 4.52333 8.27553L5.96333 10.9422C5.59005 11.6094 5.29193 12.3159 5.07444 13.0489L2.13222 13.9378C2.02193 13.9718 1.92539 14.0402 1.85664 14.1329C1.7879 14.2256 1.75054 14.3379 1.75 14.4533V17.4577C1.75054 17.5732 1.7879 17.6854 1.85664 17.7781C1.92539 17.8709 2.02193 17.9392 2.13222 17.9733L5.09222 18.8622C5.31209 19.5829 5.61016 20.2774 5.98111 20.9333L4.52333 23.7244C4.46863 23.8274 4.4486 23.9453 4.46622 24.0606C4.48383 24.1759 4.53815 24.2824 4.62111 24.3644L6.74556 26.4889C6.82753 26.5718 6.93407 26.6261 7.04936 26.6438C7.16465 26.6614 7.28255 26.6413 7.38556 26.5866L10.1322 25.12C10.782 25.4706 11.4673 25.7507 12.1767 25.9555L13.0656 28.9511C13.0996 29.0614 13.168 29.1579 13.2607 29.2267C13.3534 29.2954 13.4657 29.3328 13.5811 29.3333H16.5856C16.701 29.3328 16.8132 29.2954 16.906 29.2267C16.9987 29.1579 17.0671 29.0614 17.1011 28.9511L17.99 25.9466C18.6933 25.7407 19.3726 25.4606 20.0167 25.1111L22.7811 26.5866C22.8841 26.6413 23.002 26.6614 23.1173 26.6438C23.2326 26.6261 23.3391 26.5718 23.4211 26.4889L25.5456 24.3644C25.6285 24.2824 25.6828 24.1759 25.7004 24.0606C25.7181 23.9453 25.698 23.8274 25.6433 23.7244L24.1678 20.9689C24.521 20.3224 24.8041 19.64 25.0122 18.9333L28.0078 18.0444C28.1181 18.0104 28.2146 17.942 28.2834 17.8493C28.3521 17.7565 28.3895 17.6443 28.39 17.5289V14.4978C28.3952 14.3872 28.3665 14.2777 28.3078 14.184C28.249 14.0902 28.1629 14.0167 28.0611 13.9733ZM15.11 20.8889C14.1431 20.8889 13.1979 20.6021 12.3939 20.0649C11.5899 19.5277 10.9633 18.7642 10.5933 17.8709C10.2232 16.9775 10.1264 15.9945 10.3151 15.0462C10.5037 14.0978 10.9693 13.2267 11.653 12.543C12.3368 11.8593 13.2079 11.3937 14.1562 11.205C15.1046 11.0164 16.0876 11.1132 16.9809 11.4832C17.8742 11.8533 18.6378 12.4799 19.175 13.2839C19.7122 14.0878 19.9989 15.033 19.9989 16C19.9989 17.2966 19.4838 18.5401 18.567 19.4569C17.6501 20.3738 16.4066 20.8889 15.11 20.8889Z" fill="#008DF4"/>
</g>
<defs>
<clipPath id="clip0_677_9705">
<rect width="32" height="32" fill="white"/>
</clipPath>
</defs>
</svg>
