<svg width="20" height="20" viewBox="0 0 20 20" fill="none" xmlns="http://www.w3.org/2000/svg">
<path d="M10.0013 1.66675C5.4063 1.66675 1.66797 5.40508 1.66797 10.0001V13.4526C1.66797 14.3059 2.41547 15.0001 3.33464 15.0001H4.16797C4.38898 15.0001 4.60094 14.9123 4.75722 14.756C4.9135 14.5997 5.0013 14.3878 5.0013 14.1667V9.88091C5.0013 9.6599 4.9135 9.44794 4.75722 9.29166C4.60094 9.13538 4.38898 9.04758 4.16797 9.04758H3.4113C3.87464 5.82258 6.64964 3.33341 10.0013 3.33341C13.353 3.33341 16.128 5.82258 16.5913 9.04758H15.8346C15.6136 9.04758 15.4017 9.13538 15.2454 9.29166C15.0891 9.44794 15.0013 9.6599 15.0013 9.88091V15.0001C15.0013 15.9192 14.2538 16.6667 13.3346 16.6667H11.668V15.8334H8.33464V18.3334H13.3346C15.173 18.3334 16.668 16.8384 16.668 15.0001C17.5871 15.0001 18.3346 14.3059 18.3346 13.4526V10.0001C18.3346 5.40508 14.5963 1.66675 10.0013 1.66675Z" fill="#0F5FFF"/>
</svg>
