<svg width="20" height="20" viewBox="0 0 20 20" fill="none" xmlns="http://www.w3.org/2000/svg">
<g clip-path="url(#clip0_686_13513)">
<path d="M5.0013 1.66675H15.0013C15.2223 1.66675 15.4343 1.75455 15.5906 1.91083C15.7468 2.06711 15.8346 2.27907 15.8346 2.50008V17.5001C15.8346 17.7211 15.7468 17.9331 15.5906 18.0893C15.4343 18.2456 15.2223 18.3334 15.0013 18.3334H5.0013C4.78029 18.3334 4.56833 18.2456 4.41205 18.0893C4.25577 17.9331 4.16797 17.7211 4.16797 17.5001V2.50008C4.16797 2.27907 4.25577 2.06711 4.41205 1.91083C4.56833 1.75455 4.78029 1.66675 5.0013 1.66675ZM10.0013 14.1667C9.78029 14.1667 9.56833 14.2545 9.41205 14.4108C9.25577 14.5671 9.16797 14.7791 9.16797 15.0001C9.16797 15.2211 9.25577 15.4331 9.41205 15.5893C9.56833 15.7456 9.78029 15.8334 10.0013 15.8334C10.2223 15.8334 10.4343 15.7456 10.5906 15.5893C10.7468 15.4331 10.8346 15.2211 10.8346 15.0001C10.8346 14.7791 10.7468 14.5671 10.5906 14.4108C10.4343 14.2545 10.2223 14.1667 10.0013 14.1667Z" fill="#0F5FFF"/>
</g>
<defs>
<clipPath id="clip0_686_13513">
<rect width="20" height="20" fill="white"/>
</clipPath>
</defs>
</svg>
