<svg width="16" height="16" viewBox="0 0 16 16" fill="none" xmlns="http://www.w3.org/2000/svg">
<g clip-path="url(#clip0_677_9586)">
<path d="M7.9987 4.99992H13.9537M5.66536 14.2466L9.88003 10.3333M1.9987 5.09059L5.6237 9.85058M7.9987 4.99992C8.79435 4.99992 9.55741 5.31599 10.12 5.8786C10.6826 6.44121 10.9987 7.20427 10.9987 7.99992C10.9987 8.79557 10.6826 9.55863 10.12 10.1212C9.55741 10.6838 8.79435 10.9999 7.9987 10.9999C7.20305 10.9999 6.43999 10.6838 5.87738 10.1212C5.31477 9.55863 4.9987 8.79557 4.9987 7.99992C4.9987 7.20427 5.31477 6.44121 5.87738 5.8786C6.43999 5.31599 7.20305 4.99992 7.9987 4.99992V4.99992ZM7.9987 14.6666C11.6807 14.6666 14.6654 11.6819 14.6654 7.99992C14.6654 4.31792 11.6807 1.33325 7.9987 1.33325C4.3167 1.33325 1.33203 4.31792 1.33203 7.99992C1.33203 11.6819 4.3167 14.6666 7.9987 14.6666Z" stroke="#14225B" stroke-width="1.3" stroke-linecap="round" stroke-linejoin="round"/>
</g>
<defs>
<clipPath id="clip0_677_9586">
<rect width="16" height="16" fill="white"/>
</clipPath>
</defs>
</svg>
