<svg width="16" height="16" viewBox="0 0 16 16" fill="none" xmlns="http://www.w3.org/2000/svg">
<path d="M14.6654 7.99984H1.33203M14.6654 7.99984V11.9998C14.6654 12.3535 14.5249 12.6926 14.2748 12.9426C14.0248 13.1927 13.6857 13.3332 13.332 13.3332H2.66536C2.31174 13.3332 1.9726 13.1927 1.72256 12.9426C1.47251 12.6926 1.33203 12.3535 1.33203 11.9998V7.99984M14.6654 7.99984L12.3654 3.4065C12.255 3.18436 12.0848 2.99742 11.874 2.86669C11.6632 2.73596 11.4201 2.66664 11.172 2.6665H4.82536C4.57731 2.66664 4.33421 2.73596 4.12339 2.86669C3.91258 2.99742 3.74242 3.18436 3.63203 3.4065L1.33203 7.99984M3.9987 10.6665H4.00536M6.66536 10.6665H6.67203" stroke="#14225B" stroke-width="1.3" stroke-linecap="round" stroke-linejoin="round"/>
</svg>
