<svg width="16" height="16" viewBox="0 0 16 16" fill="none" xmlns="http://www.w3.org/2000/svg">
<path d="M2 11.3333V4.66659C2 4.31296 2.14048 3.97382 2.39052 3.72378C2.64057 3.47373 2.97971 3.33325 3.33333 3.33325H12.6667C13.0203 3.33325 13.3594 3.47373 13.6095 3.72378C13.8595 3.97382 14 4.31296 14 4.66659V11.3333C14 11.6869 13.8595 12.026 13.6095 12.2761C13.3594 12.5261 13.0203 12.6666 12.6667 12.6666H3.33333C2.97971 12.6666 2.64057 12.5261 2.39052 12.2761C2.14048 12.026 2 11.6869 2 11.3333Z" stroke="#14225B" stroke-width="1.3"/>
<path d="M4.54688 5.99976H4.55685M6.54189 5.99976H6.55186M8.5369 5.99976H8.54688" stroke="#14225B" stroke-width="1.3" stroke-linecap="round" stroke-linejoin="round"/>
</svg>
