<svg width="263" height="168" viewBox="0 0 263 168" fill="none" xmlns="http://www.w3.org/2000/svg">
<g clip-path="url(#clip0_943_5853)">
<g filter="url(#filter0_d_943_5853)">
<rect x="82" y="28" width="197" height="112" rx="16" fill="#243B69" shape-rendering="crispEdges"/>
<path d="M110.792 77.2881H108.201V75.9277H110.792C111.243 75.9277 111.608 75.8548 111.886 75.709C112.164 75.5632 112.367 75.3626 112.494 75.1074C112.626 74.8477 112.692 74.5514 112.692 74.2188C112.692 73.9043 112.626 73.6104 112.494 73.3369C112.367 73.0589 112.164 72.8356 111.886 72.667C111.608 72.4984 111.243 72.4141 110.792 72.4141H108.728V81H107.012V71.0469H110.792C111.562 71.0469 112.216 71.1836 112.754 71.457C113.296 71.7259 113.709 72.0996 113.991 72.5781C114.274 73.0521 114.415 73.5944 114.415 74.2051C114.415 74.8477 114.274 75.3991 113.991 75.8594C113.709 76.3197 113.296 76.6729 112.754 76.9189C112.216 77.165 111.562 77.2881 110.792 77.2881ZM119.597 79.5166V75.9893C119.597 75.7249 119.549 75.4971 119.453 75.3057C119.358 75.1143 119.212 74.9661 119.016 74.8613C118.824 74.7565 118.583 74.7041 118.291 74.7041C118.022 74.7041 117.79 74.7497 117.594 74.8408C117.398 74.932 117.245 75.055 117.136 75.21C117.027 75.3649 116.972 75.5404 116.972 75.7363H115.331C115.331 75.4447 115.402 75.1621 115.543 74.8887C115.685 74.6152 115.89 74.3714 116.158 74.1572C116.427 73.943 116.749 73.7744 117.122 73.6514C117.496 73.5283 117.915 73.4668 118.38 73.4668C118.936 73.4668 119.428 73.5602 119.857 73.7471C120.29 73.9339 120.629 74.2165 120.875 74.5947C121.126 74.9684 121.251 75.4378 121.251 76.0029V79.291C121.251 79.6283 121.274 79.9313 121.32 80.2002C121.37 80.4645 121.44 80.6947 121.532 80.8906V81H119.843C119.766 80.8223 119.704 80.5967 119.658 80.3232C119.617 80.0452 119.597 79.7764 119.597 79.5166ZM119.836 76.502L119.85 77.5205H118.667C118.362 77.5205 118.093 77.5501 117.861 77.6094C117.628 77.6641 117.435 77.7461 117.28 77.8555C117.125 77.9648 117.008 78.097 116.931 78.252C116.853 78.4069 116.815 78.5824 116.815 78.7783C116.815 78.9743 116.86 79.1543 116.951 79.3184C117.043 79.4779 117.175 79.6032 117.348 79.6943C117.526 79.7855 117.74 79.8311 117.991 79.8311C118.328 79.8311 118.622 79.7627 118.872 79.626C119.128 79.4847 119.328 79.3138 119.474 79.1133C119.62 78.9082 119.697 78.7145 119.706 78.5322L120.24 79.2637C120.185 79.4505 120.091 79.651 119.959 79.8652C119.827 80.0794 119.654 80.2845 119.44 80.4805C119.23 80.6719 118.977 80.8291 118.681 80.9521C118.389 81.0752 118.052 81.1367 117.669 81.1367C117.186 81.1367 116.755 81.041 116.377 80.8496C115.999 80.6536 115.703 80.3916 115.489 80.0635C115.274 79.7308 115.167 79.3548 115.167 78.9355C115.167 78.5436 115.24 78.1973 115.386 77.8965C115.536 77.5911 115.755 77.3359 116.042 77.1309C116.334 76.9258 116.689 76.7708 117.109 76.666C117.528 76.5566 118.006 76.502 118.544 76.502H119.836ZM125.715 79.8242C125.984 79.8242 126.226 79.7718 126.44 79.667C126.659 79.5576 126.834 79.4072 126.966 79.2158C127.103 79.0244 127.178 78.8034 127.192 78.5527H128.744C128.735 79.0312 128.593 79.4665 128.32 79.8584C128.046 80.2503 127.684 80.5625 127.233 80.7949C126.782 81.0228 126.283 81.1367 125.736 81.1367C125.171 81.1367 124.679 81.041 124.259 80.8496C123.84 80.6536 123.491 80.3848 123.213 80.043C122.935 79.7012 122.726 79.307 122.585 78.8604C122.448 78.4137 122.379 77.9352 122.379 77.4248V77.1855C122.379 76.6751 122.448 76.1966 122.585 75.75C122.726 75.2988 122.935 74.9023 123.213 74.5605C123.491 74.2188 123.84 73.9521 124.259 73.7607C124.679 73.5648 125.169 73.4668 125.729 73.4668C126.322 73.4668 126.841 73.5853 127.288 73.8223C127.734 74.0547 128.085 74.3805 128.34 74.7998C128.6 75.2145 128.735 75.6976 128.744 76.249H127.192C127.178 75.9756 127.11 75.7295 126.987 75.5107C126.868 75.2874 126.7 75.1097 126.481 74.9775C126.267 74.8454 126.009 74.7793 125.709 74.7793C125.376 74.7793 125.1 74.8477 124.881 74.9844C124.663 75.1165 124.492 75.2988 124.369 75.5312C124.246 75.7591 124.157 76.0166 124.102 76.3037C124.052 76.5863 124.027 76.8802 124.027 77.1855V77.4248C124.027 77.7301 124.052 78.0264 124.102 78.3135C124.152 78.6006 124.239 78.8581 124.362 79.0859C124.489 79.3092 124.663 79.4893 124.881 79.626C125.1 79.7581 125.378 79.8242 125.715 79.8242ZM129.783 73.6035H131.431V79.6875H133.775V73.6035H135.436V79.6875H137.774V73.6035H139.422V81H129.783V73.6035ZM142.621 78.5938L145.526 73.6035H147.174V81H145.526V76.0029L142.621 81H140.974V73.6035H142.621V78.5938ZM150.291 75.0254V83.8438H148.644V73.6035H150.162L150.291 75.0254ZM155.111 77.2334V77.377C155.111 77.9147 155.047 78.4137 154.919 78.874C154.796 79.3298 154.612 79.7285 154.366 80.0703C154.124 80.4076 153.826 80.6696 153.47 80.8564C153.115 81.0433 152.704 81.1367 152.24 81.1367C151.779 81.1367 151.376 81.0524 151.03 80.8838C150.688 80.7106 150.399 80.4668 150.162 80.1523C149.925 79.8379 149.733 79.4688 149.587 79.0449C149.446 78.6165 149.346 78.1471 149.287 77.6367V77.083C149.346 76.5407 149.446 76.0485 149.587 75.6064C149.733 75.1644 149.925 74.7839 150.162 74.4648C150.399 74.1458 150.688 73.8997 151.03 73.7266C151.371 73.5534 151.77 73.4668 152.226 73.4668C152.691 73.4668 153.103 73.5579 153.463 73.7402C153.823 73.918 154.126 74.1732 154.372 74.5059C154.619 74.834 154.803 75.2305 154.926 75.6953C155.049 76.1556 155.111 76.6683 155.111 77.2334ZM153.463 77.377V77.2334C153.463 76.8916 153.431 76.5749 153.368 76.2832C153.304 75.987 153.204 75.7272 153.067 75.5039C152.93 75.2806 152.755 75.1074 152.54 74.9844C152.331 74.8568 152.078 74.793 151.782 74.793C151.49 74.793 151.239 74.8431 151.03 74.9434C150.82 75.0391 150.645 75.1735 150.503 75.3467C150.362 75.5199 150.253 75.7227 150.175 75.9551C150.098 76.1829 150.043 76.4313 150.011 76.7002V78.0264C150.066 78.3545 150.159 78.6553 150.291 78.9287C150.424 79.2021 150.61 79.4209 150.852 79.585C151.098 79.7445 151.412 79.8242 151.795 79.8242C152.092 79.8242 152.344 79.7604 152.554 79.6328C152.764 79.5052 152.935 79.3298 153.067 79.1064C153.204 78.8786 153.304 78.6165 153.368 78.3203C153.431 78.0241 153.463 77.7096 153.463 77.377ZM159.493 81.1367C158.946 81.1367 158.452 81.0479 158.009 80.8701C157.572 80.6878 157.198 80.4349 156.888 80.1113C156.583 79.7878 156.348 79.4072 156.184 78.9697C156.02 78.5322 155.938 78.0605 155.938 77.5547V77.2812C155.938 76.7025 156.022 76.1784 156.191 75.709C156.36 75.2396 156.594 74.8385 156.895 74.5059C157.196 74.1686 157.551 73.9111 157.962 73.7334C158.372 73.5557 158.816 73.4668 159.295 73.4668C159.823 73.4668 160.286 73.5557 160.682 73.7334C161.079 73.9111 161.407 74.1618 161.667 74.4854C161.931 74.8044 162.127 75.1849 162.255 75.627C162.387 76.069 162.453 76.5566 162.453 77.0898V77.7939H156.738V76.6113H160.826V76.4814C160.817 76.1852 160.757 75.9072 160.648 75.6475C160.543 75.3877 160.382 75.1781 160.163 75.0186C159.944 74.859 159.652 74.7793 159.288 74.7793C159.014 74.7793 158.771 74.8385 158.556 74.957C158.347 75.071 158.171 75.2373 158.03 75.4561C157.889 75.6748 157.779 75.9391 157.702 76.249C157.629 76.5544 157.592 76.8984 157.592 77.2812V77.5547C157.592 77.8783 157.636 78.179 157.722 78.457C157.813 78.7305 157.946 78.9697 158.119 79.1748C158.292 79.3799 158.502 79.5417 158.748 79.6602C158.994 79.7741 159.274 79.8311 159.589 79.8311C159.985 79.8311 160.338 79.7513 160.648 79.5918C160.958 79.4323 161.227 79.2067 161.455 78.915L162.323 79.7559C162.163 79.9883 161.956 80.2116 161.701 80.4258C161.446 80.6354 161.133 80.8063 160.764 80.9385C160.4 81.0706 159.976 81.1367 159.493 81.1367ZM168.51 76.6934V77.9922H164.682V76.6934H168.51ZM165.16 73.6035V81H163.513V73.6035H165.16ZM169.699 73.6035V81H168.052V73.6035H169.699ZM176.228 76.6934V77.9922H172.4V76.6934H176.228ZM172.878 73.6035V81H171.231V73.6035H172.878ZM177.417 73.6035V81H175.77V73.6035H177.417ZM183.064 79.5166V75.9893C183.064 75.7249 183.016 75.4971 182.92 75.3057C182.825 75.1143 182.679 74.9661 182.483 74.8613C182.292 74.7565 182.05 74.7041 181.758 74.7041C181.489 74.7041 181.257 74.7497 181.061 74.8408C180.865 74.932 180.712 75.055 180.603 75.21C180.494 75.3649 180.439 75.5404 180.439 75.7363H178.798C178.798 75.4447 178.869 75.1621 179.01 74.8887C179.152 74.6152 179.357 74.3714 179.626 74.1572C179.894 73.943 180.216 73.7744 180.589 73.6514C180.963 73.5283 181.382 73.4668 181.847 73.4668C182.403 73.4668 182.895 73.5602 183.324 73.7471C183.757 73.9339 184.096 74.2165 184.342 74.5947C184.593 74.9684 184.718 75.4378 184.718 76.0029V79.291C184.718 79.6283 184.741 79.9313 184.787 80.2002C184.837 80.4645 184.907 80.6947 184.999 80.8906V81H183.31C183.233 80.8223 183.171 80.5967 183.126 80.3232C183.084 80.0452 183.064 79.7764 183.064 79.5166ZM183.303 76.502L183.317 77.5205H182.134C181.829 77.5205 181.56 77.5501 181.328 77.6094C181.095 77.6641 180.902 77.7461 180.747 77.8555C180.592 77.9648 180.475 78.097 180.398 78.252C180.32 78.4069 180.282 78.5824 180.282 78.7783C180.282 78.9743 180.327 79.1543 180.418 79.3184C180.51 79.4779 180.642 79.6032 180.815 79.6943C180.993 79.7855 181.207 79.8311 181.458 79.8311C181.795 79.8311 182.089 79.7627 182.339 79.626C182.595 79.4847 182.795 79.3138 182.941 79.1133C183.087 78.9082 183.164 78.7145 183.173 78.5322L183.707 79.2637C183.652 79.4505 183.558 79.651 183.426 79.8652C183.294 80.0794 183.121 80.2845 182.907 80.4805C182.697 80.6719 182.444 80.8291 182.148 80.9521C181.856 81.0752 181.519 81.1367 181.136 81.1367C180.653 81.1367 180.223 81.041 179.844 80.8496C179.466 80.6536 179.17 80.3916 178.956 80.0635C178.741 79.7308 178.634 79.3548 178.634 78.9355C178.634 78.5436 178.707 78.1973 178.853 77.8965C179.003 77.5911 179.222 77.3359 179.509 77.1309C179.801 76.9258 180.156 76.7708 180.576 76.666C180.995 76.5566 181.473 76.502 182.011 76.502H183.303ZM187.72 77.3838H189.429L187.33 81H185.628L187.72 77.3838ZM188.923 73.6035H192.095V81H190.454V74.9023H188.923C188.613 74.9023 188.358 74.957 188.157 75.0664C187.957 75.1712 187.808 75.3102 187.713 75.4834C187.617 75.652 187.569 75.8252 187.569 76.0029C187.569 76.1807 187.612 76.3516 187.699 76.5156C187.79 76.6797 187.929 76.8141 188.116 76.9189C188.307 77.0238 188.547 77.0762 188.834 77.0762H191.008V78.2793H188.834C188.378 78.2793 187.97 78.2223 187.61 78.1084C187.25 77.9899 186.945 77.8281 186.694 77.623C186.443 77.4134 186.252 77.1696 186.12 76.8916C185.988 76.609 185.922 76.3014 185.922 75.9688C185.922 75.627 185.99 75.3125 186.127 75.0254C186.263 74.7383 186.459 74.4876 186.715 74.2734C186.974 74.0592 187.289 73.8952 187.658 73.7812C188.032 73.6628 188.453 73.6035 188.923 73.6035ZM110.279 89.6035V97H108.625V89.6035H110.279ZM112.706 89.6035V90.9023H106.239V89.6035H112.706ZM116.282 97.1367C115.735 97.1367 115.24 97.0479 114.798 96.8701C114.361 96.6878 113.987 96.4349 113.677 96.1113C113.372 95.7878 113.137 95.4072 112.973 94.9697C112.809 94.5322 112.727 94.0605 112.727 93.5547V93.2812C112.727 92.7025 112.811 92.1784 112.98 91.709C113.148 91.2396 113.383 90.8385 113.684 90.5059C113.985 90.1686 114.34 89.9111 114.75 89.7334C115.16 89.5557 115.605 89.4668 116.083 89.4668C116.612 89.4668 117.074 89.5557 117.471 89.7334C117.867 89.9111 118.196 90.1618 118.455 90.4854C118.72 90.8044 118.916 91.1849 119.043 91.627C119.175 92.069 119.241 92.5566 119.241 93.0898V93.7939H113.527V92.6113H117.615V92.4814C117.605 92.1852 117.546 91.9072 117.437 91.6475C117.332 91.3877 117.17 91.1781 116.951 91.0186C116.733 90.859 116.441 90.7793 116.076 90.7793C115.803 90.7793 115.559 90.8385 115.345 90.957C115.135 91.071 114.96 91.2373 114.819 91.4561C114.677 91.6748 114.568 91.9391 114.491 92.249C114.418 92.5544 114.381 92.8984 114.381 93.2812V93.5547C114.381 93.8783 114.424 94.179 114.511 94.457C114.602 94.7305 114.734 94.9697 114.907 95.1748C115.081 95.3799 115.29 95.5417 115.536 95.6602C115.782 95.7741 116.063 95.8311 116.377 95.8311C116.774 95.8311 117.127 95.7513 117.437 95.5918C117.747 95.4323 118.016 95.2067 118.243 94.915L119.112 95.7559C118.952 95.9883 118.745 96.2116 118.49 96.4258C118.234 96.6354 117.922 96.8063 117.553 96.9385C117.188 97.0706 116.765 97.1367 116.282 97.1367ZM121.504 89.6035L122.913 92.0576L124.348 89.6035H126.16L123.918 93.2334L126.249 97H124.437L122.933 94.4434L121.429 97H119.611L121.935 93.2334L119.7 89.6035H121.504ZM131.971 89.6035V90.916H128.32V89.6035H131.971ZM128.71 89.6035V97H127.062V89.6035H128.71ZM133.263 89.6035V97H131.608V89.6035H133.263ZM134.411 93.3838V93.2266C134.411 92.6934 134.489 92.1989 134.644 91.7432C134.799 91.2829 135.022 90.8841 135.314 90.5469C135.61 90.2051 135.97 89.9408 136.394 89.7539C136.822 89.5625 137.305 89.4668 137.843 89.4668C138.385 89.4668 138.868 89.5625 139.292 89.7539C139.72 89.9408 140.083 90.2051 140.379 90.5469C140.675 90.8841 140.901 91.2829 141.056 91.7432C141.211 92.1989 141.288 92.6934 141.288 93.2266V93.3838C141.288 93.917 141.211 94.4115 141.056 94.8672C140.901 95.3229 140.675 95.7217 140.379 96.0635C140.083 96.4007 139.723 96.665 139.299 96.8564C138.875 97.0433 138.394 97.1367 137.857 97.1367C137.314 97.1367 136.829 97.0433 136.401 96.8564C135.977 96.665 135.617 96.4007 135.32 96.0635C135.024 95.7217 134.799 95.3229 134.644 94.8672C134.489 94.4115 134.411 93.917 134.411 93.3838ZM136.059 93.2266V93.3838C136.059 93.7165 136.093 94.0309 136.161 94.3271C136.23 94.6234 136.337 94.8831 136.483 95.1064C136.628 95.3298 136.815 95.5052 137.043 95.6328C137.271 95.7604 137.542 95.8242 137.857 95.8242C138.162 95.8242 138.426 95.7604 138.65 95.6328C138.877 95.5052 139.064 95.3298 139.21 95.1064C139.356 94.8831 139.463 94.6234 139.531 94.3271C139.604 94.0309 139.641 93.7165 139.641 93.3838V93.2266C139.641 92.8984 139.604 92.5885 139.531 92.2969C139.463 92.0007 139.354 91.7386 139.203 91.5107C139.057 91.2829 138.871 91.1051 138.643 90.9775C138.419 90.8454 138.153 90.7793 137.843 90.7793C137.533 90.7793 137.264 90.8454 137.036 90.9775C136.813 91.1051 136.628 91.2829 136.483 91.5107C136.337 91.7386 136.23 92.0007 136.161 92.2969C136.093 92.5885 136.059 92.8984 136.059 93.2266ZM143.237 89.6035H144.884L144.802 92.208C144.779 92.9645 144.693 93.6139 144.542 94.1562C144.392 94.6986 144.196 95.1566 143.954 95.5303C143.713 95.8994 143.44 96.2025 143.134 96.4395C142.833 96.6764 142.517 96.8633 142.184 97H141.699V95.7012L141.931 95.6875C142.127 95.4779 142.296 95.2682 142.437 95.0586C142.583 94.8444 142.706 94.6097 142.806 94.3545C142.906 94.0947 142.984 93.7917 143.038 93.4453C143.098 93.099 143.136 92.6865 143.155 92.208L143.237 89.6035ZM143.674 89.6035H148.364V97H146.723V90.998H143.674V89.6035ZM141.323 95.6875H149.375V99.2012H147.728V97H142.991V99.2012H141.316L141.323 95.6875ZM151.748 89.6035H153.395L153.313 92.208C153.29 92.9645 153.204 93.6139 153.053 94.1562C152.903 94.6986 152.707 95.1566 152.466 95.5303C152.224 95.8994 151.951 96.2025 151.645 96.4395C151.344 96.6764 151.028 96.8633 150.695 97H150.21V95.7012L150.442 95.6875C150.638 95.4779 150.807 95.2682 150.948 95.0586C151.094 94.8444 151.217 94.6097 151.317 94.3545C151.417 94.0947 151.495 93.7917 151.549 93.4453C151.609 93.099 151.647 92.6865 151.666 92.208L151.748 89.6035ZM152.185 89.6035H156.875V97H155.234V90.998H152.185V89.6035ZM149.834 95.6875H157.886V99.2012H156.239V97H151.502V99.2012H149.827L149.834 95.6875ZM162.043 97.1367C161.496 97.1367 161.002 97.0479 160.56 96.8701C160.122 96.6878 159.748 96.4349 159.438 96.1113C159.133 95.7878 158.898 95.4072 158.734 94.9697C158.57 94.5322 158.488 94.0605 158.488 93.5547V93.2812C158.488 92.7025 158.573 92.1784 158.741 91.709C158.91 91.2396 159.144 90.8385 159.445 90.5059C159.746 90.1686 160.102 89.9111 160.512 89.7334C160.922 89.5557 161.366 89.4668 161.845 89.4668C162.373 89.4668 162.836 89.5557 163.232 89.7334C163.629 89.9111 163.957 90.1618 164.217 90.4854C164.481 90.8044 164.677 91.1849 164.805 91.627C164.937 92.069 165.003 92.5566 165.003 93.0898V93.7939H159.288V92.6113H163.376V92.4814C163.367 92.1852 163.308 91.9072 163.198 91.6475C163.093 91.3877 162.932 91.1781 162.713 91.0186C162.494 90.859 162.202 90.7793 161.838 90.7793C161.564 90.7793 161.321 90.8385 161.106 90.957C160.897 91.071 160.721 91.2373 160.58 91.4561C160.439 91.6748 160.329 91.9391 160.252 92.249C160.179 92.5544 160.143 92.8984 160.143 93.2812V93.5547C160.143 93.8783 160.186 94.179 160.272 94.457C160.364 94.7305 160.496 94.9697 160.669 95.1748C160.842 95.3799 161.052 95.5417 161.298 95.6602C161.544 95.7741 161.824 95.8311 162.139 95.8311C162.535 95.8311 162.888 95.7513 163.198 95.5918C163.508 95.4323 163.777 95.2067 164.005 94.915L164.873 95.7559C164.714 95.9883 164.506 96.2116 164.251 96.4258C163.996 96.6354 163.684 96.8063 163.314 96.9385C162.95 97.0706 162.526 97.1367 162.043 97.1367ZM167.662 91.0254V99.8438H166.015V89.6035H167.532L167.662 91.0254ZM172.482 93.2334V93.377C172.482 93.9147 172.418 94.4137 172.29 94.874C172.167 95.3298 171.983 95.7285 171.737 96.0703C171.495 96.4076 171.197 96.6696 170.841 96.8564C170.486 97.0433 170.075 97.1367 169.611 97.1367C169.15 97.1367 168.747 97.0524 168.401 96.8838C168.059 96.7106 167.769 96.4668 167.532 96.1523C167.295 95.8379 167.104 95.4688 166.958 95.0449C166.817 94.6165 166.717 94.1471 166.657 93.6367V93.083C166.717 92.5407 166.817 92.0485 166.958 91.6064C167.104 91.1644 167.295 90.7839 167.532 90.4648C167.769 90.1458 168.059 89.8997 168.401 89.7266C168.742 89.5534 169.141 89.4668 169.597 89.4668C170.062 89.4668 170.474 89.5579 170.834 89.7402C171.194 89.918 171.497 90.1732 171.743 90.5059C171.989 90.834 172.174 91.2305 172.297 91.6953C172.42 92.1556 172.482 92.6683 172.482 93.2334ZM170.834 93.377V93.2334C170.834 92.8916 170.802 92.5749 170.739 92.2832C170.675 91.987 170.574 91.7272 170.438 91.5039C170.301 91.2806 170.126 91.1074 169.911 90.9844C169.702 90.8568 169.449 90.793 169.153 90.793C168.861 90.793 168.61 90.8431 168.401 90.9434C168.191 91.0391 168.016 91.1735 167.874 91.3467C167.733 91.5199 167.624 91.7227 167.546 91.9551C167.469 92.1829 167.414 92.4313 167.382 92.7002V94.0264C167.437 94.3545 167.53 94.6553 167.662 94.9287C167.795 95.2021 167.981 95.4209 168.223 95.585C168.469 95.7445 168.783 95.8242 169.166 95.8242C169.462 95.8242 169.715 95.7604 169.925 95.6328C170.135 95.5052 170.306 95.3298 170.438 95.1064C170.574 94.8786 170.675 94.6165 170.739 94.3203C170.802 94.0241 170.834 93.7096 170.834 93.377ZM175.948 94.0127L172.995 89.6035H175.018L176.741 92.5156H178.183L177.971 94.0127H175.948ZM176.782 93.7734L174.888 97H172.865L175.544 92.8369L176.782 93.7734ZM179.174 89.6035V97H177.534V89.6035H179.174ZM183.734 89.6035L180.781 94.0127H178.751L178.532 92.5156H179.981L181.704 89.6035H183.734ZM181.834 97L179.933 93.7734L181.211 92.8369L183.877 97H181.834ZM186.421 89.6035V97H184.773V89.6035H186.421ZM191.247 89.6035L187.918 94.0537H186.038L185.819 92.5635H187.193L189.189 89.6035H191.247ZM189.319 97L187.091 93.7734L188.389 92.8369L191.486 97H189.319ZM196.272 95.5166V91.9893C196.272 91.7249 196.224 91.4971 196.128 91.3057C196.032 91.1143 195.886 90.9661 195.691 90.8613C195.499 90.7565 195.258 90.7041 194.966 90.7041C194.697 90.7041 194.465 90.7497 194.269 90.8408C194.073 90.932 193.92 91.055 193.811 91.21C193.701 91.3649 193.647 91.5404 193.647 91.7363H192.006C192.006 91.4447 192.077 91.1621 192.218 90.8887C192.359 90.6152 192.564 90.3714 192.833 90.1572C193.102 89.943 193.423 89.7744 193.797 89.6514C194.171 89.5283 194.59 89.4668 195.055 89.4668C195.611 89.4668 196.103 89.5602 196.531 89.7471C196.964 89.9339 197.304 90.2165 197.55 90.5947C197.801 90.9684 197.926 91.4378 197.926 92.0029V95.291C197.926 95.6283 197.949 95.9313 197.994 96.2002C198.044 96.4645 198.115 96.6947 198.206 96.8906V97H196.518C196.44 96.8223 196.379 96.5967 196.333 96.3232C196.292 96.0452 196.272 95.7764 196.272 95.5166ZM196.511 92.502L196.524 93.5205H195.342C195.037 93.5205 194.768 93.5501 194.535 93.6094C194.303 93.6641 194.109 93.7461 193.954 93.8555C193.799 93.9648 193.683 94.097 193.606 94.252C193.528 94.4069 193.489 94.5824 193.489 94.7783C193.489 94.9743 193.535 95.1543 193.626 95.3184C193.717 95.4779 193.849 95.6032 194.023 95.6943C194.2 95.7855 194.414 95.8311 194.665 95.8311C195.002 95.8311 195.296 95.7627 195.547 95.626C195.802 95.4847 196.003 95.3138 196.149 95.1133C196.294 94.9082 196.372 94.7145 196.381 94.5322L196.914 95.2637C196.859 95.4505 196.766 95.651 196.634 95.8652C196.502 96.0794 196.329 96.2845 196.114 96.4805C195.905 96.6719 195.652 96.8291 195.356 96.9521C195.064 97.0752 194.727 97.1367 194.344 97.1367C193.861 97.1367 193.43 97.041 193.052 96.8496C192.674 96.6536 192.377 96.3916 192.163 96.0635C191.949 95.7308 191.842 95.3548 191.842 94.9355C191.842 94.5436 191.915 94.1973 192.061 93.8965C192.211 93.5911 192.43 93.3359 192.717 93.1309C193.009 92.9258 193.364 92.7708 193.783 92.666C194.203 92.5566 194.681 92.502 195.219 92.502H196.511Z" fill="white"/>
<rect x="209" y="73" width="46" height="22" rx="11" fill="#008DF4"/>
<circle cx="244" cy="84" r="7" fill="white"/>
</g>
</g>
<defs>
<filter id="filter0_d_943_5853" x="3" y="-19" width="355" height="270" filterUnits="userSpaceOnUse" color-interpolation-filters="sRGB">
<feFlood flood-opacity="0" result="BackgroundImageFix"/>
<feColorMatrix in="SourceAlpha" type="matrix" values="0 0 0 0 0 0 0 0 0 0 0 0 0 0 0 0 0 0 127 0" result="hardAlpha"/>
<feMorphology radius="21" operator="erode" in="SourceAlpha" result="effect1_dropShadow_943_5853"/>
<feOffset dy="32"/>
<feGaussianBlur stdDeviation="50"/>
<feComposite in2="hardAlpha" operator="out"/>
<feColorMatrix type="matrix" values="0 0 0 0 0.8438 0 0 0 0 0.752353 0 0 0 0 0.7162 0 0 0 1 0"/>
<feBlend mode="normal" in2="BackgroundImageFix" result="effect1_dropShadow_943_5853"/>
<feBlend mode="normal" in="SourceGraphic" in2="effect1_dropShadow_943_5853" result="shape"/>
</filter>
<clipPath id="clip0_943_5853">
<path d="M0 0H247C255.837 0 263 7.16344 263 16V152C263 160.837 255.837 168 247 168H0V0Z" fill="white"/>
</clipPath>
</defs>
</svg>
