<svg width="169" height="166" viewBox="0 0 169 166" fill="none" xmlns="http://www.w3.org/2000/svg">
<g clip-path="url(#clip0_804_26655)">
<path fill-rule="evenodd" clip-rule="evenodd" d="M145.705 2.71289L169.508 2.71289V3.42698L145.705 3.42698V2.71289Z" fill="url(#paint0_linear_804_26655)"/>
<path d="M124.281 1.87891L124.281 4.25919L121.901 4.25919L121.901 1.87891L124.281 1.87891Z" fill="#0F5FFF"/>
<path fill-rule="evenodd" clip-rule="evenodd" d="M0.504082 2.71289L121.898 2.71289V3.42698L0.504082 3.42698V2.71289Z" fill="url(#paint1_linear_804_26655)"/>
<path fill-rule="evenodd" clip-rule="evenodd" d="M58.8247 8.66406L169.508 8.66406V9.37815L58.8247 9.37815V8.66406Z" fill="url(#paint2_linear_804_26655)"/>
<path d="M37.3984 7.83008L37.3984 10.2104L35.0182 10.2104L35.0182 7.83008L37.3984 7.83008Z" fill="#0F5FFF"/>
<path fill-rule="evenodd" clip-rule="evenodd" d="M0.501545 8.66406L35.0156 8.66406V9.37815L0.501545 9.37815V8.66406Z" fill="url(#paint3_linear_804_26655)"/>
<path fill-rule="evenodd" clip-rule="evenodd" d="M124.282 14.6152L169.508 14.6152V15.3293L124.282 15.3293V14.6152Z" fill="url(#paint4_linear_804_26655)"/>
<path d="M102.859 13.7832L102.859 16.1635L100.479 16.1635L100.479 13.7832L102.859 13.7832Z" fill="#0F5FFF"/>
<path fill-rule="evenodd" clip-rule="evenodd" d="M0.504745 14.6152L100.477 14.6152V15.3293L0.504745 15.3293V14.6152Z" fill="url(#paint5_linear_804_26655)"/>
<path fill-rule="evenodd" clip-rule="evenodd" d="M86.198 20.5664L169.508 20.5664V21.2805L86.198 21.2805V20.5664Z" fill="url(#paint6_linear_804_26655)"/>
<path d="M64.7734 19.7324L64.7734 22.1127L62.3932 22.1127L62.3932 19.7324L64.7734 19.7324Z" fill="#0F5FFF"/>
<path fill-rule="evenodd" clip-rule="evenodd" d="M0.503307 20.5645L62.3906 20.5645V21.2785L0.503307 21.2785V20.5645Z" fill="url(#paint7_linear_804_26655)"/>
<path fill-rule="evenodd" clip-rule="evenodd" d="M95.7191 26.5156L169.508 26.5156V27.2297L95.7191 27.2297V26.5156Z" fill="url(#paint8_linear_804_26655)"/>
<path d="M74.2969 25.6816L74.2969 28.0619L71.9166 28.0619L71.9166 25.6816L74.2969 25.6816Z" fill="#0F5FFF"/>
<path fill-rule="evenodd" clip-rule="evenodd" d="M0.505623 26.5156L71.9141 26.5156V27.2297L0.505623 27.2297V26.5156Z" fill="url(#paint9_linear_804_26655)"/>
<path fill-rule="evenodd" clip-rule="evenodd" d="M159.987 32.4688L169.508 32.4688V33.1828L159.987 33.1828V32.4688Z" fill="url(#paint10_linear_804_26655)"/>
<path d="M138.562 31.6328L138.562 34.0131L136.182 34.0131L136.182 31.6328L138.562 31.6328Z" fill="#0F5FFF"/>
<path fill-rule="evenodd" clip-rule="evenodd" d="M27.8769 32.4668L136.18 32.4668V33.1809L27.8769 33.1809V32.4668Z" fill="url(#paint11_linear_804_26655)"/>
<path fill-rule="evenodd" clip-rule="evenodd" d="M145.705 38.418L169.508 38.418V39.1321L145.705 39.1321V38.418Z" fill="url(#paint12_linear_804_26655)"/>
<path d="M124.281 37.5859L124.281 39.9662L121.901 39.9662L121.901 37.5859L124.281 37.5859Z" fill="#0F5FFF"/>
<path fill-rule="evenodd" clip-rule="evenodd" d="M0.504082 38.418L121.898 38.418V39.1321L0.504082 39.1321V38.418Z" fill="url(#paint13_linear_804_26655)"/>
<path fill-rule="evenodd" clip-rule="evenodd" d="M58.8247 44.3672L169.508 44.3672V45.0813L58.8247 45.0813V44.3672Z" fill="url(#paint14_linear_804_26655)"/>
<path d="M37.3984 43.5352L37.3984 45.9154L35.0182 45.9154L35.0182 43.5352L37.3984 43.5352Z" fill="#0F5FFF"/>
<path fill-rule="evenodd" clip-rule="evenodd" d="M0.501545 44.3691L35.0156 44.3691V45.0832L0.501545 45.0832V44.3691Z" fill="url(#paint15_linear_804_26655)"/>
<path fill-rule="evenodd" clip-rule="evenodd" d="M110.001 50.3203L169.508 50.3203V51.0344L110.001 51.0344V50.3203Z" fill="url(#paint16_linear_804_26655)"/>
<path d="M88.5781 49.4863L88.5781 51.8666L86.1978 51.8666L86.1978 49.4863L88.5781 49.4863Z" fill="#0F5FFF"/>
<path fill-rule="evenodd" clip-rule="evenodd" d="M0.505188 50.3203L86.1953 50.3203V51.0344L0.505188 51.0344V50.3203Z" fill="url(#paint17_linear_804_26655)"/>
<path fill-rule="evenodd" clip-rule="evenodd" d="M86.198 56.2695L169.508 56.2695V56.9836L86.198 56.9836V56.2695Z" fill="url(#paint18_linear_804_26655)"/>
<path d="M64.7734 55.4355L64.7734 57.8158L62.3932 57.8158L62.3932 55.4355L64.7734 55.4355Z" fill="#0F5FFF"/>
<path fill-rule="evenodd" clip-rule="evenodd" d="M0.503307 56.2695L62.3906 56.2695V56.9836L0.503307 56.9836V56.2695Z" fill="url(#paint19_linear_804_26655)"/>
<path fill-rule="evenodd" clip-rule="evenodd" d="M110.001 62.2207L169.508 62.2207V62.9348L110.001 62.9348V62.2207Z" fill="url(#paint20_linear_804_26655)"/>
<path d="M88.5781 61.3867L88.5781 63.767L86.1978 63.767L86.1978 61.3867L88.5781 61.3867Z" fill="#0F5FFF"/>
<path fill-rule="evenodd" clip-rule="evenodd" d="M0.505188 62.2207L86.1953 62.2207V62.9348L0.505188 62.9348V62.2207Z" fill="url(#paint21_linear_804_26655)"/>
<path fill-rule="evenodd" clip-rule="evenodd" d="M132.613 68.1719L169.508 68.1719V68.886L132.613 68.886V68.1719Z" fill="url(#paint22_linear_804_26655)"/>
<path d="M111.188 67.3379L111.187 69.7182L108.807 69.7182L108.807 67.3379L111.188 67.3379Z" fill="#0F5FFF"/>
<path fill-rule="evenodd" clip-rule="evenodd" d="M0.509705 68.1719L108.812 68.1719V68.886L0.509705 68.886V68.1719Z" fill="url(#paint23_linear_804_26655)"/>
<path fill-rule="evenodd" clip-rule="evenodd" d="M73.1064 74.1211L169.508 74.1211V74.8352L73.1064 74.8352V74.1211Z" fill="url(#paint24_linear_804_26655)"/>
<path d="M51.6797 73.2891L51.6797 75.6693L49.2994 75.6693L49.2994 73.2891L51.6797 73.2891Z" fill="#0F5FFF"/>
<path fill-rule="evenodd" clip-rule="evenodd" d="M0.501106 74.123L49.2969 74.123V74.8371L0.501106 74.8371V74.123Z" fill="url(#paint25_linear_804_26655)"/>
<path fill-rule="evenodd" clip-rule="evenodd" d="M95.7191 80.0723L169.508 80.0723V80.7864L95.7191 80.7864V80.0723Z" fill="url(#paint26_linear_804_26655)"/>
<path d="M74.2969 79.2402L74.2969 81.6205L71.9166 81.6205L71.9166 79.2402L74.2969 79.2402Z" fill="#0F5FFF"/>
<path fill-rule="evenodd" clip-rule="evenodd" d="M0.505623 80.0723L71.9141 80.0723V80.7864L0.505623 80.7864V80.0723Z" fill="url(#paint27_linear_804_26655)"/>
<path fill-rule="evenodd" clip-rule="evenodd" d="M24.3106 86.7383L0.507812 86.7383L0.507813 86.0242L24.3106 86.0242L24.3106 86.7383Z" fill="url(#paint28_linear_804_26655)"/>
<path d="M45.7266 87.5703L45.7266 85.19L48.1068 85.19L48.1068 87.5703L45.7266 87.5703Z" fill="#0F5FFF"/>
<path fill-rule="evenodd" clip-rule="evenodd" d="M169.504 86.7383L48.1094 86.7383L48.1094 86.0242L169.504 86.0242L169.504 86.7383Z" fill="url(#paint29_linear_804_26655)"/>
<path d="M0.507812 93.5215L0.507813 91.1412L2.88809 91.1412L2.88809 93.5215L0.507812 93.5215Z" fill="#0F5FFF"/>
<path fill-rule="evenodd" clip-rule="evenodd" d="M35.0166 92.6875L2.88281 92.6875L2.88281 91.9734L35.0166 91.9734L35.0166 92.6875Z" fill="url(#paint30_linear_804_26655)"/>
<path d="M56.4453 93.5215L56.4453 91.1412L58.8256 91.1412L58.8256 93.5215L56.4453 93.5215Z" fill="#0F5FFF"/>
<path fill-rule="evenodd" clip-rule="evenodd" d="M169.503 92.6875L58.8203 92.6875L58.8203 91.9734L169.503 91.9734L169.503 92.6875Z" fill="url(#paint31_linear_804_26655)"/>
<path fill-rule="evenodd" clip-rule="evenodd" d="M45.7332 98.6387L0.507812 98.6387L0.507813 97.9246L45.7332 97.9246L45.7332 98.6387Z" fill="url(#paint32_linear_804_26655)"/>
<path d="M67.1562 99.4727L67.1563 97.0924L69.5365 97.0924L69.5365 99.4727L67.1562 99.4727Z" fill="#0F5FFF"/>
<path fill-rule="evenodd" clip-rule="evenodd" d="M169.503 98.6387L69.5312 98.6387L69.5313 97.9246L169.503 97.9246L169.503 98.6387Z" fill="url(#paint33_linear_804_26655)"/>
<path d="M0.507812 105.424L0.507813 103.044L2.88809 103.044L2.88809 105.424L0.507812 105.424Z" fill="#0F5FFF"/>
<path fill-rule="evenodd" clip-rule="evenodd" d="M111.186 104.59L2.88281 104.59L2.88281 103.876L111.186 103.876L111.186 104.59Z" fill="url(#paint34_linear_804_26655)"/>
<path d="M132.609 105.422L132.609 103.042L134.99 103.042L134.99 105.422L132.609 105.422Z" fill="#0F5FFF"/>
<path fill-rule="evenodd" clip-rule="evenodd" d="M169.506 104.59L134.992 104.59L134.992 103.876L169.506 103.876L169.506 104.59Z" fill="url(#paint35_linear_804_26655)"/>
<path fill-rule="evenodd" clip-rule="evenodd" d="M74.2965 110.541L0.507812 110.541L0.507813 109.827L74.2965 109.827L74.2965 110.541Z" fill="url(#paint36_linear_804_26655)"/>
<path d="M95.7188 111.373L95.7188 108.993L98.099 108.993L98.099 111.373L95.7188 111.373Z" fill="#0F5FFF"/>
<path fill-rule="evenodd" clip-rule="evenodd" d="M169.502 110.539L98.0938 110.539L98.0938 109.825L169.502 109.825L169.502 110.539Z" fill="url(#paint37_linear_804_26655)"/>
<path d="M0.507812 117.324L0.507813 114.944L2.88809 114.944L2.88809 117.324L0.507812 117.324Z" fill="#0F5FFF"/>
<path fill-rule="evenodd" clip-rule="evenodd" d="M83.8124 116.49L2.88281 116.49L2.88281 115.776L83.8124 115.776L83.8124 116.49Z" fill="url(#paint38_linear_804_26655)"/>
<path d="M105.234 117.324L105.234 114.944L107.615 114.944L107.615 117.324L105.234 117.324Z" fill="#0F5FFF"/>
<path fill-rule="evenodd" clip-rule="evenodd" d="M169.505 116.49L107.617 116.49L107.617 115.776L169.505 115.776L169.505 116.49Z" fill="url(#paint39_linear_804_26655)"/>
<path fill-rule="evenodd" clip-rule="evenodd" d="M24.3106 122.441L0.507812 122.441L0.507813 121.727L24.3106 121.727L24.3106 122.441Z" fill="url(#paint40_linear_804_26655)"/>
<path d="M45.7266 123.275L45.7266 120.895L48.1068 120.895L48.1068 123.275L45.7266 123.275Z" fill="#0F5FFF"/>
<path fill-rule="evenodd" clip-rule="evenodd" d="M169.504 122.441L48.1094 122.441L48.1094 121.727L169.504 121.727L169.504 122.441Z" fill="url(#paint41_linear_804_26655)"/>
<path d="M0.507812 129.225L0.507813 126.844L2.88809 126.844L2.88809 129.225L0.507812 129.225Z" fill="#0F5FFF"/>
<path fill-rule="evenodd" clip-rule="evenodd" d="M37.3969 128.391L2.88281 128.391L2.88281 127.677L37.3969 127.677L37.3969 128.391Z" fill="url(#paint42_linear_804_26655)"/>
<path d="M58.8203 129.225L58.8203 126.844L61.2006 126.844L61.2006 129.225L58.8203 129.225Z" fill="#0F5FFF"/>
<path fill-rule="evenodd" clip-rule="evenodd" d="M169.506 128.391L61.2031 128.391L61.2031 127.677L169.506 127.677L169.506 128.391Z" fill="url(#paint43_linear_804_26655)"/>
<path fill-rule="evenodd" clip-rule="evenodd" d="M4.07823 134.342L0.507812 134.342L0.507813 133.628L4.07823 133.628L4.07823 134.342Z" fill="url(#paint44_linear_804_26655)"/>
<path d="M25.5 135.176L25.5 132.795L27.8803 132.796L27.8803 135.176L25.5 135.176Z" fill="#0F5FFF"/>
<path fill-rule="evenodd" clip-rule="evenodd" d="M169.502 134.342L27.875 134.342L27.875 133.628L169.502 133.628L169.502 134.342Z" fill="url(#paint45_linear_804_26655)"/>
<path d="M0.507812 141.127L0.507813 138.747L2.88809 138.747L2.88809 141.127L0.507812 141.127Z" fill="#0F5FFF"/>
<path fill-rule="evenodd" clip-rule="evenodd" d="M111.186 140.293L2.88281 140.293L2.88281 139.579L111.186 139.579L111.186 140.293Z" fill="url(#paint46_linear_804_26655)"/>
<path d="M132.609 141.127L132.609 138.747L134.99 138.747L134.99 141.127L132.609 141.127Z" fill="#0F5FFF"/>
<path fill-rule="evenodd" clip-rule="evenodd" d="M169.506 140.293L134.992 140.293L134.992 139.579L169.506 139.579L169.506 140.293Z" fill="url(#paint47_linear_804_26655)"/>
<path fill-rule="evenodd" clip-rule="evenodd" d="M100.48 146.244L0.507812 146.244L0.507813 145.53L100.48 145.53L100.48 146.244Z" fill="url(#paint48_linear_804_26655)"/>
<path d="M121.898 147.076L121.898 144.696L124.279 144.696L124.279 147.076L121.898 147.076Z" fill="#0F5FFF"/>
<path fill-rule="evenodd" clip-rule="evenodd" d="M169.507 146.244L124.281 146.244L124.281 145.53L169.507 145.53L169.507 146.244Z" fill="url(#paint49_linear_804_26655)"/>
<path d="M0.507812 153.027L0.507813 150.647L2.88809 150.647L2.88809 153.027L0.507812 153.027Z" fill="#0F5FFF"/>
<path fill-rule="evenodd" clip-rule="evenodd" d="M83.8124 152.193L2.88281 152.193L2.88281 151.479L83.8124 151.479L83.8124 152.193Z" fill="url(#paint50_linear_804_26655)"/>
<path d="M105.234 153.027L105.234 150.647L107.615 150.647L107.615 153.027L105.234 153.027Z" fill="#0F5FFF"/>
<path fill-rule="evenodd" clip-rule="evenodd" d="M169.505 152.193L107.617 152.193L107.617 151.479L169.505 151.479L169.505 152.193Z" fill="url(#paint51_linear_804_26655)"/>
<path fill-rule="evenodd" clip-rule="evenodd" d="M74.2965 158.146L0.507812 158.146L0.507813 157.432L74.2965 157.432L74.2965 158.146Z" fill="url(#paint52_linear_804_26655)"/>
<path d="M95.7188 158.979L95.7188 156.598L98.099 156.598L98.099 158.979L95.7188 158.979Z" fill="#0F5FFF"/>
<path fill-rule="evenodd" clip-rule="evenodd" d="M169.502 158.146L98.0938 158.146L98.0938 157.432L169.502 157.432L169.502 158.146Z" fill="url(#paint53_linear_804_26655)"/>
<path d="M0.507812 164.93L0.507813 162.549L2.88809 162.549L2.88809 164.93L0.507812 164.93Z" fill="#0F5FFF"/>
<path fill-rule="evenodd" clip-rule="evenodd" d="M37.3969 164.096L2.88281 164.096L2.88281 163.382L37.3969 163.382L37.3969 164.096Z" fill="url(#paint54_linear_804_26655)"/>
<path d="M58.8203 164.93L58.8203 162.549L61.2006 162.549L61.2006 164.93L58.8203 164.93Z" fill="#0F5FFF"/>
<path fill-rule="evenodd" clip-rule="evenodd" d="M169.506 164.096L61.2031 164.096L61.2031 163.382L169.506 163.382L169.506 164.096Z" fill="url(#paint55_linear_804_26655)"/>
</g>
<defs>
<linearGradient id="paint0_linear_804_26655" x1="169.508" y1="3.665" x2="145.705" y2="3.665" gradientUnits="userSpaceOnUse">
<stop stop-color="#008DF4"/>
<stop offset="1" stop-color="#008DF4" stop-opacity="0"/>
</linearGradient>
<linearGradient id="paint1_linear_804_26655" x1="121.898" y1="3.665" x2="0.504089" y2="3.665" gradientUnits="userSpaceOnUse">
<stop stop-color="#008DF4"/>
<stop offset="1" stop-color="#008DF4" stop-opacity="0"/>
</linearGradient>
<linearGradient id="paint2_linear_804_26655" x1="169.508" y1="9.61618" x2="58.8247" y2="9.61618" gradientUnits="userSpaceOnUse">
<stop stop-color="#008DF4"/>
<stop offset="1" stop-color="#008DF4" stop-opacity="0"/>
</linearGradient>
<linearGradient id="paint3_linear_804_26655" x1="35.0156" y1="9.61618" x2="0.501545" y2="9.61618" gradientUnits="userSpaceOnUse">
<stop stop-color="#008DF4"/>
<stop offset="1" stop-color="#008DF4" stop-opacity="0"/>
</linearGradient>
<linearGradient id="paint4_linear_804_26655" x1="169.508" y1="15.5673" x2="124.282" y2="15.5673" gradientUnits="userSpaceOnUse">
<stop stop-color="#008DF4"/>
<stop offset="1" stop-color="#008DF4" stop-opacity="0"/>
</linearGradient>
<linearGradient id="paint5_linear_804_26655" x1="100.477" y1="15.5673" x2="0.504745" y2="15.5673" gradientUnits="userSpaceOnUse">
<stop stop-color="#008DF4"/>
<stop offset="1" stop-color="#008DF4" stop-opacity="0"/>
</linearGradient>
<linearGradient id="paint6_linear_804_26655" x1="169.508" y1="21.5185" x2="86.198" y2="21.5185" gradientUnits="userSpaceOnUse">
<stop stop-color="#008DF4"/>
<stop offset="1" stop-color="#008DF4" stop-opacity="0"/>
</linearGradient>
<linearGradient id="paint7_linear_804_26655" x1="62.3906" y1="21.5166" x2="0.503307" y2="21.5166" gradientUnits="userSpaceOnUse">
<stop stop-color="#008DF4"/>
<stop offset="1" stop-color="#008DF4" stop-opacity="0"/>
</linearGradient>
<linearGradient id="paint8_linear_804_26655" x1="169.508" y1="27.4677" x2="95.7191" y2="27.4677" gradientUnits="userSpaceOnUse">
<stop stop-color="#008DF4"/>
<stop offset="1" stop-color="#008DF4" stop-opacity="0"/>
</linearGradient>
<linearGradient id="paint9_linear_804_26655" x1="71.9141" y1="27.4677" x2="0.505623" y2="27.4677" gradientUnits="userSpaceOnUse">
<stop stop-color="#008DF4"/>
<stop offset="1" stop-color="#008DF4" stop-opacity="0"/>
</linearGradient>
<linearGradient id="paint10_linear_804_26655" x1="169.508" y1="33.4209" x2="159.987" y2="33.4209" gradientUnits="userSpaceOnUse">
<stop stop-color="#008DF4"/>
<stop offset="1" stop-color="#008DF4" stop-opacity="0"/>
</linearGradient>
<linearGradient id="paint11_linear_804_26655" x1="136.18" y1="33.4189" x2="27.8769" y2="33.4189" gradientUnits="userSpaceOnUse">
<stop stop-color="#008DF4"/>
<stop offset="1" stop-color="#008DF4" stop-opacity="0"/>
</linearGradient>
<linearGradient id="paint12_linear_804_26655" x1="169.508" y1="39.3701" x2="145.705" y2="39.3701" gradientUnits="userSpaceOnUse">
<stop stop-color="#008DF4"/>
<stop offset="1" stop-color="#008DF4" stop-opacity="0"/>
</linearGradient>
<linearGradient id="paint13_linear_804_26655" x1="121.898" y1="39.3701" x2="0.504089" y2="39.3701" gradientUnits="userSpaceOnUse">
<stop stop-color="#008DF4"/>
<stop offset="1" stop-color="#008DF4" stop-opacity="0"/>
</linearGradient>
<linearGradient id="paint14_linear_804_26655" x1="169.508" y1="45.3193" x2="58.8247" y2="45.3193" gradientUnits="userSpaceOnUse">
<stop stop-color="#008DF4"/>
<stop offset="1" stop-color="#008DF4" stop-opacity="0"/>
</linearGradient>
<linearGradient id="paint15_linear_804_26655" x1="35.0156" y1="45.3213" x2="0.501545" y2="45.3213" gradientUnits="userSpaceOnUse">
<stop stop-color="#008DF4"/>
<stop offset="1" stop-color="#008DF4" stop-opacity="0"/>
</linearGradient>
<linearGradient id="paint16_linear_804_26655" x1="169.508" y1="51.2724" x2="110.001" y2="51.2724" gradientUnits="userSpaceOnUse">
<stop stop-color="#008DF4"/>
<stop offset="1" stop-color="#008DF4" stop-opacity="0"/>
</linearGradient>
<linearGradient id="paint17_linear_804_26655" x1="86.1953" y1="51.2724" x2="0.505188" y2="51.2724" gradientUnits="userSpaceOnUse">
<stop stop-color="#008DF4"/>
<stop offset="1" stop-color="#008DF4" stop-opacity="0"/>
</linearGradient>
<linearGradient id="paint18_linear_804_26655" x1="169.508" y1="57.2216" x2="86.198" y2="57.2216" gradientUnits="userSpaceOnUse">
<stop stop-color="#008DF4"/>
<stop offset="1" stop-color="#008DF4" stop-opacity="0"/>
</linearGradient>
<linearGradient id="paint19_linear_804_26655" x1="62.3906" y1="57.2216" x2="0.503307" y2="57.2216" gradientUnits="userSpaceOnUse">
<stop stop-color="#008DF4"/>
<stop offset="1" stop-color="#008DF4" stop-opacity="0"/>
</linearGradient>
<linearGradient id="paint20_linear_804_26655" x1="169.508" y1="63.1728" x2="110.001" y2="63.1728" gradientUnits="userSpaceOnUse">
<stop stop-color="#008DF4"/>
<stop offset="1" stop-color="#008DF4" stop-opacity="0"/>
</linearGradient>
<linearGradient id="paint21_linear_804_26655" x1="86.1953" y1="63.1728" x2="0.505188" y2="63.1728" gradientUnits="userSpaceOnUse">
<stop stop-color="#008DF4"/>
<stop offset="1" stop-color="#008DF4" stop-opacity="0"/>
</linearGradient>
<linearGradient id="paint22_linear_804_26655" x1="169.508" y1="69.124" x2="132.613" y2="69.124" gradientUnits="userSpaceOnUse">
<stop stop-color="#008DF4"/>
<stop offset="1" stop-color="#008DF4" stop-opacity="0"/>
</linearGradient>
<linearGradient id="paint23_linear_804_26655" x1="108.812" y1="69.124" x2="0.509705" y2="69.124" gradientUnits="userSpaceOnUse">
<stop stop-color="#008DF4"/>
<stop offset="1" stop-color="#008DF4" stop-opacity="0"/>
</linearGradient>
<linearGradient id="paint24_linear_804_26655" x1="169.508" y1="75.0732" x2="73.1064" y2="75.0732" gradientUnits="userSpaceOnUse">
<stop stop-color="#008DF4"/>
<stop offset="1" stop-color="#008DF4" stop-opacity="0"/>
</linearGradient>
<linearGradient id="paint25_linear_804_26655" x1="49.2969" y1="75.0752" x2="0.501106" y2="75.0752" gradientUnits="userSpaceOnUse">
<stop stop-color="#008DF4"/>
<stop offset="1" stop-color="#008DF4" stop-opacity="0"/>
</linearGradient>
<linearGradient id="paint26_linear_804_26655" x1="169.508" y1="81.0244" x2="95.7191" y2="81.0244" gradientUnits="userSpaceOnUse">
<stop stop-color="#008DF4"/>
<stop offset="1" stop-color="#008DF4" stop-opacity="0"/>
</linearGradient>
<linearGradient id="paint27_linear_804_26655" x1="71.9141" y1="81.0244" x2="0.505623" y2="81.0244" gradientUnits="userSpaceOnUse">
<stop stop-color="#008DF4"/>
<stop offset="1" stop-color="#008DF4" stop-opacity="0"/>
</linearGradient>
<linearGradient id="paint28_linear_804_26655" x1="0.507813" y1="85.7862" x2="24.3106" y2="85.7862" gradientUnits="userSpaceOnUse">
<stop stop-color="#008DF4"/>
<stop offset="1" stop-color="#008DF4" stop-opacity="0"/>
</linearGradient>
<linearGradient id="paint29_linear_804_26655" x1="48.1094" y1="85.7862" x2="169.504" y2="85.7862" gradientUnits="userSpaceOnUse">
<stop stop-color="#008DF4"/>
<stop offset="1" stop-color="#008DF4" stop-opacity="0"/>
</linearGradient>
<linearGradient id="paint30_linear_804_26655" x1="2.88281" y1="91.7354" x2="35.0166" y2="91.7354" gradientUnits="userSpaceOnUse">
<stop stop-color="#008DF4"/>
<stop offset="1" stop-color="#008DF4" stop-opacity="0"/>
</linearGradient>
<linearGradient id="paint31_linear_804_26655" x1="58.8203" y1="91.7354" x2="169.503" y2="91.7354" gradientUnits="userSpaceOnUse">
<stop stop-color="#008DF4"/>
<stop offset="1" stop-color="#008DF4" stop-opacity="0"/>
</linearGradient>
<linearGradient id="paint32_linear_804_26655" x1="0.507813" y1="97.6866" x2="45.7332" y2="97.6866" gradientUnits="userSpaceOnUse">
<stop stop-color="#008DF4"/>
<stop offset="1" stop-color="#008DF4" stop-opacity="0"/>
</linearGradient>
<linearGradient id="paint33_linear_804_26655" x1="69.5313" y1="97.6866" x2="169.503" y2="97.6866" gradientUnits="userSpaceOnUse">
<stop stop-color="#008DF4"/>
<stop offset="1" stop-color="#008DF4" stop-opacity="0"/>
</linearGradient>
<linearGradient id="paint34_linear_804_26655" x1="2.88281" y1="103.638" x2="111.186" y2="103.638" gradientUnits="userSpaceOnUse">
<stop stop-color="#008DF4"/>
<stop offset="1" stop-color="#008DF4" stop-opacity="0"/>
</linearGradient>
<linearGradient id="paint35_linear_804_26655" x1="134.992" y1="103.638" x2="169.506" y2="103.638" gradientUnits="userSpaceOnUse">
<stop stop-color="#008DF4"/>
<stop offset="1" stop-color="#008DF4" stop-opacity="0"/>
</linearGradient>
<linearGradient id="paint36_linear_804_26655" x1="0.507813" y1="109.589" x2="74.2965" y2="109.589" gradientUnits="userSpaceOnUse">
<stop stop-color="#008DF4"/>
<stop offset="1" stop-color="#008DF4" stop-opacity="0"/>
</linearGradient>
<linearGradient id="paint37_linear_804_26655" x1="98.0938" y1="109.587" x2="169.502" y2="109.587" gradientUnits="userSpaceOnUse">
<stop stop-color="#008DF4"/>
<stop offset="1" stop-color="#008DF4" stop-opacity="0"/>
</linearGradient>
<linearGradient id="paint38_linear_804_26655" x1="2.88281" y1="115.538" x2="83.8124" y2="115.538" gradientUnits="userSpaceOnUse">
<stop stop-color="#008DF4"/>
<stop offset="1" stop-color="#008DF4" stop-opacity="0"/>
</linearGradient>
<linearGradient id="paint39_linear_804_26655" x1="107.617" y1="115.538" x2="169.505" y2="115.538" gradientUnits="userSpaceOnUse">
<stop stop-color="#008DF4"/>
<stop offset="1" stop-color="#008DF4" stop-opacity="0"/>
</linearGradient>
<linearGradient id="paint40_linear_804_26655" x1="0.507813" y1="121.489" x2="24.3106" y2="121.489" gradientUnits="userSpaceOnUse">
<stop stop-color="#008DF4"/>
<stop offset="1" stop-color="#008DF4" stop-opacity="0"/>
</linearGradient>
<linearGradient id="paint41_linear_804_26655" x1="48.1094" y1="121.489" x2="169.504" y2="121.489" gradientUnits="userSpaceOnUse">
<stop stop-color="#008DF4"/>
<stop offset="1" stop-color="#008DF4" stop-opacity="0"/>
</linearGradient>
<linearGradient id="paint42_linear_804_26655" x1="2.88281" y1="127.439" x2="37.3969" y2="127.439" gradientUnits="userSpaceOnUse">
<stop stop-color="#008DF4"/>
<stop offset="1" stop-color="#008DF4" stop-opacity="0"/>
</linearGradient>
<linearGradient id="paint43_linear_804_26655" x1="61.2031" y1="127.439" x2="169.506" y2="127.439" gradientUnits="userSpaceOnUse">
<stop stop-color="#008DF4"/>
<stop offset="1" stop-color="#008DF4" stop-opacity="0"/>
</linearGradient>
<linearGradient id="paint44_linear_804_26655" x1="0.507813" y1="133.39" x2="4.07823" y2="133.39" gradientUnits="userSpaceOnUse">
<stop stop-color="#008DF4"/>
<stop offset="1" stop-color="#008DF4" stop-opacity="0"/>
</linearGradient>
<linearGradient id="paint45_linear_804_26655" x1="27.875" y1="133.39" x2="169.502" y2="133.39" gradientUnits="userSpaceOnUse">
<stop stop-color="#008DF4"/>
<stop offset="1" stop-color="#008DF4" stop-opacity="0"/>
</linearGradient>
<linearGradient id="paint46_linear_804_26655" x1="2.88281" y1="139.341" x2="111.186" y2="139.341" gradientUnits="userSpaceOnUse">
<stop stop-color="#008DF4"/>
<stop offset="1" stop-color="#008DF4" stop-opacity="0"/>
</linearGradient>
<linearGradient id="paint47_linear_804_26655" x1="134.992" y1="139.341" x2="169.506" y2="139.341" gradientUnits="userSpaceOnUse">
<stop stop-color="#008DF4"/>
<stop offset="1" stop-color="#008DF4" stop-opacity="0"/>
</linearGradient>
<linearGradient id="paint48_linear_804_26655" x1="0.507813" y1="145.292" x2="100.48" y2="145.292" gradientUnits="userSpaceOnUse">
<stop stop-color="#008DF4"/>
<stop offset="1" stop-color="#008DF4" stop-opacity="0"/>
</linearGradient>
<linearGradient id="paint49_linear_804_26655" x1="124.281" y1="145.292" x2="169.507" y2="145.292" gradientUnits="userSpaceOnUse">
<stop stop-color="#008DF4"/>
<stop offset="1" stop-color="#008DF4" stop-opacity="0"/>
</linearGradient>
<linearGradient id="paint50_linear_804_26655" x1="2.88281" y1="151.241" x2="83.8124" y2="151.241" gradientUnits="userSpaceOnUse">
<stop stop-color="#008DF4"/>
<stop offset="1" stop-color="#008DF4" stop-opacity="0"/>
</linearGradient>
<linearGradient id="paint51_linear_804_26655" x1="107.617" y1="151.241" x2="169.505" y2="151.241" gradientUnits="userSpaceOnUse">
<stop stop-color="#008DF4"/>
<stop offset="1" stop-color="#008DF4" stop-opacity="0"/>
</linearGradient>
<linearGradient id="paint52_linear_804_26655" x1="0.507813" y1="157.194" x2="74.2965" y2="157.194" gradientUnits="userSpaceOnUse">
<stop stop-color="#008DF4"/>
<stop offset="1" stop-color="#008DF4" stop-opacity="0"/>
</linearGradient>
<linearGradient id="paint53_linear_804_26655" x1="98.0938" y1="157.194" x2="169.502" y2="157.194" gradientUnits="userSpaceOnUse">
<stop stop-color="#008DF4"/>
<stop offset="1" stop-color="#008DF4" stop-opacity="0"/>
</linearGradient>
<linearGradient id="paint54_linear_804_26655" x1="2.88281" y1="163.144" x2="37.3969" y2="163.144" gradientUnits="userSpaceOnUse">
<stop stop-color="#008DF4"/>
<stop offset="1" stop-color="#008DF4" stop-opacity="0"/>
</linearGradient>
<linearGradient id="paint55_linear_804_26655" x1="61.2031" y1="163.144" x2="169.506" y2="163.144" gradientUnits="userSpaceOnUse">
<stop stop-color="#008DF4"/>
<stop offset="1" stop-color="#008DF4" stop-opacity="0"/>
</linearGradient>
<clipPath id="clip0_804_26655">
<rect x="168.5" width="166" height="168" transform="rotate(90 168.5 0)" fill="white"/>
</clipPath>
</defs>
</svg>
